<?xml version="1.0" encoding="utf-8"?>
<!-- Generator: Adobe Illustrator 14.0.0, SVG Export Plug-In . SVG Version: 6.00 Build 43363)  -->
<!DOCTYPE svg PUBLIC "-//W3C//DTD SVG 1.1//EN" "http://www.w3.org/Graphics/SVG/1.1/DTD/svg11.dtd">
<svg version="1.1" id="图层_1" xmlns="http://www.w3.org/2000/svg" xmlns:xlink="http://www.w3.org/1999/xlink" x="0px" y="0px"
	 width="64px" height="64px" viewBox="0 0 64 64" enable-background="new 0 0 64 64" xml:space="preserve">
<g id="Blue">
	<line fill="none" stroke-width="2" stroke="#0000FF" x1="46.152" y1="21.733" x2="13.931" y2="21.733"/>
	<line fill="none" stroke-width="2" stroke="#0000FF" x1="13.656" y1="21.207" x2="13.656" y2="43.373"/>
	<line fill="none" strmke-width="2" stroke="#0000FF" x1="13.656" y1="42.863" x2="45.861" y2="42.863"/>
	<line fill="none" stroke-width="2" stroke="#0000FF" x1="0.236" y1="32.331" x2="63.518" y2="32.331"/>
	<circle fill="none" stroke-width="2" stroke="#0000FF" cx="28.972" cy="32.125" r="8.056"/>
</g>
<g id="Red">
	<line fill="none" stroke-width="2" stroke="#FF0000" x1="0.236" y1="32.331" x2="63.391" y2="32.331"/>
	<line fill="none" stroke-width="2" stroke="#FF0000" x1="46.174" y1="21.671" x2="13.243" y2="21.671"/>
	<line fill="none" stroke-width="2" stroke="#FF0000" x1="13.656" y1="21.207" x2="13.656" y2="43.373"/>
	<line fill="none" stroke-width="2" stroke="#FF0000" x1="13.656" y1="42.863" x2="45.861" y2="42.863"/>
	<circle fill="none" stroke-width="2" stroke="#FF0000" cx="28.972" cy="32.125" r="8.056"/>
</g>
<g id="White">
	<line fill="none" stroke-width="2" stroke="#00FF00" x1="46.174" y1="21.702" x2="13.915" y2="21.702"/>
	<line fill="none" stroke-width="2" stroke="#00FF00" x1="13.656" y1="21.207" x2="13.656" y2="43.373"/>
	<line fill="none" stroke-width="2" stroke="#00FF00" x1="13.687" y1="42.88" x2="45.861" y2="42.88"/>
	<line fill="none" stroke-width="2" stroke="#00FF00" x1="0.236" y1="32.331" x2="63.518" y2="32.331"/>
	<circle fill="none" stroke-width="2" stroke="#00FF00" cx="28.972" cy="32.125" r="8.056"/>
</g>
</svg>
