<?xml version="1.0" encoding="utf-8"?>
<!-- Generator: Adobe Illustrator 14.0.0, SVG Export Plug-In . SVG Version: 6.00 Build 43363)  -->
<!DOCTYPE svg PUBLIC "-//W3C//DTD SVG 1.1//EN" "http://www.w3.org/Graphics/SVG/1.1/DTD/svg11.dtd">
<svg version="1.1" id="图层_1" xmlns="http://www.w3.org/2000/svg" xmlns:xlink="http://www.w3.org/1999/xlink" x="0px" y="0px"
	 width="64px" height="64px" viewBox="0 0 64 64" enable-background="new 0 0 64 64" xml:space="preserve">
<g id="Blue">
	<line fill="none" stroke-width="2" stroke="#0000FF" x1="-0.041" y1="32.306" x2="55.925" y2="32.306"/>
	<line fill="none" stroke-width="2" stroke="#0000FF" x1="10.43" y1="22.706" x2="40.938" y2="22.706"/>
	<line fill="none" stroke-width="2" stroke="#0000FF" x1="10.43" y1="41.295" x2="41.091" y2="41.295"/>
	<path fill="none" stroke-width="2" stroke="#0000FF" d="M63.843,39.973c-4.471,0-8.095-3.625-8.095-8.094c0-4.472,3.624-8.095,8.095-8.095"/>
</g>
<g id="Red">
	<line fill="none" stroke-width="2" stroke="#FF0000" x1="-0.041" y1="32.306" x2="55.748" y2="32.306"/>
	<line fill="none" stroke-width="2" stroke="#FF0000" x1="10.43" y1="22.706" x2="40.938" y2="22.706"/>
	<line fill="none" stroke-width="2" stroke="#FF0000" x1="10.43" y1="41.295" x2="41.091" y2="41.295"/>
	<path fill="none" stroke-width="2" stroke="#FF0000" d="M64.029,23.784c-4.471,0-8.096,3.625-8.096,8.095c0,4.469,3.625,8.094,8.096,8.094
		c0.004,0,0.009,0,0.013,0"/>
</g>
<g id="White">
	<line fill="none" stroke-width="2" stroke="#00FF00" x1="-0.041" y1="32.306" x2="55.77" y2="32.306"/>
	<line fill="none" stroke-width="2" stroke="#00FF00" x1="10.43" y1="22.706" x2="40.938" y2="22.706"/>
	<line fill="none" stroke-width="2" stroke="#00FF00" x1="10.43" y1="41.295" x2="41.091" y2="41.295"/>
	<path fill="none" stroke-width="2" stroke="#00FF00" d="M63.967,39.973c-4.471,0-8.095-3.625-8.095-8.094c0-4.472,3.625-8.095,8.095-8.095"/>
</g>
</svg>
