<?xml version="1.0" encoding="utf-8"?>
<!-- Generator: Adobe Illustrator 14.0.0, SVG Export Plug-In . SVG Version: 6.00 Build 43363)  -->
<!DOCTYPE svg PUBLIC "-//W3C//DTD SVG 1.1//EN" "http://www.w3.org/Graphics/SVG/1.1/DTD/svg11.dtd">
<svg version="1.1" id="图层_1" xmlns="http://www.w3.org/2000/svg" xmlns:xlink="http://www.w3.org/1999/xlink" x="0px" y="0px"
	 width="64px" height="64px" viewBox="0 0 64 64" enable-background="new 0 0 64 64" xml:space="preserve">
<g id="Blue">
	<polygon fill="none" stroke-width="2" stroke="#0000FF" points="63.821,37.486 55.059,32.328 63.79,27.353 63.795,32.881 	"/>
	<line fill="none" stroke-width="2" stroke="#0000FF" x1="0.179" y1="32.294" x2="54.106" y2="32.294"/>
	<line fill="none" stroke-width="2" stroke="#0000FF" x1="10.268" y1="23.044" x2="39.665" y2="23.044"/>
	<line fill="none" stroke-width="2" stroke="#0000FF" x1="10.268" y1="40.955" x2="39.813" y2="40.955"/>
	<circle fill="none" stroke-width="2" stroke="#0000FF" cx="24.978" cy="31.985" r="7.462"/>
</g>
<g id="Red">
	<line fill="none" stroke-width="2" stroke="#FF0000" x1="0.179" y1="32.294" x2="53.936" y2="32.294"/>
	<line fill="none" stroke-width="2" stroke="#FF0000" x1="10.268" y1="23.044" x2="39.665" y2="23.044"/>
	<line fill="none" stroke-width="2" stroke="#FF0000" x1="10.268" y1="40.955" x2="39.813" y2="40.955"/>
	<polygon fill="none" stroke-width="2" stroke="#FF0000" points="63.821,37.486 55.059,32.328 63.79,27.353 63.795,32.881 	"/>
	<circle fill="none" stroke-width="2" stroke="#FF0000" cx="24.978" cy="31.985" r="7.462"/>
</g>
<g id="White">
	<line fill="none" stroke-width="2" stroke="#00FF00" x1="0.179" y1="32.294" x2="53.956" y2="32.294"/>
	<line fill="none" stroke-width="2" stroke="#00FF00" x1="10.268" y1="23.044" x2="39.665" y2="23.044"/>
	<line fill="none" stroke-width="2" stroke="#00FF00" x1="10.268" y1="40.955" x2="39.813" y2="40.955"/>
	<circle fill="none" stroke-width="2" stroke="#00FF00" cx="24.978" cy="31.985" r="7.462"/>
	<polygon fill="none" stroke-width="2" stroke="#00FF00" points="63.821,37.486 55.059,32.328 63.79,27.353 63.795,32.881 	"/>
</g>
</svg>
