<?xml version="1.0" encoding="utf-8"?>
<!-- Generator: Adobe Illustrator 14.0.0, SVG Export Plug-In . SVG Version: 6.00 Build 43363)  -->
<!DOCTYPE svg PUBLIC "-//W3C//DTD SVG 1.1//EN" "http://www.w3.org/Graphics/SVG/1.1/DTD/svg11.dtd">
<svg version="1.1" id="图层_1" xmlns="http://www.w3.org/2000/svg" xmlns:xlink="http://www.w3.org/1999/xlink" x="0px" y="0px"
	 width="64px" height="64px" viewBox="0 0 64 64" enable-background="new 0 0 64 64" xml:space="preserve">
<g id="Blue">
	<line fill="none" stroke-width="2" stroke="#0000FF" x1="13.505" y1="22.793" x2="44.937" y2="22.793"/>
	<line fill="none" stroke-width="2" stroke="#0000FF" x1="63.479" y1="19.866" x2="63.479" y2="42.134"/>
	<line fill="none" stroke-width="2" stroke="#0000FF" x1="13.505" y1="40.749" x2="44.937" y2="40.749"/>
	<line fill="none" stroke-width="2" stroke="#0000FF" x1="0.52" y1="32.124" x2="63.163" y2="32.124"/>
	<path fill="none" stroke-width="2" stroke="#0000FF" d="M38.641,31.714c0,4.227-3.427,7.65-7.649,7.65c-4.228,0-7.652-3.426-7.652-7.65
		c0-4.227,3.426-7.65,7.652-7.65C35.214,24.063,38.641,27.487,38.641,31.714z"/>
</g>
<g id="Red">
	<line fill="none" stroke-width="2" stroke="#FF0000" x1="13.505" y1="22.793" x2="44.937" y2="22.793"/>
	<line fill="none" stroke-width="2" stroke="#FF0000" x1="63.479" y1="19.866" x2="63.479" y2="42.134"/>
	<line fill="none" stroke-width="2" stroke="#FF0000" x1="13.505" y1="40.749" x2="44.937" y2="40.749"/>
	<line fill="none" stroke-width="2" stroke="#FF0000" x1="0.52" y1="32.124" x2="63.163" y2="32.124"/>
	<path fill="none" stroke-width="2" stroke="#FF0000" d="M38.641,31.714c0,4.227-3.427,7.65-7.649,7.65c-4.228,0-7.652-3.426-7.652-7.65
		c0-4.227,3.426-7.65,7.652-7.65C35.214,24.063,38.641,27.487,38.641,31.714z"/>
</g>
<g id="White">
	<line fill="none" stroke-width="2" stroke="#00FF00" x1="13.505" y1="22.793" x2="44.937" y2="22.793"/>
	<line fill="none" stroke-width="2" stroke="#00FF00" x1="63.479" y1="19.866" x2="63.479" y2="42.134"/>
	<line fill="none" stroke-width="2" stroke="#00FF00" x1="13.505" y1="40.749" x2="44.937" y2="40.749"/>
	<line fill="none" stroke-width="2" stroke="#00FF00" x1="0.52" y1="32.124" x2="63.163" y2="32.124"/>
	<path fill="none" stroke-width="2" stroke="#00FF00" d="M38.641,31.714c0,4.227-3.427,7.65-7.649,7.65c-4.228,0-7.652-3.426-7.652-7.65
		c0-4.227,3.426-7.65,7.652-7.65C35.214,24.063,38.641,27.487,38.641,31.714z"/>
</g>
</svg>
