<?xml version="1.0" encoding="utf-8"?>
<!-- Generator: Adobe Illustrator 14.0.0, SVG Export Plug-In . SVG Version: 6.00 Build 43363)  -->
<!DOCTYPE svg PUBLIC "-//W3C//DTD SVG 1.1//EN" "http://www.w3.org/Graphics/SVG/1.1/DTD/svg11.dtd">
<svg version="1.1" id="图层_1" xmlns="http://www.w3.org/2000/svg" xmlns:xlink="http://www.w3.org/1999/xlink" x="0px" y="0px"
	 width="64px" height="64px" viewBox="0 0 64 64" enable-background="new 0 0 64 64" xml:space="preserve">
<g id="Blue">
	<polyline fill="none" stroke-width="2" stroke="#0000FF" points="63.321,37.758 57.897,32.344 63.288,27.122 	"/>
	<line fill="none" stroke-width="2" stroke="#0000FF" x1="0.679" y1="32.311" x2="57.276" y2="32.311"/>
	<line fill="none" stroke-width="2" stroke="#0000FF" x1="11.268" y1="22.602" x2="42.12" y2="22.602"/>
	<line fill="none" stroke-width="2" stroke="#0000FF" x1="11.268" y1="41.399" x2="42.274" y2="41.399"/>
	<circle fill="none" stroke-width="2" stroke="#0000FF" cx="26.704" cy="31.983" r="7.831"/>
</g>
<g id="Red">
	<line fill="none" stroke-width="2" stroke="#FF0000" x1="0.679" y1="32.311" x2="57.097" y2="32.311"/>
	<line fill="none" stroke-width="2" stroke="#FF0000" x1="11.268" y1="22.602" x2="42.12" y2="22.602"/>
	<line fill="none" stroke-width="2" stroke="#FF0000" x1="11.268" y1="41.399" x2="42.274" y2="41.399"/>
	<polyline fill="none" stroke-width="2" stroke="#FF0000" points="63.321,37.758 57.897,32.344 63.288,27.122 	"/>
	<circle fill="none" stroke-width="2" stroke="#FF0000" cx="26.704" cy="31.983" r="7.831"/>
</g>
<g id="White">
	<line fill="none" stroke-width="2" stroke="#00FF00" x1="0.679" y1="32.311" x2="57.118" y2="32.311"/>
	<line fill="none" stroke-width="2" stroke="#00FF00" x1="11.268" y1="22.602" x2="42.12" y2="22.602"/>
	<line fill="none" stroke-width="2" stroke="#00FF00" x1="11.268" y1="41.399" x2="42.274" y2="41.399"/>
	<circle fill="none" stroke-width="2" stroke="#00FF00" cx="26.704" cy="31.983" r="7.831"/>
	<polyline fill="none" stroke-width="2" stroke="#00FF00" points="63.321,37.758 57.897,32.344 63.288,27.122 	"/>
</g>
</svg>
