<?xml version="1.0" encoding="utf-8"?>
<!-- Generator: Adobe Illustrator 14.0.0, SVG Export Plug-In . SVG Version: 6.00 Build 43363)  -->
<!DOCTYPE svg PUBLIC "-//W3C//DTD SVG 1.1//EN" "http://www.w3.org/Graphics/SVG/1.1/DTD/svg11.dtd">
<svg version="1.1" id="图层_1" xmlns="http://www.w3.org/2000/svg" xmlns:xlink="http://www.w3.org/1999/xlink" x="0px" y="0px"
	 width="64px" height="64px" viewBox="0 0 64 64" enable-background="new 0 0 64 64" xml:space="preserve">
<g id="Blue">
	<line fill="none" stroke-width="2" stroke="#0000FF" x1="0.385" y1="32.292" x2="48.538" y2="32.292"/>
	<line fill="none" stroke-width="2" stroke="#0000FF" x1="10.358" y1="23.147" x2="39.42" y2="23.147"/>
	<line fill="none" stroke-width="2" stroke="#0000FF" x1="10.358" y1="40.853" x2="39.565" y2="40.853"/>
	<circle fill="none" stroke-width="2" stroke="#0000FF" cx="55.903" cy="31.884" r="7.71"/>
	<circle fill="none" stroke-width="2" stroke="#0000FF" cx="25.331" cy="31.884" r="7.71"/>
	<line fill="none" stroke-width="2" stroke="#0000FF" x1="43.474" y1="26.858" x2="43.474" y2="36.933"/>
</g>
<g id="Red">
	<line fill="none" stroke-width="2" stroke="#FF0000" x1="0.385" y1="32.292" x2="48.538" y2="32.292"/>
	<line fill="none" stroke-width="2" stroke="#FF0000" x1="10.358" y1="23.147" x2="39.42" y2="23.147"/>
	<line fill="none" stroke-width="2" stroke="#FF0000" x1="10.358" y1="40.853" x2="39.565" y2="40.853"/>
	<circle fill="none" stroke-width="2" stroke="#FF0000" cx="55.903" cy="31.884" r="7.71"/>
	<circle fill="none" stroke-width="2" stroke="#FF0000" cx="25.331" cy="31.884" r="7.71"/>
	<line fill="none" stroke-width="2" stroke="#FF0000" x1="43.474" y1="26.858" x2="43.474" y2="36.933"/>
</g>
<g id="White">
	<line fill="none" stroke-width="2" stroke="#00FF00" x1="0.385" y1="32.292" x2="48.538" y2="32.292"/>
	<line fill="none" stroke-width="2" stroke="#00FF00" x1="10.358" y1="23.147" x2="39.42" y2="23.147"/>
	<line fill="none" stroke-width="2" stroke="#00FF00" x1="10.358" y1="40.853" x2="39.565" y2="40.853"/>
	<circle fill="none" stroke-width="2" stroke="#00FF00" cx="55.903" cy="31.884" r="7.71"/>
	<circle fill="none" stroke-width="2" stroke="#00FF00" cx="25.331" cy="31.884" r="7.71"/>
	<line fill="none" stroke-width="2" stroke="#00FF00" x1="43.474" y1="26.858" x2="43.474" y2="36.933"/>
</g>
</svg>
