<?xml version="1.0" encoding="utf-8"?>
<!-- Generator: Adobe Illustrator 14.0.0, SVG Export Plug-In . SVG Version: 6.00 Build 43363)  -->
<!DOCTYPE svg PUBLIC "-//W3C//DTD SVG 1.1//EN" "http://www.w3.org/Graphics/SVG/1.1/DTD/svg11.dtd">
<svg version="1.1" id="图层_1" xmlns="http://www.w3.org/2000/svg" xmlns:xlink="http://www.w3.org/1999/xlink" x="0px" y="0px"
	 width="64px" height="64px" viewBox="0 0 64 64" enable-background="new 0 0 64 64" xml:space="preserve">
<g id="Blue">
	<line fill="none" stroke-width="2" stroke="#0000FF" x1="32.299" y1="9.455" x2="32.298" y2="64"/>
	<line fill="none" stroke-width="2" stroke="#0000FF" x1="42.958" y1="50.243" x2="42.958" y2="27.147"/>
	<line fill="none" stroke-width="2" stroke="#0000FF" x1="21.765" y1="27.437" x2="21.765" y2="50.023"/>
	<polygon fill="#000100" points="29.628,14.813 32.295,0 34.963,14.813 32.295,9.716 	"/>
</g>
<g id="Red">
	<line fill="none" stroke-width="2" stroke="#FF0000" x1="32.299" y1="9.455" x2="32.298" y2="64"/>
	<line fill="none" stroke-width="2" stroke="#FF0000" x1="42.958" y1="50.243" x2="42.958" y2="27.147"/>
	<line fill="none" stroke-width="2" stroke="#FF0000" x1="21.765" y1="27.437" x2="21.765" y2="50.023"/>
	<polygon fill="#000100" points="29.628,14.813 32.295,0 34.963,14.813 32.295,9.716 	"/>
</g>
<g id="White">
	<line fill="none" stroke-width="2" stroke="#00FF00" x1="32.299" y1="9.455" x2="32.298" y2="64"/>
	<line fill="none" stroke-width="2" stroke="#00FF00" x1="42.958" y1="50.243" x2="42.958" y2="27.147"/>
	<line fill="none" stroke-width="2" stroke="#00FF00" x1="21.765" y1="27.437" x2="21.765" y2="50.023"/>
	<polygon fill="#000100" points="29.628,14.813 32.295,0 34.963,14.813 32.295,9.716 	"/>
</g>
</svg>
