<?xml version="1.0" encoding="utf-8"?>
<!-- Generator: Adobe Illustrator 14.0.0, SVG Export Plug-In . SVG Version: 6.00 Build 43363)  -->
<!DOCTYPE svg PUBLIC "-//W3C//DTD SVG 1.1//EN" "http://www.w3.org/Graphics/SVG/1.1/DTD/svg11.dtd">
<svg version="1.1" id="图层_1" xmlns="http://www.w3.org/2000/svg" xmlns:xlink="http://www.w3.org/1999/xlink" x="0px" y="0px"
	 width="64px" height="64px" viewBox="0 0 64 64" enable-background="new 0 0 64 64" xml:space="preserve">
<g id="Blue">
	<circle fill="none" stroke="#0000FF" stroke-width="2" cx="17.513" cy="32.564" r="13.603"/>
	<line fill="none" stroke="#0000FF" stroke-width="2" x1="17.513" y1="18.962" x2="47.084" y2="18.962"/>
	<line fill="none" stroke="#0000FF" stroke-width="2" x1="31.116" y1="32.564" x2="60.924" y2="32.564"/>
	<line fill="none" stroke="#0000FF" stroke-width="2" x1="17.513" y1="46.167" x2="47.084" y2="46.167"/>
	<rect x="1.583" y="13.699" fill="none" stroke="#0000FF" stroke-width="2" width="61.667" height="38.301"/>
</g>
<g id="Red">
	<circle fill="none" stroke="#FF0000" stroke-width="2" cx="17.513" cy="32.564" r="13.603"/>
	<line fill="none" stroke="#FF0000" stroke-width="2" x1="17.513" y1="18.962" x2="47.084" y2="18.962"/>
	<line fill="none" stroke="#FF0000" stroke-width="2" x1="31.116" y1="32.564" x2="60.924" y2="32.564"/>
	<line fill="none" stroke="#FF0000" stroke-width="2" x1="17.513" y1="46.167" x2="47.084" y2="46.167"/>
	<rect x="1.583" y="13.699" fill="none" stroke="#FF0000" stroke-width="2" width="61.667" height="38.301"/>
</g>
<g id="White">
	<circle fill="none" stroke="#00FF00" stroke-width="2" cx="17.513" cy="32.564" r="13.603"/>
	<line fill="none" stroke="#00FF00" stroke-width="2" x1="17.513" y1="18.962" x2="47.084" y2="18.962"/>
	<line fill="none" stroke="#00FF00" stroke-width="2" x1="31.116" y1="32.564" x2="60.924" y2="32.564"/>
	<line fill="none" stroke="#00FF00" stroke-width="2" x1="17.513" y1="46.167" x2="47.084" y2="46.167"/>
	<rect x="1.583" y="13.699" fill="none" stroke="#00FF00" stroke-width="2" width="61.667" height="38.301"/>
</g>
</svg>
