<?xml version="1.0" encoding="utf-8"?>
<!-- Generator: Adobe Illustrator 14.0.0, SVG Export Plug-In . SVG Version: 6.00 Build 43363)  -->
<!DOCTYPE svg PUBLIC "-//W3C//DTD SVG 1.1//EN" "http://www.w3.org/Graphics/SVG/1.1/DTD/svg11.dtd">
<svg version="1.1" id="图层_1" xmlns="http://www.w3.org/2000/svg" xmlns:xlink="http://www.w3.org/1999/xlink" x="0px" y="0px"
	 width="64px" height="64px" viewBox="0 0 64 64" enable-background="new 0 0 64 64" xml:space="preserve">
<g id="Blue">
	<circle fill="none" stroke="#0000FF" stroke-width="2" cx="31.917" cy="28.833" r="4.917"/>
	<line fill="none" stroke="#0000FF" stroke-width="2" x1="27" y1="28.833" x2="0.75" y2="28.833"/>
	<line fill="none" stroke="#0000FF" stroke-width="2" x1="36.833" y1="28.833" x2="63" y2="28.833"/>
	<line fill="none" stroke="#0000FF" stroke-width="2" x1="33.797" y1="33.376" x2="33.797" y2="38"/>
	<line fill="none" stroke="#0000FF" stroke-width="2" x1="30.033" y1="33.376" x2="30.033" y2="38"/>
</g>
<g id="Red">
	<circle fill="none" stroke="#FF0000" stroke-width="2" cx="31.917" cy="28.833" r="4.917"/>
	<line fill="none" stroke="#FF0000" stroke-width="2" x1="27" y1="28.833" x2="0.75" y2="28.833"/>
	<line fill="none" stroke="#FF0000" stroke-width="2" x1="36.833" y1="28.833" x2="63" y2="28.833"/>
	<line fill="none" stroke="#FF0000" stroke-width="2" x1="33.797" y1="33.376" x2="33.797" y2="38"/>
	<line fill="none" stroke="#FF0000" stroke-width="2" x1="30.033" y1="33.376" x2="30.033" y2="38"/>
</g>
<g id="White">
	<circle fill="none" stroke="#00FF00" stroke-width="2" cx="31.917" cy="28.833" r="4.917"/>
	<line fill="none" stroke="#00FF00" stroke-width="2" x1="27" y1="28.833" x2="0.75" y2="28.833"/>
	<line fill="none" stroke="#00FF00" stroke-width="2" x1="36.833" y1="28.833" x2="63" y2="28.833"/>
	<line fill="none" stroke="#00FF00" stroke-width="2" x1="33.797" y1="33.376" x2="33.797" y2="38"/>
	<line fill="none" stroke="#00FF00" stroke-width="2" x1="30.033" y1="33.376" x2="30.033" y2="38"/>
</g>
</svg>
