<?xml version="1.0" encoding="utf-8"?>
<!-- Generator: Adobe Illustrator 14.0.0, SVG Export Plug-In . SVG Version: 6.00 Build 43363)  -->
<!DOCTYPE svg PUBLIC "-//W3C//DTD SVG 1.1//EN" "http://www.w3.org/Graphics/SVG/1.1/DTD/svg11.dtd">
<svg version="1.1" id="图层_1" xmlns="http://www.w3.org/2000/svg" xmlns:xlink="http://www.w3.org/1999/xlink" x="0px" y="0px"
	 width="64px" height="64px" viewBox="0 0 64 64" enable-background="new 0 0 64 64" xml:space="preserve">
<g id="Blue">
	<circle fill="none" stroke="#0000FF" stroke-width="2" cx="17.375" cy="31.792" r="14.375"/>
	<line fill="none" stroke="#0000FF" stroke-width="2" x1="17.375" y1="17.417" x2="48.625" y2="17.417"/>
	<line fill="none" stroke="#0000FF" stroke-width="2" x1="31.75" y1="31.792" x2="63.25" y2="31.792"/>
	<line fill="none" stroke="#0000FF" stroke-width="2" x1="17.375" y1="46.167" x2="48.625" y2="46.167"/>
	<line fill="none" stroke="#0000FF" x1="23.25" y1="31.792" x2="26.364" y2="34.906"/>
	<line fill="none" stroke="#0000FF" x1="23.25" y1="31.792" x2="26.146" y2="28.896"/>
	<polygon fill="#0000FF" points="13.75,33.281 7,31.847 13.75,30.344 12.125,31.792 	"/>
	<line fill="none" stroke="#0000FF" x1="12.125" y1="31.792" x2="23.25" y2="31.792"/>
</g>
<g id="Red">
	<circle fill="none" stroke="#FF0000" stroke-width="2" cx="17.375" cy="31.792" r="14.375"/>
	<line fill="none" stroke="#FF0000" stroke-width="2" x1="17.375" y1="17.417" x2="48.625" y2="17.417"/>
	<line fill="none" stroke="#FF0000" stroke-width="2" x1="31.75" y1="31.792" x2="63.25" y2="31.792"/>
	<line fill="none" stroke="#FF0000" stroke-width="2" x1="17.375" y1="46.167" x2="48.625" y2="46.167"/>
	<line fill="none" stroke="#FF0000" x1="23.25" y1="31.792" x2="26.146" y2="28.896"/>
	<line fill="none" stroke="#FF0000" x1="23.25" y1="31.792" x2="26.364" y2="34.906"/>
	<polygon fill="#FF0000" points="13.75,33.281 7,31.847 13.75,30.344 12.125,31.792 	"/>
	<line fill="none" stroke="#FF0000" x1="12.125" y1="31.792" x2="23.25" y2="31.792"/>
</g>
<g id="White">
	<circle fill="none" stroke="#00FF00" stroke-width="2" cx="17.375" cy="31.792" r="14.375"/>
	<line fill="none" stroke="#00FF00" stroke-width="2" x1="17.375" y1="17.417" x2="48.625" y2="17.417"/>
	<line fill="none" stroke="#00FF00" stroke-width="2" x1="31.75" y1="31.792" x2="63.25" y2="31.792"/>
	<line fill="none" stroke="#00FF00" stroke-width="2" x1="17.375" y1="46.167" x2="48.625" y2="46.167"/>
	<line fill="none" stroke="#00FF00" x1="12.125" y1="31.792" x2="23.25" y2="31.792"/>
	<line fill="none" stroke="#00FF00" x1="23.25" y1="31.792" x2="26.146" y2="28.896"/>
	<line fill="none" stroke="#00FF00" x1="23.25" y1="31.792" x2="26.364" y2="34.906"/>
	<polygon fill="#00FF00" points="13.75,33.281 7,31.847 13.75,30.344 12.125,31.792 	"/>
</g>
</svg>
