<?xml version="1.0" encoding="utf-8"?>
<!-- Generator: Adobe Illustrator 14.0.0, SVG Export Plug-In . SVG Version: 6.00 Build 43363)  -->
<!DOCTYPE svg PUBLIC "-//W3C//DTD SVG 1.1//EN" "http://www.w3.org/Graphics/SVG/1.1/DTD/svg11.dtd">
<svg version="1.1" id="图层_1" xmlns="http://www.w3.org/2000/svg" xmlns:xlink="http://www.w3.org/1999/xlink" x="0px" y="0px"
	 width="64px" height="64px" viewBox="0 0 64 64" enable-background="new 0 0 64 64" xml:space="preserve">
<g id="Blue">
	<rect x="3.333" y="3.167" fill="none" stroke="#0000FF" stroke-width="2" width="58.5" height="58.667"/>
	<path fill="none" stroke="#0000FF" stroke-width="2" d="M18.875,20c0,0-11,15.125,0.625,26.25c0,0,13,11.375,26.125-1.75"/>
	<line fill="none" stroke="#0000FF" stroke-width="2" x1="18.875" y1="20" x2="45.625" y2="44.5"/>
	<line fill="none" stroke="#0000FF" stroke-width="2" x1="32.25" y1="32" x2="46.5" y2="17.375"/>
</g>
<g id="Red">
	<rect x="3.333" y="3.167" fill="none" stroke="#FF0000" stroke-width="2" width="58.5" height="58.667"/>
	<path fill="none" stroke="#FF0000" stroke-width="2" d="M18.875,20c0,0-11,15.125,0.625,26.25c0,0,13,11.375,26.125-1.75"/>
	<line fill="none" stroke="#FF0000" stroke-width="2" x1="18.875" y1="20" x2="45.625" y2="44.5"/>
	<line fill="none" stroke="#FF0000" stroke-width="2" x1="32.25" y1="32" x2="46.5" y2="17.375"/>
</g>
<g id="White">
	<rect x="3.333" y="3.167" fill="none" stroke="#00FF00" stroke-width="2" width="58.5" height="58.667"/>
	<path fill="none" stroke="#00FF00" stroke-width="2" d="M18.875,20c0,0-11,15.125,0.625,26.25c0,0,13,11.375,26.125-1.75"/>
	<line fill="none" stroke="#00FF00" stroke-width="2" x1="18.875" y1="20" x2="45.625" y2="44.5"/>
	<line fill="none" stroke="#00FF00" stroke-width="2" x1="32.25" y1="32" x2="46.5" y2="17.375"/>
</g>
</svg>
