<?xml version="1.0" encoding="utf-8"?>
<!-- Generator: Adobe Illustrator 14.0.0, SVG Export Plug-In . SVG Version: 6.00 Build 43363)  -->
<!DOCTYPE svg PUBLIC "-//W3C//DTD SVG 1.1//EN" "http://www.w3.org/Graphics/SVG/1.1/DTD/svg11.dtd">
<svg version="1.1" id="图层_1" xmlns="http://www.w3.org/2000/svg" xmlns:xlink="http://www.w3.org/1999/xlink" x="0px" y="0px"
	 width="64px" height="64px" viewBox="0 0 64 64" enable-background="new 0 0 64 64" xml:space="preserve">
<g id="Blue">
	<path fill="none" stroke="#0000FF" stroke-width="2" d="M23.907,32.479c0,0-5.794,7.968,0.329,13.827c0,0,6.848,5.992,13.761-0.922
		"/>
	<line fill="none" stroke="#0000FF" stroke-width="2" x1="23.907" y1="32.479" x2="37.997" y2="45.385"/>
	<line fill="none" stroke="#0000FF" stroke-width="2" x1="30.952" y1="38.801" x2="38.459" y2="31.097"/>
	<ellipse fill="none" stroke="#0000FF" stroke-width="2" cx="32" cy="40.598" rx="30.625" ry="11.242"/>
</g>
<g id="Red">
	<path fill="none" stroke="#FF0000" stroke-width="2" d="M23.907,32.479c0,0-5.794,7.968,0.329,13.827c0,0,6.848,5.992,13.761-0.922
		"/>
	<line fill="none" stroke="#FF0000" stroke-width="2" x1="23.907" y1="32.479" x2="37.997" y2="45.385"/>
	<line fill="none" stroke="#FF0000" stroke-width="2" x1="30.952" y1="38.801" x2="38.459" y2="31.097"/>
	<ellipse fill="none" stroke="#FF0000" stroke-width="2" cx="32" cy="40.598" rx="30.625" ry="11.242"/>
</g>
<g id="White">
	<path fill="none" stroke="#00FF00" stroke-width="2" d="M23.907,32.479c0,0-5.794,7.968,0.329,13.827c0,0,6.848,5.992,13.761-0.922
		"/>
	<line fill="none" stroke="#00FF00" stroke-width="2" x1="23.907" y1="32.479" x2="37.997" y2="45.385"/>
	<line fill="none" stroke="#00FF00" stroke-width="2" x1="30.952" y1="38.801" x2="38.459" y2="31.097"/>
	<ellipse fill="none" stroke="#00FF00" stroke-width="2" cx="32" cy="40.598" rx="30.625" ry="11.242"/>
</g>
</svg>
