<?xml version="1.0" encoding="utf-8"?>
<!-- Generator: Adobe Illustrator 14.0.0, SVG Export Plug-In . SVG Version: 6.00 Build 43363)  -->
<!DOCTYPE svg PUBLIC "-//W3C//DTD SVG 1.1//EN" "http://www.w3.org/Graphics/SVG/1.1/DTD/svg11.dtd">
<svg version="1.1" id="图层_1" xmlns="http://www.w3.org/2000/svg" xmlns:xlink="http://www.w3.org/1999/xlink" x="0px" y="0px"
	 width="64px" height="64px" viewBox="0 0 64 64" enable-background="new 0 0 64 64" xml:space="preserve">
<g id="Blue">
	<circle fill="none" stroke="#0000FF" stroke-width="2" cx="26.084" cy="31.25" r="8.25"/>
	<path fill="none" stroke="#0000FF" stroke-width="2" d="M21.338,28.986c0,0-1.006,4.024,1.409,5.886c0,0,3.37,2.918,6.791,0"/>
	<line fill="none" stroke="#0000FF" stroke-width="2" x1="26.083" y1="23" x2="49.626" y2="23"/>
	<line fill="none" stroke="#0000FF" stroke-width="2" x1="34.334" y1="31.25" x2="55.662" y2="31.25"/>
	<line fill="none" stroke="#0000FF" stroke-width="2" x1="26.083" y1="39.5" x2="49.626" y2="39.5"/>
	<line fill="none" stroke="#0000FF" stroke-width="2" x1="61.375" y1="16.5" x2="21.13" y2="16.5"/>
	<line fill="none" stroke="#0000FF" stroke-width="2" x1="21.13" y1="16.5" x2="1.5" y2="30.5"/>
	<line fill="none" stroke="#0000FF" stroke-width="2" x1="1.5" y1="30.5" x2="1.5" y2="45"/>
	<line fill="none" stroke="#0000FF" stroke-width="2" x1="1.5" y1="45" x2="61.375" y2="45"/>
	<line fill="none" stroke="#0000FF" stroke-width="2" x1="61.375" y1="45" x2="61.375" y2="16.5"/>
</g>
<g id="Red">
	<circle fill="none" stroke="#FF0000" stroke-width="2" cx="26.084" cy="31.25" r="8.25"/>
	<path fill="none" stroke="#FF0000" stroke-width="2" d="M21.338,28.986c0,0-1.006,4.024,1.409,5.886c0,0,3.37,2.918,6.791,0"/>
	<line fill="none" stroke="#FF0000" stroke-width="2" x1="26.083" y1="23" x2="49.626" y2="23"/>
	<line fill="none" stroke="#FF0000" stroke-width="2" x1="34.334" y1="31.25" x2="55.662" y2="31.25"/>
	<line fill="none" stroke="#FF0000" stroke-width="2" x1="26.083" y1="39.5" x2="49.626" y2="39.5"/>
	<line fill="none" stroke="#FF0000" stroke-width="2" x1="61.375" y1="16.5" x2="21.13" y2="16.5"/>
	<line fill="none" stroke="#FF0000" stroke-width="2" x1="21.13" y1="16.5" x2="1.5" y2="30.5"/>
	<line fill="none" stroke="#FF0000" stroke-width="2" x1="1.5" y1="30.5" x2="1.5" y2="45"/>
	<line fill="none" stroke="#FF0000" stroke-width="2" x1="1.5" y1="45" x2="61.375" y2="45"/>
	<line fill="none" stroke="#FF0000" stroke-width="2" x1="61.375" y1="45" x2="61.375" y2="16.5"/>
</g>
<g id="White">
	<circle fill="none" stroke="#00FF00" stroke-width="2" cx="26.084" cy="31.25" r="8.25"/>
	<path fill="none" stroke="#00FF00" stroke-width="2" d="M21.338,28.986c0,0-1.006,4.024,1.409,5.886c0,0,3.37,2.918,6.791,0"/>
	<line fill="none" stroke="#00FF00" stroke-width="2" x1="26.083" y1="23" x2="49.626" y2="23"/>
	<line fill="none" stroke="#00FF00" stroke-width="2" x1="34.334" y1="31.25" x2="55.662" y2="31.25"/>
	<line fill="none" stroke="#00FF00" stroke-width="2" x1="26.083" y1="39.5" x2="49.626" y2="39.5"/>
	<line fill="none" stroke="#00FF00" stroke-width="2" x1="61.375" y1="16.5" x2="21.13" y2="16.5"/>
	<line fill="none" stroke="#00FF00" stroke-width="2" x1="21.13" y1="16.5" x2="1.5" y2="30.5"/>
	<line fill="none" stroke="#00FF00" stroke-width="2" x1="1.5" y1="30.5" x2="1.5" y2="45"/>
	<line fill="none" stroke="#00FF00" stroke-width="2" x1="1.5" y1="45" x2="61.375" y2="45"/>
	<line fill="none" stroke="#00FF00" stroke-width="2" x1="61.375" y1="45" x2="61.375" y2="16.5"/>
</g>
</svg>
