<?xml version="1.0" encoding="utf-8"?>
<!-- Generator: Adobe Illustrator 14.0.0, SVG Export Plug-In . SVG Version: 6.00 Build 43363)  -->
<!DOCTYPE svg PUBLIC "-//W3C//DTD SVG 1.1//EN" "http://www.w3.org/Graphics/SVG/1.1/DTD/svg11.dtd">
<svg version="1.1" id="图层_1" xmlns="http://www.w3.org/2000/svg" xmlns:xlink="http://www.w3.org/1999/xlink" x="0px" y="0px"
	 width="64px" height="64px" viewBox="0 0 64 64" enable-background="new 0 0 64 64" xml:space="preserve">
<g id="Blue">
	<rect x="1.833" y="2.167" fill="none" stroke="#0000FF" stroke-width="2" width="60.5" height="60.5"/>
	<circle fill="none" stroke="#0000FF" stroke-width="2" cx="19.083" cy="32.25" r="10.25"/>
	<path fill="none" stroke="#0000FF" stroke-width="2" d="M13.188,29.438c0,0-1.25,5,1.75,7.313c0,0,4.188,3.625,8.438,0"/>
	<line fill="none" stroke="#0000FF" stroke-width="2" x1="19.083" y1="22" x2="48.333" y2="22"/>
	<line fill="none" stroke="#0000FF" stroke-width="2" x1="29.333" y1="32.25" x2="55.833" y2="32.25"/>
	<line fill="none" stroke="#0000FF" stroke-width="2" x1="19.083" y1="42.5" x2="48.333" y2="42.5"/>
</g>
<g id="Red">
	<rect x="1.833" y="2.167" fill="none" stroke="#FF0000" stroke-width="2" width="60.5" height="60.5"/>
	<circle fill="none" stroke="#FF0000" stroke-width="2" cx="19.083" cy="32.25" r="10.25"/>
	<path fill="none" stroke="#FF0000" stroke-width="2" d="M13.188,29.438c0,0-1.25,5,1.75,7.313c0,0,4.188,3.625,8.438,0"/>
	<line fill="none" stroke="#FF0000" stroke-width="2" x1="19.083" y1="22" x2="48.333" y2="22"/>
	<line fill="none" stroke="#FF0000" stroke-width="2" x1="29.333" y1="32.25" x2="55.833" y2="32.25"/>
	<line fill="none" stroke="#FF0000" stroke-width="2" x1="19.083" y1="42.5" x2="48.333" y2="42.5"/>
</g>
<g id="White">
	<rect x="1.833" y="2.167" fill="none" stroke="#00FF00" stroke-width="2" width="60.5" height="60.5"/>
	<circle fill="none" stroke="#00FF00" stroke-width="2" cx="19.083" cy="32.25" r="10.25"/>
	<path fill="none" stroke="#00FF00" stroke-width="2" d="M13.188,29.438c0,0-1.25,5,1.75,7.313c0,0,4.188,3.625,8.438,0"/>
	<line fill="none" stroke="#00FF00" stroke-width="2" x1="19.083" y1="22" x2="48.333" y2="22"/>
	<line fill="none" stroke="#00FF00" stroke-width="2" x1="29.333" y1="32.25" x2="55.833" y2="32.25"/>
	<line fill="none" stroke="#00FF00" stroke-width="2" x1="19.083" y1="42.5" x2="48.333" y2="42.5"/>
</g>
</svg>
