<?xml version="1.0" encoding="utf-8"?>
<!-- Generator: Adobe Illustrator 14.0.0, SVG Export Plug-In . SVG Version: 6.00 Build 43363)  -->
<!DOCTYPE svg PUBLIC "-//W3C//DTD SVG 1.1//EN" "http://www.w3.org/Graphics/SVG/1.1/DTD/svg11.dtd">
<svg version="1.1" id="图层_1" xmlns="http://www.w3.org/2000/svg" xmlns:xlink="http://www.w3.org/1999/xlink" x="0px" y="0px"
	 width="64px" height="64px" viewBox="0 0 64 64" enable-background="new 0 0 64 64" xml:space="preserve">
<g id="Blue">
	<line fill="none" stroke="#0000FF" stroke-width="2" x1="30.84" y1="42.196" x2="30.84" y2="9.655"/>
	<line fill="none" stroke="#0000FF" stroke-width="2" x1="44.573" y1="9.655" x2="17.854" y2="9.655"/>
	<line fill="none" stroke="#0000FF" stroke-width="2" x1="44.573" y1="9.655" x2="47.783" y2="6.446"/>
	<line fill="none" stroke="#0000FF" stroke-width="2" x1="44.573" y1="9.655" x2="47.82" y2="12.901"/>
	<polygon fill="#0000FF" points="17.854,9.655 21.38,7.22 12.313,9.767 21.38,12.062 	"/>
	<rect x="20.709" y="42.196" fill="none" stroke="#0000FF" stroke-width="2" width="20.263" height="20.263"/>
	<circle fill="none" stroke="#0000FF" stroke-width="2" cx="30.84" cy="9.655" r="5.211"/>
	<line fill="none" stroke="#0000FF" stroke-width="2" x1="30.84" y1="4.443" x2="38.625" y2="1.625"/>
	<line fill="none" stroke="#0000FF" stroke-width="2" x1="30.84" y1="14.865" x2="38.625" y2="17.875"/>
</g>
<g id="Red">
	<line fill="none" stroke="#FF0000" stroke-width="2" x1="30.84" y1="42.196" x2="30.84" y2="9.655"/>
	<line fill="none" stroke="#FF0000" stroke-width="2" x1="44.573" y1="9.655" x2="17.854" y2="9.655"/>
	<line fill="none" stroke="#FF0000" stroke-width="2" x1="44.573" y1="9.655" x2="47.783" y2="6.446"/>
	<line fill="none" stroke="#FF0000" stroke-width="2" x1="44.573" y1="9.655" x2="47.82" y2="12.901"/>
	<polygon fill="#FF0000" points="17.854,9.655 21.38,7.22 12.313,9.767 21.38,12.062 	"/>
	<rect x="20.709" y="42.196" fill="none" stroke="#FF0000" stroke-width="2" width="20.263" height="20.263"/>
	<circle fill="none" stroke="#FF0000" stroke-width="2" cx="30.84" cy="9.655" r="5.211"/>
	<line fill="none" stroke="#FF0000" stroke-width="2" x1="30.84" y1="4.443" x2="38.625" y2="1.625"/>
	<line fill="none" stroke="#FF0000" stroke-width="2" x1="30.84" y1="14.865" x2="38.625" y2="17.875"/>
	<circle fill="none" stroke="#FF0000" stroke-width="2" cx="30.84" cy="9.655" r="5.211"/>
	<line fill="none" stroke="#FF0000" stroke-width="2" x1="30.84" y1="4.443" x2="38.625" y2="1.625"/>
	<line fill="none" stroke="#FF0000" stroke-width="2" x1="30.84" y1="14.865" x2="38.625" y2="17.875"/>
</g>
<g id="White">
	<line fill="none" stroke="#00FF00" stroke-width="2" x1="30.84" y1="42.196" x2="30.84" y2="9.655"/>
	<line fill="none" stroke="#00FF00" stroke-width="2" x1="44.573" y1="9.655" x2="17.854" y2="9.655"/>
	<line fill="none" stroke="#00FF00" stroke-width="2" x1="44.573" y1="9.655" x2="47.783" y2="6.446"/>
	<line fill="none" stroke="#00FF00" stroke-width="2" x1="44.573" y1="9.655" x2="47.82" y2="12.901"/>
	<polygon fill="#00FF00" points="17.854,9.655 21.38,7.22 12.313,9.767 21.38,12.062 	"/>
	<rect x="20.709" y="42.196" fill="none" stroke="#00FF00" stroke-width="2" width="20.263" height="20.263"/>
	<circle fill="none" stroke="#00FF00" stroke-width="2" cx="30.84" cy="9.655" r="5.211"/>
	<line fill="none" stroke="#00FF00" stroke-width="2" x1="30.84" y1="4.443" x2="38.625" y2="1.625"/>
	<line fill="none" stroke="#00FF00" stroke-width="2" x1="30.84" y1="14.865" x2="38.625" y2="17.875"/>
</g>
</svg>
