<?xml version="1.0" encoding="utf-8"?>
<!-- Generator: Adobe Illustrator 14.0.0, SVG Export Plug-In . SVG Version: 6.00 Build 43363)  -->
<!DOCTYPE svg PUBLIC "-//W3C//DTD SVG 1.1//EN" "http://www.w3.org/Graphics/SVG/1.1/DTD/svg11.dtd">
<svg version="1.1" id="图层_1" xmlns="http://www.w3.org/2000/svg" xmlns:xlink="http://www.w3.org/1999/xlink" x="0px" y="0px"
	 width="64px" height="64px" viewBox="0 0 64 64" enable-background="new 0 0 64 64" xml:space="preserve">
<g id="Blue">
	<line fill="none" stroke="#0000FF" stroke-width="2" x1="32" y1="40.834" x2="32" y2="4.5"/>
	<line fill="none" stroke="#0000FF" stroke-width="2" x1="47.334" y1="4.5" x2="17.5" y2="4.5"/>
	<line fill="none" stroke="#0000FF" stroke-width="2" x1="47.334" y1="4.5" x2="50.917" y2="0.917"/>
	<line fill="none" stroke="#0000FF" stroke-width="2" x1="47.334" y1="4.5" x2="50.959" y2="8.125"/>
	<polygon fill="#0000FF" points="17.5,4.5 21.438,1.781 11.313,4.625 21.438,7.188 	"/>
	<rect x="20.688" y="40.834" fill="none" stroke="#0000FF" stroke-width="2" width="22.625" height="22.625"/>
	<line fill="none" stroke="#0000FF" stroke-width="2" x1="20.688" y1="52.146" x2="43.313" y2="52.146"/>
</g>
<g id="Red">
	<line fill="none" stroke="#FF0000" stroke-width="2" x1="32" y1="40.834" x2="32" y2="4.5"/>
	<line fill="none" stroke="#FF0000" stroke-width="2" x1="47.334" y1="4.5" x2="17.5" y2="4.5"/>
	<line fill="none" stroke="#FF0000" stroke-width="2" x1="47.334" y1="4.5" x2="50.917" y2="0.917"/>
	<line fill="none" stroke="#FF0000" stroke-width="2" x1="47.334" y1="4.5" x2="50.959" y2="8.125"/>
	<polygon fill="#FF0000" points="17.5,4.5 21.438,1.781 11.313,4.625 21.438,7.188 	"/>
	<rect x="20.688" y="40.834" fill="none" stroke="#FF0000" stroke-width="2" width="22.625" height="22.625"/>
	<line fill="none" stroke="#FF0000" stroke-width="2" x1="20.688" y1="52.146" x2="43.313" y2="52.146"/>
</g>
<g id="White">
	<line fill="none" stroke="#00FF00" stroke-width="2" x1="32" y1="40.834" x2="32" y2="4.5"/>
	<line fill="none" stroke="#00FF00" stroke-width="2" x1="47.334" y1="4.5" x2="17.5" y2="4.5"/>
	<line fill="none" stroke="#00FF00" stroke-width="2" x1="47.334" y1="4.5" x2="50.917" y2="0.917"/>
	<line fill="none" stroke="#00FF00" stroke-width="2" x1="47.334" y1="4.5" x2="50.959" y2="8.125"/>
	<polygon fill="#00FF00" points="17.5,4.5 21.438,1.781 11.313,4.625 21.438,7.188 	"/>
	<rect x="20.688" y="40.834" fill="none" stroke="#00FF00" stroke-width="2" width="22.625" height="22.625"/>
	<line fill="none" stroke="#00FF00" stroke-width="2" x1="20.688" y1="52.146" x2="43.313" y2="52.146"/>
</g>
</svg>
