<?xml version="1.0" encoding="utf-8"?>
<!-- Generator: Adobe Illustrator 14.0.0, SVG Export Plug-In . SVG Version: 6.00 Build 43363)  -->
<!DOCTYPE svg PUBLIC "-//W3C//DTD SVG 1.1//EN" "http://www.w3.org/Graphics/SVG/1.1/DTD/svg11.dtd">
<svg version="1.1" id="图层_1" xmlns="http://www.w3.org/2000/svg" xmlns:xlink="http://www.w3.org/1999/xlink" x="0px" y="0px"
	 width="64px" height="64px" viewBox="0 0 64 64" enable-background="new 0 0 64 64" xml:space="preserve">
<g id="Blue">
	<line fill="none" stroke="#0000FF" stroke-width="2" x1="36.217" y1="32.813" x2="36.217" y2="22.52"/>
	<line fill="none" stroke="#0000FF" stroke-width="2" x1="36.217" y1="32.813" x2="26.5" y2="38.39"/>
	<line fill="none" stroke="#0000FF" stroke-width="2" x1="36.217" y1="32.813" x2="45.819" y2="38.39"/>
	<line fill="none" stroke="#0000FF" stroke-width="2" x1="63.083" y1="15.917" x2="20.75" y2="15.917"/>
	<line fill="none" stroke="#0000FF" stroke-width="2" x1="20.75" y1="15.917" x2="1.75" y2="30.333"/>
	<line fill="none" stroke="#0000FF" stroke-width="2" x1="1.75" y1="30.333" x2="1.75" y2="45.417"/>
	<line fill="none" stroke="#0000FF" stroke-width="2" x1="1.75" y1="45.417" x2="63.083" y2="45.417"/>
	<line fill="none" stroke="#0000FF" stroke-width="2" x1="63.083" y1="45.417" x2="63.083" y2="15.917"/>
</g>
<g id="Red">
	<line fill="none" stroke="#FF0000" stroke-width="2" x1="36.217" y1="32.813" x2="36.217" y2="22.52"/>
	<line fill="none" stroke="#FF0000" stroke-width="2" x1="36.217" y1="32.813" x2="26.5" y2="38.39"/>
	<line fill="none" stroke="#FF0000" stroke-width="2" x1="36.217" y1="32.813" x2="45.819" y2="38.39"/>
	<line fill="none" stroke="#FF0000" stroke-width="2" x1="63.083" y1="15.917" x2="20.75" y2="15.917"/>
	<line fill="none" stroke="#FF0000" stroke-width="2" x1="20.75" y1="15.917" x2="1.75" y2="30.333"/>
	<line fill="none" stroke="#FF0000" stroke-width="2" x1="1.75" y1="30.333" x2="1.75" y2="45.417"/>
	<line fill="none" stroke="#FF0000" stroke-width="2" x1="1.75" y1="45.417" x2="63.083" y2="45.417"/>
	<line fill="none" stroke="#FF0000" stroke-width="2" x1="63.083" y1="45.417" x2="63.083" y2="15.917"/>
</g>
<g id="White">
	<line fill="none" stroke="#00FF00" stroke-width="2" x1="36.217" y1="32.813" x2="36.217" y2="22.52"/>
	<line fill="none" stroke="#00FF00" stroke-width="2" x1="36.217" y1="32.813" x2="26.5" y2="38.39"/>
	<line fill="none" stroke="#00FF00" stroke-width="2" x1="36.217" y1="32.813" x2="45.819" y2="38.39"/>
	<line fill="none" stroke="#00FF00" stroke-width="2" x1="63.083" y1="15.917" x2="20.75" y2="15.917"/>
	<line fill="none" stroke="#00FF00" stroke-width="2" x1="20.75" y1="15.917" x2="1.75" y2="30.333"/>
	<line fill="none" stroke="#00FF00" stroke-width="2" x1="1.75" y1="30.333" x2="1.75" y2="45.417"/>
	<line fill="none" stroke="#00FF00" stroke-width="2" x1="1.75" y1="45.417" x2="63.083" y2="45.417"/>
	<line fill="none" stroke="#00FF00" stroke-width="2" x1="63.083" y1="45.417" x2="63.083" y2="15.917"/>
</g>
</svg>
