<?xml version="1.0" encoding="utf-8"?>
<!-- Generator: Adobe Illustrator 14.0.0, SVG Export Plug-In . SVG Version: 6.00 Build 43363)  -->
<!DOCTYPE svg PUBLIC "-//W3C//DTD SVG 1.1//EN" "http://www.w3.org/Graphics/SVG/1.1/DTD/svg11.dtd">
<svg version="1.1" id="图层_1" xmlns="http://www.w3.org/2000/svg" xmlns:xlink="http://www.w3.org/1999/xlink" x="0px" y="0px"
	 width="64px" height="64px" viewBox="-7 -7 64 64" enable-background="new -7 -7 64 64" xml:space="preserve">
<g id="Blue">
	<line fill="none" stroke-width="2" stroke="#0000FF" x1="0.806" y1="40.079" x2="25.346" y2="1.813"/>
	<line fill="none" stroke-width="2" stroke="#0000FF" x1="26.098" y1="2.351" x2="26.098" y2="49.298"/>
	<line fill="none" stroke-width="2" stroke="#0000FF" x1="25.346" y1="48.481" x2="55.076" y2="3.322"/>
	<line fill="none" stroke-width="2" stroke="#FFFF00" x1="1.374" y1="40.726" x2="25.076" y2="3.963"/>
	<line fill="none" stroke-width="2" stroke="#FFFF00" x1="25.346" y1="3.322" x2="25.346" y2="50.658"/>
	<line fill="none" stroke-width="2" stroke="#FFFF00" x1="25.346" y1="50.658" x2="56.087" y2="3.963"/>
	<polygon fill="#0000FF" points="1.087,33.147 1.168,40.362 7.699,37.299 -6.088,52.334 	"/>
	<line fill="none" stroke-width="2" stroke="#FFFF00" x1="0.41" y1="37.285" x2="-3.229" y2="47.812"/>
	<line fill="none" stroke-width="2" stroke="#FFFF00" x1="-3.229" y1="47.812" x2="4.608" y2="39.437"/>
</g>
<g id="Red">
	<line fill="none" stroke-width="2" stroke="#FF0000" x1="0.806" y1="40.079" x2="25.346" y2="1.813"/>
	<line fill="none" stroke-width="2" stroke="#FF0000" x1="26.098" y1="2.351" x2="26.098" y2="49.298"/>
	<line fill="none" stroke-width="2" stroke="#FF0000" x1="25.346" y1="48.481" x2="55.076" y2="3.322"/>
	<line fill="none" stroke-width="2" stroke="#FFFF00" x1="1.374" y1="40.726" x2="25.076" y2="3.963"/>
	<line fill="none" stroke-width="2" stroke="#FFFF00" x1="25.346" y1="3.322" x2="25.346" y2="50.658"/>
	<line fill="none" stroke-width="2" stroke="#FFFF00" x1="25.346" y1="50.658" x2="56.087" y2="3.963"/>
	<polygon fill="#FF0000" points="1.087,33.147 1.168,40.362 7.699,37.299 -6.088,52.334 	"/>
	<line fill="none" stroke-width="2" stroke="#FFFF00" x1="0.41" y1="37.285" x2="-3.229" y2="47.812"/>
	<line fill="none" stroke-width="2" stroke="#FFFF00" x1="-3.229" y1="47.812" x2="4.608" y2="39.437"/>
</g>
<g id="White">
	<line fill="none" stroke-width="2" stroke="#00FF00" x1="0.806" y1="40.079" x2="25.346" y2="1.813"/>
	<line fill="none" stroke-width="2" stroke="#00FF00" x1="26.098" y1="2.351" x2="26.098" y2="49.298"/>
	<line fill="none" stroke-width="2" stroke="#00FF00" x1="25.346" y1="48.481" x2="55.076" y2="3.322"/>
	<line fill="none" stroke-width="2" stroke="#FFFF00" x1="1.374" y1="40.726" x2="25.076" y2="3.963"/>
	<line fill="none" stroke-width="2" stroke="#FFFF00" x1="25.346" y1="3.322" x2="25.346" y2="50.658"/>
	<line fill="none" stroke-width="2" stroke="#FFFF00" x1="25.346" y1="50.658" x2="56.087" y2="3.963"/>
	<polygon fill="#00FF00" points="1.087,33.147 1.168,40.362 7.699,37.299 -6.088,52.334 	"/>
	<line fill="none" stroke-width="2" stroke="#FFFF00" x1="0.41" y1="37.285" x2="-3.229" y2="47.812"/>
	<line fill="none" stroke-width="2" stroke="#FFFF00" x1="-3.229" y1="47.812" x2="4.608" y2="39.437"/>
</g>
</svg>
