<?xml version="1.0" encoding="utf-8"?>
<!-- Generator: Adobe Illustrator 14.0.0, SVG Export Plug-In . SVG Version: 6.00 Build 43363)  -->
<!DOCTYPE svg PUBLIC "-//W3C//DTD SVG 1.1//EN" "http://www.w3.org/Graphics/SVG/1.1/DTD/svg11.dtd">
<svg version="1.1" id="图层_1" xmlns="http://www.w3.org/2000/svg" xmlns:xlink="http://www.w3.org/1999/xlink" x="0px" y="0px"
	 width="64px" height="64px" viewBox="-7 -7 64 64" enable-background="new -7 -7 64 64" xml:space="preserve">
<g id="Blue">
	<path fill="none" stroke-width="2" stroke="#0000FF" d="M24.948-5.993c0,0-8.679,10.09-22.894,14.104c0,0-1.031,36.296,22.894,48.178
		c0,0,20.616-5.534,22.787-47.852C47.735,8.438,34.279,4.965,24.948-5.993z"/>
</g>
<g id="Red">
	<path fill="none" stroke-width="2" stroke="#FF0000" d="M24.948-5.993c0,0-8.679,10.09-22.894,14.104c0,0-1.031,36.296,22.894,48.178
		c0,0,20.616-5.534,22.787-47.852C47.735,8.438,34.279,4.965,24.948-5.993z"/>
</g>
<g id="White">
	<path fill="none" stroke-width="2" stroke="#00FF00" d="M24.948-5.993c0,0-8.679,10.09-22.894,14.104c0,0-1.031,36.296,22.894,48.178
		c0,0,20.616-5.534,22.787-47.852C47.735,8.438,34.279,4.965,24.948-5.993z"/>
</g>
</svg>
