<?xml version="1.0" encoding="utf-8"?>
<!-- Generator: Adobe Illustrator 14.0.0, SVG Export Plug-In . SVG Version: 6.00 Build 43363)  -->
<!DOCTYPE svg PUBLIC "-//W3C//DTD SVG 1.1//EN" "http://www.w3.org/Graphics/SVG/1.1/DTD/svg11.dtd">
<svg version="1.1" id="图层_1" xmlns="http://www.w3.org/2000/svg" xmlns:xlink="http://www.w3.org/1999/xlink" x="0px" y="0px"
	 width="64px" height="64px" viewBox="-7 -7 64 64" enable-background="new -7 -7 64 64" xml:space="preserve">
<g id="Blue">
	<line fill="none" stroke-width="2" stroke="#0000FF" x1="14.913" y1="9.304" x2="37.087" y2="9.304"/>
	<line fill="none" stroke-width="2" stroke="#0000FF" x1="26" y1="55.065" x2="26" y2="-5.164"/>
	<path fill="none" stroke-width="2" stroke="#0000FF" d="M46.364,37.139c0,0-1.887,17.612-19.814,17.927c0,0-16.04,2.517-21.229-17.927"/>
</g>
<g id="Red">
	<line fill="none" stroke-width="2" stroke="#FF0000" x1="14.913" y1="9.304" x2="37.087" y2="9.304"/>
	<line fill="none" stroke-width="2" stroke="#FF0000" x1="26" y1="55.065" x2="26" y2="-5.164"/>
	<path fill="none" stroke-width="2" stroke="#FF0000" d="M46.364,37.139c0,0-1.887,17.612-19.814,17.927c0,0-16.04,2.517-21.229-17.927"/>
</g>
<g id="White">
	<line fill="none" stroke-width="2" stroke="#00FF00" x1="14.913" y1="9.304" x2="37.087" y2="9.304"/>
	<line fill="none" stroke-width="2" stroke="#00FF00" x1="26" y1="55.065" x2="26" y2="-5.164"/>
	<path fill="none" stroke-width="2" stroke="#00FF00" d="M46.364,37.139c0,0-1.887,17.612-19.814,17.927c0,0-16.04,2.517-21.229-17.927"/>
</g>
</svg>
