<?xml version="1.0" encoding="utf-8"?>
<!-- Generator: Adobe Illustrator 14.0.0, SVG Export Plug-In . SVG Version: 6.00 Build 43363)  -->
<!DOCTYPE svg PUBLIC "-//W3C//DTD SVG 1.1//EN" "http://www.w3.org/Graphics/SVG/1.1/DTD/svg11.dtd">
<svg version="1.1" id="图层_1" xmlns="http://www.w3.org/2000/svg" xmlns:xlink="http://www.w3.org/1999/xlink" x="0px" y="0px"
	 width="64px" height="64px" viewBox="-7 -7 64 64" enable-background="new -7 -7 64 64" xml:space="preserve">
<g id="Blue">
	<path fill="none" stroke-width="2" stroke="#0000FF" d="M-2.48,25.974c0,0,0.974,26.616,27.156,28.778V-4.752"/>
	<path fill="none" stroke-width="2" stroke="#0000FF" d="M52.48,25.974c0,0-1.407,27.806-27.805,28.778"/>
	<line fill="none" stroke-width="2" stroke="#0000FF" x1="24.676" y1="10.287" x2="15.345" y2="25.364"/>
	<line fill="none" stroke-width="2" stroke="#0000FF" x1="15.345" y1="24.715" x2="24.676" y2="38.848"/>
	<line fill="none" stroke-width="2" stroke="#0000FF" x1="24.676" y1="38.848" x2="34.196" y2="25"/>
	<line fill="none" stroke-width="2" stroke="#0000FF" x1="34.196" y1="25.71" x2="24.676" y2="10.287"/>
</g>
<g id="Red">
	<path fill="none" stroke-width="2" stroke="#FF0000" d="M-2.48,25.974c0,0,0.974,26.616,27.156,28.778V-4.752"/>
	<path fill="none" stroke-width="2" stroke="#FF0000" d="M52.48,25.974c0,0-1.407,27.806-27.805,28.778"/>
	<line fill="none" stroke-width="2" stroke="#FF0000" x1="24.676" y1="10.287" x2="15.345" y2="25.364"/>
	<line fill="none" stroke-width="2" stroke="#FF0000" x1="15.345" y1="24.715" x2="24.676" y2="38.848"/>
	<line fill="none" stroke-width="2" stroke="#FF0000" x1="24.676" y1="38.848" x2="34.196" y2="25"/>
	<line fill="none" stroke-width="2" stroke="#FF0000" x1="34.196" y1="25.71" x2="24.676" y2="10.287"/>
</g>
<g id="White">
	<path fill="none" stroke-width="2" stroke="#00FF00" d="M-2.48,25.974c0,0,0.974,26.616,27.156,28.778V-4.752"/>
	<path fill="none" stroke-width="2" stroke="#00FF00" d="M52.48,25.974c0,0-1.407,27.806-27.805,28.778"/>
	<line fill="none" stroke-width="2" stroke="#00FF00" x1="24.676" y1="10.287" x2="15.345" y2="25.364"/>
	<line fill="none" stroke-width="2" stroke="#00FF00" x1="15.345" y1="24.715" x2="24.676" y2="38.848"/>
	<line fill="none" stroke-width="2" stroke="#00FF00" x1="24.676" y1="38.848" x2="34.196" y2="25"/>
	<line fill="none" stroke-width="2" stroke="#00FF00" x1="34.196" y1="25.71" x2="24.676" y2="10.287"/>
</g>
</svg>
