<?xml version="1.0" encoding="utf-8"?>
<!-- Generator: Adobe Illustrator 14.0.0, SVG Export Plug-In . SVG Version: 6.00 Build 43363)  -->
<!DOCTYPE svg PUBLIC "-//W3C//DTD SVG 1.1//EN" "http://www.w3.org/Graphics/SVG/1.1/DTD/svg11.dtd">
<svg version="1.1" id="图层_1_1_" xmlns="http://www.w3.org/2000/svg" xmlns:xlink="http://www.w3.org/1999/xlink" x="0px"
	 y="0px" width="64px" height="64px" viewBox="-7 -7 64 64" enable-background="new -7 -7 64 64" xml:space="preserve">
<g id="Blue">
	<line fill="none" stroke-width="2" stroke="#0000FF" x1="18.228" y1="-5.093" x2="25.25" y2="2.472"/>
	<line fill="none" stroke-width="2" stroke="#0000FF" x1="31.628" y1="-5.093" x2="25.25" y2="2.472"/>
	<line fill="none" stroke-width="2" stroke="#0000FF" x1="25.25" y1="2.472" x2="25.25" y2="55.094"/>
	<line fill="none" stroke-width="2" stroke="#0000FF" x1="25.25" y1="21.63" x2="42.215" y2="43.217"/>
	<line fill="none" stroke-width="2" stroke="#0000FF" x1="25.25" y1="21.63" x2="9.062" y2="43.217"/>
</g>
<g id="Red">
	<line fill="none" stroke-width="2" stroke="#FF0000" x1="18.228" y1="-5.093" x2="25.25" y2="2.472"/>
	<line fill="none" stroke-width="2" stroke="#FF0000" x1="31.628" y1="-5.093" x2="25.25" y2="2.472"/>
	<line fill="none" stroke-width="2" stroke="#FF0000" x1="25.25" y1="2.472" x2="25.25" y2="55.094"/>
	<line fill="none" stroke-width="2" stroke="#FF0000" x1="25.25" y1="21.63" x2="42.215" y2="43.217"/>
	<line fill="none" stroke-width="2" stroke="#FF0000" x1="25.25" y1="21.63" x2="9.062" y2="43.217"/>
</g>
<g id="White">
	<line fill="none" stroke-width="2" stroke="#00FF00" x1="18.228" y1="-5.093" x2="25.25" y2="2.472"/>
	<line fill="none" stroke-width="2" stroke="#00FF00" x1="31.628" y1="-5.093" x2="25.25" y2="2.472"/>
	<line fill="none" stroke-width="2" stroke="#00FF00" x1="25.25" y1="2.472" x2="25.25" y2="55.094"/>
	<line fill="none" stroke-width="2" stroke="#00FF00" x1="25.25" y1="21.63" x2="42.215" y2="43.217"/>
	<line fill="none" stroke-width="2" stroke="#00FF00" x1="25.25" y1="21.63" x2="9.062" y2="43.217"/>
</g>
</svg>
