<?xml version="1.0" encoding="utf-8"?>
<!-- Generator: Adobe Illustrator 14.0.0, SVG Export Plug-In . SVG Version: 6.00 Build 43363)  -->
<!DOCTYPE svg PUBLIC "-//W3C//DTD SVG 1.1//EN" "http://www.w3.org/Graphics/SVG/1.1/DTD/svg11.dtd">
<svg version="1.1" id="图层_1" xmlns="http://www.w3.org/2000/svg" xmlns:xlink="http://www.w3.org/1999/xlink" x="0px" y="0px"
	 width="64px" height="64px" viewBox="0 0 64 64" enable-background="new 0 0 64 64" xml:space="preserve">
<g id="Blue">
	<line fill="none" stroke-width="2" stroke="#0000FF" x1="57.022" y1="18.821" x2="32.188" y2="57.548"/>
	<line fill="none" stroke-width="2" stroke="#0000FF" x1="31.427" y1="57.006" x2="31.427" y2="9.493"/>
	<line fill="none" stroke-width="2" stroke="#0000FF" x1="32.188" y1="10.318" x2="2.1" y2="56.021"/>
	<line fill="none" stroke-width="2" stroke="#0000FF" x1="56.448" y1="18.167" x2="32.461" y2="55.374"/>
	<line fill="none" stroke-width="2" stroke="#0000FF" x1="32.188" y1="56.021" x2="32.188" y2="8.116"/>
	<line fill="none" stroke-width="2" stroke="#0000FF" x1="32.188" y1="8.116" x2="1.076" y2="55.374"/>
	<polygon fill="#0000FF" points="56.74,25.837 56.658,18.535 50.05,21.636 64,6.419 	"/>
</g>
<g id="Red">
	<line fill="none" stroke-width="2" stroke="#FF0000" x1="57.022" y1="18.821" x2="32.188" y2="57.548"/>
	<line fill="none" stroke-width="2" stroke="#FF0000" x1="31.427" y1="57.006" x2="31.427" y2="9.493"/>
	<line fill="none" stroke-width="2" stroke="#FF0000" x1="32.188" y1="10.318" x2="2.1" y2="56.021"/>
	<line fill="none" stroke-width="2" stroke="#FF0000" x1="56.448" y1="18.167" x2="32.461" y2="55.374"/>
	<line fill="none" stroke-width="2" stroke="#FF0000" x1="32.188" y1="56.021" x2="32.188" y2="8.116"/>
	<line fill="none" stroke-width="2" stroke="#FF0000" x1="32.188" y1="8.116" x2="1.076" y2="55.374"/>
	<polygon fill="#FF0000" points="56.74,25.837 56.658,18.535 50.05,21.636 64,6.419 	"/>
</g>
<g id="White">
	<line fill="none" stroke-width="2" stroke="#00FF00" x1="57.022" y1="18.821" x2="32.188" y2="57.548"/>
	<line fill="none" stroke-width="2" stroke="#00FF00" x1="31.427" y1="57.006" x2="31.427" y2="9.493"/>
	<line fill="none" stroke-width="2" stroke="#00FF00" x1="32.188" y1="10.318" x2="2.1" y2="56.021"/>
	<line fill="none" stroke-width="2" stroke="#00FF00" x1="56.448" y1="18.167" x2="32.461" y2="55.374"/>
	<line fill="none" stroke-width="2" stroke="#00FF00" x1="32.188" y1="56.021" x2="32.188" y2="8.116"/>
	<line fill="none" stroke-width="2" stroke="#00FF00" x1="32.188" y1="8.116" x2="1.076" y2="55.374"/>
	<polygon fill="#00FF00" points="56.74,25.837 56.658,18.535 50.05,21.636 64,6.419 	"/>
</g>
</svg>
