<?xml version="1.0" encoding="utf-8"?>
<!-- Generator: Adobe Illustrator 14.0.0, SVG Export Plug-In . SVG Version: 6.00 Build 43363)  -->
<!DOCTYPE svg PUBLIC "-//W3C//DTD SVG 1.1//EN" "http://www.w3.org/Graphics/SVG/1.1/DTD/svg11.dtd">
<svg version="1.1" id="图层_1" xmlns="http://www.w3.org/2000/svg" xmlns:xlink="http://www.w3.org/1999/xlink" x="0px" y="0px"
	 width="64px" height="64px" viewBox="0 0 64 64" enable-background="new 0 0 64 64" xml:space="preserve">
<g id="Blue">
	<line fill="none" stroke="#0000FF" stroke-width="2" x1="33.938" y1="2.333" x2="22.997" y2="14.014"/>
	<line fill="none" stroke="#0000FF" stroke-width="2" x1="22.997" y1="14.014" x2="22.997" y2="62.458"/>
	<line fill="none" stroke="#0000FF" stroke-width="2" x1="14.31" y1="62.458" x2="53.064" y2="62.458"/>
	<line fill="none" stroke="#0000FF" stroke-width="2" x1="33.875" y1="2.333" x2="43.934" y2="14.014"/>
	<line fill="none" stroke="#0000FF" stroke-width="2" x1="43.934" y1="14.014" x2="43.934" y2="61.902"/>
</g>
<g id="Red">
	<line fill="none" stroke="#FF0000" stroke-width="2" x1="33.938" y1="2.333" x2="22.997" y2="14.014"/>
	<line fill="none" stroke="#FF0000" stroke-width="2" x1="22.997" y1="14.014" x2="22.997" y2="62.458"/>
	<line fill="none" stroke="#FF0000" stroke-width="2" x1="14.31" y1="62.458" x2="53.064" y2="62.458"/>
	<line fill="none" stroke="#FF0000" stroke-width="2" x1="33.875" y1="2.333" x2="43.934" y2="14.014"/>
	<line fill="none" stroke="#FF0000" stroke-width="2" x1="43.934" y1="14.014" x2="43.934" y2="61.902"/>
</g>
<g id="White">
	<line fill="none" stroke="#00FF00" stroke-width="2" x1="33.938" y1="2.333" x2="22.997" y2="14.014"/>
	<line fill="none" stroke="#00FF00" stroke-width="2" x1="22.997" y1="14.014" x2="22.997" y2="62.458"/>
	<line fill="none" stroke="#00FF00" stroke-width="2" x1="14.31" y1="62.458" x2="53.064" y2="62.458"/>
	<line fill="none" stroke="#00FF00" stroke-width="2" x1="33.875" y1="2.333" x2="43.934" y2="14.014"/>
	<line fill="none" stroke="#00FF00" stroke-width="2" x1="43.934" y1="14.014" x2="43.934" y2="61.902"/>
</g>
</svg>
