<?xml version="1.0" encoding="utf-8"?>
<!-- Generator: Adobe Illustrator 14.0.0, SVG Export Plug-In . SVG Version: 6.00 Build 43363)  -->
<!DOCTYPE svg PUBLIC "-//W3C//DTD SVG 1.1//EN" "http://www.w3.org/Graphics/SVG/1.1/DTD/svg11.dtd">
<svg version="1.1" id="图层_1" xmlns="http://www.w3.org/2000/svg" xmlns:xlink="http://www.w3.org/1999/xlink" x="0px" y="0px"
	 width="64px" height="64px" viewBox="0 0 64 64" enable-background="new 0 0 64 64" xml:space="preserve">
<g id="Blue">
	<line fill="none" stroke="#0000FF" stroke-width="2" x1="53.688" y1="2" x2="51.21" y2="13.105"/>
	<line fill="none" stroke="#0000FF" stroke-width="2" x1="47.879" y1="2" x2="45.231" y2="13.105"/>
	<line fill="none" stroke="#0000FF" stroke-width="2" x1="19.689" y1="2" x2="17.725" y2="13.105"/>
	<line fill="none" stroke="#0000FF" stroke-width="2" x1="13.709" y1="2" x2="11.061" y2="13.105"/>
	<line fill="none" stroke="#0000FF" stroke-width="2" x1="12.385" y1="5.552" x2="52.449" y2="5.552"/>
	<line fill="none" stroke="#0000FF" stroke-width="2" x1="12.385" y1="9.552" x2="52.449" y2="9.552"/>
	<line fill="none" stroke="#0000FF" stroke-width="2" x1="31.733" y1="9.552" x2="31.733" y2="62.396"/>
	<line fill="none" stroke="#0000FF" stroke-width="2" x1="31.733" y1="45.139" x2="20.8" y2="62.396"/>
	<line fill="none" stroke="#0000FF" stroke-width="2" x1="31.733" y1="45.139" x2="42.794" y2="62.396"/>
	<line fill="none" stroke="#0000FF" stroke-width="2" x1="42.794" y1="62.396" x2="20.8" y2="62.396"/>
</g>
<g id="Red">
	<line fill="none" stroke="#FF0000" stroke-width="2" x1="53.688" y1="2" x2="51.21" y2="13.105"/>
	<line fill="none" stroke="#FF0000" stroke-width="2" x1="47.879" y1="2" x2="45.231" y2="13.105"/>
	<line fill="none" stroke="#FF0000" stroke-width="2" x1="19.689" y1="2" x2="17.725" y2="13.105"/>
	<line fill="none" stroke="#FF0000" stroke-width="2" x1="13.709" y1="2" x2="11.061" y2="13.105"/>
	<line fill="none" stroke="#FF0000" stroke-width="2" x1="12.385" y1="5.552" x2="52.449" y2="5.552"/>
	<line fill="none" stroke="#FF0000" stroke-width="2" x1="12.385" y1="9.552" x2="52.449" y2="9.552"/>
	<line fill="none" stroke="#FF0000" stroke-width="2" x1="31.733" y1="9.552" x2="31.733" y2="62.396"/>
	<line fill="none" stroke="#FF0000" stroke-width="2" x1="31.733" y1="45.139" x2="20.8" y2="62.396"/>
	<line fill="none" stroke="#FF0000" stroke-width="2" x1="31.733" y1="45.139" x2="42.794" y2="62.396"/>
	<line fill="none" stroke="#FF0000" stroke-width="2" x1="42.794" y1="62.396" x2="20.8" y2="62.396"/>
</g>
<g id="White">
	<line fill="none" stroke="#00FF00" stroke-width="2" x1="53.688" y1="2" x2="51.21" y2="13.105"/>
	<line fill="none" stroke="#00FF00" stroke-width="2" x1="47.879" y1="2" x2="45.231" y2="13.105"/>
	<line fill="none" stroke="#00FF00" stroke-width="2" x1="19.689" y1="2" x2="17.725" y2="13.105"/>
	<line fill="none" stroke="#00FF00" stroke-width="2" x1="13.709" y1="2" x2="11.061" y2="13.105"/>
	<line fill="none" stroke="#00FF00" stroke-width="2" x1="12.385" y1="5.552" x2="52.449" y2="5.552"/>
	<line fill="none" stroke="#00FF00" stroke-width="2" x1="12.385" y1="9.552" x2="52.449" y2="9.552"/>
	<line fill="none" stroke="#00FF00" stroke-width="2" x1="31.733" y1="5.552" x2="31.733" y2="62.396"/>
	<line fill="none" stroke="#00FF00" stroke-width="2" x1="31.733" y1="45.139" x2="20.8" y2="62.396"/>
	<line fill="none" stroke="#00FF00" stroke-width="2" x1="31.733" y1="45.139" x2="42.794" y2="62.396"/>
	<line fill="none" stroke="#00FF00" stroke-width="2" x1="42.794" y1="62.396" x2="20.8" y2="62.396"/>
</g>
</svg>
