<?xml version="1.0" encoding="utf-8"?>
<!-- Generator: Adobe Illustrator 14.0.0, SVG Export Plug-In . SVG Version: 6.00 Build 43363)  -->
<!DOCTYPE svg PUBLIC "-//W3C//DTD SVG 1.1//EN" "http://www.w3.org/Graphics/SVG/1.1/DTD/svg11.dtd">
<svg version="1.1" id="图层_1" xmlns="http://www.w3.org/2000/svg" xmlns:xlink="http://www.w3.org/1999/xlink" x="0px" y="0px"
	 width="64px" height="64px" viewBox="0 0 64 64" enable-background="new 0 0 64 64" xml:space="preserve">
<g id="Blue">
	<line fill="none" stroke="#0000FF" stroke-width="2" x1="28.582" y1="28.5" x2="28.573" y2="61.333"/>
	<line fill="none" stroke="#0000FF" stroke-width="2" x1="28.624" y1="45.625" x2="18.25" y2="61.333"/>
	<line fill="none" stroke="#0000FF" stroke-width="2" x1="28.624" y1="45.625" x2="39" y2="61.333"/>
	<line fill="none" stroke="#0000FF" stroke-width="2" x1="39" y1="61.333" x2="18.25" y2="61.333"/>
	<path fill="none" stroke="#0000FF" stroke-width="2" d="M45.207,19.067C40.592,23.646,33.139,23.615,28.561,19
		c-4.579-4.615-4.548-12.069,0.067-16.647"/>
	<polygon fill="#0000FF" points="28.582,28.5 25.146,32.333 28.625,19.917 32,32.333 	"/>
</g>
<g id="Red">
	<line fill="none" stroke="#FF0000" stroke-width="2" x1="28.582" y1="28.5" x2="28.573" y2="61.333"/>
	<line fill="none" stroke="#FF0000" stroke-width="2" x1="28.624" y1="45.625" x2="18.25" y2="61.333"/>
	<line fill="none" stroke="#FF0000" stroke-width="2" x1="28.624" y1="45.625" x2="39" y2="61.333"/>
	<line fill="none" stroke="#FF0000" stroke-width="2" x1="39" y1="61.333" x2="18.25" y2="61.333"/>
	<path fill="none" stroke="#FF0000" stroke-width="2" d="M45.207,19.067C40.592,23.646,33.139,23.615,28.561,19
		c-4.579-4.615-4.548-12.069,0.067-16.647"/>
	<polygon fill="#FF0000" points="28.582,28.5 25.146,32.333 28.625,19.917 32,32.333 	"/>
</g>
<g id="White">
	<line fill="none" stroke="#00FF00" stroke-width="2" x1="28.582" y1="28.5" x2="28.573" y2="61.333"/>
	<line fill="none" stroke="#00FF00" stroke-width="2" x1="28.624" y1="45.625" x2="18.25" y2="61.333"/>
	<line fill="none" stroke="#00FF00" stroke-width="2" x1="28.624" y1="45.625" x2="39" y2="61.333"/>
	<line fill="none" stroke="#00FF00" stroke-width="2" x1="39" y1="61.333" x2="18.25" y2="61.333"/>
	<path fill="none" stroke="#00FF00" stroke-width="2" d="M45.207,19.067C40.592,23.646,33.139,23.615,28.561,19
		c-4.579-4.615-4.548-12.069,0.067-16.647"/>
	<polygon fill="#00FF00" points="28.582,28.5 25.146,32.333 28.625,19.917 32,32.333 	"/>
</g>
</svg>
