<?xml version="1.0" encoding="utf-8"?>
<!-- Generator: Adobe Illustrator 14.0.0, SVG Export Plug-In . SVG Version: 6.00 Build 43363)  -->
<!DOCTYPE svg PUBLIC "-//W3C//DTD SVG 1.1//EN" "http://www.w3.org/Graphics/SVG/1.1/DTD/svg11.dtd">
<svg version="1.1" id="图层_1" xmlns="http://www.w3.org/2000/svg" xmlns:xlink="http://www.w3.org/1999/xlink" x="0px" y="0px"
	 width="64px" height="64px" viewBox="0 0 64 64" enable-background="new 0 0 64 64" xml:space="preserve">
<g id="Blue">
	<line fill="none" stroke="#0000FF" x1="49.939" y1="3.563" x2="47.854" y2="12.909"/>
	<line fill="none" stroke="#0000FF" x1="45.05" y1="3.563" x2="42.821" y2="12.909"/>
	<line fill="none" stroke="#0000FF" x1="21.323" y1="3.563" x2="19.669" y2="12.909"/>
	<line fill="none" stroke="#0000FF" x1="16.29" y1="3.563" x2="14.061" y2="12.909"/>
	<line fill="none" stroke="#0000FF" x1="15.175" y1="8.236" x2="48.896" y2="8.236"/>
	<line fill="none" stroke="#0000FF" x1="31.46" y1="8.236" x2="31.46" y2="39.871"/>
	<line fill="none" stroke="#0000FF" x1="31.46" y1="39.871" x2="22.258" y2="54.396"/>
	<line fill="none" stroke="#0000FF" x1="31.46" y1="39.871" x2="40.77" y2="54.396"/>
	<line fill="none" stroke="#0000FF" x1="40.77" y1="54.396" x2="22.258" y2="54.396"/>
	<circle fill="none" stroke="#0000FF" cx="26.105" cy="57.751" r="3.355"/>
	<circle fill="none" stroke="#0000FF" cx="37.105" cy="57.751" r="3.355"/>
</g>
<g id="Red">
	<line fill="none" stroke="#FF0000" x1="49.939" y1="3.563" x2="47.854" y2="12.909"/>
	<line fill="none" stroke="#FF0000" x1="45.05" y1="3.563" x2="42.821" y2="12.909"/>
	<line fill="none" stroke="#FF0000" x1="21.323" y1="3.563" x2="19.669" y2="12.909"/>
	<line fill="none" stroke="#FF0000" x1="16.29" y1="3.563" x2="14.061" y2="12.909"/>
	<line fill="none" stroke="#FF0000" x1="15.175" y1="8.236" x2="48.896" y2="8.236"/>
	<line fill="none" stroke="#FF0000" x1="31.46" y1="8.236" x2="31.46" y2="39.871"/>
	<line fill="none" stroke="#FF0000" x1="31.46" y1="39.871" x2="22.258" y2="54.396"/>
	<line fill="none" stroke="#FF0000" x1="31.46" y1="39.871" x2="40.77" y2="54.396"/>
	<line fill="none" stroke="#FF0000" x1="40.77" y1="54.396" x2="22.258" y2="54.396"/>
	<circle fill="none" stroke="#FF0000" cx="26.105" cy="57.751" r="3.355"/>
	<circle fill="none" stroke="#FF0000" cx="37.105" cy="57.751" r="3.355"/>
</g>
<g id="White">
	<line fill="none" stroke="#00FF00" x1="49.939" y1="3.563" x2="47.854" y2="12.909"/>
	<line fill="none" stroke="#00FF00" x1="45.05" y1="3.563" x2="42.821" y2="12.909"/>
	<line fill="none" stroke="#00FF00" x1="21.323" y1="3.563" x2="19.669" y2="12.909"/>
	<line fill="none" stroke="#00FF00" x1="16.29" y1="3.563" x2="14.061" y2="12.909"/>
	<line fill="none" stroke="#00FF00" x1="15.175" y1="8.236" x2="48.896" y2="8.236"/>
	<line fill="none" stroke="#00FF00" x1="31.46" y1="8.236" x2="31.46" y2="39.871"/>
	<line fill="none" stroke="#00FF00" x1="31.46" y1="39.871" x2="22.258" y2="54.396"/>
	<line fill="none" stroke="#00FF00" x1="31.46" y1="39.871" x2="40.77" y2="54.396"/>
	<line fill="none" stroke="#00FF00" x1="40.77" y1="54.396" x2="22.258" y2="54.396"/>
	<circle fill="none" stroke="#00FF00" cx="26.105" cy="57.751" r="3.355"/>
	<circle fill="none" stroke="#00FF00" cx="37.105" cy="57.751" r="3.355"/>
</g>
</svg>
