<?xml version="1.0" encoding="utf-8"?>
<!-- Generator: Adobe Illustrator 14.0.0, SVG Export Plug-In . SVG Version: 6.00 Build 43363)  -->
<!DOCTYPE svg PUBLIC "-//W3C//DTD SVG 1.1//EN" "http://www.w3.org/Graphics/SVG/1.1/DTD/svg11.dtd">
<svg version="1.1" id="图层_1" xmlns="http://www.w3.org/2000/svg" xmlns:xlink="http://www.w3.org/1999/xlink" x="0px" y="0px"
	 width="64px" height="64px" viewBox="0 0 64 64" enable-background="new 0 0 64 64" xml:space="preserve">
<g id="Blue">
	<line fill="none" stroke="#0000FF" stroke-width="2" x1="31.582" y1="18.985" x2="31.624" y2="45.625"/>
	<line fill="none" stroke="#0000FF" stroke-width="2" x1="31.624" y1="45.625" x2="21.25" y2="61.333"/>
	<line fill="none" stroke="#0000FF" stroke-width="2" x1="31.624" y1="45.625" x2="42" y2="61.333"/>
	<line fill="none" stroke="#0000FF" stroke-width="2" x1="42" y1="61.333" x2="21.25" y2="61.333"/>
	<path fill="none" stroke="#000100" stroke-width="2" d="M47.875,20.313c-4.615,4.579-12.342,3.851-16.919-0.764
		c-4.579-4.615-5.196-12.069-0.581-16.647"/>
	<path fill="none" stroke="#0000FF" stroke-width="2" d="M48.207,19.067C43.592,23.646,36.139,23.615,31.561,19
		c-4.579-4.615-4.547-12.069,0.067-16.647"/>
	<line fill="none" stroke="#0000FF" stroke-width="2" x1="16.625" y1="32" x2="49" y2="32"/>
	<line fill="none" stroke="#0000FF" stroke-width="2" x1="49" y1="31.953" x2="52.688" y2="28.266"/>
	<line fill="none" stroke="#0000FF" stroke-width="2" x1="49" y1="31.953" x2="52.531" y2="35.484"/>
	<polygon fill="#0000FF" points="16.625,32 20.563,34.75 9.125,32 20.563,29 	"/>
</g>
<g id="Red">
	<line fill="none" stroke="#FF0000" stroke-width="2" x1="31.582" y1="18.985" x2="31.624" y2="45.625"/>
	<line fill="none" stroke="#FF0000" stroke-width="2" x1="31.624" y1="45.625" x2="21.25" y2="61.333"/>
	<line fill="none" stroke="#FF0000" stroke-width="2" x1="31.624" y1="45.625" x2="42" y2="61.333"/>
	<line fill="none" stroke="#FF0000" stroke-width="2" x1="42" y1="61.333" x2="21.25" y2="61.333"/>
	<path fill="none" stroke="#000100" stroke-width="2" d="M47.875,20.313c-4.615,4.579-12.342,3.851-16.919-0.764
		c-4.579-4.615-5.196-12.069-0.581-16.647"/>
	<path fill="none" stroke="#FF0000" stroke-width="2" d="M48.207,19.067C43.592,23.646,36.139,23.615,31.561,19
		c-4.579-4.615-4.547-12.069,0.067-16.647"/>
	<line fill="none" stroke="#FF0000" stroke-width="2" x1="16.625" y1="32" x2="49" y2="32"/>
	<line fill="none" stroke="#FF0000" stroke-width="2" x1="49" y1="31.953" x2="52.688" y2="28.266"/>
	<line fill="none" stroke="#FF0000" stroke-width="2" x1="49" y1="31.953" x2="52.531" y2="35.484"/>
	<polygon fill="#FF0000" points="16.625,32 20.563,34.75 9.125,32 20.563,29 	"/>
</g>
<g id="White">
	<line fill="none" stroke="#00FF00" stroke-width="2" x1="31.582" y1="18.985" x2="31.624" y2="45.625"/>
	<line fill="none" stroke="#00FF00" stroke-width="2" x1="31.624" y1="45.625" x2="21.25" y2="61.333"/>
	<line fill="none" stroke="#00FF00" stroke-width="2" x1="31.624" y1="45.625" x2="42" y2="61.333"/>
	<line fill="none" stroke="#00FF00" stroke-width="2" x1="42" y1="61.333" x2="21.25" y2="61.333"/>
	<path fill="none" stroke="#000100" stroke-width="2" d="M47.875,20.313c-4.615,4.579-12.342,3.851-16.919-0.764
		c-4.579-4.615-5.196-12.069-0.581-16.647"/>
	<path fill="none" stroke="#00FF00" stroke-width="2" d="M48.207,19.067C43.592,23.646,36.139,23.615,31.561,19
		c-4.579-4.615-4.547-12.069,0.067-16.647"/>
	<line fill="none" stroke="#00FF00" stroke-width="2" x1="16.625" y1="32" x2="49" y2="32"/>
	<line fill="none" stroke="#00FF00" stroke-width="2" x1="49" y1="31.953" x2="52.688" y2="28.266"/>
	<line fill="none" stroke="#00FF00" stroke-width="2" x1="49" y1="31.953" x2="52.531" y2="35.484"/>
	<polygon fill="#00FF00" points="16.625,32 20.563,34.75 9.125,32 20.563,29 	"/>
</g>
</svg>
