<?xml version="1.0" encoding="utf-8"?>
<!-- Generator: Adobe Illustrator 14.0.0, SVG Export Plug-In . SVG Version: 6.00 Build 43363)  -->
<!DOCTYPE svg PUBLIC "-//W3C//DTD SVG 1.1//EN" "http://www.w3.org/Graphics/SVG/1.1/DTD/svg11.dtd">
<svg version="1.1" id="图层_1" xmlns="http://www.w3.org/2000/svg" xmlns:xlink="http://www.w3.org/1999/xlink" x="0px" y="0px"
	 width="64px" height="64px" viewBox="0 0 64 64" enable-background="new 0 0 64 64" xml:space="preserve">
<g id="Blue">
	<line fill="none" stroke="#0000FF" stroke-width="2" x1="53.417" y1="1.417" x2="51" y2="12.25"/>
	<line fill="none" stroke="#0000FF" stroke-width="2" x1="47.75" y1="1.417" x2="45.167" y2="12.25"/>
	<line fill="none" stroke="#0000FF" stroke-width="2" x1="20.25" y1="1.417" x2="18.333" y2="12.25"/>
	<line fill="none" stroke="#0000FF" stroke-width="2" x1="14.417" y1="1.417" x2="11.833" y2="12.25"/>
	<line fill="none" stroke="#0000FF" stroke-width="2" x1="13.125" y1="6.833" x2="52.209" y2="6.833"/>
	<line fill="none" stroke="#0000FF" stroke-width="2" x1="32" y1="6.833" x2="32" y2="43.5"/>
	<rect x="22.792" y="43.5" fill="none" stroke="#0000FF" stroke-width="2" width="18.417" height="18.5"/>
	<line fill="none" stroke="#0000FF" stroke-width="2" x1="22.792" y1="21.25" x2="41.209" y2="21.25"/>
	<line fill="none" stroke="#0000FF" stroke-width="2" x1="22.792" y1="26.25" x2="41.209" y2="26.25"/>
	<line fill="none" stroke="#0000FF" stroke-width="2" x1="22.792" y1="31.25" x2="41.209" y2="31.25"/>
</g>
<g id="Red">
	<line fill="none" stroke="#FF0000" stroke-width="2" x1="53.417" y1="1.417" x2="51" y2="12.25"/>
	<line fill="none" stroke="#FF0000" stroke-width="2" x1="47.75" y1="1.417" x2="45.167" y2="12.25"/>
	<line fill="none" stroke="#FF0000" stroke-width="2" x1="20.25" y1="1.417" x2="18.333" y2="12.25"/>
	<line fill="none" stroke="#FF0000" stroke-width="2" x1="14.417" y1="1.417" x2="11.833" y2="12.25"/>
	<line fill="none" stroke="#FF0000" stroke-width="2" x1="13.125" y1="6.833" x2="52.209" y2="6.833"/>
	<line fill="none" stroke="#FF0000" stroke-width="2" x1="32" y1="6.833" x2="32" y2="43.5"/>
	<rect x="22.792" y="43.5" fill="none" stroke="#FF0000" stroke-width="2" width="18.417" height="18.5"/>
	<line fill="none" stroke="#FF0000" stroke-width="2" x1="22.792" y1="21.25" x2="41.209" y2="21.25"/>
	<line fill="none" stroke="#FF0000" stroke-width="2" x1="22.792" y1="26.25" x2="41.209" y2="26.25"/>
	<line fill="none" stroke="#FF0000" stroke-width="2" x1="22.792" y1="31.25" x2="41.209" y2="31.25"/>
</g>
<g id="White">
	<line fill="none" stroke="#00FF00" stroke-width="2" x1="53.417" y1="1.417" x2="51" y2="12.25"/>
	<line fill="none" stroke="#00FF00" stroke-width="2" x1="47.75" y1="1.417" x2="45.167" y2="12.25"/>
	<line fill="none" stroke="#00FF00" stroke-width="2" x1="20.25" y1="1.417" x2="18.333" y2="12.25"/>
	<line fill="none" stroke="#00FF00" stroke-width="2" x1="14.417" y1="1.417" x2="11.833" y2="12.25"/>
	<line fill="none" stroke="#00FF00" stroke-width="2" x1="13.125" y1="6.833" x2="52.209" y2="6.833"/>
	<line fill="none" stroke="#00FF00" stroke-width="2" x1="32" y1="6.833" x2="32" y2="43.5"/>
	<rect x="22.792" y="43.5" fill="none" stroke="#00FF00" stroke-width="2" width="18.417" height="18.5"/>
	<line fill="none" stroke="#00FF00" stroke-width="2" x1="22.792" y1="21.25" x2="41.209" y2="21.25"/>
	<line fill="none" stroke="#00FF00" stroke-width="2" x1="22.792" y1="26.25" x2="41.209" y2="26.25"/>
	<line fill="none" stroke="#00FF00" stroke-width="2" x1="22.792" y1="31.25" x2="41.209" y2="31.25"/>
</g>
</svg>
