<?xml version="1.0" encoding="utf-8"?>
<!-- Generator: Adobe Illustrator 14.0.0, SVG Export Plug-In . SVG Version: 6.00 Build 43363)  -->
<!DOCTYPE svg PUBLIC "-//W3C//DTD SVG 1.1//EN" "http://www.w3.org/Graphics/SVG/1.1/DTD/svg11.dtd">
<svg version="1.1" id="图层_1" xmlns="http://www.w3.org/2000/svg" xmlns:xlink="http://www.w3.org/1999/xlink" x="0px" y="0px"
	 width="64px" height="64px" viewBox="0 0 64 64" enable-background="new 0 0 64 64" xml:space="preserve">
<g id="Blue">
	<line fill="none" stroke="#0000FF" x1="50.939" y1="11.563" x2="48.854" y2="20.909"/>
	<line fill="none" stroke="#0000FF" x1="46.05" y1="11.563" x2="43.821" y2="20.909"/>
	<line fill="none" stroke="#0000FF" x1="22.323" y1="11.563" x2="20.669" y2="20.909"/>
	<line fill="none" stroke="#0000FF" x1="17.29" y1="11.563" x2="15.061" y2="20.909"/>
	<line fill="none" stroke="#0000FF" x1="16.175" y1="16.236" x2="49.896" y2="16.236"/>
	<line fill="none" stroke="#0000FF" x1="32.46" y1="16.236" x2="32.46" y2="47.871"/>
	<line fill="none" stroke="#0000FF" x1="32.46" y1="47.871" x2="23.258" y2="62.396"/>
	<line fill="none" stroke="#0000FF" x1="32.46" y1="47.871" x2="41.77" y2="62.396"/>
	<line fill="none" stroke="#0000FF" x1="41.77" y1="62.396" x2="23.258" y2="62.396"/>
	<path fill="none" stroke="#0000FF" d="M16.175,7.5c0,0,16.285-8,33.721,0"/>
</g>
<g id="Red">
	<line fill="none" stroke="#FF0000" x1="50.939" y1="11.563" x2="48.854" y2="20.909"/>
	<line fill="none" stroke="#FF0000" x1="46.05" y1="11.563" x2="43.821" y2="20.909"/>
	<line fill="none" stroke="#FF0000" x1="22.323" y1="11.563" x2="20.669" y2="20.909"/>
	<line fill="none" stroke="#FF0000" x1="17.29" y1="11.563" x2="15.061" y2="20.909"/>
	<line fill="none" stroke="#FF0000" x1="16.175" y1="16.236" x2="49.896" y2="16.236"/>
	<line fill="none" stroke="#FF0000" x1="32.46" y1="16.236" x2="32.46" y2="47.871"/>
	<line fill="none" stroke="#FF0000" x1="32.46" y1="47.871" x2="23.258" y2="62.396"/>
	<line fill="none" stroke="#FF0000" x1="32.46" y1="47.871" x2="41.77" y2="62.396"/>
	<line fill="none" stroke="#FF0000" x1="41.77" y1="62.396" x2="23.258" y2="62.396"/>
	<path fill="none" stroke="#FF0000" d="M16.175,7.5c0,0,16.285-8,33.721,0"/>
</g>
<g id="White">
	<line fill="none" stroke="#00FF00" x1="50.939" y1="11.563" x2="48.854" y2="20.909"/>
	<line fill="none" stroke="#00FF00" x1="46.05" y1="11.563" x2="43.821" y2="20.909"/>
	<line fill="none" stroke="#00FF00" x1="22.323" y1="11.563" x2="20.669" y2="20.909"/>
	<line fill="none" stroke="#00FF00" x1="17.29" y1="11.563" x2="15.061" y2="20.909"/>
	<line fill="none" stroke="#00FF00" x1="16.175" y1="16.236" x2="49.896" y2="16.236"/>
	<line fill="none" stroke="#00FF00" x1="32.46" y1="16.236" x2="32.46" y2="47.871"/>
	<line fill="none" stroke="#00FF00" x1="32.46" y1="47.871" x2="23.258" y2="62.396"/>
	<line fill="none" stroke="#00FF00" x1="32.46" y1="47.871" x2="41.77" y2="62.396"/>
	<line fill="none" stroke="#00FF00" x1="41.77" y1="62.396" x2="23.258" y2="62.396"/>
	<path fill="none" stroke="#00FF00" d="M16.175,7.5c0,0,16.285-8,33.721,0"/>
</g>
</svg>
