<?xml version="1.0" encoding="utf-8"?>
<!-- Generator: Adobe Illustrator 14.0.0, SVG Export Plug-In . SVG Version: 6.00 Build 43363)  -->
<!DOCTYPE svg PUBLIC "-//W3C//DTD SVG 1.1//EN" "http://www.w3.org/Graphics/SVG/1.1/DTD/svg11.dtd">
<svg version="1.1" id="图层_1" xmlns="http://www.w3.org/2000/svg" xmlns:xlink="http://www.w3.org/1999/xlink" x="0px" y="0px"
	 width="64px" height="64px" viewBox="0 0 64 64" enable-background="new 0 0 64 64" xml:space="preserve">
<g id="Blue">
	<line fill="none" stroke="#0000FF" stroke-width="2" x1="32" y1="21.096" x2="32" y2="44.721"/>
	<rect x="22.792" y="44.721" fill="none" stroke="#0000FF" stroke-width="2" width="18.417" height="18.5"/>
	<path fill="none" stroke="#0000FF" stroke-width="2" d="M51.988,20.847c-5.543,5.588-14.564,5.626-20.154,0.085
		C26.246,15.391,26.208,6.369,31.75,0.78"/>
</g>
<g id="Red">
	<line fill="none" stroke="#FF0000" stroke-width="2" x1="32" y1="21.096" x2="32" y2="44.721"/>
	<rect x="22.792" y="44.721" fill="none" stroke="#FF0000" stroke-width="2" width="18.417" height="18.5"/>
	<path fill="none" stroke="#FF0000" stroke-width="2" d="M51.988,20.847c-5.543,5.588-14.564,5.626-20.154,0.085
		C26.246,15.391,26.208,6.369,31.75,0.78"/>
</g>
<g id="White">
	<line fill="none" stroke="#00FF00" stroke-width="2" x1="32" y1="21.096" x2="32" y2="44.721"/>
	<rect x="22.792" y="44.721" fill="none" stroke="#00FF00" stroke-width="2" width="18.417" height="18.5"/>
	<path fill="none" stroke="#00FF00" stroke-width="2" d="M51.988,20.847c-5.543,5.588-14.564,5.626-20.154,0.085
		C26.246,15.391,26.208,6.369,31.75,0.78"/>
</g>
</svg>
