<?xml version="1.0" encoding="utf-8"?>
<!-- Generator: Adobe Illustrator 14.0.0, SVG Export Plug-In . SVG Version: 6.00 Build 43363)  -->
<!DOCTYPE svg PUBLIC "-//W3C//DTD SVG 1.1//EN" "http://www.w3.org/Graphics/SVG/1.1/DTD/svg11.dtd">
<svg version="1.1" xmlns="http://www.w3.org/2000/svg" xmlns:xlink="http://www.w3.org/1999/xlink" x="0px" y="0px" width="64px"
	 height="64px" viewBox="0 0 64 64" enable-background="new 0 0 64 64" xml:space="preserve">
<g id="Blue">
	<polygon fill="none" stroke-width="2" stroke="#0000FF" points="11.5,55.625 17,62.375 6,62.375 11.5,55.625 11.375,21.5 11.375,1.916 11.375,1.916 
		52.125,1.916 52.125,21.5 11.375,21.5 	"/>
</g>
<g id="Red">
	<polygon fill="none" stroke-width="2" stroke="#FF0000" points="11.5,55.625 17,62.375 6,62.375 11.5,55.625 11.375,21.5 11.375,1.916 11.375,1.916 
		52.125,1.916 52.125,21.5 11.375,21.5 	"/>
</g>
<g id="White">
	<polygon fill="none" stroke-width="2" stroke="#00FF00" points="11.5,55.625 17,62.375 6,62.375 11.5,55.625 11.375,21.5 11.375,1.916 11.375,1.916 
		52.125,1.916 52.125,21.5 11.375,21.5 	"/>
</g>
<g id="图层_1_1_">
</g>
</svg>
