<?xml version="1.0" encoding="utf-8"?>
<!-- Generator: Adobe Illustrator 14.0.0, SVG Export Plug-In . SVG Version: 6.00 Build 43363)  -->
<!DOCTYPE svg PUBLIC "-//W3C//DTD SVG 1.1//EN" "http://www.w3.org/Graphics/SVG/1.1/DTD/svg11.dtd">
<svg version="1.1" id="图层_1" xmlns="http://www.w3.org/2000/svg" xmlns:xlink="http://www.w3.org/1999/xlink" x="0px" y="0px"
	 width="64px" height="64px" viewBox="0 0 64 64" enable-background="new 0 0 64 64" xml:space="preserve">
<g id="Blue">
	<line fill="none" stroke-width="2" stroke="#0000FF" x1="11.25" y1="11.75" x2="18.875" y2="11.75"/>
	<line fill="none" stroke-width="2" stroke="#0000FF" x1="22.125" y1="11.75" x2="31.375" y2="11.75"/>
	<line fill="none" stroke-width="2" stroke="#0000FF" x1="34.25" y1="11.75" x2="42.625" y2="11.75"/>
	<line fill="none" stroke-width="2" stroke="#0000FF" x1="44.875" y1="11.75" x2="51.359" y2="11.75"/>
	<line fill="none" stroke-width="2" stroke="#0000FF" x1="50.875" y1="11.75" x2="50.875" y2="19.75"/>
	<line fill="none" stroke-width="2" stroke="#0000FF" x1="50.875" y1="22.75" x2="50.875" y2="30.75"/>
	<line fill="none" stroke-width="2" stroke="#0000FF" x1="45.875" y1="30.75" x2="51.359" y2="30.75"/>
	<line fill="none" stroke-width="2" stroke="#0000FF" x1="43.75" y1="30.75" x2="34.25" y2="30.75"/>
	<line fill="none" stroke-width="2" stroke="#0000FF" x1="31.375" y1="30.75" x2="22.125" y2="30.75"/>
	<line fill="none" stroke-width="2" stroke="#0000FF" x1="19.5" y1="30.75" x2="11.75" y2="30.75"/>
	<line fill="none" stroke-width="2" stroke="#0000FF" x1="11.75" y1="11.75" x2="11.75" y2="63.125"/>
	<circle fill="#0000FF" cx="33.075" cy="5.167" r="3.813"/>
	<circle fill="#0000FF" cx="44.075" cy="5.167" r="3.813"/>
	<circle fill="#0000FF" cx="22.075" cy="5.167" r="3.813"/>
</g>
<g id="Red">
	<line fill="none" stroke-width="2" stroke="#FF0000" x1="11.25" y1="11.75" x2="18.875" y2="11.75"/>
	<line fill="none" stroke-width="2" stroke="#FF0000" x1="22.125" y1="11.75" x2="31.375" y2="11.75"/>
	<line fill="none" stroke-width="2" stroke="#FF0000" x1="34.25" y1="11.75" x2="42.625" y2="11.75"/>
	<line fill="none" stroke-width="2" stroke="#FF0000" x1="44.875" y1="11.75" x2="51.359" y2="11.75"/>
	<line fill="none" stroke-width="2" stroke="#FF0000" x1="50.875" y1="11.75" x2="50.875" y2="19.75"/>
	<line fill="none" stroke-width="2" stroke="#FF0000" x1="50.875" y1="22.75" x2="50.875" y2="30.75"/>
	<line fill="none" stroke-width="2" stroke="#FF0000" x1="45.875" y1="30.75" x2="51.359" y2="30.75"/>
	<line fill="none" stroke-width="2" stroke="#FF0000" x1="43.75" y1="30.75" x2="34.25" y2="30.75"/>
	<line fill="none" stroke-width="2" stroke="#FF0000" x1="31.375" y1="30.75" x2="22.125" y2="30.75"/>
	<line fill="none" stroke-width="2" stroke="#FF0000" x1="19.5" y1="30.75" x2="11.75" y2="30.75"/>
	<line fill="none" stroke-width="2" stroke="#FF0000" x1="11.75" y1="11.75" x2="11.75" y2="63.125"/>
	<circle fill="#FF0000" cx="33.075" cy="5.167" r="3.813"/>
	<circle fill="#FF0000" cx="44.075" cy="5.167" r="3.813"/>
	<circle fill="#FF0000" cx="22.075" cy="5.167" r="3.813"/>
</g>
<g id="White">
	<line fill="none" stroke-width="2" stroke="#00FF00" x1="11.25" y1="11.75" x2="18.875" y2="11.75"/>
	<line fill="none" stroke-width="2" stroke="#00FF00" x1="22.125" y1="11.75" x2="31.375" y2="11.75"/>
	<line fill="none" stroke-width="2" stroke="#00FF00" x1="34.25" y1="11.75" x2="42.625" y2="11.75"/>
	<line fill="none" stroke-width="2" stroke="#00FF00" x1="44.875" y1="11.75" x2="51.359" y2="11.75"/>
	<line fill="none" stroke-width="2" stroke="#00FF00" x1="50.875" y1="11.75" x2="50.875" y2="19.75"/>
	<line fill="none" stroke-width="2" stroke="#00FF00" x1="50.875" y1="22.75" x2="50.875" y2="30.75"/>
	<line fill="none" stroke-width="2" stroke="#00FF00" x1="45.875" y1="30.75" x2="51.359" y2="30.75"/>
	<line fill="none" stroke-width="2" stroke="#00FF00" x1="43.75" y1="30.75" x2="34.25" y2="30.75"/>
	<line fill="none" stroke-width="2" stroke="#00FF00" x1="31.375" y1="30.75" x2="22.125" y2="30.75"/>
	<line fill="none" stroke-width="2" stroke="#00FF00" x1="19.5" y1="30.75" x2="11.75" y2="30.75"/>
	<line fill="none" stroke-width="2" stroke="#00FF00" x1="11.75" y1="11.75" x2="11.75" y2="63.125"/>
	<circle fill="#00FF00" cx="33.075" cy="5.167" r="3.813"/>
	<circle fill="#00FF00" cx="44.075" cy="5.167" r="3.813"/>
	<circle fill="#00FF00" cx="22.075" cy="5.167" r="3.813"/>
</g>
</svg>
