<?xml version="1.0" encoding="utf-8"?>
<!-- Generator: Adobe Illustrator 14.0.0, SVG Export Plug-In . SVG Version: 6.00 Build 43363)  -->
<!DOCTYPE svg PUBLIC "-//W3C//DTD SVG 1.1//EN" "http://www.w3.org/Graphics/SVG/1.1/DTD/svg11.dtd">
<svg version="1.1" id="图层_1" xmlns="http://www.w3.org/2000/svg" xmlns:xlink="http://www.w3.org/1999/xlink" x="0px" y="0px"
	 width="64px" height="64px" viewBox="0 0 64 64" enable-background="new 0 0 64 64" xml:space="preserve">
<g id="Blue">
	<path fill="none" stroke="#0000FF" stroke-width="2" d="M36.5,2.875c0,0,9,0.25,16.5,7.75c0,0,8.875,8.875,9.25,17.875"/>
	<path fill="none" stroke="#0000FF" stroke-width="2" d="M62.25,36.375c0,0-0.375,8.875-7.75,16.375c0,0-5.75,7.5-18,9.375"/>
	<path fill="none" stroke="#0000FF" stroke-width="2" d="M28.75,62.125c0,0-9.625-1.125-17.25-8.625c0,0-6.875-5.75-8.125-17.125"/>
	<path fill="none" stroke="#0000FF" stroke-width="2" d="M3.375,28.5c0,0,2.375-11.5,8.25-17c0,0,7.125-7.875,17.125-8.625"/>
</g>
<g id="Red">
	<path fill="none" stroke="#FF0000" stroke-width="2" d="M36.5,2.875c0,0,9,0.25,16.5,7.75c0,0,8.875,8.875,9.25,17.875"/>
	<path fill="none" stroke="#FF0000" stroke-width="2" d="M62.25,36.375c0,0-0.375,8.875-7.75,16.375c0,0-5.75,7.5-18,9.375"/>
	<path fill="none" stroke="#FF0000" stroke-width="2" d="M28.75,62.125c0,0-9.625-1.125-17.25-8.625c0,0-6.875-5.75-8.125-17.125"/>
	<path fill="none" stroke="#FF0000" stroke-width="2" d="M3.375,28.5c0,0,2.375-11.5,8.25-17c0,0,7.125-7.875,17.125-8.625"/>
</g>
<g id="White">
	<path fill="none" stroke="#00FF00" stroke-width="2" d="M36.5,2.875c0,0,9,0.25,16.5,7.75c0,0,8.875,8.875,9.25,17.875"/>
	<path fill="none" stroke="#00FF00" stroke-width="2" d="M62.25,36.375c0,0-0.375,8.875-7.75,16.375c0,0-5.75,7.5-18,9.375"/>
	<path fill="none" stroke="#00FF00" stroke-width="2" d="M28.75,62.125c0,0-9.625-1.125-17.25-8.625c0,0-6.875-5.75-8.125-17.125"/>
	<path fill="none" stroke="#00FF00" stroke-width="2" d="M3.375,28.5c0,0,2.375-11.5,8.25-17c0,0,7.125-7.875,17.125-8.625"/>
</g>
</svg>
