<?xml version="1.0" encoding="utf-8"?>
<!-- Generator: Adobe Illustrator 14.0.0, SVG Export Plug-In . SVG Version: 6.00 Build 43363)  -->
<!DOCTYPE svg PUBLIC "-//W3C//DTD SVG 1.1//EN" "http://www.w3.org/Graphics/SVG/1.1/DTD/svg11.dtd">
<svg version="1.1" id="图层_1" xmlns="http://www.w3.org/2000/svg" xmlns:xlink="http://www.w3.org/1999/xlink" x="0px" y="0px"
	 width="64px" height="64px" viewBox="0 0 64 64" enable-background="new 0 0 64 64" xml:space="preserve">
<g id="Blue">
	<rect x="1.75" y="1.75" fill="none" stroke="#0000FF" stroke-width="2" width="60.375" height="60.375"/>
	<line fill="none" stroke="#0000FF" stroke-width="2" x1="62.125" y1="1.75" x2="1.75" y2="62.125"/>
	<line fill="none" stroke="#0000FF" stroke-width="2" x1="62.125" y1="13.25" x2="13.25" y2="62.125"/>
	<line fill="none" stroke="#0000FF" stroke-width="2" x1="62.125" y1="24.75" x2="48.5" y2="38.375"/>
	<line fill="none" stroke="#0000FF" stroke-width="2" x1="36.25" y1="50.625" x2="24.75" y2="62.125"/>
	<line fill="none" stroke="#0000FF" stroke-width="2" x1="62.125" y1="36.25" x2="36.25" y2="62.125"/>
	<line fill="none" stroke="#0000FF" stroke-width="2" x1="62.125" y1="48.125" x2="47.965" y2="62.125"/>
	<line fill="none" stroke="#0000FF" stroke-width="2" x1="16.25" y1="1.75" x2="1.75" y2="16.25"/>
	<line fill="none" stroke="#0000FF" stroke-width="2" x1="27.75" y1="1.75" x2="1.75" y2="27.75"/>
	<line fill="none" stroke="#0000FF" stroke-width="2" x1="39.25" y1="1.75" x2="1.75" y2="39.25"/>
	<line fill="none" stroke="#0000FF" stroke-width="2" x1="50.75" y1="1.75" x2="1.75" y2="51.25"/>
	<text transform="matrix(1 0 0 1 36.8545 48.125)" fill="#0000FF" font-family="'NSimSun'" font-size="12">封</text>
</g>
<g id="Red">
	<rect x="1.75" y="1.75" fill="none" stroke="#FF0000" stroke-width="2" width="60.375" height="60.375"/>
	<line fill="none" stroke="#FF0000" stroke-width="2" x1="62.125" y1="1.75" x2="1.75" y2="62.125"/>
	<line fill="none" stroke="#FF0000" stroke-width="2" x1="62.125" y1="13.25" x2="13.25" y2="62.125"/>
	<line fill="none" stroke="#FF0000" stroke-width="2" x1="62.125" y1="24.75" x2="48.5" y2="38.375"/>
	<line fill="none" stroke="#FF0000" stroke-width="2" x1="36.25" y1="50.625" x2="24.75" y2="62.125"/>
	<line fill="none" stroke="#FF0000" stroke-width="2" x1="62.125" y1="36.25" x2="36.25" y2="62.125"/>
	<line fill="none" stroke="#FF0000" stroke-width="2" x1="62.125" y1="48.125" x2="47.965" y2="62.125"/>
	<line fill="none" stroke="#FF0000" stroke-width="2" x1="16.25" y1="1.75" x2="1.75" y2="16.25"/>
	<line fill="none" stroke="#FF0000" stroke-width="2" x1="27.75" y1="1.75" x2="1.75" y2="27.75"/>
	<line fill="none" stroke="#FF0000" stroke-width="2" x1="39.25" y1="1.75" x2="1.75" y2="39.25"/>
	<line fill="none" stroke="#FF0000" stroke-width="2" x1="50.75" y1="1.75" x2="1.75" y2="51.25"/>
	<text transform="matrix(1 0 0 1 36.8545 48.125)" fill="#FF0000" font-family="'NSimSun'" font-size="12">封</text>
</g>
<g id="White">
	<rect x="1.75" y="1.75" fill="none" stroke="#00FF00" stroke-width="2" width="60.375" height="60.375"/>
	<line fill="none" stroke="#00FF00" stroke-width="2" x1="62.125" y1="1.75" x2="1.75" y2="62.125"/>
	<line fill="none" stroke="#00FF00" stroke-width="2" x1="62.125" y1="13.25" x2="13.25" y2="62.125"/>
	<line fill="none" stroke="#00FF00" stroke-width="2" x1="36.25" y1="50.625" x2="24.75" y2="62.125"/>
	<line fill="none" stroke="#00FF00" stroke-width="2" x1="62.125" y1="24.75" x2="48.5" y2="38.375"/>
	<line fill="none" stroke="#00FF00" stroke-width="2" x1="62.125" y1="36.25" x2="36.25" y2="62.125"/>
	<line fill="none" stroke="#00FF00" stroke-width="2" x1="62.125" y1="48.125" x2="47.965" y2="62.125"/>
	<line fill="none" stroke="#00FF00" stroke-width="2" x1="16.25" y1="1.75" x2="1.75" y2="16.25"/>
	<line fill="none" stroke="#00FF00" stroke-width="2" x1="27.75" y1="1.75" x2="1.75" y2="27.75"/>
	<line fill="none" stroke="#00FF00" stroke-width="2" x1="39.25" y1="1.75" x2="1.75" y2="39.25"/>
	<line fill="none" stroke="#00FF00" stroke-width="2" x1="50.75" y1="1.75" x2="1.75" y2="51.25"/>
	<text transform="matrix(1 0 0 1 36.8545 48.125)" fill="#00FF00" font-family="'NSimSun'" font-size="12">封</text>
</g>
</svg>
