<?xml version="1.0" encoding="utf-8"?>
<!-- Generator: Adobe Illustrator 14.0.0, SVG Export Plug-In . SVG Version: 6.00 Build 43363)  -->
<!DOCTYPE svg PUBLIC "-//W3C//DTD SVG 1.1//EN" "http://www.w3.org/Graphics/SVG/1.1/DTD/svg11.dtd">
<svg version="1.1" id="图层_1" xmlns="http://www.w3.org/2000/svg" xmlns:xlink="http://www.w3.org/1999/xlink" x="0px" y="0px"
	 width="64px" height="64px" viewBox="0 0 64 64" enable-background="new 0 0 64 64" xml:space="preserve">
<g id="Blue">
	<path fill="none" stroke="#0000FF" stroke-width="2" d="M1.833,25.667c0,0,9.917-13.167,30.583-13.167
		c0,0,17.667-0.5,30.083,13.167"/>
	<path fill="none" stroke="#0000FF" stroke-width="2" d="M12.622,37.313c0,0,6.604-8.769,20.366-8.769
		c0,0,11.766-0.333,20.034,8.769"/>
	<line fill="none" stroke="#0000FF" stroke-width="2" x1="21.333" y1="50.667" x2="33.167" y2="50.667"/>
	<line fill="none" stroke="#0000FF" stroke-width="2" x1="24" y1="50.667" x2="24" y2="35.417"/>
	<line fill="none" stroke="#0000FF" stroke-width="2" x1="24" y1="35.417" x2="30.333" y2="35.417"/>
	<line fill="none" stroke="#0000FF" stroke-width="2" x1="30.333" y1="35.417" x2="30.333" y2="50.667"/>
	<line fill="none" stroke="#0000FF" stroke-width="2" x1="24" y1="35.417" x2="27.25" y2="31.25"/>
	<line fill="none" stroke="#0000FF" stroke-width="2" x1="27.25" y1="31.25" x2="30.333" y2="35.417"/>
	<line fill="none" stroke="#000100" stroke-width="2" x1="21.333" y1="44.667" x2="4.667" y2="44.667"/>
	<line fill="none" stroke="#0000FF" stroke-width="2" x1="32" y1="45.667" x2="40.178" y2="22.405"/>
	<path fill="none" stroke="#FFFF00" d="M1.833,26.478c0,0,9.917-13.167,30.583-13.167c0,0,17.667-0.5,30.083,13.167"/>
	<line fill="none" stroke="#FFFF00" x1="21.333" y1="51.167" x2="33.167" y2="51.167"/>
	<line fill="none" stroke="#FFFF00" x1="31.505" y1="45.667" x2="39.683" y2="22.405"/>
	<polygon fill="#0000FF" points="37.825,29.041 33.363,35.562 35.917,34.75 37.229,36.896 	"/>
	<polygon fill="#0000FF" points="42.086,16.696 37.624,23.216 40.178,22.405 41.49,24.55 	"/>
</g>
<g id="Red">
	<path fill="none" stroke="#FF0000" stroke-width="2" d="M1.833,25.667c0,0,9.917-13.167,30.583-13.167
		c0,0,17.667-0.5,30.083,13.167"/>
	<path fill="none" stroke="#FF0000" stroke-width="2" d="M12.622,37.313c0,0,6.604-8.769,20.366-8.769
		c0,0,11.766-0.333,20.034,8.769"/>
	<line fill="none" stroke="#FF0000" stroke-width="2" x1="21.333" y1="50.667" x2="33.167" y2="50.667"/>
	<line fill="none" stroke="#FF0000" stroke-width="2" x1="24" y1="50.667" x2="24" y2="35.417"/>
	<line fill="none" stroke="#FF0000" stroke-width="2" x1="24" y1="35.417" x2="30.333" y2="35.417"/>
	<line fill="none" stroke="#FF0000" stroke-width="2" x1="30.333" y1="35.417" x2="30.333" y2="50.667"/>
	<line fill="none" stroke="#FF0000" stroke-width="2" x1="24" y1="35.417" x2="27.25" y2="31.25"/>
	<line fill="none" stroke="#FF0000" stroke-width="2" x1="27.25" y1="31.25" x2="30.333" y2="35.417"/>
	<line fill="none" stroke="#000100" stroke-width="2" x1="21.333" y1="44.667" x2="4.667" y2="44.667"/>
	<line fill="none" stroke="#FF0000" stroke-width="2" x1="32" y1="45.667" x2="40.178" y2="22.405"/>
	<path fill="none" stroke="#FFFF00" d="M1.833,26.478c0,0,9.917-13.167,30.583-13.167c0,0,17.667-0.5,30.083,13.167"/>
	<line fill="none" stroke="#FFFF00" x1="21.333" y1="51.167" x2="33.167" y2="51.167"/>
	<line fill="none" stroke="#FFFF00" x1="31.505" y1="45.667" x2="39.683" y2="22.405"/>
	<polygon fill="#FF0000" points="37.825,29.041 33.363,35.562 35.917,34.75 37.229,36.896 	"/>
	<polygon fill="#FF0000" points="42.086,16.696 37.624,23.216 40.178,22.405 41.49,24.55 	"/>
</g>
<g id="White">
	<path fill="none" stroke="#00FF00" stroke-width="2" d="M1.833,25.667c0,0,9.917-13.167,30.583-13.167
		c0,0,17.667-0.5,30.083,13.167"/>
	<path fill="none" stroke="#00FF00" stroke-width="2" d="M12.622,37.313c0,0,6.604-8.769,20.366-8.769
		c0,0,11.766-0.333,20.034,8.769"/>
	<line fill="none" stroke="#00FF00" stroke-width="2" x1="21.333" y1="50.667" x2="33.167" y2="50.667"/>
	<line fill="none" stroke="#00FF00" stroke-width="2" x1="24" y1="50.667" x2="24" y2="35.417"/>
	<line fill="none" stroke="#00FF00" stroke-width="2" x1="24" y1="35.417" x2="30.333" y2="35.417"/>
	<line fill="none" stroke="#00FF00" stroke-width="2" x1="30.333" y1="35.417" x2="30.333" y2="50.667"/>
	<line fill="none" stroke="#00FF00" stroke-width="2" x1="24" y1="35.417" x2="27.25" y2="31.25"/>
	<line fill="none" stroke="#00FF00" stroke-width="2" x1="27.25" y1="31.25" x2="30.333" y2="35.417"/>
	<line fill="none" stroke="#000100" stroke-width="2" x1="21.333" y1="44.667" x2="4.667" y2="44.667"/>
	<line fill="none" stroke="#00FF00" stroke-width="2" x1="32" y1="45.667" x2="40.178" y2="22.405"/>
	<path fill="none" stroke="#FFFF00" d="M1.833,26.478c0,0,9.917-13.167,30.583-13.167c0,0,17.667-0.5,30.083,13.167"/>
	<line fill="none" stroke="#FFFF00" x1="21.333" y1="51.167" x2="33.167" y2="51.167"/>
	<line fill="none" stroke="#FFFF00" x1="31.505" y1="45.667" x2="39.683" y2="22.405"/>
	<polygon fill="#00FF00" points="37.825,29.041 33.363,35.562 35.917,34.75 37.229,36.896 	"/>
	<polygon fill="#00FF00" points="42.086,16.696 37.624,23.216 40.178,22.405 41.49,24.55 	"/>
</g>
</svg>
