<?xml version="1.0" encoding="utf-8"?>
<!-- Generator: Adobe Illustrator 14.0.0, SVG Export Plug-In . SVG Version: 6.00 Build 43363)  -->
<!DOCTYPE svg PUBLIC "-//W3C//DTD SVG 1.1//EN" "http://www.w3.org/Graphics/SVG/1.1/DTD/svg11.dtd">
<svg version="1.1" id="图层_1" xmlns="http://www.w3.org/2000/svg" xmlns:xlink="http://www.w3.org/1999/xlink" x="0px" y="0px"
	 width="64px" height="64px" viewBox="0 0 64 64" enable-background="new 0 0 64 64" xml:space="preserve">
<g id="Blue">
	<path fill="none" stroke="#0000FF" stroke-width="2" d="M46.75,15.917c0,0-26.083,22.25-32.917,36.75"/>
	<path fill="none" stroke="#0000FF" stroke-width="2" d="M1.25,39.5c0,0,23.409-19,44.375-25.625"/>
	<line fill="none" stroke="#0000FF" stroke-width="2" x1="9" y1="36.417" x2="16.5" y2="44.501"/>
	<line fill="none" stroke="#0000FF" stroke-width="2" x1="14.978" y1="42.859" x2="24.333" y2="33.417"/>
	<line fill="none" stroke="#0000FF" stroke-width="2" x1="24.333" y1="33.417" x2="19.656" y2="29"/>
	<line fill="none" stroke="#0000FF" stroke-width="2" x1="19.656" y1="29" x2="10.597" y2="38.139"/>
	<line fill="none" stroke="#0000FF" stroke-width="2" x1="17.172" y1="31.506" x2="21.597" y2="36.18"/>
	<line fill="none" stroke="#0000FF" stroke-width="2" x1="18.942" y1="38.859" x2="14.393" y2="34.311"/>
	<polygon fill="#0000FF" points="18.942,28.292 25.292,34.311 25.542,30.486 25.875,26.663 	"/>
	<line fill="none" stroke="#000001" stroke-width="2" x1="1.25" y1="59" x2="48.167" y2="59"/>
	<line fill="none" stroke="#0000FF" stroke-width="2" x1="45.625" y1="13.875" x2="34.25" y2="13.875"/>
	<line fill="none" stroke="#0000FF" stroke-width="2" x1="34.25" y1="13.875" x2="61" y2="4"/>
	<line fill="none" stroke="#0000FF" stroke-width="2" x1="61" y1="4" x2="44.75" y2="25.625"/>
	<line fill="none" stroke="#0000FF" stroke-width="2" x1="44.75" y1="25.625" x2="46.75" y2="15.917"/>
</g>
<g id="Red">
	<path fill="none" stroke="#FF0000" stroke-width="2" d="M46.75,15.917c0,0-26.083,22.25-32.917,36.75"/>
	<path fill="none" stroke="#FF0000" stroke-width="2" d="M1.25,39.5c0,0,23.409-19,44.375-25.625"/>
	<line fill="none" stroke="#FF0000" stroke-width="2" x1="9" y1="36.417" x2="16.5" y2="44.501"/>
	<line fill="none" stroke="#FF0000" stroke-width="2" x1="14.978" y1="42.859" x2="24.333" y2="33.417"/>
	<line fill="none" stroke="#FF0000" stroke-width="2" x1="24.333" y1="33.417" x2="19.656" y2="29"/>
	<line fill="none" stroke="#FF0000" stroke-width="2" x1="19.656" y1="29" x2="10.597" y2="38.139"/>
	<line fill="none" stroke="#FF0000" stroke-width="2" x1="17.172" y1="31.506" x2="21.597" y2="36.18"/>
	<line fill="none" stroke="#FF0000" stroke-width="2" x1="18.942" y1="38.859" x2="14.393" y2="34.311"/>
	<polygon fill="#FF0000" points="18.942,28.292 25.292,34.311 25.542,30.486 25.875,26.663 	"/>
	<line fill="none" stroke="#000001" stroke-width="2" x1="1.25" y1="59" x2="48.167" y2="59"/>
	<line fill="none" stroke="#FF0000" stroke-width="2" x1="45.625" y1="13.875" x2="34.25" y2="13.875"/>
	<line fill="none" stroke="#FF0000" stroke-width="2" x1="34.25" y1="13.875" x2="61" y2="4"/>
	<line fill="none" stroke="#FF0000" stroke-width="2" x1="61" y1="4" x2="44.75" y2="25.625"/>
	<line fill="none" stroke="#FF0000" stroke-width="2" x1="44.75" y1="25.625" x2="46.75" y2="15.917"/>
</g>
<g id="White">
	<path fill="none" stroke="#00FF00" stroke-width="2" d="M46.75,15.917c0,0-26.083,22.25-32.917,36.75"/>
	<path fill="none" stroke="#00FF00" stroke-width="2" d="M1.25,39.5c0,0,23.409-19,44.375-25.625"/>
	<line fill="none" stroke="#00FF00" stroke-width="2" x1="9" y1="36.417" x2="16.5" y2="44.501"/>
	<line fill="none" stroke="#00FF00" stroke-width="2" x1="14.978" y1="42.859" x2="24.333" y2="33.417"/>
	<line fill="none" stroke="#00FF00" stroke-width="2" x1="24.333" y1="33.417" x2="19.656" y2="29"/>
	<line fill="none" stroke="#00FF00" stroke-width="2" x1="19.656" y1="29" x2="10.597" y2="38.139"/>
	<line fill="none" stroke="#00FF00" stroke-width="2" x1="17.172" y1="31.506" x2="21.597" y2="36.18"/>
	<line fill="none" stroke="#00FF00" stroke-width="2" x1="18.942" y1="38.859" x2="14.393" y2="34.311"/>
	<polygon fill="#00FF00" points="18.942,28.292 25.292,34.311 25.542,30.486 25.875,26.663 	"/>
	<line fill="none" stroke="#000001" stroke-width="2" x1="1.25" y1="59" x2="48.167" y2="59"/>
	<line fill="none" stroke="#00FF00" stroke-width="2" x1="45.625" y1="13.875" x2="34.25" y2="13.875"/>
	<line fill="none" stroke="#00FF00" stroke-width="2" x1="34.25" y1="13.875" x2="61" y2="4"/>
	<line fill="none" stroke="#00FF00" stroke-width="2" x1="61" y1="4" x2="44.75" y2="25.625"/>
	<line fill="none" stroke="#00FF00" stroke-width="2" x1="44.75" y1="25.625" x2="46.75" y2="15.917"/>
</g>
</svg>
