<?xml version="1.0" encoding="utf-8"?>
<!-- Generator: Adobe Illustrator 14.0.0, SVG Export Plug-In . SVG Version: 6.00 Build 43363)  -->
<!DOCTYPE svg PUBLIC "-//W3C//DTD SVG 1.1//EN" "http://www.w3.org/Graphics/SVG/1.1/DTD/svg11.dtd">
<svg version="1.1" id="图层_1" xmlns="http://www.w3.org/2000/svg" xmlns:xlink="http://www.w3.org/1999/xlink" x="0px" y="0px"
	 width="64px" height="64px" viewBox="0 0 64 64" enable-background="new 0 0 64 64" xml:space="preserve">
<g id="Blue">
	<rect x="1.75" y="1.75" fill="none" stroke="#0000FF" stroke-width="2" width="60.375" height="60.375"/>
	<polygon fill="none" stroke="#0000FF" stroke-width="2" points="17.016,50.625 13.636,36.069 9.25,17.375 24.781,17.375 	"/>
	<polygon fill="none" stroke="#0000FF" stroke-width="2" points="32.547,50.625 29.167,36.069 24.781,17.375 40.313,17.375 	"/>
	<polygon fill="none" stroke="#0000FF" stroke-width="2" points="48.078,50.625 44.698,36.069 40.313,17.375 55.844,17.375 	"/>
</g>
<g id="Red">
	<rect x="1.75" y="1.75" fill="none" stroke="#FF0000" stroke-width="2" width="60.375" height="60.375"/>
	<polygon fill="none" stroke="#FF0000" stroke-width="2" points="17.016,50.625 13.636,36.069 9.25,17.375 24.781,17.375 	"/>
	<polygon fill="none" stroke="#FF0000" stroke-width="2" points="32.547,50.625 29.167,36.069 24.781,17.375 40.313,17.375 	"/>
	<polygon fill="none" stroke="#FF0000" stroke-width="2" points="48.078,50.625 44.698,36.069 40.313,17.375 55.844,17.375 	"/>
</g>
<g id="White">
	<rect x="1.75" y="1.75" fill="none" stroke="#00FF00" stroke-width="2" width="60.375" height="60.375"/>
	<polygon fill="none" stroke="#00FF00" stroke-width="2" points="17.016,50.625 13.636,36.069 9.25,17.375 24.781,17.375 	"/>
	<polygon fill="none" stroke="#00FF00" stroke-width="2" points="32.547,50.625 29.167,36.069 24.781,17.375 40.313,17.375 	"/>
	<polygon fill="none" stroke="#00FF00" stroke-width="2" points="48.078,50.625 44.698,36.069 40.313,17.375 55.844,17.375 	"/>
</g>
</svg>
