<?xml version="1.0" encoding="utf-8"?>
<!-- Generator: Adobe Illustrator 14.0.0, SVG Export Plug-In . SVG Version: 6.00 Build 43363)  -->
<!DOCTYPE svg PUBLIC "-//W3C//DTD SVG 1.1//EN" "http://www.w3.org/Graphics/SVG/1.1/DTD/svg11.dtd">
<svg version="1.1" id="图层_1" xmlns="http://www.w3.org/2000/svg" xmlns:xlink="http://www.w3.org/1999/xlink" x="0px" y="0px"
	 width="64px" height="64px" viewBox="0 0 64 64" enable-background="new 0 0 64 64" xml:space="preserve">
<g id="Blue">
	<ellipse fill="none" stroke="#0000FF" cx="31.833" cy="32.875" rx="30.583" ry="12.875"/>
	<line fill="none" stroke="#0000FF" x1="18.167" y1="32" x2="45.833" y2="32"/>
	<path fill="none" stroke="#0000FF" d="M13.75,27c2.715,0,4.917,2.201,4.917,4.916c0,2.716-2.201,4.917-4.917,4.917"/>
	<path fill="none" stroke="#0000FF" d="M50.666,27c-2.715,0-4.916,2.201-4.916,4.916c0,2.716,2.201,4.917,4.916,4.917"/>
</g>
<g id="Red">
	<ellipse fill="none" stroke="#FF0000" cx="31.833" cy="32.875" rx="30.583" ry="12.875"/>
	<line fill="none" stroke="#FF0000" x1="18.167" y1="32" x2="45.833" y2="32"/>
	<path fill="none" stroke="#FF0000" d="M13.75,27c2.715,0,4.917,2.201,4.917,4.916c0,2.716-2.201,4.917-4.917,4.917"/>
	<path fill="none" stroke="#FF0000" d="M50.666,27c-2.715,0-4.916,2.201-4.916,4.916c0,2.716,2.201,4.917,4.916,4.917"/>
</g>
<g id="White">
	<ellipse fill="none" stroke="#00FF00" cx="31.833" cy="32.875" rx="30.583" ry="12.875"/>
	<line fill="none" stroke="#00FF00" x1="18.167" y1="32" x2="45.833" y2="32"/>
	<path fill="none" stroke="#00FF00" d="M13.75,27c2.715,0,4.917,2.201,4.917,4.916c0,2.716-2.201,4.917-4.917,4.917"/>
	<path fill="none" stroke="#00FF00" d="M50.666,27c-2.715,0-4.916,2.201-4.916,4.916c0,2.716,2.201,4.917,4.916,4.917"/>
</g>
</svg>
