<?xml version="1.0" encoding="utf-8"?>
<!-- Generator: Adobe Illustrator 14.0.0, SVG Export Plug-In . SVG Version: 6.00 Build 43363)  -->
<!DOCTYPE svg PUBLIC "-//W3C//DTD SVG 1.1//EN" "http://www.w3.org/Graphics/SVG/1.1/DTD/svg11.dtd">
<svg version="1.1" id="图层_1" xmlns="http://www.w3.org/2000/svg" xmlns:xlink="http://www.w3.org/1999/xlink" x="0px" y="0px"
	 width="64px" height="64px" viewBox="0 0 64 64" enable-background="new 0 0 64 64" xml:space="preserve">
<g id="Blue">
	<line fill="none" stroke="#0000FF" x1="19.667" y1="20" x2="62.167" y2="20"/>
	<line fill="none" stroke="#0000FF" x1="62.167" y1="20" x2="62.167" y2="40.834"/>
	<line fill="none" stroke="#0000FF" x1="62.167" y1="40.834" x2="19.667" y2="40.834"/>
	<polygon fill="#0000FF" points="19.667,20 2,30.417 19.667,40.834 19.667,24.188 	"/>
	<polygon fill="none" stroke="#0000FF" points="41,34.833 30.167,30.417 40.787,24.833 51.834,29.333 	"/>
</g>
<g id="Red">
	<line fill="none" stroke="#FF0000" x1="19.667" y1="20" x2="62.167" y2="20"/>
	<line fill="none" stroke="#FF0000" x1="62.167" y1="20" x2="62.167" y2="40.834"/>
	<line fill="none" stroke="#FF0000" x1="62.167" y1="40.834" x2="19.667" y2="40.834"/>
	<polygon fill="#FF0000" points="19.667,20 2,30.417 19.667,40.834 19.667,24.188 	"/>
	<polygon fill="none" stroke="#FF0000" points="41,34.833 30.167,30.417 40.787,24.833 51.834,29.333 	"/>
</g>
<g id="White">
	<line fill="none" stroke="#00FF00" x1="19.667" y1="20" x2="62.167" y2="20"/>
	<line fill="none" stroke="#00FF00" x1="62.167" y1="20" x2="62.167" y2="40.834"/>
	<line fill="none" stroke="#00FF00" x1="62.167" y1="40.834" x2="19.667" y2="40.834"/>
	<polygon fill="#00FF00" points="19.667,20 2,30.417 19.667,40.834 19.667,24.188 	"/>
	<polygon fill="none" stroke="#00FF00" points="41,34.833 30.167,30.417 40.787,24.833 51.834,29.333 	"/>
</g>
</svg>
