<?xml version="1.0" encoding="utf-8"?>
<!-- Generator: Adobe Illustrator 14.0.0, SVG Export Plug-In . SVG Version: 6.00 Build 43363)  -->
<!DOCTYPE svg PUBLIC "-//W3C//DTD SVG 1.1//EN" "http://www.w3.org/Graphics/SVG/1.1/DTD/svg11.dtd">
<svg version="1.1" id="图层_1" xmlns="http://www.w3.org/2000/svg" xmlns:xlink="http://www.w3.org/1999/xlink" x="0px" y="0px"
	 width="64px" height="64px" viewBox="0 0 64 64" enable-background="new 0 0 64 64" xml:space="preserve">
<g id="Blue">
	<line fill="none" stroke="#0000FF" x1="42.5" y1="21.5" x2="2.083" y2="21.5"/>
	<line fill="none" stroke="#0000FF" x1="2.083" y1="21.5" x2="2.083" y2="41.333"/>
	<line fill="none" stroke="#0000FF" x1="2.083" y1="41.333" x2="42.5" y2="41.333"/>
	<polygon fill="#0000FF" points="61.667,41.333 42.5,41.333 42.5,30.333 42.5,21.5 	"/>
	<line fill="none" stroke="#0000FF" x1="33.584" y1="31.417" x2="33.584" y2="28.083"/>
	<line fill="none" stroke="#0000FF" x1="33.584" y1="31.417" x2="15.583" y2="31.417"/>
	<polygon fill="#0000FF" points="15.483,31.417 18.583,33.875 8.333,31.417 18.583,28.958 	"/>
</g>
<g id="Red">
	<line fill="none" stroke="#FF0000" x1="42.5" y1="21.5" x2="2.083" y2="21.5"/>
	<line fill="none" stroke="#FF0000" x1="2.083" y1="21.5" x2="2.083" y2="41.333"/>
	<line fill="none" stroke="#FF0000" x1="2.083" y1="41.333" x2="42.5" y2="41.333"/>
	<polygon fill="#FF0000" points="61.667,41.333 42.5,41.333 42.5,30.333 42.5,21.5 	"/>
	<line fill="none" stroke="#FF0000" x1="33.584" y1="31.417" x2="33.584" y2="28.083"/>
	<line fill="none" stroke="#FF0000" x1="33.584" y1="31.417" x2="15.583" y2="31.417"/>
	<polygon fill="#FF0000" points="15.483,31.417 18.583,33.875 8.333,31.417 18.583,28.958 	"/>
</g>
<g id="White">
	<line fill="none" stroke="#00FF00" x1="42.5" y1="21.5" x2="2.083" y2="21.5"/>
	<line fill="none" stroke="#00FF00" x1="2.083" y1="21.5" x2="2.083" y2="41.333"/>
	<line fill="none" stroke="#00FF00" x1="2.083" y1="41.333" x2="42.5" y2="41.333"/>
	<polygon fill="#00FF00" points="61.667,41.333 42.5,41.333 42.5,30.333 42.5,21.5 	"/>
	<line fill="none" stroke="#00FF00" x1="33.584" y1="31.417" x2="33.584" y2="28.083"/>
	<line fill="none" stroke="#00FF00" x1="33.584" y1="31.417" x2="15.583" y2="31.417"/>
	<polygon fill="#00FF00" points="15.483,31.417 18.583,33.875 8.333,31.417 18.583,28.958 	"/>
</g>
</svg>
