<?xml version="1.0" encoding="utf-8"?>
<!-- Generator: Adobe Illustrator 14.0.0, SVG Export Plug-In . SVG Version: 6.00 Build 43363)  -->
<!DOCTYPE svg PUBLIC "-//W3C//DTD SVG 1.1//EN" "http://www.w3.org/Graphics/SVG/1.1/DTD/svg11.dtd">
<svg version="1.1" id="图层_1" xmlns="http://www.w3.org/2000/svg" xmlns:xlink="http://www.w3.org/1999/xlink" x="0px" y="0px"
	 width="64px" height="64px" viewBox="0 0 64 64" enable-background="new 0 0 64 64" xml:space="preserve">
<g id="Blue">
	<line fill="none" stroke="#0000FF" x1="62.167" y1="20" x2="2" y2="40.417"/>
	<line fill="none" stroke="#0000FF" x1="2" y1="40.417" x2="62.167" y2="60.833"/>
	<line fill="none" stroke="#0000FF" x1="62.167" y1="20" x2="62.167" y2="60.833"/>
	<line fill="none" stroke="#0000FF" x1="2" y1="40.417" x2="2" y2="5.333"/>
	<line fill="none" stroke="#0000FF" x1="2" y1="5.333" x2="19.667" y2="18.667"/>
	<line fill="none" stroke="#0000FF" x1="19.667" y1="18.667" x2="2" y2="18.667"/>
</g>
<g id="Red">
	<line fill="none" stroke="#FF0000" x1="62.167" y1="20" x2="2" y2="40.417"/>
	<line fill="none" stroke="#FF0000" x1="2" y1="40.417" x2="62.167" y2="60.833"/>
	<line fill="none" stroke="#FF0000" x1="62.167" y1="20" x2="62.167" y2="60.833"/>
	<line fill="none" stroke="#FF0000" x1="2" y1="40.417" x2="2" y2="5.333"/>
	<line fill="none" stroke="#FF0000" x1="2" y1="5.333" x2="19.667" y2="18.667"/>
	<line fill="none" stroke="#FF0000" x1="19.667" y1="18.667" x2="2" y2="18.667"/>
</g>
<g id="White">
	<line fill="none" stroke="#00FF00" x1="62.167" y1="20" x2="2" y2="40.417"/>
	<line fill="none" stroke="#00FF00" x1="2" y1="40.417" x2="62.167" y2="60.833"/>
	<line fill="none" stroke="#00FF00" x1="62.167" y1="20" x2="62.167" y2="60.833"/>
	<line fill="none" stroke="#00FF00" x1="2" y1="40.417" x2="2" y2="5.333"/>
	<line fill="none" stroke="#00FF00" x1="2" y1="5.333" x2="19.667" y2="18.667"/>
	<line fill="none" stroke="#00FF00" x1="19.667" y1="18.667" x2="2" y2="18.667"/>
</g>
</svg>
