<?xml version="1.0" encoding="utf-8"?>
<!-- Generator: Adobe Illustrator 14.0.0, SVG Export Plug-In . SVG Version: 6.00 Build 43363)  -->
<!DOCTYPE svg PUBLIC "-//W3C//DTD SVG 1.1//EN" "http://www.w3.org/Graphics/SVG/1.1/DTD/svg11.dtd">
<svg version="1.1" id="图层_1" xmlns="http://www.w3.org/2000/svg" xmlns:xlink="http://www.w3.org/1999/xlink" x="0px" y="0px"
	 width="64px" height="64px" viewBox="0 0 64 64" enable-background="new 0 0 64 64" xml:space="preserve">
<g id="Blue">
	<polygon fill="none" stroke="#0000FF" points="61.5,41.75 1.75,41.75 1.75,22 42.75,22 	"/>
	<rect x="16.75" y="27.375" fill="none" stroke="#0000FF" width="19.75" height="9.25"/>
	<line fill="none" stroke="#0000FF" x1="26.625" y1="27.375" x2="26.625" y2="36.625"/>
	<rect x="26.625" y="27.375" fill="#0000FF" width="9.875" height="9.25"/>
</g>
<g id="Red">
	<polygon fill="none" stroke="#FF0000" points="61.5,41.75 1.75,41.75 1.75,22 42.75,22 	"/>
	<rect x="16.75" y="27.375" fill="none" stroke="#FF0000" width="19.75" height="9.25"/>
	<line fill="none" stroke="#FF0000" x1="26.625" y1="27.375" x2="26.625" y2="36.625"/>
	<rect x="26.625" y="27.375" fill="#FF0000" width="9.875" height="9.25"/>
</g>
<g id="White">
	<polygon fill="none" stroke="#00FF00" points="61.5,41.75 1.75,41.75 1.75,22 42.75,22 	"/>
	<rect x="16.75" y="27.375" fill="none" stroke="#00FF00" width="19.75" height="9.25"/>
	<line fill="none" stroke="#00FF00" x1="26.625" y1="27.375" x2="26.625" y2="36.625"/>
	<rect x="26.625" y="27.375" fill="#00FF00" width="9.875" height="9.25"/>
</g>
</svg>
