<?xml version="1.0" encoding="utf-8"?>
<!-- Generator: Adobe Illustrator 14.0.0, SVG Export Plug-In . SVG Version: 6.00 Build 43363)  -->
<!DOCTYPE svg PUBLIC "-//W3C//DTD SVG 1.1//EN" "http://www.w3.org/Graphics/SVG/1.1/DTD/svg11.dtd">
<svg version="1.1" id="图层_1" xmlns="http://www.w3.org/2000/svg" xmlns:xlink="http://www.w3.org/1999/xlink" x="0px" y="0px"
	 width="64px" height="64px" viewBox="0 0 64 64" enable-background="new 0 0 64 64" xml:space="preserve">
<g id="Blue">
	<line fill="none" stroke="#0000FF" x1="45.125" y1="32.875" x2="16.125" y2="32.875"/>
	<line fill="none" stroke="#0000FF" x1="45.125" y1="32.875" x2="49.375" y2="28.625"/>
	<line fill="none" stroke="#0000FF" x1="45.125" y1="32.875" x2="49.375" y2="37.125"/>
	<line fill="none" stroke="#0000FF" x1="31.833" y1="32.875" x2="31.833" y2="38.5"/>
	<polygon fill="#0000FF" points="19.5,35 16.125,32.875 19.5,30.75 11.125,32.875 	"/>
	<ellipse fill="none" stroke="#0000FF" cx="31.833" cy="32.875" rx="30.583" ry="12.875"/>
</g>
<g id="Red">
	<line fill="none" stroke="#FF0000" x1="45.125" y1="32.875" x2="16.125" y2="32.875"/>
	<line fill="none" stroke="#FF0000" x1="45.125" y1="32.875" x2="49.375" y2="28.625"/>
	<line fill="none" stroke="#FF0000" x1="45.125" y1="32.875" x2="49.375" y2="37.125"/>
	<line fill="none" stroke="#FF0000" x1="31.833" y1="32.875" x2="31.833" y2="38.5"/>
	<polygon fill="#FF0000" points="19.5,35 16.125,32.875 19.5,30.75 11.125,32.875 	"/>
	<ellipse fill="none" stroke="#FF0000" cx="31.833" cy="32.875" rx="30.583" ry="12.875"/>
</g>
<g id="White">
	<line fill="none" stroke="#00FF00" x1="45.125" y1="32.875" x2="16.125" y2="32.875"/>
	<line fill="none" stroke="#00FF00" x1="45.125" y1="32.875" x2="49.375" y2="28.625"/>
	<line fill="none" stroke="#00FF00" x1="45.125" y1="32.875" x2="49.375" y2="37.125"/>
	<line fill="none" stroke="#00FF00" x1="31.833" y1="32.875" x2="31.833" y2="38.5"/>
	<polygon fill="#00FF00" points="19.5,35 16.125,32.875 19.5,30.75 11.125,32.875 	"/>
	<ellipse fill="none" stroke="#00FF00" cx="31.833" cy="32.875" rx="30.583" ry="12.875"/>
</g>
</svg>
