<?xml version="1.0" encoding="utf-8"?>
<!-- Generator: Adobe Illustrator 14.0.0, SVG Export Plug-In . SVG Version: 6.00 Build 43363)  -->
<!DOCTYPE svg PUBLIC "-//W3C//DTD SVG 1.1//EN" "http://www.w3.org/Graphics/SVG/1.1/DTD/svg11.dtd">
<svg version="1.1" id="图层_1" xmlns="http://www.w3.org/2000/svg" xmlns:xlink="http://www.w3.org/1999/xlink" x="0px" y="0px"
	 width="64px" height="64px" viewBox="0 0 64 64" enable-background="new 0 0 64 64" xml:space="preserve">
<g id="Blue">
	<line fill="none" stroke="#0000FF" x1="19" y1="32" x2="41.5" y2="32"/>
	<line fill="none" stroke="#0000FF" x1="26.833" y1="26.5" x2="38.167" y2="26.5"/>
	<line fill="none" stroke="#0000FF" x1="26.833" y1="37.5" x2="38.167" y2="37.5"/>
	<line fill="none" stroke="#0000FF" x1="41.5" y1="32" x2="47.166" y2="26.333"/>
	<line fill="none" stroke="#0000FF" x1="41.5" y1="32" x2="47.083" y2="37.583"/>
	<line fill="none" stroke="#0000FF" x1="47.083" y1="37.583" x2="47.166" y2="26.333"/>
	<ellipse fill="none" stroke="#0000FF" cx="32" cy="31.958" rx="31" ry="11.25"/>
</g>
<g id="Red">
	<line fill="none" stroke="#FF0000" x1="19" y1="32" x2="41.5" y2="32"/>
	<line fill="none" stroke="#FF0000" x1="26.833" y1="26.5" x2="38.167" y2="26.5"/>
	<line fill="none" stroke="#FF0000" x1="26.833" y1="37.5" x2="38.167" y2="37.5"/>
	<line fill="none" stroke="#FF0000" x1="41.5" y1="32" x2="47.166" y2="26.333"/>
	<line fill="none" stroke="#FF0000" x1="41.5" y1="32" x2="47.083" y2="37.583"/>
	<line fill="none" stroke="#FF0000" x1="47.083" y1="37.583" x2="47.166" y2="26.333"/>
	<ellipse fill="none" stroke="#FF0000" cx="32" cy="31.958" rx="31" ry="11.25"/>
</g>
<g id="White">
	<line fill="none" stroke="#00FF00" x1="19" y1="32" x2="41.5" y2="32"/>
	<line fill="none" stroke="#00FF00" x1="26.833" y1="26.5" x2="38.167" y2="26.5"/>
	<line fill="none" stroke="#00FF00" x1="26.833" y1="37.5" x2="38.167" y2="37.5"/>
	<line fill="none" stroke="#00FF00" x1="41.5" y1="32" x2="47.166" y2="26.333"/>
	<line fill="none" stroke="#00FF00" x1="41.5" y1="32" x2="47.083" y2="37.583"/>
	<line fill="none" stroke="#00FF00" x1="47.083" y1="37.583" x2="47.166" y2="26.333"/>
	<ellipse fill="none" stroke="#00FF00" cx="32" cy="31.958" rx="31" ry="11.25"/>
</g>
</svg>
