<?xml version="1.0" encoding="utf-8"?>
<!-- Generator: Adobe Illustrator 14.0.0, SVG Export Plug-In . SVG Version: 6.00 Build 43363)  -->
<!DOCTYPE svg PUBLIC "-//W3C//DTD SVG 1.1//EN" "http://www.w3.org/Graphics/SVG/1.1/DTD/svg11.dtd">
<svg version="1.1" id="图层_1" xmlns="http://www.w3.org/2000/svg" xmlns:xlink="http://www.w3.org/1999/xlink" x="0px" y="0px"
	 width="64px" height="64px" viewBox="0 0 64 64" enable-background="new 0 0 64 64" xml:space="preserve">
<g id="Blue">
	<rect x="1.5" y="10.5" fill="none" stroke="#0000FF" stroke-width="2" width="60.5" height="32"/>
	<circle fill="none" stroke="#0000FF" stroke-width="2" cx="16.75" cy="48.916" r="6.417"/>
	<circle fill="none" stroke="#0000FF" stroke-width="2" cx="47.474" cy="48.916" r="6.417"/>
	<line fill="none" stroke="#0000FF" stroke-width="2" x1="7.833" y1="42.5" x2="7.833" y2="10.5"/>
	<line fill="none" stroke="#0000FF" stroke-width="2" x1="33.167" y1="37.834" x2="33.167" y2="22.5"/>
	<polygon fill="#0000FF" points="33.167,22.5 30.584,25.25 33.168,17.25 35.751,25.25 	"/>
</g>
<g id="Red">
	<rect x="1.5" y="10.5" fill="none" stroke="#FF0000" stroke-width="2" width="60.5" height="32"/>
	<circle fill="none" stroke="#FF0000" stroke-width="2" cx="16.75" cy="48.916" r="6.417"/>
	<circle fill="none" stroke="#FF0000" stroke-width="2" cx="47.474" cy="48.916" r="6.417"/>
	<line fill="none" stroke="#FF0000" stroke-width="2" x1="7.833" y1="42.5" x2="7.833" y2="10.5"/>
	<line fill="none" stroke="#FF0000" stroke-width="2" x1="33.167" y1="37.834" x2="33.167" y2="22.5"/>
	<polygon fill="#FF0000" points="33.167,22.5 30.584,25.25 33.168,17.25 35.751,25.25 	"/>
</g>
<g id="White">
	<rect x="1.5" y="10.5" fill="none" stroke="#00FF00" stroke-width="2" width="60.5" height="32"/>
	<circle fill="none" stroke="#00FF00" stroke-width="2" cx="16.75" cy="48.916" r="6.417"/>
	<circle fill="none" stroke="#00FF00" stroke-width="2" cx="47.474" cy="48.916" r="6.417"/>
	<line fill="none" stroke="#00FF00" stroke-width="2" x1="7.833" y1="42.5" x2="7.833" y2="10.5"/>
	<line fill="none" stroke="#00FF00" stroke-width="2" x1="33.167" y1="37.834" x2="33.167" y2="22.5"/>
	<polygon fill="#00FF00" points="33.167,22.5 30.584,25.25 33.168,17.25 35.751,25.25 	"/>
</g>
</svg>
