<?xml version="1.0" encoding="utf-8"?>
<!-- Generator: Adobe Illustrator 14.0.0, SVG Export Plug-In . SVG Version: 6.00 Build 43363)  -->
<!DOCTYPE svg PUBLIC "-//W3C//DTD SVG 1.1//EN" "http://www.w3.org/Graphics/SVG/1.1/DTD/svg11.dtd">
<svg version="1.1" id="图层_1" xmlns="http://www.w3.org/2000/svg" xmlns:xlink="http://www.w3.org/1999/xlink" x="0px" y="0px"
	 width="64px" height="64px" viewBox="0 0 64 64" enable-background="new 0 0 64 64" xml:space="preserve">
<g id="Blue">
	<line fill="none" stroke="#0000FF" stroke-width="2" x1="3.5" y1="37.125" x2="60.625" y2="37.125"/>
	<circle fill="none" stroke="#0000FF" stroke-width="2" cx="19.563" cy="45.063" r="6.063"/>
	<circle fill="none" stroke="#0000FF" stroke-width="2" cx="44.042" cy="45.063" r="6.063"/>
	<line fill="none" stroke="#0000FF" stroke-width="2" x1="30.917" y1="37.125" x2="30.917" y2="21.5"/>
	<line fill="none" stroke="#0000FF" stroke-width="2" x1="22.833" y1="12.333" x2="17.833" y2="4"/>
	<line fill="none" stroke="#0000FF" stroke-width="2" x1="17.833" y1="4" x2="27.75" y2="8.833"/>
	<line fill="none" stroke="#0000FF" stroke-width="2" x1="27.75" y1="8.833" x2="49.417" y2="30.333"/>
	<line fill="none" stroke="#0000FF" stroke-width="2" x1="49.417" y1="30.333" x2="45.333" y2="34.667"/>
	<line fill="none" stroke="#0000FF" stroke-width="2" x1="45.333" y1="34.667" x2="22.833" y2="12.333"/>
</g>
<g id="Red">
	<line fill="none" stroke="#FF0000" stroke-width="2" x1="3.5" y1="37.125" x2="60.625" y2="37.125"/>
	<circle fill="none" stroke="#FF0000" stroke-width="2" cx="19.563" cy="45.063" r="6.063"/>
	<circle fill="none" stroke="#FF0000" stroke-width="2" cx="44.042" cy="45.063" r="6.063"/>
	<line fill="none" stroke="#FF0000" stroke-width="2" x1="30.917" y1="37.125" x2="30.917" y2="21.5"/>
	<line fill="none" stroke="#FF0000" stroke-width="2" x1="45.333" y1="34.667" x2="22.833" y2="12.333"/>
	<line fill="none" stroke="#FF0000" stroke-width="2" x1="22.833" y1="12.333" x2="17.833" y2="4"/>
	<line fill="none" stroke="#FF0000" stroke-width="2" x1="17.833" y1="4" x2="27.75" y2="8.833"/>
	<line fill="none" stroke="#FF0000" stroke-width="2" x1="27.75" y1="8.833" x2="49.417" y2="30.333"/>
	<line fill="none" stroke="#FF0000" stroke-width="2" x1="49.417" y1="30.333" x2="45.333" y2="34.667"/>
</g>
<g id="White">
	<line fill="none" stroke="#00FF00" stroke-width="2" x1="3.5" y1="37.125" x2="60.625" y2="37.125"/>
	<circle fill="none" stroke="#00FF00" stroke-width="2" cx="19.563" cy="45.063" r="6.063"/>
	<circle fill="none" stroke="#00FF00" stroke-width="2" cx="44.042" cy="45.063" r="6.063"/>
	<line fill="none" stroke="#00FF00" stroke-width="2" x1="30.917" y1="37.125" x2="30.917" y2="21.5"/>
	<line fill="none" stroke="#00FF00" stroke-width="2" x1="45.333" y1="34.667" x2="22.833" y2="12.333"/>
	<line fill="none" stroke="#00FF00" stroke-width="2" x1="22.833" y1="12.333" x2="17.833" y2="4"/>
	<line fill="none" stroke="#00FF00" stroke-width="2" x1="17.833" y1="4" x2="27.75" y2="8.833"/>
	<line fill="none" stroke="#00FF00" stroke-width="2" x1="27.75" y1="8.833" x2="49.417" y2="30.333"/>
	<line fill="none" stroke="#00FF00" stroke-width="2" x1="49.417" y1="30.333" x2="45.333" y2="34.667"/>
</g>
</svg>
