<?xml version="1.0" encoding="utf-8"?>
<!-- Generator: Adobe Illustrator 14.0.0, SVG Export Plug-In . SVG Version: 6.00 Build 43363)  -->
<!DOCTYPE svg PUBLIC "-//W3C//DTD SVG 1.1//EN" "http://www.w3.org/Graphics/SVG/1.1/DTD/svg11.dtd">
<svg version="1.1" id="图层_1" xmlns="http://www.w3.org/2000/svg" xmlns:xlink="http://www.w3.org/1999/xlink" x="0px" y="0px"
	 width="64px" height="64px" viewBox="0 0 64 64" enable-background="new 0 0 64 64" xml:space="preserve">
<g id="Blue">
	<rect x="2" y="2" fill="none" stroke="#0000FF" stroke-width="2" width="59.833" height="59.833"/>
	<line fill="none" stroke="#0000FF" stroke-width="2" x1="61.833" y1="2" x2="2" y2="61.833"/>
	<line fill="none" stroke="#0000FF" stroke-width="2" x1="7.667" y1="17.667" x2="28.833" y2="17.667"/>
	<line fill="none" stroke="#0000FF" stroke-width="2" x1="18.25" y1="28.249" x2="18.25" y2="7.083"/>
	<text transform="matrix(1 0 0 1 36.166 52.6973)" fill="none" stroke="#000000" font-family="'SimSun'" font-size="18">手</text>
</g>
<g id="Red">
	<rect x="2" y="2" fill="none" stroke="#FF0000" stroke-width="2" width="59.833" height="59.833"/>
	<line fill="none" stroke="#FF0000" stroke-width="2" x1="61.833" y1="2" x2="2" y2="61.833"/>
	<line fill="none" stroke="#FF0000" stroke-width="2" x1="7.667" y1="17.667" x2="28.833" y2="17.667"/>
	<line fill="none" stroke="#FF0000" stroke-width="2" x1="18.25" y1="28.249" x2="18.25" y2="7.083"/>
	<text transform="matrix(1 0 0 1 36.166 52.6973)" fill="none" stroke="#000000" font-family="'SimSun'" font-size="18">手</text>
</g>
<g id="White">
	<rect x="2" y="2" fill="none" stroke="#00FF00" stroke-width="2" width="59.833" height="59.833"/>
	<line fill="none" stroke="#00FF00" stroke-width="2" x1="61.833" y1="2" x2="2" y2="61.833"/>
	<line fill="none" stroke="#00FF00" stroke-width="2" x1="7.667" y1="17.667" x2="28.833" y2="17.667"/>
	<line fill="none" stroke="#00FF00" stroke-width="2" x1="18.25" y1="28.249" x2="18.25" y2="7.083"/>
	<text transform="matrix(1 0 0 1 36.166 52.6973)" fill="none" stroke="#000000" font-family="'SimSun'" font-size="18">手</text>
</g>
</svg>
