<?xml version="1.0" encoding="utf-8"?>
<!-- Generator: Adobe Illustrator 14.0.0, SVG Export Plug-In . SVG Version: 6.00 Build 43363)  -->
<!DOCTYPE svg PUBLIC "-//W3C//DTD SVG 1.1//EN" "http://www.w3.org/Graphics/SVG/1.1/DTD/svg11.dtd">
<svg version="1.1" id="图层_1" xmlns="http://www.w3.org/2000/svg" xmlns:xlink="http://www.w3.org/1999/xlink" x="0px" y="0px"
	 width="64px" height="64px" viewBox="0 0 64 64" enable-background="new 0 0 64 64" xml:space="preserve">
<g id="Blue">
	<rect x="1.5" y="10.5" fill="none" stroke="#0000FF" stroke-width="2" width="60.5" height="32"/>
	<circle fill="none" stroke="#0000FF" stroke-width="2" cx="16.75" cy="48.916" r="6.417"/>
	<circle fill="none" stroke="#0000FF" stroke-width="2" cx="47.474" cy="48.916" r="6.417"/>
	<line fill="none" stroke="#0000FF" stroke-width="2" x1="7.833" y1="42.5" x2="7.833" y2="10.5"/>
	<path fill="none" stroke="#0000FF" stroke-width="2" d="M19.25,22c0,0,5.875-1,6.25,4.5c0,0-0.375,4.5-6.25,4.25"/>
	<path fill="none" stroke="#0000FF" stroke-width="2" d="M51.936,22c0,0-5.875-1-6.25,4.5c0,0,0.375,4.5,6.25,4.25"/>
	<line fill="none" stroke="#0000FF" stroke-width="2" x1="25.5" y1="26.5" x2="45.686" y2="26.5"/>
</g>
<g id="Red">
	<rect x="1.5" y="10.5" fill="none" stroke="#FF0000" stroke-width="2" width="60.5" height="32"/>
	<circle fill="none" stroke="#FF0000" stroke-width="2" cx="16.75" cy="48.916" r="6.417"/>
	<circle fill="none" stroke="#FF0000" stroke-width="2" cx="47.474" cy="48.916" r="6.417"/>
	<line fill="none" stroke="#FF0000" stroke-width="2" x1="7.833" y1="42.5" x2="7.833" y2="10.5"/>
	<path fill="none" stroke="#FF0000" stroke-width="2" d="M19.25,22c0,0,5.875-1,6.25,4.5c0,0-0.375,4.5-6.25,4.25"/>
	<path fill="none" stroke="#FF0000" stroke-width="2" d="M51.936,22c0,0-5.875-1-6.25,4.5c0,0,0.375,4.5,6.25,4.25"/>
	<line fill="none" stroke="#FF0000" stroke-width="2" x1="25.5" y1="26.5" x2="45.686" y2="26.5"/>
</g>
<g id="White">
	<rect x="1.5" y="10.5" fill="none" stroke="#00FF00" stroke-width="2" width="60.5" height="32"/>
	<circle fill="none" stroke="#00FF00" stroke-width="2" cx="16.75" cy="48.916" r="6.417"/>
	<circle fill="none" stroke="#00FF00" stroke-width="2" cx="47.474" cy="48.916" r="6.417"/>
	<line fill="none" stroke="#00FF00" stroke-width="2" x1="7.833" y1="42.5" x2="7.833" y2="10.5"/>
	<path fill="none" stroke="#00FF00" stroke-width="2" d="M19.25,22c0,0,5.875-1,6.25,4.5c0,0-0.375,4.5-6.25,4.25"/>
	<path fill="none" stroke="#00FF00" stroke-width="2" d="M51.936,22c0,0-5.875-1-6.25,4.5c0,0,0.375,4.5,6.25,4.25"/>
	<line fill="none" stroke="#00FF00" stroke-width="2" x1="25.5" y1="26.5" x2="45.686" y2="26.5"/>
</g>
</svg>
