<?xml version="1.0" encoding="utf-8"?>
<!-- Generator: Adobe Illustrator 14.0.0, SVG Export Plug-In . SVG Version: 6.00 Build 43363)  -->
<!DOCTYPE svg PUBLIC "-//W3C//DTD SVG 1.1//EN" "http://www.w3.org/Graphics/SVG/1.1/DTD/svg11.dtd">
<svg version="1.1" id="图层_1" xmlns="http://www.w3.org/2000/svg" xmlns:xlink="http://www.w3.org/1999/xlink" x="0px" y="0px"
	 width="64px" height="64px" viewBox="0 0 64 64" enable-background="new 0 0 64 64" xml:space="preserve">
<g id="Blue">
	<circle fill="none" stroke="#0000FF" stroke-width="2" cx="33.125" cy="33.25" r="20.375"/>
	<line fill="none" stroke="#0000FF" stroke-width="2" x1="1.625" y1="33.25" x2="62.875" y2="33.25"/>
	<path fill="#0000FF" d="M53.5,33.25c0,0,0,19.25-20.375,20.375c0,0-18.958,0.208-20.375-20.375H53.5z"/>
</g>
<g id="Red">
	<circle fill="none" stroke="#FF0000" stroke-width="2" cx="33.125" cy="33.25" r="20.375"/>
	<line fill="none" stroke="#FF0000" stroke-width="2" x1="1.625" y1="33.25" x2="62.875" y2="33.25"/>
	<path fill="#FF0000" d="M53.5,33.25c0,0,0,19.25-20.375,20.375c0,0-18.958,0.208-20.375-20.375H53.5z"/>
</g>
<g id="White">
	<circle fill="none" stroke="#00FF06" stroke-width="2" cx="33.125" cy="33.25" r="20.375"/>
	<line fill="none" stroke="#00FF06" stroke-width="2" x1="1.625" y1="33.25" x2="62.875" y2="33.25"/>
	<path fill="#00FF00" d="M53.5,33.25c0,0,0,19.25-20.375,20.375c0,0-18.958,0.208-20.375-20.375H53.5z"/>
</g>
</svg>
