<?xml version="1.0" encoding="utf-8"?>
<!-- Generator: Adobe Illustrator 14.0.0, SVG Export Plug-In . SVG Version: 6.00 Build 43363)  -->
<!DOCTYPE svg PUBLIC "-//W3C//DTD SVG 1.1//EN" "http://www.w3.org/Graphics/SVG/1.1/DTD/svg11.dtd">
<svg version="1.1" id="图层_1" xmlns="http://www.w3.org/2000/svg" xmlns:xlink="http://www.w3.org/1999/xlink" x="0px" y="0px"
	 width="64px" height="64px" viewBox="0 0 64 64" enable-background="new 0 0 64 64" xml:space="preserve">
<g id="Blue">
	<line fill="none" stroke="#0000FF" stroke-width="2" x1="61.625" y1="20.5" x2="14.25" y2="20.5"/>
	<line fill="none" stroke="#0000FF" stroke-width="2" x1="14.25" y1="49.375" x2="61.625" y2="49.375"/>
	<line fill="none" stroke="#0000FF" stroke-width="2" x1="61.625" y1="49.375" x2="61.625" y2="20.5"/>
	<line fill="none" stroke="#0000FF" stroke-width="2" x1="28.5" y1="34.938" x2="45" y2="34.938"/>
	<line fill="none" stroke="#0000FF" stroke-width="2" x1="36.75" y1="27.563" x2="36.75" y2="44.25"/>
	<path fill="none" stroke="#0000FF" stroke-width="2" d="M14.25,20.5c0,0-13,0.5-13,14.438c0,0,0.25,14.438,13,14.438"/>
</g>
<g id="Red">
	<line fill="none" stroke="#FF0000" stroke-width="2" x1="61.625" y1="20.5" x2="14.25" y2="20.5"/>
	<line fill="none" stroke="#FF0000" stroke-width="2" x1="14.25" y1="49.375" x2="61.625" y2="49.375"/>
	<line fill="none" stroke="#FF0000" stroke-width="2" x1="61.625" y1="49.375" x2="61.625" y2="20.5"/>
	<line fill="none" stroke="#FF0000" stroke-width="2" x1="28.5" y1="34.938" x2="45" y2="34.938"/>
	<line fill="none" stroke="#FF0000" stroke-width="2" x1="36.75" y1="27.563" x2="36.75" y2="44.25"/>
	<path fill="none" stroke="#FF0000" stroke-width="2" d="M14.25,20.5c0,0-13,0.5-13,14.438c0,0,0.25,14.438,13,14.438"/>
</g>
<g id="White">
	<line fill="none" stroke="#00FF00" stroke-width="2" x1="61.625" y1="20.5" x2="14.25" y2="20.5"/>
	<line fill="none" stroke="#00FF00" stroke-width="2" x1="14.25" y1="49.375" x2="61.625" y2="49.375"/>
	<line fill="none" stroke="#00FF00" stroke-width="2" x1="61.625" y1="49.375" x2="61.625" y2="20.5"/>
	<line fill="none" stroke="#00FF00" stroke-width="2" x1="28.5" y1="34.938" x2="45" y2="34.938"/>
	<line fill="none" stroke="#00FF00" stroke-width="2" x1="36.75" y1="27.563" x2="36.75" y2="44.25"/>
	<path fill="none" stroke="#00FF00" stroke-width="2" d="M14.25,20.5c0,0-13,0.5-13,14.438c0,0,0.25,14.438,13,14.438"/>
</g>
</svg>
