<?xml version="1.0" encoding="utf-8"?>
<!-- Generator: Adobe Illustrator 14.0.0, SVG Export Plug-In . SVG Version: 6.00 Build 43363)  -->
<!DOCTYPE svg PUBLIC "-//W3C//DTD SVG 1.1//EN" "http://www.w3.org/Graphics/SVG/1.1/DTD/svg11.dtd">
<svg version="1.1" id="图层_1" xmlns="http://www.w3.org/2000/svg" xmlns:xlink="http://www.w3.org/1999/xlink" x="0px" y="0px"
	 width="64px" height="64px" viewBox="0 0 64 64" enable-background="new 0 0 64 64" xml:space="preserve">
<g id="Blue">
	<rect x="1" y="20.5" fill="none" stroke="#0000FF" stroke-width="2" width="49.5" height="27"/>
	<line fill="none" stroke="#0000FF" stroke-width="2" x1="50.5" y1="34" x2="61.834" y2="34"/>
	<line fill="none" stroke="#0000FF" stroke-width="2" x1="61.834" y1="34" x2="61.834" y2="41.333"/>
	<path fill="none" stroke="#0000FF" stroke-width="2" d="M11.625,33.764c0,0,4.943-5.39,10.335,0c0,0,4.339,6.423,8.349,0
		c0,0,4.01-5.953,9.065,0"/>
</g>
<g id="Red">
	<rect x="1" y="20.5" fill="#FFFFFF" stroke="#FF0000" stroke-width="2" width="49.5" height="27"/>
	<line fill="#FFFFFF" stroke="#FF0000" stroke-width="2" x1="50.5" y1="34" x2="61.834" y2="34"/>
	<line fill="#FFFFFF" stroke="#FF0000" stroke-width="2" x1="61.834" y1="34" x2="61.834" y2="41.333"/>
	<path fill="#FFFFFF" stroke="#FF0000" stroke-width="2" d="M11.625,33.764c0,0,4.943-5.39,10.335,0c0,0,4.339,6.423,8.349,0
		c0,0,4.01-5.953,9.065,0"/>
</g>
<g id="White">
	<rect x="1" y="20.5" fill="none" stroke="#00FF00" stroke-width="2" width="49.5" height="27"/>
	<line fill="none" stroke="#00FF00" stroke-width="2" x1="50.5" y1="34" x2="61.834" y2="34"/>
	<line fill="none" stroke="#00FF00" stroke-width="2" x1="61.834" y1="34" x2="61.834" y2="41.333"/>
	<path fill="none" stroke="#00FF00" stroke-width="2" d="M11.625,33.764c0,0,4.943-5.39,10.335,0c0,0,4.339,6.423,8.349,0
		c0,0,4.01-5.953,9.065,0"/>
</g>
</svg>
