<?xml version="1.0" encoding="utf-8"?>
<!-- Generator: Adobe Illustrator 14.0.0, SVG Export Plug-In . SVG Version: 6.00 Build 43363)  -->
<!DOCTYPE svg PUBLIC "-//W3C//DTD SVG 1.1//EN" "http://www.w3.org/Graphics/SVG/1.1/DTD/svg11.dtd">
<svg version="1.1" id="图层_1" xmlns="http://www.w3.org/2000/svg" xmlns:xlink="http://www.w3.org/1999/xlink" x="0px" y="0px"
	 width="64px" height="64px" viewBox="0 0 64 64" enable-background="new 0 0 64 64" xml:space="preserve">
<g id="Blue">
	<rect x="3.25" y="18.167" fill="none" stroke="#0000FF" stroke-width="2" width="58.329" height="31.083"/>
	<line fill="none" stroke="#0000FF" stroke-width="2" x1="17.96" y1="33.709" x2="47.124" y2="33.709"/>
	<path fill="none" stroke="#0000FF" stroke-width="2" d="M13.312,27.554c0,0,4.684,0.046,4.648,6.155c0,0,0.069,6.736-4.648,6.736"
		/>
	<path fill="none" stroke="#0000FF" stroke-width="2" d="M51.772,27.263c0,0-4.684,0.046-4.648,6.154c0,0-0.068,6.737,4.648,6.737"
		/>
</g>
<g id="Red">
	<rect x="3.25" y="18.167" fill="none" stroke="#FF0000" stroke-width="2" width="58.329" height="31.083"/>
	<line fill="none" stroke="#FF0000" stroke-width="2" x1="17.96" y1="33.709" x2="47.124" y2="33.709"/>
	<path fill="none" stroke="#FF0000" stroke-width="2" d="M13.312,27.554c0,0,4.684,0.046,4.648,6.155c0,0,0.069,6.736-4.648,6.736"
		/>
	<path fill="none" stroke="#FF0000" stroke-width="2" d="M51.772,27.263c0,0-4.684,0.046-4.648,6.154c0,0-0.068,6.737,4.648,6.737"
		/>
</g>
<g id="White">
	<rect x="3.25" y="18.167" fill="none" stroke="#00FF00" stroke-width="2" width="58.329" height="31.083"/>
	<line fill="none" stroke="#00FF00" stroke-width="2" x1="17.96" y1="33.709" x2="47.124" y2="33.709"/>
	<path fill="none" stroke="#00FF00" stroke-width="2" d="M13.312,27.554c0,0,4.684,0.046,4.648,6.155c0,0,0.069,6.736-4.648,6.736"
		/>
	<path fill="none" stroke="#00FF00" stroke-width="2" d="M51.772,27.263c0,0-4.684,0.046-4.648,6.154c0,0-0.068,6.737,4.648,6.737"
		/>
</g>
</svg>
