<?xml version="1.0" encoding="utf-8"?>
<!-- Generator: Adobe Illustrator 14.0.0, SVG Export Plug-In . SVG Version: 6.00 Build 43363)  -->
<!DOCTYPE svg PUBLIC "-//W3C//DTD SVG 1.1//EN" "http://www.w3.org/Graphics/SVG/1.1/DTD/svg11.dtd">
<svg version="1.1" id="图层_1" xmlns="http://www.w3.org/2000/svg" xmlns:xlink="http://www.w3.org/1999/xlink" x="0px" y="0px"
	 width="64px" height="64px" viewBox="0 0 64 64" enable-background="new 0 0 64 64" xml:space="preserve">
<g id="Blue">
	<line fill="none" stroke="#0000FF" stroke-width="2" x1="32" y1="7.5" x2="3.25" y2="22.875"/>
	<line fill="none" stroke="#0000FF" stroke-width="2" x1="60.25" y1="22.875" x2="32" y2="7.5"/>
	<rect x="3.25" y="22.875" fill="none" stroke="#0000FF" stroke-width="2" width="57" height="30.375"/>
	<line fill="none" stroke="#0000FF" stroke-width="2" x1="33.103" y1="31.707" x2="33.103" y2="50.917"/>
	<polygon fill="#0000FF" points="33.103,31.707 30.603,33.346 33.103,26.566 35.604,33.346 	"/>
</g>
<g id="Red">
	<line fill="none" stroke="#FF0000" stroke-width="2" x1="32" y1="7.5" x2="3.25" y2="22.875"/>
	<line fill="none" stroke="#FF0000" stroke-width="2" x1="60.25" y1="22.875" x2="32" y2="7.5"/>
	<rect x="3.25" y="22.875" fill="none" stroke="#FF0000" stroke-width="2" width="57" height="30.375"/>
	<line fill="none" stroke="#FF0000" stroke-width="2" x1="33.103" y1="31.707" x2="33.103" y2="50.917"/>
	<polygon fill="#FF0000" points="33.103,31.707 30.603,33.346 33.103,26.566 35.604,33.346 	"/>
</g>
<g id="White">
	<line fill="none" stroke="#00FF00" stroke-width="2" x1="32" y1="7.5" x2="3.25" y2="22.875"/>
	<line fill="none" stroke="#00FF00" stroke-width="2" x1="60.25" y1="22.875" x2="32" y2="7.5"/>
	<rect x="3.25" y="22.875" fill="none" stroke="#00FF00" stroke-width="2" width="57" height="30.375"/>
	<line fill="none" stroke="#00FF00" stroke-width="2" x1="33.103" y1="31.707" x2="33.103" y2="50.917"/>
	<polygon fill="#00FF00" points="33.103,31.707 30.603,33.346 33.103,26.566 35.604,33.346 	"/>
</g>
</svg>
