<?xml version="1.0" encoding="utf-8"?>
<!-- Generator: Adobe Illustrator 14.0.0, SVG Export Plug-In . SVG Version: 6.00 Build 43363)  -->
<!DOCTYPE svg PUBLIC "-//W3C//DTD SVG 1.1//EN" "http://www.w3.org/Graphics/SVG/1.1/DTD/svg11.dtd">
<svg version="1.1" id="图层_1" xmlns="http://www.w3.org/2000/svg" xmlns:xlink="http://www.w3.org/1999/xlink" x="0px" y="0px"
	 width="64px" height="64px" viewBox="0 0 64 64" enable-background="new 0 0 64 64" xml:space="preserve">
<g id="Blue">
	<circle fill="none" stroke="#0000FF" stroke-width="2" cx="32.313" cy="34.688" r="27.313"/>
	<line fill="none" stroke="#0000FF" stroke-width="2" x1="32.516" y1="26.775" x2="32.516" y2="52.096"/>
	<polygon fill="#0000FF" points="32.516,26.775 29.221,28.935 32.516,19.998 35.812,28.935 	"/>
	<line fill="none" stroke="#0000FF" stroke-width="2" x1="5" y1="7.375" x2="59.625" y2="7.375"/>
</g>
<g id="Red">
	<circle fill="none" stroke="#FF0000" stroke-width="2" cx="32.313" cy="34.688" r="27.313"/>
	<line fill="none" stroke="#FF0000" stroke-width="2" x1="32.516" y1="26.775" x2="32.516" y2="52.096"/>
	<polygon fill="#FF0000" points="32.516,26.775 29.221,28.935 32.516,19.998 35.812,28.935 	"/>
	<line fill="none" stroke="#FF0000" stroke-width="2" x1="5" y1="7.375" x2="59.625" y2="7.375"/>
</g>
<g id="White">
	<circle fill="none" stroke="#00FF00" stroke-width="2" cx="32.313" cy="34.688" r="27.313"/>
	<line fill="none" stroke="#00FF00" stroke-width="2" x1="32.516" y1="26.775" x2="32.516" y2="52.096"/>
	<polygon fill="#00FF00" points="32.516,26.775 29.221,28.935 32.516,19.998 35.812,28.935 	"/>
	<line fill="none" stroke="#00FF00" stroke-width="2" x1="5" y1="7.375" x2="59.625" y2="7.375"/>
</g>
</svg>
