<?xml version="1.0" encoding="utf-8"?>
<!-- Generator: Adobe Illustrator 14.0.0, SVG Export Plug-In . SVG Version: 6.00 Build 43363)  -->
<!DOCTYPE svg PUBLIC "-//W3C//DTD SVG 1.1//EN" "http://www.w3.org/Graphics/SVG/1.1/DTD/svg11.dtd">
<svg version="1.1" id="图层_1" xmlns="http://www.w3.org/2000/svg" xmlns:xlink="http://www.w3.org/1999/xlink" x="0px" y="0px"
	 width="64px" height="64px" viewBox="0 0 64 64" enable-background="new 0 0 64 64" xml:space="preserve">
<g id="Blue">
	<line fill="none" stroke="#0000FF" stroke-width="2" x1="31.69" y1="42.229" x2="31.69" y2="17.979"/>
	<line fill="none" stroke="#0000FF" stroke-width="2" x1="19.565" y1="30.104" x2="43.815" y2="30.104"/>
	<line fill="none" stroke="#0000FF" stroke-width="2" x1="32.128" y1="7.5" x2="2.5" y2="23.375"/>
	<line fill="none" stroke="#0000FF" stroke-width="2" x1="2.5" y1="23.375" x2="2.5" y2="54"/>
	<line fill="none" stroke="#0000FF" stroke-width="2" x1="2.5" y1="54" x2="62.125" y2="54"/>
	<line fill="none" stroke="#0000FF" stroke-width="2" x1="62.125" y1="54" x2="62.125" y2="23.375"/>
	<line fill="none" stroke="#0000FF" stroke-width="2" x1="62.125" y1="23.375" x2="32.128" y2="7.5"/>
	<line fill="none" stroke="#0000FF" stroke-width="2" x1="2.5" y1="47.625" x2="62.125" y2="47.625"/>
</g>
<g id="Red">
	<line fill="none" stroke="#FF0000" stroke-width="2" x1="31.69" y1="42.229" x2="31.69" y2="17.979"/>
	<line fill="none" stroke="#FF0000" stroke-width="2" x1="19.565" y1="30.104" x2="43.815" y2="30.104"/>
	<line fill="none" stroke="#FF0000" stroke-width="2" x1="32.128" y1="7.5" x2="2.5" y2="23.375"/>
	<line fill="none" stroke="#FF0000" stroke-width="2" x1="2.5" y1="23.375" x2="2.5" y2="54"/>
	<line fill="none" stroke="#FF0000" stroke-width="2" x1="2.5" y1="54" x2="62.125" y2="54"/>
	<line fill="none" stroke="#FF0000" stroke-width="2" x1="62.125" y1="54" x2="62.125" y2="23.375"/>
	<line fill="none" stroke="#FF0000" stroke-width="2" x1="62.125" y1="23.375" x2="32.128" y2="7.5"/>
	<line fill="none" stroke="#FF0000" stroke-width="2" x1="2.5" y1="47.625" x2="62.125" y2="47.625"/>
</g>
<g id="White">
	<line fill="none" stroke="#00FF00" stroke-width="2" x1="31.69" y1="42.229" x2="31.69" y2="17.979"/>
	<line fill="none" stroke="#00FF00" stroke-width="2" x1="19.565" y1="30.104" x2="43.815" y2="30.104"/>
	<line fill="none" stroke="#00FF00" stroke-width="2" x1="32.128" y1="7.5" x2="2.5" y2="23.375"/>
	<line fill="none" stroke="#00FF00" stroke-width="2" x1="2.5" y1="23.375" x2="2.5" y2="54"/>
	<line fill="none" stroke="#00FF00" stroke-width="2" x1="2.5" y1="54" x2="62.125" y2="54"/>
	<line fill="none" stroke="#00FF00" stroke-width="2" x1="62.125" y1="54" x2="62.125" y2="23.375"/>
	<line fill="none" stroke="#00FF00" stroke-width="2" x1="62.125" y1="23.375" x2="32.128" y2="7.5"/>
	<line fill="none" stroke="#00FF00" stroke-width="2" x1="2.5" y1="47.625" x2="62.125" y2="47.625"/>
</g>
</svg>
