<?xml version="1.0" encoding="utf-8"?>
<!-- Generator: Adobe Illustrator 14.0.0, SVG Export Plug-In . SVG Version: 6.00 Build 43363)  -->
<!DOCTYPE svg PUBLIC "-//W3C//DTD SVG 1.1//EN" "http://www.w3.org/Graphics/SVG/1.1/DTD/svg11.dtd">
<svg version="1.1" id="图层_1" xmlns="http://www.w3.org/2000/svg" xmlns:xlink="http://www.w3.org/1999/xlink" x="0px" y="0px"
	 width="64px" height="64px" viewBox="0 0 64 64" enable-background="new 0 0 64 64" xml:space="preserve">
<g id="Blue">
	<circle fill="none" stroke="#0000FF" stroke-width="2" cx="32.688" cy="26.063" r="23.938"/>
	<line fill="none" stroke="#0000FF" stroke-width="2" x1="32.865" y1="22.633" x2="32.865" y2="44.825"/>
	<polygon fill="#0000FF" points="32.865,22.633 29.978,24.526 32.865,16.694 35.754,24.526 	"/>
	<line fill="none" stroke="#0000FF" stroke-width="2" x1="8.75" y1="50" x2="56.625" y2="50"/>
	<circle fill="none" stroke="#0000FF" stroke-width="2" cx="17.875" cy="55.313" r="5.313"/>
	<circle fill="none" stroke="#0000FF" stroke-width="2" cx="49.094" cy="55.313" r="5.313"/>
</g>
<g id="Red">
	<circle fill="none" stroke="#FF0000" stroke-width="2" cx="32.688" cy="26.063" r="23.938"/>
	<line fill="none" stroke="#FF0000" stroke-width="2" x1="32.865" y1="22.633" x2="32.865" y2="44.825"/>
	<polygon fill="#FF0000" points="32.865,22.633 29.978,24.526 32.865,16.694 35.754,24.526 	"/>
	<line fill="none" stroke="#FF0000" stroke-width="2" x1="8.75" y1="50" x2="56.625" y2="50"/>
	<circle fill="none" stroke="#FF0000" stroke-width="2" cx="17.875" cy="55.313" r="5.313"/>
	<circle fill="none" stroke="#FF0000" stroke-width="2" cx="49.094" cy="55.313" r="5.313"/>
</g>
<g id="White">
	<circle fill="none" stroke="#00FF00" stroke-width="2" cx="32.688" cy="26.063" r="23.938"/>
	<line fill="none" stroke="#00FF00" stroke-width="2" x1="32.865" y1="22.633" x2="32.865" y2="44.825"/>
	<polygon fill="#00FF00" points="32.865,22.633 29.978,24.526 32.865,16.694 35.754,24.526 	"/>
	<line fill="none" stroke="#00FF00" stroke-width="2" x1="8.75" y1="50" x2="56.625" y2="50"/>
	<circle fill="none" stroke="#00FF00" stroke-width="2" cx="17.875" cy="55.313" r="5.313"/>
	<circle fill="none" stroke="#00FF00" stroke-width="2" cx="49.094" cy="55.313" r="5.313"/>
</g>
</svg>
