<?xml version="1.0" encoding="utf-8"?>
<!-- Generator: Adobe Illustrator 14.0.0, SVG Export Plug-In . SVG Version: 6.00 Build 43363)  -->
<!DOCTYPE svg PUBLIC "-//W3C//DTD SVG 1.1//EN" "http://www.w3.org/Graphics/SVG/1.1/DTD/svg11.dtd">
<svg version="1.1" id="图层_1" xmlns="http://www.w3.org/2000/svg" xmlns:xlink="http://www.w3.org/1999/xlink" x="0px" y="0px"
	 width="64px" height="64px" viewBox="0 0 64 64" enable-background="new 0 0 64 64" xml:space="preserve">
<g id="Blue">
	<line fill="none" stroke="#0000FF" stroke-width="2" x1="24.641" y1="12.028" x2="1.25" y2="24.537"/>
	<line fill="none" stroke="#0000FF" stroke-width="2" x1="47.625" y1="24.537" x2="24.641" y2="12.028"/>
	<rect x="1.25" y="24.537" fill="none" stroke="#0000FF" stroke-width="2" width="46.375" height="24.713"/>
	<line fill="none" stroke="#0000FF" stroke-width="2" x1="12.945" y1="36.894" x2="36.133" y2="36.894"/>
	<path fill="none" stroke="#0000FF" stroke-width="2" d="M9.25,32c0,0,3.724,0.037,3.695,4.894c0,0,0.055,5.356-3.695,5.356"/>
	<path fill="none" stroke="#0000FF" stroke-width="2" d="M39.828,31.769c0,0-3.724,0.037-3.695,4.894c0,0-0.055,5.356,3.695,5.356"
		/>
	<text transform="matrix(1 0 0 1 51.167 48.834)" fill="#0000FF" font-family="'AdobeSongStd-Light-GBpc-EUC-H'" font-size="12">船</text>
</g>
<g id="Red">
	<line fill="none" stroke="#FF0000" stroke-width="2" x1="24.641" y1="12.028" x2="1.25" y2="24.537"/>
	<line fill="none" stroke="#FF0000" stroke-width="2" x1="47.625" y1="24.537" x2="24.641" y2="12.028"/>
	<rect x="1.25" y="24.537" fill="none" stroke="#FF0000" stroke-width="2" width="46.375" height="24.713"/>
	<line fill="none" stroke="#FF0000" stroke-width="2" x1="12.945" y1="36.894" x2="36.133" y2="36.894"/>
	<path fill="none" stroke="#FF0000" stroke-width="2" d="M9.25,32c0,0,3.724,0.037,3.695,4.894c0,0,0.055,5.356-3.695,5.356"/>
	<path fill="none" stroke="#FF0000" stroke-width="2" d="M39.828,31.769c0,0-3.724,0.037-3.695,4.894c0,0-0.055,5.356,3.695,5.356"
		/>
	<text transform="matrix(1 0 0 1 51.167 48.834)" fill="#FF0000" font-family="'AdobeSongStd-Light-GBpc-EUC-H'" font-size="12">船</text>
</g>
<g id="White">
	<line fill="none" stroke="#00FF00" stroke-width="2" x1="24.641" y1="12.028" x2="1.25" y2="24.537"/>
	<line fill="none" stroke="#00FF00" stroke-width="2" x1="47.625" y1="24.537" x2="24.641" y2="12.028"/>
	<rect x="1.25" y="24.537" fill="none" stroke="#00FF00" stroke-width="2" width="46.375" height="24.713"/>
	<line fill="none" stroke="#00FF00" stroke-width="2" x1="12.945" y1="36.894" x2="36.133" y2="36.894"/>
	<path fill="none" stroke="#00FF00" stroke-width="2" d="M9.25,32c0,0,3.724,0.037,3.695,4.894c0,0,0.055,5.356-3.695,5.356"/>
	<path fill="none" stroke="#00FF00" stroke-width="2" d="M39.828,31.769c0,0-3.724,0.037-3.695,4.894c0,0-0.055,5.356,3.695,5.356"
		/>
	<text transform="matrix(1 0 0 1 51.167 48.834)" fill="#00FF00" font-family="'AdobeSongStd-Light-GBpc-EUC-H'" font-size="12">船</text>
</g>
</svg>
