<?xml version="1.0" encoding="utf-8"?>
<!-- Generator: Adobe Illustrator 14.0.0, SVG Export Plug-In . SVG Version: 6.00 Build 43363)  -->
<!DOCTYPE svg PUBLIC "-//W3C//DTD SVG 1.1//EN" "http://www.w3.org/Graphics/SVG/1.1/DTD/svg11.dtd">
<svg version="1.1" id="图层_1" xmlns="http://www.w3.org/2000/svg" xmlns:xlink="http://www.w3.org/1999/xlink" x="0px" y="0px"
	 width="64px" height="64px" viewBox="0 0 64 64" enable-background="new 0 0 64 64" xml:space="preserve">
<g id="Blue">
	<line fill="none" stroke="#0000FF" stroke-width="2" x1="62.167" y1="17.843" x2="20.575" y2="17.843"/>
	<line fill="none" stroke="#0000FF" stroke-width="2" x1="20.575" y1="17.843" x2="2.189" y2="32.171"/>
	<line fill="none" stroke="#0000FF" stroke-width="2" x1="2.189" y1="32.171" x2="2.189" y2="46.5"/>
	<line fill="none" stroke="#0000FF" stroke-width="2" x1="2.189" y1="46.5" x2="62.167" y2="46.5"/>
	<line fill="none" stroke="#0000FF" stroke-width="2" x1="62.167" y1="46.5" x2="62.167" y2="17.843"/>
	<line fill="none" stroke="#0000FF" stroke-width="2" x1="30.52" y1="26.37" x2="55.876" y2="26.37"/>
	<line fill="none" stroke="#0000FF" stroke-width="2" x1="37.391" y1="26.37" x2="37.391" y2="38.37"/>
	<line fill="none" stroke="#0000FF" stroke-width="2" x1="48.327" y1="26.37" x2="48.327" y2="38.37"/>
</g>
<g id="Red">
	<line fill="none" stroke="#FF0000" stroke-width="2" x1="62.167" y1="17.843" x2="20.575" y2="17.843"/>
	<line fill="none" stroke="#FF0000" stroke-width="2" x1="20.575" y1="17.843" x2="2.189" y2="32.171"/>
	<line fill="none" stroke="#FF0000" stroke-width="2" x1="2.189" y1="32.171" x2="2.189" y2="46.5"/>
	<line fill="none" stroke="#FF0000" stroke-width="2" x1="2.189" y1="46.5" x2="62.167" y2="46.5"/>
	<line fill="none" stroke="#FF0000" stroke-width="2" x1="62.167" y1="46.5" x2="62.167" y2="17.843"/>
	<line fill="none" stroke="#FF0000" stroke-width="2" x1="30.52" y1="26.37" x2="55.876" y2="26.37"/>
	<line fill="none" stroke="#FF0000" stroke-width="2" x1="37.391" y1="26.37" x2="37.391" y2="38.37"/>
	<line fill="none" stroke="#FF0000" stroke-width="2" x1="48.327" y1="26.37" x2="48.327" y2="38.37"/>
</g>
<g id="White">
	<line fill="none" stroke="#00FF00" stroke-width="2" x1="62.167" y1="17.843" x2="20.575" y2="17.843"/>
	<line fill="none" stroke="#00FF00" stroke-width="2" x1="20.575" y1="17.843" x2="2.189" y2="32.171"/>
	<line fill="none" stroke="#00FF00" stroke-width="2" x1="2.189" y1="32.171" x2="2.189" y2="46.5"/>
	<line fill="none" stroke="#00FF00" stroke-width="2" x1="2.189" y1="46.5" x2="62.167" y2="46.5"/>
	<line fill="none" stroke="#00FF00" stroke-width="2" x1="62.167" y1="46.5" x2="62.167" y2="17.843"/>
	<line fill="none" stroke="#00FF00" stroke-width="2" x1="30.52" y1="26.37" x2="55.876" y2="26.37"/>
	<line fill="none" stroke="#00FF00" stroke-width="2" x1="37.391" y1="26.37" x2="37.391" y2="38.37"/>
	<line fill="none" stroke="#00FF00" stroke-width="2" x1="48.327" y1="26.37" x2="48.327" y2="38.37"/>
</g>
</svg>
