<?xml version="1.0" encoding="utf-8"?>
<!-- Generator: Adobe Illustrator 14.0.0, SVG Export Plug-In . SVG Version: 6.00 Build 43363)  -->
<!DOCTYPE svg PUBLIC "-//W3C//DTD SVG 1.1//EN" "http://www.w3.org/Graphics/SVG/1.1/DTD/svg11.dtd">
<svg version="1.1" id="图层_1" xmlns="http://www.w3.org/2000/svg" xmlns:xlink="http://www.w3.org/1999/xlink" x="0px" y="0px"
	 width="64px" height="64px" viewBox="0 0 64 64" enable-background="new 0 0 64 64" xml:space="preserve">
<g id="Blue">
	<line fill="none" stroke="#0000FF" stroke-width="2" x1="62.167" y1="17.843" x2="20.575" y2="17.843"/>
	<line fill="none" stroke="#0000FF" stroke-width="2" x1="20.575" y1="17.843" x2="2.189" y2="32.171"/>
	<line fill="none" stroke="#0000FF" stroke-width="2" x1="2.189" y1="32.171" x2="2.189" y2="46.5"/>
	<line fill="none" stroke="#0000FF" stroke-width="2" x1="2.189" y1="46.5" x2="62.167" y2="46.5"/>
	<line fill="none" stroke="#0000FF" stroke-width="2" x1="62.167" y1="46.5" x2="62.167" y2="17.843"/>
	<path fill="none" stroke="#FFFF00" d="M46.438,26.931c0,0-1.313-1.438-3.75-1.313c0,0-3.375,0.375-4.75,3.125
		c0,0-1-0.938-3.313-0.813c0,0-2.438-0.125-3.875,2.25c0,0-3.325-0.959-4.637,2.057"/>
	<path fill="none" stroke="#000100" d="M46.438,26.625c0,0-1.313-1.438-3.75-1.313c0,0-3.375,0.375-4.75,3.125
		c0,0-1-0.938-3.313-0.813c0,0-2.438-0.125-3.875,2.25c0,0-3.438-0.654-4.75,2.363"/>
	<path fill="none" stroke="#FFFF00" d="M46.438,37.546c0,0-1.313,1.438-3.75,1.313c0,0-3.375-0.375-4.75-3.125
		c0,0-1,0.938-3.313,0.813c0,0-2.438,0.125-3.875-2.25c0,0-3.325,0.958-4.638-2.058"/>
	<path fill="none" stroke="#000100" d="M46.438,37.851c0,0-1.313,1.438-3.75,1.313c0,0-3.375-0.375-4.75-3.125
		c0,0-1,0.938-3.313,0.813c0,0-2.438,0.125-3.875-2.25c0,0-3.438,0.653-4.75-2.363"/>
</g>
<g id="Red">
	<line fill="none" stroke="#FF0000" stroke-width="2" x1="62.167" y1="17.843" x2="20.575" y2="17.843"/>
	<line fill="none" stroke="#FF0000" stroke-width="2" x1="20.575" y1="17.843" x2="2.189" y2="32.171"/>
	<line fill="none" stroke="#FF0000" stroke-width="2" x1="2.189" y1="32.171" x2="2.189" y2="46.5"/>
	<line fill="none" stroke="#FF0000" stroke-width="2" x1="2.189" y1="46.5" x2="62.167" y2="46.5"/>
	<line fill="none" stroke="#FF0000" stroke-width="2" x1="62.167" y1="46.5" x2="62.167" y2="17.843"/>
	<path fill="none" stroke="#FFFF00" d="M46.438,26.931c0,0-1.313-1.438-3.75-1.313c0,0-3.375,0.375-4.75,3.125
		c0,0-1-0.938-3.313-0.813c0,0-2.438-0.125-3.875,2.25c0,0-3.325-0.959-4.637,2.057"/>
	<path fill="none" stroke="#000100" d="M46.438,26.625c0,0-1.313-1.438-3.75-1.313c0,0-3.375,0.375-4.75,3.125
		c0,0-1-0.938-3.313-0.813c0,0-2.438-0.125-3.875,2.25c0,0-3.438-0.654-4.75,2.363"/>
	<path fill="none" stroke="#FFFF00" d="M46.438,37.546c0,0-1.313,1.438-3.75,1.313c0,0-3.375-0.375-4.75-3.125
		c0,0-1,0.938-3.313,0.813c0,0-2.438,0.125-3.875-2.25c0,0-3.325,0.958-4.638-2.058"/>
	<path fill="none" stroke="#000100" d="M46.438,37.851c0,0-1.313,1.438-3.75,1.313c0,0-3.375-0.375-4.75-3.125
		c0,0-1,0.938-3.313,0.813c0,0-2.438,0.125-3.875-2.25c0,0-3.438,0.653-4.75-2.363"/>
</g>
<g id="White">
	<line fill="none" stroke="#00FF00" stroke-width="2" x1="62.167" y1="17.843" x2="20.575" y2="17.843"/>
	<line fill="none" stroke="#00FF00" stroke-width="2" x1="20.575" y1="17.843" x2="2.189" y2="32.171"/>
	<line fill="none" stroke="#00FF00" stroke-width="2" x1="2.189" y1="32.171" x2="2.189" y2="46.5"/>
	<line fill="none" stroke="#00FF00" stroke-width="2" x1="2.189" y1="46.5" x2="62.167" y2="46.5"/>
	<line fill="none" stroke="#00FF00" stroke-width="2" x1="62.167" y1="46.5" x2="62.167" y2="17.843"/>
	<path fill="none" stroke="#FFFF00" d="M46.438,26.931c0,0-1.313-1.438-3.75-1.313c0,0-3.375,0.375-4.75,3.125
		c0,0-1-0.938-3.313-0.813c0,0-2.438-0.125-3.875,2.25c0,0-3.325-0.959-4.637,2.057"/>
	<path fill="none" stroke="#000100" d="M46.438,26.625c0,0-1.313-1.438-3.75-1.313c0,0-3.375,0.375-4.75,3.125
		c0,0-1-0.938-3.313-0.813c0,0-2.438-0.125-3.875,2.25c0,0-3.438-0.654-4.75,2.363"/>
	<path fill="none" stroke="#FFFF00" d="M46.438,37.546c0,0-1.313,1.438-3.75,1.313c0,0-3.375-0.375-4.75-3.125
		c0,0-1,0.938-3.313,0.813c0,0-2.438,0.125-3.875-2.25c0,0-3.325,0.958-4.638-2.058"/>
	<path fill="none" stroke="#000100" d="M46.438,37.851c0,0-1.313,1.438-3.75,1.313c0,0-3.375-0.375-4.75-3.125
		c0,0-1,0.938-3.313,0.813c0,0-2.438,0.125-3.875-2.25c0,0-3.438,0.653-4.75-2.363"/>
</g>
</svg>
