<?xml version="1.0" encoding="utf-8"?>
<!-- Generator: Adobe Illustrator 14.0.0, SVG Export Plug-In . SVG Version: 6.00 Build 43363)  -->
<!DOCTYPE svg PUBLIC "-//W3C//DTD SVG 1.1//EN" "http://www.w3.org/Graphics/SVG/1.1/DTD/svg11.dtd">
<svg version="1.1" id="图层_1" xmlns="http://www.w3.org/2000/svg" xmlns:xlink="http://www.w3.org/1999/xlink" x="0px" y="0px"
	 width="64px" height="64px" viewBox="0 0 64 64" enable-background="new 0 0 64 64" xml:space="preserve">
<g id="Blue">
	<path fill="none" stroke="#0000FF" stroke-width="2" d="M10.25,18.375c0,0-3.5,4.375-4,13.625c0,0-0.125,7.625-3.75,14.125"/>
	<path fill="none" stroke="#0000FF" stroke-width="2" d="M61.199,18.375c0,0-3.5,4.375-4,13.625c0,0-0.125,7.625-3.75,14.125"/>
	<line fill="none" stroke="#000100" stroke-width="2" x1="24.625" y1="32" x2="51.125" y2="32"/>
</g>
<g id="Red">
	<path fill="none" stroke="#FF0000" stroke-width="2" d="M10.25,18.375c0,0-3.5,4.375-4,13.625c0,0-0.125,7.625-3.75,14.125"/>
	<path fill="none" stroke="#FF0000" stroke-width="2" d="M61.199,18.375c0,0-3.5,4.375-4,13.625c0,0-0.125,7.625-3.75,14.125"/>
	<line fill="none" stroke="#000100" stroke-width="2" x1="24.625" y1="32" x2="51.125" y2="32"/>
</g>
<g id="White">
	<path fill="none" stroke="#00FF00" stroke-width="2" d="M10.25,18.375c0,0-3.5,4.375-4,13.625c0,0-0.125,7.625-3.75,14.125"/>
	<path fill="none" stroke="#00FF00" stroke-width="2" d="M61.199,18.375c0,0-3.5,4.375-4,13.625c0,0-0.125,7.625-3.75,14.125"/>
	<line fill="none" stroke="#000100" stroke-width="2" x1="24.625" y1="32" x2="51.125" y2="32"/>
</g>
</svg>
