<?xml version="1.0" encoding="utf-8"?>
<!-- Generator: Adobe Illustrator 14.0.0, SVG Export Plug-In . SVG Version: 6.00 Build 43363)  -->
<!DOCTYPE svg PUBLIC "-//W3C//DTD SVG 1.1//EN" "http://www.w3.org/Graphics/SVG/1.1/DTD/svg11.dtd">
<svg version="1.1" id="图层_1" xmlns="http://www.w3.org/2000/svg" xmlns:xlink="http://www.w3.org/1999/xlink" x="0px" y="0px"
	 width="64px" height="64px" viewBox="0 0 64 64" enable-background="new 0 0 64 64" xml:space="preserve">
<g id="Blue">
	<rect x="10.75" y="21.875" fill="none" stroke="#0000FF" stroke-width="2" width="40.75" height="41.25"/>
	<path fill="#FFFF00" d="M10.75,21.875c0,0-1.5-19.5,20.375-20.144c0,0,19.75-0.731,20.375,20.144H10.75z"/>
	<path fill="none" stroke="#0000FF" stroke-width="2" d="M10.75,21.875c0,0-1.5-19.5,20.375-20.144c0,0,19.75-0.731,20.375,20.144
		H10.75z"/>
</g>
<g id="Red">
	<rect x="10.75" y="21.875" fill="none" stroke="#FF0000" stroke-width="2" width="40.75" height="41.25"/>
	<path fill="#FFFF00" d="M10.75,21.875c0,0-1.5-19.5,20.375-20.144c0,0,19.75-0.731,20.375,20.144H10.75z"/>
	<path fill="none" stroke="#FF0000" stroke-width="2" d="M10.75,21.875c0,0-1.5-19.5,20.375-20.144c0,0,19.75-0.731,20.375,20.144
		H10.75z"/>
</g>
<g id="White">
	<rect x="10.75" y="21.875" fill="none" stroke="#00FF00" stroke-width="2" width="40.75" height="41.25"/>
	<path fill="#FFFF00" d="M10.75,21.875c0,0-1.5-19.5,20.375-20.144c0,0,19.75-0.731,20.375,20.144H10.75z"/>
	<path fill="none" stroke="#00FF00" stroke-width="2" d="M10.75,21.875c0,0-1.5-19.5,20.375-20.144c0,0,19.75-0.731,20.375,20.144
		H10.75z"/>
</g>
</svg>
