<?xml version="1.0" encoding="utf-8"?>
<!-- Generator: Adobe Illustrator 14.0.0, SVG Export Plug-In . SVG Version: 6.00 Build 43363)  -->
<!DOCTYPE svg PUBLIC "-//W3C//DTD SVG 1.1//EN" "http://www.w3.org/Graphics/SVG/1.1/DTD/svg11.dtd">
<svg version="1.1" id="图层_1" xmlns="http://www.w3.org/2000/svg" xmlns:xlink="http://www.w3.org/1999/xlink" x="0px" y="0px"
	 width="64px" height="64px" viewBox="0 0 64 64" enable-background="new 0 0 64 64" xml:space="preserve">
<g id="Blue">
	<path fill="none" stroke="#0000FF" stroke-width="2" d="M43.243,18.928c0,0-2.721-2.98-7.772-2.721c0,0-6.996,0.777-9.846,6.477
		c0,0-2.073-1.944-6.866-1.685c0,0-5.053-0.259-8.031,4.664c0,0-7.126-1.355-9.845,4.897"/>
	<path fill="none" stroke="#0000FF" stroke-width="2" d="M43.243,42.197c0,0-2.721,2.979-7.772,2.721c0,0-6.996-0.777-9.846-6.478
		c0,0-2.073,1.943-6.866,1.684c0,0-5.053,0.26-8.031-4.663c0,0-7.126,1.354-9.845-4.897"/>
	<line fill="none" stroke="#000100" stroke-width="2" x1="43.243" y1="30.564" x2="62.25" y2="30.564"/>
</g>
<g id="Red">
	<path fill="none" stroke="#FF0000" stroke-width="2" d="M43.243,18.928c0,0-2.721-2.98-7.772-2.721c0,0-6.996,0.777-9.846,6.477
		c0,0-2.073-1.944-6.866-1.685c0,0-5.053-0.259-8.031,4.664c0,0-7.126-1.355-9.845,4.897"/>
	<path fill="none" stroke="#FF0000" stroke-width="2" d="M43.243,42.197c0,0-2.721,2.979-7.772,2.721c0,0-6.996-0.777-9.846-6.478
		c0,0-2.073,1.943-6.866,1.684c0,0-5.053,0.26-8.031-4.663c0,0-7.126,1.354-9.845-4.897"/>
	<line fill="none" stroke="#000100" stroke-width="2" x1="43.243" y1="30.564" x2="62.25" y2="30.564"/>
</g>
<g id="White">
	<path fill="none" stroke="#00FF00" stroke-width="2" d="M43.243,18.928c0,0-2.721-2.98-7.772-2.721c0,0-6.996,0.777-9.846,6.477
		c0,0-2.073-1.944-6.866-1.685c0,0-5.053-0.259-8.031,4.664c0,0-7.126-1.355-9.845,4.897"/>
	<path fill="none" stroke="#00FF00" stroke-width="2" d="M43.243,42.197c0,0-2.721,2.979-7.772,2.721c0,0-6.996-0.777-9.846-6.478
		c0,0-2.073,1.943-6.866,1.684c0,0-5.053,0.26-8.031-4.663c0,0-7.126,1.354-9.845-4.897"/>
	<line fill="none" stroke="#000100" stroke-width="2" x1="43.243" y1="30.564" x2="62.25" y2="30.564"/>
</g>
</svg>
