<?xml version="1.0" encoding="utf-8"?>
<!-- Generator: Adobe Illustrator 14.0.0, SVG Export Plug-In . SVG Version: 6.00 Build 43363)  -->
<!DOCTYPE svg PUBLIC "-//W3C//DTD SVG 1.1//EN" "http://www.w3.org/Graphics/SVG/1.1/DTD/svg11.dtd">
<svg version="1.1" id="图层_1" xmlns="http://www.w3.org/2000/svg" xmlns:xlink="http://www.w3.org/1999/xlink" x="0px" y="0px"
	 width="64px" height="64px" viewBox="0 0 64 64" enable-background="new 0 0 64 64" xml:space="preserve">
<g id="Blue">
	<path fill="none" stroke="#FFFF00" d="M2.269,33.938c0,0,0.051-19.354,29.957-20.498c0,0,26.558-1.634,29.088,20.089
		c0,0,0.736,10.699-9.881,14.701c0,0-3.676,0.326-6.043,0c0,0-4.818-1.144-11.761-1.472c0,0-6.86,0.13-11.842,1.616
		c0,0-6.533,0.229-7.84,0C13.948,48.377,2.269,45.535,2.269,33.938z"/>
	<path fill="none" stroke="#0000FF" d="M1.667,34c0,0,0.052-19.75,30.568-20.917c0,0,27.1-1.667,29.683,20.5
		c0,0,0.751,10.918-10.083,15.001c0,0-3.75,0.334-6.167,0c0,0-4.917-1.166-12-1.5c0,0-7,0.131-12.083,1.648c0,0-6.667,0.231-8,0
		C13.583,48.732,1.666,45.833,1.667,34z"/>
	<path fill="none" stroke="#FFFF00" d="M42.149,26.237c0,0-1.313-1.438-3.75-1.313c0,0-3.375,0.375-4.75,3.125
		c0,0-1-0.938-3.313-0.813c0,0-2.438-0.125-3.875,2.25c0,0-3.325-0.959-4.637,2.057"/>
	<path fill="none" stroke="#000100" d="M42.149,25.931c0,0-1.313-1.438-3.75-1.313c0,0-3.375,0.375-4.75,3.125
		c0,0-1-0.938-3.313-0.813c0,0-2.438-0.125-3.875,2.25c0,0-3.438-0.654-4.75,2.363"/>
	<path fill="none" stroke="#FFFF00" d="M42.149,36.852c0,0-1.313,1.439-3.75,1.314c0,0-3.375-0.375-4.75-3.125
		c0,0-1,0.938-3.313,0.813c0,0-2.438,0.125-3.875-2.25c0,0-3.325,0.957-4.638-2.059"/>
	<path fill="none" stroke="#000100" d="M42.149,37.158c0,0-1.313,1.438-3.75,1.313c0,0-3.375-0.375-4.75-3.125
		c0,0-1,0.938-3.313,0.813c0,0-2.438,0.125-3.875-2.25c0,0-3.438,0.652-4.75-2.363"/>
</g>
<g id="Red">
	<path fill="none" stroke="#FFFF00" d="M2.269,33.938c0,0,0.051-19.354,29.957-20.498c0,0,26.558-1.634,29.088,20.089
		c0,0,0.736,10.699-9.881,14.701c0,0-3.676,0.326-6.043,0c0,0-4.818-1.144-11.761-1.472c0,0-6.86,0.13-11.842,1.616
		c0,0-6.533,0.229-7.84,0C13.948,48.377,2.269,45.535,2.269,33.938z"/>
	<path fill="none" stroke="#FF0000" d="M1.667,34c0,0,0.052-19.75,30.568-20.917c0,0,27.1-1.667,29.683,20.5
		c0,0,0.751,10.918-10.083,15.001c0,0-3.75,0.334-6.167,0c0,0-4.917-1.166-12-1.5c0,0-7,0.131-12.083,1.648c0,0-6.667,0.231-8,0
		C13.583,48.732,1.666,45.833,1.667,34z"/>
	<path fill="none" stroke="#FFFF00" d="M42.149,26.237c0,0-1.313-1.438-3.75-1.313c0,0-3.375,0.375-4.75,3.125
		c0,0-1-0.938-3.313-0.813c0,0-2.438-0.125-3.875,2.25c0,0-3.325-0.959-4.637,2.057"/>
	<path fill="none" stroke="#000100" d="M42.149,25.931c0,0-1.313-1.438-3.75-1.313c0,0-3.375,0.375-4.75,3.125
		c0,0-1-0.938-3.313-0.813c0,0-2.438-0.125-3.875,2.25c0,0-3.438-0.654-4.75,2.363"/>
	<path fill="none" stroke="#FFFF00" d="M42.149,36.852c0,0-1.313,1.439-3.75,1.314c0,0-3.375-0.375-4.75-3.125
		c0,0-1,0.938-3.313,0.813c0,0-2.438,0.125-3.875-2.25c0,0-3.325,0.957-4.638-2.059"/>
	<path fill="none" stroke="#000100" d="M42.149,37.158c0,0-1.313,1.438-3.75,1.313c0,0-3.375-0.375-4.75-3.125
		c0,0-1,0.938-3.313,0.813c0,0-2.438,0.125-3.875-2.25c0,0-3.438,0.652-4.75-2.363"/>
</g>
<g id="White">
	<path fill="none" stroke="#FFFF00" d="M2.269,33.938c0,0,0.051-19.354,29.957-20.498c0,0,26.558-1.634,29.088,20.089
		c0,0,0.736,10.699-9.881,14.701c0,0-3.676,0.326-6.043,0c0,0-4.818-1.144-11.761-1.472c0,0-6.86,0.13-11.842,1.616
		c0,0-6.533,0.229-7.84,0C13.948,48.377,2.269,45.535,2.269,33.938z"/>
	<path fill="none" stroke="#00FF00" d="M1.667,34c0,0,0.052-19.75,30.568-20.917c0,0,27.1-1.667,29.683,20.5
		c0,0,0.751,10.918-10.083,15.001c0,0-3.75,0.334-6.167,0c0,0-4.917-1.166-12-1.5c0,0-7,0.131-12.083,1.648c0,0-6.667,0.231-8,0
		C13.583,48.732,1.666,45.833,1.667,34z"/>
	<path fill="none" stroke="#FFFF00" d="M42.149,26.237c0,0-1.313-1.438-3.75-1.313c0,0-3.375,0.375-4.75,3.125
		c0,0-1-0.938-3.313-0.813c0,0-2.438-0.125-3.875,2.25c0,0-3.325-0.959-4.637,2.057"/>
	<path fill="none" stroke="#000100" d="M42.149,25.931c0,0-1.313-1.438-3.75-1.313c0,0-3.375,0.375-4.75,3.125
		c0,0-1-0.938-3.313-0.813c0,0-2.438-0.125-3.875,2.25c0,0-3.438-0.654-4.75,2.363"/>
	<path fill="none" stroke="#FFFF00" d="M42.149,36.852c0,0-1.313,1.439-3.75,1.314c0,0-3.375-0.375-4.75-3.125
		c0,0-1,0.938-3.313,0.813c0,0-2.438,0.125-3.875-2.25c0,0-3.325,0.957-4.638-2.059"/>
	<path fill="none" stroke="#000100" d="M42.149,37.158c0,0-1.313,1.438-3.75,1.313c0,0-3.375-0.375-4.75-3.125
		c0,0-1,0.938-3.313,0.813c0,0-2.438,0.125-3.875-2.25c0,0-3.438,0.652-4.75-2.363"/>
</g>
</svg>
