<?xml version="1.0" encoding="utf-8"?>
<!-- Generator: Adobe Illustrator 14.0.0, SVG Export Plug-In . SVG Version: 6.00 Build 43363)  -->
<!DOCTYPE svg PUBLIC "-//W3C//DTD SVG 1.1//EN" "http://www.w3.org/Graphics/SVG/1.1/DTD/svg11.dtd">
<svg version="1.1" id="图层_1" xmlns="http://www.w3.org/2000/svg" xmlns:xlink="http://www.w3.org/1999/xlink" x="0px" y="0px"
	 width="64px" height="64px" viewBox="0 0 64 64" enable-background="new 0 0 64 64" xml:space="preserve">
<g id="Red">
	<circle fill="#FFFF00" cx="32" cy="32" r="10.399"/>
	<circle fill="none" stroke="#FF0000" stroke-width="2" cx="32" cy="32" r="10.399"/>
	<line fill="none" stroke="#FF0000" stroke-width="2" x1="3.75" y1="32" x2="16.75" y2="32"/>
	<line fill="none" stroke="#FF0000" stroke-width="2" x1="32" y1="3" x2="32" y2="16"/>
	<line fill="none" stroke="#FF0000" stroke-width="2" x1="32" y1="47.875" x2="32" y2="60.875"/>
	<line fill="none" stroke="#FF0000" stroke-width="2" x1="60.375" y1="32" x2="47.375" y2="32"/>
	<line fill="none" stroke="#FF0000" stroke-width="2" x1="41.5" y1="42.398" x2="22.25" y2="42.398"/>
</g>
<g id="Blue">
	<circle fill="#FFFF00" cx="32" cy="32" r="10.399"/>
	<circle fill="none" stroke="#0000FF" stroke-width="2" cx="32" cy="32" r="10.399"/>
	<line fill="none" stroke="#0000FF" stroke-width="2" x1="3.75" y1="32" x2="16.75" y2="32"/>
	<line fill="none" stroke="#0000FF" stroke-width="2" x1="32" y1="3" x2="32" y2="16"/>
	<line fill="none" stroke="#0000FF" stroke-width="2" x1="32" y1="47.875" x2="32" y2="60.875"/>
	<line fill="none" stroke="#0000FF" stroke-width="2" x1="60.375" y1="32" x2="47.375" y2="32"/>
	<line fill="none" stroke="#0000FF" stroke-width="2" x1="41.5" y1="42.398" x2="22.25" y2="42.398"/>
</g>
<g id="White">
	<circle fill="#FFFF00" cx="32" cy="32" r="10.399"/>
	<circle fill="none" stroke="#00FF00" stroke-width="2" cx="32" cy="32" r="10.399"/>
	<line fill="none" stroke="#00FF00" stroke-width="2" x1="3.75" y1="32" x2="16.75" y2="32"/>
	<line fill="none" stroke="#00FF00" stroke-width="2" x1="32" y1="3" x2="32" y2="16"/>
	<line fill="none" stroke="#00FF00" stroke-width="2" x1="32" y1="47.875" x2="32" y2="60.875"/>
	<line fill="none" stroke="#00FF00" stroke-width="2" x1="60.375" y1="32" x2="47.375" y2="32"/>
	<line fill="none" stroke="#00FF00" stroke-width="2" x1="41.5" y1="42.398" x2="22.25" y2="42.398"/>
</g>
</svg>
