<?xml version="1.0" encoding="utf-8"?>
<!-- Generator: Adobe Illustrator 14.0.0, SVG Export Plug-In . SVG Version: 6.00 Build 43363)  -->
<!DOCTYPE svg PUBLIC "-//W3C//DTD SVG 1.1//EN" "http://www.w3.org/Graphics/SVG/1.1/DTD/svg11.dtd">
<svg version="1.1" id="图层_1" xmlns="http://www.w3.org/2000/svg" xmlns:xlink="http://www.w3.org/1999/xlink" x="0px" y="0px"
	 width="64px" height="64px" viewBox="0 0 64 64" enable-background="new 0 0 64 64" xml:space="preserve">
<g id="Blue">
	<circle fill="#FFFF00" stroke="#FFFF00" stroke-width="2" cx="29.375" cy="17.5" r="14.25"/>
	<circle fill="none" stroke="#0000FF" stroke-width="2" cx="29.313" cy="17.563" r="14.938"/>
	<line fill="none" stroke="#0000FF" stroke-width="2" x1="29.313" y1="32.5" x2="29.313" y2="62.5"/>
	<line fill="none" stroke="#0000FF" stroke-width="2" x1="29.313" y1="62.5" x2="39.875" y2="62.5"/>
	<line fill="none" stroke="#0000FF" stroke-width="2" x1="20.1" y1="29.316" x2="29.313" y2="17.563"/>
	<line fill="none" stroke="#0000FF" stroke-width="2" x1="29.313" y1="17.563" x2="37.344" y2="29.316"/>
</g>
<g id="Red">
	<circle fill="#FFFF00" stroke="#FFFF00" stroke-width="2" cx="29.375" cy="17.5" r="14.25"/>
	<circle fill="none" stroke="#FF0000" stroke-width="2" cx="29.313" cy="17.563" r="14.938"/>
	<line fill="none" stroke="#FF0000" stroke-width="2" x1="29.313" y1="32.5" x2="29.313" y2="62.5"/>
	<line fill="none" stroke="#FF0000" stroke-width="2" x1="29.313" y1="62.5" x2="39.875" y2="62.5"/>
	<line fill="none" stroke="#FF0000" stroke-width="2" x1="20.1" y1="29.316" x2="29.313" y2="17.563"/>
	<line fill="none" stroke="#FF0000" stroke-width="2" x1="29.313" y1="17.563" x2="37.344" y2="29.316"/>
</g>
<g id="White">
	<circle fill="#FFFF00" stroke="#FFFF00" stroke-width="2" cx="29.375" cy="17.5" r="14.25"/>
	<circle fill="none" stroke="#00FF00" stroke-width="2" cx="29.313" cy="17.563" r="14.938"/>
	<line fill="none" stroke="#00FF00" stroke-width="2" x1="29.313" y1="32.5" x2="29.313" y2="62.5"/>
	<line fill="none" stroke="#00FF00" stroke-width="2" x1="29.313" y1="62.5" x2="39.875" y2="62.5"/>
	<line fill="none" stroke="#00FF00" stroke-width="2" x1="20.1" y1="29.316" x2="29.313" y2="17.563"/>
	<line fill="none" stroke="#00FF00" stroke-width="2" x1="29.313" y1="17.563" x2="37.344" y2="29.316"/>
</g>
</svg>
