<?xml version="1.0" encoding="utf-8"?>
<!-- Generator: Adobe Illustrator 14.0.0, SVG Export Plug-In . SVG Version: 6.00 Build 43363)  -->
<!DOCTYPE svg PUBLIC "-//W3C//DTD SVG 1.1//EN" "http://www.w3.org/Graphics/SVG/1.1/DTD/svg11.dtd">
<svg version="1.1" id="图层_1" xmlns="http://www.w3.org/2000/svg" xmlns:xlink="http://www.w3.org/1999/xlink" x="0px" y="0px"
	 width="64px" height="64px" viewBox="0 0 64 64" enable-background="new 0 0 64 64" xml:space="preserve">
<g id="Blue">
	<line fill="none" stroke="#0000FF" stroke-width="2" x1="61.5" y1="16.25" x2="20.5" y2="16.25"/>
	<line fill="none" stroke="#0000FF" stroke-width="2" x1="20.5" y1="16.25" x2="2.375" y2="30.375"/>
	<line fill="none" stroke="#0000FF" stroke-width="2" x1="2.375" y1="30.375" x2="2.375" y2="44.5"/>
	<line fill="none" stroke="#0000FF" stroke-width="2" x1="2.375" y1="44.5" x2="61.5" y2="44.5"/>
	<line fill="none" stroke="#0000FF" stroke-width="2" x1="61.5" y1="44.5" x2="61.5" y2="16.25"/>
	<circle fill="none" stroke="#0000FF" stroke-width="2" cx="38.875" cy="26.125" r="5.063"/>
	<line fill="none" stroke="#0000FF" stroke-width="2" x1="38.875" y1="31.188" x2="38.875" y2="41.5"/>
	<line fill="none" stroke="#0000FF" stroke-width="2" x1="38.875" y1="41.5" x2="43.188" y2="41.5"/>
</g>
<g id="Red">
	<line fill="none" stroke="#FF0000" stroke-width="2" x1="61.5" y1="16.25" x2="20.5" y2="16.25"/>
	<line fill="none" stroke="#FF0000" stroke-width="2" x1="20.5" y1="16.25" x2="2.375" y2="30.375"/>
	<line fill="none" stroke="#FF0000" stroke-width="2" x1="2.375" y1="30.375" x2="2.375" y2="44.5"/>
	<line fill="none" stroke="#FF0000" stroke-width="2" x1="2.375" y1="44.5" x2="61.5" y2="44.5"/>
	<line fill="none" stroke="#FF0000" stroke-width="2" x1="61.5" y1="44.5" x2="61.5" y2="16.25"/>
	<circle fill="none" stroke="#FF0000" stroke-width="2" cx="38.875" cy="26.125" r="5.063"/>
	<line fill="none" stroke="#FF0000" stroke-width="2" x1="38.875" y1="31.188" x2="38.875" y2="41.5"/>
	<line fill="none" stroke="#FF0000" stroke-width="2" x1="38.875" y1="41.5" x2="43.188" y2="41.5"/>
</g>
<g id="White">
	<line fill="none" stroke="#00FF00" stroke-width="2" x1="61.5" y1="16.25" x2="20.5" y2="16.25"/>
	<line fill="none" stroke="#00FF00" stroke-width="2" x1="20.5" y1="16.25" x2="2.375" y2="30.375"/>
	<line fill="none" stroke="#00FF00" stroke-width="2" x1="2.375" y1="30.375" x2="2.375" y2="44.5"/>
	<line fill="none" stroke="#00FF00" stroke-width="2" x1="2.375" y1="44.5" x2="61.5" y2="44.5"/>
	<line fill="none" stroke="#00FF00" stroke-width="2" x1="61.5" y1="44.5" x2="61.5" y2="16.25"/>
	<circle fill="none" stroke="#00FF00" stroke-width="2" cx="38.875" cy="26.125" r="5.063"/>
	<line fill="none" stroke="#00FF00" stroke-width="2" x1="38.875" y1="31.188" x2="38.875" y2="41.5"/>
	<line fill="none" stroke="#00FF00" stroke-width="2" x1="38.875" y1="41.5" x2="43.188" y2="41.5"/>
</g>
</svg>
