<?xml version="1.0" encoding="utf-8"?>
<!-- Generator: Adobe Illustrator 14.0.0, SVG Export Plug-In . SVG Version: 6.00 Build 43363)  -->
<!DOCTYPE svg PUBLIC "-//W3C//DTD SVG 1.1//EN" "http://www.w3.org/Graphics/SVG/1.1/DTD/svg11.dtd">
<svg version="1.1" id="图层_1" xmlns="http://www.w3.org/2000/svg" xmlns:xlink="http://www.w3.org/1999/xlink" x="0px" y="0px"
	 width="64px" height="64px" viewBox="0 0 64 64" enable-background="new 0 0 64 64" xml:space="preserve">
<g id="Blue">
	<line fill="none" stroke="#0000FF" stroke-width="2" x1="62.5" y1="20" x2="20.75" y2="20"/>
	<line fill="none" stroke="#0000FF" stroke-width="2" x1="20.75" y1="20" x2="2.25" y2="34"/>
	<line fill="none" stroke="#0000FF" stroke-width="2" x1="2.25" y1="34" x2="2.25" y2="48.625"/>
	<line fill="none" stroke="#0000FF" stroke-width="2" x1="2.25" y1="48.625" x2="62.5" y2="48.625"/>
	<line fill="none" stroke="#0000FF" stroke-width="2" x1="62.5" y1="48.625" x2="62.5" y2="20"/>
	<line fill="none" stroke="#0000FF" stroke-width="2" x1="30.375" y1="28.5" x2="33.156" y2="25.719"/>
	<line fill="none" stroke="#0000FF" stroke-width="2" x1="33.156" y1="25.719" x2="47.125" y2="41.813"/>
	<line fill="none" stroke="#0000FF" stroke-width="2" x1="33.156" y1="41.813" x2="47.125" y2="25.719"/>
	<line fill="none" stroke="#0000FF" stroke-width="2" x1="47.125" y1="25.719" x2="49.875" y2="28.938"/>
	<line fill="none" stroke="#0000FF" stroke-width="2" x1="45" y1="20" x2="51" y2="11.625"/>
	<line fill="none" stroke="#0000FF" stroke-width="2" x1="34.405" y1="20" x2="28.405" y2="11.625"/>
</g>
<g id="Red">
	<line fill="none" stroke="#FF0000" stroke-width="2" x1="62.5" y1="20" x2="20.75" y2="20"/>
	<line fill="none" stroke="#FF0000" stroke-width="2" x1="20.75" y1="20" x2="2.25" y2="34"/>
	<line fill="none" stroke="#FF0000" stroke-width="2" x1="2.25" y1="34" x2="2.25" y2="48.625"/>
	<line fill="none" stroke="#FF0000" stroke-width="2" x1="2.25" y1="48.625" x2="62.5" y2="48.625"/>
	<line fill="none" stroke="#FF0000" stroke-width="2" x1="62.5" y1="48.625" x2="62.5" y2="20"/>
	<line fill="none" stroke="#FF0000" stroke-width="2" x1="30.375" y1="28.5" x2="33.156" y2="25.719"/>
	<line fill="none" stroke="#FF0000" stroke-width="2" x1="33.156" y1="25.719" x2="47.125" y2="41.813"/>
	<line fill="none" stroke="#FF0000" stroke-width="2" x1="33.156" y1="41.813" x2="47.125" y2="25.719"/>
	<line fill="none" stroke="#FF0000" stroke-width="2" x1="47.125" y1="25.719" x2="49.875" y2="28.938"/>
	<line fill="none" stroke="#FF0000" stroke-width="2" x1="45" y1="20" x2="51" y2="11.625"/>
	<line fill="none" stroke="#FF0000" stroke-width="2" x1="34.405" y1="20" x2="28.405" y2="11.625"/>
</g>
<g id="White">
	<line fill="none" stroke="#00FF00" stroke-width="2" x1="62.5" y1="20" x2="20.75" y2="20"/>
	<line fill="none" stroke="#00FF00" stroke-width="2" x1="20.75" y1="20" x2="2.25" y2="34"/>
	<line fill="none" stroke="#00FF00" stroke-width="2" x1="2.25" y1="34" x2="2.25" y2="48.625"/>
	<line fill="none" stroke="#00FF00" stroke-width="2" x1="2.25" y1="48.625" x2="62.5" y2="48.625"/>
	<line fill="none" stroke="#00FF00" stroke-width="2" x1="62.5" y1="48.625" x2="62.5" y2="20"/>
	<line fill="none" stroke="#00FF00" stroke-width="2" x1="30.375" y1="28.5" x2="33.156" y2="25.719"/>
	<line fill="none" stroke="#00FF00" stroke-width="2" x1="33.156" y1="25.719" x2="47.125" y2="41.813"/>
	<line fill="none" stroke="#00FF00" stroke-width="2" x1="33.156" y1="41.813" x2="47.125" y2="25.719"/>
	<line fill="none" stroke="#00FF00" stroke-width="2" x1="47.125" y1="25.719" x2="49.875" y2="28.938"/>
	<line fill="none" stroke="#00FF00" stroke-width="2" x1="45" y1="20" x2="51" y2="11.625"/>
	<line fill="none" stroke="#00FF00" stroke-width="2" x1="34.405" y1="20" x2="28.405" y2="11.625"/>
</g>
</svg>
