<?xml version="1.0" encoding="utf-8"?>
<!-- Generator: Adobe Illustrator 13.0.0, SVG Export Plug-In . SVG Version: 6.00 Build 14948)  -->
<!DOCTYPE svg PUBLIC "-//W3C//DTD SVG 1.1//EN" "http://www.w3.org/Graphics/SVG/1.1/DTD/svg11.dtd">
<svg version="1.1" xmlns="http://www.w3.org/2000/svg" xmlns:xlink="http://www.w3.org/1999/xlink" x="0px" y="0px"
	 width="18.667px" height="47.169px" viewBox="0 0 18.667 47.169" enable-background="new 0 0 18.667 47.169" xml:space="preserve">
<g id="Blue">
	<polygon fill="#0000FF" points="0,16.667 0,14.333 18.667,0 18.667,16.75 	"/>
	<polygon fill="#0000FF" points="0,16.65 0.084,47.169 18.667,47.169 18.667,16.333 16.917,16.333 16.917,45.504 1.417,45.504 
		1.417,16.625 	"/>
	<polyline fill="#0000FF" points="4.667,19.917 4.667,21.167 7.833,21.167 7.833,32 5.833,30.208 8.125,40.167 11.125,30.417 
		9.125,32.25 9.125,21.25 12.417,21.25 12.412,19.828 4.708,19.75 	"/>
</g>
<g id="Red">
	<polygon fill="#FF0000" points="0,16.667 0,14.333 18.667,0 18.667,16.75 	"/>
	<polygon fill="#FF0000" points="0,16.65 0.084,47.169 18.667,47.169 18.667,16.333 16.917,16.333 16.917,45.504 1.417,45.504 
		1.417,16.625 	"/>
	<polyline fill="#FF0000" points="4.667,19.917 4.667,21.167 7.833,21.167 7.833,32 5.833,30.208 8.125,40.167 11.125,30.417 
		9.125,32.25 9.125,21.25 12.417,21.25 12.412,19.828 4.708,19.75 	"/>
</g>
<g id="White">
	<polygon fill="#00FF00" points="0,16.667 0,14.333 18.667,0 18.667,16.75 	"/>
	<polygon fill="#00FF00" points="0,16.65 0.084,47.169 18.667,47.169 18.667,16.333 16.917,16.333 16.917,45.504 1.417,45.504 
		1.417,16.625 	"/>
	<polyline fill="#00FF00" points="4.667,19.917 4.667,21.167 7.833,21.167 7.833,32 5.833,30.208 8.125,40.167 11.125,30.417 
		9.125,32.25 9.125,21.25 12.417,21.25 12.412,19.828 4.708,19.75 	"/>
</g>
</svg>
