<?xml version="1.0" encoding="utf-8"?>
<!-- Generator: Adobe Illustrator 14.0.0, SVG Export Plug-In . SVG Version: 6.00 Build 43363)  -->
<!DOCTYPE svg PUBLIC "-//W3C//DTD SVG 1.1//EN" "http://www.w3.org/Graphics/SVG/1.1/DTD/svg11.dtd">
<svg version="1.1" id="图层_1" xmlns="http://www.w3.org/2000/svg" xmlns:xlink="http://www.w3.org/1999/xlink" x="0px" y="0px"
	 width="64px" height="64px" viewBox="0 0 64 64" enable-background="new 0 0 64 64" xml:space="preserve">
<g id="Blue">
	<path fill="none" stroke-width="2" stroke="#0000FF" d="M62.334,34.166c0,6.627-5.373,12-12,12H12.917C6.29,46.166,2,40.793,2,34.166V33
		c0-6.627,4.289-12,10.917-12h37.417c6.627,0,12,5.373,12,12V34.166z"/>
</g>
<g id="Red">
	<path fill="none" stroke-width="2" stroke="#FF0000" d="M62.334,34.166c0,6.627-5.373,12-12,12H12.917C6.29,46.166,2,40.793,2,34.166V33
		c0-6.627,4.289-12,10.917-12h37.417c6.627,0,12,5.373,12,12V34.166z"/>
</g>
<g id="White">
	<path fill="none" stroke-width="2" stroke="#00FF00" d="M62.334,34.166c0,6.627-5.373,12-12,12H12.917C6.29,46.166,2,40.793,2,34.166V33
		c0-6.627,4.289-12,10.917-12h37.417c6.627,0,12,5.373,12,12V34.166z"/>
</g>
</svg>
