<?xml version="1.0" encoding="utf-8"?>
<!-- Generator: Adobe Illustrator 14.0.0, SVG Export Plug-In . SVG Version: 6.00 Build 43363)  -->
<!DOCTYPE svg PUBLIC "-//W3C//DTD SVG 1.1//EN" "http://www.w3.org/Graphics/SVG/1.1/DTD/svg11.dtd">
<svg version="1.1" id="图层_1" xmlns="http://www.w3.org/2000/svg" xmlns:xlink="http://www.w3.org/1999/xlink" x="0px" y="0px"
	 width="64px" height="64px" viewBox="0 0 64 64" enable-background="new 0 0 64 64" xml:space="preserve">
<g id="Blue">
	<line fill="none" stroke-width="2" stroke="#0000FF" x1="38.813" y1="27.25" x2="38.813" y2="32.938"/>
	<line fill="none" stroke-width="2" stroke="#0000FF" x1="39.297" y1="32.938" x2="24.375" y2="32.938"/>
	<line fill="none" stroke-width="2" stroke="#0000FF" x1="24.719" y1="33.031" x2="21.25" y2="29.688"/>
	<line fill="none" stroke-width="2" stroke="#0000FF" x1="21.094" y1="30.234" x2="24.519" y2="27.303"/>
	<line fill="none" stroke-width="2" stroke="#0000FF" x1="24.188" y1="27.375" x2="39.297" y2="27.375"/>
	<line fill="none" stroke-width="2" stroke="#0000FF" x1="21.477" y1="29.906" x2="6.156" y2="29.906"/>
	<path fill="none" stroke-width="2" stroke="#0000FF" stroke-miterlimit="1" d="M41.417,30.06c0,0,10.399-8.731,21.374,0.161
		C62.791,30.22,52.248,39.805,41.417,30.06z"/>
	<rect x="49.156" y="28.531" fill="none" stroke="#0000FF" width="6.219" height="3.094"/>
	<line fill="none" stroke="#0000FF" x1="52.266" y1="28.531" x2="52.266" y2="31.625"/>
	<polygon fill="#0000FF" points="6.156,29.979 7.792,32.479 0.229,29.906 7.792,27.25 	"/>
</g>
<g id="Red">
	<line fill="none" stroke-width="2" stroke="#FF0000" x1="38.813" y1="27.25" x2="38.813" y2="32.938"/>
	<line fill="none" stroke-width="2" stroke="#FF0000" x1="39.297" y1="32.938" x2="24.375" y2="32.938"/>
	<line fill="none" stroke-width="2" stroke="#FF0000" x1="24.719" y1="33.031" x2="21.25" y2="29.688"/>
	<line fill="none" stroke-width="2" stroke="#FF0000" x1="21.094" y1="30.234" x2="24.519" y2="27.303"/>
	<line fill="none" stroke-width="2" stroke="#FF0000" x1="24.188" y1="27.375" x2="39.297" y2="27.375"/>
	<line fill="none" stroke-width="2" stroke="#FF0000" x1="21.477" y1="29.906" x2="6.156" y2="29.906"/>
	<path fill="none" stroke-width="2" stroke="#FF0000" stroke-miterlimit="1" d="M41.417,30.06c0,0,10.399-8.731,21.374,0.161
		C62.791,30.22,52.248,39.805,41.417,30.06z"/>
	<rect x="49.156" y="28.531" fill="none" stroke="#FF0000" width="6.219" height="3.094"/>
	<line fill="none" stroke="#FF0000" x1="52.266" y1="28.531" x2="52.266" y2="31.625"/>
	<polygon fill="#FF0000" points="6.156,29.979 7.792,32.479 0.229,29.906 7.792,27.25 	"/>
</g>
<g id="White">
	<line fill="none" stroke-width="2" stroke="#00FF00" x1="38.813" y1="27.25" x2="38.813" y2="32.938"/>
	<line fill="none" stroke-width="2" stroke="#00FF00" x1="39.297" y1="32.938" x2="24.375" y2="32.938"/>
	<line fill="none" stroke-width="2" stroke="#00FF00" x1="24.719" y1="33.031" x2="21.25" y2="29.688"/>
	<line fill="none" stroke-width="2" stroke="#00FF00" x1="21.094" y1="30.234" x2="24.519" y2="27.303"/>
	<line fill="none" stroke-width="2" stroke="#00FF00" x1="24.188" y1="27.375" x2="39.297" y2="27.375"/>
	<line fill="none" stroke-width="2" stroke="#00FF00" x1="21.477" y1="29.906" x2="6.156" y2="29.906"/>
	<path fill="none" stroke-width="2" stroke="#00FF00" stroke-miterlimit="1" d="M41.417,30.06c0,0,10.399-8.731,21.374,0.161
		C62.791,30.22,52.248,39.805,41.417,30.06z"/>
	<rect x="49.156" y="28.531" fill="none" stroke="#00FF00" width="6.219" height="3.094"/>
	<line fill="none" stroke="#00FF00" x1="52.266" y1="28.531" x2="52.266" y2="31.625"/>
	<polygon fill="#00FF00" points="6.156,29.979 7.792,32.479 0.229,29.906 7.792,27.25 	"/>
</g>
</svg>
