<?xml version="1.0" encoding="utf-8"?>
<!-- Generator: Adobe Illustrator 14.0.0, SVG Export Plug-In . SVG Version: 6.00 Build 43363)  -->
<!DOCTYPE svg PUBLIC "-//W3C//DTD SVG 1.1//EN" "http://www.w3.org/Graphics/SVG/1.1/DTD/svg11.dtd">
<svg version="1.1" id="图层_1" xmlns="http://www.w3.org/2000/svg" xmlns:xlink="http://www.w3.org/1999/xlink" x="0px" y="0px"
	 width="64px" height="64px" viewBox="0 0 64 64" enable-background="new 0 0 64 64" xml:space="preserve">
<g id="Blue">
	<rect x="2" y="16.333" fill="none" stroke-width="2" stroke="#0000FF" width="60.417" height="31.5"/>
	<path fill="none" stroke-width="2" stroke="#0000FF" d="M15.083,32.083c0,0,16.833-14.75,35.417,0"/>
	<path fill="none" stroke-width="2" stroke="#0000FF" d="M50.501,31.527c0,0-16.834,14.75-35.417,0"/>
	<rect x="25.667" y="29.25" fill="none" stroke-width="2" stroke="#0000FF" width="13.417" height="6"/>
	<line fill="none" stroke-width="2" stroke="#0000FF" x1="32.375" y1="29.25" x2="32.375" y2="35.25"/>
</g>
<g id="Red">
	<rect x="2" y="16.333" fill="none" stroke-width="2" stroke="#FF0000" width="60.417" height="31.5"/>
	<path fill="none" stroke-width="2" stroke="#FF0000" d="M15.083,32.083c0,0,16.833-14.75,35.417,0"/>
	<path fill="none" stroke-width="2" stroke="#FF0000" d="M50.501,31.527c0,0-16.834,14.75-35.417,0"/>
	<rect x="25.667" y="29.25" fill="none" stroke-width="2" stroke="#FF0000" width="13.417" height="6"/>
	<line fill="none" stroke-width="2" stroke="#FF0000" x1="32.375" y1="29.25" x2="32.375" y2="35.25"/>
</g>
<g id="White">
	<rect x="2" y="16.333" fill="none" stroke-width="2" stroke="#00FF00" width="60.417" height="31.5"/>
	<path fill="none" stroke-width="2" stroke="#00FF00" d="M15.083,32.083c0,0,16.833-14.75,35.417,0"/>
	<path fill="none" stroke-width="2" stroke="#00FF00" d="M50.501,31.527c0,0-16.834,14.75-35.417,0"/>
	<rect x="25.667" y="29.25" fill="none" stroke-width="2" stroke="#00FF00" width="13.417" height="6"/>
	<line fill="none" stroke-width="2" stroke="#00FF00" x1="32.375" y1="29.25" x2="32.375" y2="35.25"/>
</g>
</svg>
