<?xml version="1.0" encoding="utf-8"?>
<!-- Generator: Adobe Illustrator 14.0.0, SVG Export Plug-In . SVG Version: 6.00 Build 43363)  -->
<!DOCTYPE svg PUBLIC "-//W3C//DTD SVG 1.1//EN" "http://www.w3.org/Graphics/SVG/1.1/DTD/svg11.dtd">
<svg version="1.1" id="图层_1" xmlns="http://www.w3.org/2000/svg" xmlns:xlink="http://www.w3.org/1999/xlink" x="0px" y="0px"
	 width="64px" height="64px" viewBox="0 0 64 64" enable-background="new 0 0 64 64" xml:space="preserve">
<g id="Blue">
	<line fill="none" stroke-width="2" stroke="#FFFF00" x1="34.684" y1="22.113" x2="55.311" y2="22.127"/>
	<polygon fill="none" stroke-width="2" stroke="#FFFF00" points="3.89,21.054 28.954,21.054 28.954,11.687 12.18,11.687 	"/>
	<line fill="none" stroke-width="2" stroke="#FFFF00" x1="44.188" y1="35.875" x2="38.145" y2="16.153"/>
	<line fill="none" stroke-width="2" stroke="#FFFF00" x1="45.75" y1="40.75" x2="56.618" y2="58.646"/>
	<line fill="none" stroke-width="2" stroke="#FFFF00" x1="56.618" y1="58.646" x2="47.227" y2="62.072"/>
	<line fill="none" stroke-width="2" stroke="#FFFF00" x1="47.227" y1="62.072" x2="45.75" y2="40.75"/>
	<line fill="none" stroke-width="2" stroke="#0000FF" x1="34.79" y1="21.766" x2="55.417" y2="21.78"/>
	<polygon fill="#0000FF" points="55.82,21.904 53.846,20.186 61.882,21.479 54.18,23.46 	"/>
	<polygon fill="#0000FF" points="37.779,15.731 36.719,18.125 35.596,10.063 39.75,16.844 	"/>
	<circle fill="none" stroke-width="2" stroke="#0000FF" cx="26.406" cy="18.781" r="16.656"/>
	<line fill="none" stroke-width="2" stroke="#0000FF" x1="20.512" y1="3.239" x2="10.758" y2="13.132"/>
	<line fill="none" stroke-width="2" stroke="#0000FF" x1="24.647" y1="2.157" x2="9.867" y2="17.076"/>
	<line fill="none" stroke-width="2" stroke="#0000FF" x1="27.668" y1="2.188" x2="9.821" y2="20.175"/>
	<line fill="none" stroke-width="2" stroke="#0000FF" x1="30.317" y1="2.589" x2="10.252" y2="22.794"/>
	<line fill="none" stroke-width="2" stroke="#0000FF" x1="32.641" y1="3.319" x2="10.997" y2="25.103"/>
	<line fill="none" stroke-width="2" stroke="#0000FF" x1="34.684" y1="4.329" x2="12.019" y2="27.133"/>
	<line fill="none" stroke-width="2" stroke="#0000FF" x1="36.523" y1="5.541" x2="13.229" y2="28.974"/>
	<line fill="none" stroke-width="2" stroke="#0000FF" x1="38.145" y1="6.973" x2="14.664" y2="30.593"/>
	<line fill="none" stroke-width="2" stroke="#0000FF" x1="39.574" y1="8.596" x2="16.302" y2="32.006"/>
	<line fill="none" stroke-width="2" stroke="#0000FF" x1="40.803" y1="10.419" x2="18.134" y2="33.229"/>
	<line fill="none" stroke-width="2" stroke="#0000FF" x1="41.797" y1="12.476" x2="20.184" y2="34.229"/>
	<line fill="none" stroke-width="2" stroke="#0000FF" x1="42.596" y1="14.73" x2="22.495" y2="34.971"/>
	<line fill="none" stroke-width="2" stroke="#0000FF" x1="42.998" y1="17.38" x2="25.139" y2="35.381"/>
	<line fill="none" stroke-width="2" stroke="#0000FF" x1="42.992" y1="20.438" x2="28.198" y2="35.373"/>
	<line fill="none" stroke-width="2" stroke="#0000FF" x1="42.182" y1="24.3" x2="32.228" y2="34.396"/>
	<polygon fill="none" stroke-width="2" stroke="#0000FF" points="2.75,21.823 29.468,21.823 29.468,11.181 11.587,11.181 	"/>
	<line fill="none" stroke-width="2" stroke="#0000FF" x1="43.824" y1="35.875" x2="37.779" y2="16.154"/>
	<line fill="none" stroke-width="2" stroke="#0000FF" x1="45.5" y1="40" x2="57" y2="58.938"/>
	<line fill="none" stroke-width="2" stroke="#0000FF" x1="57" y1="58.938" x2="47.063" y2="62.563"/>
	<line fill="none" stroke-width="2" stroke="#0000FF" x1="47.063" y1="62.563" x2="45.5" y2="40"/>
	<circle fill="none" stroke-width="2" stroke="#0000FF" cx="50.609" cy="55.422" r="1.984"/>
</g>
<g id="Red">
	<line fill="none" stroke-width="2" stroke="#FFFF00" x1="34.684" y1="22.113" x2="55.311" y2="22.127"/>
	<polygon fill="none" stroke-width="2" stroke="#FFFF00" points="3.89,21.054 28.954,21.054 28.954,11.687 12.18,11.687 	"/>
	<line fill="none" stroke-width="2" stroke="#FFFF00" x1="44.188" y1="35.875" x2="38.145" y2="16.153"/>
	<line fill="none" stroke-width="2" stroke="#FFFF00" x1="45.75" y1="40.75" x2="56.618" y2="58.646"/>
	<line fill="none" stroke-width="2" stroke="#FFFF00" x1="56.618" y1="58.646" x2="47.227" y2="62.072"/>
	<line fill="none" stroke-width="2" stroke="#FFFF00" x1="47.227" y1="62.072" x2="45.75" y2="40.75"/>
	<line fill="none" stroke-width="2" stroke="#FF0000" x1="34.79" y1="21.766" x2="55.417" y2="21.78"/>
	<polygon fill="#FF0000" points="55.82,21.904 53.846,20.186 61.882,21.479 54.18,23.46 	"/>
	<polygon fill="#FF0000" points="37.779,15.731 36.719,18.125 35.596,10.063 39.75,16.844 	"/>
	<circle fill="none" stroke-width="2" stroke="#FF0000" cx="26.406" cy="18.781" r="16.656"/>
	<line fill="none" stroke-width="2" stroke="#FF0000" x1="20.512" y1="3.239" x2="10.758" y2="13.132"/>
	<line fill="none" stroke-width="2" stroke="#FF0000" x1="24.647" y1="2.157" x2="9.867" y2="17.076"/>
	<line fill="none" stroke-width="2" stroke="#FF0000" x1="27.668" y1="2.188" x2="9.821" y2="20.175"/>
	<line fill="none" stroke-width="2" stroke="#FF0000" x1="30.317" y1="2.589" x2="10.252" y2="22.794"/>
	<line fill="none" stroke-width="2" stroke="#FF0000" x1="32.641" y1="3.319" x2="10.997" y2="25.103"/>
	<line fill="none" stroke-width="2" stroke="#FF0000" x1="34.684" y1="4.329" x2="12.019" y2="27.133"/>
	<line fill="none" stroke-width="2" stroke="#FF0000" x1="36.523" y1="5.541" x2="13.229" y2="28.974"/>
	<line fill="none" stroke-width="2" stroke="#FF0000" x1="38.145" y1="6.973" x2="14.664" y2="30.593"/>
	<line fill="none" stroke-width="2" stroke="#FF0000" x1="39.574" y1="8.596" x2="16.302" y2="32.006"/>
	<line fill="none" stroke-width="2" stroke="#FF0000" x1="40.803" y1="10.419" x2="18.134" y2="33.229"/>
	<line fill="none" stroke-width="2" stroke="#FF0000" x1="41.797" y1="12.476" x2="20.184" y2="34.229"/>
	<line fill="none" stroke-width="2" stroke="#FF0000" x1="42.596" y1="14.73" x2="22.495" y2="34.971"/>
	<line fill="none" stroke-width="2" stroke="#FF0000" x1="42.998" y1="17.38" x2="25.139" y2="35.381"/>
	<line fill="none" stroke-width="2" stroke="#FF0000" x1="42.992" y1="20.438" x2="28.198" y2="35.373"/>
	<line fill="none" stroke-width="2" stroke="#FF0000" x1="42.182" y1="24.3" x2="32.228" y2="34.396"/>
	<polygon fill="none" stroke-width="2" stroke="#FF0000" points="2.75,21.823 29.468,21.823 29.468,11.181 11.587,11.181 	"/>
	<line fill="none" stroke-width="2" stroke="#FF0000" x1="43.824" y1="35.875" x2="37.779" y2="16.154"/>
	<line fill="none" stroke-width="2" stroke="#FF0000" x1="45.5" y1="40" x2="57" y2="58.938"/>
	<line fill="none" stroke-width="2" stroke="#FF0000" x1="57" y1="58.938" x2="47.063" y2="62.563"/>
	<line fill="none" stroke-width="2" stroke="#FF0000" x1="47.063" y1="62.563" x2="45.5" y2="40"/>
	<circle fill="none" stroke-width="2" stroke="#FF0000" cx="50.609" cy="55.422" r="1.984"/>
</g>
<g id="White">
	<line fill="none" stroke-width="2" stroke="#FFFF00" x1="34.684" y1="22.113" x2="55.311" y2="22.127"/>
	<polygon fill="none" stroke-width="2" stroke="#FFFF00" points="3.89,21.054 28.954,21.054 28.954,11.687 12.18,11.687 	"/>
	<line fill="none" stroke-width="2" stroke="#FFFF00" x1="44.188" y1="35.875" x2="38.145" y2="16.153"/>
	<line fill="none" stroke-width="2" stroke="#FFFF00" x1="45.75" y1="40.75" x2="56.618" y2="58.646"/>
	<line fill="none" stroke-width="2" stroke="#FFFF00" x1="56.618" y1="58.646" x2="47.227" y2="62.072"/>
	<line fill="none" stroke-width="2" stroke="#FFFF00" x1="47.227" y1="62.072" x2="45.75" y2="40.75"/>
	<line fill="none" stroke-width="2" stroke="#00FF00" x1="34.79" y1="21.766" x2="55.417" y2="21.78"/>
	<polygon fill="#00FF00" points="55.82,21.904 53.846,20.186 61.882,21.479 54.18,23.46 	"/>
	<polygon fill="#00FF00" points="37.779,15.731 36.719,18.125 35.596,10.063 39.75,16.844 	"/>
	<circle fill="none" stroke-width="2" stroke="#00FF00" cx="26.406" cy="18.781" r="16.656"/>
	<line fill="none" stroke-width="2" stroke="#00FF00" x1="20.512" y1="3.239" x2="10.758" y2="13.132"/>
	<line fill="none" stroke-width="2" stroke="#00FF00" x1="24.647" y1="2.157" x2="9.867" y2="17.076"/>
	<line fill="none" stroke-width="2" stroke="#00FF00" x1="27.668" y1="2.188" x2="9.821" y2="20.175"/>
	<line fill="none" stroke-width="2" stroke="#00FF00" x1="30.317" y1="2.589" x2="10.252" y2="22.794"/>
	<line fill="none" stroke-width="2" stroke="#00FF00" x1="32.641" y1="3.319" x2="10.997" y2="25.103"/>
	<line fill="none" stroke-width="2" stroke="#00FF00" x1="34.684" y1="4.329" x2="12.019" y2="27.133"/>
	<line fill="none" stroke-width="2" stroke="#00FF00" x1="36.523" y1="5.541" x2="13.229" y2="28.974"/>
	<line fill="none" stroke-width="2" stroke="#00FF00" x1="38.145" y1="6.973" x2="14.664" y2="30.593"/>
	<line fill="none" stroke-width="2" stroke="#00FF00" x1="39.574" y1="8.596" x2="16.302" y2="32.006"/>
	<line fill="none" stroke-width="2" stroke="#00FF00" x1="40.803" y1="10.419" x2="18.134" y2="33.229"/>
	<line fill="none" stroke-width="2" stroke="#00FF00" x1="41.797" y1="12.476" x2="20.184" y2="34.229"/>
	<line fill="none" stroke-width="2" stroke="#00FF00" x1="42.596" y1="14.73" x2="22.495" y2="34.971"/>
	<line fill="none" stroke-width="2" stroke="#00FF00" x1="42.998" y1="17.38" x2="25.139" y2="35.381"/>
	<line fill="none" stroke-width="2" stroke="#00FF00" x1="42.992" y1="20.438" x2="28.198" y2="35.373"/>
	<line fill="none" stroke-width="2" stroke="#00FF00" x1="42.182" y1="24.3" x2="32.228" y2="34.396"/>
	<polygon fill="none" stroke-width="2" stroke="#00FF00" points="2.75,21.823 29.468,21.823 29.468,11.181 11.587,11.181 	"/>
	<line fill="none" stroke-width="2" stroke="#00FF00" x1="43.824" y1="35.875" x2="37.779" y2="16.154"/>
	<line fill="none" stroke-width="2" stroke="#00FF00" x1="45.5" y1="40" x2="57" y2="58.938"/>
	<line fill="none" stroke-width="2" stroke="#00FF00" x1="57" y1="58.938" x2="47.063" y2="62.563"/>
	<line fill="none" stroke-width="2" stroke="#00FF00" x1="47.063" y1="62.563" x2="45.5" y2="40"/>
	<circle fill="none" stroke-width="2" stroke="#00FF00" cx="50.609" cy="55.422" r="1.984"/>
</g>
</svg>
