<?xml version="1.0" encoding="utf-8"?>
<!-- Generator: Adobe Illustrator 14.0.0, SVG Export Plug-In . SVG Version: 6.00 Build 43363)  -->
<!DOCTYPE svg PUBLIC "-//W3C//DTD SVG 1.1//EN" "http://www.w3.org/Graphics/SVG/1.1/DTD/svg11.dtd">
<svg version="1.1" id="图层_1" xmlns="http://www.w3.org/2000/svg" xmlns:xlink="http://www.w3.org/1999/xlink" x="0px" y="0px"
	 width="64px" height="64px" viewBox="0 0 64 64" enable-background="new 0 0 64 64" xml:space="preserve">
<g id="Blue">
	<circle fill="none" stroke-width="2" stroke="#0000FF" cx="27.568" cy="33.035" r="11.375"/>
	<line fill="none" stroke-width="2" stroke="#0000FF" x1="24.666" y1="22.035" x2="16.536" y2="30.259"/>
	<line fill="none" stroke-width="2" stroke="#0000FF" x1="27.905" y1="21.673" x2="16.197" y2="33.477"/>
	<line fill="none" stroke-width="2" stroke="#0000FF" x1="30.533" y1="21.925" x2="16.593" y2="35.959"/>
	<line fill="none" stroke-width="2" stroke="#0000FF" x1="32.536" y1="22.8" x2="17.366" y2="38.064"/>
	<line fill="none" stroke-width="2" stroke="#0000FF" x1="34.328" y1="23.886" x2="18.466" y2="39.844"/>
	<line fill="none" stroke-width="2" stroke="#0000FF" x1="35.841" y1="25.252" x2="19.826" y2="41.361"/>
	<line fill="none" stroke-width="2" stroke="#0000FF" x1="37.092" y1="26.88" x2="21.439" y2="42.628"/>
	<line fill="none" stroke-width="2" stroke="#0000FF" x1="38.104" y1="28.748" x2="23.362" y2="43.584"/>
	<line fill="none" stroke-width="2" stroke="#0000FF" x1="38.777" y1="30.951" x2="25.588" y2="44.236"/>
	<line fill="none" stroke-width="2" stroke="#0000FF" x1="38.922" y1="33.686" x2="28.299" y2="44.404"/>
	<circle fill="none" stroke-width="2" stroke="#0000FF" cx="54.938" cy="51.021" r="1.604"/>
	<line fill="none" stroke-width="2" stroke="#0000FF" x1="53.783" y1="49.909" x2="41.667" y2="40.208"/>
	<line fill="none" stroke-width="2" stroke="#0000FF" x1="47.336" y1="44.747" x2="47.375" y2="49.416"/>
	<line fill="none" stroke-width="2" stroke="#0000FF" x1="47.336" y1="44.747" x2="52.083" y2="44.41"/>
	<line fill="none" stroke-width="2" stroke="#0000FF" x1="41.667" y1="40.208" x2="27" y2="40.208"/>
	<line fill="none" stroke-width="2" stroke="#0000FF" x1="27" y1="40.208" x2="17.366" y2="46.833"/>
	<line fill="none" stroke-width="2" stroke="#0000FF" x1="59.375" y1="16.5" x2="43.063" y2="24.938"/>
	<line fill="none" stroke-width="2" stroke="#0000FF" x1="43.063" y1="24.938" x2="61.313" y2="24.938"/>
	<line fill="none" stroke-width="2" stroke="#0000FF" x1="61.313" y1="24.938" x2="59.375" y2="16.5"/>
	<line fill="none" stroke-width="2" stroke="#0000FF" x1="40.584" y1="25.252" x2="27.228" y2="25.252"/>
	<line fill="none" stroke-width="2" stroke="#0000FF" x1="27.228" y1="25.252" x2="17.366" y2="18.542"/>
	<line fill="none" stroke-width="2" stroke="#0000FF" x1="58.048" y1="20.457" x2="50.984" y2="22.863"/>
	<line fill="none" stroke-width="2" stroke="#0000FF" x1="8.708" y1="30.259" x2="8.708" y2="35.792"/>
	<line fill="none" stroke-width="2" stroke="#0000FF" x1="8.708" y1="35.792" x2="18.958" y2="35.792"/>
	<line fill="none" stroke-width="2" stroke="#0000FF" x1="18.708" y1="37.375" x2="24.951" y2="32.417"/>
	<line fill="none" stroke-width="2" stroke="#0000FF" x1="24.951" y1="32.417" x2="18.466" y2="28"/>
	<line fill="none" stroke-width="2" stroke="#0000FF" x1="8.708" y1="30.259" x2="18.708" y2="30.259"/>
	<line fill="none" stroke-width="2" stroke="#0000FF" x1="8.708" y1="32.75" x2="2.042" y2="32.75"/>
	<line fill="none" stroke-width="2" stroke="#0000FF" x1="29.266" y1="32.667" x2="35.584" y2="32.667"/>
	<line fill="none" stroke-width="2" stroke="#0000FF" x1="39.625" y1="32.667" x2="46.084" y2="32.667"/>
	<line fill="none" stroke-width="2" stroke="#0000FF" x1="50.125" y1="32.667" x2="56.417" y2="32.667"/>
	<line fill="none" stroke-width="2" stroke="#FFFF00" x1="8.745" y1="29.572" x2="8.745" y2="35.105"/>
	<line fill="none" stroke-width="2" stroke="#FFFF00" x1="8.745" y1="35.105" x2="18.995" y2="35.105"/>
	<line fill="none" stroke-width="2" stroke="#FFFF00" x1="18.745" y1="36.688" x2="24.987" y2="31.73"/>
	<line fill="none" stroke-width="2" stroke="#FFFF00" x1="24.987" y1="31.73" x2="18.502" y2="27.313"/>
	<line fill="none" stroke-width="2" stroke="#FFFF00" x1="8.745" y1="29.572" x2="18.745" y2="29.572"/>
	<line fill="none" stroke-width="2" stroke="#FFFF00" x1="8.745" y1="32.063" x2="2.078" y2="32.063"/>
	<line fill="none" stroke-width="2" stroke="#FFFF00" x1="29.302" y1="31.98" x2="35.62" y2="31.98"/>
	<line fill="none" stroke-width="2" stroke="#FFFF00" x1="39.661" y1="31.98" x2="46.12" y2="31.98"/>
	<line fill="none" stroke-width="2" stroke="#FFFF00" x1="50.161" y1="31.98" x2="56.453" y2="31.98"/>
	<polygon fill="#0000FF" points="17.503,18.476 17.366,20.729 14.146,16.104 19.826,18.125 	"/>
	<polygon fill="#0000FF" points="17.732,46.509 19.747,47.526 14.226,48.652 18.33,44.236 	"/>
</g>
<g id="Red">
	<circle fill="none" stroke-width="2" stroke="#FF0000" cx="27.568" cy="33.035" r="11.375"/>
	<line fill="none" stroke-width="2" stroke="#FF0000" x1="24.666" y1="22.035" x2="16.536" y2="30.259"/>
	<line fill="none" stroke-width="2" stroke="#FF0000" x1="27.905" y1="21.673" x2="16.197" y2="33.477"/>
	<line fill="none" stroke-width="2" stroke="#FF0000" x1="30.533" y1="21.925" x2="16.593" y2="35.959"/>
	<line fill="none" stroke-width="2" stroke="#FF0000" x1="32.536" y1="22.8" x2="17.366" y2="38.064"/>
	<line fill="none" stroke-width="2" stroke="#FF0000" x1="34.328" y1="23.886" x2="18.466" y2="39.844"/>
	<line fill="none" stroke-width="2" stroke="#FF0000" x1="35.841" y1="25.252" x2="19.826" y2="41.361"/>
	<line fill="none" stroke-width="2" stroke="#FF0000" x1="37.092" y1="26.88" x2="21.439" y2="42.628"/>
	<line fill="none" stroke-width="2" stroke="#FF0000" x1="38.104" y1="28.748" x2="23.362" y2="43.584"/>
	<line fill="none" stroke-width="2" stroke="#FF0000" x1="38.777" y1="30.951" x2="25.588" y2="44.236"/>
	<line fill="none" stroke-width="2" stroke="#FF0000" x1="38.922" y1="33.686" x2="28.299" y2="44.404"/>
	<circle fill="none" stroke-width="2" stroke="#FF0000" cx="54.938" cy="51.021" r="1.604"/>
	<line fill="none" stroke-width="2" stroke="#FF0000" x1="53.783" y1="49.909" x2="41.667" y2="40.208"/>
	<line fill="none" stroke-width="2" stroke="#FF0000" x1="47.336" y1="44.747" x2="47.375" y2="49.416"/>
	<line fill="none" stroke-width="2" stroke="#FF0000" x1="47.336" y1="44.747" x2="52.083" y2="44.41"/>
	<line fill="none" stroke-width="2" stroke="#FF0000" x1="41.667" y1="40.208" x2="27" y2="40.208"/>
	<line fill="none" stroke-width="2" stroke="#FF0000" x1="27" y1="40.208" x2="17.366" y2="46.833"/>
	<line fill="none" stroke-width="2" stroke="#FF0000" x1="59.375" y1="16.5" x2="43.063" y2="24.938"/>
	<line fill="none" stroke-width="2" stroke="#FF0000" x1="43.063" y1="24.938" x2="61.313" y2="24.938"/>
	<line fill="none" stroke-width="2" stroke="#FF0000" x1="61.313" y1="24.938" x2="59.375" y2="16.5"/>
	<line fill="none" stroke-width="2" stroke="#FF0000" x1="40.584" y1="25.252" x2="27.228" y2="25.252"/>
	<line fill="none" stroke-width="2" stroke="#FF0000" x1="27.228" y1="25.252" x2="17.366" y2="18.542"/>
	<line fill="none" stroke-width="2" stroke="#FF0000" x1="58.048" y1="20.457" x2="50.984" y2="22.863"/>
	<line fill="none" stroke-width="2" stroke="#FF0000" x1="8.708" y1="30.259" x2="8.708" y2="35.792"/>
	<line fill="none" stroke-width="2" stroke="#FF0000" x1="8.708" y1="35.792" x2="18.958" y2="35.792"/>
	<line fill="none" stroke-width="2" stroke="#FF0000" x1="18.708" y1="37.375" x2="24.951" y2="32.417"/>
	<line fill="none" stroke-width="2" stroke="#FF0000" x1="24.951" y1="32.417" x2="18.466" y2="28"/>
	<line fill="none" stroke-width="2" stroke="#FF0000" x1="8.708" y1="30.259" x2="18.708" y2="30.259"/>
	<line fill="none" stroke-width="2" stroke="#FF0000" x1="8.708" y1="32.75" x2="2.042" y2="32.75"/>
	<line fill="none" stroke-width="2" stroke="#FF0000" x1="29.266" y1="32.667" x2="35.584" y2="32.667"/>
	<line fill="none" stroke-width="2" stroke="#FF0000" x1="39.625" y1="32.667" x2="46.084" y2="32.667"/>
	<line fill="none" stroke-width="2" stroke="#FF0000" x1="50.125" y1="32.667" x2="56.417" y2="32.667"/>
	<line fill="none" stroke-width="2" stroke="#FFFF00" x1="8.745" y1="29.572" x2="8.745" y2="35.105"/>
	<line fill="none" stroke-width="2" stroke="#FFFF00" x1="8.745" y1="35.105" x2="18.995" y2="35.105"/>
	<line fill="none" stroke-width="2" stroke="#FFFF00" x1="18.745" y1="36.688" x2="24.987" y2="31.73"/>
	<line fill="none" stroke-width="2" stroke="#FFFF00" x1="24.987" y1="31.73" x2="18.502" y2="27.313"/>
	<line fill="none" stroke-width="2" stroke="#FFFF00" x1="8.745" y1="29.572" x2="18.745" y2="29.572"/>
	<line fill="none" stroke-width="2" stroke="#FFFF00" x1="8.745" y1="32.063" x2="2.078" y2="32.063"/>
	<line fill="none" stroke-width="2" stroke="#FFFF00" x1="29.302" y1="31.98" x2="35.62" y2="31.98"/>
	<line fill="none" stroke-width="2" stroke="#FFFF00" x1="39.661" y1="31.98" x2="46.12" y2="31.98"/>
	<line fill="none" stroke-width="2" stroke="#FFFF00" x1="50.161" y1="31.98" x2="56.453" y2="31.98"/>
	<polygon fill="#FF0000" points="17.503,18.476 17.366,20.729 14.146,16.104 19.826,18.125 	"/>
	<polygon fill="#FF0000" points="17.732,46.509 19.747,47.526 14.226,48.652 18.33,44.236 	"/>
</g>
<g id="White">
	<circle fill="none" stroke-width="2" stroke="#00FF00" cx="27.568" cy="33.035" r="11.375"/>
	<line fill="none" stroke-width="2" stroke="#00FF00" x1="24.666" y1="22.035" x2="16.536" y2="30.259"/>
	<line fill="none" stroke-width="2" stroke="#00FF00" x1="27.905" y1="21.673" x2="16.197" y2="33.477"/>
	<line fill="none" stroke-width="2" stroke="#00FF00" x1="30.533" y1="21.925" x2="16.593" y2="35.959"/>
	<line fill="none" stroke-width="2" stroke="#00FF00" x1="32.536" y1="22.8" x2="17.366" y2="38.064"/>
	<line fill="none" stroke-width="2" stroke="#00FF00" x1="34.328" y1="23.886" x2="18.466" y2="39.844"/>
	<line fill="none" stroke-width="2" stroke="#00FF00" x1="35.841" y1="25.252" x2="19.826" y2="41.361"/>
	<line fill="none" stroke-width="2" stroke="#00FF00" x1="37.092" y1="26.88" x2="21.439" y2="42.628"/>
	<line fill="none" stroke-width="2" stroke="#00FF00" x1="38.104" y1="28.748" x2="23.362" y2="43.584"/>
	<line fill="none" stroke-width="2" stroke="#00FF00" x1="38.777" y1="30.951" x2="25.588" y2="44.236"/>
	<line fill="none" stroke-width="2" stroke="#00FF00" x1="38.922" y1="33.686" x2="28.299" y2="44.404"/>
	<circle fill="none" stroke-width="2" stroke="#00FF00" cx="54.938" cy="51.021" r="1.604"/>
	<line fill="none" stroke-width="2" stroke="#00FF00" x1="53.783" y1="49.909" x2="41.667" y2="40.208"/>
	<line fill="none" stroke-width="2" stroke="#00FF00" x1="47.336" y1="44.747" x2="47.375" y2="49.416"/>
	<line fill="none" stroke-width="2" stroke="#00FF00" x1="47.336" y1="44.747" x2="52.083" y2="44.41"/>
	<line fill="none" stroke-width="2" stroke="#00FF00" x1="41.667" y1="40.208" x2="27" y2="40.208"/>
	<line fill="none" stroke-width="2" stroke="#00FF00" x1="27" y1="40.208" x2="17.366" y2="46.833"/>
	<line fill="none" stroke-width="2" stroke="#00FF00" x1="59.375" y1="16.5" x2="43.063" y2="24.938"/>
	<line fill="none" stroke-width="2" stroke="#00FF00" x1="43.063" y1="24.938" x2="61.313" y2="24.938"/>
	<line fill="none" stroke-width="2" stroke="#00FF00" x1="61.313" y1="24.938" x2="59.375" y2="16.5"/>
	<line fill="none" stroke-width="2" stroke="#00FF00" x1="40.584" y1="25.252" x2="27.228" y2="25.252"/>
	<line fill="none" stroke-width="2" stroke="#00FF00" x1="27.228" y1="25.252" x2="17.366" y2="18.542"/>
	<line fill="none" stroke-width="2" stroke="#00FF00" x1="58.048" y1="20.457" x2="50.984" y2="22.863"/>
	<line fill="none" stroke-width="2" stroke="#00FF00" x1="8.708" y1="30.259" x2="8.708" y2="35.792"/>
	<line fill="none" stroke-width="2" stroke="#00FF00" x1="8.708" y1="35.792" x2="18.958" y2="35.792"/>
	<line fill="none" stroke-width="2" stroke="#00FF00" x1="18.708" y1="37.375" x2="24.951" y2="32.417"/>
	<line fill="none" stroke-width="2" stroke="#00FF00" x1="24.951" y1="32.417" x2="18.466" y2="28"/>
	<line fill="none" stroke-width="2" stroke="#00FF00" x1="8.708" y1="30.259" x2="18.708" y2="30.259"/>
	<line fill="none" stroke-width="2" stroke="#00FF00" x1="8.708" y1="32.75" x2="2.042" y2="32.75"/>
	<line fill="none" stroke-width="2" stroke="#00FF00" x1="29.266" y1="32.667" x2="35.584" y2="32.667"/>
	<line fill="none" stroke-width="2" stroke="#00FF00" x1="39.625" y1="32.667" x2="46.084" y2="32.667"/>
	<line fill="none" stroke-width="2" stroke="#00FF00" x1="50.125" y1="32.667" x2="56.417" y2="32.667"/>
	<line fill="none" stroke-width="2" stroke="#FFFF00" x1="8.745" y1="29.572" x2="8.745" y2="35.105"/>
	<line fill="none" stroke-width="2" stroke="#FFFF00" x1="8.745" y1="35.105" x2="18.995" y2="35.105"/>
	<line fill="none" stroke-width="2" stroke="#FFFF00" x1="18.745" y1="36.688" x2="24.987" y2="31.73"/>
	<line fill="none" stroke-width="2" stroke="#FFFF00" x1="24.987" y1="31.73" x2="18.502" y2="27.313"/>
	<line fill="none" stroke-width="2" stroke="#FFFF00" x1="8.745" y1="29.572" x2="18.745" y2="29.572"/>
	<line fill="none" stroke-width="2" stroke="#FFFF00" x1="8.745" y1="32.063" x2="2.078" y2="32.063"/>
	<line fill="none" stroke-width="2" stroke="#FFFF00" x1="29.302" y1="31.98" x2="35.62" y2="31.98"/>
	<line fill="none" stroke-width="2" stroke="#FFFF00" x1="39.661" y1="31.98" x2="46.12" y2="31.98"/>
	<line fill="none" stroke-width="2" stroke="#FFFF00" x1="50.161" y1="31.98" x2="56.453" y2="31.98"/>
	<polygon fill="#00FF00" points="17.503,18.476 17.366,20.729 14.146,16.104 19.826,18.125 	"/>
	<polygon fill="#00FF00" points="17.732,46.509 19.747,47.526 14.226,48.652 18.33,44.236 	"/>
</g>
</svg>
