<?xml version="1.0" encoding="utf-8"?>
<!-- Generator: Adobe Illustrator 14.0.0, SVG Export Plug-In . SVG Version: 6.00 Build 43363)  -->
<!DOCTYPE svg PUBLIC "-//W3C//DTD SVG 1.1//EN" "http://www.w3.org/Graphics/SVG/1.1/DTD/svg11.dtd">
<svg version="1.1" id="图层_1" xmlns="http://www.w3.org/2000/svg" xmlns:xlink="http://www.w3.org/1999/xlink" x="0px" y="0px"
	 width="64px" height="64px" viewBox="0 0 64 64" enable-background="new 0 0 64 64" xml:space="preserve">
<g id="Blue">
	<line fill="none" stroke-width="2" stroke="#0000FF" x1="30.429" y1="36.5" x2="30.429" y2="48.5"/>
	<line fill="none" stroke-width="2" stroke="#0000FF" x1="30.429" y1="41.375" x2="27" y2="44.313"/>
	<line fill="none" stroke-width="2" stroke="#0000FF" x1="30.429" y1="41.375" x2="33.943" y2="44.313"/>
	<circle fill="none" stroke-width="2" stroke="#0000FF" cx="30.419" cy="49.907" r="1.657"/>
	<path fill="none" stroke-width="2" stroke="#FFFF00" d="M29.047,33.984c0,0,1.146,3.662,2.813-0.172"/>
	<line fill="none" stroke-width="2" stroke="#FFFF00" x1="40.865" y1="8.725" x2="36.764" y2="5.009"/>
	<line fill="none" stroke-width="2" stroke="#FFFF00" x1="36.764" y1="5.009" x2="29.882" y2="12.605"/>
	<line fill="none" stroke-width="2" stroke="#FFFF00" x1="28.877" y1="11.357" x2="28.361" y2="19.313"/>
	<line fill="none" stroke-width="2" stroke="#FFFF00" x1="28.361" y1="19.313" x2="35.986" y2="17.473"/>
	<line fill="none" stroke-width="2" stroke="#FFFF00" x1="40.865" y1="8.725" x2="34.15" y2="16.135"/>
	<line fill="none" stroke-width="2" stroke="#FFFF00" x1="39.018" y1="7.051" x2="43.492" y2="2.11"/>
	<line fill="none" stroke-width="2" stroke="#FFFF00" x1="25.278" y1="22.343" x2="21.036" y2="27.026"/>
	<line fill="none" stroke-width="2" stroke="#FFFF00" x1="18.324" y1="30.021" x2="16.17" y2="32.397"/>
	<line fill="none" stroke-width="2" stroke="#FFFF00" x1="15.458" y1="33.236" x2="13.461" y2="35.439"/>
	<line fill="none" stroke-width="2" stroke="#FFFF00" x1="12.553" y1="36.257" x2="10.555" y2="38.461"/>
	<line fill="none" stroke-width="2" stroke="#FFFF00" x1="9.629" y1="39.29" x2="7.632" y2="41.494"/>
	<line fill="none" stroke-width="2" stroke="#FFFF00" x1="6.711" y1="42.588" x2="4.714" y2="44.792"/>
	<circle fill="none" stroke-width="2" stroke="#0000FF" cx="29.33" cy="22.104" r="11.375"/>
	<path fill="none" stroke-width="2" stroke="#0000FF" d="M28.563,33.813c0,0,1.531,4.814,3.732,0"/>
	<line fill="none" stroke-width="2" stroke="#0000FF" x1="26.428" y1="11.104" x2="18.298" y2="19.328"/>
	<line fill="none" stroke-width="2" stroke="#0000FF" x1="29.667" y1="10.742" x2="17.958" y2="22.546"/>
	<line fill="none" stroke-width="2" stroke="#0000FF" x1="32.295" y1="10.994" x2="18.354" y2="25.028"/>
	<line fill="none" stroke-width="2" stroke="#0000FF" x1="34.298" y1="11.869" x2="19.128" y2="27.134"/>
	<line fill="none" stroke-width="2" stroke="#0000FF" x1="36.09" y1="12.956" x2="20.228" y2="28.913"/>
	<line fill="none" stroke-width="2" stroke="#0000FF" x1="37.604" y1="14.321" x2="21.588" y2="30.431"/>
	<line fill="none" stroke-width="2" stroke="#0000FF" x1="38.854" y1="15.949" x2="23.201" y2="31.697"/>
	<line fill="none" stroke-width="2" stroke="#0000FF" x1="39.865" y1="17.817" x2="25.124" y2="32.652"/>
	<line fill="none" stroke-width="2" stroke="#0000FF" x1="40.539" y1="20.021" x2="27.35" y2="33.307"/>
	<line fill="none" stroke-width="2" stroke="#0000FF" x1="40.684" y1="22.755" x2="30.061" y2="33.475"/>
	<line fill="none" stroke-width="2" stroke="#0000FF" x1="41.182" y1="8.98" x2="37.08" y2="5.265"/>
	<line fill="none" stroke-width="2" stroke="#0000FF" x1="37.08" y1="5.265" x2="30.199" y2="12.861"/>
	<line fill="none" stroke-width="2" stroke="#0000FF" x1="29.194" y1="11.613" x2="28.678" y2="19.569"/>
	<line fill="none" stroke-width="2" stroke="#0000FF" x1="28.678" y1="19.569" x2="36.305" y2="17.729"/>
	<line fill="none" stroke-width="2" stroke="#0000FF" x1="41.182" y1="8.98" x2="34.468" y2="16.391"/>
	<line fill="none" stroke-width="2" stroke="#0000FF" x1="39.334" y1="7.307" x2="43.811" y2="2.366"/>
	<line fill="none" stroke-width="2" stroke="#0000FF" x1="25.595" y1="22.599" x2="21.353" y2="27.282"/>
	<line fill="none" stroke-width="2" stroke="#0000FF" x1="18.641" y1="30.276" x2="16.487" y2="32.652"/>
	<line fill="none" stroke-width="2" stroke="#0000FF" x1="15.775" y1="33.492" x2="13.778" y2="35.695"/>
	<line fill="none" stroke-width="2" stroke="#0000FF" x1="12.87" y1="36.514" x2="10.872" y2="38.717"/>
	<line fill="none" stroke-width="2" stroke="#0000FF" x1="9.946" y1="39.546" x2="7.949" y2="41.75"/>
	<line fill="none" stroke-width="2" stroke="#0000FF" x1="7.028" y1="42.844" x2="5.031" y2="45.048"/>
	<line fill="none" stroke-width="2" stroke="#FFFF00" x1="49.215" y1="45.395" x2="34.284" y2="49.354"/>
	<line fill="none" stroke-width="2" stroke="#FFFF00" x1="34.284" y1="49.354" x2="49.215" y2="52.688"/>
	<line fill="none" stroke-width="2" stroke="#FFFF00" x1="49.215" y1="52.688" x2="49.215" y2="45.395"/>
	<line fill="none" stroke-width="2" stroke="#0000FF" x1="48.875" y1="45.083" x2="33.943" y2="49.041"/>
	<line fill="none" stroke-width="2" stroke="#0000FF" x1="33.943" y1="49.041" x2="48.875" y2="52.375"/>
	<line fill="none" stroke-width="2" stroke="#0000FF" x1="48.875" y1="52.375" x2="48.875" y2="45.083"/>
	<line fill="none" stroke-width="2" stroke="#0000FF" x1="47.459" y1="49.041" x2="41.41" y2="49.041"/>
	<line fill="none" stroke-width="2" stroke="#0000FF" x1="43.042" y1="48.125" x2="39.375" y2="49.041"/>
	<line fill="none" stroke-width="2" stroke="#0000FF" x1="39.375" y1="49.041" x2="42.875" y2="49.708"/>
	<line fill="none" stroke-width="2" stroke="#0000FF" x1="48.875" y1="54.541" x2="34.625" y2="57.708"/>
	<line fill="none" stroke-width="2" stroke="#0000FF" x1="34.625" y1="57.708" x2="48.625" y2="61.166"/>
	<line fill="none" stroke-width="2" stroke="#0000FF" x1="48.625" y1="61.166" x2="48.625" y2="54.541"/>
	<path fill="none" stroke-width="2" stroke="#0000FF" d="M40.246,41.795c-6.447-3.903-7.787-7.938-8.171-13.681"/>
	<path fill="none" stroke-width="2" stroke="#0000FF" d="M19.687,41.374c6.447-3.903,8.876-9.677,10.195-13.306"/>
	<line fill="none" stroke-width="2" stroke="#0000FF" x1="32.075" y1="28.114" x2="35.372" y2="28.115"/>
	<line fill="none" stroke-width="2" stroke="#0000FF" x1="35.372" y1="28.115" x2="32.075" y2="21.187"/>
	<line fill="none" stroke-width="2" stroke="#0000FF" x1="32.075" y1="21.187" x2="26.427" y2="27.133"/>
	<line fill="none" stroke-width="2" stroke="#0000FF" x1="26.427" y1="27.133" x2="30.06" y2="27.684"/>
</g>
<g id="Red">
	<line fill="none" stroke-width="2" stroke="#FF0000" x1="30.429" y1="36.5" x2="30.429" y2="48.5"/>
	<line fill="none" stroke-width="2" stroke="#FF0000" x1="30.429" y1="41.375" x2="27" y2="44.313"/>
	<line fill="none" stroke-width="2" stroke="#FF0000" x1="30.429" y1="41.375" x2="33.943" y2="44.313"/>
	<circle fill="none" stroke-width="2" stroke="#FF0000" cx="30.419" cy="49.907" r="1.657"/>
	<path fill="none" stroke-width="2" stroke="#FFFF00" d="M29.047,33.984c0,0,1.146,3.662,2.813-0.172"/>
	<line fill="none" stroke-width="2" stroke="#FFFF00" x1="40.865" y1="8.725" x2="36.764" y2="5.009"/>
	<line fill="none" stroke-width="2" stroke="#FFFF00" x1="36.764" y1="5.009" x2="29.882" y2="12.605"/>
	<line fill="none" stroke-width="2" stroke="#FFFF00" x1="28.877" y1="11.357" x2="28.361" y2="19.313"/>
	<line fill="none" stroke-width="2" stroke="#FFFF00" x1="28.361" y1="19.313" x2="35.986" y2="17.473"/>
	<line fill="none" stroke-width="2" stroke="#FFFF00" x1="40.865" y1="8.725" x2="34.15" y2="16.135"/>
	<line fill="none" stroke-width="2" stroke="#FFFF00" x1="39.018" y1="7.051" x2="43.492" y2="2.11"/>
	<line fill="none" stroke-width="2" stroke="#FFFF00" x1="25.278" y1="22.343" x2="21.036" y2="27.026"/>
	<line fill="none" stroke-width="2" stroke="#FFFF00" x1="18.324" y1="30.021" x2="16.17" y2="32.397"/>
	<line fill="none" stroke-width="2" stroke="#FFFF00" x1="15.458" y1="33.236" x2="13.461" y2="35.439"/>
	<line fill="none" stroke-width="2" stroke="#FFFF00" x1="12.553" y1="36.257" x2="10.555" y2="38.461"/>
	<line fill="none" stroke-width="2" stroke="#FFFF00" x1="9.629" y1="39.29" x2="7.632" y2="41.494"/>
	<line fill="none" stroke-width="2" stroke="#FFFF00" x1="6.711" y1="42.588" x2="4.714" y2="44.792"/>
	<circle fill="none" stroke-width="2" stroke="#FF0000" cx="29.33" cy="22.104" r="11.375"/>
	<path fill="none" stroke-width="2" stroke="#FF0000" d="M28.563,33.813c0,0,1.531,4.814,3.732,0"/>
	<line fill="none" stroke-width="2" stroke="#FF0000" x1="26.428" y1="11.104" x2="18.298" y2="19.328"/>
	<line fill="none" stroke-width="2" stroke="#FF0000" x1="29.667" y1="10.742" x2="17.958" y2="22.546"/>
	<line fill="none" stroke-width="2" stroke="#FF0000" x1="32.295" y1="10.994" x2="18.354" y2="25.028"/>
	<line fill="none" stroke-width="2" stroke="#FF0000" x1="34.298" y1="11.869" x2="19.128" y2="27.134"/>
	<line fill="none" stroke-width="2" stroke="#FF0000" x1="36.09" y1="12.956" x2="20.228" y2="28.913"/>
	<line fill="none" stroke-width="2" stroke="#FF0000" x1="37.604" y1="14.321" x2="21.588" y2="30.431"/>
	<line fill="none" stroke-width="2" stroke="#FF0000" x1="38.854" y1="15.949" x2="23.201" y2="31.697"/>
	<line fill="none" stroke-width="2" stroke="#FF0000" x1="39.865" y1="17.817" x2="25.124" y2="32.652"/>
	<line fill="none" stroke-width="2" stroke="#FF0000" x1="40.539" y1="20.021" x2="27.35" y2="33.307"/>
	<line fill="none" stroke-width="2" stroke="#FF0000" x1="40.684" y1="22.755" x2="30.061" y2="33.475"/>
	<line fill="none" stroke-width="2" stroke="#FF0000" x1="41.182" y1="8.98" x2="37.08" y2="5.265"/>
	<line fill="none" stroke-width="2" stroke="#FF0000" x1="37.08" y1="5.265" x2="30.199" y2="12.861"/>
	<line fill="none" stroke-width="2" stroke="#FF0000" x1="29.194" y1="11.613" x2="28.678" y2="19.569"/>
	<line fill="none" stroke-width="2" stroke="#FF0000" x1="28.678" y1="19.569" x2="36.305" y2="17.729"/>
	<line fill="none" stroke-width="2" stroke="#FF0000" x1="41.182" y1="8.98" x2="34.468" y2="16.391"/>
	<line fill="none" stroke-width="2" stroke="#FF0000" x1="39.334" y1="7.307" x2="43.811" y2="2.366"/>
	<line fill="none" stroke-width="2" stroke="#FF0000" x1="25.595" y1="22.599" x2="21.353" y2="27.282"/>
	<line fill="none" stroke-width="2" stroke="#FF0000" x1="18.641" y1="30.276" x2="16.487" y2="32.652"/>
	<line fill="none" stroke-width="2" stroke="#FF0000" x1="15.775" y1="33.492" x2="13.778" y2="35.695"/>
	<line fill="none" stroke-width="2" stroke="#FF0000" x1="12.87" y1="36.514" x2="10.872" y2="38.717"/>
	<line fill="none" stroke-width="2" stroke="#FF0000" x1="9.946" y1="39.546" x2="7.949" y2="41.75"/>
	<line fill="none" stroke-width="2" stroke="#FF0000" x1="7.028" y1="42.844" x2="5.031" y2="45.048"/>
	<line fill="none" stroke-width="2" stroke="#FFFF00" x1="49.215" y1="45.395" x2="34.284" y2="49.354"/>
	<line fill="none" stroke-width="2" stroke="#FFFF00" x1="34.284" y1="49.354" x2="49.215" y2="52.688"/>
	<line fill="none" stroke-width="2" stroke="#FFFF00" x1="49.215" y1="52.688" x2="49.215" y2="45.395"/>
	<line fill="none" stroke-width="2" stroke="#FF0000" x1="48.875" y1="45.083" x2="33.943" y2="49.041"/>
	<line fill="none" stroke-width="2" stroke="#FF0000" x1="33.943" y1="49.041" x2="48.875" y2="52.375"/>
	<line fill="none" stroke-width="2" stroke="#FF0000" x1="48.875" y1="52.375" x2="48.875" y2="45.083"/>
	<line fill="none" stroke-width="2" stroke="#FF0000" x1="47.459" y1="49.041" x2="41.41" y2="49.041"/>
	<line fill="none" stroke-width="2" stroke="#FF0000" x1="43.042" y1="48.125" x2="39.375" y2="49.041"/>
	<line fill="none" stroke-width="2" stroke="#FF0000" x1="39.375" y1="49.041" x2="42.875" y2="49.708"/>
	<line fill="none" stroke-width="2" stroke="#FF0000" x1="48.875" y1="54.541" x2="34.625" y2="57.708"/>
	<line fill="none" stroke-width="2" stroke="#FF0000" x1="34.625" y1="57.708" x2="48.625" y2="61.166"/>
	<line fill="none" stroke-width="2" stroke="#FF0000" x1="48.625" y1="61.166" x2="48.625" y2="54.541"/>
	<path fill="none" stroke-width="2" stroke="#FF0000" d="M40.246,41.795c-6.447-3.903-7.787-7.938-8.171-13.681"/>
	<path fill="none" stroke-width="2" stroke="#FF0000" d="M19.687,41.374c6.447-3.903,8.876-9.677,10.195-13.306"/>
	<line fill="none" stroke-width="2" stroke="#FF0000" x1="32.075" y1="28.114" x2="35.372" y2="28.115"/>
	<line fill="none" stroke-width="2" stroke="#FF0000" x1="35.372" y1="28.115" x2="32.075" y2="21.187"/>
	<line fill="none" stroke-width="2" stroke="#FF0000" x1="32.075" y1="21.187" x2="26.427" y2="27.133"/>
	<line fill="none" stroke-width="2" stroke="#FF0000" x1="26.427" y1="27.133" x2="30.06" y2="27.684"/>
</g>
<g id="White">
	<line fill="none" stroke-width="2" stroke="#00FF00" x1="30.429" y1="36.5" x2="30.429" y2="48.5"/>
	<line fill="none" stroke-width="2" stroke="#00FF00" x1="30.429" y1="41.375" x2="27" y2="44.313"/>
	<line fill="none" stroke-width="2" stroke="#00FF00" x1="30.429" y1="41.375" x2="33.943" y2="44.313"/>
	<circle fill="none" stroke-width="2" stroke="#00FF00" cx="30.419" cy="49.907" r="1.657"/>
	<path fill="none" stroke-width="2" stroke="#FFFF00" d="M29.047,33.984c0,0,1.146,3.662,2.813-0.172"/>
	<line fill="none" stroke-width="2" stroke="#FFFF00" x1="40.865" y1="8.725" x2="36.764" y2="5.009"/>
	<line fill="none" stroke-width="2" stroke="#FFFF00" x1="36.764" y1="5.009" x2="29.882" y2="12.605"/>
	<line fill="none" stroke-width="2" stroke="#FFFF00" x1="28.877" y1="11.357" x2="28.361" y2="19.313"/>
	<line fill="none" stroke-width="2" stroke="#FFFF00" x1="28.361" y1="19.313" x2="35.986" y2="17.473"/>
	<line fill="none" stroke-width="2" stroke="#FFFF00" x1="40.865" y1="8.725" x2="34.15" y2="16.135"/>
	<line fill="none" stroke-width="2" stroke="#FFFF00" x1="39.018" y1="7.051" x2="43.492" y2="2.11"/>
	<line fill="none" stroke-width="2" stroke="#FFFF00" x1="25.278" y1="22.343" x2="21.036" y2="27.026"/>
	<line fill="none" stroke-width="2" stroke="#FFFF00" x1="18.324" y1="30.021" x2="16.17" y2="32.397"/>
	<line fill="none" stroke-width="2" stroke="#FFFF00" x1="15.458" y1="33.236" x2="13.461" y2="35.439"/>
	<line fill="none" stroke-width="2" stroke="#FFFF00" x1="12.553" y1="36.257" x2="10.555" y2="38.461"/>
	<line fill="none" stroke-width="2" stroke="#FFFF00" x1="9.629" y1="39.29" x2="7.632" y2="41.494"/>
	<line fill="none" stroke-width="2" stroke="#FFFF00" x1="6.711" y1="42.588" x2="4.714" y2="44.792"/>
	<circle fill="none" stroke-width="2" stroke="#00FF00" cx="29.33" cy="22.104" r="11.375"/>
	<path fill="none" stroke-width="2" stroke="#00FF00" d="M28.563,33.813c0,0,1.531,4.814,3.732,0"/>
	<line fill="none" stroke-width="2" stroke="#00FF00" x1="26.428" y1="11.104" x2="18.298" y2="19.328"/>
	<line fill="none" stroke-width="2" stroke="#00FF00" x1="29.667" y1="10.742" x2="17.958" y2="22.546"/>
	<line fill="none" stroke-width="2" stroke="#00FF00" x1="32.295" y1="10.994" x2="18.354" y2="25.028"/>
	<line fill="none" stroke-width="2" stroke="#00FF00" x1="34.298" y1="11.869" x2="19.128" y2="27.134"/>
	<line fill="none" stroke-width="2" stroke="#00FF00" x1="36.09" y1="12.956" x2="20.228" y2="28.913"/>
	<line fill="none" stroke-width="2" stroke="#00FF00" x1="37.604" y1="14.321" x2="21.588" y2="30.431"/>
	<line fill="none" stroke-width="2" stroke="#00FF00" x1="38.854" y1="15.949" x2="23.201" y2="31.697"/>
	<line fill="none" stroke-width="2" stroke="#00FF00" x1="39.865" y1="17.817" x2="25.124" y2="32.652"/>
	<line fill="none" stroke-width="2" stroke="#00FF00" x1="40.539" y1="20.021" x2="27.35" y2="33.307"/>
	<line fill="none" stroke-width="2" stroke="#00FF00" x1="40.684" y1="22.755" x2="30.061" y2="33.475"/>
	<line fill="none" stroke-width="2" stroke="#00FF00" x1="41.182" y1="8.98" x2="37.08" y2="5.265"/>
	<line fill="none" stroke-width="2" stroke="#00FF00" x1="37.08" y1="5.265" x2="30.199" y2="12.861"/>
	<line fill="none" stroke-width="2" stroke="#00FF00" x1="29.194" y1="11.613" x2="28.678" y2="19.569"/>
	<line fill="none" stroke-width="2" stroke="#00FF00" x1="28.678" y1="19.569" x2="36.305" y2="17.729"/>
	<line fill="none" stroke-width="2" stroke="#00FF00" x1="41.182" y1="8.98" x2="34.468" y2="16.391"/>
	<line fill="none" stroke-width="2" stroke="#00FF00" x1="39.334" y1="7.307" x2="43.811" y2="2.366"/>
	<line fill="none" stroke-width="2" stroke="#00FF00" x1="25.595" y1="22.599" x2="21.353" y2="27.282"/>
	<line fill="none" stroke-width="2" stroke="#00FF00" x1="18.641" y1="30.276" x2="16.487" y2="32.652"/>
	<line fill="none" stroke-width="2" stroke="#00FF00" x1="15.775" y1="33.492" x2="13.778" y2="35.695"/>
	<line fill="none" stroke-width="2" stroke="#00FF00" x1="12.87" y1="36.514" x2="10.872" y2="38.717"/>
	<line fill="none" stroke-width="2" stroke="#00FF00" x1="9.946" y1="39.546" x2="7.949" y2="41.75"/>
	<line fill="none" stroke-width="2" stroke="#00FF00" x1="7.028" y1="42.844" x2="5.031" y2="45.048"/>
	<line fill="none" stroke-width="2" stroke="#FFFF00" x1="49.215" y1="45.395" x2="34.284" y2="49.354"/>
	<line fill="none" stroke-width="2" stroke="#FFFF00" x1="34.284" y1="49.354" x2="49.215" y2="52.688"/>
	<line fill="none" stroke-width="2" stroke="#FFFF00" x1="49.215" y1="52.688" x2="49.215" y2="45.395"/>
	<line fill="none" stroke-width="2" stroke="#00FF00" x1="48.875" y1="45.083" x2="33.943" y2="49.041"/>
	<line fill="none" stroke-width="2" stroke="#00FF00" x1="33.943" y1="49.041" x2="48.875" y2="52.375"/>
	<line fill="none" stroke-width="2" stroke="#00FF00" x1="48.875" y1="52.375" x2="48.875" y2="45.083"/>
	<line fill="none" stroke-width="2" stroke="#00FF00" x1="47.459" y1="49.041" x2="41.41" y2="49.041"/>
	<line fill="none" stroke-width="2" stroke="#00FF00" x1="43.042" y1="48.125" x2="39.375" y2="49.041"/>
	<line fill="none" stroke-width="2" stroke="#00FF00" x1="39.375" y1="49.041" x2="42.875" y2="49.708"/>
	<line fill="none" stroke-width="2" stroke="#00FF00" x1="48.875" y1="54.541" x2="34.625" y2="57.708"/>
	<line fill="none" stroke-width="2" stroke="#00FF00" x1="34.625" y1="57.708" x2="48.625" y2="61.166"/>
	<line fill="none" stroke-width="2" stroke="#00FF00" x1="48.625" y1="61.166" x2="48.625" y2="54.541"/>
	<path fill="none" stroke-width="2" stroke="#00FF00" d="M40.246,41.795c-6.447-3.903-7.787-7.938-8.171-13.681"/>
	<path fill="none" stroke-width="2" stroke="#00FF00" d="M19.687,41.374c6.447-3.903,8.876-9.677,10.195-13.306"/>
	<line fill="none" stroke-width="2" stroke="#00FF00" x1="32.075" y1="28.114" x2="35.372" y2="28.115"/>
	<line fill="none" stroke-width="2" stroke="#00FF00" x1="35.372" y1="28.115" x2="32.075" y2="21.187"/>
	<line fill="none" stroke-width="2" stroke="#00FF00" x1="32.075" y1="21.187" x2="26.427" y2="27.133"/>
	<line fill="none" stroke-width="2" stroke="#00FF00" x1="26.427" y1="27.133" x2="30.06" y2="27.684"/>
</g>
</svg>
