<?xml version="1.0" encoding="utf-8"?>
<!-- Generator: Adobe Illustrator 14.0.0, SVG Export Plug-In . SVG Version: 6.00 Build 43363)  -->
<!DOCTYPE svg PUBLIC "-//W3C//DTD SVG 1.1//EN" "http://www.w3.org/Graphics/SVG/1.1/DTD/svg11.dtd">
<svg version="1.1" id="图层_1" xmlns="http://www.w3.org/2000/svg" xmlns:xlink="http://www.w3.org/1999/xlink" x="0px" y="0px"
	 width="64px" height="64px" viewBox="0 0 64 64" enable-background="new 0 0 64 64" xml:space="preserve">
<g id="Blue">
	<circle fill="none" stroke-width="2" stroke="#0000FF" cx="32.375" cy="31.75" r="30.625"/>
	<line fill="none" stroke-width="2" stroke="#0000FF" x1="21.538" y1="3.174" x2="3.604" y2="21.364"/>
	<line fill="none" stroke-width="2" stroke="#0000FF" x1="29.14" y1="1.184" x2="1.965" y2="28.614"/>
	<line fill="none" stroke-width="2" stroke="#0000FF" x1="34.695" y1="1.24" x2="1.88" y2="34.313"/>
	<line fill="none" stroke-width="2" stroke="#0000FF" x1="39.567" y1="1.979" x2="2.674" y2="39.129"/>
	<line fill="none" stroke-width="2" stroke="#0000FF" x1="43.839" y1="3.321" x2="4.042" y2="43.373"/>
	<line fill="none" stroke-width="2" stroke="#0000FF" x1="47.594" y1="5.177" x2="5.922" y2="47.105"/>
	<line fill="none" stroke-width="2" stroke="#0000FF" x1="50.978" y1="7.406" x2="8.148" y2="50.491"/>
	<line fill="none" stroke-width="2" stroke="#0000FF" x1="53.956" y1="10.039" x2="10.784" y2="53.468"/>
	<line fill="none" stroke-width="2" stroke="#0000FF" x1="56.585" y1="13.022" x2="13.797" y2="56.067"/>
	<line fill="none" stroke-width="2" stroke="#0000FF" x1="58.843" y1="16.375" x2="17.165" y2="58.312"/>
	<line fill="none" stroke-width="2" stroke="#0000FF" x1="60.674" y1="20.157" x2="20.935" y2="60.154"/>
	<line fill="none" stroke-width="2" stroke="#0000FF" x1="62.14" y1="24.302" x2="25.184" y2="61.517"/>
	<line fill="none" stroke-width="2" stroke="#0000FF" x1="62.881" y1="29.174" x2="30.044" y2="62.271"/>
	<line fill="none" stroke-width="2" stroke="#0000FF" x1="62.871" y1="34.795" x2="35.669" y2="62.257"/>
	<line fill="none" stroke-width="2" stroke="#0000FF" x1="61.381" y1="41.897" x2="43.078" y2="60.461"/>
</g>
<g id="Red">
	<circle fill="none" stroke-width="2" stroke="#FF0000" cx="32.375" cy="31.75" r="30.625"/>
	<line fill="none" stroke-width="2" stroke="#FF0000" x1="21.538" y1="3.174" x2="3.604" y2="21.364"/>
	<line fill="none" stroke-width="2" stroke="#FF0000" x1="29.14" y1="1.184" x2="1.965" y2="28.614"/>
	<line fill="none" stroke-width="2" stroke="#FF0000" x1="34.695" y1="1.24" x2="1.88" y2="34.313"/>
	<line fill="none" stroke-width="2" stroke="#FF0000" x1="39.567" y1="1.979" x2="2.674" y2="39.129"/>
	<line fill="none" stroke-width="2" stroke="#FF0000" x1="43.839" y1="3.321" x2="4.042" y2="43.373"/>
	<line fill="none" stroke-width="2" stroke="#FF0000" x1="47.594" y1="5.177" x2="5.922" y2="47.105"/>
	<line fill="none" stroke-width="2" stroke="#FF0000" x1="50.978" y1="7.406" x2="8.148" y2="50.491"/>
	<line fill="none" stroke-width="2" stroke="#FF0000" x1="53.956" y1="10.039" x2="10.784" y2="53.468"/>
	<line fill="none" stroke-width="2" stroke="#FF0000" x1="56.585" y1="13.022" x2="13.797" y2="56.067"/>
	<line fill="none" stroke-width="2" stroke="#FF0000" x1="58.843" y1="16.375" x2="17.165" y2="58.312"/>
	<line fill="none" stroke-width="2" stroke="#FF0000" x1="60.674" y1="20.157" x2="20.935" y2="60.154"/>
	<line fill="none" stroke-width="2" stroke="#FF0000" x1="62.14" y1="24.302" x2="25.184" y2="61.517"/>
	<line fill="none" stroke-width="2" stroke="#FF0000" x1="62.881" y1="29.174" x2="30.044" y2="62.271"/>
	<line fill="none" stroke-width="2" stroke="#FF0000" x1="62.871" y1="34.795" x2="35.669" y2="62.257"/>
	<line fill="none" stroke-width="2" stroke="#FF0000" x1="61.381" y1="41.897" x2="43.078" y2="60.461"/>
</g>
<g id="White">
	<circle fill="none" stroke-width="2" stroke="#00FF00" cx="32.375" cy="31.75" r="30.625"/>
	<line fill="none" stroke-width="2" stroke="#00FF00" x1="21.538" y1="3.174" x2="3.604" y2="21.364"/>
	<line fill="none" stroke-width="2" stroke="#00FF00" x1="29.14" y1="1.184" x2="1.965" y2="28.614"/>
	<line fill="none" stroke-width="2" stroke="#00FF00" x1="34.695" y1="1.24" x2="1.88" y2="34.313"/>
	<line fill="none" stroke-width="2" stroke="#00FF00" x1="39.567" y1="1.979" x2="2.674" y2="39.129"/>
	<line fill="none" stroke-width="2" stroke="#00FF00" x1="43.839" y1="3.321" x2="4.042" y2="43.373"/>
	<line fill="none" stroke-width="2" stroke="#00FF00" x1="47.594" y1="5.177" x2="5.922" y2="47.105"/>
	<line fill="none" stroke-width="2" stroke="#00FF00" x1="50.978" y1="7.406" x2="8.148" y2="50.491"/>
	<line fill="none" stroke-width="2" stroke="#00FF00" x1="53.956" y1="10.039" x2="10.784" y2="53.468"/>
	<line fill="none" stroke-width="2" stroke="#00FF00" x1="56.585" y1="13.022" x2="13.797" y2="56.067"/>
	<line fill="none" stroke-width="2" stroke="#00FF00" x1="58.843" y1="16.375" x2="17.165" y2="58.312"/>
	<line fill="none" stroke-width="2" stroke="#00FF00" x1="60.674" y1="20.157" x2="20.935" y2="60.154"/>
	<line fill="none" stroke-width="2" stroke="#00FF00" x1="62.14" y1="24.302" x2="25.184" y2="61.517"/>
	<line fill="none" stroke-width="2" stroke="#00FF00" x1="62.881" y1="29.174" x2="30.044" y2="62.271"/>
	<line fill="none" stroke-width="2" stroke="#00FF00" x1="62.871" y1="34.795" x2="35.669" y2="62.257"/>
	<line fill="none" stroke-width="2" stroke="#00FF00" x1="61.381" y1="41.897" x2="43.078" y2="60.461"/>
</g>
</svg>
