<?xml version="1.0" encoding="utf-8"?>
<!-- Generator: Adobe Illustrator 14.0.0, SVG Export Plug-In . SVG Version: 6.00 Build 43363)  -->
<!DOCTYPE svg PUBLIC "-//W3C//DTD SVG 1.1//EN" "http://www.w3.org/Graphics/SVG/1.1/DTD/svg11.dtd">
<svg version="1.1" id="图层_1" xmlns="http://www.w3.org/2000/svg" xmlns:xlink="http://www.w3.org/1999/xlink" x="0px" y="0px"
	 width="64px" height="64px" viewBox="0 0 64 64" enable-background="new 0 0 64 64" xml:space="preserve">
<g id="Blue">
	<polygon fill="none" stroke-width="2" stroke="#0000FF" points="62.834,33 36.25,33 36.25,23 56,23 	"/>
	<polygon fill="#0000FF" points="10.5,30.833 1,32.584 10.5,35.25 8.083,33 	"/>
	<line fill="none" stroke-width="2" stroke="#0000FF" x1="8.083" y1="33" x2="15.625" y2="33"/>
	<line fill="none" stroke-width="2" stroke="#0000FF" x1="23.25" y1="33" x2="32" y2="33"/>
	<circle fill="#0000FF" cx="19.813" cy="33.063" r="1.719"/>
</g>
<g id="Red">
	<polygon fill="none" stroke-width="2" stroke="#FF0000" points="62.834,33 36.25,33 36.25,23 56,23 	"/>
	<polygon fill="#FF0000" points="10.5,30.833 1,32.584 10.5,35.25 8.083,33 	"/>
	<line fill="none" stroke-width="2" stroke="#FF0000" x1="8.083" y1="33" x2="15.625" y2="33"/>
	<line fill="none" stroke-width="2" stroke="#FF0000" x1="23.25" y1="33" x2="32" y2="33"/>
	<circle fill="#FF0000" cx="19.813" cy="33.063" r="1.719"/>
</g>
<g id="White">
	<polygon fill="none" stroke-width="2" stroke="#00FF00" points="62.834,33 36.25,33 36.25,23 56,23 	"/>
	<polygon fill="#00FF00" points="10.5,30.833 1,32.584 10.5,35.25 8.083,33 	"/>
	<line fill="none" stroke-width="2" stroke="#00FF00" x1="8.083" y1="33" x2="15.625" y2="33"/>
	<line fill="none" stroke-width="2" stroke="#00FF00" x1="23.25" y1="33" x2="32" y2="33"/>
	<circle fill="#00FF00" cx="19.813" cy="33.063" r="1.719"/>
</g>
</svg>
