<?xml version="1.0" encoding="utf-8"?>
<!-- Generator: Adobe Illustrator 14.0.0, SVG Export Plug-In . SVG Version: 6.00 Build 43363)  -->
<!DOCTYPE svg PUBLIC "-//W3C//DTD SVG 1.1//EN" "http://www.w3.org/Graphics/SVG/1.1/DTD/svg11.dtd">
<svg version="1.1" id="图层_1" xmlns="http://www.w3.org/2000/svg" xmlns:xlink="http://www.w3.org/1999/xlink" x="0px" y="0px"
	 width="64px" height="64px" viewBox="0 0 64 64" enable-background="new 0 0 64 64" xml:space="preserve">
<g id="Blue">
	<path fill="none" stroke-width="2" stroke="#0000FF" d="M4.5,41.625C4.5,24.504,14.879,11.24,32,11.24c17.121,0,27.125,13.879,27.125,31"/>
	<path fill="none" stroke-width="2" stroke="#0000FF" d="M3.5,46.775c0,0,24.75-13.475,55.625,0"/>
	<line fill="none" stroke-width="2" stroke="#0000FF" x1="1.5" y1="45" x2="5.375" y2="51.125"/>
	<line fill="none" stroke-width="2" stroke="#0000FF" x1="61.625" y1="45" x2="58" y2="51.125"/>
	<polygon fill="#0000FF" points="24.5,45.5 12.5,48.063 11.875,45.594 24.5,43.125 	"/>
	<polygon fill="#0000FF" points="39.229,44.906 51.229,47.469 51.854,45 39.229,42.531 	"/>
</g>
<g id="Red">
	<path fill="none" stroke-width="2" stroke="#FF0000" d="M4.5,41.625C4.5,24.504,14.879,11.24,32,11.24c17.121,0,27.125,13.879,27.125,31"/>
	<path fill="none" stroke-width="2" stroke="#FF0000" d="M3.5,46.775c0,0,24.75-13.475,55.625,0"/>
	<line fill="none" stroke-width="2" stroke="#FF0000" x1="1.5" y1="45" x2="5.375" y2="51.125"/>
	<line fill="none" stroke-width="2" stroke="#FF0000" x1="61.625" y1="45" x2="58" y2="51.125"/>
	<polygon fill="#FF0000" points="24.5,45.5 12.5,48.063 11.875,45.594 24.5,43.125 	"/>
	<polygon fill="#FF0000" points="39.229,44.906 51.229,47.469 51.854,45 39.229,42.531 	"/>
</g>
<g id="White">
	<path fill="none" stroke-width="2" stroke="#00FF00" d="M4.5,41.625C4.5,24.504,14.879,11.24,32,11.24c17.121,0,27.125,13.879,27.125,31"/>
	<path fill="none" stroke-width="2" stroke="#00FF00" d="M3.5,46.775c0,0,24.75-13.475,55.625,0"/>
	<line fill="none" stroke-width="2" stroke="#00FF00" x1="1.5" y1="45" x2="5.375" y2="51.125"/>
	<line fill="none" stroke-width="2" stroke="#00FF00" x1="61.625" y1="45" x2="58" y2="51.125"/>
	<polygon fill="#00FF00" points="24.5,45.5 12.5,48.063 11.875,45.594 24.5,43.125 	"/>
	<polygon fill="#00FF00" points="39.229,44.906 51.229,47.469 51.854,45 39.229,42.531 	"/>
</g>
</svg>
