<?xml version="1.0" encoding="utf-8"?>
<!-- Generator: Adobe Illustrator 14.0.0, SVG Export Plug-In . SVG Version: 6.00 Build 43363)  -->
<!DOCTYPE svg PUBLIC "-//W3C//DTD SVG 1.1//EN" "http://www.w3.org/Graphics/SVG/1.1/DTD/svg11.dtd">
<svg version="1.1" id="图层_1" xmlns="http://www.w3.org/2000/svg" xmlns:xlink="http://www.w3.org/1999/xlink" x="0px" y="0px"
	 width="64px" height="64px" viewBox="0 0 64 64" enable-background="new 0 0 64 64" xml:space="preserve">
<g id="Blue">
	<line fill="none" stroke-width="2" stroke="#FFFF00" x1="29.948" y1="44.761" x2="56.39" y2="44.761"/>
	<line fill="none" stroke-width="2" stroke="#FFFF00" x1="33.59" y1="38.895" x2="52.25" y2="38.795"/>
	<line fill="none" stroke-width="2" stroke="#FFFF00" x1="23.75" y1="40.038" x2="30.71" y2="44.744"/>
	<line fill="none" stroke-width="2" stroke="#FFFF00" x1="30.71" y1="44.744" x2="23.75" y2="49.418"/>
	<rect x="1.841" y="39.64" fill="none" stroke-width="2" stroke="#FFFF00" width="20.848" height="10.209"/>
	<line fill="none" stroke-width="2" stroke="#FFFF00" x1="51.889" y1="39.38" x2="51.889" y2="28.531"/>
	<line fill="none" stroke-width="2" stroke="#FFFF00" x1="34.08" y1="38.795" x2="34.08" y2="27.945"/>
	<line fill="none" stroke-width="2" stroke="#FFFF00" x1="29.948" y1="17.975" x2="56.39" y2="17.975"/>
	<line fill="none" stroke-width="2" stroke="#FFFF00" x1="23.75" y1="13.251" x2="30.71" y2="17.958"/>
	<line fill="none" stroke-width="2" stroke="#FFFF00" x1="30.71" y1="17.958" x2="23.75" y2="22.631"/>
	<rect x="1.841" y="12.854" fill="none" stroke-width="2" stroke="#FFFF00" width="20.848" height="10.208"/>
	<line fill="none" stroke-width="2" stroke="#0000FF" x1="29.948" y1="45.062" x2="56.39" y2="45.062"/>
	<polygon fill="#0000FF" points="54.938,46.831 56.39,44.85 54.938,42.689 62.584,45.062 	"/>
	<line fill="none" stroke-width="2" stroke="#0000FF" x1="52.25" y1="39.38" x2="52.25" y2="26.611"/>
	<polygon fill="#0000FF" points="54.043,31.314 52.25,30.32 50.397,31.314 52.25,23.36 	"/>
	<line fill="none" stroke-width="2" stroke="#0000FF" x1="33.561" y1="39.38" x2="33.59" y2="26.125"/>
	<polygon fill="#0000FF" points="35.383,30.829 33.59,29.834 31.737,30.829 33.59,22.874 	"/>
	<rect x="1.333" y="39.104" fill="none" stroke-width="2" stroke="#0000FF" width="21.919" height="11.313"/>
	<line fill="none" stroke-width="2" stroke="#0000FF" x1="23.252" y1="39.104" x2="31.737" y2="44.761"/>
	<line fill="none" stroke-width="2" stroke="#0000FF" x1="31.737" y1="44.761" x2="23.252" y2="50.417"/>
	<line fill="none" stroke-width="2" stroke="#0000FF" x1="52.25" y1="39.38" x2="33.771" y2="39.38"/>
	<line fill="none" stroke-width="2" stroke="#0000FF" x1="29.948" y1="18.276" x2="56.39" y2="18.276"/>
	<polygon fill="#0000FF" points="54.938,20.045 56.39,18.063 54.938,15.904 62.584,18.276 	"/>
	<rect x="1.333" y="12.317" fill="none" stroke-width="2" stroke="#0000FF" width="21.919" height="11.313"/>
	<line fill="none" stroke-width="2" stroke="#0000FF" x1="23.252" y1="12.317" x2="31.737" y2="17.974"/>
	<line fill="none" stroke-width="2" stroke="#0000FF" x1="31.737" y1="17.974" x2="23.252" y2="23.631"/>
</g>
<g id="Red">
	<line fill="none" stroke-width="2" stroke="#FFFF00" x1="29.948" y1="44.761" x2="56.39" y2="44.761"/>
	<line fill="none" stroke-width="2" stroke="#FFFF00" x1="33.59" y1="38.895" x2="52.25" y2="38.795"/>
	<line fill="none" stroke-width="2" stroke="#FFFF00" x1="23.75" y1="40.038" x2="30.71" y2="44.744"/>
	<line fill="none" stroke-width="2" stroke="#FFFF00" x1="30.71" y1="44.744" x2="23.75" y2="49.418"/>
	<rect x="1.841" y="39.64" fill="none" stroke-width="2" stroke="#FFFF00" width="20.848" height="10.209"/>
	<line fill="none" stroke-width="2" stroke="#FFFF00" x1="51.889" y1="39.38" x2="51.889" y2="28.531"/>
	<line fill="none" stroke-width="2" stroke="#FFFF00" x1="34.08" y1="38.795" x2="34.08" y2="27.945"/>
	<line fill="none" stroke-width="2" stroke="#FFFF00" x1="29.948" y1="17.975" x2="56.39" y2="17.975"/>
	<line fill="none" stroke-width="2" stroke="#FFFF00" x1="23.75" y1="13.251" x2="30.71" y2="17.958"/>
	<line fill="none" stroke-width="2" stroke="#FFFF00" x1="30.71" y1="17.958" x2="23.75" y2="22.631"/>
	<rect x="1.841" y="12.854" fill="none" stroke-width="2" stroke="#FFFF00" width="20.848" height="10.208"/>
	<line fill="none" stroke-width="2" stroke="#FF0000" x1="29.948" y1="45.062" x2="56.39" y2="45.062"/>
	<polygon fill="#FF0000" points="54.938,46.831 56.39,44.85 54.938,42.689 62.584,45.062 	"/>
	<line fill="none" stroke-width="2" stroke="#FF0000" x1="52.25" y1="39.38" x2="52.25" y2="26.611"/>
	<polygon fill="#FF0000" points="54.043,31.314 52.25,30.32 50.397,31.314 52.25,23.36 	"/>
	<line fill="none" stroke-width="2" stroke="#FF0000" x1="33.561" y1="39.38" x2="33.59" y2="26.125"/>
	<polygon fill="#FF0000" points="35.383,30.829 33.59,29.834 31.737,30.829 33.59,22.874 	"/>
	<rect x="1.333" y="39.104" fill="none" stroke-width="2" stroke="#FF0000" width="21.919" height="11.313"/>
	<line fill="none" stroke-width="2" stroke="#FF0000" x1="23.252" y1="39.104" x2="31.737" y2="44.761"/>
	<line fill="none" stroke-width="2" stroke="#FF0000" x1="31.737" y1="44.761" x2="23.252" y2="50.417"/>
	<line fill="none" stroke-width="2" stroke="#FF0000" x1="52.25" y1="39.38" x2="33.771" y2="39.38"/>
	<line fill="none" stroke-width="2" stroke="#FF0000" x1="29.948" y1="18.276" x2="56.39" y2="18.276"/>
	<polygon fill="#FF0000" points="54.938,20.045 56.39,18.063 54.938,15.904 62.584,18.276 	"/>
	<rect x="1.333" y="12.317" fill="none" stroke-width="2" stroke="#FF0000" width="21.919" height="11.313"/>
	<line fill="none" stroke-width="2" stroke="#FF0000" x1="23.252" y1="12.317" x2="31.737" y2="17.974"/>
	<line fill="none" stroke-width="2" stroke="#FF0000" x1="31.737" y1="17.974" x2="23.252" y2="23.631"/>
</g>
<g id="White">
	<line fill="none" stroke-width="2" stroke="#FFFF00" x1="29.948" y1="44.761" x2="56.39" y2="44.761"/>
	<line fill="none" stroke-width="2" stroke="#FFFF00" x1="33.59" y1="38.895" x2="52.25" y2="38.795"/>
	<line fill="none" stroke-width="2" stroke="#FFFF00" x1="23.75" y1="40.038" x2="30.71" y2="44.744"/>
	<line fill="none" stroke-width="2" stroke="#FFFF00" x1="30.71" y1="44.744" x2="23.75" y2="49.418"/>
	<rect x="1.841" y="39.64" fill="none" stroke-width="2" stroke="#FFFF00" width="20.848" height="10.209"/>
	<line fill="none" stroke-width="2" stroke="#FFFF00" x1="51.889" y1="39.38" x2="51.889" y2="28.531"/>
	<line fill="none" stroke-width="2" stroke="#FFFF00" x1="34.08" y1="38.795" x2="34.08" y2="27.945"/>
	<line fill="none" stroke-width="2" stroke="#FFFF00" x1="29.948" y1="17.975" x2="56.39" y2="17.975"/>
	<line fill="none" stroke-width="2" stroke="#FFFF00" x1="23.75" y1="13.251" x2="30.71" y2="17.958"/>
	<line fill="none" stroke-width="2" stroke="#FFFF00" x1="30.71" y1="17.958" x2="23.75" y2="22.631"/>
	<rect x="1.841" y="12.854" fill="none" stroke-width="2" stroke="#FFFF00" width="20.848" height="10.208"/>
	<line fill="none" stroke-width="2" stroke="#00FF00" x1="29.948" y1="45.062" x2="56.39" y2="45.062"/>
	<polygon fill="#00FF00" points="54.938,46.831 56.39,44.85 54.938,42.689 62.584,45.062 	"/>
	<line fill="none" stroke-width="2" stroke="#00FF00" x1="52.25" y1="39.38" x2="52.25" y2="26.611"/>
	<polygon fill="#00FF00" points="54.043,31.314 52.25,30.32 50.397,31.314 52.25,23.36 	"/>
	<line fill="none" stroke-width="2" stroke="#00FF00" x1="33.561" y1="39.38" x2="33.59" y2="26.125"/>
	<polygon fill="#00FF00" points="35.383,30.829 33.59,29.834 31.737,30.829 33.59,22.874 	"/>
	<rect x="1.333" y="39.104" fill="none" stroke-width="2" stroke="#00FF00" width="21.919" height="11.313"/>
	<line fill="none" stroke-width="2" stroke="#00FF00" x1="23.252" y1="39.104" x2="31.737" y2="44.761"/>
	<line fill="none" stroke-width="2" stroke="#00FF00" x1="31.737" y1="44.761" x2="23.252" y2="50.417"/>
	<line fill="none" stroke-width="2" stroke="#00FF00" x1="52.25" y1="39.38" x2="33.771" y2="39.38"/>
	<line fill="none" stroke-width="2" stroke="#00FF00" x1="29.948" y1="18.276" x2="56.39" y2="18.276"/>
	<polygon fill="#00FF00" points="54.938,20.045 56.39,18.063 54.938,15.904 62.584,18.276 	"/>
	<rect x="1.333" y="12.317" fill="none" stroke-width="2" stroke="#00FF00" width="21.919" height="11.313"/>
	<line fill="none" stroke-width="2" stroke="#00FF00" x1="23.252" y1="12.317" x2="31.737" y2="17.974"/>
	<line fill="none" stroke-width="2" stroke="#00FF00" x1="31.737" y1="17.974" x2="23.252" y2="23.631"/>
</g>
</svg>
