<?xml version="1.0" encoding="utf-8"?>
<!-- Generator: Adobe Illustrator 13.0.0, SVG Export Plug-In . SVG Version: 6.00 Build 14948)  -->
<!DOCTYPE svg PUBLIC "-//W3C//DTD SVG 1.1//EN" "http://www.w3.org/Graphics/SVG/1.1/DTD/svg11.dtd">
<svg version="1.1" xmlns="http://www.w3.org/2000/svg" xmlns:xlink="http://www.w3.org/1999/xlink" x="0px" y="0px"
	 width="47.375px" height="29.875px" viewBox="0 0 47.375 29.875" enable-background="new 0 0 47.375 29.875" xml:space="preserve">
<g id="Blue">
	<circle fill="none" stroke-width="2" stroke="#0000FF" cx="11.563" cy="24.125" r="5.25"/>
	<circle fill="none" stroke-width="2" stroke="#0000FF" cx="33.875" cy="23.938" r="5.375"/>
	<line fill="none" stroke-width="2" stroke="#0000FF" x1="0" y1="18.375" x2="47.375" y2="18.375"/>
	<polygon fill="#0000FF" points="6.375,0 13.313,7 13.063,3.75 25.688,9.563 25.688,18.188 27.625,18.188 27.625,11.688 
		31.188,16.25 32.313,15.125 28.875,10.438 35.813,13.75 33.938,18.188 35.5,18.438 40.25,9.063 38.625,8.25 36.313,12.25 29.188,9 
		34.938,8.375 35.125,6.875 26.188,7.75 13.875,2.25 16.125,0.063 	"/>
</g>
<g id="Red">
	<circle fill="none" stroke-width="2" stroke="#FF0000" cx="11.563" cy="24.125" r="5.25"/>
	<circle fill="none" stroke-width="2" stroke="#FF0000" cx="33.875" cy="23.938" r="5.375"/>
	<line fill="none" stroke-width="2" stroke="#FF0000" x1="0" y1="18.375" x2="47.375" y2="18.375"/>
	<polygon fill="#FF0000" points="6.375,0 13.313,7 13.063,3.75 25.688,9.563 25.688,18.188 27.625,18.188 27.625,11.688 
		31.188,16.25 32.313,15.125 28.875,10.438 35.813,13.75 33.938,18.188 35.5,18.438 40.25,9.063 38.625,8.25 36.313,12.25 29.188,9 
		34.938,8.375 35.125,6.875 26.188,7.75 13.875,2.25 16.125,0.063 	"/>
</g>
<g id="White">
	<circle fill="none" stroke-width="2" stroke="#00FF00" cx="11.563" cy="24.125" r="5.25"/>
	<circle fill="none" stroke-width="2" stroke="#00FF00" cx="33.875" cy="23.938" r="5.375"/>
	<line fill="none" stroke-width="2" stroke="#00FF00" x1="0" y1="18.375" x2="47.375" y2="18.375"/>
	<polygon fill="#00FF00" points="6.375,0 13.313,7 13.063,3.75 25.688,9.563 25.688,18.188 27.625,18.188 27.625,11.688 
		31.188,16.25 32.313,15.125 28.875,10.438 35.813,13.75 33.938,18.188 35.5,18.438 40.25,9.063 38.625,8.25 36.313,12.25 29.188,9 
		34.938,8.375 35.125,6.875 26.188,7.75 13.875,2.25 16.125,0.063 	"/>
</g>
</svg>
