<?xml version="1.0" encoding="utf-8"?>
<!-- Generator: Adobe Illustrator 13.0.0, SVG Export Plug-In . SVG Version: 6.00 Build 14948)  -->
<!DOCTYPE svg PUBLIC "-//W3C//DTD SVG 1.1//EN" "http://www.w3.org/Graphics/SVG/1.1/DTD/svg11.dtd">
<svg version="1.1" id="图层_1" xmlns="http://www.w3.org/2000/svg" xmlns:xlink="http://www.w3.org/1999/xlink" x="0px" y="0px"
	 width="10.958px" height="48.231px" viewBox="0 0 10.958 48.231" enable-background="new 0 0 10.958 48.231" xml:space="preserve">
<g id="Blue">
	<line x1="5.5" y1="8.625" x2="5.375" y2="46.875" stroke-width="2" stroke="#0000FF" stroke-opacity="1" fill="none" />
	<polygon fill="#0000FF" stroke="#0000FF" stroke-width="2" points="1.905,11.939 5.653,2.662 9.424,11.935 	"/>
	<line fill="none" stroke="#0000FF" stroke-width="2" stroke-linecap="round" x1="1.558" y1="47.231" x2="9.852" y2="47.231"/>
	<polyline fill="none" stroke="#0000FF" stroke-width="2" stroke-linecap="round" points="1,43.074 5.625,38.448 9.958,42.781 	"/>
</g>
<g id="Red">
	<line x1="5.5" y1="8.625" x2="5.375" y2="46.875" stroke-width="2" stroke="#FF0000" stroke-opacity="1" fill="none" />
	<polygon fill="#FF0000" stroke="#FF0000" stroke-width="2" points="1.905,11.939 5.653,2.662 9.424,11.935 	"/>
	<line fill="none" stroke="#FF0000" stroke-width="2" stroke-linecap="round" x1="1.558" y1="47.231" x2="9.852" y2="47.231"/>
	<polyline fill="none" stroke="#FF0000" stroke-width="2" stroke-linecap="round" points="1,43.074 5.625,38.448 9.958,42.781 	"/>
</g>
<g id="White">
	<line x1="5.5" y1="8.625" x2="5.375" y2="46.875" stroke-width="2" stroke="#00FF00" stroke-opacity="1" fill="none" />
	<polygon fill="#00FF00" stroke="#00FF00" stroke-width="2" points="1.905,11.939 5.653,2.662 9.424,11.935 	"/>
	<line fill="none" stroke="#00FF00" stroke-width="2" stroke-linecap="round" x1="1.558" y1="47.231" x2="9.852" y2="47.231"/>
	<polyline fill="none" stroke="#00FF00" stroke-width="2" stroke-linecap="round" points="1,43.074 5.625,38.448 9.958,42.781 	"/>
</g>
</svg>
