<?xml version="1.0" encoding="utf-8"?>
<!-- Generator: Adobe Illustrator 13.0.0, SVG Export Plug-In . SVG Version: 6.00 Build 14948)  -->
<!DOCTYPE svg PUBLIC "-//W3C//DTD SVG 1.1//EN" "http://www.w3.org/Graphics/SVG/1.1/DTD/svg11.dtd">
<svg version="1.1" xmlns="http://www.w3.org/2000/svg" xmlns:xlink="http://www.w3.org/1999/xlink" x="0px" y="0px"
	 width="45.469px" height="47.024px" viewBox="0 0 45.469 47.024" enable-background="new 0 0 45.469 47.024" xml:space="preserve">
<g id="Blue">
	<polygon fill="none" stroke-width="2" stroke="#0000FF" points="23.052,1.149 0.802,46.524 44.677,46.524 	"/>
	<polyline fill="#0000FF" points="23.011,7.941 19.094,17.524 22.261,15.441 22.344,29.805 18.261,38.358 22.333,33.336 
		22.344,42.274 18.177,42.274 18.177,44.524 27.927,44.524 27.927,42.358 24.093,42.358 24.083,33.243 27.771,38.055 23.927,29.68 
		24.011,15.357 26.927,17.357 	"/>
</g>
<g id="Red">
	<polygon fill="none" stroke-width="2" stroke="#FF0000" points="23.052,1.149 0.802,46.524 44.677,46.524 	"/>
	<polyline fill="#FF0000" points="23.011,7.941 19.094,17.524 22.261,15.441 22.344,29.805 18.261,38.358 22.333,33.336 
		22.344,42.274 18.177,42.274 18.177,44.524 27.927,44.524 27.927,42.358 24.093,42.358 24.083,33.243 27.771,38.055 23.927,29.68 
		24.011,15.357 26.927,17.357 	"/>
</g>
<g id="White">
	<polygon fill="none" stroke-width="2" stroke="#00FF00" points="23.052,1.149 0.802,46.524 44.677,46.524 	"/>
	<polyline fill="#00FF00" points="23.011,7.941 19.094,17.524 22.261,15.441 22.344,29.805 18.261,38.358 22.333,33.336 
		22.344,42.274 18.177,42.274 18.177,44.524 27.927,44.524 27.927,42.358 24.093,42.358 24.083,33.243 27.771,38.055 23.927,29.68 
		24.011,15.357 26.927,17.357 	"/>
</g>
</svg>
