<?xml version="1.0" encoding="utf-8"?>
<!-- Generator: Adobe Illustrator 14.0.0, SVG Export Plug-In . SVG Version: 6.00 Build 43363)  -->
<!DOCTYPE svg PUBLIC "-//W3C//DTD SVG 1.1//EN" "http://www.w3.org/Graphics/SVG/1.1/DTD/svg11.dtd">
<svg version="1.1" id="图层_1" xmlns="http://www.w3.org/2000/svg" xmlns:xlink="http://www.w3.org/1999/xlink" x="0px" y="0px"
	 width="64px" height="64px" viewBox="0 0 64 64" enable-background="new 0 0 64 64" xml:space="preserve">
<g id="Blue">
	<line fill="none" stroke-width="2" stroke="#0000FF" x1="31.898" y1="7.256" x2="31.898" y2="62.066"/>
	<line fill="none" stroke="#0000FF" stroke-width="0.5" x1="25.589" y1="57.303" x2="31.477" y2="51.134"/>
	<line fill="none" stroke="#0000FF" stroke-width="0.5" x1="37.785" y1="57.441" x2="32.248" y2="51.134"/>
	<line fill="none" stroke="#000000" stroke-width="0.5" x1="25.589" y1="56.303" x2="31.477" y2="50.134"/>
	<line fill="none" stroke="#000000" stroke-width="0.5" x1="37.785" y1="56.441" x2="32.248" y2="50.134"/>
	<polygon fill="#000100" points="31.898,2.667 34.385,12.175 31.898,8.516 29.412,12.175 	"/>
</g>
<g id="Red">
	<line fill="none" stroke-width="2" stroke="#FF0000" x1="31.898" y1="7.256" x2="31.898" y2="62.066"/>
	<line fill="none" stroke="#FF0000" stroke-width="0.5" x1="25.589" y1="57.303" x2="31.477" y2="51.134"/>
	<line fill="none" stroke="#FF0000" stroke-width="0.5" x1="37.785" y1="57.441" x2="32.248" y2="51.134"/>
	<line fill="none" stroke="#000000" stroke-width="0.5" x1="25.589" y1="56.303" x2="31.477" y2="50.134"/>
	<line fill="none" stroke="#000000" stroke-width="0.5" x1="37.785" y1="56.441" x2="32.248" y2="50.134"/>
	<polygon fill="#000100" points="31.898,2.667 34.385,12.175 31.898,8.516 29.412,12.175 	"/>
</g>
<g id="White">
	<line fill="none" stroke-width="2" stroke="#00FF00" x1="31.898" y1="7.256" x2="31.898" y2="62.066"/>
	<line fill="none" stroke="#00FF00" stroke-width="0.5" x1="25.589" y1="57.303" x2="31.477" y2="51.134"/>
	<line fill="none" stroke="#00FF00" stroke-width="0.5" x1="37.785" y1="57.441" x2="32.248" y2="51.134"/>
	<line fill="none" stroke="#000000" stroke-width="0.5" x1="25.589" y1="56.303" x2="31.477" y2="50.134"/>
	<line fill="none" stroke="#000000" stroke-width="0.5" x1="37.785" y1="56.441" x2="32.248" y2="50.134"/>
	<polygon fill="#000100" points="31.898,2.667 34.385,12.175 31.898,8.516 29.412,12.175 	"/>
</g>
</svg>
