<?xml version="1.0" encoding="utf-8"?>
<!-- Generator: Adobe Illustrator 14.0.0, SVG Export Plug-In . SVG Version: 6.00 Build 43363)  -->
<!DOCTYPE svg PUBLIC "-//W3C//DTD SVG 1.1//EN" "http://www.w3.org/Graphics/SVG/1.1/DTD/svg11.dtd">
<svg version="1.1" id="图层_1" xmlns="http://www.w3.org/2000/svg" xmlns:xlink="http://www.w3.org/1999/xlink" x="0px" y="0px"
	 width="64px" height="64px" viewBox="0 0 64 64" enable-background="new 0 0 64 64" xml:space="preserve">
<g id="Blue">
	<polygon fill="none" stroke-width="2" stroke="#0000FF" points="42.188,11.765 33.164,11.759 24.143,11.754 28.657,6.466 33.171,1.177 37.68,6.471 	
		"/>
	<line fill="none" stroke-width="2" stroke="#0000FF" x1="23.705" y1="11.978" x2="23.705" y2="50.771"/>
	<line fill="none" stroke-width="2" stroke="#0000FF" x1="42.632" y1="12.099" x2="42.632" y2="50.771"/>
	<line fill="none" stroke-width="2" stroke="#0000FF" x1="18.545" y1="50.421" x2="48.917" y2="50.421"/>
	<line fill="none" stroke-width="2" stroke="#0000FF" x1="23.603" y1="32.95" x2="14.82" y2="41.604"/>
	<line fill="none" stroke-width="2" stroke="#0000FF" x1="42.588" y1="32.95" x2="52.273" y2="41.346"/>
	<line fill="none" stroke-width="2" stroke="#0000FF" x1="24.063" y1="31.457" x2="42.303" y2="31.457"/>
	<path fill="none" stroke-width="2" stroke="#0000FF" d="M54.334,36.996c0,14.738-9.896,25.999-20.834,25.999c-10.936,0-20.833-11.776-20.833-26.517"
		/>
</g>
<g id="Red">
	<polygon fill="none" stroke-width="2" stroke="#FF0000" points="42.188,11.765 33.164,11.759 24.143,11.754 28.657,6.466 33.171,1.177 37.68,6.471 	
		"/>
	<line fill="none" stroke-width="2" stroke="#FF0000" x1="23.705" y1="11.978" x2="23.705" y2="50.771"/>
	<line fill="none" stroke-width="2" stroke="#FF0000" x1="42.632" y1="12.099" x2="42.632" y2="50.771"/>
	<line fill="none" stroke-width="2" stroke="#FF0000" x1="18.545" y1="50.421" x2="48.917" y2="50.421"/>
	<line fill="none" stroke-width="2" stroke="#FF0000" x1="23.603" y1="32.95" x2="14.82" y2="41.604"/>
	<line fill="none" stroke-width="2" stroke="#FF0000" x1="42.588" y1="32.95" x2="52.273" y2="41.346"/>
	<line fill="none" stroke-width="2" stroke="#FF0000" x1="24.063" y1="31.457" x2="42.303" y2="31.457"/>
	<path fill="none" stroke-width="2" stroke="#FF0000" d="M54.334,36.996c0,14.738-9.896,25.999-20.834,25.999c-10.936,0-20.833-11.776-20.833-26.517"
		/>
</g>
<g id="White">
	<polygon fill="none" stroke-width="2" stroke="#00FF00" points="42.188,11.765 33.164,11.759 24.143,11.754 28.657,6.466 33.171,1.177 37.68,6.471 	
		"/>
	<line fill="none" stroke-width="2" stroke="#00FF00" x1="23.705" y1="11.978" x2="23.705" y2="50.771"/>
	<line fill="none" stroke-width="2" stroke="#00FF00" x1="42.632" y1="12.099" x2="42.632" y2="50.771"/>
	<line fill="none" stroke-width="2" stroke="#00FF00" x1="18.545" y1="50.421" x2="48.917" y2="50.421"/>
	<line fill="none" stroke-width="2" stroke="#00FF00" x1="23.603" y1="32.95" x2="14.82" y2="41.604"/>
	<line fill="none" stroke-width="2" stroke="#00FF00" x1="42.588" y1="32.95" x2="52.273" y2="41.346"/>
	<line fill="none" stroke-width="2" stroke="#00FF00" x1="24.063" y1="31.457" x2="42.303" y2="31.457"/>
	<path fill="none" stroke-width="2" stroke="#00FF00" d="M54.334,36.996c0,14.738-9.896,25.999-20.834,25.999c-10.936,0-20.833-11.776-20.833-26.517"
		/>
</g>
</svg>
