<?xml version="1.0" encoding="utf-8"?>
<!-- Generator: Adobe Illustrator 14.0.0, SVG Export Plug-In . SVG Version: 6.00 Build 43363)  -->
<!DOCTYPE svg PUBLIC "-//W3C//DTD SVG 1.1//EN" "http://www.w3.org/Graphics/SVG/1.1/DTD/svg11.dtd">
<svg version="1.1" id="图层_1" xmlns="http://www.w3.org/2000/svg" xmlns:xlink="http://www.w3.org/1999/xlink" x="0px" y="0px"
	 width="64px" height="64px" viewBox="0 0 64 64" enable-background="new 0 0 64 64" xml:space="preserve">
<g id="Blue">
	<polygon fill="none" stroke-width="2" stroke="#0000FF" points="42.325,13.17 32.105,13.164 21.886,13.159 27,7.168 32.113,1.177 37.219,7.173 	"/>
	<line fill="none" stroke-width="2" stroke="#0000FF" x1="21.39" y1="13.412" x2="21.39" y2="57.357"/>
	<line fill="none" stroke-width="2" stroke="#0000FF" x1="42.83" y1="13.549" x2="42.83" y2="57.357"/>
	<line fill="none" stroke-width="2" stroke="#0000FF" x1="15.545" y1="56.959" x2="49.949" y2="56.959"/>
	<line fill="none" stroke-width="2" stroke="#0000FF" x1="15.545" y1="61" x2="49.949" y2="61"/>
	<line fill="none" stroke-width="2" stroke="#0000FF" x1="21.724" y1="27.98" x2="42.682" y2="27.98"/>
	<line fill="none" stroke-width="2" stroke="#0000FF" x1="21.724" y1="39.309" x2="42.682" y2="39.309"/>
	<line fill="none" stroke-width="2" stroke="#0000FF" x1="21" y1="36.172" x2="8.833" y2="51.506"/>
	<line fill="none" stroke-width="2" stroke="#0000FF" x1="43.001" y1="36.839" x2="56.001" y2="50.672"/>
</g>
<g id="Red">
	<polygon fill="none" stroke-width="2" stroke="#FF0000" points="42.325,13.17 32.105,13.164 21.886,13.159 27,7.168 32.113,1.177 37.219,7.173 	"/>
	<line fill="none" stroke-width="2" stroke="#FF0000" x1="21.39" y1="13.412" x2="21.39" y2="57.357"/>
	<line fill="none" stroke-width="2" stroke="#FF0000" x1="42.83" y1="13.549" x2="42.83" y2="57.357"/>
	<line fill="none" stroke-width="2" stroke="#FF0000" x1="15.545" y1="56.959" x2="49.949" y2="56.959"/>
	<line fill="none" stroke-width="2" stroke="#FF0000" x1="21.724" y1="27.98" x2="42.682" y2="27.98"/>
	<line fill="none" stroke-width="2" stroke="#FF0000" x1="21.724" y1="39.309" x2="42.682" y2="39.309"/>
	<line fill="none" stroke-width="2" stroke="#FF0000" x1="15.545" y1="61" x2="49.949" y2="61"/>
	<line fill="none" stroke-width="2" stroke="#FF0000" x1="21" y1="36.172" x2="8.833" y2="51.506"/>
	<line fill="none" stroke-width="2" stroke="#FF0000" x1="43.001" y1="36.839" x2="56.001" y2="50.672"/>
</g>
<g id="White">
	<polygon fill="none" stroke-width="2" stroke="#00FF00" points="42.325,13.17 32.105,13.164 21.886,13.159 27,7.168 32.113,1.177 37.219,7.173 	"/>
	<line fill="none" stroke-width="2" stroke="#00FF00" x1="21.39" y1="13.412" x2="21.39" y2="57.357"/>
	<line fill="none" stroke-width="2" stroke="#00FF00" x1="42.83" y1="13.549" x2="42.83" y2="57.357"/>
	<line fill="none" stroke-width="2" stroke="#00FF00" x1="15.545" y1="56.959" x2="49.949" y2="56.959"/>
	<line fill="none" stroke-width="2" stroke="#00FF00" x1="21.724" y1="27.98" x2="42.682" y2="27.98"/>
	<line fill="none" stroke-width="2" stroke="#00FF00" x1="21.724" y1="39.309" x2="42.682" y2="39.309"/>
	<line fill="none" stroke-width="2" stroke="#00FF00" x1="15.545" y1="61" x2="49.949" y2="61"/>
	<line fill="none" stroke-width="2" stroke="#00FF00" x1="21" y1="36.172" x2="8.833" y2="51.506"/>
	<line fill="none" stroke-width="2" stroke="#00FF00" x1="43.001" y1="36.839" x2="56.001" y2="50.672"/>
</g>
</svg>
