<?xml version="1.0" encoding="utf-8"?>
<!-- Generator: Adobe Illustrator 14.0.0, SVG Export Plug-In . SVG Version: 6.00 Build 43363)  -->
<!DOCTYPE svg PUBLIC "-//W3C//DTD SVG 1.1//EN" "http://www.w3.org/Graphics/SVG/1.1/DTD/svg11.dtd">
<svg version="1.1" id="图层_1" xmlns="http://www.w3.org/2000/svg" xmlns:xlink="http://www.w3.org/1999/xlink" x="0px" y="0px"
	 width="64px" height="64px" viewBox="0 0 64 64" enable-background="new 0 0 64 64" xml:space="preserve">
<g id="Blue">
	<polygon fill="none" stroke-width="2" stroke="#0000FF" points="45.186,14.453 33.727,14.446 22.268,14.439 28.001,7.722 33.734,1.005 39.46,7.729 	
		"/>
	<line fill="none" stroke-width="2" stroke="#0000FF" x1="21.71" y1="14.724" x2="21.71" y2="64"/>
	<line fill="none" stroke-width="2" stroke="#0000FF" x1="45.752" y1="14.877" x2="45.752" y2="64"/>
	<line fill="none" stroke-width="2" stroke="#0000FF" x1="15.157" y1="63.555" x2="53.734" y2="63.555"/>
	<line fill="none" stroke-width="2" stroke="#0000FF" x1="21.581" y1="41.361" x2="10.425" y2="52.354"/>
	<line fill="none" stroke-width="2" stroke="#0000FF" x1="45.695" y1="41.361" x2="58" y2="52.025"/>
	<line fill="none" stroke-width="2" stroke="#0000FF" x1="22.167" y1="39.006" x2="45.333" y2="39.006"/>
</g>
<g id="Red">
	<polygon fill="none" stroke-width="2" stroke="#FF0000" points="45.186,14.453 33.727,14.446 22.268,14.439 28.001,7.722 33.734,1.005 39.46,7.729 	
		"/>
	<line fill="none" stroke-width="2" stroke="#FF0000" x1="21.71" y1="14.724" x2="21.71" y2="64"/>
	<line fill="none" stroke-width="2" stroke="#FF0000" x1="45.752" y1="14.877" x2="45.752" y2="64"/>
	<line fill="none" stroke-width="2" stroke="#FF0000" x1="15.157" y1="63.555" x2="53.734" y2="63.555"/>
	<line fill="none" stroke-width="2" stroke="#FF0000" x1="21.581" y1="41.361" x2="10.425" y2="52.354"/>
	<line fill="none" stroke-width="2" stroke="#FF0000" x1="45.695" y1="41.361" x2="58" y2="52.025"/>
	<line fill="none" stroke-width="2" stroke="#FF0000" x1="22.167" y1="39.006" x2="45.333" y2="39.006"/>
</g>
<!-- <g id="White">
	<polygon fill="none" stroke-width="2" stroke="#00FF00" points="45.186,14.453 33.727,14.446 22.268,14.439 28.001,7.722 33.734,1.005 39.46,7.729 	
		"/>
	<line fill="none" stroke-width="2" stroke="#00FF00" x1="21.71" y1="14.724" x2="21.71" y2="64"/>
	<line fill="none" stroke-width="2" stroke="#00FF00" x1="45.752" y1="14.877" x2="45.752" y2="64"/>
	<line fill="none" stroke-width="2" stroke="#00FF00" x1="15.157" y1="63.555" x2="53.734" y2="63.555"/>
	<line fill="none" stroke-width="2" stroke="#00FF00" x1="21.581" y1="41.361" x2="10.425" y2="52.354"/>
	<line fill="none" stroke-width="2" stroke="#00FF00" x1="45.695" y1="41.361" x2="58" y2="52.025"/>
	<line fill="none" stroke-width="2" stroke="#00FF00" x1="22.167" y1="39.006" x2="45.333" y2="39.006"/>
</g> -->
</svg>
