<?xml version="1.0" encoding="utf-8"?>
<!-- Generator: Adobe Illustrator 14.0.0, SVG Export Plug-In . SVG Version: 6.00 Build 43363)  -->
<!DOCTYPE svg PUBLIC "-//W3C//DTD SVG 1.1//EN" "http://www.w3.org/Graphics/SVG/1.1/DTD/svg11.dtd">
<svg version="1.1" id="图层_1" xmlns="http://www.w3.org/2000/svg" xmlns:xlink="http://www.w3.org/1999/xlink" x="0px" y="0px"
	 width="64px" height="64px" viewBox="0 0 64 64" enable-background="new 0 0 64 64" xml:space="preserve">
<g id="Blue">
	<polygon fill="#0000FF" points="44.98,13.662 33.34,13.656 21.698,13.649 27.522,6.824 33.348,0 39.164,6.831 	"/>
	<line fill="none" stroke="#0000FF" stroke-width="2" x1="22.079" y1="13.506" x2="22.079" y2="63.785"/>
	<line fill="none" stroke="#0000FF" stroke-width="2" x1="22.65" y1="13.506" x2="22.65" y2="63.785"/>
	<line fill="none" stroke="#0000FF" stroke-width="2" x1="44.005" y1="13.6" x2="44.005" y2="63.998"/>
	<line fill="none" stroke="#0000FF" stroke-width="2" x1="44.576" y1="13.53" x2="44.576" y2="63.928"/>
	<line fill="none" stroke="#0000FF" stroke-width="2" x1="11.308" y1="63.548" x2="58.111" y2="63.548"/>
	<line fill="none" stroke="#0000FF" stroke-width="2" x1="11.308" y1="64" x2="58.111" y2="64"/>
	<line fill="none" stroke-width="2" stroke="#0000FF" x1="22.583" y1="36.583" x2="43.917" y2="36.583"/>
</g>
<g id="Red">
	<polygon fill="#FF0000" points="44.98,13.662 33.34,13.656 21.698,13.649 27.522,6.824 33.348,0 39.164,6.831 	"/>
	<line fill="none" stroke="#FF0000" stroke-width="2" x1="22.079" y1="13.506" x2="22.079" y2="63.785"/>
	<line fill="none" stroke="#FF0000" stroke-width="2" x1="22.65" y1="13.506" x2="22.65" y2="63.785"/>
	<line fill="none" stroke="#FF0000" stroke-width="2" x1="44.005" y1="13.6" x2="44.005" y2="63.998"/>
	<line fill="none" stroke="#FF0000" stroke-width="2" x1="44.576" y1="13.53" x2="44.576" y2="63.928"/>
	<line fill="none" stroke-width="2" stroke="#FF0000" x1="11.308" y1="63.548" x2="58.111" y2="63.548"/>
	<line fill="none" stroke-width="2" stroke="#FF0000" x1="22.583" y1="36.583" x2="43.917" y2="36.583"/>
</g>
<!-- <g id="White">
	<polygon fill="#00FF00" points="44.98,13.662 33.34,13.656 21.698,13.649 27.522,6.824 33.348,0 39.164,6.831 	"/>
	<line fill="none" stroke="#00FF00" stroke-width="2" x1="22.079" y1="13.506" x2="22.079" y2="63.785"/>
	<line fill="none" stroke="#00FF00" stroke-width="2" x1="22.65" y1="13.506" x2="22.65" y2="63.785"/>
	<line fill="none" stroke="#00FF00" stroke-width="2" x1="44.005" y1="13.6" x2="44.005" y2="63.998"/>
	<line fill="none" stroke="#00FF00" stroke-width="2" x1="44.576" y1="13.53" x2="44.576" y2="63.928"/>
	<line fill="none" stroke="#00FF00" stroke-width="2" x1="11.308" y1="63.548" x2="58.111" y2="63.548"/>
	<line fill="none" stroke="#00FF00" stroke-width="2" x1="11.308" y1="64" x2="58.111" y2="64"/>
	<line fill="none" stroke-width="2" stroke="#00FF00" x1="22.583" y1="36.583" x2="43.917" y2="36.583"/>
</g> -->
</svg>
