<?xml version="1.0" encoding="utf-8"?>
<!-- Generator: Adobe Illustrator 13.0.0, SVG Export Plug-In . SVG Version: 6.00 Build 14948)  -->
<!DOCTYPE svg PUBLIC "-//W3C//DTD SVG 1.1//EN" "http://www.w3.org/Graphics/SVG/1.1/DTD/svg11.dtd">
<svg version="1.1" xmlns="http://www.w3.org/2000/svg" xmlns:xlink="http://www.w3.org/1999/xlink" x="0px" y="0px"
	 width="45.496px" height="41.265px" viewBox="0 0 45.496 41.265" enable-background="new 0 0 45.496 41.265" xml:space="preserve">
<g id="Blue">
	<polyline display="inline" fill="none" stroke-width="2" stroke="#0000FF" points="0.437,39.891 22.062,1.016 45.062,41.016 	"/>
	<polyline display="inline" fill="none" stroke-width="2" stroke="#0000FF" points="14.312,27.391 22.187,21.141 30.187,27.391 	"/>
	<polyline display="inline" fill="none" stroke-width="2" stroke="#0000FF" points="18.812,38.641 22.312,35.516 25.812,38.641 	"/>
	<line display="inline" fill="none" stroke-width="2" stroke="#0000FF" x1="22.062" y1="10.266" x2="22.062" y2="35.516"/>
</g>
<g id="Red">
	<polyline display="inline" fill="none" stroke-width="2" stroke="#FF0000" points="0.437,39.891 22.062,1.016 45.062,41.016 	"/>
	<polyline display="inline" fill="none" stroke-width="2" stroke="#FF0000" points="14.312,27.391 22.187,21.141 30.187,27.391 	"/>
	<polyline display="inline" fill="none" stroke-width="2" stroke="#FF0000" points="18.812,38.641 22.312,35.516 25.812,38.641 	"/>
	<line display="inline" fill="none" stroke-width="2" stroke="#FF0000" x1="22.062" y1="10.266" x2="22.062" y2="35.516"/>
</g>
<g id="White">
	<polyline fill="none" stroke-width="2" stroke="#00FF00" points="0.437,39.891 22.062,1.016 45.062,41.016 	"/>
	<polyline fill="none" stroke-width="2" stroke="#00FF00" points="14.312,27.391 22.187,21.141 30.187,27.391 	"/>
	<polyline fill="none" stroke-width="2" stroke="#00FF00" points="18.812,38.641 22.312,35.516 25.812,38.641 	"/>
	<line fill="none" stroke-width="2" stroke="#00FF00" x1="22.062" y1="10.266" x2="22.062" y2="35.516"/>
</g>
</svg>
