<?xml version="1.0" encoding="utf-8"?>
<!-- Generator: Adobe Illustrator 14.0.0, SVG Export Plug-In . SVG Version: 6.00 Build 43363)  -->
<!DOCTYPE svg PUBLIC "-//W3C//DTD SVG 1.1//EN" "http://www.w3.org/Graphics/SVG/1.1/DTD/svg11.dtd">
<svg version="1.1" id="图层_1" xmlns="http://www.w3.org/2000/svg" xmlns:xlink="http://www.w3.org/1999/xlink" x="0px" y="0px"
	 width="64px" height="64px" viewBox="0 0 64 64" enable-background="new 0 0 64 64" xml:space="preserve">
<g id="Blue">
	<rect x="26.5" y="1.239" fill="#FFFFFF" stroke-width="2" stroke="#0000FF" width="12.5" height="61.521"/>
	<circle fill="none" stroke-width="2" stroke="#0000FF" cx="32" cy="32" r="31.25"/>
	<line fill="none" stroke-width="2" stroke="#0000FF" x1="26.5" y1="1.239" x2="26.5" y2="62.76"/>
	<path fill="#0000FF" stroke-width="2" stroke="#0000FF" d="M63.25,32C62.5,6.125,39,1.545,39,1.545v60.91C64.375,54.91,63.25,32,63.25,32z"/>
</g>
<g id="Red">
	<rect x="26.5" y="1.239" fill="none" stroke-width="2" stroke="#FF0000" width="12.5" height="61.521"/>
	<circle fill="none" stroke-width="2" stroke="#FF0000" cx="32" cy="32" r="31.25"/>
	<line fill="none" stroke-width="2" stroke="#FF0000" x1="26.5" y1="1.239" x2="26.5" y2="62.76"/>
	<path fill="#FF0000" stroke-width="2" stroke="#FF0000" d="M63.25,32C62.5,6.125,39,1.545,39,1.545v60.91C64.375,54.91,63.25,32,63.25,32z"/>
</g>
<g id="White">
	<rect x="26.5" y="1.239" fill="#FFFFFF" stroke-width="2" stroke="#00FF00" width="12.5" height="61.521"/>
	<circle fill="none" stroke-width="2" stroke="#00FF00" cx="32" cy="32" r="31.25"/>
	<line fill="none" stroke-width="2" stroke="#00FF00" x1="26.5" y1="1.239" x2="26.5" y2="62.76"/>
	<path fill="#00FF00" stroke-width="2" stroke="#00FF00" d="M63.25,32C62.5,6.125,39,1.545,39,1.545v60.91C64.375,54.91,63.25,32,63.25,32z"/>
</g>
</svg>
