<?xml version="1.0" encoding="utf-8"?>
<!-- Generator: Adobe Illustrator 14.0.0, SVG Export Plug-In . SVG Version: 6.00 Build 43363)  -->
<!DOCTYPE svg PUBLIC "-//W3C//DTD SVG 1.1//EN" "http://www.w3.org/Graphics/SVG/1.1/DTD/svg11.dtd">
<svg version="1.1" id="图层_1" xmlns="http://www.w3.org/2000/svg" xmlns:xlink="http://www.w3.org/1999/xlink" x="0px" y="0px"
	 width="64px" height="64px" viewBox="0 0 64 64" enable-background="new 0 0 64 64" xml:space="preserve">
<g id="Blue">
	<line fill="none" stroke-width="2" stroke="#FFFF00" x1="43.083" y1="25.75" x2="43.083" y2="37.667"/>
	<line fill="none" stroke-width="2" stroke="#FFFF00" x1="1" y1="29.167" x2="14.25" y2="29.167"/>
	<line fill="none" stroke-width="2" stroke="#FFFF00" x1="18.333" y1="25.75" x2="18.333" y2="37.667"/>
	<rect x="19.167" y="29.167" fill="#0000FF" width="24.333" height="5"/>
	<line fill="none" stroke-width="2" stroke="#0000FF" x1="19.167" y1="25.75" x2="19.167" y2="37.667"/>
	<line fill="none" stroke-width="2" stroke="#0000FF" x1="43.5" y1="25.75" x2="43.5" y2="37.667"/>
	<line fill="none" stroke-width="2" stroke="#0000FF" x1="1" y1="33.75" x2="14.25" y2="33.75"/>
	<line fill="none" stroke-width="2" stroke="#0000FF" x1="1" y1="30" x2="14.25" y2="30"/>
	<line fill="none" stroke-width="2" stroke="#0000FF" x1="48.917" y1="30" x2="62.25" y2="30"/>
	<line fill="none" stroke-width="2" stroke="#0000FF" x1="48.917" y1="33.75" x2="62.25" y2="33.75"/>
</g>
<g id="Red">
	<line fill="none" stroke-width="2" stroke="#FFFF00" x1="43.083" y1="25.75" x2="43.083" y2="37.667"/>
	<line fill="none" stroke-width="2" stroke="#FFFF00" x1="1" y1="29.167" x2="14.25" y2="29.167"/>
	<line fill="none" stroke-width="2" stroke="#FFFF00" x1="18.333" y1="25.75" x2="18.333" y2="37.667"/>
	<rect x="19.167" y="29.167" fill="#FF0000" width="24.333" height="5"/>
	<line fill="none" stroke-width="2" stroke="#FF0000" x1="19.167" y1="25.75" x2="19.167" y2="37.667"/>
	<line fill="none" stroke-width="2" stroke="#FF0000" x1="43.5" y1="25.75" x2="43.5" y2="37.667"/>
	<line fill="none" stroke-width="2" stroke="#FF0000" x1="1" y1="33.75" x2="14.25" y2="33.75"/>
	<line fill="none" stroke-width="2" stroke="#FF0000" x1="1" y1="30" x2="14.25" y2="30"/>
	<line fill="none" stroke-width="2" stroke="#FF0000" x1="48.917" y1="30" x2="62.25" y2="30"/>
	<line fill="none" stroke-width="2" stroke="#FF0000" x1="48.917" y1="33.75" x2="62.25" y2="33.75"/>
</g>
<g id="White">
	<line fill="none" stroke-width="2" stroke="#FFFF00" x1="43.083" y1="25.75" x2="43.083" y2="37.667"/>
	<line fill="none" stroke-width="2" stroke="#FFFF00" x1="1" y1="29.167" x2="14.25" y2="29.167"/>
	<line fill="none" stroke-width="2" stroke="#FFFF00" x1="18.333" y1="25.75" x2="18.333" y2="37.667"/>
	<rect x="19.167" y="29.167" fill="#00FF00" width="24.333" height="5"/>
	<line fill="none" stroke-width="2" stroke="#00FF00" x1="19.167" y1="25.75" x2="19.167" y2="37.667"/>
	<line fill="none" stroke-width="2" stroke="#00FF00" x1="43.5" y1="25.75" x2="43.5" y2="37.667"/>
	<line fill="none" stroke-width="2" stroke="#00FF00" x1="1" y1="33.75" x2="14.25" y2="33.75"/>
	<line fill="none" stroke-width="2" stroke="#00FF00" x1="1" y1="30" x2="14.25" y2="30"/>
	<line fill="none" stroke-width="2" stroke="#00FF00" x1="48.917" y1="30" x2="62.25" y2="30"/>
	<line fill="none" stroke-width="2" stroke="#00FF00" x1="48.917" y1="33.75" x2="62.25" y2="33.75"/>
</g>
</svg>
