<?xml version="1.0" encoding="utf-8"?>
<!-- Generator: Adobe Illustrator 14.0.0, SVG Export Plug-In . SVG Version: 6.00 Build 43363)  -->
<!DOCTYPE svg PUBLIC "-//W3C//DTD SVG 1.1//EN" "http://www.w3.org/Graphics/SVG/1.1/DTD/svg11.dtd">
<svg version="1.1" id="图层_1" xmlns="http://www.w3.org/2000/svg" xmlns:xlink="http://www.w3.org/1999/xlink" x="0px" y="0px"
	 width="64px" height="64px" viewBox="0 0 64 64" enable-background="new 0 0 64 64" xml:space="preserve">
<g id="Blue">
	<rect x="2.75" y="11.625" fill="none" stroke-width="2" stroke="#0000FF" width="58.375" height="31.75"/>
	<line fill="none" stroke-width="2" stroke="#0000FF" x1="16.083" y1="26.917" x2="48.417" y2="26.917"/>
	<line fill="none" stroke-width="2" stroke="#0000FF" x1="27.167" y1="26.917" x2="35.209" y2="18.875"/>
	<line fill="none" stroke-width="2" stroke="#0000FF" x1="27.167" y1="26.917" x2="35.688" y2="35.438"/>
	<circle fill="#0000FF" cx="40.292" cy="27.042" r="2.958"/>
</g>
<g id="Red">
	<rect x="2.75" y="11.625" fill="none" stroke-width="2" stroke="#FF0000" width="58.375" height="31.75"/>
	<line fill="none" stroke-width="2" stroke="#FF0000" x1="16.083" y1="26.917" x2="48.417" y2="26.917"/>
	<line fill="none" stroke-width="2" stroke="#FF0000" x1="27.167" y1="26.917" x2="35.209" y2="18.875"/>
	<line fill="none" stroke-width="2" stroke="#FF0000" x1="27.167" y1="26.917" x2="35.688" y2="35.438"/>
	<circle fill="#FF0000" cx="40.292" cy="27.042" r="2.958"/>
</g>
<g id="White">
	<rect x="2.75" y="11.625" fill="none" stroke-width="2" stroke="#00FF00" width="58.375" height="31.75"/>
	<line fill="none" stroke-width="2" stroke="#00FF00" x1="16.083" y1="26.917" x2="48.417" y2="26.917"/>
	<line fill="none" stroke-width="2" stroke="#00FF00" x1="27.167" y1="26.917" x2="35.209" y2="18.875"/>
	<line fill="none" stroke-width="2" stroke="#00FF00" x1="27.167" y1="26.917" x2="35.688" y2="35.438"/>
	<circle fill="#00FF00" cx="40.292" cy="27.042" r="2.958"/>
</g>
</svg>
