<?xml version="1.0" encoding="utf-8"?>
<!-- Generator: Adobe Illustrator 14.0.0, SVG Export Plug-In . SVG Version: 6.00 Build 43363)  -->
<!DOCTYPE svg PUBLIC "-//W3C//DTD SVG 1.1//EN" "http://www.w3.org/Graphics/SVG/1.1/DTD/svg11.dtd">
<svg version="1.1" id="图层_1" xmlns="http://www.w3.org/2000/svg" xmlns:xlink="http://www.w3.org/1999/xlink" x="0px" y="0px"
	 width="64px" height="64px" viewBox="0 0 64 64" enable-background="new 0 0 64 64" xml:space="preserve">
<g id="Blue">
	<rect x="2.75" y="2" fill="none" stroke-width="2" stroke="#0000FF" width="58.375" height="59.833"/>
	<line fill="none" stroke-width="2" stroke="#0000FF" x1="32.49" y1="10.989" x2="32.49" y2="43.323"/>
	<line fill="none" stroke-width="2" stroke="#0000FF" x1="32.49" y1="22.073" x2="40.532" y2="30.115"/>
	<line fill="none" stroke-width="2" stroke="#0000FF" x1="32.49" y1="22.073" x2="23.969" y2="30.594"/>
	<circle fill="#0000FF" cx="32.365" cy="35.198" r="2.958"/>
	<line fill="none" stroke-width="2" stroke="#0000FF" x1="60.333" y1="2" x2="32.49" y2="61.833"/>
	<line fill="none" stroke-width="2" stroke="#0000FF" x1="32.49" y1="61.833" x2="2.75" y2="2"/>
</g>
<g id="Red">
	<rect x="2.75" y="2" fill="none" stroke-width="2" stroke="#FF0000" width="58.375" height="59.833"/>
	<line fill="none" stroke-width="2" stroke="#FF0000" x1="32.49" y1="10.989" x2="32.49" y2="43.323"/>
	<line fill="none" stroke-width="2" stroke="#FF0000" x1="32.49" y1="22.073" x2="40.532" y2="30.115"/>
	<line fill="none" stroke-width="2" stroke="#FF0000" x1="32.49" y1="22.073" x2="23.969" y2="30.594"/>
	<circle fill="#FF0000" cx="32.365" cy="35.198" r="2.958"/>
	<line fill="none" stroke-width="2" stroke="#FF0000" x1="60.333" y1="2" x2="32.49" y2="61.833"/>
	<line fill="none" stroke-width="2" stroke="#FF0000" x1="32.49" y1="61.833" x2="2.75" y2="2"/>
</g>
<g id="White">
	<rect x="2.75" y="2" fill="none" stroke-width="2" stroke="#00FF00" width="58.375" height="59.833"/>
	<line fill="none" stroke-width="2" stroke="#00FF00" x1="32.49" y1="10.989" x2="32.49" y2="43.323"/>
	<line fill="none" stroke-width="2" stroke="#00FF00" x1="32.49" y1="22.073" x2="40.532" y2="30.115"/>
	<line fill="none" stroke-width="2" stroke="#00FF00" x1="32.49" y1="22.073" x2="23.969" y2="30.594"/>
	<circle fill="#00FF00" cx="32.365" cy="35.198" r="2.958"/>
	<line fill="none" stroke-width="2" stroke="#00FF00" x1="60.333" y1="2" x2="32.49" y2="61.833"/>
	<line fill="none" stroke-width="2" stroke="#00FF00" x1="32.49" y1="61.833" x2="2.75" y2="2"/>
</g>
</svg>
