<?xml version="1.0" encoding="utf-8"?>
<!-- Generator: Adobe Illustrator 14.0.0, SVG Export Plug-In . SVG Version: 6.00 Build 43363)  -->
<!DOCTYPE svg PUBLIC "-//W3C//DTD SVG 1.1//EN" "http://www.w3.org/Graphics/SVG/1.1/DTD/svg11.dtd">
<svg version="1.1" id="图层_1" xmlns="http://www.w3.org/2000/svg" xmlns:xlink="http://www.w3.org/1999/xlink" x="0px" y="0px"
	 width="64px" height="64px" viewBox="0 0 64 64" enable-background="new 0 0 64 64" xml:space="preserve">
<g id="Blue">
	<rect x="2.75" y="2" fill="none" stroke-width="2" stroke="#0000FF" width="58.375" height="59.833"/>
	<line fill="none" stroke-width="2" stroke="#0000FF" x1="31.817" y1="9.156" x2="31.817" y2="55.333"/>
	<line fill="none" stroke-width="2" stroke="#0000FF" x1="31.817" y1="23.268" x2="42.058" y2="33.507"/>
	<line fill="none" stroke-width="2" stroke="#0000FF" x1="31.817" y1="23.268" x2="20.969" y2="34.116"/>
	<circle fill="#0000FF" cx="31.659" cy="39.979" r="3.766"/>
</g>
<g id="Red">
	<rect x="2.75" y="2" fill="none" stroke-width="2" stroke="#FF0000" width="58.375" height="59.833"/>
	<line fill="none" stroke-width="2" stroke="#FF0000" x1="31.817" y1="9.156" x2="31.817" y2="55.333"/>
	<line fill="none" stroke-width="2" stroke="#FF0000" x1="31.817" y1="23.268" x2="42.058" y2="33.507"/>
	<line fill="none" stroke-width="2" stroke="#FF0000" x1="31.817" y1="23.268" x2="20.969" y2="34.116"/>
	<circle fill="#FF0000" cx="31.659" cy="39.979" r="3.766"/>
</g>
<g id="White">
	<rect x="2.75" y="2" fill="none" stroke-width="2" stroke="#00FF00" width="58.375" height="59.833"/>
	<line fill="none" stroke-width="2" stroke="#00FF00" x1="31.817" y1="9.156" x2="31.817" y2="55.333"/>
	<line fill="none" stroke-width="2" stroke="#00FF00" x1="31.817" y1="23.268" x2="42.058" y2="33.507"/>
	<line fill="none" stroke-width="2" stroke="#00FF00" x1="31.817" y1="23.268" x2="20.969" y2="34.116"/>
	<circle fill="#00FF00" cx="31.659" cy="39.979" r="3.766"/>
</g>
</svg>
