<?xml version="1.0" encoding="utf-8"?>
<!-- Generator: Adobe Illustrator 14.0.0, SVG Export Plug-In . SVG Version: 6.00 Build 43363)  -->
<!DOCTYPE svg PUBLIC "-//W3C//DTD SVG 1.1//EN" "http://www.w3.org/Graphics/SVG/1.1/DTD/svg11.dtd">
<svg version="1.1" id="图层_1" xmlns="http://www.w3.org/2000/svg" xmlns:xlink="http://www.w3.org/1999/xlink" x="0px" y="0px"
	 width="64px" height="64px" viewBox="0 0 64 64" enable-background="new 0 0 64 64" xml:space="preserve">
<g id="Blue">
	<rect x="31.051" y="3.641" fill="#FFFFFF" stroke-width="2" stroke="#0000FF" width="3.727" height="18.338"/>
	<circle fill="none" stroke-width="2" stroke="#0000FF" cx="32.689" cy="12.81" r="9.315"/>
	<line fill="none" stroke-width="2" stroke="#0000FF" x1="31.051" y1="3.641" x2="31.051" y2="21.979"/>
	<path fill="#0000FF" stroke-width="2" stroke="#0000FF" d="M42.006,12.81c-0.225-7.713-7.229-9.078-7.229-9.078v18.156
		C42.341,19.639,42.006,12.81,42.006,12.81z"/>
	<rect x="10.551" y="43.016" fill="#FFFFFF" stroke-width="2" stroke="#0000FF" width="3.727" height="18.338"/>
	<circle fill="none" stroke-width="2" stroke="#0000FF" cx="12.189" cy="52.185" r="9.315"/>
	<line fill="none" stroke-width="2" stroke="#0000FF" x1="10.551" y1="43.016" x2="10.551" y2="61.354"/>
	<path fill="#0000FF" stroke-width="2" stroke="#0000FF" d="M21.506,52.185c-0.225-7.713-7.229-9.078-7.229-9.078v18.156
		C21.841,59.014,21.506,52.185,21.506,52.185z"/>
	<rect x="50.426" y="43.016" fill="#FFFFFF" stroke-width="2" stroke="#0000FF" width="3.727" height="18.338"/>
	<circle fill="none" stroke-width="2" stroke="#0000FF" cx="52.064" cy="52.185" r="9.315"/>
	<line fill="none" stroke-width="2" stroke="#0000FF" x1="50.426" y1="43.016" x2="50.426" y2="61.354"/>
	<path fill="#0000FF" stroke-width="2" stroke="#0000FF" d="M61.381,52.185c-0.225-7.713-7.229-9.078-7.229-9.078v18.156
		C61.716,59.014,61.381,52.185,61.381,52.185z"/>
	<line fill="none" stroke-width="2" stroke="#0000FF" x1="24" y1="9.469" x2="3.997" y2="47.749"/>
	<line fill="none" stroke-width="2" stroke="#0000FF" x1="41.381" y1="9.469" x2="61.383" y2="50.75"/>
	<line fill="none" stroke-width="2" stroke="#0000FF" x1="12.189" y1="61.5" x2="52.064" y2="61.5"/>
</g>
<g id="Red">
	<rect x="31.051" y="3.641" fill="#FFFFFF" stroke-width="2" stroke="#FF0000" width="3.727" height="18.338"/>
	<circle fill="none" stroke-width="2" stroke="#FF0000" cx="32.689" cy="12.81" r="9.315"/>
	<line fill="none" stroke-width="2" stroke="#FF0000" x1="31.051" y1="3.641" x2="31.051" y2="21.979"/>
	<path fill="#FF0000" stroke-width="2" stroke="#FF0000" d="M42.006,12.81c-0.225-7.713-7.229-9.078-7.229-9.078v18.156
		C42.341,19.639,42.006,12.81,42.006,12.81z"/>
	<rect x="10.551" y="43.016" fill="#FFFFFF" stroke-width="2" stroke="#FF0000" width="3.727" height="18.338"/>
	<circle fill="none" stroke-width="2" stroke="#FF0000" cx="12.189" cy="52.185" r="9.315"/>
	<line fill="none" stroke-width="2" stroke="#FF0000" x1="10.551" y1="43.016" x2="10.551" y2="61.354"/>
	<path fill="#FF0000" stroke-width="2" stroke="#FF0000" d="M21.506,52.185c-0.225-7.713-7.229-9.078-7.229-9.078v18.156
		C21.841,59.014,21.506,52.185,21.506,52.185z"/>
	<rect x="50.426" y="43.016" fill="#FFFFFF" stroke-width="2" stroke="#FF0000" width="3.727" height="18.338"/>
	<circle fill="none" stroke-width="2" stroke="#FF0000" cx="52.064" cy="52.185" r="9.315"/>
	<line fill="none" stroke-width="2" stroke="#FF0000" x1="50.426" y1="43.016" x2="50.426" y2="61.354"/>
	<path fill="#FF0000" stroke-width="2" stroke="#FF0000" d="M61.381,52.185c-0.225-7.713-7.229-9.078-7.229-9.078v18.156
		C61.716,59.014,61.381,52.185,61.381,52.185z"/>
	<line fill="none" stroke-width="2" stroke="#FF0000" x1="24" y1="9.469" x2="3.997" y2="47.749"/>
	<line fill="none" stroke-width="2" stroke="#FF0000" x1="41.381" y1="9.469" x2="61.383" y2="50.75"/>
	<line fill="none" stroke-width="2" stroke="#FF0000" x1="12.189" y1="61.5" x2="52.064" y2="61.5"/>
</g>
<g id="White">
	<rect x="31.051" y="3.641" fill="#FFFFFF" stroke-width="2" stroke="#00FF00" width="3.727" height="18.338"/>
	<circle fill="none" stroke-width="2" stroke="#00FF00" cx="32.689" cy="12.81" r="9.315"/>
	<line fill="none" stroke-width="2" stroke="#00FF00" x1="31.051" y1="3.641" x2="31.051" y2="21.979"/>
	<path fill="#00FF00" stroke-width="2" stroke="#00FF00" d="M42.006,12.81c-0.225-7.713-7.229-9.078-7.229-9.078v18.156
		C42.341,19.639,42.006,12.81,42.006,12.81z"/>
	<rect x="10.551" y="43.016" fill="#FFFFFF" stroke-width="2" stroke="#00FF00" width="3.727" height="18.338"/>
	<circle fill="none" stroke-width="2" stroke="#00FF00" cx="12.189" cy="52.185" r="9.315"/>
	<line fill="none" stroke-width="2" stroke="#00FF00" x1="10.551" y1="43.016" x2="10.551" y2="61.354"/>
	<path fill="#00FF00" stroke-width="2" stroke="#00FF00" d="M21.506,52.185c-0.225-7.713-7.229-9.078-7.229-9.078v18.156
		C21.841,59.014,21.506,52.185,21.506,52.185z"/>
	<rect x="50.426" y="43.016" fill="#FFFFFF" stroke-width="2" stroke="#00FF00" width="3.727" height="18.338"/>
	<circle fill="none" stroke-width="2" stroke="#00FF00" cx="52.064" cy="52.185" r="9.315"/>
	<line fill="none" stroke-width="2" stroke="#00FF00" x1="50.426" y1="43.016" x2="50.426" y2="61.354"/>
	<path fill="#00FF00" stroke-width="2" stroke="#00FF00" d="M61.381,52.185c-0.225-7.713-7.229-9.078-7.229-9.078v18.156
		C61.716,59.014,61.381,52.185,61.381,52.185z"/>
	<line fill="none" stroke-width="2" stroke="#00FF00" x1="24" y1="9.469" x2="3.997" y2="47.749"/>
	<line fill="none" stroke-width="2" stroke="#00FF00" x1="41.381" y1="9.469" x2="61.383" y2="50.75"/>
	<line fill="none" stroke-width="2" stroke="#00FF00" x1="12.189" y1="61.5" x2="52.064" y2="61.5"/>
</g>
</svg>
