<?xml version="1.0" encoding="utf-8"?>
<!-- Generator: Adobe Illustrator 14.0.0, SVG Export Plug-In . SVG Version: 6.00 Build 43363)  -->
<!DOCTYPE svg PUBLIC "-//W3C//DTD SVG 1.1//EN" "http://www.w3.org/Graphics/SVG/1.1/DTD/svg11.dtd">
<svg version="1.1" id="图层_1" xmlns="http://www.w3.org/2000/svg" xmlns:xlink="http://www.w3.org/1999/xlink" x="0px" y="0px"
	 width="64px" height="64px" viewBox="0 0 64 64" enable-background="new 0 0 64 64" xml:space="preserve">
<g id="Blue">
	<circle fill="none" stroke-width="2" stroke="#0000FF" cx="31.916" cy="32.083" r="30.75"/>
	<path fill="#FFFFFF" d="M61.297,41.178c0,0-6.047-6.834-12.797-7.256c0,0-4.268-0.041-6.842,2.769c0,0-7.053,5.603-9.772,5.456
		c0,0-1.942,0.897-9.289-5.166c0,0-4.18-3.054-7.764-3.059c0,0-4.301-0.588-12.359,5.912c0,0,0.624,3.205,3.241,8.353
		c0,0,3.951-6.341,8.951-6.097c0,0,4.673,0.191,7.211,2.593c0,0,6.458,5.304,9.29,5.561c0,0,3.023,0.735,8.303-3.837
		c0,0,5.25-4.343,8.64-4.291c0,0,6.624,0.127,9.757,6.006L61.297,41.178z"/>
	<path fill="none" stroke-width="2" stroke="#0000FF" d="M61.297,41.178c0,0-6.047-6.834-12.797-7.256c0,0-4.268-0.041-6.842,2.769
		c0,0-7.053,5.603-9.772,5.456c0,0-1.942,0.897-9.289-5.166c0,0-4.18-3.054-7.764-3.059c0,0-4.301-0.588-12.359,5.912
		c0,0,0.624,3.205,3.241,8.353c0,0,3.951-6.341,8.951-6.097c0,0,4.673,0.191,7.211,2.593c0,0,6.458,5.304,9.29,5.561
		c0,0,3.023,0.735,8.303-3.837c0,0,5.25-4.343,8.64-4.291c0,0,6.624,0.127,9.757,6.006L61.297,41.178z"/>
</g>
<g id="Red">
	<circle fill="none" stroke-width="2" stroke="#FF0000" cx="31.916" cy="32.083" r="30.75"/>
	<path fill="#FFFFFF" d="M61.297,41.178c0,0-6.047-6.834-12.797-7.256c0,0-4.268-0.041-6.842,2.769c0,0-7.053,5.603-9.772,5.456
		c0,0-1.942,0.897-9.289-5.166c0,0-4.18-3.054-7.764-3.059c0,0-4.301-0.588-12.359,5.912c0,0,0.624,3.205,3.241,8.353
		c0,0,3.951-6.341,8.951-6.097c0,0,4.673,0.191,7.211,2.593c0,0,6.458,5.304,9.29,5.561c0,0,3.023,0.735,8.303-3.837
		c0,0,5.25-4.343,8.64-4.291c0,0,6.624,0.127,9.757,6.006L61.297,41.178z"/>
	<path fill="none" stroke-width="2" stroke="#FF0000" d="M61.297,41.178c0,0-6.047-6.834-12.797-7.256c0,0-4.268-0.041-6.842,2.769
		c0,0-7.053,5.603-9.772,5.456c0,0-1.942,0.897-9.289-5.166c0,0-4.18-3.054-7.764-3.059c0,0-4.301-0.588-12.359,5.912
		c0,0,0.624,3.205,3.241,8.353c0,0,3.951-6.341,8.951-6.097c0,0,4.673,0.191,7.211,2.593c0,0,6.458,5.304,9.29,5.561
		c0,0,3.023,0.735,8.303-3.837c0,0,5.25-4.343,8.64-4.291c0,0,6.624,0.127,9.757,6.006L61.297,41.178z"/>
</g>
<g id="White">
	<circle fill="none" stroke-width="2" stroke="#00FF00" cx="31.916" cy="32.083" r="30.75"/>
	<path fill="#FFFFFF" d="M61.297,41.178c0,0-6.047-6.834-12.797-7.256c0,0-4.268-0.041-6.842,2.769c0,0-7.053,5.603-9.772,5.456
		c0,0-1.942,0.897-9.289-5.166c0,0-4.18-3.054-7.764-3.059c0,0-4.301-0.588-12.359,5.912c0,0,0.624,3.205,3.241,8.353
		c0,0,3.951-6.341,8.951-6.097c0,0,4.673,0.191,7.211,2.593c0,0,6.458,5.304,9.29,5.561c0,0,3.023,0.735,8.303-3.837
		c0,0,5.25-4.343,8.64-4.291c0,0,6.624,0.127,9.757,6.006L61.297,41.178z"/>
	<path fill="none" stroke-width="2" stroke="#00FF00" d="M61.297,41.178c0,0-6.047-6.834-12.797-7.256c0,0-4.268-0.041-6.842,2.769
		c0,0-7.053,5.603-9.772,5.456c0,0-1.942,0.897-9.289-5.166c0,0-4.18-3.054-7.764-3.059c0,0-4.301-0.588-12.359,5.912
		c0,0,0.624,3.205,3.241,8.353c0,0,3.951-6.341,8.951-6.097c0,0,4.673,0.191,7.211,2.593c0,0,6.458,5.304,9.29,5.561
		c0,0,3.023,0.735,8.303-3.837c0,0,5.25-4.343,8.64-4.291c0,0,6.624,0.127,9.757,6.006L61.297,41.178z"/>
</g>
</svg>
