<?xml version="1.0" encoding="utf-8"?>
<!-- Generator: Adobe Illustrator 14.0.0, SVG Export Plug-In . SVG Version: 6.00 Build 43363)  -->
<!DOCTYPE svg PUBLIC "-//W3C//DTD SVG 1.1//EN" "http://www.w3.org/Graphics/SVG/1.1/DTD/svg11.dtd">
<svg version="1.1" id="图层_1" xmlns="http://www.w3.org/2000/svg" xmlns:xlink="http://www.w3.org/1999/xlink" x="0px" y="0px"
	 width="64px" height="64px" viewBox="0 0 64 64" enable-background="new 0 0 64 64" xml:space="preserve">
<g id="Blue">
	<path fill="#FFFFFF" d="M38.855,2.387c0,0-7.398-2.318-13.986,0v59.61c0,0,6.628,2.205,13.986-0.016V2.387z"/>
	<circle fill="none" stroke-width="2" stroke="#0000FF" cx="31.916" cy="32.083" r="30.75"/>
	<line fill="none" stroke-width="2" stroke="#0000FF" x1="24.869" y1="2.151" x2="24.869" y2="61.997"/>
	<line fill="none" stroke-width="2" stroke="#0000FF" x1="38.986" y1="2.151" x2="38.986" y2="61.997"/>
</g>
<g id="Red">
	<path fill="#FFFFFF" d="M38.855,2.387c0,0-7.398-2.319-13.986,0v59.61c0,0,6.628,2.211,13.986-0.01V2.387z"/>
	<circle fill="none" stroke-width="2" stroke="#FF0000" cx="31.916" cy="32.083" r="30.75"/>
	<line fill="none" stroke-width="2" stroke="#FF0000" x1="24.869" y1="2.151" x2="24.869" y2="61.997"/>
	<line fill="none" stroke-width="2" stroke="#FF0000" x1="38.986" y1="2.151" x2="38.986" y2="61.997"/>
</g>
<g id="White">
	<path fill="#FFFFFF" d="M38.855,2.387c0,0-7.398-2.319-13.986,0v59.091c0,0,6.628,2.735,13.986,0.514V2.387z"/>
	<circle fill="none" stroke-width="2" stroke="#00FF00" cx="31.916" cy="32.083" r="30.75"/>
	<line fill="none" stroke-width="2" stroke="#00FF00" x1="24.869" y1="2.151" x2="24.869" y2="61.997"/>
	<line fill="none" stroke-width="2" stroke="#00FF00" x1="38.986" y1="2.151" x2="38.986" y2="61.997"/>
</g>
</svg>
