<?xml version="1.0" encoding="utf-8"?>
<!-- Generator: Adobe Illustrator 14.0.0, SVG Export Plug-In . SVG Version: 6.00 Build 43363)  -->
<!DOCTYPE svg PUBLIC "-//W3C//DTD SVG 1.1//EN" "http://www.w3.org/Graphics/SVG/1.1/DTD/svg11.dtd">
<svg version="1.1" id="图层_1" xmlns="http://www.w3.org/2000/svg" xmlns:xlink="http://www.w3.org/1999/xlink" x="0px" y="0px"
	 width="64px" height="64px" viewBox="0 0 64 64" enable-background="new 0 0 64 64" xml:space="preserve">
<g id="Blue">
	<path fill="none" stroke-width="2" stroke="#0000FF" d="M8.667,25.25c0-12.564,10.186-22.75,22.75-22.75c12.564,0,22.75,10.186,22.75,22.75"/>
	<line fill="none" stroke-width="2" stroke="#0000FF" x1="4" y1="25.25" x2="15.125" y2="25.25"/>
	<line fill="none" stroke-width="2" stroke="#0000FF" x1="48.938" y1="25.25" x2="59.563" y2="25.25"/>
	<line fill="none" stroke-width="2" stroke="#0000FF" x1="32" y1="19.75" x2="32" y2="63.25"/>
	<line fill="none" stroke-width="2" stroke="#0000FF" x1="32" y1="33.75" x2="20.438" y2="45.313"/>
	<line fill="none" stroke-width="2" stroke="#0000FF" x1="32" y1="33.75" x2="43.594" y2="45.344"/>
</g>
<g id="Red">
	<path fill="none" stroke-width="2" stroke="#FF0000" d="M8.667,25.25c0-12.564,10.186-22.75,22.75-22.75c12.564,0,22.75,10.186,22.75,22.75"/>
	<line fill="none" stroke-width="2" stroke="#FF0000" x1="4" y1="25.25" x2="15.125" y2="25.25"/>
	<line fill="none" stroke-width="2" stroke="#FF0000" x1="48.938" y1="25.25" x2="59.563" y2="25.25"/>
	<line fill="none" stroke-width="2" stroke="#FF0000" x1="32" y1="19.75" x2="32" y2="63.25"/>
	<line fill="none" stroke-width="2" stroke="#FF0000" x1="32" y1="33.75" x2="20.438" y2="45.313"/>
	<line fill="none" stroke-width="2" stroke="#FF0000" x1="32" y1="33.75" x2="43.594" y2="45.344"/>
</g>
<g id="White">
	<path fill="none" stroke-width="2" stroke="#00FF00" d="M8.667,25.25c0-12.564,10.186-22.75,22.75-22.75c12.564,0,22.75,10.186,22.75,22.75"/>
	<line fill="none" stroke-width="2" stroke="#00FF00" x1="4" y1="25.25" x2="15.125" y2="25.25"/>
	<line fill="none" stroke-width="2" stroke="#00FF00" x1="48.938" y1="25.25" x2="59.563" y2="25.25"/>
	<line fill="none" stroke-width="2" stroke="#00FF00" x1="32" y1="19.75" x2="32" y2="63.25"/>
	<line fill="none" stroke-width="2" stroke="#00FF00" x1="32" y1="33.75" x2="20.438" y2="45.313"/>
	<line fill="none" stroke-width="2" stroke="#00FF00" x1="32" y1="33.75" x2="43.594" y2="45.344"/>
</g>
</svg>
