<?xml version="1.0" encoding="utf-8"?>
<!-- Generator: Adobe Illustrator 14.0.0, SVG Export Plug-In . SVG Version: 6.00 Build 43363)  -->
<!DOCTYPE svg PUBLIC "-//W3C//DTD SVG 1.1//EN" "http://www.w3.org/Graphics/SVG/1.1/DTD/svg11.dtd">
<svg version="1.1" id="图层_1" xmlns="http://www.w3.org/2000/svg" xmlns:xlink="http://www.w3.org/1999/xlink" x="0px" y="0px"
	 width="64px" height="64px" viewBox="0 0 64 64" enable-background="new 0 0 64 64" xml:space="preserve">
<g id="Blue">
	<line fill="none" stroke-width="2" stroke="#0000FF" x1="31.833" y1="0" x2="31.833" y2="53.25"/>
	<line fill="none" stroke-width="2" stroke="#0000FF" x1="31.5" y1="25.834" x2="17.5" y2="39.167"/>
	<line fill="none" stroke-width="2" stroke="#0000FF" x1="31.5" y1="25.5" x2="46.167" y2="38.834"/>
	<path fill="#0000FF" d="M36.917,58.502c0,2.762-2.239,5-5,5c-2.762,0-5-2.238-5-5"/>
	<circle fill="none" stroke-width="2" stroke="#0000FF" cx="31.917" cy="58.502" r="5"/>
</g>
<g id="Red">
	<line fill="none" stroke-width="2" stroke="#FF0000" x1="31.833" y1="0" x2="31.833" y2="53.25"/>
	<line fill="none" stroke-width="2" stroke="#FF0000" x1="31.5" y1="25.834" x2="17.5" y2="39.167"/>
	<line fill="none" stroke-width="2" stroke="#FF0000" x1="31.5" y1="25.5" x2="46.167" y2="38.834"/>
	<path fill="none" stroke-width="2" stroke="#00FF00" d="M36.917,58.502c0,2.762-2.239,5-5,5c-2.762,0-5-2.238-5-5"/>
	<circle fill="none" stroke-width="2" stroke="#FF0000" cx="31.917" cy="58.502" r="5"/>
	<path fill="#FF0000" d="M36.917,58.502c0,2.762-2.239,5-5,5c-2.762,0-5-2.238-5-5"/>
</g>
<g id="White">
	<line fill="none" stroke-width="2" stroke="#00FF00" x1="31.833" y1="0" x2="31.833" y2="53.25"/>
	<line fill="none" stroke-width="2" stroke="#00FF00" x1="31.5" y1="25.834" x2="17.5" y2="39.167"/>
	<line fill="none" stroke-width="2" stroke="#00FF00" x1="31.5" y1="25.5" x2="46.167" y2="38.834"/>
	<path fill="none" stroke-width="2" stroke="#00FF00" d="M36.917,58.502c0,2.762-2.239,5-5,5c-2.762,0-5-2.238-5-5"/>
	<circle fill="none" stroke-width="2" stroke="#00FF00" cx="31.917" cy="58.502" r="5"/>
	<path fill="#00FF00" stroke-width="2" stroke="#00FF00" d="M36.917,58.502c0,2.762-2.239,5-5,5c-2.762,0-5-2.238-5-5"/>
</g>
</svg>
