<?xml version="1.0" encoding="utf-8"?>
<!-- Generator: Adobe Illustrator 14.0.0, SVG Export Plug-In . SVG Version: 6.00 Build 43363)  -->
<!DOCTYPE svg PUBLIC "-//W3C//DTD SVG 1.1//EN" "http://www.w3.org/Graphics/SVG/1.1/DTD/svg11.dtd">
<svg version="1.1" id="图层_1" xmlns="http://www.w3.org/2000/svg" xmlns:xlink="http://www.w3.org/1999/xlink" x="0px" y="0px"
	 width="64px" height="64px" viewBox="0 0 64 64" enable-background="new 0 0 64 64" xml:space="preserve">
<g id="Blue">
	<line fill="none" stroke-width="2" stroke="#0000FF" x1="49.968" y1="2.882" x2="11.763" y2="21.412"/>
	<line fill="none" stroke-width="2" stroke="#0000FF" x1="12.997" y1="2" x2="51.936" y2="22.089"/>
	<line fill="none" stroke-width="2" stroke="#0000FF" x1="31.832" y1="11" x2="31.832" y2="55.334"/>
	<line fill="none" stroke-width="2" stroke="#0000FF" x1="31.875" y1="54.25" x2="24.625" y2="62.688"/>
	<line fill="none" stroke-width="2" stroke="#0000FF" x1="31.875" y1="54.313" x2="39.438" y2="62.75"/>
	<line fill="none" stroke-width="2" stroke="#0000FF" x1="31.875" y1="54.25" x2="24.625" y2="62.688"/>
	<line fill="none" stroke-width="2" stroke="#0000FF" x1="31.875" y1="54.313" x2="39.438" y2="62.75"/>
	<line fill="none" stroke-width="2" stroke="#0000FF" x1="31.875" y1="54.25" x2="24.625" y2="62.688"/>
	<line fill="none" stroke-width="2" stroke="#0000FF" x1="31.875" y1="54.313" x2="39.438" y2="62.75"/>
	<line fill="none" stroke-width="2" stroke="#0000FF" x1="24.25" y1="63" x2="39.875" y2="63"/>
</g>
<g id="Red">
	<line fill="none" stroke-width="2" stroke="#FF0000" x1="31.832" y1="11" x2="31.832" y2="55.334"/>
	<line fill="none" stroke-width="2" stroke="#FF0000" x1="49.968" y1="2.882" x2="11.763" y2="21.412"/>
	<line fill="none" stroke-width="2" stroke="#FF0000" x1="12.997" y1="2" x2="51.936" y2="22.089"/>
	<line fill="none" stroke-width="2" stroke="#FF0000" x1="31.875" y1="54.25" x2="24.625" y2="62.688"/>
	<line fill="none" stroke-width="2" stroke="#FF0000" x1="31.875" y1="54.313" x2="39.438" y2="62.75"/>
	<line fill="none" stroke-width="2" stroke="#FF0000" x1="31.875" y1="54.25" x2="24.625" y2="62.688"/>
	<line fill="none" stroke-width="2" stroke="#FF0000" x1="31.875" y1="54.313" x2="39.438" y2="62.75"/>
	<line fill="none" stroke-width="2" stroke="#FF0000" x1="31.875" y1="54.25" x2="24.625" y2="62.688"/>
	<line fill="none" stroke-width="2" stroke="#FF0000" x1="31.875" y1="54.313" x2="39.438" y2="62.75"/>
	<line fill="none" stroke-width="2" stroke="#FF0000" x1="24.25" y1="63" x2="39.875" y2="63"/>
</g>
<g id="White">
	<line fill="none" stroke-width="2" stroke="#00FF00" x1="31.832" y1="11" x2="31.832" y2="55.334"/>
	<line fill="none" stroke-width="2" stroke="#00FF00" x1="49.968" y1="2.882" x2="11.763" y2="21.412"/>
	<line fill="none" stroke-width="2" stroke="#00FF00" x1="12.997" y1="2" x2="51.936" y2="22.089"/>
	<line fill="none" stroke-width="2" stroke="#00FF00" x1="31.875" y1="54.25" x2="24.625" y2="62.688"/>
	<line fill="none" stroke-width="2" stroke="#00FF00" x1="31.875" y1="54.313" x2="39.438" y2="62.75"/>
	<line fill="none" stroke-width="2" stroke="#00FF00" x1="31.875" y1="54.25" x2="24.625" y2="62.688"/>
	<line fill="none" stroke-width="2" stroke="#00FF00" x1="31.875" y1="54.313" x2="39.438" y2="62.75"/>
	<line fill="none" stroke-width="2" stroke="#00FF00" x1="31.875" y1="54.25" x2="24.625" y2="62.688"/>
	<line fill="none" stroke-width="2" stroke="#00FF00" x1="31.875" y1="54.313" x2="39.438" y2="62.75"/>
	<line fill="none" stroke-width="2" stroke="#00FF00" x1="24.25" y1="63" x2="39.875" y2="63"/>
</g>
</svg>
