<?xml version="1.0" encoding="utf-8"?>
<!-- Generator: Adobe Illustrator 14.0.0, SVG Export Plug-In . SVG Version: 6.00 Build 43363)  -->
<!DOCTYPE svg PUBLIC "-//W3C//DTD SVG 1.1//EN" "http://www.w3.org/Graphics/SVG/1.1/DTD/svg11.dtd">
<svg version="1.1" id="图层_1" xmlns="http://www.w3.org/2000/svg" xmlns:xlink="http://www.w3.org/1999/xlink" x="0px" y="0px"
	 width="64px" height="64px" viewBox="0 0 64 64" enable-background="new 0 0 64 64" xml:space="preserve">
<g id="Blue">
	<line fill="none" stroke-width="2" stroke="#0000FF" x1="31.832" y1="19.333" x2="31.832" y2="60.5"/>
	<circle fill="none" stroke-width="2" stroke="#0000FF" cx="31.667" cy="10.167" r="9.166"/>
	<line fill="none" stroke-width="2" stroke="#0000FF" x1="19.125" y1="60.25" x2="46.5" y2="60.25"/>
	<line fill="none" stroke-width="2" stroke="#0000FF" x1="46.125" y1="60.125" x2="51.625" y2="57.5"/>
	<line fill="none" stroke-width="2" stroke="#0000FF" x1="45.75" y1="60" x2="51.625" y2="63"/>
	<polygon fill="#0000FF" points="22.724,61.561 13.401,60.41 22.5,58.688 19.197,60.298 	"/>
</g>
<g id="Red">
	<line fill="none" stroke-width="2" stroke="#FF0000" x1="31.832" y1="19.333" x2="31.832" y2="60.5"/>
	<circle fill="none" stroke-width="2" stroke="#FF0000" cx="31.667" cy="10.167" r="9.166"/>
	<line fill="none" stroke-width="2" stroke="#FF0000" x1="19.125" y1="60.25" x2="46.5" y2="60.25"/>
	<line fill="none" stroke-width="2" stroke="#FF0000" x1="46.125" y1="60.125" x2="51.625" y2="57.5"/>
	<line fill="none" stroke-width="2" stroke="#FF0000" x1="45.75" y1="60" x2="51.625" y2="63"/>
	<polygon fill="#FF0000" points="22.724,61.561 13.401,60.41 22.5,58.688 19.197,60.298 	"/>
</g>
<g id="White">
	<line fill="none" stroke-width="2" stroke="#00FF00" x1="31.832" y1="19.333" x2="31.832" y2="60.5"/>
	<circle fill="none" stroke-width="2" stroke="#00FF00" cx="31.667" cy="10.167" r="9.166"/>
	<line fill="none" stroke-width="2" stroke="#00FF00" x1="19.125" y1="60.25" x2="46.5" y2="60.25"/>
	<line fill="none" stroke-width="2" stroke="#00FF00" x1="46.125" y1="60.125" x2="51.625" y2="57.5"/>
	<line fill="none" stroke-width="2" stroke="#00FF00" x1="45.75" y1="60" x2="51.625" y2="63"/>
	<polygon fill="#00FF00" points="22.724,61.561 13.401,60.41 22.5,58.688 19.197,60.298 	"/>
</g>
</svg>
