<?xml version="1.0" encoding="utf-8"?>
<!-- Generator: Adobe Illustrator 14.0.0, SVG Export Plug-In . SVG Version: 6.00 Build 43363)  -->
<!DOCTYPE svg PUBLIC "-//W3C//DTD SVG 1.1//EN" "http://www.w3.org/Graphics/SVG/1.1/DTD/svg11.dtd">
<svg version="1.1" id="图层_1" xmlns="http://www.w3.org/2000/svg" xmlns:xlink="http://www.w3.org/1999/xlink" x="0px" y="0px"
	 width="64px" height="64px" viewBox="0 0 64 64" enable-background="new 0 0 64 64" xml:space="preserve">
<g id="Blue">
	<line fill="none" stroke-width="2" stroke="#0000FF" x1="31.833" y1="0" x2="31.833" y2="59.875"/>
	<line fill="none" stroke-width="2" stroke="#0000FF" x1="11.625" y1="17.75" x2="51.375" y2="17.75"/>
	<line fill="none" stroke-width="2" stroke="#0000FF" x1="17.75" y1="17.875" x2="17.75" y2="24.625"/>
	<line fill="none" stroke-width="2" stroke="#0000FF" x1="45.875" y1="17.875" x2="45.875" y2="24.375"/>
	<line fill="none" stroke-width="2" stroke="#0000FF" x1="24.125" y1="60.25" x2="39.25" y2="60.25"/>
</g>
<g id="Red">
	<line fill="none" stroke-width="2" stroke="#FF0000" x1="31.833" y1="0" x2="31.833" y2="59.875"/>
	<line fill="none" stroke-width="2" stroke="#FF0000" x1="11.625" y1="17.75" x2="51.375" y2="17.75"/>
	<line fill="none" stroke-width="2" stroke="#FF0000" x1="17.75" y1="17.875" x2="17.75" y2="24.625"/>
	<line fill="none" stroke-width="2" stroke="#FF0000" x1="45.875" y1="17.875" x2="45.875" y2="24.375"/>
	<line fill="none" stroke-width="2" stroke="#FF0000" x1="24.125" y1="60.25" x2="39.25" y2="60.25"/>
</g>
<g id="White">
	<line fill="none" stroke-width="2" stroke="#00FF00" x1="31.833" y1="0" x2="31.833" y2="59.875"/>
	<line fill="none" stroke-width="2" stroke="#00FF00" x1="11.625" y1="17.75" x2="51.375" y2="17.75"/>
	<line fill="none" stroke-width="2" stroke="#00FF00" x1="17.75" y1="17.875" x2="17.75" y2="24.625"/>
	<line fill="none" stroke-width="2" stroke="#00FF00" x1="45.875" y1="17.875" x2="45.875" y2="24.375"/>
	<line fill="none" stroke-width="2" stroke="#00FF00" x1="24.125" y1="60.25" x2="39.25" y2="60.25"/>
</g>
</svg>
