<?xml version="1.0" encoding="utf-8"?>
<!-- Generator: Adobe Illustrator 14.0.0, SVG Export Plug-In . SVG Version: 6.00 Build 43363)  -->
<!DOCTYPE svg PUBLIC "-//W3C//DTD SVG 1.1//EN" "http://www.w3.org/Graphics/SVG/1.1/DTD/svg11.dtd">
<svg version="1.1" id="图层_1" xmlns="http://www.w3.org/2000/svg" xmlns:xlink="http://www.w3.org/1999/xlink" x="0px" y="0px"
	 width="64px" height="64px" viewBox="0 0 64 64" enable-background="new 0 0 64 64" xml:space="preserve">
<g id="Blue">
	<line fill="none" stroke="#0000FF" stroke-width="2" x1="26.167" y1="2.5" x2="32.834" y2="8.667"/>
	<line fill="none" stroke="#0000FF" stroke-width="2" x1="32.834" y1="8.667" x2="39.5" y2="2.5"/>
	<line fill="none" stroke="#0000FF" stroke-width="2" x1="32.834" y1="11.167" x2="32.834" y2="56"/>
	<line fill="none" stroke="#0000FF" stroke-width="2" x1="32.834" y1="56" x2="27" y2="62.667"/>
	<line fill="none" stroke="#0000FF" stroke-width="2" x1="32.834" y1="56" x2="39.5" y2="62.667"/>
	<line fill="none" stroke="#0000FF" stroke-width="2" x1="32.834" y1="29" x2="20.667" y2="41.667"/>
	<line fill="none" stroke="#0000FF" stroke-width="2" x1="32.834" y1="29" x2="46.5" y2="41.667"/>
</g>
<g id="Red">
	<line fill="none" stroke="#FF0000" stroke-width="2" x1="26.167" y1="2.5" x2="32.834" y2="8.667"/>
	<line fill="none" stroke="#FF0000" stroke-width="2" x1="32.834" y1="8.667" x2="39.5" y2="2.5"/>
	<line fill="none" stroke="#FF0000" stroke-width="2" x1="32.834" y1="11.167" x2="32.834" y2="56"/>
	<line fill="none" stroke="#FF0000" stroke-width="2" x1="32.834" y1="56" x2="27" y2="62.667"/>
	<line fill="none" stroke="#FF0000" stroke-width="2" x1="32.834" y1="56" x2="39.5" y2="62.667"/>
	<line fill="none" stroke="#FF0000" stroke-width="2" x1="32.834" y1="29" x2="20.667" y2="41.667"/>
	<line fill="none" stroke="#FF0000" stroke-width="2" x1="32.834" y1="29" x2="46.5" y2="41.667"/>
</g>
<g id="White">
	<line fill="none" stroke="#00FF00" stroke-width="2" x1="26.167" y1="2.5" x2="32.834" y2="8.667"/>
	<line fill="none" stroke="#00FF00" stroke-width="2" x1="32.834" y1="8.667" x2="39.5" y2="2.5"/>
	<line fill="none" stroke="#00FF00" stroke-width="2" x1="32.834" y1="11.167" x2="32.834" y2="56"/>
	<line fill="none" stroke="#00FF00" stroke-width="2" x1="32.834" y1="56" x2="27" y2="62.667"/>
	<line fill="none" stroke="#00FF00" stroke-width="2" x1="32.834" y1="56" x2="39.5" y2="62.667"/>
	<line fill="none" stroke="#00FF00" stroke-width="2" x1="32.834" y1="29" x2="20.667" y2="41.667"/>
	<line fill="none" stroke="#00FF00" stroke-width="2" x1="32.834" y1="29" x2="46.5" y2="41.667"/>
</g>
</svg>
