<?xml version="1.0" encoding="utf-8"?>
<!-- Generator: Adobe Illustrator 14.0.0, SVG Export Plug-In . SVG Version: 6.00 Build 43363)  -->
<!DOCTYPE svg PUBLIC "-//W3C//DTD SVG 1.1//EN" "http://www.w3.org/Graphics/SVG/1.1/DTD/svg11.dtd">
<svg version="1.1" id="图层_1" xmlns="http://www.w3.org/2000/svg" xmlns:xlink="http://www.w3.org/1999/xlink" x="0px" y="0px"
	 width="64px" height="64px" viewBox="0 0 64 64" enable-background="new 0 0 64 64" xml:space="preserve">
<g id="Blue">
	<line fill="none" stroke-width="2" stroke="#0000FF" x1="49.968" y1="11.523" x2="11.763" y2="30.052"/>
	<line fill="none" stroke-width="2" stroke="#0000FF" x1="12.997" y1="10.641" x2="51.936" y2="30.729"/>
	<line fill="none" stroke-width="2" stroke="#0000FF" x1="31.832" y1="0" x2="31.832" y2="64"/>
	<line fill="none" stroke-width="2" stroke="#00FF00" x1="32.166" y1="6.333" x2="41.936" y2="6.333"/>
	<line fill="none" stroke-width="2" stroke="#00FF00" x1="32.166" y1="1" x2="41.637" y2="6.284"/>
	<line fill="none" stroke-width="2" stroke="#0000FF" x1="32.166" y1="6.333" x2="41.936" y2="6.333"/>
	<line fill="none" stroke-width="2" stroke="#0000FF" x1="32.166" y1="1" x2="41.637" y2="6.284"/>
</g>
<g id="Red">
	<line fill="none" stroke-width="2" stroke="#FF0000" x1="31.832" y1="0" x2="31.832" y2="64"/>
	<line fill="none" stroke-width="2" stroke="#FF0000" x1="49.968" y1="11.523" x2="11.763" y2="30.052"/>
	<line fill="none" stroke-width="2" stroke="#FF0000" x1="12.997" y1="10.641" x2="51.936" y2="30.729"/>
	<line fill="none" stroke-width="2" stroke="#FF0000" x1="32.166" y1="6.333" x2="41.936" y2="6.333"/>
	<line fill="none" stroke-width="2" stroke="#FF0000" x1="32.166" y1="1" x2="41.637" y2="6.284"/>
	<line fill="none" stroke-width="2" stroke="#FF0000" x1="32.166" y1="6.333" x2="41.936" y2="6.333"/>
	<line fill="none" stroke-width="2" stroke="#FF0000" x1="32.166" y1="1" x2="41.637" y2="6.284"/>
</g>
<g id="White">
	<line fill="none" stroke-width="2" stroke="#00FF00" x1="31.832" y1="0" x2="31.832" y2="64"/>
	<line fill="none" stroke-width="2" stroke="#00FF00" x1="49.968" y1="11.523" x2="11.763" y2="30.052"/>
	<line fill="none" stroke-width="2" stroke="#00FF00" x1="12.997" y1="10.641" x2="51.936" y2="30.729"/>
	<line fill="none" stroke-width="2" stroke="#00FF00" x1="32.166" y1="6.333" x2="41.936" y2="6.333"/>
	<line fill="none" stroke-width="2" stroke="#00FF00" x1="32.166" y1="1" x2="41.637" y2="6.284"/>
	<line fill="none" stroke-width="2" stroke="#00FF00" x1="32.166" y1="6.333" x2="41.936" y2="6.333"/>
	<line fill="none" stroke-width="2" stroke="#00FF00" x1="32.166" y1="1" x2="41.637" y2="6.284"/>
</g>
</svg>
