<?xml version="1.0" encoding="utf-8"?>
<!-- Generator: Adobe Illustrator 14.0.0, SVG Export Plug-In . SVG Version: 6.00 Build 43363)  -->
<!DOCTYPE svg PUBLIC "-//W3C//DTD SVG 1.1//EN" "http://www.w3.org/Graphics/SVG/1.1/DTD/svg11.dtd">
<svg version="1.1" id="图层_1" xmlns="http://www.w3.org/2000/svg" xmlns:xlink="http://www.w3.org/1999/xlink" x="0px" y="0px"
	 width="64px" height="64px" viewBox="0 0 64 64" enable-background="new 0 0 64 64" xml:space="preserve">
<g id="Blue">
	<line fill="none" stroke-width="2" stroke="#0000FF" x1="31.832" y1="19.333" x2="31.832" y2="54.333"/>
	<circle fill="none" stroke-width="2" stroke="#0000FF" cx="31.667" cy="10.167" r="9.166"/>
	<line fill="none" stroke-width="2" stroke="#0000FF" x1="21.833" y1="60.675" x2="32.462" y2="53.796"/>
	<line fill="none" stroke-width="2" stroke="#0000FF" x1="32.147" y1="53.953" x2="26.382" y2="64"/>
	<line fill="none" stroke-width="2" stroke="#0000FF" x1="26.5" y1="63.75" x2="40.207" y2="58.854"/>
</g>
<g id="Red">
	<line fill="none" stroke-width="2" stroke="#FF0000" x1="31.832" y1="19.333" x2="31.832" y2="54.333"/>
	<circle fill="none" stroke-width="2" stroke="#FF0000" cx="31.667" cy="10.167" r="9.166"/>
	<line fill="none" stroke-width="2" stroke="#FF0000" x1="21.833" y1="60.675" x2="32.462" y2="53.796"/>
	<line fill="none" stroke-width="2" stroke="#FF0000" x1="32.147" y1="53.953" x2="26.382" y2="64"/>
	<line fill="none" stroke-width="2" stroke="#FF0000" x1="26.5" y1="63.75" x2="40.207" y2="58.854"/>
</g>
<g id="White">
	<line fill="none" stroke-width="2" stroke="#00FF00" x1="31.832" y1="19.333" x2="31.832" y2="54.333"/>
	<circle fill="none" stroke-width="2" stroke="#00FF00" cx="31.667" cy="10.167" r="9.166"/>
	<line fill="none" stroke-width="2" stroke="#00FF00" x1="21.833" y1="60.675" x2="32.462" y2="53.796"/>
	<line fill="none" stroke-width="2" stroke="#00FF00" x1="32.147" y1="53.953" x2="26.382" y2="64"/>
	<line fill="none" stroke-width="2" stroke="#00FF00" x1="26.5" y1="63.75" x2="40.207" y2="58.854"/>
</g>
</svg>
