<?xml version="1.0" encoding="utf-8"?>
<!-- Generator: Adobe Illustrator 14.0.0, SVG Export Plug-In . SVG Version: 6.00 Build 43363)  -->
<!DOCTYPE svg PUBLIC "-//W3C//DTD SVG 1.1//EN" "http://www.w3.org/Graphics/SVG/1.1/DTD/svg11.dtd">
<svg version="1.1" id="图层_1" xmlns="http://www.w3.org/2000/svg" xmlns:xlink="http://www.w3.org/1999/xlink" x="0px" y="0px"
	 width="64px" height="64px" viewBox="0 0 64 64" enable-background="new 0 0 64 64" xml:space="preserve">
<g id="Blue">
	<line fill="none" stroke-width="2" stroke="#0000FF" x1="48.464" y1="2.034" x2="13.43" y2="19.025"/>
	<line fill="none" stroke-width="2" stroke="#0000FF" x1="14.561" y1="1.225" x2="50.27" y2="19.646"/>
	<line fill="none" stroke-width="2" stroke="#0000FF" x1="31.833" y1="10.125" x2="31.833" y2="51.334"/>
	<line fill="none" stroke-width="2" stroke="#0000FF" x1="21.833" y1="58.217" x2="32.462" y2="51.338"/>
	<line fill="none" stroke-width="2" stroke="#0000FF" x1="32.147" y1="51.495" x2="26.382" y2="61.542"/>
	<line fill="none" stroke-width="2" stroke="#0000FF" x1="26.5" y1="61.292" x2="40.207" y2="56.396"/>
</g>
<g id="Red">
	<line fill="none" stroke-width="2" stroke="#FF0000" x1="31.833" y1="10.125" x2="31.833" y2="51.334"/>
	<line fill="none" stroke-width="2" stroke="#FF0000" x1="48.464" y1="2.034" x2="13.43" y2="19.025"/>
	<line fill="none" stroke-width="2" stroke="#FF0000" x1="14.561" y1="1.225" x2="50.27" y2="19.646"/>
	<line fill="none" stroke-width="2" stroke="#FF0000" x1="21.833" y1="58.217" x2="32.462" y2="51.338"/>
	<line fill="none" stroke-width="2" stroke="#FF0000" x1="32.147" y1="51.495" x2="26.382" y2="61.542"/>
	<line fill="none" stroke-width="2" stroke="#FF0000" x1="26.5" y1="61.292" x2="40.207" y2="56.396"/>
</g>
<g id="White">
	<line fill="none" stroke-width="2" stroke="#00FF00" x1="31.833" y1="10.125" x2="31.833" y2="51.334"/>
	<line fill="none" stroke-width="2" stroke="#00FF00" x1="48.464" y1="2.034" x2="13.43" y2="19.025"/>
	<line fill="none" stroke-width="2" stroke="#00FF00" x1="14.561" y1="1.225" x2="50.27" y2="19.646"/>
	<line fill="none" stroke-width="2" stroke="#00FF00" x1="21.833" y1="58.217" x2="32.462" y2="51.338"/>
	<line fill="none" stroke-width="2" stroke="#00FF00" x1="32.147" y1="51.495" x2="26.382" y2="61.542"/>
	<line fill="none" stroke-width="2" stroke="#00FF00" x1="26.5" y1="61.292" x2="40.207" y2="56.396"/>
</g>
</svg>
