<?xml version="1.0" encoding="utf-8"?>
<!-- Generator: Adobe Illustrator 14.0.0, SVG Export Plug-In . SVG Version: 6.00 Build 43363)  -->
<!DOCTYPE svg PUBLIC "-//W3C//DTD SVG 1.1//EN" "http://www.w3.org/Graphics/SVG/1.1/DTD/svg11.dtd">
<svg version="1.1" id="图层_1" xmlns="http://www.w3.org/2000/svg" xmlns:xlink="http://www.w3.org/1999/xlink" x="0px" y="0px"
	 width="64px" height="64px" viewBox="0 0 64 64" enable-background="new 0 0 64 64" xml:space="preserve">
<g id="Blue">
	<line fill="none" stroke-width="2" stroke="#0000FF" x1="31.833" y1="1.167" x2="31.833" y2="54.938"/>
	<line fill="none" stroke-width="2" stroke="#0000FF" x1="31.5" y1="25.834" x2="17.5" y2="39.167"/>
	<line fill="none" stroke-width="2" stroke="#0000FF" x1="31.5" y1="25.5" x2="46.167" y2="38.834"/>
	<circle fill="none" stroke-width="2" stroke="#0000FF" cx="31.667" cy="55.833" r="7.833"/>
	<line fill="none" stroke-width="2" stroke="#0000FF" x1="31.875" y1="54.25" x2="24" y2="64"/>
	<line fill="none" stroke-width="2" stroke="#0000FF" x1="31.875" y1="54.313" x2="39.813" y2="64"/>
</g>
<g id="Red">
	<line fill="none" stroke-width="2" stroke="#FF0000" x1="31.833" y1="1.167" x2="31.833" y2="54.938"/>
	<line fill="none" stroke-width="2" stroke="#FF0000" x1="31.5" y1="25.834" x2="17.5" y2="39.167"/>
	<line fill="none" stroke-width="2" stroke="#FF0000" x1="31.5" y1="25.5" x2="46.167" y2="38.834"/>
	<circle fill="none" stroke-width="2" stroke="#FF0000" cx="31.667" cy="55.833" r="7.833"/>
	<line fill="none" stroke-width="2" stroke="#FF0000" x1="31.875" y1="54.25" x2="24" y2="64"/>
	<line fill="none" stroke-width="2" stroke="#FF0000" x1="31.875" y1="54.313" x2="39.813" y2="64"/>
</g>
<!-- <g id="White">
	<line fill="none" stroke-width="2" stroke="#00FF00" x1="31.833" y1="1.167" x2="31.833" y2="54.938"/>
	<line fill="none" stroke-width="2" stroke="#00FF00" x1="31.5" y1="25.834" x2="17.5" y2="39.167"/>
	<line fill="none" stroke-width="2" stroke="#00FF00" x1="31.5" y1="25.5" x2="46.167" y2="38.834"/>
	<circle fill="none" stroke-width="2" stroke="#00FF00" cx="31.667" cy="55.833" r="7.833"/>
	<line fill="none" stroke-width="2" stroke="#00FF00" x1="31.875" y1="54.25" x2="24" y2="64"/>
	<line fill="none" stroke-width="2" stroke="#00FF00" x1="31.875" y1="54.313" x2="39.813" y2="64"/>
</g> -->
</svg>
