<?xml version="1.0" encoding="utf-8"?>
<!-- Generator: Adobe Illustrator 14.0.0, SVG Export Plug-In . SVG Version: 6.00 Build 43363)  -->
<!DOCTYPE svg PUBLIC "-//W3C//DTD SVG 1.1//EN" "http://www.w3.org/Graphics/SVG/1.1/DTD/svg11.dtd">
<svg version="1.1" id="图层_1" xmlns="http://www.w3.org/2000/svg" xmlns:xlink="http://www.w3.org/1999/xlink" x="0px" y="0px"
	 width="64px" height="64px" viewBox="0 0 64 64" enable-background="new 0 0 64 64" xml:space="preserve">
<g id="Blue">
	<line fill="none" stroke-width="2" stroke="#0000FF" x1="33.88" y1="10.666" x2="33.88" y2="53.928"/>
	<polygon fill="#0000FF" points="29.999,17.543 33.88,0.365 37.759,17.543 33.88,11.633 	"/>
	<line fill="none" stroke-width="2" stroke="#0000FF" x1="33.798" y1="53.219" x2="29.99" y2="63.635"/>
	<line fill="none" stroke-width="2" stroke="#0000FF" x1="33.972" y1="52.957" x2="37.867" y2="63.635"/>
</g>
<g id="Red">
	<line fill="none" stroke-width="2" stroke="#FF0000" x1="33.88" y1="10.666" x2="33.88" y2="53.637"/>
	<polygon fill="#FF0000" points="29.999,17.543 33.88,0.365 37.759,17.543 33.88,11.633 	"/>
	<line fill="none" stroke-width="2" stroke="#FF0000" x1="33.798" y1="53.219" x2="29.99" y2="63.635"/>
	<line fill="none" stroke-width="2" stroke="#FF0000" x1="33.972" y1="52.957" x2="37.867" y2="63.635"/>
</g>
<g id="White">
	<line fill="none" stroke-width="2" stroke="#00FF00" x1="33.88" y1="10.666" x2="33.88" y2="53.928"/>
	<polygon fill="#00FF00" points="29.999,17.543 33.88,0.365 37.759,17.543 33.88,11.633 	"/>
	<line fill="none" stroke-width="2" stroke="#00FF00" x1="33.798" y1="53.219" x2="29.99" y2="63.635"/>
	<line fill="none" stroke-width="2" stroke="#00FF00" x1="33.972" y1="52.957" x2="37.867" y2="63.635"/>
</g>
</svg>
