<?xml version="1.0" encoding="utf-8"?>
<!-- Generator: Adobe Illustrator 13.0.0, SVG Export Plug-In . SVG Version: 6.00 Build 14948)  -->
<!DOCTYPE svg PUBLIC "-//W3C//DTD SVG 1.1//EN" "http://www.w3.org/Graphics/SVG/1.1/DTD/svg11.dtd">
<svg version="1.1" xmlns="http://www.w3.org/2000/svg" xmlns:xlink="http://www.w3.org/1999/xlink" x="0px" y="0px"
	 width="23.163px" height="45.971px" viewBox="0 0 23.163 45.971" enable-background="new 0 0 23.163 45.971" xml:space="preserve">
<g id="Blue">
	<polygon fill="#0000FF" points="9.44,13.596 8.003,19.971 8.878,18.846 8.878,45.408 10.003,45.408 10.003,18.783 11.065,19.721 	
		"/>
	<path fill="none" stroke-width="2" stroke="#0000FF" d="M6.819,0.283c-7.621,11.076,6.676,20.434,15.997,11.395"/>
	<polyline fill="none" stroke-width="2" stroke="#0000FF" points="9.253,31.346 0.878,45.471 18.128,45.471 9.503,31.283 	"/>
</g>
<g id="Red">
	<polygon fill="#FF0000" points="9.44,13.596 8.003,19.971 8.878,18.846 8.878,45.408 10.003,45.408 10.003,18.783 11.065,19.721 	
		"/>
	<path fill="none" stroke-width="2" stroke="#FF0000" d="M6.819,0.283c-7.621,11.076,6.676,20.434,15.997,11.395"/>
	<polyline fill="none" stroke-width="2" stroke="#FF0000" points="9.253,31.346 0.878,45.471 18.128,45.471 9.503,31.283 	"/>
</g>
<g id="White">
	<polygon fill="#00FF00" points="9.44,13.596 8.003,19.971 8.878,18.846 8.878,45.408 10.003,45.408 10.003,18.783 11.065,19.721 	
		"/>
	<path fill="none" stroke-width="2" stroke="#00FF00" d="M6.819,0.283c-7.621,11.076,6.676,20.434,15.997,11.395"/>
	<polyline fill="none" stroke-width="2" stroke="#00FF00" points="9.253,31.346 0.878,45.471 18.128,45.471 9.503,31.283 	"/>
</g>
</svg>
