<?xml version="1.0" encoding="utf-8"?>
<!-- Generator: Adobe Illustrator 14.0.0, SVG Export Plug-In . SVG Version: 6.00 Build 43363)  -->
<!DOCTYPE svg PUBLIC "-//W3C//DTD SVG 1.1//EN" "http://www.w3.org/Graphics/SVG/1.1/DTD/svg11.dtd">
<svg version="1.1" id="图层_1" xmlns="http://www.w3.org/2000/svg" xmlns:xlink="http://www.w3.org/1999/xlink" x="0px" y="0px"
	 width="64px" height="64px" viewBox="0 0 64 64" enable-background="new 0 0 64 64" xml:space="preserve">
<g id="Blue">
	<rect x="2.5" y="17.875" fill="none" stroke="#0000FF" stroke-width="2" width="59.75" height="29.75"/>
	<path fill="none" stroke="#0000FF" stroke-width="2" d="M3.75,32c0,0,3.688-3.688,9.938-3.688c0,0,4.875-0.313,9.688,3.688
		c0,0,3.438,3.313,8.625,3.75c0,0,5.75,0.75,10.25-4.563c0,0,3.688-3.625,9.25-3.688c0,0,5.75-0.375,9.125,4.5"/>
</g>
<g id="Red">
	<rect x="2.5" y="17.875" fill="none" stroke="#FF0000" stroke-width="2" width="59.75" height="29.75"/>
	<path fill="none" stroke="#FF0000" stroke-width="2" d="M3.75,32c0,0,3.688-3.688,9.938-3.688c0,0,4.875-0.313,9.688,3.688
		c0,0,3.438,3.313,8.625,3.75c0,0,5.75,0.75,10.25-4.563c0,0,3.688-3.625,9.25-3.688c0,0,5.75-0.375,9.125,4.5"/>
</g>
<g id="White">
	<rect x="2.5" y="17.875" fill="none" stroke="#00FF00" stroke-width="2" width="59.75" height="29.75"/>
	<path fill="none" stroke="#00FF00" stroke-width="2" d="M3.75,32c0,0,3.688-3.688,9.938-3.688c0,0,4.875-0.313,9.688,3.688
		c0,0,3.438,3.313,8.625,3.75c0,0,5.75,0.75,10.25-4.563c0,0,3.688-3.625,9.25-3.688c0,0,5.75-0.375,9.125,4.5"/>
</g>
</svg>
