<?xml version="1.0" encoding="utf-8"?>
<!-- Generator: Adobe Illustrator 14.0.0, SVG Export Plug-In . SVG Version: 6.00 Build 43363)  -->
<!DOCTYPE svg PUBLIC "-//W3C//DTD SVG 1.1//EN" "http://www.w3.org/Graphics/SVG/1.1/DTD/svg11.dtd">
<svg version="1.1" id="图层_1" xmlns="http://www.w3.org/2000/svg" xmlns:xlink="http://www.w3.org/1999/xlink" x="0px" y="0px"
	 width="64px" height="64px" viewBox="0 0 64 64" enable-background="new 0 0 64 64" xml:space="preserve">
<g id="Blue">
	<rect x="2.625" y="18.125" fill="none" stroke="#0000FF" stroke-width="2" width="59.625" height="29.375"/>
	<line fill="none" stroke="#0000FF" stroke-width="2" x1="47.25" y1="39.688" x2="11.875" y2="39.688"/>
	<line fill="none" stroke="#000100" x1="47.25" y1="38.688" x2="11.875" y2="38.688"/>
	<polygon fill="#000100" points="57.02,39.553 43.77,42.865 47.27,39.678 43.77,36.241 	"/>
	<line fill="none" stroke="#0000FF" stroke-width="2" x1="21.645" y1="27" x2="57.02" y2="27"/>
	<polygon fill="#000100" points="11.876,26.865 25.126,30.178 21.626,26.99 25.126,23.554 	"/>
</g>
<g id="Red">
	<rect x="2.625" y="18.125" fill="none" stroke="#FF0000" stroke-width="2" width="59.625" height="29.375"/>
	<line fill="none" stroke="#FF0000" stroke-width="2" x1="47.25" y1="39.688" x2="11.875" y2="39.688"/>
	<line fill="none" stroke="#000100" x1="47.25" y1="38.688" x2="11.875" y2="38.688"/>
	<polygon fill="#000100" points="57.02,39.553 43.77,42.865 47.27,39.678 43.77,36.241 	"/>
	<line fill="none" stroke="#FF0000" stroke-width="2" x1="21.645" y1="27" x2="57.02" y2="27"/>
	<polygon fill="#000100" points="11.876,26.865 25.126,30.178 21.626,26.99 25.126,23.554 	"/>
</g>
<g id="White">
	<rect x="2.625" y="18.125" fill="none" stroke="#00FF00" stroke-width="2" width="59.625" height="29.375"/>
	<line fill="none" stroke="#00FF00" stroke-width="2" x1="47.25" y1="39.688" x2="11.875" y2="39.688"/>
	<line fill="none" stroke="#000100" x1="47.25" y1="38.688" x2="11.875" y2="38.688"/>
	<polygon fill="#000100" points="57.02,39.553 43.77,42.865 47.27,39.678 43.77,36.241 	"/>
	<line fill="none" stroke="#00FF00" stroke-width="2" x1="21.645" y1="27" x2="57.02" y2="27"/>
	<polygon fill="#000100" points="11.876,26.865 25.126,30.178 21.626,26.99 25.126,23.554 	"/>
</g>
</svg>
