<?xml version="1.0" encoding="utf-8"?>
<!-- Generator: Adobe Illustrator 14.0.0, SVG Export Plug-In . SVG Version: 6.00 Build 43363)  -->
<!DOCTYPE svg PUBLIC "-//W3C//DTD SVG 1.1//EN" "http://www.w3.org/Graphics/SVG/1.1/DTD/svg11.dtd">
<svg version="1.1" id="图层_1" xmlns="http://www.w3.org/2000/svg" xmlns:xlink="http://www.w3.org/1999/xlink" x="0px" y="0px"
	 width="64px" height="64px" viewBox="0 0 64 64" enable-background="new 0 0 64 64" xml:space="preserve">
<g id="Blue">
	<polygon fill="none" stroke-width="2" stroke="#0000FF" points="8.196,62 32.5,19.905 56.805,62 	"/>
	<path fill="none" stroke-width="2" stroke="#0000FF" d="M47.078,14.802c-3.566,5.408-10.838,6.901-16.245,3.336
		C25.426,14.572,23.931,7.3,27.497,1.893"/>
	<line fill="none" stroke-width="2" stroke="#0000FF" x1="31.254" y1="21.939" x2="37.486" y2="8.342"/>
</g>
<g id="Red">
	<polygon fill="none" stroke-width="2" stroke="#FF0000" points="8.196,62 32.5,19.905 56.805,62 	"/>
	<path fill="none" stroke-width="2" stroke="#FF0000" d="M47.078,14.802c-3.566,5.408-10.838,6.901-16.245,3.336
		C25.426,14.572,23.931,7.3,27.497,1.893"/>
	<line fill="none" stroke-width="2" stroke="#FF0000" x1="31.254" y1="21.939" x2="37.486" y2="8.342"/>
</g>
<g id="White">
	<polygon fill="none" stroke-width="2" stroke="#00FF00" points="8.196,62 32.5,19.905 56.805,62 	"/>
	<path fill="none" stroke-width="2" stroke="#00FF00" d="M47.078,14.802c-3.566,5.408-10.838,6.901-16.245,3.336
		C25.426,14.572,23.931,7.3,27.497,1.893"/>
	<line fill="none" stroke-width="2" stroke="#00FF00" x1="31.254" y1="21.939" x2="37.486" y2="8.342"/>
</g>
</svg>
