<?xml version="1.0" encoding="utf-8"?>
<!-- Generator: Adobe Illustrator 14.0.0, SVG Export Plug-In . SVG Version: 6.00 Build 43363)  -->
<!DOCTYPE svg PUBLIC "-//W3C//DTD SVG 1.1//EN" "http://www.w3.org/Graphics/SVG/1.1/DTD/svg11.dtd">
<svg version="1.1" id="图层_1" xmlns="http://www.w3.org/2000/svg" xmlns:xlink="http://www.w3.org/1999/xlink" x="0px" y="0px"
	 width="64px" height="64px" viewBox="0 0 64 64" enable-background="new 0 0 64 64" xml:space="preserve">
<g id="Blue">
	<circle fill="none" stroke-width="2" stroke="#0000FF" cx="33.25" cy="34.25" r="27.25"/>
	<line fill="none" stroke-width="2" stroke="#0000FF" x1="47.229" y1="32.146" x2="29.92" y2="44.35"/>
	<line fill="none" stroke-width="2" stroke="#0000FF" x1="30.355" y1="44.182" x2="38.041" y2="22.267"/>
	<line fill="none" stroke-width="2" stroke="#0000FF" x1="38.341" y1="22.088" x2="19.151" y2="35.545"/>
	<line fill="none" stroke-width="2" stroke="#0000FF" x1="64" y1="6.5" x2="1.5" y2="6.5"/>
</g>
<g id="Red">
	<circle fill="none" stroke-width="2" stroke="#FF0000" cx="33.25" cy="34.25" r="27.25"/>
	<line fill="none" stroke-width="2" stroke="#FF0000" x1="47.229" y1="32.146" x2="29.92" y2="44.35"/>
	<line fill="none" stroke-width="2" stroke="#FF0000" x1="30.355" y1="44.182" x2="38.041" y2="22.267"/>
	<line fill="none" stroke-width="2" stroke="#FF0000" x1="38.341" y1="22.088" x2="19.151" y2="35.545"/>
	<line fill="none" stroke-width="2" stroke="#FF0000" x1="64" y1="6.5" x2="1.5" y2="6.5"/>
</g>
<g id="White">
	<circle fill="none" stroke-width="2" stroke="#00FF00" cx="33.25" cy="34.25" r="27.25"/>
	<line fill="none" stroke-width="2" stroke="#00FF00" x1="47.229" y1="32.146" x2="29.92" y2="44.35"/>
	<line fill="none" stroke-width="2" stroke="#00FF00" x1="30.355" y1="44.182" x2="38.041" y2="22.267"/>
	<line fill="none" stroke-width="2" stroke="#00FF00" x1="38.341" y1="22.088" x2="19.151" y2="35.545"/>
	<line fill="none" stroke-width="2" stroke="#00FF00" x1="64" y1="6.5" x2="1.5" y2="6.5"/>
</g>
</svg>
