<?xml version="1.0" encoding="utf-8"?>
<!-- Generator: Adobe Illustrator 14.0.0, SVG Export Plug-In . SVG Version: 6.00 Build 43363)  -->
<!DOCTYPE svg PUBLIC "-//W3C//DTD SVG 1.1//EN" "http://www.w3.org/Graphics/SVG/1.1/DTD/svg11.dtd">
<svg version="1.1" id="图层_1" xmlns="http://www.w3.org/2000/svg" xmlns:xlink="http://www.w3.org/1999/xlink" x="0px" y="0px"
	 width="64px" height="64px" viewBox="0 0 64 64" enable-background="new 0 0 64 64" xml:space="preserve">
<g id="Blue">
	<circle fill="none" stroke-width="2" stroke="#0000FF" cx="32.25" cy="30.75" r="27.25"/>
	<line fill="none" stroke-width="2" stroke="#0000FF" x1="18.27" y1="32.854" x2="35.58" y2="20.652"/>
	<line fill="none" stroke-width="2" stroke="#0000FF" x1="35.145" y1="20.819" x2="27.458" y2="42.732"/>
	<line fill="none" stroke-width="2" stroke="#0000FF" x1="27.159" y1="42.912" x2="46.35" y2="29.455"/>
	<line fill="none" stroke-width="2" stroke="#0000FF" x1="1.5" y1="58.5" x2="64" y2="58.5"/>
</g>
<g id="Red">
	<circle fill="none" stroke-width="2" stroke="#FF0000" cx="32.25" cy="30.75" r="27.25"/>
	<line fill="none" stroke-width="2" stroke="#FF0000" x1="18.27" y1="32.854" x2="35.58" y2="20.652"/>
	<line fill="none" stroke-width="2" stroke="#FF0000" x1="35.145" y1="20.819" x2="27.458" y2="42.732"/>
	<line fill="none" stroke-width="2" stroke="#FF0000" x1="27.159" y1="42.912" x2="46.35" y2="29.455"/>
	<line fill="none" stroke-width="2" stroke="#FF0000" x1="1.5" y1="58.5" x2="64" y2="58.5"/>
</g>
<g id="White">
	<circle fill="none" stroke-width="2" stroke="#00FF00" cx="32.25" cy="30.75" r="27.25"/>
	<line fill="none" stroke-width="2" stroke="#00FF00" x1="18.27" y1="32.854" x2="35.58" y2="20.652"/>
	<line fill="none" stroke-width="2" stroke="#00FF00" x1="35.145" y1="20.819" x2="27.458" y2="42.732"/>
	<line fill="none" stroke-width="2" stroke="#00FF00" x1="27.159" y1="42.912" x2="46.35" y2="29.455"/>
	<line fill="none" stroke-width="2" stroke="#00FF00" x1="1.5" y1="58.5" x2="64" y2="58.5"/>
</g>
</svg>
