<?xml version="1.0" encoding="utf-8"?>
<!-- Generator: Adobe Illustrator 14.0.0, SVG Export Plug-In . SVG Version: 6.00 Build 43363)  -->
<!DOCTYPE svg PUBLIC "-//W3C//DTD SVG 1.1//EN" "http://www.w3.org/Graphics/SVG/1.1/DTD/svg11.dtd">
<svg version="1.1" id="图层_1" xmlns="http://www.w3.org/2000/svg" xmlns:xlink="http://www.w3.org/1999/xlink" x="0px" y="0px"
	 width="64px" height="64px" viewBox="0 0 64 64" enable-background="new 0 0 64 64" xml:space="preserve">
<g id="Blue">
	<circle fill="none" stroke="#0000FF" stroke-width="2" cx="32.609" cy="47.685" r="15.315"/>
	<line fill="none" stroke="#0000FF" stroke-width="2" x1="24.955" y1="34.421" x2="18.5" y2="25.625"/>
	<line fill="none" stroke="#0000FF" stroke-width="2" x1="14.75" y1="21" x2="4.75" y2="7.625"/>
	<line fill="none" stroke="#0000FF" stroke-width="2" x1="32.608" y1="0" x2="32.608" y2="14.313"/>
	<line fill="none" stroke="#0000FF" stroke-width="2" x1="32.608" y1="20.375" x2="32.608" y2="32.369"/>
	<line fill="none" stroke="#0000FF" stroke-width="2" x1="41.515" y1="35.229" x2="47.924" y2="25.625"/>
	<line fill="none" stroke="#0000FF" stroke-width="2" x1="51.125" y1="21" x2="61.125" y2="7.625"/>
</g>
<g id="Red">
	<circle fill="none" stroke="#FF0000" stroke-width="2" cx="32.609" cy="47.685" r="15.315"/>
	<line fill="none" stroke="#FF0000" stroke-width="2" x1="24.955" y1="34.421" x2="18.5" y2="25.625"/>
	<line fill="none" stroke="#FF0000" stroke-width="2" x1="14.75" y1="21" x2="4.75" y2="7.625"/>
	<line fill="none" stroke="#FF0000" stroke-width="2" x1="32.608" y1="0" x2="32.608" y2="14.313"/>
	<line fill="none" stroke="#FF0000" stroke-width="2" x1="32.608" y1="20.375" x2="32.608" y2="32.369"/>
	<line fill="none" stroke="#FF0000" stroke-width="2" x1="41.515" y1="35.229" x2="47.924" y2="25.625"/>
	<line fill="none" stroke="#FF0000" stroke-width="2" x1="51.125" y1="21" x2="61.125" y2="7.625"/>
</g>
<g id="White">
	<circle fill="none" stroke="#00FF00" stroke-width="2" cx="32.609" cy="47.685" r="15.315"/>
	<line fill="none" stroke="#00FF00" stroke-width="2" x1="24.955" y1="34.421" x2="18.5" y2="25.625"/>
	<line fill="none" stroke="#00FF00" stroke-width="2" x1="14.75" y1="21" x2="4.75" y2="7.625"/>
	<line fill="none" stroke="#00FF00" stroke-width="2" x1="32.608" y1="0" x2="32.608" y2="14.313"/>
	<line fill="none" stroke="#00FF00" stroke-width="2" x1="32.608" y1="20.375" x2="32.608" y2="32.369"/>
	<line fill="none" stroke="#00FF00" stroke-width="2" x1="41.515" y1="35.229" x2="47.924" y2="25.625"/>
	<line fill="none" stroke="#00FF00" stroke-width="2" x1="51.125" y1="21" x2="61.125" y2="7.625"/>
</g>
</svg>
