<?xml version="1.0" encoding="utf-8"?>
<!-- Generator: Adobe Illustrator 14.0.0, SVG Export Plug-In . SVG Version: 6.00 Build 43363)  -->
<!DOCTYPE svg PUBLIC "-//W3C//DTD SVG 1.1//EN" "http://www.w3.org/Graphics/SVG/1.1/DTD/svg11.dtd">
<svg version="1.1" id="图层_1" xmlns="http://www.w3.org/2000/svg" xmlns:xlink="http://www.w3.org/1999/xlink" x="0px" y="0px"
	 width="64px" height="64px" viewBox="0 0 64 64" enable-background="new 0 0 64 64" xml:space="preserve">
<g id="Blue">
	<line fill="none" stroke-width="2" stroke="#0000FF" x1="48.955" y1="31.491" x2="50.417" y2="31.559"/>
	<line fill="none" stroke-width="2" stroke="#0000FF" x1="50.417" y1="31.559" x2="50.417" y2="25.059"/>
	<line fill="none" stroke-width="2" stroke="#0000FF" x1="50.417" y1="25.059" x2="56.583" y2="25.059"/>
	<line fill="none" stroke-width="2" stroke="#0000FF" x1="56.583" y1="25.059" x2="56.583" y2="31.559"/>
	<line fill="none" stroke-width="2" stroke="#0000FF" x1="56.583" y1="31.559" x2="57.938" y2="31.559"/>
	<path fill="none" stroke-width="2" stroke="#0000FF" d="M0.833,29.809c0,0,0.948-3.027,4.662-2.775"/>
	<path fill="none" stroke-width="2" stroke="#0000FF" d="M5.495,27.033c0,0,3.677-0.079,6.198,7.746"/>
	<path fill="none" stroke-width="2" stroke="#0000FF" d="M11.693,34.779c0,0,3.689,2.938,7.378-2.288"/>
	<path fill="none" stroke-width="2" stroke="#0000FF" d="M19.071,32.463c0,0,2.335-6.173,5.428-6.173"/>
	<path fill="none" stroke-width="2" stroke="#0000FF" d="M24.5,26.29c0,0,3.25,0,5.962,6.985"/>
	<path fill="none" stroke-width="2" stroke="#0000FF" d="M30.462,33.275c0,0,3.507,5.85,6.534,1.15"/>
	<path fill="none" stroke-width="2" stroke="#0000FF" d="M36.996,34.462c0,0,1.285-2.462,3.947-7.355"/>
	<path fill="none" stroke-width="2" stroke="#0000FF" d="M40.943,27.107c0,0,2.432-3.544,5.582,0"/>
	<path fill="none" stroke-width="2" stroke="#0000FF" d="M46.525,27.107c1.537,2.029,1.555,2.031,4.353,7.109"/>
	<path fill="none" stroke-width="2" stroke="#0000FF" d="M50.878,34.215C52,36,55.344,35.844,56.652,33.697"/>
	<path fill="none" stroke-width="2" stroke="#0000FF" d="M56.652,33.697c1.115-1.65,4.41-8.639,6.515-8.184"/>
</g>
<g id="Red">
	<line fill="none" stroke-width="2" stroke="#FF0000" x1="48.955" y1="31.491" x2="50.417" y2="31.559"/>
	<line fill="none" stroke-width="2" stroke="#FF0000" x1="50.417" y1="31.559" x2="50.417" y2="25.059"/>
	<line fill="none" stroke-width="2" stroke="#FF0000" x1="50.417" y1="25.059" x2="56.583" y2="25.059"/>
	<line fill="none" stroke-width="2" stroke="#FF0000" x1="56.583" y1="25.059" x2="56.583" y2="31.559"/>
	<line fill="none" stroke-width="2" stroke="#FF0000" x1="56.583" y1="31.559" x2="57.938" y2="31.559"/>
	<path fill="none" stroke-width="2" stroke="#FF0000" d="M0.833,29.809c0,0,0.948-3.027,4.662-2.775"/>
	<path fill="none" stroke-width="2" stroke="#FF0000" d="M5.495,27.033c0,0,3.677-0.079,6.198,7.746"/>
	<path fill="none" stroke-width="2" stroke="#FF0000" d="M11.693,34.779c0,0,3.689,2.938,7.378-2.288"/>
	<path fill="none" stroke-width="2" stroke="#FF0000" d="M19.071,32.463c0,0,2.335-6.173,5.428-6.173"/>
	<path fill="none" stroke-width="2" stroke="#FF0000" d="M24.5,26.29c0,0,3.25,0,5.962,6.985"/>
	<path fill="none" stroke-width="2" stroke="#FF0000" d="M30.462,33.275c0,0,3.507,5.85,6.534,1.15"/>
	<path fill="none" stroke-width="2" stroke="#FF0000" d="M36.996,34.462c0,0,1.285-2.462,3.947-7.355"/>
	<path fill="none" stroke-width="2" stroke="#FF0000" d="M40.943,27.107c0,0,2.432-3.544,5.582,0"/>
	<path fill="none" stroke-width="2" stroke="#FF0000" d="M46.525,27.107c1.537,2.029,1.555,2.031,4.353,7.109"/>
	<path fill="none" stroke-width="2" stroke="#FF0000" d="M50.878,34.215C52,36,55.344,35.844,56.652,33.697"/>
	<path fill="none" stroke-width="2" stroke="#FF0000" d="M56.652,33.697c1.115-1.65,4.41-8.639,6.515-8.184"/>
</g>
<g id="White">
	<line fill="none" stroke-width="2" stroke="#00FF00" x1="48.955" y1="31.491" x2="50.417" y2="31.559"/>
	<line fill="none" stroke-width="2" stroke="#00FF00" x1="50.417" y1="31.559" x2="50.417" y2="25.059"/>
	<line fill="none" stroke-width="2" stroke="#00FF00" x1="50.417" y1="25.059" x2="56.583" y2="25.059"/>
	<line fill="none" stroke-width="2" stroke="#00FF00" x1="56.583" y1="25.059" x2="56.583" y2="31.559"/>
	<line fill="none" stroke-width="2" stroke="#00FF00" x1="56.583" y1="31.559" x2="57.938" y2="31.559"/>
	<path fill="none" stroke-width="2" stroke="#00FF00" d="M0.833,29.809c0,0,0.948-3.027,4.662-2.775"/>
	<path fill="none" stroke-width="2" stroke="#00FF00" d="M5.495,27.033c0,0,3.677-0.079,6.198,7.746"/>
	<path fill="none" stroke-width="2" stroke="#00FF00" d="M11.693,34.779c0,0,3.689,2.938,7.378-2.288"/>
	<path fill="none" stroke-width="2" stroke="#00FF00" d="M19.071,32.463c0,0,2.335-6.173,5.428-6.173"/>
	<path fill="none" stroke-width="2" stroke="#00FF00" d="M24.5,26.29c0,0,3.25,0,5.962,6.985"/>
	<path fill="none" stroke-width="2" stroke="#00FF00" d="M30.462,33.275c0,0,3.507,5.85,6.534,1.15"/>
	<path fill="none" stroke-width="2" stroke="#00FF00" d="M36.996,34.462c0,0,1.285-2.462,3.947-7.355"/>
	<path fill="none" stroke-width="2" stroke="#00FF00" d="M40.943,27.107c0,0,2.432-3.544,5.582,0"/>
	<path fill="none" stroke-width="2" stroke="#00FF00" d="M46.525,27.107c1.537,2.029,1.555,2.031,4.353,7.109"/>
	<path fill="none" stroke-width="2" stroke="#00FF00" d="M50.878,34.215C52,36,55.344,35.844,56.652,33.697"/>
	<path fill="none" stroke-width="2" stroke="#00FF00" d="M56.652,33.697c1.115-1.65,4.41-8.639,6.515-8.184"/>
</g>
</svg>
