<?xml version="1.0" encoding="utf-8"?>
<!-- Generator: Adobe Illustrator 14.0.0, SVG Export Plug-In . SVG Version: 6.00 Build 43363)  -->
<!DOCTYPE svg PUBLIC "-//W3C//DTD SVG 1.1//EN" "http://www.w3.org/Graphics/SVG/1.1/DTD/svg11.dtd">
<svg version="1.1" id="图层_1" xmlns="http://www.w3.org/2000/svg" xmlns:xlink="http://www.w3.org/1999/xlink" x="0px" y="0px"
	 width="64px" height="64px" viewBox="0 0 64 64" enable-background="new 0 0 64 64" xml:space="preserve">
<g id="Blue">
	<rect x="9.5" y="15.375" fill="none" stroke="#0000FF" stroke-width="2" width="45.125" height="22.375"/>
	<line fill="none" stroke="#0000FF" stroke-width="2" x1="9.5" y1="37.75" x2="2.375" y2="48.75"/>
	<line fill="none" stroke="#0000FF" stroke-width="2" x1="2.375" y1="48.75" x2="61.875" y2="48.75"/>
	<line fill="none" stroke="#0000FF" stroke-width="2" x1="61.875" y1="48.75" x2="54.625" y2="37.75"/>
	<text transform="matrix(1 0 0 1 21.002 29.875)" font-family="'ArialMT'" font-size="10">1001</text>
</g>
<g id="Red">
	<rect x="9.5" y="15.375" fill="none" stroke="#FF0000" stroke-width="2" width="45.125" height="22.375"/>
	<line fill="none" stroke="#FF0000" stroke-width="2" x1="9.5" y1="37.75" x2="2.375" y2="48.75"/>
	<line fill="none" stroke="#FF0000" stroke-width="2" x1="2.375" y1="48.75" x2="61.875" y2="48.75"/>
	<line fill="none" stroke="#FF0000" stroke-width="2" x1="61.875" y1="48.75" x2="54.625" y2="37.75"/>
	<text transform="matrix(1 0 0 1 21.002 29.875)" font-family="'ArialMT'" font-size="10">1001</text>
</g>
<g id="White">
	<rect x="9.5" y="15.375" fill="none" stroke="#00FF00" stroke-width="2" width="45.125" height="22.375"/>
	<line fill="none" stroke="#00FF00" stroke-width="2" x1="9.5" y1="37.75" x2="2.375" y2="48.75"/>
	<line fill="none" stroke="#00FF00" stroke-width="2" x1="2.375" y1="48.75" x2="61.875" y2="48.75"/>
	<line fill="none" stroke="#00FF00" stroke-width="2" x1="61.875" y1="48.75" x2="54.625" y2="37.75"/>
	<text transform="matrix(1 0 0 1 21.002 29.875)" font-family="'ArialMT'" font-size="10">1001</text>
</g>
</svg>
