<?xml version="1.0" encoding="utf-8"?>
<!-- Generator: Adobe Illustrator 14.0.0, SVG Export Plug-In . SVG Version: 6.00 Build 43363)  -->
<!DOCTYPE svg PUBLIC "-//W3C//DTD SVG 1.1//EN" "http://www.w3.org/Graphics/SVG/1.1/DTD/svg11.dtd">
<svg version="1.1" id="图层_1" xmlns="http://www.w3.org/2000/svg" xmlns:xlink="http://www.w3.org/1999/xlink" x="0px" y="0px"
	 width="64px" height="64px" viewBox="0 0 64 64" enable-background="new 0 0 64 64" xml:space="preserve">
<g id="Blue">
	<polygon fill="none" stroke-width="2" stroke="#0000FF" points="1.337,36.365 10.395,20.676 19.454,36.365 	"/>
	<line fill="none" stroke-width="2" stroke="#0000FF" x1="10.471" y1="20.519" x2="13.77" y2="15.387"/>
	<line fill="none" stroke-width="2" stroke="#0000FF" x1="13.718" y1="15.486" x2="13.666" y2="19.902"/>
	<line fill="none" stroke-width="2" stroke="#0000FF" x1="13.5" y1="20.083" x2="18.079" y2="14.966"/>
	<polygon fill="none" stroke-width="2" stroke="#0000FF" points="44.133,36.365 53.189,20.676 62.25,36.365 	"/>
	<line fill="none" stroke-width="2" stroke="#0000FF" x1="53.268" y1="20.519" x2="56.564" y2="15.387"/>
	<line fill="none" stroke-width="2" stroke="#0000FF" x1="56.516" y1="15.486" x2="56.461" y2="19.902"/>
	<line fill="none" stroke-width="2" stroke="#0000FF" x1="56.297" y1="20.083" x2="60.875" y2="14.966"/>
	<line fill="none" stroke-width="2" stroke="#0000FF" x1="18.875" y1="36.375" x2="45.125" y2="36.375"/>
</g>
<g id="Red">
	<polygon fill="none" stroke-width="2" stroke="#FF0000" points="1.337,36.365 10.395,20.676 19.454,36.365 	"/>
	<line fill="none" stroke-width="2" stroke="#FF0000" x1="10.471" y1="20.519" x2="13.77" y2="15.387"/>
	<line fill="none" stroke-width="2" stroke="#FF0000" x1="13.718" y1="15.486" x2="13.666" y2="19.902"/>
	<line fill="none" stroke-width="2" stroke="#FF0000" x1="13.5" y1="20.083" x2="18.079" y2="14.966"/>
	<polygon fill="none" stroke-width="2" stroke="#FF0000" points="44.133,36.365 53.189,20.676 62.25,36.365 	"/>
	<line fill="none" stroke-width="2" stroke="#FF0000" x1="53.268" y1="20.519" x2="56.564" y2="15.387"/>
	<line fill="none" stroke-width="2" stroke="#FF0000" x1="56.516" y1="15.486" x2="56.461" y2="19.902"/>
	<line fill="none" stroke-width="2" stroke="#FF0000" x1="56.297" y1="20.083" x2="60.875" y2="14.966"/>
	<line fill="none" stroke-width="2" stroke="#FF0000" x1="18.875" y1="36.375" x2="45.125" y2="36.375"/>
</g>
<g id="White">
	<polygon fill="none" stroke-width="2" stroke="#00FF00" points="1.337,36.365 10.395,20.676 19.454,36.365 	"/>
	<line fill="none" stroke-width="2" stroke="#00FF00" x1="10.471" y1="20.519" x2="13.77" y2="15.387"/>
	<line fill="none" stroke-width="2" stroke="#00FF00" x1="13.718" y1="15.486" x2="13.666" y2="19.902"/>
	<line fill="none" stroke-width="2" stroke="#00FF00" x1="13.5" y1="20.083" x2="18.079" y2="14.966"/>
	<polygon fill="none" stroke-width="2" stroke="#00FF00" points="44.133,36.365 53.189,20.676 62.25,36.365 	"/>
	<line fill="none" stroke-width="2" stroke="#00FF00" x1="53.268" y1="20.519" x2="56.564" y2="15.387"/>
	<line fill="none" stroke-width="2" stroke="#00FF00" x1="56.516" y1="15.486" x2="56.461" y2="19.902"/>
	<line fill="none" stroke-width="2" stroke="#00FF00" x1="56.297" y1="20.083" x2="60.875" y2="14.966"/>
	<line fill="none" stroke-width="2" stroke="#00FF00" x1="18.875" y1="36.375" x2="45.125" y2="36.375"/>
</g>
</svg>
