<?xml version="1.0" encoding="utf-8"?>
<!-- Generator: Adobe Illustrator 14.0.0, SVG Export Plug-In . SVG Version: 6.00 Build 43363)  -->
<!DOCTYPE svg PUBLIC "-//W3C//DTD SVG 1.1//EN" "http://www.w3.org/Graphics/SVG/1.1/DTD/svg11.dtd">
<svg version="1.1" id="图层_1" xmlns="http://www.w3.org/2000/svg" xmlns:xlink="http://www.w3.org/1999/xlink" x="0px" y="0px"
	 width="64px" height="64px" viewBox="0 0 64 64" enable-background="new 0 0 64 64" xml:space="preserve">
<g id="Blue">
	<polygon fill="none" stroke-width="2" stroke="#0000FF" points="6.289,36.35 11.87,26.683 17.452,36.35 	"/>
	<line fill="none" stroke-width="2" stroke="#0000FF" x1="11.917" y1="26.586" x2="13.949" y2="23.424"/>
	<line fill="none" stroke-width="2" stroke="#0000FF" x1="13.917" y1="23.485" x2="13.886" y2="26.206"/>
	<line fill="none" stroke-width="2" stroke="#0000FF" x1="13.783" y1="26.317" x2="16.604" y2="23.165"/>
	<polygon fill="none" stroke-width="2" stroke="#0000FF" points="26.574,36.35 32.154,26.683 37.736,36.35 	"/>
	<line fill="none" stroke-width="2" stroke="#0000FF" x1="32.202" y1="26.586" x2="34.234" y2="23.424"/>
	<line fill="none" stroke-width="2" stroke="#0000FF" x1="34.202" y1="23.485" x2="34.17" y2="26.206"/>
	<line fill="none" stroke-width="2" stroke="#0000FF" x1="34.068" y1="26.317" x2="36.889" y2="23.165"/>
	<polygon fill="none" stroke-width="2" stroke="#0000FF" points="45.462,36.35 51.042,26.683 56.625,36.35 	"/>
	<line fill="none" stroke-width="2" stroke="#0000FF" x1="51.09" y1="26.586" x2="53.122" y2="23.424"/>
	<line fill="none" stroke-width="2" stroke="#0000FF" x1="53.091" y1="23.485" x2="53.059" y2="26.206"/>
	<line fill="none" stroke-width="2" stroke="#0000FF" x1="52.957" y1="26.317" x2="55.777" y2="23.165"/>
	<line fill="none" stroke-width="2" stroke="#0000FF" x1="17.625" y1="36.375" x2="45.125" y2="36.375"/>
</g>
<g id="Red">
	<polygon fill="none" stroke-width="2" stroke="#FF0000" points="6.289,36.35 11.87,26.683 17.452,36.35 	"/>
	<line fill="none" stroke-width="2" stroke="#FF0000" x1="11.917" y1="26.586" x2="13.949" y2="23.424"/>
	<line fill="none" stroke-width="2" stroke="#FF0000" x1="13.917" y1="23.485" x2="13.886" y2="26.206"/>
	<line fill="none" stroke-width="2" stroke="#FF0000" x1="13.783" y1="26.317" x2="16.604" y2="23.165"/>
	<polygon fill="none" stroke-width="2" stroke="#FF0000" points="26.574,36.35 32.154,26.683 37.736,36.35 	"/>
	<line fill="none" stroke-width="2" stroke="#FF0000" x1="32.202" y1="26.586" x2="34.234" y2="23.424"/>
	<line fill="none" stroke-width="2" stroke="#FF0000" x1="34.202" y1="23.485" x2="34.17" y2="26.206"/>
	<line fill="none" stroke-width="2" stroke="#FF0000" x1="34.068" y1="26.317" x2="36.889" y2="23.165"/>
	<polygon fill="none" stroke-width="2" stroke="#FF0000" points="45.462,36.35 51.042,26.683 56.625,36.35 	"/>
	<line fill="none" stroke-width="2" stroke="#FF0000" x1="51.09" y1="26.586" x2="53.122" y2="23.424"/>
	<line fill="none" stroke-width="2" stroke="#FF0000" x1="53.091" y1="23.485" x2="53.059" y2="26.206"/>
	<line fill="none" stroke-width="2" stroke="#FF0000" x1="52.957" y1="26.317" x2="55.777" y2="23.165"/>
	<line fill="none" stroke-width="2" stroke="#FF0000" x1="17.625" y1="36.375" x2="45.125" y2="36.375"/>
</g>
<g id="White">
	<polygon fill="none" stroke-width="2" stroke="#00FF00" points="6.289,36.35 11.87,26.683 17.452,36.35 	"/>
	<line fill="none" stroke-width="2" stroke="#00FF00" x1="11.917" y1="26.586" x2="13.949" y2="23.424"/>
	<line fill="none" stroke-width="2" stroke="#00FF00" x1="13.917" y1="23.485" x2="13.886" y2="26.206"/>
	<line fill="none" stroke-width="2" stroke="#00FF00" x1="13.783" y1="26.317" x2="16.604" y2="23.165"/>
	<polygon fill="none" stroke-width="2" stroke="#00FF00" points="26.574,36.35 32.154,26.683 37.736,36.35 	"/>
	<line fill="none" stroke-width="2" stroke="#00FF00" x1="32.202" y1="26.586" x2="34.234" y2="23.424"/>
	<line fill="none" stroke-width="2" stroke="#00FF00" x1="34.202" y1="23.485" x2="34.17" y2="26.206"/>
	<line fill="none" stroke-width="2" stroke="#00FF00" x1="34.068" y1="26.317" x2="36.889" y2="23.165"/>
	<polygon fill="none" stroke-width="2" stroke="#00FF00" points="45.462,36.35 51.042,26.683 56.625,36.35 	"/>
	<line fill="none" stroke-width="2" stroke="#00FF00" x1="51.09" y1="26.586" x2="53.122" y2="23.424"/>
	<line fill="none" stroke-width="2" stroke="#00FF00" x1="53.091" y1="23.485" x2="53.059" y2="26.206"/>
	<line fill="none" stroke-width="2" stroke="#00FF00" x1="52.957" y1="26.317" x2="55.777" y2="23.165"/>
	<line fill="none" stroke-width="2" stroke="#00FF00" x1="17.625" y1="36.375" x2="45.125" y2="36.375"/>
</g>
</svg>
