<?xml version="1.0" encoding="utf-8"?>
<!-- Generator: Adobe Illustrator 14.0.0, SVG Export Plug-In . SVG Version: 6.00 Build 43363)  -->
<!DOCTYPE svg PUBLIC "-//W3C//DTD SVG 1.1//EN" "http://www.w3.org/Graphics/SVG/1.1/DTD/svg11.dtd">
<svg version="1.1" id="图层_1" xmlns="http://www.w3.org/2000/svg" xmlns:xlink="http://www.w3.org/1999/xlink" x="0px" y="0px"
	 width="64px" height="64px" viewBox="0 0 64 64" enable-background="new 0 0 64 64" xml:space="preserve">
<g id="Blue">
	<polygon fill="none" stroke-width="2" stroke="#0000FF" points="2.167,57.447 10.808,38.9 19.449,57.447 	"/>
	<polygon fill="none" stroke-width="2" stroke="#0000FF" points="23.859,57.447 32.5,38.9 41.141,57.447 	"/>
	<polygon fill="none" stroke-width="2" stroke="#0000FF" points="45.551,57.447 54.191,38.9 62.833,57.447 	"/>
	<line fill="none" stroke-width="2" stroke="#0000FF" x1="10.808" y1="15.989" x2="10.808" y2="39.443"/>
	<line fill="none" stroke-width="2" stroke="#0000FF" x1="32.5" y1="15.989" x2="32.5" y2="39.443"/>
	<line fill="none" stroke-width="2" stroke="#0000FF" x1="54.191" y1="15.989" x2="54.191" y2="39.443"/>
	<line fill="none" stroke-width="2" stroke="#0000FF" x1="10.266" y1="16.396" x2="54.732" y2="16.396"/>
	<line fill="none" stroke-width="2" stroke="#0000FF" x1="16.164" y1="13.278" x2="12.978" y2="16.531"/>
	<line fill="none" stroke-width="2" stroke="#0000FF" x1="12.978" y1="16.26" x2="16.231" y2="19.378"/>
	<line fill="none" stroke-width="2" stroke="#0000FF" x1="27.62" y1="13.278" x2="30.805" y2="16.531"/>
	<line fill="none" stroke-width="2" stroke="#0000FF" x1="30.805" y1="16.26" x2="27.551" y2="19.378"/>
	<line fill="none" stroke-width="2" stroke="#0000FF" x1="37.787" y1="13.278" x2="34.602" y2="16.531"/>
	<line fill="none" stroke-width="2" stroke="#0000FF" x1="34.602" y1="16.26" x2="37.855" y2="19.378"/>
	<line fill="none" stroke-width="2" stroke="#0000FF" x1="49.243" y1="13.278" x2="52.43" y2="16.531"/>
	<line fill="none" stroke-width="2" stroke="#0000FF" x1="52.43" y1="16.26" x2="49.176" y2="19.378"/>
	<polygon fill="#231815" points="20.031,15.767 20.031,14.972 14.971,16.328 20.031,17.684 20.031,16.89 	"/>
	<polygon fill="#231815" points="24.123,15.767 24.123,14.972 29.183,16.328 24.123,17.684 24.123,16.89 	"/>
	<polygon fill="#231815" points="41.52,15.767 41.52,14.972 36.459,16.328 41.52,17.684 41.52,16.89 	"/>
	<polygon fill="#231815" points="45.609,15.767 45.609,14.972 50.672,16.328 45.609,17.684 45.609,16.89 	"/>
	<line fill="none" stroke="#000000" stroke-width="0.5" x1="19.349" y1="16.396" x2="25.382" y2="16.396"/>
</g>
<g id="Red">
	<polygon fill="none" stroke-width="2" stroke="#FF0000" points="2.167,57.447 10.808,38.9 19.449,57.447 	"/>
	<polygon fill="none" stroke-width="2" stroke="#FF0000" points="23.859,57.447 32.5,38.9 41.141,57.447 	"/>
	<polygon fill="none" stroke-width="2" stroke="#FF0000" points="45.551,57.447 54.191,38.9 62.833,57.447 	"/>
	<line fill="none" stroke-width="2" stroke="#FF0000" x1="10.808" y1="15.989" x2="10.808" y2="39.443"/>
	<line fill="none" stroke-width="2" stroke="#FF0000" x1="32.5" y1="15.989" x2="32.5" y2="39.443"/>
	<line fill="none" stroke-width="2" stroke="#FF0000" x1="54.191" y1="15.989" x2="54.191" y2="39.443"/>
	<line fill="none" stroke-width="2" stroke="#FF0000" x1="10.266" y1="16.396" x2="54.732" y2="16.396"/>
	<line fill="none" stroke-width="2" stroke="#FF0000" x1="16.164" y1="13.278" x2="12.978" y2="16.531"/>
	<line fill="none" stroke-width="2" stroke="#FF0000" x1="12.978" y1="16.26" x2="16.231" y2="19.378"/>
	<line fill="none" stroke-width="2" stroke="#FF0000" x1="27.62" y1="13.278" x2="30.805" y2="16.531"/>
	<line fill="none" stroke-width="2" stroke="#FF0000" x1="30.805" y1="16.26" x2="27.551" y2="19.378"/>
	<line fill="none" stroke-width="2" stroke="#FF0000" x1="37.787" y1="13.278" x2="34.602" y2="16.531"/>
	<line fill="none" stroke-width="2" stroke="#FF0000" x1="34.602" y1="16.26" x2="37.855" y2="19.378"/>
	<line fill="none" stroke-width="2" stroke="#FF0000" x1="49.243" y1="13.278" x2="52.43" y2="16.531"/>
	<line fill="none" stroke-width="2" stroke="#FF0000" x1="52.43" y1="16.26" x2="49.176" y2="19.378"/>
	<polygon fill="#231815" points="20.031,15.767 20.031,14.972 14.971,16.328 20.031,17.684 20.031,16.89 	"/>
	<polygon fill="#231815" points="24.123,15.767 24.123,14.972 29.183,16.328 24.123,17.684 24.123,16.89 	"/>
	<polygon fill="#231815" points="41.52,15.767 41.52,14.972 36.459,16.328 41.52,17.684 41.52,16.89 	"/>
	<polygon fill="#231815" points="45.609,15.767 45.609,14.972 50.672,16.328 45.609,17.684 45.609,16.89 	"/>
	<line fill="none" stroke="#000000" stroke-width="0.5" x1="19.349" y1="16.396" x2="25.382" y2="16.396"/>
</g>
<g id="White">
	<polygon fill="none" stroke-width="2" stroke="#00FF00" points="2.167,57.447 10.808,38.9 19.449,57.447 	"/>
	<polygon fill="none" stroke-width="2" stroke="#00FF00" points="23.859,57.447 32.5,38.9 41.141,57.447 	"/>
	<polygon fill="none" stroke-width="2" stroke="#00FF00" points="45.551,57.447 54.191,38.9 62.833,57.447 	"/>
	<line fill="none" stroke-width="2" stroke="#00FF00" x1="10.808" y1="15.989" x2="10.808" y2="39.443"/>
	<line fill="none" stroke-width="2" stroke="#00FF00" x1="32.5" y1="15.989" x2="32.5" y2="39.443"/>
	<line fill="none" stroke-width="2" stroke="#00FF00" x1="54.191" y1="15.989" x2="54.191" y2="39.443"/>
	<line fill="none" stroke-width="2" stroke="#00FF00" x1="10.266" y1="16.396" x2="54.732" y2="16.396"/>
	<line fill="none" stroke-width="2" stroke="#00FF00" x1="16.164" y1="13.278" x2="12.978" y2="16.531"/>
	<line fill="none" stroke-width="2" stroke="#00FF00" x1="12.978" y1="16.26" x2="16.231" y2="19.378"/>
	<line fill="none" stroke-width="2" stroke="#00FF00" x1="27.62" y1="13.278" x2="30.805" y2="16.531"/>
	<line fill="none" stroke-width="2" stroke="#00FF00" x1="30.805" y1="16.26" x2="27.551" y2="19.378"/>
	<line fill="none" stroke-width="2" stroke="#00FF00" x1="37.787" y1="13.278" x2="34.602" y2="16.531"/>
	<line fill="none" stroke-width="2" stroke="#00FF00" x1="34.602" y1="16.26" x2="37.855" y2="19.378"/>
	<line fill="none" stroke-width="2" stroke="#00FF00" x1="49.243" y1="13.278" x2="52.43" y2="16.531"/>
	<line fill="none" stroke-width="2" stroke="#00FF00" x1="52.43" y1="16.26" x2="49.176" y2="19.378"/>
	<polygon fill="#231815" points="20.031,15.767 20.031,14.972 14.971,16.328 20.031,17.684 20.031,16.89 	"/>
	<polygon fill="#231815" points="24.123,15.767 24.123,14.972 29.183,16.328 24.123,17.684 24.123,16.89 	"/>
	<polygon fill="#231815" points="41.52,15.767 41.52,14.972 36.459,16.328 41.52,17.684 41.52,16.89 	"/>
	<polygon fill="#231815" points="45.609,15.767 45.609,14.972 50.672,16.328 45.609,17.684 45.609,16.89 	"/>
	<line fill="none" stroke="#000000" stroke-width="0.5" x1="19.349" y1="16.396" x2="25.382" y2="16.396"/>
</g>
</svg>
