<?xml version="1.0" encoding="utf-8"?>
<!-- Generator: Adobe Illustrator 14.0.0, SVG Export Plug-In . SVG Version: 6.00 Build 43363)  -->
<!DOCTYPE svg PUBLIC "-//W3C//DTD SVG 1.1//EN" "http://www.w3.org/Graphics/SVG/1.1/DTD/svg11.dtd">
<svg version="1.1" id="图层_1" xmlns="http://www.w3.org/2000/svg" xmlns:xlink="http://www.w3.org/1999/xlink" x="0px" y="0px"
	 width="64px" height="64px" viewBox="0 0 64 64" enable-background="new 0 0 64 64" xml:space="preserve">
<g id="Blue">
	<line fill="none" stroke="#0000FF" stroke-width="2" x1="33.686" y1="4.458" x2="33.686" y2="20.167"/>
	<line fill="none" stroke="#0000FF" stroke-width="2" x1="33.686" y1="20.167" x2="10.25" y2="61.5"/>
	<line fill="none" stroke="#0000FF" stroke-width="2" x1="10.25" y1="61.5" x2="56.75" y2="61.5"/>
	<line fill="none" stroke="#0000FF" stroke-width="2" x1="56.75" y1="61.5" x2="33.686" y2="20.167"/>
	<polygon fill="#000100" points="35.978,8.896 33.686,0.021 31.394,8.896 33.686,6.229 	"/>
	<polygon fill="#0000FF" points="34.832,6.677 33.686,2.24 32.539,6.677 33.686,5.344 	"/>
</g>
<g id="Red">
	<line fill="none" stroke="#FF0000" stroke-width="2" x1="33.686" y1="4.458" x2="33.686" y2="20.167"/>
	<line fill="none" stroke="#FF0000" stroke-width="2" x1="33.686" y1="20.167" x2="10.25" y2="61.5"/>
	<line fill="none" stroke="#FF0000" stroke-width="2" x1="10.25" y1="61.5" x2="56.75" y2="61.5"/>
	<line fill="none" stroke="#FF0000" stroke-width="2" x1="56.75" y1="61.5" x2="33.686" y2="20.167"/>
	<polygon fill="#000100" points="35.978,8.896 33.686,0.021 31.394,8.896 33.686,6.229 	"/>
	<polygon fill="#FF0000" points="34.832,6.677 33.686,2.24 32.539,6.677 33.686,5.344 	"/>
</g>
<g id="White">
	<line fill="none" stroke="#00FF00" stroke-width="2" x1="33.686" y1="4.458" x2="33.686" y2="20.167"/>
	<line fill="none" stroke="#00FF00" stroke-width="2" x1="33.686" y1="20.167" x2="10.25" y2="61.5"/>
	<line fill="none" stroke="#00FF00" stroke-width="2" x1="10.25" y1="61.5" x2="56.75" y2="61.5"/>
	<line fill="none" stroke="#00FF00" stroke-width="2" x1="56.75" y1="61.5" x2="33.686" y2="20.167"/>
	<polygon fill="#000100" points="35.978,8.896 33.686,0.021 31.394,8.896 33.686,6.229 	"/>
	<polygon fill="#00FF00" points="34.832,6.677 33.686,2.24 32.539,6.677 33.686,5.344 	"/>
</g>
</svg>
