<?xml version="1.0" encoding="utf-8"?>
<!-- Generator: Adobe Illustrator 14.0.0, SVG Export Plug-In . SVG Version: 6.00 Build 43363)  -->
<!DOCTYPE svg PUBLIC "-//W3C//DTD SVG 1.1//EN" "http://www.w3.org/Graphics/SVG/1.1/DTD/svg11.dtd">
<svg version="1.1" id="图层_1" xmlns="http://www.w3.org/2000/svg" xmlns:xlink="http://www.w3.org/1999/xlink" x="0px" y="0px"
	 width="64px" height="64px" viewBox="0 0 64 64" enable-background="new 0 0 64 64" xml:space="preserve">
<g id="Blue">
	<rect x="1.125" y="15.25" fill="none" stroke="#0000FF" stroke-width="2" width="61.5" height="30.375"/>
	<polygon fill="none" stroke="#0000FF" stroke-width="2" points="17.875,22.25 17.875,36.75 30.375,29.5 	"/>
	<polygon fill="none" stroke="#0000FF" stroke-width="2" points="45.496,22.25 45.496,36.75 32.996,29.5 	"/>
	<line fill="none" stroke="#0000FF" stroke-width="2" x1="17.875" y1="29.5" x2="1.125" y2="29.5"/>
	<line fill="none" stroke="#0000FF" stroke-width="2" x1="45.496" y1="29.5" x2="62.625" y2="29.5"/>
</g>
<g id="Red">
	<rect x="1.125" y="15.25" fill="none" stroke="#FF0000" stroke-width="2" width="61.5" height="30.375"/>
	<polygon fill="none" stroke="#FF0000" stroke-width="2" points="17.875,22.25 17.875,36.75 30.375,29.5 	"/>
	<polygon fill="none" stroke="#FF0000" stroke-width="2" points="45.496,22.25 45.496,36.75 32.996,29.5 	"/>
	<line fill="none" stroke="#FF0000" stroke-width="2" x1="17.875" y1="29.5" x2="1.125" y2="29.5"/>
	<line fill="none" stroke="#FF0000" stroke-width="2" x1="45.496" y1="29.5" x2="62.625" y2="29.5"/>
</g>
<g id="White">
	<rect x="1.125" y="15.25" fill="none" stroke="#00FF00" stroke-width="2" width="61.5" height="30.375"/>
	<polygon fill="none" stroke="#00FF00" stroke-width="2" points="17.875,22.25 17.875,36.75 30.375,29.5 	"/>
	<polygon fill="none" stroke="#00FF00" stroke-width="2" points="45.496,22.25 45.496,36.75 32.996,29.5 	"/>
	<line fill="none" stroke="#00FF00" stroke-width="2" x1="17.875" y1="29.5" x2="1.125" y2="29.5"/>
	<line fill="none" stroke="#00FF00" stroke-width="2" x1="45.496" y1="29.5" x2="62.625" y2="29.5"/>
</g>
</svg>
