<?xml version="1.0" encoding="utf-8"?>
<!-- Generator: Adobe Illustrator 14.0.0, SVG Export Plug-In . SVG Version: 6.00 Build 43363)  -->
<!DOCTYPE svg PUBLIC "-//W3C//DTD SVG 1.1//EN" "http://www.w3.org/Graphics/SVG/1.1/DTD/svg11.dtd">
<svg version="1.1" id="图层_1" xmlns="http://www.w3.org/2000/svg" xmlns:xlink="http://www.w3.org/1999/xlink" x="0px" y="0px"
	 width="64px" height="64px" viewBox="0 0 64 64" enable-background="new 0 0 64 64" xml:space="preserve">
<g id="Blue">
	<polygon fill="none" stroke-width="2" stroke="#0000FF" points="19,56.061 41,17.955 63,56.061 	"/>
	<path fill="none" stroke-width="2" stroke="#0000FF" d="M54.195,13.336c-3.229,4.895-9.811,6.247-14.704,3.02c-4.896-3.228-6.247-9.81-3.021-14.705"
		/>
	<line fill="none" stroke-width="2" stroke="#0000FF" x1="39.872" y1="19.796" x2="45.514" y2="7.488"/>
	<line fill="none" stroke-width="2" stroke="#0000FF" x1="2.625" y1="56.063" x2="45.125" y2="56.063"/>
	<line fill="none" stroke-width="2" stroke="#0000FF" x1="8.25" y1="56" x2="14.5" y2="58.5"/>
	<line fill="none" stroke-width="2" stroke="#0000FF" x1="8.917" y1="55.917" x2="14.417" y2="53.667"/>
</g>
<g id="Red">
	<polygon fill="none" stroke-width="2" stroke="#FF0000" points="19,56.061 41,17.955 63,56.061 	"/>
	<path fill="none" stroke-width="2" stroke="#FF0000" d="M54.195,13.336c-3.229,4.895-9.811,6.247-14.704,3.02c-4.896-3.228-6.247-9.81-3.021-14.705"
		/>
	<line fill="none" stroke-width="2" stroke="#FF0000" x1="39.872" y1="19.796" x2="45.514" y2="7.488"/>
	<line fill="none" stroke-width="2" stroke="#FF0000" x1="2.625" y1="56.063" x2="45.125" y2="56.063"/>
	<line fill="none" stroke-width="2" stroke="#FF0000" x1="8.25" y1="56" x2="14.5" y2="58.5"/>
	<line fill="none" stroke-width="2" stroke="#FF0000" x1="8.917" y1="55.917" x2="14.417" y2="53.667"/>
</g>
<g id="White">
	<polygon fill="none" stroke-width="2" stroke="#00FF00" points="19,56.061 41,17.955 63,56.061 	"/>
	<path fill="none" stroke-width="2" stroke="#00FF00" d="M54.195,13.336c-3.229,4.895-9.811,6.247-14.704,3.02c-4.896-3.228-6.247-9.81-3.021-14.705"
		/>
	<line fill="none" stroke-width="2" stroke="#00FF00" x1="39.872" y1="19.796" x2="45.514" y2="7.488"/>
	<line fill="none" stroke-width="2" stroke="#00FF00" x1="2.625" y1="56.063" x2="45.125" y2="56.063"/>
	<line fill="none" stroke-width="2" stroke="#00FF00" x1="8.25" y1="56" x2="14.5" y2="58.5"/>
	<line fill="none" stroke-width="2" stroke="#00FF00" x1="8.917" y1="55.917" x2="14.417" y2="53.667"/>
</g>
</svg>
