<?xml version="1.0" encoding="utf-8"?>
<!-- Generator: Adobe Illustrator 14.0.0, SVG Export Plug-In . SVG Version: 6.00 Build 43363)  -->
<!DOCTYPE svg PUBLIC "-//W3C//DTD SVG 1.1//EN" "http://www.w3.org/Graphics/SVG/1.1/DTD/svg11.dtd">
<svg version="1.1" id="图层_1" xmlns="http://www.w3.org/2000/svg" xmlns:xlink="http://www.w3.org/1999/xlink" x="0px" y="0px"
	 width="64px" height="64px" viewBox="0 0 64 64" enable-background="new 0 0 64 64" xml:space="preserve">
<g id="Blue">
	<line fill="none" stroke="#0000FF" stroke-width="2" x1="61.625" y1="19.875" x2="20.375" y2="19.875"/>
	<line fill="none" stroke="#0000FF" stroke-width="2" x1="20.375" y1="19.875" x2="1.375" y2="34.375"/>
	<line fill="none" stroke="#0000FF" stroke-width="2" x1="1.375" y1="34.375" x2="1.375" y2="49"/>
	<line fill="none" stroke="#0000FF" stroke-width="2" x1="1.375" y1="49" x2="61.625" y2="49"/>
	<line fill="none" stroke="#0000FF" stroke-width="2" x1="61.625" y1="49" x2="61.625" y2="19.875"/>
	<path fill="none" stroke="#0000FF" stroke-width="2" d="M17.125,36.5c0,0,4.75-4.5,10.75-4.5c0,0,3.75-1,8.25,4.5
		c0,0,2.375,3.5,9.25,3.625c0,0,5.375-0.32,8.375-4.098"/>
</g>
<g id="Red">
	<line fill="none" stroke="#FF0000" stroke-width="2" x1="61.625" y1="19.875" x2="20.375" y2="19.875"/>
	<line fill="none" stroke="#FF0000" stroke-width="2" x1="20.375" y1="19.875" x2="1.375" y2="34.375"/>
	<line fill="none" stroke="#FF0000" stroke-width="2" x1="1.375" y1="34.375" x2="1.375" y2="49"/>
	<line fill="none" stroke="#FF0000" stroke-width="2" x1="1.375" y1="49" x2="61.625" y2="49"/>
	<line fill="none" stroke="#FF0000" stroke-width="2" x1="61.625" y1="49" x2="61.625" y2="19.875"/>
	<path fill="none" stroke="#FF0000" stroke-width="2" d="M17.125,36.5c0,0,4.75-4.5,10.75-4.5c0,0,3.75-1,8.25,4.5
		c0,0,2.375,3.5,9.25,3.625c0,0,5.375-0.32,8.375-4.098"/>
</g>
<g id="White">
	<line fill="none" stroke="#00FF00" stroke-width="2" x1="61.625" y1="19.875" x2="20.375" y2="19.875"/>
	<line fill="none" stroke="#00FF00" stroke-width="2" x1="20.375" y1="19.875" x2="1.375" y2="34.375"/>
	<line fill="none" stroke="#00FF00" stroke-width="2" x1="1.375" y1="34.375" x2="1.375" y2="49"/>
	<line fill="none" stroke="#00FF00" stroke-width="2" x1="1.375" y1="49" x2="61.625" y2="49"/>
	<line fill="none" stroke="#00FF00" stroke-width="2" x1="61.625" y1="49" x2="61.625" y2="19.875"/>
	<path fill="none" stroke="#00FF00" stroke-width="2" d="M17.125,36.5c0,0,4.75-4.5,10.75-4.5c0,0,3.75-1,8.25,4.5
		c0,0,2.375,3.5,9.25,3.625c0,0,5.375-0.32,8.375-4.098"/>
</g>
</svg>
