<?xml version="1.0" encoding="utf-8"?>
<!-- Generator: Adobe Illustrator 14.0.0, SVG Export Plug-In . SVG Version: 6.00 Build 43363)  -->
<!DOCTYPE svg PUBLIC "-//W3C//DTD SVG 1.1//EN" "http://www.w3.org/Graphics/SVG/1.1/DTD/svg11.dtd">
<svg version="1.1" id="图层_1" xmlns="http://www.w3.org/2000/svg" xmlns:xlink="http://www.w3.org/1999/xlink" x="0px" y="0px"
	 width="64px" height="64px" viewBox="0 0 64 64" enable-background="new 0 0 64 64" xml:space="preserve">
<g id="Blue">
	<rect x="2.5" y="17.875" fill="none" stroke="#0000FF" stroke-width="2" width="59.75" height="29.75"/>
	<line fill="none" stroke="#0000FF" stroke-width="2" x1="14.438" y1="36.813" x2="23.5" y2="27.938"/>
	<line fill="none" stroke="#0000FF" stroke-width="2" x1="23.5" y1="27.938" x2="32.375" y2="36.813"/>
	<line fill="none" stroke="#0000FF" stroke-width="2" x1="32.375" y1="36.813" x2="41.438" y2="27.938"/>
	<line fill="none" stroke="#0000FF" stroke-width="2" x1="41.438" y1="27.938" x2="50.375" y2="36.813"/>
</g>
<g id="Red">
	<rect x="2.5" y="17.875" fill="none" stroke="#FF0000" stroke-width="2" width="59.75" height="29.75"/>
	<line fill="none" stroke="#FF0000" stroke-width="2" x1="14.438" y1="36.813" x2="23.5" y2="27.938"/>
	<line fill="none" stroke="#FF0000" stroke-width="2" x1="23.5" y1="27.938" x2="32.375" y2="36.813"/>
	<line fill="none" stroke="#FF0000" stroke-width="2" x1="32.375" y1="36.813" x2="41.438" y2="27.938"/>
	<line fill="none" stroke="#FF0000" stroke-width="2" x1="41.438" y1="27.938" x2="50.375" y2="36.813"/>
</g>
<g id="White">
	<rect x="2.5" y="17.875" fill="none" stroke="#00FF00" stroke-width="2" width="59.75" height="29.75"/>
	<line fill="none" stroke="#00FF00" stroke-width="2" x1="14.438" y1="36.813" x2="23.5" y2="27.938"/>
	<line fill="none" stroke="#00FF00" stroke-width="2" x1="23.5" y1="27.938" x2="32.375" y2="36.813"/>
	<line fill="none" stroke="#00FF00" stroke-width="2" x1="32.375" y1="36.813" x2="41.438" y2="27.938"/>
	<line fill="none" stroke="#00FF00" stroke-width="2" x1="41.438" y1="27.938" x2="50.375" y2="36.813"/>
</g>
</svg>
