<?xml version="1.0" encoding="utf-8"?>
<!-- Generator: Adobe Illustrator 14.0.0, SVG Export Plug-In . SVG Version: 6.00 Build 43363)  -->
<!DOCTYPE svg PUBLIC "-//W3C//DTD SVG 1.1//EN" "http://www.w3.org/Graphics/SVG/1.1/DTD/svg11.dtd">
<svg version="1.1" id="图层_1" xmlns="http://www.w3.org/2000/svg" xmlns:xlink="http://www.w3.org/1999/xlink" x="0px" y="0px"
	 width="64px" height="64px" viewBox="0 0 64 64" enable-background="new 0 0 64 64" xml:space="preserve">
<g id="Blue">
	<rect x="2" y="10.625" fill="none" stroke="#0000FF" stroke-width="2" width="60.125" height="32.125"/>
	<line fill="none" stroke="#0000FF" stroke-width="2" x1="17.625" y1="26.688" x2="48.625" y2="26.688"/>
	<polygon fill="#000100" points="20.75,29.188 8.542,26.688 20.75,24.188 17.625,26.688 	"/>
	<polygon fill="#000100" points="45.5,29.188 57.709,26.688 45.5,24.188 48.625,26.688 	"/>
</g>
<g id="Red">
	<rect x="2" y="10.625" fill="none" stroke="#FF0000" stroke-width="2" width="60.125" height="32.125"/>
	<line fill="none" stroke="#FF0000" stroke-width="2" x1="17.625" y1="26.688" x2="48.625" y2="26.688"/>
	<polygon fill="#000100" points="20.75,29.188 8.542,26.688 20.75,24.188 17.625,26.688 	"/>
	<polygon fill="#000100" points="45.5,29.188 57.709,26.688 45.5,24.188 48.625,26.688 	"/>
</g>
<g id="White">
	<rect x="2" y="10.625" fill="none" stroke="#00FF00" stroke-width="2" width="60.125" height="32.125"/>
	<line fill="none" x1="17.625" y1="26.688" x2="48.625" y2="26.688"/>
	<line fill="none" stroke="#00FF00" stroke-width="2" x1="17.625" y1="26.688" x2="48.625" y2="26.688"/>
	<polygon fill="#000100" points="20.75,29.188 8.542,26.688 20.75,24.188 17.625,26.688 	"/>
	<polygon fill="#000100" points="45.5,29.188 57.709,26.688 45.5,24.188 48.625,26.688 	"/>
</g>
</svg>
