<?xml version="1.0" encoding="utf-8"?>
<!-- Generator: Adobe Illustrator 14.0.0, SVG Export Plug-In . SVG Version: 6.00 Build 43363)  -->
<!DOCTYPE svg PUBLIC "-//W3C//DTD SVG 1.1//EN" "http://www.w3.org/Graphics/SVG/1.1/DTD/svg11.dtd">
<svg version="1.1" id="图层_1" xmlns="http://www.w3.org/2000/svg" xmlns:xlink="http://www.w3.org/1999/xlink" x="0px" y="0px"
	 width="64px" height="64px" viewBox="0 0 64 64" enable-background="new 0 0 64 64" xml:space="preserve">
<g id="Blue">
	<rect x="2.625" y="18.125" fill="none" stroke="#0000FF" stroke-width="2" width="59.625" height="29.375"/>
	<path fill="none" stroke="#0000FF" stroke-width="2" d="M8.75,33.75c0,0,5.688-6.438,13.438-6.438c0,0,4.938-0.5,10.25,5.5
		c0,0,5.625,5.188,13.188,5.313c0,0,7.125-0.135,11.125-5.411"/>
</g>
<g id="Red">
	<rect x="2.625" y="18.125" fill="none" stroke="#FF0000" stroke-width="2" width="59.625" height="29.375"/>
	<path fill="none" stroke="#FF0000" stroke-width="2" d="M8.75,33.75c0,0,5.688-6.438,13.438-6.438c0,0,4.938-0.5,10.25,5.5
		c0,0,5.625,5.188,13.188,5.313c0,0,7.125-0.135,11.125-5.411"/>
</g>
<g id="White">
	<rect x="2.625" y="18.125" fill="none" stroke="#00FF00" stroke-width="2" width="59.625" height="29.375"/>
	<path fill="none" stroke="#00FF00" stroke-width="2" d="M8.75,33.75c0,0,5.688-6.438,13.438-6.438c0,0,4.938-0.5,10.25,5.5
		c0,0,5.625,5.188,13.188,5.313c0,0,7.125-0.135,11.125-5.411"/>
</g>
</svg>
