<?xml version="1.0" encoding="utf-8"?>
<!-- Generator: Adobe Illustrator 14.0.0, SVG Export Plug-In . SVG Version: 6.00 Build 43363)  -->
<!DOCTYPE svg PUBLIC "-//W3C//DTD SVG 1.1//EN" "http://www.w3.org/Graphics/SVG/1.1/DTD/svg11.dtd">
<svg version="1.1" id="图层_1" xmlns="http://www.w3.org/2000/svg" xmlns:xlink="http://www.w3.org/1999/xlink" x="0px" y="0px"
	 width="64px" height="64px" viewBox="0 0 64 64" enable-background="new 0 0 64 64" xml:space="preserve">
<g id="Blue">
	<path fill="none" stroke-width="2" stroke="#0000FF" d="M1,36.039c0,0,7.165-6.459,8.198-1.607c0.63,2.959,1.5,7.975,5.738,6.438
		c3.153-1.145,2.978-12.795,7.441-9.919c2.9,1.87-1.236,14.896,4.981,10.853c1.639-1.064,1.892-8.049,5.74-3.166
		c4.284,5.438,4.286-16.046,7.313-6.907c0.512,1.545,3.53,16.875,6.368,14.073c2.35-2.32-1.928-15.826,5.046-13.554"/>
	<path fill="none" stroke-width="2" stroke="#0000FF" d="M64.167,44.514c-6.815,0-12.341-5.523-12.341-12.34c0-6.816,5.523-12.34,12.341-12.34"/>
</g>
<g id="Red">
	<path fill="none" stroke-width="2" stroke="#FF0000" d="M1,36.039c0,0,7.165-6.459,8.198-1.607c0.63,2.959,1.5,7.975,5.738,6.438
		c3.153-1.145,2.978-12.795,7.441-9.919c2.9,1.87-1.236,14.896,4.981,10.853c1.639-1.064,1.892-8.049,5.74-3.166
		c4.284,5.438,4.286-16.046,7.313-6.907c0.512,1.545,3.53,16.875,6.368,14.073c2.35-2.32-1.928-15.826,5.046-13.554"/>
	<path fill="none" stroke-width="2" stroke="#FF0000" d="M64.167,44.514c-6.815,0-12.341-5.523-12.341-12.34c0-6.816,5.523-12.34,12.341-12.34"/>
</g>
<g id="White">
	<path fill="none" stroke-width="2" stroke="#00FF00" d="M1,36.039c0,0,7.165-6.459,8.198-1.607c0.63,2.959,1.5,7.975,5.738,6.438
		c3.153-1.145,2.978-12.795,7.441-9.919c2.9,1.87-1.236,14.896,4.981,10.853c1.639-1.064,1.892-8.049,5.74-3.166
		c4.284,5.438,4.286-16.046,7.313-6.907c0.512,1.545,3.53,16.875,6.368,14.073c2.35-2.32-1.928-15.826,5.046-13.554"/>
	<path fill="none" stroke-width="2" stroke="#00FF00" d="M64.167,44.514c-6.815,0-12.341-5.523-12.341-12.34c0-6.816,5.523-12.34,12.341-12.34"/>
</g>
</svg>
