<?xml version="1.0" encoding="utf-8"?>
<!-- Generator: Adobe Illustrator 14.0.0, SVG Export Plug-In . SVG Version: 6.00 Build 43363)  -->
<!DOCTYPE svg PUBLIC "-//W3C//DTD SVG 1.1//EN" "http://www.w3.org/Graphics/SVG/1.1/DTD/svg11.dtd">
<svg version="1.1" id="图层_1" xmlns="http://www.w3.org/2000/svg" xmlns:xlink="http://www.w3.org/1999/xlink" x="0px" y="0px"
	 width="64px" height="64px" viewBox="0 0 64 64" enable-background="new 0 0 64 64" xml:space="preserve">
<g id="Blue">
	<line fill="none" stroke="#0000FF" stroke-width="2" x1="55.375" y1="45.625" x2="21.5" y2="45.625"/>
	<line fill="none" stroke="#0000FF" stroke-width="2" x1="21.5" y1="45.625" x2="7.25" y2="54"/>
	<line fill="none" stroke="#0000FF" stroke-width="2" x1="7.25" y1="54" x2="21.5" y2="62.25"/>
	<line fill="none" stroke="#0000FF" stroke-width="2" x1="21.5" y1="62.25" x2="55.375" y2="62.25"/>
	<line fill="none" stroke="#0000FF" stroke-width="2" x1="55.375" y1="62.25" x2="55.375" y2="45.625"/>
	<line fill="none" stroke="#0000FF" stroke-width="2" x1="55.375" y1="45.625" x2="39.125" y2="15.875"/>
	<line fill="none" stroke="#0000FF" stroke-width="2" x1="39.125" y1="15.875" x2="21.5" y2="45.625"/>
	<path fill="none" stroke="#0000FF" stroke-width="2" d="M36.375,1.625c0,0-5.75,7.75,2.75,14.25c0,0,8.25,4.5,13.375-4.25"/>
	<line fill="none" stroke="#0000FF" stroke-width="2" x1="39.125" y1="15.875" x2="44.5" y2="6"/>
</g>
<g id="Red">
	<line fill="none" stroke="#FF0000" stroke-width="2" x1="55.375" y1="45.625" x2="21.5" y2="45.625"/>
	<line fill="none" stroke="#FF0000" stroke-width="2" x1="21.5" y1="45.625" x2="7.25" y2="54"/>
	<line fill="none" stroke="#FF0000" stroke-width="2" x1="7.25" y1="54" x2="21.5" y2="62.25"/>
	<line fill="none" stroke="#FF0000" stroke-width="2" x1="21.5" y1="62.25" x2="55.375" y2="62.25"/>
	<line fill="none" stroke="#FF0000" stroke-width="2" x1="55.375" y1="62.25" x2="55.375" y2="45.625"/>
	<line fill="none" stroke="#FF0000" stroke-width="2" x1="55.375" y1="45.625" x2="39.125" y2="15.875"/>
	<line fill="none" stroke="#FF0000" stroke-width="2" x1="39.125" y1="15.875" x2="21.5" y2="45.625"/>
	<path fill="none" stroke="#FF0000" stroke-width="2" d="M36.375,1.625c0,0-5.75,7.75,2.75,14.25c0,0,8.25,4.5,13.375-4.25"/>
	<line fill="none" stroke="#FF0000" stroke-width="2" x1="39.125" y1="15.875" x2="44.5" y2="6"/>
</g>
<g id="White">
	<line fill="none" stroke="#00FF00" stroke-width="2" x1="55.375" y1="45.625" x2="21.5" y2="45.625"/>
	<line fill="none" stroke="#00FF00" stroke-width="2" x1="21.5" y1="45.625" x2="7.25" y2="54"/>
	<line fill="none" stroke="#00FF00" stroke-width="2" x1="7.25" y1="54" x2="21.5" y2="62.25"/>
	<line fill="none" stroke="#00FF00" stroke-width="2" x1="21.5" y1="62.25" x2="55.375" y2="62.25"/>
	<line fill="none" stroke="#00FF00" stroke-width="2" x1="55.375" y1="62.25" x2="55.375" y2="45.625"/>
	<line fill="none" stroke="#00FF00" stroke-width="2" x1="55.375" y1="45.625" x2="39.125" y2="15.875"/>
	<line fill="none" stroke="#00FF00" stroke-width="2" x1="39.125" y1="15.875" x2="21.5" y2="45.625"/>
	<path fill="none" stroke="#00FF00" stroke-width="2" d="M36.375,1.625c0,0-5.75,7.75,2.75,14.25c0,0,8.25,4.5,13.375-4.25"/>
	<line fill="none" stroke="#00FF00" stroke-width="2" x1="39.125" y1="15.875" x2="44.5" y2="6"/>
</g>
</svg>
