<?xml version="1.0" encoding="utf-8"?>
<!-- Generator: Adobe Illustrator 14.0.0, SVG Export Plug-In . SVG Version: 6.00 Build 43363)  -->
<!DOCTYPE svg PUBLIC "-//W3C//DTD SVG 1.1//EN" "http://www.w3.org/Graphics/SVG/1.1/DTD/svg11.dtd">
<svg version="1.1" id="图层_1" xmlns="http://www.w3.org/2000/svg" xmlns:xlink="http://www.w3.org/1999/xlink" x="0px" y="0px"
	 width="64px" height="64px" viewBox="0 0 64 64" enable-background="new 0 0 64 64" xml:space="preserve">
<g id="Blue">
	<rect x="13.545" y="25.356" fill="none" stroke-width="2" stroke="#0000FF" width="36.02" height="36.019"/>
	<line fill="none" stroke-width="2" stroke="#0000FF" x1="30.924" y1="25.216" x2="44.768" y2="5.563"/>
	<line fill="none" stroke-width="2" stroke="#0000FF" x1="44.518" y1="5.937" x2="43.117" y2="16.947"/>
	<line fill="none" stroke-width="2" stroke="#0000FF" x1="43.396" y1="16.526" x2="54.329" y2="1.25"/>
	<line fill="none" stroke-width="2" stroke="#0000FF" x1="13.625" y1="33.875" x2="49.625" y2="33.875"/>
</g>
<g id="Red">
	<rect x="13.545" y="25.356" fill="none" stroke-width="2" stroke="#FF0000" width="36.02" height="36.019"/>
	<line fill="none" stroke-width="2" stroke="#FF0000" x1="30.924" y1="25.216" x2="44.768" y2="5.563"/>
	<line fill="none" stroke-width="2" stroke="#FF0000" x1="44.518" y1="5.937" x2="43.117" y2="16.947"/>
	<line fill="none" stroke-width="2" stroke="#FF0000" x1="43.396" y1="16.526" x2="54.329" y2="1.25"/>
	<line fill="none" stroke-width="2" stroke="#FF0000" x1="13.625" y1="33.875" x2="49.625" y2="33.875"/>
</g>
<g id="White">
	<rect x="13.545" y="25.356" fill="none" stroke-width="2" stroke="#00FF00" width="36.02" height="36.019"/>
	<line fill="none" stroke-width="2" stroke="#00FF00" x1="30.924" y1="25.216" x2="44.768" y2="5.563"/>
	<line fill="none" stroke-width="2" stroke="#00FF00" x1="44.518" y1="5.937" x2="43.117" y2="16.947"/>
	<line fill="none" stroke-width="2" stroke="#00FF00" x1="43.396" y1="16.526" x2="54.329" y2="1.25"/>
	<line fill="none" stroke-width="2" stroke="#00FF00" x1="13.625" y1="33.875" x2="49.625" y2="33.875"/>
</g>
</svg>
