<?xml version="1.0" encoding="utf-8"?>
<!-- Generator: Adobe Illustrator 14.0.0, SVG Export Plug-In . SVG Version: 6.00 Build 43363)  -->
<!DOCTYPE svg PUBLIC "-//W3C//DTD SVG 1.1//EN" "http://www.w3.org/Graphics/SVG/1.1/DTD/svg11.dtd">
<svg version="1.1" id="图层_1" xmlns="http://www.w3.org/2000/svg" xmlns:xlink="http://www.w3.org/1999/xlink" x="0px" y="0px"
	 width="64px" height="64px" viewBox="0 0 64 64" enable-background="new 0 0 64 64" xml:space="preserve">
<g id="Blue">
	<polygon fill="none" stroke-width="2" stroke="#0000FF" points="13.041,49.607 33.168,14.746 53.297,49.607 	"/>
	<line fill="none" stroke-width="2" stroke="#0000FF" x1="33.337" y1="14.395" x2="40.666" y2="2.99"/>
	<line fill="none" stroke-width="2" stroke="#0000FF" x1="40.551" y1="3.211" x2="40.436" y2="13.023"/>
	<line fill="none" stroke-width="2" stroke="#0000FF" x1="40.068" y1="13.425" x2="50.241" y2="2.057"/>
	<circle fill="none" stroke-width="2" stroke="#0000FF" cx="19.681" cy="56.584" r="6.417"/>
	<circle fill="none" stroke-width="2" stroke="#0000FF" cx="44.791" cy="56.584" r="6.416"/>
</g>
<g id="Red">
	<polygon fill="none" stroke-width="2" stroke="#FF0000" points="13.041,49.607 33.168,14.746 53.297,49.607 	"/>
	<line fill="none" stroke-width="2" stroke="#FF0000" x1="33.337" y1="14.395" x2="40.666" y2="2.99"/>
	<line fill="none" stroke-width="2" stroke="#FF0000" x1="40.551" y1="3.211" x2="40.436" y2="13.023"/>
	<line fill="none" stroke-width="2" stroke="#FF0000" x1="40.068" y1="13.425" x2="50.241" y2="2.057"/>
	<circle fill="none" stroke-width="2" stroke="#FF0000" cx="19.681" cy="56.584" r="6.417"/>
	<circle fill="none" stroke-width="2" stroke="#FF0000" cx="44.791" cy="56.584" r="6.416"/>
</g>
<g id="White">
	<polygon fill="none" stroke-width="2" stroke="#00FF00" points="13.041,49.607 33.168,14.746 53.297,49.607 	"/>
	<line fill="none" stroke-width="2" stroke="#00FF00" x1="33.337" y1="14.395" x2="40.666" y2="2.99"/>
	<line fill="none" stroke-width="2" stroke="#00FF00" x1="40.551" y1="3.211" x2="40.436" y2="13.023"/>
	<line fill="none" stroke-width="2" stroke="#00FF00" x1="40.068" y1="13.425" x2="50.241" y2="2.057"/>
	<circle fill="none" stroke-width="2" stroke="#00FF00" cx="19.681" cy="56.584" r="6.417"/>
	<circle fill="none" stroke-width="2" stroke="#00FF00" cx="44.791" cy="56.584" r="6.416"/>
</g>
</svg>
