<?xml version="1.0" encoding="utf-8"?>
<!-- Generator: Adobe Illustrator 14.0.0, SVG Export Plug-In . SVG Version: 6.00 Build 43363)  -->
<!DOCTYPE svg PUBLIC "-//W3C//DTD SVG 1.1//EN" "http://www.w3.org/Graphics/SVG/1.1/DTD/svg11.dtd">
<svg version="1.1" id="图层_1" xmlns="http://www.w3.org/2000/svg" xmlns:xlink="http://www.w3.org/1999/xlink" x="0px" y="0px"
	 width="64px" height="64px" viewBox="0 0 64 64" enable-background="new 0 0 64 64" xml:space="preserve">
<g id="Blue">
	<polygon fill="none" stroke-width="2" stroke="#0000FF" points="13,50.061 32.5,16.285 52,50.061 	"/>
	<path fill="none" stroke-width="2" stroke="#0000FF" d="M44.195,12.191c-2.861,4.339-8.694,5.537-13.033,2.677
		c-4.338-2.861-5.538-8.695-2.677-13.034"/>
	<line fill="none" stroke-width="2" stroke="#0000FF" x1="31.5" y1="17.917" x2="36.501" y2="7.008"/>
	<circle fill="none" stroke-width="2" stroke="#0000FF" cx="20.5" cy="56.5" r="6.5"/>
	<circle fill="none" stroke-width="2" stroke="#0000FF" cx="43.5" cy="56.5" r="6.5"/>
</g>
<g id="Red">
	<polygon fill="none" stroke-width="2" stroke="#FF0000" points="13,50.061 32.5,16.285 52,50.061 	"/>
	<path fill="none" stroke-width="2" stroke="#FF0000" d="M44.195,12.191c-2.861,4.339-8.694,5.537-13.033,2.677
		c-4.338-2.861-5.538-8.695-2.677-13.034"/>
	<line fill="none" stroke-width="2" stroke="#FF0000" x1="31.5" y1="17.917" x2="36.501" y2="7.008"/>
	<circle fill="none" stroke-width="2" stroke="#FF0000" cx="20.5" cy="56.5" r="6.5"/>
	<circle fill="none" stroke-width="2" stroke="#FF0000" cx="43.5" cy="56.5" r="6.5"/>
</g>
<g id="White">
	<polygon fill="none" stroke-width="2" stroke="#00FF00" points="13,50.061 32.5,16.285 52,50.061 	"/>
	<path fill="none" stroke-width="2" stroke="#00FF00" d="M44.195,12.191c-2.861,4.339-8.694,5.537-13.033,2.677
		c-4.338-2.861-5.538-8.695-2.677-13.034"/>
	<line fill="none" stroke-width="2" stroke="#00FF00" x1="31.5" y1="17.917" x2="36.501" y2="7.008"/>
	<circle fill="none" stroke-width="2" stroke="#00FF00" cx="20.5" cy="56.5" r="6.5"/>
	<circle fill="none" stroke-width="2" stroke="#00FF00" cx="43.5" cy="56.5" r="6.5"/>
</g>
</svg>
