<?xml version="1.0" encoding="utf-8"?>
<!-- Generator: Adobe Illustrator 14.0.0, SVG Export Plug-In . SVG Version: 6.00 Build 43363)  -->
<!DOCTYPE svg PUBLIC "-//W3C//DTD SVG 1.1//EN" "http://www.w3.org/Graphics/SVG/1.1/DTD/svg11.dtd">
<svg version="1.1" id="图层_1" xmlns="http://www.w3.org/2000/svg" xmlns:xlink="http://www.w3.org/1999/xlink" x="0px" y="0px"
	 width="64px" height="64px" viewBox="0 0 64 64" enable-background="new 0 0 64 64" xml:space="preserve">
<g id="Blue">
	<path fill="none" stroke-width="2" stroke="#0000FF" d="M54.027,51.882C49.029,57.766,41.576,61.5,33.25,61.5c-8.39,0-15.895-3.792-20.894-9.756"/>
	<path fill="none" stroke-width="2" stroke="#221E1F" d="M53.5,51.563c-4.999,5.885-11.674,9.125-20,9.125c-8.39,0-15.626-3.285-20.625-9.25"/>
	<path fill="none" stroke-width="2" stroke="#0000FF" d="M40.584,7.999C52.07,11.201,60.5,21.742,60.5,34.25c0,2.984-0.479,5.855-1.366,8.544"/>
	<path fill="none" stroke-width="2" stroke="#0000FF" d="M7.35,42.744C6.474,40.07,6,37.217,6,34.25c0-12.529,8.456-23.083,19.972-26.267"/>
	<line fill="none" stroke-width="2" stroke="#0000FF" x1="47.229" y1="32.146" x2="29.92" y2="44.35"/>
	<line fill="none" stroke-width="2" stroke="#0000FF" x1="30.355" y1="44.182" x2="38.041" y2="22.267"/>
	<line fill="none" stroke-width="2" stroke="#0000FF" x1="38.341" y1="22.088" x2="19.151" y2="35.545"/>
	<circle fill="#221E1F" cx="34" cy="8" r="2.666"/>
	<circle fill="#221E1F" cx="9.166" cy="47.167" r="2.666"/>
	<circle fill="#221E1F" cx="57" cy="48" r="2.667"/>
</g>
<g id="Red">
	<path fill="none" stroke-width="2" stroke="#FF0000" d="M54.027,51.882C49.029,57.766,41.576,61.5,33.25,61.5c-8.39,0-15.895-3.792-20.894-9.756"/>
	<path fill="none" stroke-width="2" stroke="#221E1F" d="M53.5,51.563c-4.999,5.885-11.674,9.125-20,9.125c-8.39,0-15.626-3.285-20.625-9.25"/>
	<path fill="none" stroke-width="2" stroke="#FF0000" d="M40.584,7.999C52.07,11.201,60.5,21.742,60.5,34.25c0,2.984-0.479,5.855-1.366,8.544"/>
	<path fill="none" stroke-width="2" stroke="#FF0000" d="M7.35,42.744C6.474,40.07,6,37.217,6,34.25c0-12.529,8.456-23.083,19.972-26.267"/>
	<line fill="none" stroke-width="2" stroke="#FF0000" x1="47.229" y1="32.146" x2="29.92" y2="44.35"/>
	<line fill="none" stroke-width="2" stroke="#FF0000" x1="30.355" y1="44.182" x2="38.041" y2="22.267"/>
	<line fill="none" stroke-width="2" stroke="#FF0000" x1="38.341" y1="22.088" x2="19.151" y2="35.545"/>
	<circle fill="#221E1F" cx="34" cy="8" r="2.666"/>
	<circle fill="#221E1F" cx="9.166" cy="47.167" r="2.666"/>
	<circle fill="#221E1F" cx="57" cy="48" r="2.667"/>
</g>
<g id="White">
	<path fill="none" stroke-width="2" stroke="#00FF00" d="M54.027,51.882C49.029,57.766,41.576,61.5,33.25,61.5c-8.39,0-15.895-3.792-20.894-9.756"/>
	<path fill="none" stroke-width="2" stroke="#221E1F" d="M53.5,51.563c-4.999,5.885-11.674,9.125-20,9.125c-8.39,0-15.626-3.285-20.625-9.25"/>
	<path fill="none" stroke-width="2" stroke="#00FF00" d="M40.584,7.999C52.07,11.201,60.5,21.742,60.5,34.25c0,2.984-0.479,5.855-1.366,8.544"/>
	<path fill="none" stroke-width="2" stroke="#00FF00" d="M7.35,42.744C6.474,40.07,6,37.217,6,34.25c0-12.529,8.456-23.083,19.972-26.267"/>
	<line fill="none" stroke-width="2" stroke="#00FF00" x1="47.229" y1="32.146" x2="29.92" y2="44.35"/>
	<line fill="none" stroke-width="2" stroke="#00FF00" x1="30.355" y1="44.182" x2="38.041" y2="22.267"/>
	<line fill="none" stroke-width="2" stroke="#00FF00" x1="38.341" y1="22.088" x2="19.151" y2="35.545"/>
	<circle fill="#221E1F" cx="34" cy="8" r="2.666"/>
	<circle fill="#221E1F" cx="9.166" cy="47.167" r="2.666"/>
	<circle fill="#221E1F" cx="57" cy="48" r="2.667"/>
</g>
</svg>
