<?xml version="1.0" encoding="utf-8"?>
<!-- Generator: Adobe Illustrator 14.0.0, SVG Export Plug-In . SVG Version: 6.00 Build 43363)  -->
<!DOCTYPE svg PUBLIC "-//W3C//DTD SVG 1.1//EN" "http://www.w3.org/Graphics/SVG/1.1/DTD/svg11.dtd">
<svg version="1.1" id="图层_1" xmlns="http://www.w3.org/2000/svg" xmlns:xlink="http://www.w3.org/1999/xlink" x="0px" y="0px"
	 width="64px" height="64px" viewBox="0 0 64 64" enable-background="new 0 0 64 64" xml:space="preserve">
<g id="Blue">
	<polygon fill="none" stroke-width="2" stroke="#0000FF" points="25.334,24.487 2.5,37.625 2.5,51.01 59.75,51.01 59.75,24.487 	"/>
	<line fill="none" stroke-width="2" stroke="#0000FF" x1="24.825" y1="40.934" x2="38.532" y2="32.233"/>
	<line fill="none" stroke-width="2" stroke="#0000FF" x1="38.292" y1="32.423" x2="32.397" y2="44.759"/>
	<line fill="none" stroke-width="2" stroke="#0000FF" x1="31.812" y1="44.979" x2="48.207" y2="38.553"/>
</g>
<g id="Red">
	<polygon fill="none" stroke-width="2" stroke="#FF0000" points="25.334,24.487 2.5,37.625 2.5,51.01 59.75,51.01 59.75,24.487 	"/>
	<line fill="none" stroke-width="2" stroke="#FF0000" x1="24.825" y1="40.934" x2="38.532" y2="32.233"/>
	<line fill="none" stroke-width="2" stroke="#FF0000" x1="38.292" y1="32.423" x2="32.397" y2="44.759"/>
	<line fill="none" stroke-width="2" stroke="#FF0000" x1="31.812" y1="44.979" x2="48.207" y2="38.553"/>
</g>
<g id="White">
	<polygon fill="none" stroke-width="2" stroke="#00FF00" points="25.334,24.487 2.5,37.625 2.5,51.01 59.75,51.01 59.75,24.487 	"/>
	<line fill="none" stroke-width="2" stroke="#00FF00" x1="24.825" y1="40.934" x2="38.532" y2="32.233"/>
	<line fill="none" stroke-width="2" stroke="#00FF00" x1="38.292" y1="32.423" x2="32.397" y2="44.759"/>
	<line fill="none" stroke-width="2" stroke="#00FF00" x1="31.812" y1="44.979" x2="48.207" y2="38.553"/>
</g>
</svg>
