<?xml version="1.0" encoding="utf-8"?>
<!-- Generator: Adobe Illustrator 14.0.0, SVG Export Plug-In . SVG Version: 6.00 Build 43363)  -->
<!DOCTYPE svg PUBLIC "-//W3C//DTD SVG 1.1//EN" "http://www.w3.org/Graphics/SVG/1.1/DTD/svg11.dtd">
<svg version="1.1" id="图层_1" xmlns="http://www.w3.org/2000/svg" xmlns:xlink="http://www.w3.org/1999/xlink" x="0px" y="0px"
	 width="64px" height="64px" viewBox="0 0 64 64" enable-background="new 0 0 64 64" xml:space="preserve">
<g id="Blue">
	<rect x="2.125" y="2.5" fill="none" stroke="#0000FF" stroke-width="2" width="60.375" height="58.375"/>
	<path fill="none" stroke="#0000FF" stroke-width="2" d="M10.875,17.125c0,0,8.75-6,21.438-6c0,0,11.938,0.125,21.813,6"/>
	<line fill="none" stroke="#0000FF" stroke-width="2" x1="14.75" y1="36.875" x2="32" y2="23.375"/>
	<line fill="none" stroke="#0000FF" stroke-width="2" x1="32" y1="23.375" x2="32" y2="40.375"/>
	<line fill="none" stroke="#0000FF" stroke-width="2" x1="32" y1="40.375" x2="48.125" y2="27.25"/>
</g>
<g id="Red">
	<rect x="2.125" y="2.5" fill="none" stroke="#FF0000" stroke-width="2" width="60.375" height="58.375"/>
	<path fill="none" stroke="#FF0000" stroke-width="2" d="M10.875,17.125c0,0,8.75-6,21.438-6c0,0,11.938,0.125,21.813,6"/>
	<line fill="none" stroke="#FF0000" stroke-width="2" x1="14.75" y1="36.875" x2="32" y2="23.375"/>
	<line fill="none" stroke="#FF0000" stroke-width="2" x1="32" y1="23.375" x2="32" y2="40.375"/>
	<line fill="none" stroke="#FF0000" stroke-width="2" x1="32" y1="40.375" x2="48.125" y2="27.25"/>
</g>
<g id="White">
	<rect x="2.125" y="2.5" fill="none" stroke="#00FF00" stroke-width="2" width="60.375" height="58.375"/>
	<path fill="none" stroke="#00FF00" stroke-width="2" d="M10.875,17.125c0,0,8.75-6,21.438-6c0,0,11.938,0.125,21.813,6"/>
	<line fill="none" stroke="#00FF00" stroke-width="2" x1="14.75" y1="36.875" x2="32" y2="23.375"/>
	<line fill="none" stroke="#00FF00" stroke-width="2" x1="32" y1="23.375" x2="32" y2="40.375"/>
	<line fill="none" stroke="#00FF00" stroke-width="2" x1="32" y1="40.375" x2="48.125" y2="27.25"/>
</g>
</svg>
