<?xml version="1.0" encoding="utf-8"?>
<!-- Generator: Adobe Illustrator 14.0.0, SVG Export Plug-In . SVG Version: 6.00 Build 43363)  -->
<!DOCTYPE svg PUBLIC "-//W3C//DTD SVG 1.1//EN" "http://www.w3.org/Graphics/SVG/1.1/DTD/svg11.dtd">
<svg version="1.1" id="图层_1" xmlns="http://www.w3.org/2000/svg" xmlns:xlink="http://www.w3.org/1999/xlink" x="0px" y="0px"
	 width="64px" height="64px" viewBox="0 0 64 64" enable-background="new 0 0 64 64" xml:space="preserve">
<g id="Blue">
	<line fill="none" stroke="#0000FF" stroke-width="2" x1="18.686" y1="6.458" x2="18.686" y2="42.167"/>
	<circle fill="none" stroke="#0000FF" stroke-width="2" cx="34.75" cy="55.75" r="7.25"/>
	<line fill="none" stroke="#0000FF" stroke-width="2" x1="18.686" y1="42.167" x2="26.792" y2="32"/>
	<line fill="none" stroke="#0000FF" stroke-width="2" x1="26.792" y1="32" x2="35.167" y2="45.708"/>
	<line fill="none" stroke="#0000FF" stroke-width="2" x1="35.167" y1="45.708" x2="46.75" y2="30.417"/>
	<line fill="none" stroke="#000100" x1="19.167" y1="6.458" x2="19.167" y2="42.167"/>
	<line fill="none" stroke="#000100" x1="19.167" y1="42.167" x2="26.792" y2="32.542"/>
	<line fill="none" stroke="#000100" x1="26.792" y1="32.542" x2="35.167" y2="46.25"/>
	<line fill="none" stroke="#000100" x1="35.167" y1="46.25" x2="46.75" y2="30.958"/>
	<polygon fill="#000100" points="20.978,10.896 18.686,2.021 16.394,10.896 18.686,8.229 	"/>
	<polygon fill="#0000FF" points="19.832,8.677 18.686,4.24 17.539,8.677 18.686,7.344 	"/>
</g>
<g id="Red">
	<line fill="none" stroke="#FF0000" stroke-width="2" x1="18.686" y1="6.458" x2="18.686" y2="42.167"/>
	<circle fill="none" stroke="#FF0000" stroke-width="2" cx="34.75" cy="55.75" r="7.25"/>
	<line fill="none" stroke="#FF0000" stroke-width="2" x1="18.686" y1="42.167" x2="26.792" y2="32"/>
	<line fill="none" stroke="#FF0000" stroke-width="2" x1="26.792" y1="32" x2="35.167" y2="45.708"/>
	<line fill="none" stroke="#FF0000" stroke-width="2" x1="35.167" y1="45.708" x2="46.75" y2="30.417"/>
	<line fill="none" stroke="#000100" x1="19.167" y1="6.458" x2="19.167" y2="42.167"/>
	<line fill="none" stroke="#000100" x1="19.167" y1="42.167" x2="26.792" y2="32.542"/>
	<line fill="none" stroke="#000100" x1="26.792" y1="32.542" x2="35.167" y2="46.25"/>
	<line fill="none" stroke="#000100" x1="35.167" y1="46.25" x2="46.75" y2="30.958"/>
	<polygon fill="#000100" points="20.978,10.896 18.686,2.021 16.394,10.896 18.686,8.229 	"/>
	<polygon fill="#FF0000" points="19.832,8.677 18.686,4.24 17.539,8.677 18.686,7.344 	"/>
</g>
<g id="White">
	<line fill="none" stroke="#00FF00" stroke-width="2" x1="18.686" y1="6.458" x2="18.686" y2="42.167"/>
	<circle fill="none" stroke="#00FF00" stroke-width="2" cx="34.75" cy="55.75" r="7.25"/>
	<line fill="none" stroke="#00FF00" stroke-width="2" x1="18.686" y1="42.167" x2="26.792" y2="32"/>
	<line fill="none" stroke="#00FF00" stroke-width="2" x1="26.792" y1="32" x2="35.167" y2="45.708"/>
	<line fill="none" stroke="#00FF00" stroke-width="2" x1="35.167" y1="45.708" x2="46.75" y2="30.417"/>
	<line fill="none" stroke="#000100" x1="19.167" y1="6.458" x2="19.167" y2="42.167"/>
	<line fill="none" stroke="#000100" x1="19.167" y1="42.167" x2="26.792" y2="32.542"/>
	<line fill="none" stroke="#000100" x1="26.792" y1="32.542" x2="35.167" y2="46.25"/>
	<line fill="none" stroke="#000100" x1="35.167" y1="46.25" x2="46.75" y2="30.958"/>
	<polygon fill="#000100" points="20.978,10.896 18.686,2.021 16.394,10.896 18.686,8.229 	"/>
	<polygon fill="#00FF00" points="19.832,8.677 18.686,4.24 17.539,8.677 18.686,7.344 	"/>
</g>
</svg>
