<?xml version="1.0" encoding="utf-8"?>
<!-- Generator: Adobe Illustrator 14.0.0, SVG Export Plug-In . SVG Version: 6.00 Build 43363)  -->
<!DOCTYPE svg PUBLIC "-//W3C//DTD SVG 1.1//EN" "http://www.w3.org/Graphics/SVG/1.1/DTD/svg11.dtd">
<svg version="1.1" id="图层_1" xmlns="http://www.w3.org/2000/svg" xmlns:xlink="http://www.w3.org/1999/xlink" x="0px" y="0px"
	 width="64px" height="64px" viewBox="0 0 64 64" enable-background="new 0 0 64 64" xml:space="preserve">
<g id="Blue">
	<polygon fill="none" stroke-width="2" stroke="#0000FF" points="10.17,58.332 33.168,18.498 56.167,58.332 	"/>
	<line fill="none" stroke-width="2" stroke="#0000FF" x1="33.361" y1="18.097" x2="41.734" y2="5.066"/>
	<line fill="none" stroke-width="2" stroke="#0000FF" x1="41.604" y1="5.319" x2="41.471" y2="16.53"/>
	<line fill="none" stroke-width="2" stroke="#0000FF" x1="41.053" y1="16.989" x2="52.676" y2="4"/>
	<line fill="none" stroke-width="2" stroke="#0000FF" x1="15" y1="50.167" x2="51.167" y2="50.167"/>
</g>
<g id="Red">
	<polygon fill="none" stroke-width="2" stroke="#FF0000" points="10.17,58.332 33.168,18.498 56.167,58.332 	"/>
	<line fill="none" stroke-width="2" stroke="#FF0000" x1="33.361" y1="18.097" x2="41.734" y2="5.066"/>
	<line fill="none" stroke-width="2" stroke="#FF0000" x1="41.604" y1="5.319" x2="41.471" y2="16.53"/>
	<line fill="none" stroke-width="2" stroke="#FF0000" x1="41.053" y1="16.989" x2="52.676" y2="4"/>
	<line fill="none" stroke-width="2" stroke="#FF0000" x1="15" y1="50.167" x2="51.167" y2="50.167"/>
</g>
<g id="White">
	<polygon fill="none" stroke-width="2" stroke="#00FF00" points="10.17,58.332 33.168,18.498 56.167,58.332 	"/>
	<line fill="none" stroke-width="2" stroke="#00FF00" x1="33.361" y1="18.097" x2="41.734" y2="5.066"/>
	<line fill="none" stroke-width="2" stroke="#00FF00" x1="41.604" y1="5.319" x2="41.471" y2="16.53"/>
	<line fill="none" stroke-width="2" stroke="#00FF00" x1="41.053" y1="16.989" x2="52.676" y2="4"/>
	<line fill="none" stroke-width="2" stroke="#00FF00" x1="15" y1="50.167" x2="51.167" y2="50.167"/>
</g>
</svg>
