<?xml version="1.0" encoding="utf-8"?>
<!-- Generator: Adobe Illustrator 14.0.0, SVG Export Plug-In . SVG Version: 6.00 Build 43363)  -->
<!DOCTYPE svg PUBLIC "-//W3C//DTD SVG 1.1//EN" "http://www.w3.org/Graphics/SVG/1.1/DTD/svg11.dtd">
<svg version="1.1" id="图层_1" xmlns="http://www.w3.org/2000/svg" xmlns:xlink="http://www.w3.org/1999/xlink" x="0px" y="0px"
	 width="64px" height="64px" viewBox="0 0 64 64" enable-background="new 0 0 64 64" xml:space="preserve">
<g id="Blue">
	<rect x="6" y="6.5" fill="none" stroke-width="2" stroke="#0000FF" width="53" height="53"/>
	<rect x="19.819" y="27.188" fill="none" stroke-width="2" stroke="#0000FF" width="24.937" height="24.937"/>
	<line fill="none" stroke-width="2" stroke="#0000FF" x1="19.851" y1="27.092" x2="29.436" y2="13.486"/>
	<line fill="none" stroke-width="2" stroke="#0000FF" x1="29.262" y1="13.745" x2="28.292" y2="21.367"/>
	<line fill="none" stroke-width="2" stroke="#0000FF" x1="28.485" y1="21.076" x2="36.055" y2="10.5"/>
</g>
<g id="Red">
	<rect x="6" y="6.5" fill="none" stroke-width="2" stroke="#FF0000" width="53" height="53"/>
	<g id="图层_4_2_">
		<rect x="19.819" y="27.188" fill="none" stroke-width="2" stroke="#FF0000" width="24.937" height="24.937"/>
		<line fill="none" stroke-width="2" stroke="#FF0000" x1="19.851" y1="27.092" x2="29.436" y2="13.486"/>
		<line fill="none" stroke-width="2" stroke="#FF0000" x1="29.262" y1="13.745" x2="28.292" y2="21.367"/>
		<line fill="none" stroke-width="2" stroke="#FF0000" x1="28.485" y1="21.076" x2="36.055" y2="10.5"/>
	</g>
</g>
<g id="White">
	<rect x="6" y="6.5" fill="none" stroke-width="2" stroke="#00FF00" width="53" height="53"/>
	<g id="图层_4_3_">
		<rect x="19.819" y="27.188" fill="none" stroke-width="2" stroke="#00FF00" width="24.937" height="24.937"/>
		<line fill="none" stroke-width="2" stroke="#00FF00" x1="19.851" y1="27.092" x2="29.436" y2="13.486"/>
		<line fill="none" stroke-width="2" stroke="#00FF00" x1="29.262" y1="13.745" x2="28.292" y2="21.367"/>
		<line fill="none" stroke-width="2" stroke="#00FF00" x1="28.485" y1="21.076" x2="36.055" y2="10.5"/>
	</g>
</g>
</svg>
