<?xml version="1.0" encoding="utf-8"?>
<!-- Generator: Adobe Illustrator 14.0.0, SVG Export Plug-In . SVG Version: 6.00 Build 43363)  -->
<!DOCTYPE svg PUBLIC "-//W3C//DTD SVG 1.1//EN" "http://www.w3.org/Graphics/SVG/1.1/DTD/svg11.dtd">
<svg version="1.1" id="图层_1" xmlns="http://www.w3.org/2000/svg" xmlns:xlink="http://www.w3.org/1999/xlink" x="0px" y="0px"
	 width="64px" height="64px" viewBox="0 0 64 64" enable-background="new 0 0 64 64" xml:space="preserve">
<g id="Blue">
	<polygon fill="none" stroke-width="2" stroke="#0000FF" points="13.353,53.25 31.318,22.132 49.285,53.25 	"/>
	<line fill="none" stroke-width="2" stroke="#0000FF" x1="31.469" y1="21.819" x2="38.012" y2="11.64"/>
	<line fill="none" stroke-width="2" stroke="#0000FF" x1="37.908" y1="11.837" x2="37.805" y2="20.596"/>
	<line fill="none" stroke-width="2" stroke="#0000FF" x1="37.479" y1="20.954" x2="46.559" y2="10.807"/>
	<rect x="6" y="6.5" fill="none" stroke-width="2" stroke="#0000FF" width="53" height="53"/>
</g>
<g id="Red">
	<polygon fill="none" stroke-width="2" stroke="#FF0000" points="13.353,53.25 31.318,22.132 49.285,53.25 	"/>
	<line fill="none" stroke-width="2" stroke="#FF0000" x1="31.469" y1="21.819" x2="38.012" y2="11.64"/>
	<line fill="none" stroke-width="2" stroke="#FF0000" x1="37.908" y1="11.837" x2="37.805" y2="20.596"/>
	<line fill="none" stroke-width="2" stroke="#FF0000" x1="37.479" y1="20.954" x2="46.559" y2="10.807"/>
	<rect x="6" y="6.5" fill="none" stroke-width="2" stroke="#FF0000" width="53" height="53"/>
</g>
<g id="White">
	<polygon fill="none" stroke-width="2" stroke="#00FF00" points="13.353,53.25 31.318,22.132 49.285,53.25 	"/>
	<line fill="none" stroke-width="2" stroke="#00FF00" x1="31.469" y1="21.819" x2="38.012" y2="11.64"/>
	<line fill="none" stroke-width="2" stroke="#00FF00" x1="37.908" y1="11.837" x2="37.805" y2="20.596"/>
	<line fill="none" stroke-width="2" stroke="#00FF00" x1="37.479" y1="20.954" x2="46.559" y2="10.807"/>
	<rect x="6" y="6.5" fill="none" stroke-width="2" stroke="#00FF00" width="53" height="53"/>
</g>
</svg>
