<?xml version="1.0" encoding="utf-8"?>
<!-- Generator: Adobe Illustrator 14.0.0, SVG Export Plug-In . SVG Version: 6.00 Build 43363)  -->
<!DOCTYPE svg PUBLIC "-//W3C//DTD SVG 1.1//EN" "http://www.w3.org/Graphics/SVG/1.1/DTD/svg11.dtd">
<svg version="1.1" id="图层_1" xmlns="http://www.w3.org/2000/svg" xmlns:xlink="http://www.w3.org/1999/xlink" x="0px" y="0px"
	 width="64px" height="64px" viewBox="0 0 64 64" enable-background="new 0 0 64 64" xml:space="preserve">
<g id="Blue">
	<polygon fill="#0000FF" points="7.536,27.684 8.333,30.292 0.971,24.854 10.085,26.139 	"/>
	<path fill="none" stroke="#0000FF" stroke-width="2" d="M7.414,27.443c0,0,16.408,4.958,34.754,6.242"/>
	<polygon fill="#0000FF" points="10.761,37.787 0.971,42.875 8.179,34.521 7.414,37.779 	"/>
	<path fill="none" stroke="#0000FF" stroke-width="2" d="M7.414,37.779c0,0,5.586-6.383,17.377-6.383"/>
	<path fill="none" stroke="#0000FF" stroke-width="2" d="M63.325,3.711c0,0-21.157,2.125-21.157,27.128
		c0,0-0.201,26.419,21.157,28.241"/>
	<path fill="none" stroke="#FFFF00" d="M8.775,26.766c0,0,15.587,4.71,33.016,5.93"/>
	<path fill="none" stroke="#FFFF00" d="M63.201,5.095c0,0-20.1,2.019-20.1,25.772c0,0-0.191,25.098,20.1,26.83"/>
</g>
<g id="Red">
	<polygon fill="#FF0000" points="7.536,27.684 8.333,30.292 0.971,24.854 10.085,26.139 	"/>
	<path fill="none" stroke="#FF0000" stroke-width="2" d="M7.414,27.443c0,0,16.408,4.958,34.754,6.242"/>
	<polygon fill="#FF0000" points="10.761,37.787 0.971,42.875 8.179,34.521 7.414,37.779 	"/>
	<path fill="none" stroke="#FF0000" stroke-width="2" d="M7.414,37.779c0,0,5.586-6.383,17.377-6.383"/>
	<path fill="none" stroke="#FF0000" stroke-width="2" d="M63.325,3.711c0,0-21.157,2.125-21.157,27.128
		c0,0-0.201,26.419,21.157,28.241"/>
	<path fill="none" stroke="#FFFF00" d="M8.775,26.766c0,0,15.587,4.71,33.016,5.93"/>
	<path fill="none" stroke="#FFFF00" d="M63.201,5.095c0,0-20.1,2.019-20.1,25.772c0,0-0.191,25.098,20.1,26.83"/>
</g>
<g id="White">
	<polygon fill="#00FF00" points="7.536,27.684 8.333,30.292 0.971,24.854 10.085,26.139 	"/>
	<path fill="none" stroke="#00FF00" stroke-width="2" d="M7.414,27.443c0,0,16.408,4.958,34.754,6.242"/>
	<polygon fill="#00FF00" points="10.761,37.787 0.971,42.875 8.179,34.521 7.414,37.779 	"/>
	<path fill="none" stroke="#00FF00" stroke-width="2" d="M7.414,37.779c0,0,5.586-6.383,17.377-6.383"/>
	<path fill="none" stroke="#00FF00" stroke-width="2" d="M63.325,3.711c0,0-21.157,2.125-21.157,27.128
		c0,0-0.201,26.419,21.157,28.241"/>
	<path fill="none" stroke="#FFFF00" d="M8.775,26.766c0,0,15.587,4.71,33.016,5.93"/>
	<path fill="none" stroke="#FFFF00" d="M63.201,5.095c0,0-20.1,2.019-20.1,25.772c0,0-0.191,25.098,20.1,26.83"/>
</g>
</svg>
