<?xml version="1.0" encoding="utf-8"?>
<!-- Generator: Adobe Illustrator 14.0.0, SVG Export Plug-In . SVG Version: 6.00 Build 43363)  -->
<!DOCTYPE svg PUBLIC "-//W3C//DTD SVG 1.1//EN" "http://www.w3.org/Graphics/SVG/1.1/DTD/svg11.dtd">
<svg version="1.1" id="图层_1" xmlns="http://www.w3.org/2000/svg" xmlns:xlink="http://www.w3.org/1999/xlink" x="0px" y="0px"
	 width="64px" height="64px" viewBox="0 0 64 64" enable-background="new 0 0 64 64" xml:space="preserve">
<g id="Blue">
	<line fill="none" stroke="#0000FF" stroke-width="2" x1="58" y1="16.833" x2="3.833" y2="34.5"/>
	<line fill="none" stroke="#0000FF" stroke-width="2" x1="3.833" y1="34.5" x2="58" y2="49.5"/>
	<path fill="none" stroke="#0000FF" stroke-width="2" d="M58,16.833c0,0,4.166,5.5,4.25,16.75c0,0,0.916,11-4.25,16.167"/>
</g>
<g id="Red">
	<line fill="none" stroke="#FF0000" stroke-width="2" x1="58" y1="16.833" x2="3.833" y2="34.5"/>
	<line fill="none" stroke="#FF0000" stroke-width="2" x1="3.833" y1="34.5" x2="58" y2="49.5"/>
	<path fill="none" stroke="#FF0000" stroke-width="2" d="M58,16.833c0,0,4.166,5.5,4.25,16.75c0,0,0.916,11-4.25,16.167"/>
</g>
<g id="White">
	<line fill="none" stroke="#00FF00" stroke-width="2" x1="58" y1="16.833" x2="3.833" y2="34.5"/>
	<line fill="none" stroke="#00FF00" stroke-width="2" x1="3.833" y1="34.5" x2="58" y2="49.5"/>
	<path fill="none" stroke="#00FF00" stroke-width="2" d="M58,16.833c0,0,4.166,5.5,4.25,16.75c0,0,0.916,11-4.25,16.167"/>
</g>
</svg>
