<?xml version="1.0" encoding="utf-8"?>
<!-- Generator: Adobe Illustrator 14.0.0, SVG Export Plug-In . SVG Version: 6.00 Build 43363)  -->
<!DOCTYPE svg PUBLIC "-//W3C//DTD SVG 1.1//EN" "http://www.w3.org/Graphics/SVG/1.1/DTD/svg11.dtd">
<svg version="1.1" id="图层_1" xmlns="http://www.w3.org/2000/svg" xmlns:xlink="http://www.w3.org/1999/xlink" x="0px" y="0px"
	 width="64px" height="64px" viewBox="0 0 64 64" enable-background="new 0 0 64 64" xml:space="preserve">
<g id="Blue">
	<path fill="none" stroke="#0000FF" stroke-width="2" d="M23.625,1.375c0,0-3.75,5.25-3.625,11.625c0,0,0.122,8.125,1.811,12.625
		c0,0,0.939,4.5,0.814,6.375c0,0,0.125,4.625-1.5,10.5c0,0-1.256,4.875-1.128,8.75c0,0,1.503,6.25,3.628,10.625"/>
	<path fill="none" stroke="#0000FF" stroke-width="2" d="M44.414,62.25c2.125-4.375,3.628-10.625,3.628-10.625
		c0.128-3.875-1.128-8.75-1.128-8.75c-1.625-5.875-1.5-10.5-1.5-10.5C45.289,30.5,46.229,26,46.229,26
		c1.688-4.5,1.811-12.625,1.811-12.625C48.164,7,44.414,1.75,44.414,1.75"/>
	<path fill="none" stroke="#FFFF00" d="M22.727,1.563c0,0-3.75,5.25-3.625,11.625c0,0,0.122,8.125,1.811,12.625
		c0,0,0.939,4.5,0.814,6.375c0,0,0.125,4.625-1.5,10.5c0,0-1.256,4.875-1.128,8.75c0,0,1.503,6.25,3.628,10.625"/>
	<path fill="none" stroke="#FFFF00" d="M43.516,62.438c2.125-4.375,3.628-10.625,3.628-10.625c0.128-3.875-1.128-8.75-1.128-8.75
		c-1.625-5.875-1.5-10.5-1.5-10.5c-0.125-1.875,0.814-6.375,0.814-6.375c1.688-4.5,1.811-12.625,1.811-12.625
		c0.125-6.375-3.625-11.625-3.625-11.625"/>
	<line fill="none" stroke="#0000FF" stroke-width="2" x1="45.414" y1="32.375" x2="55.75" y2="32.375"/>
	<line fill="none" stroke="#0000FF" stroke-width="2" x1="22.625" y1="32" x2="12.375" y2="32"/>
	<line fill="none" stroke="#FFFF00" x1="22.625" y1="31.333" x2="12.375" y2="31.333"/>
</g>
<g id="Red">
	<path fill="none" stroke="#FF0000" stroke-width="2" d="M23.625,1.375c0,0-3.75,5.25-3.625,11.625c0,0,0.122,8.125,1.811,12.625
		c0,0,0.939,4.5,0.814,6.375c0,0,0.125,4.625-1.5,10.5c0,0-1.256,4.875-1.128,8.75c0,0,1.503,6.25,3.628,10.625"/>
	<path fill="none" stroke="#FF0000" stroke-width="2" d="M44.414,62.25c2.125-4.375,3.628-10.625,3.628-10.625
		c0.128-3.875-1.128-8.75-1.128-8.75c-1.625-5.875-1.5-10.5-1.5-10.5C45.289,30.5,46.229,26,46.229,26
		c1.688-4.5,1.811-12.625,1.811-12.625C48.164,7,44.414,1.75,44.414,1.75"/>
	<path fill="none" stroke="#FFFF00" d="M22.727,1.563c0,0-3.75,5.25-3.625,11.625c0,0,0.122,8.125,1.811,12.625
		c0,0,0.939,4.5,0.814,6.375c0,0,0.125,4.625-1.5,10.5c0,0-1.256,4.875-1.128,8.75c0,0,1.503,6.25,3.628,10.625"/>
	<path fill="none" stroke="#FFFF00" d="M43.516,62.438c2.125-4.375,3.628-10.625,3.628-10.625c0.128-3.875-1.128-8.75-1.128-8.75
		c-1.625-5.875-1.5-10.5-1.5-10.5c-0.125-1.875,0.814-6.375,0.814-6.375c1.688-4.5,1.811-12.625,1.811-12.625
		c0.125-6.375-3.625-11.625-3.625-11.625"/>
	<line fill="none" stroke="#FF0000" stroke-width="2" x1="45.414" y1="32.375" x2="55.75" y2="32.375"/>
	<line fill="none" stroke="#FF0000" stroke-width="2" x1="22.625" y1="32" x2="12.375" y2="32"/>
	<line fill="none" stroke="#FFFF00" x1="22.625" y1="31.333" x2="12.375" y2="31.333"/>
</g>
<g id="White">
	<path fill="none" stroke="#00FF00" stroke-width="2" d="M23.625,1.375c0,0-3.75,5.25-3.625,11.625c0,0,0.122,8.125,1.811,12.625
		c0,0,0.939,4.5,0.814,6.375c0,0,0.125,4.625-1.5,10.5c0,0-1.256,4.875-1.128,8.75c0,0,1.503,6.25,3.628,10.625"/>
	<path fill="none" stroke="#00FF00" stroke-width="2" d="M44.414,62.25c2.125-4.375,3.628-10.625,3.628-10.625
		c0.128-3.875-1.128-8.75-1.128-8.75c-1.625-5.875-1.5-10.5-1.5-10.5C45.289,30.5,46.229,26,46.229,26
		c1.688-4.5,1.811-12.625,1.811-12.625C48.164,7,44.414,1.75,44.414,1.75"/>
	<path fill="none" stroke="#FFFF00" d="M22.727,1.563c0,0-3.75,5.25-3.625,11.625c0,0,0.122,8.125,1.811,12.625
		c0,0,0.939,4.5,0.814,6.375c0,0,0.125,4.625-1.5,10.5c0,0-1.256,4.875-1.128,8.75c0,0,1.503,6.25,3.628,10.625"/>
	<path fill="none" stroke="#FFFF00" d="M43.516,62.438c2.125-4.375,3.628-10.625,3.628-10.625c0.128-3.875-1.128-8.75-1.128-8.75
		c-1.625-5.875-1.5-10.5-1.5-10.5c-0.125-1.875,0.814-6.375,0.814-6.375c1.688-4.5,1.811-12.625,1.811-12.625
		c0.125-6.375-3.625-11.625-3.625-11.625"/>
	<line fill="none" stroke="#00FF00" stroke-width="2" x1="45.414" y1="32.375" x2="55.75" y2="32.375"/>
	<line fill="none" stroke="#00FF00" stroke-width="2" x1="22.625" y1="32" x2="12.375" y2="32"/>
	<line fill="none" stroke="#FFFF00" x1="22.625" y1="31.333" x2="12.375" y2="31.333"/>
</g>
</svg>
