<?xml version="1.0" encoding="utf-8"?>
<!-- Generator: Adobe Illustrator 14.0.0, SVG Export Plug-In . SVG Version: 6.00 Build 43363)  -->
<!DOCTYPE svg PUBLIC "-//W3C//DTD SVG 1.1//EN" "http://www.w3.org/Graphics/SVG/1.1/DTD/svg11.dtd">
<svg version="1.1" id="图层_1" xmlns="http://www.w3.org/2000/svg" xmlns:xlink="http://www.w3.org/1999/xlink" x="0px" y="0px"
	 width="64px" height="64px" viewBox="0 0 64 64" enable-background="new 0 0 64 64" xml:space="preserve">
<g id="Blue">
	<polygon fill="#0000FF" points="15.406,5.313 16.958,8.917 8.875,2.844 19.125,4.313 	"/>
	<polygon fill="#0000FF" points="13.176,30.791 16.198,33.295 6.237,31.562 16.034,28.209 	"/>
	<polygon fill="#0000FF" points="10.631,55.86 14.441,56.806 4.715,59.568 12.085,52.295 	"/>
	<line fill="none" stroke="#0000FF" stroke-width="2" x1="15.406" y1="5.313" x2="50.667" y2="16.083"/>
	<line fill="none" stroke="#0000FF" stroke-width="2" x1="13.176" y1="30.791" x2="50.667" y2="30.791"/>
	<line fill="none" stroke="#0000FF" stroke-width="2" x1="50.667" y1="32" x2="46" y2="35"/>
	<line fill="none" stroke="#0000FF" stroke-width="2" x1="42.5" y1="37" x2="37.917" y2="40.083"/>
	<line fill="none" stroke="#0000FF" stroke-width="2" x1="33.917" y1="41.833" x2="28.917" y2="45"/>
	<line fill="none" stroke="#0000FF" stroke-width="2" x1="24.833" y1="47.417" x2="20.333" y2="50.084"/>
	<line fill="none" stroke="#0000FF" stroke-width="2" x1="10.677" y1="55.816" x2="15.583" y2="52.75"/>
	<circle fill="none" stroke="#0000FF" stroke-width="2" cx="54.667" cy="17.167" r="4"/>
	<circle fill="none" stroke="#0000FF" stroke-width="2" cx="54.448" cy="30.406" r="3.781"/>
	<circle fill="none" stroke="#FFFF00" cx="54.667" cy="17.167" r="3.429"/>
	<circle fill="none" stroke="#FFFF00" cx="54.448" cy="30.406" r="3.241"/>
</g>
<g id="Red">
	<polygon fill="#FF0000" points="15.406,5.313 16.958,8.917 8.875,2.844 19.125,4.313 	"/>
	<polygon fill="#FF0000" points="13.176,30.791 16.198,33.295 6.237,31.562 16.034,28.209 	"/>
	<polygon fill="#FF0000" points="10.631,55.86 14.441,56.806 4.715,59.568 12.085,52.295 	"/>
	<line fill="none" stroke="#FF0000" stroke-width="2" x1="15.406" y1="5.313" x2="50.667" y2="16.083"/>
	<line fill="none" stroke="#FF0000" stroke-width="2" x1="13.176" y1="30.791" x2="50.667" y2="30.791"/>
	<line fill="none" stroke="#FF0000" stroke-width="2" x1="50.667" y1="32" x2="46" y2="35"/>
	<line fill="none" stroke="#FF0000" stroke-width="2" x1="42.5" y1="37" x2="37.917" y2="40.083"/>
	<line fill="none" stroke="#FF0000" stroke-width="2" x1="33.917" y1="41.833" x2="28.917" y2="45"/>
	<line fill="none" stroke="#FF0000" stroke-width="2" x1="24.833" y1="47.417" x2="20.333" y2="50.084"/>
	<line fill="none" stroke="#FF0000" stroke-width="2" x1="10.677" y1="55.816" x2="15.583" y2="52.75"/>
	<circle fill="none" stroke="#FF0000" stroke-width="2" cx="54.667" cy="17.167" r="4"/>
	<circle fill="none" stroke="#FF0000" stroke-width="2" cx="54.448" cy="30.406" r="3.781"/>
	<circle fill="none" stroke="#FFFF00" cx="54.667" cy="17.167" r="3.429"/>
	<circle fill="none" stroke="#FFFF00" cx="54.448" cy="30.406" r="3.241"/>
</g>
<g id="White">
	<polygon fill="#00FF00" points="15.406,5.313 16.958,8.917 8.875,2.844 19.125,4.313 	"/>
	<polygon fill="#00FF00" points="13.176,30.791 16.198,33.295 6.237,31.562 16.034,28.209 	"/>
	<polygon fill="#00FF00" points="10.631,55.86 14.441,56.806 4.715,59.568 12.085,52.295 	"/>
	<line fill="none" stroke="#00FF00" stroke-width="2" x1="15.406" y1="5.313" x2="50.667" y2="16.083"/>
	<line fill="none" stroke="#00FF00" stroke-width="2" x1="13.176" y1="30.791" x2="50.667" y2="30.791"/>
	<line fill="none" stroke="#00FF00" stroke-width="2" x1="50.667" y1="32" x2="46" y2="35"/>
	<line fill="none" stroke="#00FF00" stroke-width="2" x1="42.5" y1="37" x2="37.917" y2="40.083"/>
	<line fill="none" stroke="#00FF00" stroke-width="2" x1="33.917" y1="41.833" x2="28.917" y2="45"/>
	<line fill="none" stroke="#00FF00" stroke-width="2" x1="24.833" y1="47.417" x2="20.333" y2="50.084"/>
	<line fill="none" stroke="#00FF00" stroke-width="2" x1="10.677" y1="55.816" x2="15.583" y2="52.75"/>
	<circle fill="none" stroke="#00FF00" stroke-width="2" cx="54.667" cy="17.167" r="4"/>
	<circle fill="none" stroke="#00FF00" stroke-width="2" cx="54.448" cy="30.406" r="3.781"/>
	<circle fill="none" stroke="#FFFF00" cx="54.667" cy="17.167" r="3.429"/>
	<circle fill="none" stroke="#FFFF00" cx="54.448" cy="30.406" r="3.241"/>
</g>
</svg>
