<?xml version="1.0" encoding="utf-8"?>
<!-- Generator: Adobe Illustrator 14.0.0, SVG Export Plug-In . SVG Version: 6.00 Build 43363)  -->
<!DOCTYPE svg PUBLIC "-//W3C//DTD SVG 1.1//EN" "http://www.w3.org/Graphics/SVG/1.1/DTD/svg11.dtd">
<svg version="1.1" id="图层_1" xmlns="http://www.w3.org/2000/svg" xmlns:xlink="http://www.w3.org/1999/xlink" x="0px" y="0px"
	 width="64px" height="64px" viewBox="0 0 64 64" enable-background="new 0 0 64 64" xml:space="preserve">
<g id="Blue">
	<path fill="none" stroke="#0000FF" stroke-width="2" d="M33.625,1.375c0,0-3.75,5.25-3.625,11.625c0,0,0.122,8.125,1.811,12.625
		c0,0,0.939,4.5,0.814,6.375c0,0,0.125,4.625-1.5,10.5c0,0-1.256,4.875-1.128,8.75c0,0,1.503,6.25,3.628,10.625"/>
	<line fill="none" stroke="#0000FF" x1="32.625" y1="31.792" x2="21.708" y2="31.792"/>
	<line fill="none" stroke="#FFFF00" x1="32.625" y1="31.083" x2="21.708" y2="31.083"/>
	<line fill="none" stroke="#0000FF" x1="26.333" y1="25.75" x2="26.333" y2="38.334"/>
	<line fill="none" stroke="#FFFF00" x1="27" y1="25.75" x2="27" y2="38.334"/>
</g>
<g id="Red">
	<path fill="none" stroke="#FF0000" stroke-width="2" d="M33.625,1.375c0,0-3.75,5.25-3.625,11.625c0,0,0.122,8.125,1.811,12.625
		c0,0,0.939,4.5,0.814,6.375c0,0,0.125,4.625-1.5,10.5c0,0-1.256,4.875-1.128,8.75c0,0,1.503,6.25,3.628,10.625"/>
	<line fill="none" stroke="#FF0000" x1="32.625" y1="31.792" x2="21.708" y2="31.792"/>
	<line fill="none" stroke="#FFFF00" x1="32.625" y1="31.083" x2="21.708" y2="31.083"/>
	<line fill="none" stroke="#FF0000" x1="26.333" y1="25.75" x2="26.333" y2="38.334"/>
	<line fill="none" stroke="#FFFF00" x1="27" y1="25.75" x2="27" y2="38.334"/>
</g>
<g id="White">
	<path fill="none" stroke="#00FF00" stroke-width="2" d="M33.625,1.375c0,0-3.75,5.25-3.625,11.625c0,0,0.122,8.125,1.811,12.625
		c0,0,0.939,4.5,0.814,6.375c0,0,0.125,4.625-1.5,10.5c0,0-1.256,4.875-1.128,8.75c0,0,1.503,6.25,3.628,10.625"/>
	<line fill="none" stroke="#00FF00" x1="32.625" y1="31.792" x2="21.708" y2="31.792"/>
	<line fill="none" stroke="#FFFF00" x1="32.625" y1="31.083" x2="21.708" y2="31.083"/>
	<line fill="none" stroke="#00FF00" x1="26.333" y1="25.75" x2="26.333" y2="38.334"/>
	<line fill="none" stroke="#FFFF00" x1="27" y1="25.75" x2="27" y2="38.334"/>
</g>
</svg>
