<?xml version="1.0" encoding="utf-8"?>
<!-- Generator: Adobe Illustrator 14.0.0, SVG Export Plug-In . SVG Version: 6.00 Build 43363)  -->
<!DOCTYPE svg PUBLIC "-//W3C//DTD SVG 1.1//EN" "http://www.w3.org/Graphics/SVG/1.1/DTD/svg11.dtd">
<svg version="1.1" id="图层_1" xmlns="http://www.w3.org/2000/svg" xmlns:xlink="http://www.w3.org/1999/xlink" x="0px" y="0px"
	 width="64px" height="64px" viewBox="0 0 64 64" enable-background="new 0 0 64 64" xml:space="preserve">
<g id="Blue">
	<path fill="none" stroke="#594400" stroke-width="2" d="M1.667,34c0,0,0.052-19.75,30.568-20.917c0,0,27.1-1.667,29.683,20.5
		c0,0,0.751,10.918-10.083,15.001c0,0-3.75,0.334-6.167,0c0,0-4.917-1.166-12-1.5c0,0-7,0.131-12.083,1.648c0,0-6.667,0.229-8,0
		C13.583,48.732,1.666,45.833,1.667,34z"/>
	<path fill="none" stroke="#FFFF00" d="M2.269,33.938c0,0,0.051-19.354,29.957-20.498c0,0,26.558-1.634,29.088,20.089
		c0,0,0.733,10.699-9.881,14.701c0,0-3.679,0.326-6.043,0c0,0-4.818-1.146-11.764-1.475c0,0-6.86,0.133-11.842,1.616
		c0,0-6.533,0.229-7.84,0C13.948,48.377,2.269,45.535,2.269,33.938z"/>
	<line fill="none" stroke="#0000FF" stroke-width="2" x1="18.125" y1="35" x2="13.688" y2="39.438"/>
	<line fill="none" stroke="#0000FF" stroke-width="2" x1="13.688" y1="39.438" x2="18" y2="43.75"/>
	<line fill="none" stroke="#0000FF" stroke-width="2" x1="22.438" y1="35.063" x2="18" y2="39.5"/>
	<line fill="none" stroke="#0000FF" stroke-width="2" x1="18" y1="39.5" x2="22.313" y2="43.813"/>
	<line fill="none" stroke="#0000FF" stroke-width="2" x1="41.25" y1="20.25" x2="36.813" y2="24.688"/>
	<line fill="none" stroke="#0000FF" stroke-width="2" x1="36.813" y1="24.688" x2="41.125" y2="29"/>
	<line fill="none" stroke="#0000FF" stroke-width="2" x1="45.563" y1="20.313" x2="41.125" y2="24.75"/>
	<line fill="none" stroke="#0000FF" stroke-width="2" x1="41.125" y1="24.75" x2="45.438" y2="29.063"/>
</g>
<g id="Red">
	<path fill="none" stroke="#594400" stroke-width="2" d="M1.667,34c0,0,0.052-19.75,30.568-20.917c0,0,27.1-1.667,29.683,20.5
		c0,0,0.751,10.918-10.083,15.001c0,0-3.75,0.334-6.167,0c0,0-4.917-1.166-12-1.5c0,0-7,0.131-12.083,1.648c0,0-6.667,0.229-8,0
		C13.583,48.732,1.666,45.833,1.667,34z"/>
	<path fill="none" stroke="#FFFF00" d="M2.269,33.938c0,0,0.051-19.354,29.957-20.498c0,0,26.558-1.634,29.088,20.089
		c0,0,0.733,10.699-9.881,14.701c0,0-3.679,0.326-6.043,0c0,0-4.818-1.146-11.764-1.475c0,0-6.86,0.133-11.842,1.616
		c0,0-6.533,0.229-7.84,0C13.948,48.377,2.269,45.535,2.269,33.938z"/>
	<line fill="none" stroke="#FF0000" stroke-width="2" x1="18.125" y1="35" x2="13.688" y2="39.438"/>
	<line fill="none" stroke="#FF0000" stroke-width="2" x1="13.688" y1="39.438" x2="18" y2="43.75"/>
	<line fill="none" stroke="#FF0000" stroke-width="2" x1="22.438" y1="35.063" x2="18" y2="39.5"/>
	<line fill="none" stroke="#FF0000" stroke-width="2" x1="18" y1="39.5" x2="22.313" y2="43.813"/>
	<line fill="none" stroke="#FF0000" stroke-width="2" x1="41.25" y1="20.25" x2="36.813" y2="24.688"/>
	<line fill="none" stroke="#FF0000" stroke-width="2" x1="36.813" y1="24.688" x2="41.125" y2="29"/>
	<line fill="none" stroke="#FF0000" stroke-width="2" x1="45.563" y1="20.313" x2="41.125" y2="24.75"/>
	<line fill="none" stroke="#FF0000" stroke-width="2" x1="41.125" y1="24.75" x2="45.438" y2="29.063"/>
</g>
<g id="White">
	<path fill="none" stroke="#594400" stroke-width="2" d="M1.667,34c0,0,0.052-19.75,30.568-20.917c0,0,27.1-1.667,29.683,20.5
		c0,0,0.751,10.918-10.083,15.001c0,0-3.75,0.334-6.167,0c0,0-4.917-1.166-12-1.5c0,0-7,0.131-12.083,1.648c0,0-6.667,0.229-8,0
		C13.583,48.732,1.666,45.833,1.667,34z"/>
	<path fill="none" stroke="#FFFF00" d="M2.269,33.938c0,0,0.051-19.354,29.957-20.498c0,0,26.558-1.634,29.088,20.089
		c0,0,0.733,10.699-9.881,14.701c0,0-3.679,0.326-6.043,0c0,0-4.818-1.146-11.764-1.475c0,0-6.86,0.133-11.842,1.616
		c0,0-6.533,0.229-7.84,0C13.948,48.377,2.269,45.535,2.269,33.938z"/>
	<line fill="none" stroke="#00FF00" stroke-width="2" x1="18.125" y1="35" x2="13.688" y2="39.438"/>
	<line fill="none" stroke="#00FF00" stroke-width="2" x1="13.688" y1="39.438" x2="18" y2="43.75"/>
	<line fill="none" stroke="#00FF00" stroke-width="2" x1="22.438" y1="35.063" x2="18" y2="39.5"/>
	<line fill="none" stroke="#00FF00" stroke-width="2" x1="18" y1="39.5" x2="22.313" y2="43.813"/>
	<line fill="none" stroke="#00FF00" stroke-width="2" x1="41.25" y1="20.25" x2="36.813" y2="24.688"/>
	<line fill="none" stroke="#00FF00" stroke-width="2" x1="36.813" y1="24.688" x2="41.125" y2="29"/>
	<line fill="none" stroke="#00FF00" stroke-width="2" x1="45.563" y1="20.313" x2="41.125" y2="24.75"/>
	<line fill="none" stroke="#00FF00" stroke-width="2" x1="41.125" y1="24.75" x2="45.438" y2="29.063"/>
</g>
</svg>
