<?xml version="1.0" encoding="utf-8"?>
<!-- Generator: Adobe Illustrator 14.0.0, SVG Export Plug-In . SVG Version: 6.00 Build 43363)  -->
<!DOCTYPE svg PUBLIC "-//W3C//DTD SVG 1.1//EN" "http://www.w3.org/Graphics/SVG/1.1/DTD/svg11.dtd">
<svg version="1.1" id="图层_1" xmlns="http://www.w3.org/2000/svg" xmlns:xlink="http://www.w3.org/1999/xlink" x="0px" y="0px"
	 width="64px" height="64px" viewBox="0 0 64 64" enable-background="new 0 0 64 64" xml:space="preserve">
<g id="Blue">
	<polygon fill="#0000FF" points="28.168,38.63 17.361,44.244 25.318,35.024 24.473,38.621 	"/>
	<path fill="none" stroke="#0000FF" stroke-width="2" d="M24.473,38.621c0,0,18.111-15.205,38.361-16.621"/>
	<path fill="none" stroke="#0000FF" stroke-width="2" d="M47.917,42.334c0,0-1.75-17.417-22.333-17.417
		c0,0-21.75-0.166-23.25,17.417"/>
</g>
<g id="Red">
	<polygon fill="#FF0000" points="28.168,38.63 17.361,44.244 25.318,35.024 24.473,38.621 	"/>
	<path fill="none" stroke="#FF0000" stroke-width="2" d="M24.473,38.621c0,0,18.111-15.205,38.361-16.621"/>
	<path fill="none" stroke="#FF0000" stroke-width="2" d="M47.917,42.334c0,0-1.75-17.417-22.333-17.417
		c0,0-21.75-0.166-23.25,17.417"/>
</g>
<g id="White">
	<polygon fill="#00FF00" points="28.168,38.63 17.361,44.244 25.318,35.024 24.473,38.621 	"/>
	<path fill="none" stroke="#00FF00" stroke-width="2" d="M24.473,38.621c0,0,18.111-15.205,38.361-16.621"/>
	<path fill="none" stroke="#00FF00" stroke-width="2" d="M47.917,42.334c0,0-1.75-17.417-22.333-17.417
		c0,0-21.75-0.166-23.25,17.417"/>
</g>
</svg>
