<?xml version="1.0" encoding="utf-8"?>
<!-- Generator: Adobe Illustrator 14.0.0, SVG Export Plug-In . SVG Version: 6.00 Build 43363)  -->
<!DOCTYPE svg PUBLIC "-//W3C//DTD SVG 1.1//EN" "http://www.w3.org/Graphics/SVG/1.1/DTD/svg11.dtd">
<svg version="1.1" id="图层_1" xmlns="http://www.w3.org/2000/svg" xmlns:xlink="http://www.w3.org/1999/xlink" x="0px" y="0px"
	 width="64px" height="64px" viewBox="0 0 64 64" enable-background="new 0 0 64 64" xml:space="preserve">
<g id="Blue">
	<circle fill="none" stroke="#FFFF00" cx="32.583" cy="29.083" r="5.858"/>
	<circle fill="none" stroke="#400040" cx="32.583" cy="29.083" r="6.167"/>
	<line fill="none" stroke="#400040" x1="26.417" y1="29.083" x2="2.5" y2="29.083"/>
	<line fill="none" stroke="#400040" x1="38.75" y1="29.083" x2="62.084" y2="29.083"/>
	<line fill="none" stroke="#FFFF00" x1="26.708" y1="28.583" x2="2.792" y2="28.583"/>
	<line fill="none" stroke="#FFFF00" x1="39.041" y1="28.583" x2="62.375" y2="28.583"/>
	<line fill="none" stroke="#400040" x1="2.5" y1="24.667" x2="2.5" y2="33.584"/>
	<line fill="none" stroke="#FFFF00" x1="1.917" y1="24.667" x2="1.917" y2="33.584"/>
	<line fill="none" stroke="#400040" x1="62.084" y1="24.667" x2="62.084" y2="33.584"/>
	<line fill="none" stroke="#FFFF00" x1="61.5" y1="24.667" x2="61.5" y2="33.584"/>
	<line fill="none" stroke="#0000FF" x1="29.542" y1="30.583" x2="36.084" y2="30.583"/>
	<line fill="none" stroke="#0000FF" x1="32.604" y1="30.542" x2="32.604" y2="26.625"/>
	<line fill="none" stroke="#0000FF" x1="29.5" y1="30.542" x2="28.5" y2="27.958"/>
	<line fill="none" stroke="#0000FF" x1="36.043" y1="30.542" x2="37.125" y2="27.958"/>
</g>
<g id="Red">
	<circle fill="none" stroke="#FFFF00" cx="32.583" cy="29.083" r="5.858"/>
	<circle fill="none" stroke="#400040" cx="32.583" cy="29.083" r="6.167"/>
	<line fill="none" stroke="#400040" x1="26.417" y1="29.083" x2="2.5" y2="29.083"/>
	<line fill="none" stroke="#400040" x1="38.75" y1="29.083" x2="62.084" y2="29.083"/>
	<line fill="none" stroke="#FFFF00" x1="26.708" y1="28.583" x2="2.792" y2="28.583"/>
	<line fill="none" stroke="#FFFF00" x1="39.041" y1="28.583" x2="62.375" y2="28.583"/>
	<line fill="none" stroke="#400040" x1="2.5" y1="24.667" x2="2.5" y2="33.584"/>
	<line fill="none" stroke="#FFFF00" x1="1.917" y1="24.667" x2="1.917" y2="33.584"/>
	<line fill="none" stroke="#400040" x1="62.084" y1="24.667" x2="62.084" y2="33.584"/>
	<line fill="none" stroke="#FFFF00" x1="61.5" y1="24.667" x2="61.5" y2="33.584"/>
	<line fill="none" stroke="#FF0000" x1="29.542" y1="30.583" x2="36.084" y2="30.583"/>
	<line fill="none" stroke="#FF0000" x1="32.604" y1="30.542" x2="32.604" y2="26.625"/>
	<line fill="none" stroke="#FF0000" x1="29.5" y1="30.542" x2="28.5" y2="27.958"/>
	<line fill="none" stroke="#FF0000" x1="36.043" y1="30.542" x2="37.125" y2="27.958"/>
</g>
<g id="White">
	<circle fill="none" stroke="#FFFF00" cx="32.583" cy="29.083" r="5.858"/>
	<circle fill="none" stroke="#400040" cx="32.583" cy="29.083" r="6.167"/>
	<line fill="none" stroke="#400040" x1="26.417" y1="29.083" x2="2.5" y2="29.083"/>
	<line fill="none" stroke="#400040" x1="38.75" y1="29.083" x2="62.084" y2="29.083"/>
	<line fill="none" stroke="#FFFF00" x1="26.708" y1="28.583" x2="2.792" y2="28.583"/>
	<line fill="none" stroke="#FFFF00" x1="39.041" y1="28.583" x2="62.375" y2="28.583"/>
	<line fill="none" stroke="#400040" x1="2.5" y1="24.667" x2="2.5" y2="33.584"/>
	<line fill="none" stroke="#FFFF00" x1="1.917" y1="24.667" x2="1.917" y2="33.584"/>
	<line fill="none" stroke="#400040" x1="62.084" y1="24.667" x2="62.084" y2="33.584"/>
	<line fill="none" stroke="#FFFF00" x1="61.5" y1="24.667" x2="61.5" y2="33.584"/>
	<line fill="none" stroke="#00FF00" x1="29.542" y1="30.583" x2="36.084" y2="30.583"/>
	<line fill="none" stroke="#00FF00" x1="32.604" y1="30.542" x2="32.604" y2="26.625"/>
	<line fill="none" stroke="#00FF00" x1="29.5" y1="30.542" x2="28.5" y2="27.958"/>
	<line fill="none" stroke="#00FF00" x1="36.043" y1="30.542" x2="37.125" y2="27.958"/>
</g>
</svg>
