<?xml version="1.0" encoding="utf-8"?>
<!-- Generator: Adobe Illustrator 14.0.0, SVG Export Plug-In . SVG Version: 6.00 Build 43363)  -->
<!DOCTYPE svg PUBLIC "-//W3C//DTD SVG 1.1//EN" "http://www.w3.org/Graphics/SVG/1.1/DTD/svg11.dtd">
<svg version="1.1" id="图层_1" xmlns="http://www.w3.org/2000/svg" xmlns:xlink="http://www.w3.org/1999/xlink" x="0px" y="0px"
	 width="64px" height="64px" viewBox="0 0 64 64" enable-background="new 0 0 64 64" xml:space="preserve">
<g id="Blue">
	<polygon fill="#0000FF" points="50.871,39.68 47.573,37.063 61.203,39.68 47.573,42.299 	"/>
	<path fill="none" stroke="#FFFF00" d="M14.289,62.25c2.125-4.375,3.629-10.625,3.629-10.625c0.127-3.875-1.129-8.75-1.129-8.75
		c-1.625-5.875-1.5-10.5-1.5-10.5C15.164,30.5,16.104,26,16.104,26c1.689-4.5,1.811-12.625,1.811-12.625
		C18.039,7,14.289,1.75,14.289,1.75"/>
	<line fill="none" stroke="#FFFF00" x1="9.527" y1="24.5" x2="16.33" y2="24.5"/>
	<line fill="none" stroke="#FFFF00" x1="50.359" y1="40.056" x2="9.527" y2="40.056"/>
	<path fill="none" stroke="#FFFF00" d="M9.527,24.5c-9.959,0.002-8.918,8.201-8.918,8.201c0,7.625,8.918,7.354,8.918,7.354"/>
	<path fill="none" stroke="#0000FF" d="M14.791,61.875C16.916,57.5,18.42,51.25,18.42,51.25c0.127-3.875-1.129-8.75-1.129-8.75
		c-1.625-5.875-1.5-10.5-1.5-10.5c-0.125-1.875,0.814-6.375,0.814-6.375C18.295,21.125,18.416,13,18.416,13
		c0.125-6.375-3.625-11.625-3.625-11.625"/>
	<line fill="none" stroke="#0000FF" x1="10.029" y1="25.078" x2="16.832" y2="25.078"/>
	<line fill="none" stroke="#0000FF" x1="50.861" y1="39.681" x2="10.029" y2="39.681"/>
	<path fill="none" stroke="#0000FF" d="M10.029,25.08c-9.959,0.002-8.918,7.246-8.918,7.246c0,7.625,8.918,7.354,8.918,7.354"/>
</g>
<g id="Red">
	<polygon fill="#FF0000" points="50.871,39.68 47.573,37.063 61.203,39.68 47.573,42.299 	"/>
	<path fill="none" stroke="#FFFF00" d="M14.289,62.25c2.125-4.375,3.629-10.625,3.629-10.625c0.127-3.875-1.129-8.75-1.129-8.75
		c-1.625-5.875-1.5-10.5-1.5-10.5C15.164,30.5,16.104,26,16.104,26c1.689-4.5,1.811-12.625,1.811-12.625
		C18.039,7,14.289,1.75,14.289,1.75"/>
	<line fill="none" stroke="#FFFF00" x1="9.527" y1="24.5" x2="16.33" y2="24.5"/>
	<line fill="none" stroke="#FFFF00" x1="50.359" y1="40.056" x2="9.527" y2="40.056"/>
	<path fill="none" stroke="#FFFF00" d="M9.527,24.5c-9.959,0.002-8.918,8.201-8.918,8.201c0,7.625,8.918,7.354,8.918,7.354"/>
	<path fill="none" stroke="#FF0000" d="M14.791,61.875C16.916,57.5,18.42,51.25,18.42,51.25c0.127-3.875-1.129-8.75-1.129-8.75
		c-1.625-5.875-1.5-10.5-1.5-10.5c-0.125-1.875,0.814-6.375,0.814-6.375C18.295,21.125,18.416,13,18.416,13
		c0.125-6.375-3.625-11.625-3.625-11.625"/>
	<line fill="none" stroke="#FF0000" x1="10.029" y1="25.078" x2="16.832" y2="25.078"/>
	<line fill="none" stroke="#FF0000" x1="50.861" y1="39.681" x2="10.029" y2="39.681"/>
	<path fill="none" stroke="#FF0000" d="M10.029,25.08c-9.959,0.002-8.918,7.246-8.918,7.246c0,7.625,8.918,7.354,8.918,7.354"/>
</g>
<g id="White">
	<polygon fill="#00FF00" points="50.871,39.68 47.573,37.063 61.203,39.68 47.573,42.299 	"/>
	<path fill="none" stroke="#FFFF00" d="M14.289,62.25c2.125-4.375,3.629-10.625,3.629-10.625c0.127-3.875-1.129-8.75-1.129-8.75
		c-1.625-5.875-1.5-10.5-1.5-10.5C15.164,30.5,16.104,26,16.104,26c1.689-4.5,1.811-12.625,1.811-12.625
		C18.039,7,14.289,1.75,14.289,1.75"/>
	<line fill="none" stroke="#FFFF00" x1="9.527" y1="24.5" x2="16.33" y2="24.5"/>
	<line fill="none" stroke="#FFFF00" x1="50.359" y1="40.056" x2="9.527" y2="40.056"/>
	<path fill="none" stroke="#FFFF00" d="M9.527,24.5c-9.959,0.002-8.918,8.201-8.918,8.201c0,7.625,8.918,7.354,8.918,7.354"/>
	<path fill="none" stroke="#00FF00" d="M14.791,61.875C16.916,57.5,18.42,51.25,18.42,51.25c0.127-3.875-1.129-8.75-1.129-8.75
		c-1.625-5.875-1.5-10.5-1.5-10.5c-0.125-1.875,0.814-6.375,0.814-6.375C18.295,21.125,18.416,13,18.416,13
		c0.125-6.375-3.625-11.625-3.625-11.625"/>
	<line fill="none" stroke="#00FF00" x1="10.029" y1="25.078" x2="16.832" y2="25.078"/>
	<line fill="none" stroke="#00FF00" x1="50.861" y1="39.681" x2="10.029" y2="39.681"/>
	<path fill="none" stroke="#00FF00" d="M10.029,25.08c-9.959,0.002-8.918,7.246-8.918,7.246c0,7.625,8.918,7.354,8.918,7.354"/>
</g>
</svg>
