<?xml version="1.0" encoding="utf-8"?>
<!-- Generator: Adobe Illustrator 14.0.0, SVG Export Plug-In . SVG Version: 6.00 Build 43363)  -->
<!DOCTYPE svg PUBLIC "-//W3C//DTD SVG 1.1//EN" "http://www.w3.org/Graphics/SVG/1.1/DTD/svg11.dtd">
<svg version="1.1" id="图层_1" xmlns="http://www.w3.org/2000/svg" xmlns:xlink="http://www.w3.org/1999/xlink" x="0px" y="0px"
	 width="64px" height="64px" viewBox="0 0 64 64" enable-background="new 0 0 64 64" xml:space="preserve">
<g id="Blue">
	<path fill="none" stroke="#FFFF00" d="M31.911,22.272c0,0,9.025-0.832,10.628,8.847c0,0,1.425,10.925-9.737,14.31
		c0,0-4.929,1.484-8.194,1.544c0,0-11.162,1.068-17.931-6.294c0,0-3.266-2.375-3.087-8.906c0,0,0.772-8.705,8.194-9.518
		c0,0,3.503-0.517,6.531,0.434c0,0,3.147,0.547,5.641,0.511C23.955,23.199,29.892,22.807,31.911,22.272z"/>
	<path fill="none" stroke="#0000FF" d="M32.375,21.625c0,0,9.5-0.875,11.188,9.313c0,0,1.5,11.5-10.25,15.063
		c0,0-5.188,1.563-8.625,1.625c0,0-11.75,1.125-18.875-6.625c0,0-3.438-2.5-3.25-9.375c0,0,0.813-9.163,8.625-10.019
		c0,0,3.688-0.543,6.875,0.457c0,0,3.313,0.576,5.938,0.538C24,22.601,30.25,22.188,32.375,21.625z"/>
	<path fill="none" stroke="#FFFF00" d="M39.608,25.016c0,0-3.483,5.484-3.483,8.359c0,0-0.277,2.205,3.483,1.938
		c0,0,5.829-1.75,8.829-4.25c0,0,8.217-5.622,9.983-7.124"/>
	<path fill="none" stroke="#0000FF" d="M39.991,25.247c0,0-3.309,5.21-3.309,7.941c0,0-0.213,1.637,3.359,1.382
		c0,0,5.036-2.04,8.291-4.07c0,0,8.338-5.901,10.016-7.328"/>
	<polygon fill="#0000FF" points="58.349,23.172 55.412,22.839 62.517,19.085 58.625,26.116 	"/>
</g>
<g id="Red">
	<path fill="none" stroke="#FFFF00" d="M31.911,22.272c0,0,9.025-0.832,10.628,8.847c0,0,1.425,10.925-9.737,14.31
		c0,0-4.929,1.484-8.194,1.544c0,0-11.162,1.068-17.931-6.294c0,0-3.266-2.375-3.087-8.906c0,0,0.772-8.705,8.194-9.518
		c0,0,3.503-0.517,6.531,0.434c0,0,3.147,0.547,5.641,0.511C23.955,23.199,29.892,22.807,31.911,22.272z"/>
	<path fill="none" stroke="#FF0000" d="M32.375,21.625c0,0,9.5-0.875,11.188,9.313c0,0,1.5,11.5-10.25,15.063
		c0,0-5.188,1.563-8.625,1.625c0,0-11.75,1.125-18.875-6.625c0,0-3.438-2.5-3.25-9.375c0,0,0.813-9.163,8.625-10.019
		c0,0,3.688-0.543,6.875,0.457c0,0,3.313,0.576,5.938,0.538C24,22.601,30.25,22.188,32.375,21.625z"/>
	<path fill="none" stroke="#FFFF00" d="M39.608,25.016c0,0-3.483,5.484-3.483,8.359c0,0-0.277,2.205,3.483,1.938
		c0,0,5.829-1.75,8.829-4.25c0,0,8.217-5.622,9.983-7.124"/>
	<path fill="none" stroke="#FF0000" d="M39.991,25.247c0,0-3.309,5.21-3.309,7.941c0,0-0.213,1.637,3.359,1.382
		c0,0,5.036-2.04,8.291-4.07c0,0,8.338-5.901,10.016-7.328"/>
	<polygon fill="#FF0000" points="58.349,23.172 55.412,22.839 62.517,19.085 58.625,26.116 	"/>
</g>
<g id="White">
	<path fill="none" stroke="#FFFF00" d="M31.911,22.272c0,0,9.025-0.832,10.628,8.847c0,0,1.425,10.925-9.737,14.31
		c0,0-4.929,1.484-8.194,1.544c0,0-11.162,1.068-17.931-6.294c0,0-3.266-2.375-3.087-8.906c0,0,0.772-8.705,8.194-9.518
		c0,0,3.503-0.517,6.531,0.434c0,0,3.147,0.547,5.641,0.511C23.955,23.199,29.892,22.807,31.911,22.272z"/>
	<path fill="none" stroke="#00FF00" d="M32.375,21.625c0,0,9.5-0.875,11.188,9.313c0,0,1.5,11.5-10.25,15.063
		c0,0-5.188,1.563-8.625,1.625c0,0-11.75,1.125-18.875-6.625c0,0-3.438-2.5-3.25-9.375c0,0,0.813-9.163,8.625-10.019
		c0,0,3.688-0.543,6.875,0.457c0,0,3.313,0.576,5.938,0.538C24,22.601,30.25,22.188,32.375,21.625z"/>
	<path fill="none" stroke="#FFFF00" d="M39.608,25.016c0,0-3.483,5.484-3.483,8.359c0,0-0.277,2.205,3.483,1.938
		c0,0,5.829-1.75,8.829-4.25c0,0,8.217-5.622,9.983-7.124"/>
	<path fill="none" stroke="#00FF00" d="M39.991,25.247c0,0-3.309,5.21-3.309,7.941c0,0-0.213,1.637,3.359,1.382
		c0,0,5.036-2.04,8.291-4.07c0,0,8.338-5.901,10.016-7.328"/>
	<polygon fill="#00FF00" points="58.349,23.172 55.412,22.839 62.517,19.085 58.625,26.116 	"/>
</g>
</svg>
