<?xml version="1.0" encoding="utf-8"?>
<!-- Generator: Adobe Illustrator 14.0.0, SVG Export Plug-In . SVG Version: 6.00 Build 43363)  -->
<!DOCTYPE svg PUBLIC "-//W3C//DTD SVG 1.1//EN" "http://www.w3.org/Graphics/SVG/1.1/DTD/svg11.dtd">
<svg version="1.1" id="图层_1" xmlns="http://www.w3.org/2000/svg" xmlns:xlink="http://www.w3.org/1999/xlink" x="0px" y="0px"
	 width="64px" height="64px" viewBox="0 0 64 64" enable-background="new 0 0 64 64" xml:space="preserve">
<g id="Blue">
	<polygon fill="#0000FF" points="14.208,42.299 0.578,39.68 14.208,37.063 10.91,39.68 	"/>
	<path fill="none" stroke="#FFFF00" d="M47.492,1.75c0,0-3.75,5.25-3.625,11.625c0,0,0.121,8.125,1.811,12.625
		c0,0,0.939,4.5,0.814,6.375c0,0,0.125,4.625-1.5,10.5c0,0-1.256,4.875-1.129,8.75c0,0,1.504,6.25,3.629,10.625"/>
	<line fill="none" stroke="#FFFF00" x1="45.451" y1="24.5" x2="52.254" y2="24.5"/>
	<line fill="none" stroke="#FFFF00" x1="52.254" y1="40.056" x2="11.421" y2="40.056"/>
	<path fill="none" stroke="#FFFF00" d="M52.254,40.056c0,0,8.918,0.271,8.918-7.354c0,0,1.041-8.199-8.918-8.201"/>
	<line fill="none" stroke="#FFFF00" x1="45.076" y1="31.625" x2="32.961" y2="31.625"/>
	<path fill="none" stroke="#0000FF" d="M46.99,1.375c0,0-3.75,5.25-3.625,11.625c0,0,0.121,8.125,1.811,12.625
		c0,0,0.939,4.5,0.814,6.375c0,0,0.125,4.625-1.5,10.5c0,0-1.256,4.875-1.129,8.75c0,0,1.504,6.25,3.629,10.625"/>
	<line fill="none" stroke="#0000FF" x1="44.949" y1="25.078" x2="51.752" y2="25.078"/>
	<line fill="none" stroke="#0000FF" x1="51.752" y1="39.681" x2="10.919" y2="39.681"/>
	<path fill="none" stroke="#0000FF" d="M51.752,39.681c0,0,8.918,0.271,8.918-7.354c0,0,1.041-7.244-8.918-7.246"/>
	<line fill="none" stroke="#0000FF" x1="44.949" y1="32" x2="32.834" y2="32"/>
</g>
<g id="Red">
	<polygon fill="#FF0000" points="14.208,42.299 0.578,39.68 14.208,37.063 10.91,39.68 	"/>
	<path fill="none" stroke="#FFFF00" d="M47.492,1.75c0,0-3.75,5.25-3.625,11.625c0,0,0.121,8.125,1.811,12.625
		c0,0,0.939,4.5,0.814,6.375c0,0,0.125,4.625-1.5,10.5c0,0-1.256,4.875-1.129,8.75c0,0,1.504,6.25,3.629,10.625"/>
	<line fill="none" stroke="#FFFF00" x1="45.451" y1="24.5" x2="52.254" y2="24.5"/>
	<line fill="none" stroke="#FFFF00" x1="52.254" y1="40.056" x2="11.421" y2="40.056"/>
	<path fill="none" stroke="#FFFF00" d="M52.254,40.056c0,0,8.918,0.271,8.918-7.354c0,0,1.041-8.199-8.918-8.201"/>
	<line fill="none" stroke="#FFFF00" x1="45.076" y1="31.625" x2="32.961" y2="31.625"/>
	<path fill="none" stroke="#FF0000" d="M46.99,1.375c0,0-3.75,5.25-3.625,11.625c0,0,0.121,8.125,1.811,12.625
		c0,0,0.939,4.5,0.814,6.375c0,0,0.125,4.625-1.5,10.5c0,0-1.256,4.875-1.129,8.75c0,0,1.504,6.25,3.629,10.625"/>
	<line fill="none" stroke="#FF0000" x1="44.949" y1="25.078" x2="51.752" y2="25.078"/>
	<line fill="none" stroke="#FF0000" x1="51.752" y1="39.681" x2="10.919" y2="39.681"/>
	<path fill="none" stroke="#FF0000" d="M51.752,39.681c0,0,8.918,0.271,8.918-7.354c0,0,1.041-7.244-8.918-7.246"/>
	<line fill="none" stroke="#FF0000" x1="44.949" y1="32" x2="32.834" y2="32"/>
</g>
<g id="White">
	<polygon fill="#00FF00" points="14.208,42.299 0.578,39.68 14.208,37.063 10.91,39.68 	"/>
	<path fill="none" stroke="#FFFF00" d="M47.492,1.75c0,0-3.75,5.25-3.625,11.625c0,0,0.121,8.125,1.811,12.625
		c0,0,0.939,4.5,0.814,6.375c0,0,0.125,4.625-1.5,10.5c0,0-1.256,4.875-1.129,8.75c0,0,1.504,6.25,3.629,10.625"/>
	<line fill="none" stroke="#FFFF00" x1="45.451" y1="24.5" x2="52.254" y2="24.5"/>
	<line fill="none" stroke="#FFFF00" x1="52.254" y1="40.056" x2="11.421" y2="40.056"/>
	<path fill="none" stroke="#FFFF00" d="M52.254,40.056c0,0,8.918,0.271,8.918-7.354c0,0,1.041-8.199-8.918-8.201"/>
	<line fill="none" stroke="#FFFF00" x1="45.076" y1="31.625" x2="32.961" y2="31.625"/>
	<path fill="none" stroke="#00FF00" d="M46.99,1.375c0,0-3.75,5.25-3.625,11.625c0,0,0.121,8.125,1.811,12.625
		c0,0,0.939,4.5,0.814,6.375c0,0,0.125,4.625-1.5,10.5c0,0-1.256,4.875-1.129,8.75c0,0,1.504,6.25,3.629,10.625"/>
	<line fill="none" stroke="#00FF00" x1="44.949" y1="25.078" x2="51.752" y2="25.078"/>
	<line fill="none" stroke="#00FF00" x1="51.752" y1="39.681" x2="10.919" y2="39.681"/>
	<path fill="none" stroke="#00FF00" d="M51.752,39.681c0,0,8.918,0.271,8.918-7.354c0,0,1.041-7.244-8.918-7.246"/>
	<line fill="none" stroke="#00FF00" x1="44.949" y1="32" x2="32.834" y2="32"/>
</g>
</svg>
