<?xml version="1.0" encoding="utf-8"?>
<!-- Generator: Adobe Illustrator 14.0.0, SVG Export Plug-In . SVG Version: 6.00 Build 43363)  -->
<!DOCTYPE svg PUBLIC "-//W3C//DTD SVG 1.1//EN" "http://www.w3.org/Graphics/SVG/1.1/DTD/svg11.dtd">
<svg version="1.1" id="图层_1" xmlns="http://www.w3.org/2000/svg" xmlns:xlink="http://www.w3.org/1999/xlink" x="0px" y="0px"
	 width="64px" height="64px" viewBox="0 0 64 64" enable-background="new 0 0 64 64" xml:space="preserve">
<g id="Blue">
	<polygon fill="#0000FF" points="6.038,27 6.575,28.759 1.609,25.09 7.757,25.958 	"/>
	<path fill="none" stroke="#0000FF" stroke-width="2" d="M5.955,26.838c0,0,11.067,3.344,23.442,4.21"/>
	<polygon fill="#0000FF" points="8.212,33.815 1.609,37.247 6.471,31.611 5.955,33.81 	"/>
	<path fill="none" stroke="#0000FF" stroke-width="2" d="M5.955,33.81c0,0,3.768-4.306,11.721-4.306"/>
	<path fill="none" stroke="#0000FF" stroke-width="2" d="M43.667,10.83c0,0-14.271,1.434-14.271,18.298
		c0,0-0.136,17.821,14.271,19.049"/>
	<path fill="none" stroke="#FFFF00" d="M6.873,26.381c0,0,10.514,3.177,22.269,4"/>
	<path fill="none" stroke="#FFFF00" d="M43.583,11.764c0,0-13.557,1.361-13.557,17.383c0,0-0.128,16.928,13.557,18.097"/>
	<line fill="none" stroke="#0000FF" stroke-width="2" x1="41.473" y1="29.504" x2="57.167" y2="20.167"/>
	<line fill="none" stroke="#0000FF" stroke-width="2" x1="40" y1="20.167" x2="57.167" y2="29.504"/>
	<line fill="none" stroke="#0000FF" stroke-width="2" x1="49.32" y1="25.236" x2="49.32" y2="41.333"/>
</g>
<g id="Red">
	<polygon fill="#FF0000" points="6.038,27 6.575,28.759 1.609,25.09 7.757,25.958 	"/>
	<path fill="none" stroke="#FF0000" stroke-width="2" d="M5.955,26.838c0,0,11.067,3.344,23.442,4.21"/>
	<polygon fill="#FF0000" points="8.212,33.815 1.609,37.247 6.471,31.611 5.955,33.81 	"/>
	<path fill="none" stroke="#FF0000" stroke-width="2" d="M5.955,33.81c0,0,3.768-4.306,11.721-4.306"/>
	<path fill="none" stroke="#FF0000" stroke-width="2" d="M43.667,10.83c0,0-14.271,1.434-14.271,18.298
		c0,0-0.136,17.821,14.271,19.049"/>
	<path fill="none" stroke="#FFFF00" d="M6.873,26.381c0,0,10.514,3.177,22.269,4"/>
	<path fill="none" stroke="#FFFF00" d="M43.583,11.764c0,0-13.557,1.361-13.557,17.383c0,0-0.128,16.928,13.557,18.097"/>
	<line fill="none" stroke="#FF0000" stroke-width="2" x1="41.473" y1="29.504" x2="57.167" y2="20.167"/>
	<line fill="none" stroke="#FF0000" stroke-width="2" x1="40" y1="20.167" x2="57.167" y2="29.504"/>
	<line fill="none" stroke="#FF0000" stroke-width="2" x1="49.32" y1="25.236" x2="49.32" y2="41.333"/>
</g>
<g id="White">
	<polygon fill="#00FF00" points="6.038,27 6.575,28.759 1.609,25.09 7.757,25.958 	"/>
	<path fill="none" stroke="#00FF00" stroke-width="2" d="M5.955,26.838c0,0,11.067,3.344,23.442,4.21"/>
	<polygon fill="#00FF00" points="8.212,33.815 1.609,37.247 6.471,31.611 5.955,33.81 	"/>
	<path fill="none" stroke="#00FF00" stroke-width="2" d="M5.955,33.81c0,0,3.768-4.306,11.721-4.306"/>
	<path fill="none" stroke="#00FF00" stroke-width="2" d="M43.667,10.83c0,0-14.271,1.434-14.271,18.298
		c0,0-0.136,17.821,14.271,19.049"/>
	<path fill="none" stroke="#FFFF00" d="M6.873,26.381c0,0,10.514,3.177,22.269,4"/>
	<path fill="none" stroke="#FFFF00" d="M43.583,11.764c0,0-13.557,1.361-13.557,17.383c0,0-0.128,16.928,13.557,18.097"/>
	<line fill="none" stroke="#00FF00" stroke-width="2" x1="41.473" y1="29.504" x2="57.167" y2="20.167"/>
	<line fill="none" stroke="#00FF00" stroke-width="2" x1="40" y1="20.167" x2="57.167" y2="29.504"/>
	<line fill="none" stroke="#00FF00" stroke-width="2" x1="49.32" y1="25.236" x2="49.32" y2="41.333"/>
</g>
</svg>
