<?xml version="1.0" encoding="utf-8"?>
<!-- Generator: Adobe Illustrator 14.0.0, SVG Export Plug-In . SVG Version: 6.00 Build 43363)  -->
<!DOCTYPE svg PUBLIC "-//W3C//DTD SVG 1.1//EN" "http://www.w3.org/Graphics/SVG/1.1/DTD/svg11.dtd">
<svg version="1.1" id="图层_1" xmlns="http://www.w3.org/2000/svg" xmlns:xlink="http://www.w3.org/1999/xlink" x="0px" y="0px"
	 width="64px" height="64px" viewBox="0 0 64 64" enable-background="new 0 0 64 64" xml:space="preserve">
<g id="Blue">
	<rect x="3.342" y="3.175" fill="none" stroke="#FFFF00" width="57.316" height="57.316"/>
	<line fill="none" stroke="#3F3300" stroke-width="2" x1="62.167" y1="1.667" x2="1.833" y2="62"/>
	<line fill="none" stroke="#FFFF00" stroke-width="2" x1="61.084" y1="1.833" x2="0.75" y2="62.166"/>
	<line fill="none" stroke="#0000FF" stroke-width="2" x1="1.833" y1="1.667" x2="62.167" y2="62"/>
	<rect x="1.833" y="1.667" fill="none" stroke="#3F3300" stroke-width="2" width="60.333" height="60.333"/>
</g>
<g id="Red">
	<rect x="3.342" y="3.175" fill="none" stroke="#FFFF00" width="57.316" height="57.316"/>
	<line fill="none" stroke="#3F3300" stroke-width="2" x1="62.167" y1="1.667" x2="1.833" y2="62"/>
	<line fill="none" stroke="#FFFF00" stroke-width="2" x1="61.084" y1="1.833" x2="0.75" y2="62.166"/>
	<line fill="none" stroke="#FF0000" stroke-width="2" x1="1.833" y1="1.667" x2="62.167" y2="62"/>
	<rect x="1.833" y="1.667" fill="none" stroke="#3F3300" stroke-width="2" width="60.333" height="60.333"/>
</g>
<g id="White">
	<rect x="3.342" y="3.175" fill="none" stroke="#FFFF00" width="57.316" height="57.316"/>
	<line fill="none" stroke="#3F3300" stroke-width="2" x1="62.167" y1="1.667" x2="1.833" y2="62"/>
	<line fill="none" stroke="#FFFF00" stroke-width="2" x1="61.084" y1="1.833" x2="0.75" y2="62.166"/>
	<line fill="none" stroke="#00FF00" stroke-width="2" x1="1.833" y1="1.667" x2="62.167" y2="62"/>
	<rect x="1.833" y="1.667" fill="none" stroke="#3F3300" stroke-width="2" width="60.333" height="60.333"/>
</g>
</svg>
