<?xml version="1.0" encoding="utf-8"?>
<!-- Generator: Adobe Illustrator 14.0.0, SVG Export Plug-In . SVG Version: 6.00 Build 43363)  -->
<!DOCTYPE svg PUBLIC "-//W3C//DTD SVG 1.1//EN" "http://www.w3.org/Graphics/SVG/1.1/DTD/svg11.dtd">
<svg version="1.1" id="图层_1" xmlns="http://www.w3.org/2000/svg" xmlns:xlink="http://www.w3.org/1999/xlink" x="0px" y="0px"
	 width="64px" height="64px" viewBox="0 0 64 64" enable-background="new 0 0 64 64" xml:space="preserve">
<g id="Blue">
	<polygon fill="#0000FF" points="54.549,21.552 57.468,21.649 49.408,27.223 53.867,18.438 	"/>
	<polygon fill="#0000FF" points="19.042,38.645 16.13,38.412 24.44,33.22 19.578,41.788 	"/>
	<line fill="none" stroke="#0000FF" stroke-width="2" x1="19.042" y1="38.645" x2="2.656" y2="55.031"/>
	<line fill="none" stroke="#0000FF" stroke-width="2" x1="54.549" y1="21.552" x2="59.313" y2="16.375"/>
	<line fill="none" stroke="#0000FF" stroke-width="2" x1="41.5" y1="17.125" x2="50.813" y2="9.063"/>
	<circle fill="none" stroke="#0000FF" stroke-width="2" cx="33.625" cy="24.5" r="9.875"/>
	<circle fill="none" stroke="#FFFF00" cx="33.625" cy="24.5" r="9.381"/>
	<path fill="none" stroke="#0000FF" stroke-width="2" d="M50.813,9.063c0,0,3.813-2.438,7,1c0,0,3.5,3.188,1.5,6.313"/>
	<circle fill="#0000FF" cx="33.875" cy="24.5" r="2.688"/>
</g>
<g id="Red">
	<polygon fill="#FF0000" points="54.549,21.552 57.468,21.649 49.408,27.223 53.867,18.438 	"/>
	<polygon fill="#FF0000" points="19.042,38.645 16.13,38.412 24.44,33.22 19.578,41.788 	"/>
	<line fill="none" stroke="#FF0000" stroke-width="2" x1="19.042" y1="38.645" x2="2.656" y2="55.031"/>
	<line fill="none" stroke="#FF0000" stroke-width="2" x1="54.549" y1="21.552" x2="59.313" y2="16.375"/>
	<line fill="none" stroke="#FF0000" stroke-width="2" x1="41.5" y1="17.125" x2="50.813" y2="9.063"/>
	<circle fill="none" stroke="#FF0000" stroke-width="2" cx="33.625" cy="24.5" r="9.875"/>
	<circle fill="none" stroke="#FFFF00" cx="33.625" cy="24.5" r="9.381"/>
	<path fill="none" stroke="#FF0000" stroke-width="2" d="M50.813,9.063c0,0,3.813-2.438,7,1c0,0,3.5,3.188,1.5,6.313"/>
	<circle fill="#FF0000" cx="33.875" cy="24.5" r="2.688"/>
</g>
<g id="White">
	<polygon fill="#00FF00" points="54.549,21.552 57.468,21.649 49.408,27.223 53.867,18.438 	"/>
	<polygon fill="#00FF00" points="19.042,38.645 16.13,38.412 24.44,33.22 19.578,41.788 	"/>
	<line fill="none" stroke="#00FF00" stroke-width="2" x1="19.042" y1="38.645" x2="2.656" y2="55.031"/>
	<line fill="none" stroke="#00FF00" stroke-width="2" x1="54.549" y1="21.552" x2="59.313" y2="16.375"/>
	<line fill="none" stroke="#00FF00" stroke-width="2" x1="41.5" y1="17.125" x2="50.813" y2="9.063"/>
	<circle fill="none" stroke="#00FF00" stroke-width="2" cx="33.625" cy="24.5" r="9.875"/>
	<circle fill="none" stroke="#FFFF00" cx="33.625" cy="24.5" r="9.381"/>
	<path fill="none" stroke="#00FF00" stroke-width="2" d="M50.813,9.063c0,0,3.813-2.438,7,1c0,0,3.5,3.188,1.5,6.313"/>
	<circle fill="#00FF00" cx="33.875" cy="24.5" r="2.688"/>
</g>
</svg>
