<?xml version="1.0" encoding="utf-8"?>
<!-- Generator: Adobe Illustrator 14.0.0, SVG Export Plug-In . SVG Version: 6.00 Build 43363)  -->
<!DOCTYPE svg PUBLIC "-//W3C//DTD SVG 1.1//EN" "http://www.w3.org/Graphics/SVG/1.1/DTD/svg11.dtd">
<svg version="1.1" id="图层_1" xmlns="http://www.w3.org/2000/svg" xmlns:xlink="http://www.w3.org/1999/xlink" x="0px" y="0px"
	 width="64px" height="64px" viewBox="0 0 64 64" enable-background="new 0 0 64 64" xml:space="preserve">
<g id="Blue">
	<polygon fill="#0000FF" points="14.298,40.817 27.927,43.435 14.298,46.053 17.595,43.435 	"/>
	<line fill="none" stroke="#0000FF" stroke-width="2" x1="17.595" y1="43.435" x2="10.792" y2="43.435"/>
	<line fill="none" stroke="#0000FF" stroke-width="2" x1="10.792" y1="28.833" x2="51.625" y2="28.833"/>
	<path fill="none" stroke="#0000FF" stroke-width="2" d="M60.813,13.625c0,0-7.563,5.479-7.5,15.208c0,0-0.563,9.979,8.188,16.042"
		/>
	<path fill="none" stroke="#0000FF" stroke-width="2" d="M10.792,28.833c0,0-8.917-0.271-8.917,7.354c0,0-1.041,7.244,8.917,7.247"
		/>
</g>
<g id="Red">
	<polygon fill="#FF0000" points="14.298,40.817 27.927,43.435 14.298,46.053 17.595,43.435 	"/>
	<line fill="none" stroke="#FF0000" stroke-width="2" x1="17.595" y1="43.435" x2="10.792" y2="43.435"/>
	<line fill="none" stroke="#FF0000" stroke-width="2" x1="10.792" y1="28.833" x2="51.625" y2="28.833"/>
	<path fill="none" stroke="#FF0000" stroke-width="2" d="M60.813,13.625c0,0-7.563,5.479-7.5,15.208c0,0-0.563,9.979,8.188,16.042"
		/>
	<path fill="none" stroke="#FF0000" stroke-width="2" d="M10.792,28.833c0,0-8.917-0.271-8.917,7.354c0,0-1.041,7.244,8.917,7.247"
		/>
</g>
<g id="White">
	<polygon fill="#00FF00" points="14.298,40.817 27.927,43.435 14.298,46.053 17.595,43.435 	"/>
	<line fill="none" stroke="#00FF00" stroke-width="2" x1="17.595" y1="43.435" x2="10.792" y2="43.435"/>
	<line fill="none" stroke="#00FF00" stroke-width="2" x1="10.792" y1="28.833" x2="51.625" y2="28.833"/>
	<path fill="none" stroke="#00FF00" stroke-width="2" d="M60.813,13.625c0,0-7.563,5.479-7.5,15.208c0,0-0.563,9.979,8.188,16.042"
		/>
	<path fill="none" stroke="#00FF00" stroke-width="2" d="M10.792,28.833c0,0-8.917-0.271-8.917,7.354c0,0-1.041,7.244,8.917,7.247"
		/>
</g>
</svg>
