<?xml version="1.0" encoding="utf-8"?>
<!-- Generator: Adobe Illustrator 14.0.0, SVG Export Plug-In . SVG Version: 6.00 Build 43363)  -->
<!DOCTYPE svg PUBLIC "-//W3C//DTD SVG 1.1//EN" "http://www.w3.org/Graphics/SVG/1.1/DTD/svg11.dtd">
<svg version="1.1" id="图层_1" xmlns="http://www.w3.org/2000/svg" xmlns:xlink="http://www.w3.org/1999/xlink" x="0px" y="0px"
	 width="64px" height="64px" viewBox="0 0 64 64" enable-background="new 0 0 64 64" xml:space="preserve">
<g id="Blue">
	<circle fill="#400040" cx="31.927" cy="31.761" r="7.094"/>
	<path fill="none" stroke="#0000FF" stroke-width="2" d="M3.75,32c0,0,6.979-14.25,28.177-16c0,0,18.323-0.75,29.448,16"/>
	<path fill="none" stroke="#0000FF" stroke-width="2" d="M3.75,31.761c0,0,6.979,14.25,28.177,16c0,0,18.323,0.75,29.448-16"/>
</g>
<g id="Red">
	<circle fill="#400040" cx="31.927" cy="31.761" r="7.094"/>
	<path fill="none" stroke="#FF0000" stroke-width="2" d="M3.75,32c0,0,6.979-14.25,28.177-16c0,0,18.323-0.75,29.448,16"/>
	<path fill="none" stroke="#FF0000" stroke-width="2" d="M3.75,31.761c0,0,6.979,14.25,28.177,16c0,0,18.323,0.75,29.448-16"/>
</g>
<g id="White">
	<circle fill="#400040" cx="31.927" cy="31.761" r="7.094"/>
	<path fill="none" stroke="#00FF00" stroke-width="2" d="M3.75,32c0,0,6.979-14.25,28.177-16c0,0,18.323-0.75,29.448,16"/>
	<path fill="none" stroke="#00FF00" stroke-width="2" d="M3.75,31.761c0,0,6.979,14.25,28.177,16c0,0,18.323,0.75,29.448-16"/>
</g>
</svg>
