<?xml version="1.0" encoding="utf-8"?>
<!-- Generator: Adobe Illustrator 14.0.0, SVG Export Plug-In . SVG Version: 6.00 Build 43363)  -->
<!DOCTYPE svg PUBLIC "-//W3C//DTD SVG 1.1//EN" "http://www.w3.org/Graphics/SVG/1.1/DTD/svg11.dtd">
<svg version="1.1" id="图层_1" xmlns="http://www.w3.org/2000/svg" xmlns:xlink="http://www.w3.org/1999/xlink" x="0px" y="0px"
	 width="64px" height="64px" viewBox="0 0 64 64" enable-background="new 0 0 64 64" xml:space="preserve">
<g id="Blue">
	<polygon fill="#0000FF" points="54.4,39.148 58.537,38.359 47.659,46.977 54.568,34.941 	"/>
	<path fill="none" stroke="#0000FF" stroke-width="2" d="M12.333,21.667C7.875,23.75,4.917,28.25,4.917,28.25
		C1.583,35.5,4.25,38.083,4.25,38.083c4.25,4.25,10.5,2.877,10.5,2.877c6.917-0.457,15.667-9.794,15.667-9.794
		c10.916-13.333,20.25-12.833,20.25-12.833c10.667-0.083,10.583,6.666,10.583,6.666c0.5,7.416-6.85,14.149-6.85,14.149"/>
	<path fill="none" stroke="#0000FF" stroke-width="2" d="M42.584,9.416c-2.416,3.417-2.334,7.167-2.334,7.167
		c0.083,4.5,3,8.083,3,8.083c2.25,4.167,2.5,6.917,2.5,6.917c0.25,2.333-1.25,6.583-1.25,6.583c-1.167,3.75-1.583,6.583-1.583,6.583
		c-0.667,6,3.917,9.417,3.917,9.417"/>
	<path fill="none" stroke="#0000FF" stroke-width="2" d="M13.403,9.417c-2.416,3.416-2.334,7.166-2.334,7.166
		c0.083,4.5,3,8.084,3,8.084c2.25,4.167,2.5,6.917,2.5,6.917c0.25,2.333-1.25,6.583-1.25,6.583c-1.167,3.75-1.583,6.583-1.583,6.583
		c-0.667,6,3.917,9.417,3.917,9.417"/>
	<line fill="none" stroke="#0000FF" stroke-width="2" x1="12.304" y1="11.319" x2="8.75" y2="9.416"/>
	<line fill="none" stroke="#0000FF" stroke-width="2" x1="11.068" y1="14.75" x2="7.083" y2="13.25"/>
	<line fill="none" stroke="#0000FF" stroke-width="2" x1="16.357" y1="52.905" x2="13.25" y2="55.5"/>
	<line fill="none" stroke="#0000FF" stroke-width="2" x1="13.94" y1="48.244" x2="10" y2="49.75"/>
	<line fill="none" stroke="#0000FF" stroke-width="2" x1="41.125" y1="10.844" x2="37.57" y2="8.94"/>
	<line fill="none" stroke="#0000FF" stroke-width="2" x1="39.889" y1="14.274" x2="35.904" y2="12.774"/>
	<line fill="none" stroke="#0000FF" stroke-width="2" x1="45.178" y1="52.43" x2="42.07" y2="55.024"/>
	<line fill="none" stroke="#0000FF" stroke-width="2" x1="42.761" y1="47.769" x2="38.82" y2="49.274"/>
</g>
<g id="Red">
	<polygon fill="#FF0000" points="54.4,39.148 58.537,38.359 47.659,46.977 54.568,34.941 	"/>
	<path fill="none" stroke="#FF0000" stroke-width="2" d="M12.333,21.667c-4.667,2.167-7.417,6.583-7.417,6.583
		C1.583,35.5,4.25,38.083,4.25,38.083c4.25,4.25,10.5,2.877,10.5,2.877c6.917-0.457,15.667-9.794,15.667-9.794
		c10.916-13.333,20.25-12.833,20.25-12.833c10.667-0.083,10.583,6.666,10.583,6.666c0.5,7.416-6.85,14.149-6.85,14.149"/>
	<path fill="none" stroke="#FF0000" stroke-width="2" d="M42.584,9.416c-2.416,3.417-2.334,7.167-2.334,7.167
		c0.083,4.5,3,8.083,3,8.083c2.25,4.167,2.5,6.917,2.5,6.917c0.25,2.333-1.25,6.583-1.25,6.583c-1.167,3.75-1.583,6.583-1.583,6.583
		c-0.667,6,3.917,9.417,3.917,9.417"/>
	<path fill="none" stroke="#FF0000" stroke-width="2" d="M13.403,9.417c-2.416,3.416-2.334,7.166-2.334,7.166
		c0.083,4.5,3,8.084,3,8.084c2.25,4.167,2.5,6.917,2.5,6.917c0.25,2.333-1.25,6.583-1.25,6.583c-1.167,3.75-1.583,6.583-1.583,6.583
		c-0.667,6,3.917,9.417,3.917,9.417"/>
	<line fill="none" stroke="#FF0000" stroke-width="2" x1="12.304" y1="11.319" x2="8.75" y2="9.416"/>
	<line fill="none" stroke="#FF0000" stroke-width="2" x1="11.068" y1="14.75" x2="7.083" y2="13.25"/>
	<line fill="none" stroke="#FF0000" stroke-width="2" x1="16.357" y1="52.905" x2="13.25" y2="55.5"/>
	<line fill="none" stroke="#FF0000" stroke-width="2" x1="13.94" y1="48.244" x2="10" y2="49.75"/>
	<line fill="none" stroke="#FF0000" stroke-width="2" x1="41.125" y1="10.844" x2="37.57" y2="8.94"/>
	<line fill="none" stroke="#FF0000" stroke-width="2" x1="39.889" y1="14.274" x2="35.904" y2="12.774"/>
	<line fill="none" stroke="#FF0000" stroke-width="2" x1="45.178" y1="52.43" x2="42.07" y2="55.024"/>
	<line fill="none" stroke="#FF0000" stroke-width="2" x1="42.761" y1="47.769" x2="38.82" y2="49.274"/>
</g>
<g id="White">
	<polygon fill="#00FF00" points="54.4,39.148 58.537,38.359 47.659,46.977 54.568,34.941 	"/>
	<path fill="none" stroke="#00FF00" stroke-width="2" d="M12.333,21.667C7.5,24,4.917,28.25,4.917,28.25
		C1.583,35.5,4.25,38.083,4.25,38.083c4.25,4.25,10.5,2.877,10.5,2.877c6.917-0.457,15.667-9.794,15.667-9.794
		c10.916-13.333,20.25-12.833,20.25-12.833c10.667-0.083,10.583,6.666,10.583,6.666c0.5,7.416-6.85,14.149-6.85,14.149"/>
	<path fill="none" stroke="#00FF00" stroke-width="2" d="M42.584,9.416c-2.416,3.417-2.334,7.167-2.334,7.167
		c0.083,4.5,3,8.083,3,8.083c2.25,4.167,2.5,6.917,2.5,6.917c0.25,2.333-1.25,6.583-1.25,6.583c-1.167,3.75-1.583,6.583-1.583,6.583
		c-0.667,6,3.917,9.417,3.917,9.417"/>
	<path fill="none" stroke="#00FF00" stroke-width="2" d="M13.403,9.417c-2.416,3.416-2.334,7.166-2.334,7.166
		c0.083,4.5,3,8.084,3,8.084c2.25,4.167,2.5,6.917,2.5,6.917c0.25,2.333-1.25,6.583-1.25,6.583c-1.167,3.75-1.583,6.583-1.583,6.583
		c-0.667,6,3.917,9.417,3.917,9.417"/>
	<line fill="none" stroke="#00FF00" stroke-width="2" x1="12.304" y1="11.319" x2="8.75" y2="9.416"/>
	<line fill="none" stroke="#00FF00" stroke-width="2" x1="11.068" y1="14.75" x2="7.083" y2="13.25"/>
	<line fill="none" stroke="#00FF00" stroke-width="2" x1="16.357" y1="52.905" x2="13.25" y2="55.5"/>
	<line fill="none" stroke="#00FF00" stroke-width="2" x1="13.94" y1="48.244" x2="10" y2="49.75"/>
	<line fill="none" stroke="#00FF00" stroke-width="2" x1="41.125" y1="10.844" x2="37.57" y2="8.94"/>
	<line fill="none" stroke="#00FF00" stroke-width="2" x1="39.889" y1="14.274" x2="35.904" y2="12.774"/>
	<line fill="none" stroke="#00FF00" stroke-width="2" x1="45.178" y1="52.43" x2="42.07" y2="55.024"/>
	<line fill="none" stroke="#00FF00" stroke-width="2" x1="42.761" y1="47.769" x2="38.82" y2="49.274"/>
</g>
</svg>
