<svg width="64" height="64" xmlns="http://www.w3.org/2000/svg">

 <g>
  <title>background</title>
  <rect fill="none" id="canvas_background" height="402" width="582" y="-1" x="-1"/>
 </g>
 <g>
  <title>Layer 1</title>
  <g id="Blue">
   <path id="svg_1" d="m2,33.945494c0,0 0.052,-19.75 30.568,-20.917c0,0 27.1,-1.667 29.683,20.5c0,0 0.751,10.918 -10.083,15.001c0,0 -3.75,0.334 -6.167,0c0,0 -4.917,-1.166 -12,-1.5c0,0 -7,0.131 -12.083,1.648c0,0 -6.667,0.229 -8,0c-0.002,0 -11.919,-2.899 -11.918,-14.732z" stroke-width="2" stroke="#0000FF" fill="none"/>
  </g>
  <g id="Red">
   <path id="svg_3" d="m2,33.945496c0,0 0.052,-19.75 30.568,-20.917c0,0 27.1,-1.667 29.683,20.5c0,0 0.751,10.918 -10.083,15.001c0,0 -3.75,0.334 -6.167,0c0,0 -4.917,-1.166 -12,-1.5c0,0 -7,0.131 -12.083,1.648c0,0 -6.667,0.229 -8,0c-0.002,0 -11.919,-2.899 -11.918,-14.732z" stroke-width="2" stroke="#FF0000" fill="none"/>
  </g>
  <g id="White">
   <path id="svg_5" d="m2,33.945498c0,0 0.052,-19.75 30.568,-20.917c0,0 27.1,-1.667 29.683,20.5c0,0 0.751,10.918 -10.083,15.001c0,0 -3.75,0.334 -6.167,0c0,0 -4.917,-1.166 -12,-1.5c0,0 -7,0.131 -12.083,1.648c0,0 -6.667,0.229 -8,0c-0.002,0 -11.919,-2.899 -11.918,-14.732z" stroke-width="2" stroke="#00FF00" fill="none"/>
  </g>
 </g>
</svg>