<?xml version="1.0" encoding="utf-8"?>
<!-- Generator: Adobe Illustrator 14.0.0, SVG Export Plug-In . SVG Version: 6.00 Build 43363)  -->
<!DOCTYPE svg PUBLIC "-//W3C//DTD SVG 1.1//EN" "http://www.w3.org/Graphics/SVG/1.1/DTD/svg11.dtd">
<svg version="1.1" id="图层_1" xmlns="http://www.w3.org/2000/svg" xmlns:xlink="http://www.w3.org/1999/xlink" x="0px" y="0px"
	 width="64px" height="64px" viewBox="0 0 64 64" enable-background="new 0 0 64 64" xml:space="preserve">
<g id="Blue">
	<line fill="none" stroke="#0000FF" x1="23.583" y1="31.156" x2="9.333" y2="31.156"/>
	<line fill="none" stroke="#000100" x1="23.583" y1="32" x2="9.333" y2="32"/>
	<polygon fill="#000100" points="11.75,33.5 1.833,31.542 11.75,29.583 9.333,31.542 	"/>
	<rect x="23.583" y="22.386" fill="none" stroke="#0000FF" stroke-width="2" width="36.854" height="18.313"/>
	<path fill="none" stroke="#0000FF" stroke-width="2" d="M41.625,22.386c0,0,0.084-6.219,1.542-9.969c0,0,1.417-3.083,2.917-3.458"
		/>
	<path fill="none" stroke="#0000FF" stroke-width="2" d="M42.011,40.698c0,0,0.084,6.22,1.542,9.97c0,0,1.417,3.082,2.917,3.457"/>
	<circle fill="#000100" cx="34.813" cy="31.542" r="2.813"/>
	<circle fill="#000100" cx="48" cy="31.542" r="2.813"/>
</g>
<g id="Red">
	<line fill="none" stroke="#FF0000" x1="23.583" y1="31.156" x2="9.333" y2="31.156"/>
	<line fill="none" stroke="#000100" x1="23.583" y1="32" x2="9.333" y2="32"/>
	<polygon fill="#000100" points="11.75,33.5 1.833,31.542 11.75,29.583 9.333,31.542 	"/>
	<rect x="23.583" y="22.386" fill="none" stroke="#FF0000" stroke-width="2" width="36.854" height="18.313"/>
	<path fill="none" stroke="#FF0000" stroke-width="2" d="M41.625,22.386c0,0,0.084-6.219,1.542-9.969c0,0,1.417-3.083,2.917-3.458"
		/>
	<path fill="none" stroke="#FF0000" stroke-width="2" d="M42.011,40.698c0,0,0.084,6.22,1.542,9.97c0,0,1.417,3.082,2.917,3.457"/>
	<circle fill="#000100" cx="34.813" cy="31.542" r="2.813"/>
	<circle fill="#000100" cx="48" cy="31.542" r="2.813"/>
</g>
<g id="White">
	<line fill="none" stroke="#00FF00" x1="23.583" y1="31.156" x2="9.333" y2="31.156"/>
	<line fill="none" stroke="#000100" x1="23.583" y1="32" x2="9.333" y2="32"/>
	<polygon fill="#000100" points="11.75,33.5 1.833,31.542 11.75,29.583 9.333,31.542 	"/>
	<rect x="23.583" y="22.386" fill="none" stroke="#00FF00" stroke-width="2" width="36.854" height="18.313"/>
	<path fill="none" stroke="#00FF00" stroke-width="2" d="M41.625,22.386c0,0,0.084-6.219,1.542-9.969c0,0,1.417-3.083,2.917-3.458"
		/>
	<path fill="none" stroke="#00FF00" stroke-width="2" d="M42.011,40.698c0,0,0.084,6.22,1.542,9.97c0,0,1.417,3.082,2.917,3.457"/>
	<circle fill="#000100" cx="34.813" cy="31.542" r="2.813"/>
	<circle fill="#000100" cx="48" cy="31.542" r="2.813"/>
</g>
</svg>
