<?xml version="1.0" encoding="utf-8"?>
<!-- Generator: Adobe Illustrator 14.0.0, SVG Export Plug-In . SVG Version: 6.00 Build 43363)  -->
<!DOCTYPE svg PUBLIC "-//W3C//DTD SVG 1.1//EN" "http://www.w3.org/Graphics/SVG/1.1/DTD/svg11.dtd">
<svg version="1.1" id="图层_1" xmlns="http://www.w3.org/2000/svg" xmlns:xlink="http://www.w3.org/1999/xlink" x="0px" y="0px"
	 width="64px" height="64px" viewBox="0 0 64 64" enable-background="new 0 0 64 64" xml:space="preserve">
<g id="Blue">
	<line fill="none" stroke="#0000FF" stroke-width="2" x1="17.125" y1="25.625" x2="39.625" y2="25.625"/>
	<line fill="none" stroke="#0000FF" stroke-width="2" x1="17.188" y1="38.625" x2="39.688" y2="38.625"/>
	<line fill="none" stroke="#0000FF" stroke-width="2" x1="8" y1="32" x2="48.875" y2="32"/>
	<path fill="none" stroke="#0000FF" stroke-width="2" d="M2.226,27.392c0,0,4.274-25.516,31.149-25.516
		c0,0,23.924,1.158,28.399,25.516"/>
	<path fill="none" stroke="#0000FF" stroke-width="2" d="M2.226,36.731c0,0,4.274,25.517,31.149,25.517
		c0,0,23.924-1.158,28.399-25.517"/>
	<line fill="none" stroke="#0000FF" stroke-width="2" x1="48.875" y1="32" x2="55.125" y2="25.75"/>
	<line fill="none" stroke="#0000FF" stroke-width="2" x1="48.875" y1="32" x2="55.313" y2="38.438"/>
</g>
<g id="Red">
	<line fill="none" stroke="#FF0000" stroke-width="2" x1="17.125" y1="25.625" x2="39.625" y2="25.625"/>
	<line fill="none" stroke="#FF0000" stroke-width="2" x1="17.188" y1="38.625" x2="39.688" y2="38.625"/>
	<line fill="none" stroke="#FF0000" stroke-width="2" x1="8" y1="32" x2="48.875" y2="32"/>
	<path fill="none" stroke="#FF0000" stroke-width="2" d="M2.226,27.392c0,0,4.274-25.516,31.149-25.516
		c0,0,23.924,1.158,28.399,25.516"/>
	<path fill="none" stroke="#FF0000" stroke-width="2" d="M2.226,36.731c0,0,4.274,25.517,31.149,25.517
		c0,0,23.924-1.158,28.399-25.517"/>
	<line fill="none" stroke="#FF0000" stroke-width="2" x1="48.875" y1="32" x2="55.125" y2="25.75"/>
	<line fill="none" stroke="#FF0000" stroke-width="2" x1="48.875" y1="32" x2="55.313" y2="38.438"/>
</g>
<g id="White">
	<line fill="none" stroke="#00FF00" stroke-width="2" x1="17.125" y1="25.625" x2="39.625" y2="25.625"/>
	<line fill="none" stroke="#00FF00" stroke-width="2" x1="17.188" y1="38.625" x2="39.688" y2="38.625"/>
	<line fill="none" stroke="#00FF00" stroke-width="2" x1="8" y1="32" x2="48.875" y2="32"/>
	<path fill="none" stroke="#00FF00" stroke-width="2" d="M2.226,27.392c0,0,4.274-25.516,31.149-25.516
		c0,0,23.924,1.158,28.399,25.516"/>
	<path fill="none" stroke="#00FF00" stroke-width="2" d="M2.226,36.731c0,0,4.274,25.517,31.149,25.517
		c0,0,23.924-1.158,28.399-25.517"/>
	<line fill="none" stroke="#00FF00" stroke-width="2" x1="48.875" y1="32" x2="55.125" y2="25.75"/>
	<line fill="none" stroke="#00FF00" stroke-width="2" x1="48.875" y1="32" x2="55.313" y2="38.438"/>
</g>
</svg>
