<?xml version="1.0" encoding="utf-8"?>
<!-- Generator: Adobe Illustrator 14.0.0, SVG Export Plug-In . SVG Version: 6.00 Build 43363)  -->
<!DOCTYPE svg PUBLIC "-//W3C//DTD SVG 1.1//EN" "http://www.w3.org/Graphics/SVG/1.1/DTD/svg11.dtd">
<svg version="1.1" id="图层_1" xmlns="http://www.w3.org/2000/svg" xmlns:xlink="http://www.w3.org/1999/xlink" x="0px" y="0px"
	 width="64px" height="64px" viewBox="0 0 64 64" enable-background="new 0 0 64 64" xml:space="preserve">
<g id="Blue">
	<line fill="none" stroke="#0000FF" stroke-width="2" x1="31.929" y1="3.648" x2="1" y2="58.564"/>
	<line fill="none" stroke="#0000FF" stroke-width="2" x1="1" y1="58.564" x2="62.958" y2="58.564"/>
	<line fill="none" stroke="#0000FF" stroke-width="2" x1="62.958" y1="58.564" x2="31.929" y2="3.648"/>
	<polygon fill="#000100" points="22.467,49.097 15.367,46.828 22.467,44.622 21.531,46.833 	"/>
	<line fill="none" stroke="#0000FF" stroke-width="2" x1="21.531" y1="46.833" x2="49.167" y2="46.833"/>
	<line fill="none" stroke="#0000FF" stroke-width="2" x1="25.958" y1="40.791" x2="25.958" y2="52.416"/>
	<line fill="none" stroke="#000100" x1="25.5" y1="40.791" x2="25.5" y2="52.906"/>
	<line fill="none" stroke="#0000FF" stroke-width="2" x1="25.958" y1="52.416" x2="41.167" y2="52.416"/>
	<line fill="none" stroke="#000100" x1="25.5" y1="52.906" x2="41.167" y2="52.906"/>
	<line fill="none" stroke="#0000FF" stroke-width="2" x1="25.958" y1="40.791" x2="41.167" y2="40.791"/>
	<circle fill="none" stroke="#0000FF" cx="34.75" cy="46.859" r="3.979"/>
	<circle fill="none" stroke="#000000" cx="34.75" cy="46.859" r="4.188"/>
</g>
<g id="Red">
	<line fill="none" stroke="#FF0000" stroke-width="2" x1="31.929" y1="3.648" x2="1" y2="58.564"/>
	<line fill="none" stroke="#FF0000" stroke-width="2" x1="1" y1="58.564" x2="62.958" y2="58.564"/>
	<line fill="none" stroke="#FF0000" stroke-width="2" x1="62.958" y1="58.564" x2="31.929" y2="3.648"/>
	<polygon fill="#000100" points="22.467,49.097 15.367,46.828 22.467,44.622 21.531,46.833 	"/>
	<line fill="none" stroke="#FF0000" stroke-width="2" x1="21.531" y1="46.833" x2="49.167" y2="46.833"/>
	<line fill="none" stroke="#FF0000" stroke-width="2" x1="25.958" y1="40.791" x2="25.958" y2="52.416"/>
	<line fill="none" stroke="#000100" x1="25.5" y1="40.791" x2="25.5" y2="52.906"/>
	<line fill="none" stroke="#FF0000" stroke-width="2" x1="25.958" y1="52.416" x2="41.167" y2="52.416"/>
	<line fill="none" stroke="#000100" x1="25.5" y1="52.906" x2="41.167" y2="52.906"/>
	<line fill="none" stroke="#FF0000" stroke-width="2" x1="25.958" y1="40.791" x2="41.167" y2="40.791"/>
	<circle fill="none" stroke="#FF0000" cx="34.75" cy="46.859" r="3.979"/>
	<circle fill="none" stroke="#000000" cx="34.75" cy="46.859" r="4.188"/>
</g>
<g id="White">
	<line fill="none" stroke="#00FF00" stroke-width="2" x1="31.929" y1="3.648" x2="1" y2="58.564"/>
	<line fill="none" stroke="#00FF00" stroke-width="2" x1="1" y1="58.564" x2="62.958" y2="58.564"/>
	<line fill="none" stroke="#00FF00" stroke-width="2" x1="62.958" y1="58.564" x2="31.929" y2="3.648"/>
	<polygon fill="#000100" points="22.467,49.097 15.367,46.828 22.467,44.622 21.531,46.833 	"/>
	<line fill="none" stroke="#00FF00" stroke-width="2" x1="21.531" y1="46.833" x2="49.167" y2="46.833"/>
	<line fill="none" stroke="#00FF00" stroke-width="2" x1="25.958" y1="40.791" x2="25.958" y2="52.416"/>
	<line fill="none" stroke="#000100" x1="25.5" y1="40.791" x2="25.5" y2="52.906"/>
	<line fill="none" stroke="#00FF00" stroke-width="2" x1="25.958" y1="52.416" x2="41.167" y2="52.416"/>
	<line fill="none" stroke="#000100" x1="25.5" y1="52.906" x2="41.167" y2="52.906"/>
	<line fill="none" stroke="#00FF00" stroke-width="2" x1="25.958" y1="40.791" x2="41.167" y2="40.791"/>
	<circle fill="none" stroke="#00FF00" cx="34.75" cy="46.859" r="3.979"/>
	<circle fill="none" stroke="#000000" cx="34.75" cy="46.859" r="4.188"/>
</g>
</svg>
