<?xml version="1.0" encoding="utf-8"?>
<!-- Generator: Adobe Illustrator 14.0.0, SVG Export Plug-In . SVG Version: 6.00 Build 43363)  -->
<!DOCTYPE svg PUBLIC "-//W3C//DTD SVG 1.1//EN" "http://www.w3.org/Graphics/SVG/1.1/DTD/svg11.dtd">
<svg version="1.1" id="图层_1" xmlns="http://www.w3.org/2000/svg" xmlns:xlink="http://www.w3.org/1999/xlink" x="0px" y="0px"
	 width="64px" height="64px" viewBox="0 0 64 64" enable-background="new 0 0 64 64" xml:space="preserve">
<g id="Blue">
	<circle fill="none" stroke="#0000FF" stroke-width="2" cx="32" cy="32.563" r="29.313"/>
	<line fill="none" stroke="#0000FF" stroke-width="2" x1="26.875" y1="54.188" x2="37.5" y2="54.188"/>
	<line fill="none" stroke="#0000FF" stroke-width="2" x1="32.188" y1="54.188" x2="32.188" y2="13.875"/>
	<line fill="none" stroke="#0000FF" stroke-width="2" x1="37.313" y1="21.188" x2="37.313" y2="40.375"/>
	<line fill="none" stroke="#0000FF" stroke-width="2" x1="26.125" y1="21.188" x2="26.125" y2="40.375"/>
	<line fill="none" stroke="#000000" x1="26.625" y1="21.188" x2="26.625" y2="40.375"/>
	<line fill="none" stroke="#0000FF" stroke-width="2" x1="32.188" y1="44.375" x2="38.313" y2="50.938"/>
	<line fill="none" stroke="#0000FF" stroke-width="2" x1="32.188" y1="44.375" x2="26.125" y2="50.938"/>
	<polygon fill="#000100" points="32.188,13.875 30.25,15.438 32.188,8.563 34.25,15.438 	"/>
</g>
<g id="Red">
	<circle fill="none" stroke="#FF0000" stroke-width="2" cx="32" cy="32.563" r="29.313"/>
	<line fill="none" stroke="#FF0000" stroke-width="2" x1="26.875" y1="54.188" x2="37.5" y2="54.188"/>
	<line fill="none" stroke="#FF0000" stroke-width="2" x1="32.188" y1="54.188" x2="32.188" y2="13.875"/>
	<line fill="none" stroke="#FF0000" stroke-width="2" x1="37.313" y1="21.188" x2="37.313" y2="40.375"/>
	<line fill="none" stroke="#FF0000" stroke-width="2" x1="26.125" y1="21.188" x2="26.125" y2="40.375"/>
	<line fill="none" stroke="#000000" x1="26.625" y1="21.188" x2="26.625" y2="40.375"/>
	<line fill="none" stroke="#FF0000" stroke-width="2" x1="32.188" y1="44.375" x2="38.313" y2="50.938"/>
	<line fill="none" stroke="#FF0000" stroke-width="2" x1="32.188" y1="44.375" x2="26.125" y2="50.938"/>
	<polygon fill="#000100" points="32.188,13.875 30.25,15.438 32.188,8.563 34.25,15.438 	"/>
</g>
<g id="White">
	<circle fill="none" stroke="#00FF00" stroke-width="2" cx="32" cy="32.563" r="29.313"/>
	<line fill="none" stroke="#00FF00" stroke-width="2" x1="26.875" y1="54.188" x2="37.5" y2="54.188"/>
	<line fill="none" stroke="#00FF00" stroke-width="2" x1="32.188" y1="54.188" x2="32.188" y2="13.875"/>
	<line fill="none" stroke="#00FF00" stroke-width="2" x1="37.313" y1="21.188" x2="37.313" y2="40.375"/>
	<line fill="none" stroke="#00FF00" stroke-width="2" x1="26.125" y1="21.188" x2="26.125" y2="40.375"/>
	<line fill="none" stroke="#000000" x1="26.625" y1="21.188" x2="26.625" y2="40.375"/>
	<line fill="none" stroke="#00FF00" stroke-width="2" x1="32.188" y1="44.375" x2="38.313" y2="50.938"/>
	<line fill="none" stroke="#00FF00" stroke-width="2" x1="32.188" y1="44.375" x2="26.125" y2="50.938"/>
	<polygon fill="#000100" points="32.188,13.875 30.25,15.438 32.188,8.563 34.25,15.438 	"/>
</g>
</svg>
