<?xml version="1.0" encoding="utf-8"?>
<!-- Generator: Adobe Illustrator 14.0.0, SVG Export Plug-In . SVG Version: 6.00 Build 43363)  -->
<!DOCTYPE svg PUBLIC "-//W3C//DTD SVG 1.1//EN" "http://www.w3.org/Graphics/SVG/1.1/DTD/svg11.dtd">
<svg version="1.1" id="图层_1" xmlns="http://www.w3.org/2000/svg" xmlns:xlink="http://www.w3.org/1999/xlink" x="0px" y="0px"
	 width="64px" height="64px" viewBox="0 0 64 64" enable-background="new 0 0 64 64" xml:space="preserve">
<g id="Blue">
	<circle fill="none" stroke="#493B00" stroke-width="2" cx="32" cy="32.563" r="29.313"/>
	<circle fill="none" stroke="#FFFF00" cx="32" cy="32.563" r="27.847"/>
	<line fill="none" stroke="#FFFF00" stroke-width="2" x1="32.188" y1="56.5" x2="32.188" y2="13.875"/>
	<line fill="none" stroke="#000100" x1="32.667" y1="56.5" x2="32.667" y2="13.875"/>
	<line fill="none" stroke="#0000FF" stroke-width="2" x1="32.188" y1="45" x2="37.594" y2="52.591"/>
	<line fill="none" stroke="#0000FF" stroke-width="2" x1="32.188" y1="45" x2="26.406" y2="52.591"/>
	<line fill="none" stroke="#0000FF" stroke-width="2" x1="27.375" y1="56.5" x2="37.594" y2="56.5"/>
	<polygon fill="#000100" points="32.188,18.25 32.188,13.875 32.188,8.563 35.084,20.75 	"/>
</g>
<g id="Red">
	<circle fill="none" stroke="#493B00" stroke-width="2" cx="32" cy="32.563" r="29.313"/>
	<circle fill="none" stroke="#FFFF00" cx="32" cy="32.563" r="27.847"/>
	<line fill="none" stroke="#FFFF00" stroke-width="2" x1="32.188" y1="56.5" x2="32.188" y2="13.875"/>
	<line fill="none" stroke="#000100" x1="32.667" y1="56.5" x2="32.667" y2="13.875"/>
	<line fill="none" stroke="#FF0000" stroke-width="2" x1="32.188" y1="45" x2="37.594" y2="52.591"/>
	<line fill="none" stroke="#FF0000" stroke-width="2" x1="32.188" y1="45" x2="26.406" y2="52.591"/>
	<line fill="none" stroke="#FF0000" stroke-width="2" x1="27.375" y1="56.5" x2="37.594" y2="56.5"/>
	<polygon fill="#000100" points="32.188,18.25 32.188,13.875 32.188,8.563 35.084,20.75 	"/>
</g>
<g id="White">
	<circle fill="none" stroke="#493B00" stroke-width="2" cx="32" cy="32.563" r="29.313"/>
	<circle fill="none" stroke="#FFFF00" cx="32" cy="32.563" r="27.847"/>
	<line fill="none" stroke="#FFFF00" stroke-width="2" x1="32.188" y1="56.5" x2="32.188" y2="13.875"/>
	<line fill="none" stroke="#000100" x1="32.667" y1="56.5" x2="32.667" y2="13.875"/>
	<line fill="none" stroke="#00FF00" stroke-width="2" x1="32.188" y1="45" x2="37.594" y2="52.591"/>
	<line fill="none" stroke="#00FF00" stroke-width="2" x1="32.188" y1="45" x2="26.406" y2="52.591"/>
	<line fill="none" stroke="#00FF00" stroke-width="2" x1="27.375" y1="56.5" x2="37.594" y2="56.5"/>
	<polygon fill="#000100" points="32.188,18.25 32.188,13.875 32.188,8.563 35.084,20.75 	"/>
</g>
</svg>
