<?xml version="1.0" encoding="utf-8"?>
<!-- Generator: Adobe Illustrator 14.0.0, SVG Export Plug-In . SVG Version: 6.00 Build 43363)  -->
<!DOCTYPE svg PUBLIC "-//W3C//DTD SVG 1.1//EN" "http://www.w3.org/Graphics/SVG/1.1/DTD/svg11.dtd">
<svg version="1.1" id="图层_1" xmlns="http://www.w3.org/2000/svg" xmlns:xlink="http://www.w3.org/1999/xlink" x="0px" y="0px"
	 width="64px" height="64px" viewBox="0 0 64 64" enable-background="new 0 0 64 64" xml:space="preserve">
<g id="Blue">
	<line fill="none" stroke="#0000FF" stroke-width="2" x1="32.167" y1="23.174" x2="32.167" y2="53.004"/>
	<line fill="none" stroke="#0000FF" stroke-width="2" x1="31.929" y1="3.648" x2="1" y2="58.564"/>
	<line fill="none" stroke="#0000FF" stroke-width="2" x1="1" y1="58.564" x2="62.958" y2="58.564"/>
	<line fill="none" stroke="#0000FF" stroke-width="2" x1="62.958" y1="58.564" x2="31.929" y2="3.648"/>
	<polygon fill="#000100" points="32.135,23.15 29.456,24.283 32.128,15.684 34.877,24.283 	"/>
	<line fill="none" stroke="#000000" x1="27.625" y1="31.375" x2="27.625" y2="39.375"/>
	<line fill="none" stroke="#FFFF00" x1="27.375" y1="31.375" x2="27.375" y2="39.375"/>
	<line fill="none" stroke="#000000" x1="36.625" y1="31.375" x2="36.625" y2="39.375"/>
	<line fill="none" stroke="#FFFF00" x1="36.375" y1="31.375" x2="36.375" y2="39.375"/>
	<line fill="none" stroke="#0000FF" x1="27.666" y1="53.004" x2="36.666" y2="53.004"/>
	<line fill="none" stroke="#000100" x1="27.666" y1="53.484" x2="36.666" y2="53.484"/>
	<line fill="none" stroke="#000100" stroke-width="2" x1="31.929" y1="39.375" x2="25.813" y2="48.25"/>
	<line fill="none" stroke="#000100" stroke-width="2" x1="31.929" y1="39.375" x2="38.5" y2="48.25"/>
</g>
<g id="Red">
	<line fill="none" stroke="#FF0000" stroke-width="2" x1="32.167" y1="23.174" x2="32.167" y2="53.004"/>
	<line fill="none" stroke="#FF0000" stroke-width="2" x1="31.929" y1="3.648" x2="1" y2="58.564"/>
	<line fill="none" stroke="#FF0000" stroke-width="2" x1="1" y1="58.564" x2="62.958" y2="58.564"/>
	<line fill="none" stroke="#FF0000" stroke-width="2" x1="62.958" y1="58.564" x2="31.929" y2="3.648"/>
	<polygon fill="#000100" points="32.135,23.15 29.456,24.283 32.128,15.684 34.877,24.283 	"/>
	<line fill="none" stroke="#000000" x1="27.625" y1="31.375" x2="27.625" y2="39.375"/>
	<line fill="none" stroke="#FFFF00" x1="27.375" y1="31.375" x2="27.375" y2="39.375"/>
	<line fill="none" stroke="#000000" x1="36.625" y1="31.375" x2="36.625" y2="39.375"/>
	<line fill="none" stroke="#FFFF00" x1="36.375" y1="31.375" x2="36.375" y2="39.375"/>
	<line fill="none" stroke="#FF0000" x1="27.666" y1="53.004" x2="36.666" y2="53.004"/>
	<line fill="none" stroke="#000100" x1="27.666" y1="53.484" x2="36.666" y2="53.484"/>
	<line fill="none" stroke="#000100" stroke-width="2" x1="31.929" y1="39.375" x2="25.813" y2="48.25"/>
	<line fill="none" stroke="#000100" stroke-width="2" x1="31.929" y1="39.375" x2="38.5" y2="48.25"/>
</g>
<g id="White">
	<line fill="none" stroke="#00FF00" stroke-width="2" x1="32.167" y1="23.174" x2="32.167" y2="53.004"/>
	<line fill="none" stroke="#00FF00" stroke-width="2" x1="31.929" y1="3.648" x2="1" y2="58.564"/>
	<line fill="none" stroke="#00FF00" stroke-width="2" x1="1" y1="58.564" x2="62.958" y2="58.564"/>
	<line fill="none" stroke="#00FF00" stroke-width="2" x1="62.958" y1="58.564" x2="31.929" y2="3.648"/>
	<polygon fill="#000100" points="32.135,23.15 29.456,24.283 32.128,15.684 34.877,24.283 	"/>
	<line fill="none" stroke="#000000" x1="27.625" y1="31.375" x2="27.625" y2="39.375"/>
	<line fill="none" stroke="#FFFF00" x1="27.375" y1="31.375" x2="27.375" y2="39.375"/>
	<line fill="none" stroke="#000000" x1="36.625" y1="31.375" x2="36.625" y2="39.375"/>
	<line fill="none" stroke="#FFFF00" x1="36.375" y1="31.375" x2="36.375" y2="39.375"/>
	<line fill="none" stroke="#00FF00" x1="27.666" y1="53.004" x2="36.666" y2="53.004"/>
	<line fill="none" stroke="#000100" x1="27.666" y1="53.484" x2="36.666" y2="53.484"/>
	<line fill="none" stroke="#000100" stroke-width="2" x1="31.929" y1="39.375" x2="25.813" y2="48.25"/>
	<line fill="none" stroke="#000100" stroke-width="2" x1="31.929" y1="39.375" x2="38.5" y2="48.25"/>
</g>
</svg>
