<?xml version="1.0" encoding="utf-8"?>
<!-- Generator: Adobe Illustrator 14.0.0, SVG Export Plug-In . SVG Version: 6.00 Build 43363)  -->
<!DOCTYPE svg PUBLIC "-//W3C//DTD SVG 1.1//EN" "http://www.w3.org/Graphics/SVG/1.1/DTD/svg11.dtd">
<svg version="1.1" id="图层_1" xmlns="http://www.w3.org/2000/svg" xmlns:xlink="http://www.w3.org/1999/xlink" x="0px" y="0px"
	 width="64px" height="64px" viewBox="0 0 64 64" enable-background="new 0 0 64 64" xml:space="preserve">
<g id="Blue">
	<circle fill="none" stroke="#0000FF" stroke-width="2" cx="32" cy="32" r="30.125"/>
	<line fill="none" stroke="#0000FF" stroke-width="2" x1="17.125" y1="25.625" x2="39.625" y2="25.625"/>
	<line fill="none" stroke="#0000FF" stroke-width="2" x1="17.188" y1="38.625" x2="39.688" y2="38.625"/>
	<line fill="none" stroke="#0000FF" stroke-width="2" x1="8" y1="32" x2="48.875" y2="32"/>
	<circle fill="none" stroke="#514100" stroke-width="2" cx="53.625" cy="32" r="5.75"/>
	<line fill="none" stroke="#514100" stroke-width="2" x1="42.334" y1="27.833" x2="42.334" y2="36.667"/>
</g>
<g id="Red">
	<circle fill="none" stroke="#FF0000" stroke-width="2" cx="32" cy="32" r="30.125"/>
	<line fill="none" stroke="#FF0000" stroke-width="2" x1="17.125" y1="25.625" x2="39.625" y2="25.625"/>
	<line fill="none" stroke="#FF0000" stroke-width="2" x1="17.188" y1="38.625" x2="39.688" y2="38.625"/>
	<line fill="none" stroke="#FF0000" stroke-width="2" x1="8" y1="32" x2="48.875" y2="32"/>
	<circle fill="none" stroke="#514100" stroke-width="2" cx="53.625" cy="32" r="5.75"/>
	<line fill="none" stroke="#514100" stroke-width="2" x1="42.334" y1="27.833" x2="42.334" y2="36.667"/>
</g>
<g id="White">
	<circle fill="none" stroke="#00FF00" stroke-width="2" cx="32" cy="32" r="30.125"/>
	<line fill="none" stroke="#00FF00" stroke-width="2" x1="17.125" y1="25.625" x2="39.625" y2="25.625"/>
	<line fill="none" stroke="#00FF00" stroke-width="2" x1="17.188" y1="38.625" x2="39.688" y2="38.625"/>
	<line fill="none" stroke="#00FF00" stroke-width="2" x1="8" y1="32" x2="48.875" y2="32"/>
	<circle fill="none" stroke="#514100" stroke-width="2" cx="53.625" cy="32" r="5.75"/>
	<line fill="none" stroke="#514100" stroke-width="2" x1="42.334" y1="27.833" x2="42.334" y2="36.667"/>
</g>
</svg>
