<?xml version="1.0" encoding="utf-8"?>
<!-- Generator: Adobe Illustrator 14.0.0, SVG Export Plug-In . SVG Version: 6.00 Build 43363)  -->
<!DOCTYPE svg PUBLIC "-//W3C//DTD SVG 1.1//EN" "http://www.w3.org/Graphics/SVG/1.1/DTD/svg11.dtd">
<svg version="1.1" id="图层_1" xmlns="http://www.w3.org/2000/svg" xmlns:xlink="http://www.w3.org/1999/xlink" x="0px" y="0px"
	 width="64px" height="64px" viewBox="0 0 64 64" enable-background="new 0 0 64 64" xml:space="preserve">
<g id="Blue">
	<path fill="none" stroke="#0000FF" stroke-width="2" d="M2.688,35.984c0,0,3.313,24.75,29.313,25.875c0,0,23.845,1.5,29.108-25.875
		"/>
	<path fill="none" stroke="#FFFF00" stroke-width="2" d="M3.272,28.866c0,0,3.246-24.255,28.726-25.357
		c0,0,23.367-1.47,28.527,25.357"/>
	<path fill="none" stroke="#353100" stroke-width="2" d="M2.688,29.125C2.688,29.125,6,4.375,32,3.25c0,0,23.844-1.5,29.109,25.875"
		/>
	<line fill="none" stroke="#FFFF00" stroke-width="2" x1="14.979" y1="33.854" x2="57.604" y2="33.854"/>
	<line fill="none" stroke="#000100" x1="14.979" y1="34.333" x2="57.604" y2="34.333"/>
	<polygon fill="#000100" points="21.854,36.75 9.667,33.854 21.854,31.082 19.354,33.854 	"/>
	<line fill="none" stroke="#000100" stroke-width="2" x1="30.333" y1="26.832" x2="30.333" y2="40.999"/>
	<line fill="none" stroke="#FFFF00" x1="30.833" y1="26.833" x2="30.833" y2="40.999"/>
	<line fill="none" stroke="#000100" stroke-width="2" x1="51" y1="40.999" x2="30.333" y2="40.999"/>
	<line fill="none" stroke="#FFFF00" x1="51" y1="40.707" x2="30.333" y2="40.707"/>
	<line fill="none" stroke="#0000FF" stroke-width="2" x1="51" y1="26.832" x2="30.333" y2="26.832"/>
	<circle fill="none" stroke="#0000FF" stroke-width="2" cx="39.583" cy="33.978" r="6.042"/>
</g>
<g id="Red">
	<path fill="none" stroke="#FF0000" stroke-width="2" d="M2.688,35.984c0,0,3.313,24.75,29.313,25.875c0,0,23.845,1.5,29.108-25.875
		"/>
	<path fill="none" stroke="#FFFF00" stroke-width="2" d="M3.272,28.866c0,0,3.246-24.255,28.726-25.357
		c0,0,23.367-1.47,28.527,25.357"/>
	<path fill="none" stroke="#353100" stroke-width="2" d="M2.688,29.125C2.688,29.125,6,4.375,32,3.25c0,0,23.844-1.5,29.109,25.875"
		/>
	<line fill="none" stroke="#FFFF00" stroke-width="2" x1="14.979" y1="33.854" x2="57.604" y2="33.854"/>
	<line fill="none" stroke="#000100" x1="14.979" y1="34.333" x2="57.604" y2="34.333"/>
	<polygon fill="#000100" points="21.854,36.75 9.667,33.854 21.854,31.082 19.354,33.854 	"/>
	<line fill="none" stroke="#000100" stroke-width="2" x1="30.333" y1="26.832" x2="30.333" y2="40.999"/>
	<line fill="none" stroke="#FFFF00" x1="30.833" y1="26.833" x2="30.833" y2="40.999"/>
	<line fill="none" stroke="#000100" stroke-width="2" x1="51" y1="40.999" x2="30.333" y2="40.999"/>
	<line fill="none" stroke="#FFFF00" x1="51" y1="40.707" x2="30.333" y2="40.707"/>
	<line fill="none" stroke="#FF0000" stroke-width="2" x1="51" y1="26.832" x2="30.333" y2="26.832"/>
	<circle fill="none" stroke="#FF0000" stroke-width="2" cx="39.583" cy="33.978" r="6.042"/>
</g>
<g id="White">
	<path fill="none" stroke="#00FF00" stroke-width="2" d="M2.688,35.984c0,0,3.313,24.75,29.313,25.875c0,0,23.845,1.5,29.108-25.875
		"/>
	<path fill="none" stroke="#FFFF00" stroke-width="2" d="M3.272,28.866c0,0,3.246-24.255,28.726-25.357
		c0,0,23.367-1.47,28.527,25.357"/>
	<path fill="none" stroke="#353100" stroke-width="2" d="M2.688,29.125C2.688,29.125,6,4.375,32,3.25c0,0,23.844-1.5,29.109,25.875"
		/>
	<line fill="none" stroke="#FFFF00" stroke-width="2" x1="14.979" y1="33.854" x2="57.604" y2="33.854"/>
	<line fill="none" stroke="#000100" x1="14.979" y1="34.333" x2="57.604" y2="34.333"/>
	<polygon fill="#000100" points="21.854,36.75 9.667,33.854 21.854,31.082 19.354,33.854 	"/>
	<line fill="none" stroke="#000100" stroke-width="2" x1="30.333" y1="26.832" x2="30.333" y2="40.999"/>
	<line fill="none" stroke="#FFFF00" x1="30.833" y1="26.833" x2="30.833" y2="40.999"/>
	<line fill="none" stroke="#000100" stroke-width="2" x1="51" y1="40.999" x2="30.333" y2="40.999"/>
	<line fill="none" stroke="#FFFF00" x1="51" y1="40.707" x2="30.333" y2="40.707"/>
	<line fill="none" stroke="#00FF00" stroke-width="2" x1="51" y1="26.832" x2="30.333" y2="26.832"/>
	<circle fill="none" stroke="#00FF00" stroke-width="2" cx="39.583" cy="33.978" r="6.042"/>
</g>
</svg>
