<?xml version="1.0" encoding="utf-8"?>
<!-- Generator: Adobe Illustrator 14.0.0, SVG Export Plug-In . SVG Version: 6.00 Build 43363)  -->
<!DOCTYPE svg PUBLIC "-//W3C//DTD SVG 1.1//EN" "http://www.w3.org/Graphics/SVG/1.1/DTD/svg11.dtd">
<svg version="1.1" id="图层_1" xmlns="http://www.w3.org/2000/svg" xmlns:xlink="http://www.w3.org/1999/xlink" x="0px" y="0px"
	 width="64px" height="64px" viewBox="0 0 64 64" enable-background="new 0 0 64 64" xml:space="preserve">
<g id="Blue">
	<line fill="none" stroke="#000000" x1="32.819" y1="29.312" x2="32.819" y2="43.031"/>
	<line fill="none" stroke="#FFFF00" x1="32.288" y1="29.792" x2="32.288" y2="43.031"/>
	<line fill="none" stroke="#000000" x1="30.031" y1="33.375" x2="30.031" y2="38.5"/>
	<line fill="none" stroke="#FFFF00" x1="29.406" y1="33.375" x2="29.406" y2="38.5"/>
	<line fill="none" stroke="#000000" x1="35.563" y1="33.375" x2="35.563" y2="38.5"/>
	<line fill="none" stroke="#FFFF00" x1="34.844" y1="33.375" x2="34.844" y2="38.5"/>
	<line fill="none" stroke="#0000FF" stroke-width="2" x1="32.853" y1="21.125" x2="19.125" y2="45.5"/>
	<line fill="none" stroke="#0000FF" stroke-width="2" x1="19.125" y1="45.5" x2="46.625" y2="45.5"/>
	<line fill="none" stroke="#0000FF" stroke-width="2" x1="46.625" y1="45.5" x2="32.853" y2="21.125"/>
	<path fill="none" stroke="#0000FF" stroke-width="2" d="M19.125,28.875c0,0-6.375-7.625,0-18.25c0,0,4.325-6.75,13.163-6.75
		c0,0,8.462-0.75,13.462,7.5c0,0,5.125,10.272,0.125,17.5"/>
	<path fill="none" stroke="#0000FF" stroke-width="2" d="M45.875,28.875c0,0,15.75,0.25,15.75,16.625c0,0,0.375,17.25-19.875,13.875
		c0,0-5.875-2.5-8.875-6c0,0-5.875,8.125-14.375,8c0,0-13.25,0.375-15.875-13.5c0,0-1.375-11.066,8.125-17.221
		c0,0,2.5-1.654,8.375-1.779"/>
	<polygon fill="#000100" points="32.819,29.312 31.33,30.654 32.819,24.109 34.375,30.654 	"/>
</g>
<g id="Red">
	<line fill="none" stroke="#000000" x1="32.819" y1="29.312" x2="32.819" y2="43.031"/>
	<line fill="none" stroke="#FFFF00" x1="32.288" y1="29.792" x2="32.288" y2="43.031"/>
	<line fill="none" stroke="#000000" x1="30.031" y1="33.375" x2="30.031" y2="38.5"/>
	<line fill="none" stroke="#FFFF00" x1="29.406" y1="33.375" x2="29.406" y2="38.5"/>
	<line fill="none" stroke="#000000" x1="35.563" y1="33.375" x2="35.563" y2="38.5"/>
	<line fill="none" stroke="#FFFF00" x1="34.844" y1="33.375" x2="34.844" y2="38.5"/>
	<line fill="none" stroke="#FF0000" stroke-width="2" x1="32.853" y1="21.125" x2="19.125" y2="45.5"/>
	<line fill="none" stroke="#FF0000" stroke-width="2" x1="19.125" y1="45.5" x2="46.625" y2="45.5"/>
	<line fill="none" stroke="#FF0000" stroke-width="2" x1="46.625" y1="45.5" x2="32.853" y2="21.125"/>
	<path fill="none" stroke="#FF0000" stroke-width="2" d="M19.125,28.875c0,0-6.375-7.625,0-18.25c0,0,4.325-6.75,13.163-6.75
		c0,0,8.462-0.75,13.462,7.5c0,0,5.125,10.272,0.125,17.5"/>
	<path fill="none" stroke="#FF0000" stroke-width="2" d="M45.875,28.875c0,0,15.75,0.25,15.75,16.625c0,0,0.375,17.25-19.875,13.875
		c0,0-5.875-2.5-8.875-6c0,0-5.875,8.125-14.375,8c0,0-13.25,0.375-15.875-13.5c0,0-1.375-11.066,8.125-17.221
		c0,0,2.5-1.654,8.375-1.779"/>
	<polygon fill="#000100" points="32.819,29.312 31.33,30.654 32.819,24.109 34.375,30.654 	"/>
</g>
<g id="White">
	<line fill="none" stroke="#000000" x1="32.819" y1="29.312" x2="32.819" y2="43.031"/>
	<line fill="none" stroke="#FFFF00" x1="32.288" y1="29.792" x2="32.288" y2="43.031"/>
	<line fill="none" stroke="#000000" x1="30.031" y1="33.375" x2="30.031" y2="38.5"/>
	<line fill="none" stroke="#FFFF00" x1="29.406" y1="33.375" x2="29.406" y2="38.5"/>
	<line fill="none" stroke="#000000" x1="35.563" y1="33.375" x2="35.563" y2="38.5"/>
	<line fill="none" stroke="#FFFF00" x1="34.844" y1="33.375" x2="34.844" y2="38.5"/>
	<line fill="none" stroke="#00FF00" stroke-width="2" x1="32.853" y1="21.125" x2="19.125" y2="45.5"/>
	<line fill="none" stroke="#00FF00" stroke-width="2" x1="19.125" y1="45.5" x2="46.625" y2="45.5"/>
	<line fill="none" stroke="#00FF00" stroke-width="2" x1="46.625" y1="45.5" x2="32.853" y2="21.125"/>
	<path fill="none" stroke="#00FF00" stroke-width="2" d="M19.125,28.875c0,0-6.375-7.625,0-18.25c0,0,4.325-6.75,13.163-6.75
		c0,0,8.462-0.75,13.462,7.5c0,0,5.125,10.272,0.125,17.5"/>
	<path fill="none" stroke="#00FF00" stroke-width="2" d="M45.875,28.875c0,0,15.75,0.25,15.75,16.625c0,0,0.375,17.25-19.875,13.875
		c0,0-5.875-2.5-8.875-6c0,0-5.875,8.125-14.375,8c0,0-13.25,0.375-15.875-13.5c0,0-1.375-11.066,8.125-17.221
		c0,0,2.5-1.654,8.375-1.779"/>
	<polygon fill="#000100" points="32.819,29.312 31.33,30.654 32.819,24.109 34.375,30.654 	"/>
</g>
</svg>
