<?xml version="1.0" encoding="utf-8"?>
<!-- Generator: Adobe Illustrator 14.0.0, SVG Export Plug-In . SVG Version: 6.00 Build 43363)  -->
<!DOCTYPE svg PUBLIC "-//W3C//DTD SVG 1.1//EN" "http://www.w3.org/Graphics/SVG/1.1/DTD/svg11.dtd">
<svg version="1.1" id="图层_1" xmlns="http://www.w3.org/2000/svg" xmlns:xlink="http://www.w3.org/1999/xlink" x="0px" y="0px"
	 width="64px" height="64px" viewBox="0 0 64 64" enable-background="new 0 0 64 64" xml:space="preserve">
<g id="Blue">
	<line fill="none" stroke="#0000FF" stroke-width="2" x1="32" y1="7" x2="1.625" y2="57.875"/>
	<line fill="none" stroke="#0000FF" stroke-width="2" x1="1.625" y1="57.875" x2="61.875" y2="57.875"/>
	<line fill="none" stroke="#0000FF" stroke-width="2" x1="61.875" y1="57.875" x2="32" y2="7"/>
	<line fill="none" stroke="#0000FF" stroke-width="2" x1="21" y1="42.222" x2="35.375" y2="42.222"/>
	<line fill="none" stroke="#0000FF" stroke-width="2" x1="21" y1="50.5" x2="35.375" y2="50.5"/>
	<line fill="none" stroke="#0000FF" stroke-width="2" x1="16.813" y1="46.25" x2="40.75" y2="46.25"/>
	<path fill="none" stroke="#0000FF" stroke-width="2" d="M44.75,42.563c0,0-3.667-0.104-4,3.688c0,0-0.209,3.307,4,3.674"/>
</g>
<g id="Red">
	<line fill="none" stroke="#FF0000" stroke-width="2" x1="32" y1="7" x2="1.625" y2="57.875"/>
	<line fill="none" stroke="#FF0000" stroke-width="2" x1="1.625" y1="57.875" x2="61.875" y2="57.875"/>
	<line fill="none" stroke="#FF0000" stroke-width="2" x1="61.875" y1="57.875" x2="32" y2="7"/>
	<line fill="none" stroke="#FF0000" stroke-width="2" x1="21" y1="42.222" x2="35.375" y2="42.222"/>
	<line fill="none" stroke="#FF0000" stroke-width="2" x1="21" y1="50.5" x2="35.375" y2="50.5"/>
	<line fill="none" stroke="#FF0000" stroke-width="2" x1="16.813" y1="46.25" x2="40.75" y2="46.25"/>
	<path fill="none" stroke="#FF0000" stroke-width="2" d="M44.75,42.563c0,0-3.667-0.104-4,3.688c0,0-0.209,3.307,4,3.674"/>
</g>
<g id="White">
	<line fill="none" stroke="#00FF00" stroke-width="2" x1="32" y1="7" x2="1.625" y2="57.875"/>
	<line fill="none" stroke="#00FF00" stroke-width="2" x1="1.625" y1="57.875" x2="61.875" y2="57.875"/>
	<line fill="none" stroke="#00FF00" stroke-width="2" x1="61.875" y1="57.875" x2="32" y2="7"/>
	<line fill="none" stroke="#00FF00" stroke-width="2" x1="21" y1="42.222" x2="35.375" y2="42.222"/>
	<line fill="none" stroke="#00FF00" stroke-width="2" x1="21" y1="50.5" x2="35.375" y2="50.5"/>
	<line fill="none" stroke="#00FF00" stroke-width="2" x1="40.75" y1="46.25" x2="16.813" y2="46.25"/>
	<path fill="none" stroke="#00FF00" stroke-width="2" d="M44.75,42.563c0,0-3.667-0.104-4,3.688c0,0-0.209,3.307,4,3.674"/>
</g>
</svg>
