<?xml version="1.0" encoding="utf-8"?>
<!-- Generator: Adobe Illustrator 14.0.0, SVG Export Plug-In . SVG Version: 6.00 Build 43363)  -->
<!DOCTYPE svg PUBLIC "-//W3C//DTD SVG 1.1//EN" "http://www.w3.org/Graphics/SVG/1.1/DTD/svg11.dtd">
<svg version="1.1" id="图层_1" xmlns="http://www.w3.org/2000/svg" xmlns:xlink="http://www.w3.org/1999/xlink" x="0px" y="0px"
	 width="64px" height="64px" viewBox="0 0 64 64" enable-background="new 0 0 64 64" xml:space="preserve">
<g id="Blue">
	<circle fill="none" stroke="#0000FF" stroke-width="2" cx="32" cy="32" r="30.125"/>
	<line fill="none" stroke="#0000FF" stroke-width="2" x1="11.333" y1="32" x2="55.167" y2="32"/>
	<line fill="none" stroke="#0000FF" stroke-width="2" x1="20.667" y1="23.667" x2="20.667" y2="40.167"/>
	<line fill="none" stroke="#0000FF" stroke-width="2" x1="20.667" y1="23.667" x2="46.5" y2="23.667"/>
	<line fill="none" stroke="#0000FF" stroke-width="2" x1="20.667" y1="40.167" x2="46.5" y2="40.167"/>
</g>
<g id="Red">
	<circle fill="none" stroke="#FF0000" stroke-width="2" cx="32" cy="32" r="30.125"/>
	<line fill="none" stroke="#FF0000" stroke-width="2" x1="11.333" y1="32" x2="55.167" y2="32"/>
	<line fill="none" stroke="#FF0000" stroke-width="2" x1="20.667" y1="23.667" x2="20.667" y2="40.167"/>
	<line fill="none" stroke="#FF0000" stroke-width="2" x1="20.667" y1="23.667" x2="46.5" y2="23.667"/>
	<line fill="none" stroke="#FF0000" stroke-width="2" x1="20.667" y1="40.167" x2="46.5" y2="40.167"/>
</g>
<g id="White">
	<circle fill="none" stroke="#00FF00" stroke-width="2" cx="32" cy="32" r="30.125"/>
	<line fill="none" stroke="#00FF00" stroke-width="2" x1="11.333" y1="32" x2="55.167" y2="32"/>
	<line fill="none" stroke="#00FF00" stroke-width="2" x1="20.667" y1="23.667" x2="20.667" y2="40.167"/>
	<line fill="none" stroke="#00FF00" stroke-width="2" x1="20.667" y1="23.667" x2="46.5" y2="23.667"/>
	<line fill="none" stroke="#00FF00" stroke-width="2" x1="20.667" y1="40.167" x2="46.5" y2="40.167"/>
</g>
</svg>
