<?xml version="1.0" encoding="utf-8"?>
<!-- Generator: Adobe Illustrator 14.0.0, SVG Export Plug-In . SVG Version: 6.00 Build 43363)  -->
<!DOCTYPE svg PUBLIC "-//W3C//DTD SVG 1.1//EN" "http://www.w3.org/Graphics/SVG/1.1/DTD/svg11.dtd">
<svg version="1.1" id="图层_1" xmlns="http://www.w3.org/2000/svg" xmlns:xlink="http://www.w3.org/1999/xlink" x="0px" y="0px"
	 width="64px" height="64px" viewBox="0 0 64 64" enable-background="new 0 0 64 64" xml:space="preserve">
<g id="Blue">
	<polygon fill="#000100" points="31.938,25.26 29.166,27.76 31.938,15.573 34.834,27.76 	"/>
	<line fill="none" stroke="#FFFF00" x1="31.5" y1="25.654" x2="31.5" y2="52.375"/>
	<line fill="none" stroke="#000100" x1="31.938" y1="25.26" x2="31.938" y2="52.375"/>
	<line fill="none" stroke="#0000FF" stroke-width="2" x1="31.938" y1="40.125" x2="25.125" y2="48.125"/>
	<line fill="none" stroke="#0000FF" stroke-width="2" x1="31.938" y1="40.125" x2="38.375" y2="48.125"/>
	<line fill="none" stroke="#0000FF" stroke-width="2" x1="27.375" y1="52.375" x2="36.125" y2="52.375"/>
	<line fill="none" stroke="#FFFF00" x1="32" y1="7.875" x2="3.625" y2="56.5"/>
	<line fill="none" stroke="#FFFF00" x1="3.625" y1="56.5" x2="60.5" y2="56.5"/>
	<line fill="none" stroke="#FFFF00" x1="60.5" y1="56.5" x2="32" y2="7.875"/>
	<line fill="none" stroke="#000100" x1="31.997" y1="6.659" x2="2.203" y2="57.716"/>
	<line fill="none" stroke="#000100" x1="2.203" y1="57.716" x2="61.922" y2="57.716"/>
	<line fill="none" stroke="#000100" x1="61.922" y1="57.716" x2="31.997" y2="6.659"/>
</g>
<g id="Red">
	<polygon fill="#000100" points="31.938,25.26 29.166,27.76 31.938,15.573 34.834,27.76 	"/>
	<line fill="none" stroke="#FFFF00" x1="31.5" y1="25.654" x2="31.5" y2="52.375"/>
	<line fill="none" stroke="#000100" x1="31.938" y1="25.26" x2="31.938" y2="52.375"/>
	<line fill="none" stroke="#FF0000" stroke-width="2" x1="31.938" y1="40.125" x2="25.125" y2="48.125"/>
	<line fill="none" stroke="#FF0000" stroke-width="2" x1="31.938" y1="40.125" x2="38.375" y2="48.125"/>
	<line fill="none" stroke="#FF0000" stroke-width="2" x1="27.375" y1="52.375" x2="36.125" y2="52.375"/>
	<line fill="none" stroke="#FFFF00" x1="32" y1="7.875" x2="3.625" y2="56.5"/>
	<line fill="none" stroke="#FFFF00" x1="3.625" y1="56.5" x2="60.5" y2="56.5"/>
	<line fill="none" stroke="#FFFF00" x1="60.5" y1="56.5" x2="32" y2="7.875"/>
	<line fill="none" stroke="#000100" x1="31.997" y1="6.659" x2="2.203" y2="57.716"/>
	<line fill="none" stroke="#000100" x1="2.203" y1="57.716" x2="61.922" y2="57.716"/>
	<line fill="none" stroke="#000100" x1="61.922" y1="57.716" x2="31.997" y2="6.659"/>
</g>
<g id="White">
	<polygon fill="#000100" points="31.938,25.26 29.166,27.76 31.938,15.573 34.834,27.76 	"/>
	<line fill="none" stroke="#FFFF00" x1="31.5" y1="25.654" x2="31.5" y2="52.375"/>
	<line fill="none" stroke="#000100" x1="31.938" y1="25.26" x2="31.938" y2="52.375"/>
	<line fill="none" stroke="#00FF00" stroke-width="2" x1="31.938" y1="40.125" x2="25.125" y2="48.125"/>
	<line fill="none" stroke="#00FF00" stroke-width="2" x1="31.938" y1="40.125" x2="38.375" y2="48.125"/>
	<line fill="none" stroke="#00FF00" stroke-width="2" x1="27.375" y1="52.375" x2="36.125" y2="52.375"/>
	<line fill="none" stroke="#FFFF00" x1="32" y1="7.875" x2="3.625" y2="56.5"/>
	<line fill="none" stroke="#FFFF00" x1="3.625" y1="56.5" x2="60.5" y2="56.5"/>
	<line fill="none" stroke="#FFFF00" x1="60.5" y1="56.5" x2="32" y2="7.875"/>
	<line fill="none" stroke="#000100" x1="31.997" y1="6.659" x2="2.203" y2="57.716"/>
	<line fill="none" stroke="#000100" x1="2.203" y1="57.716" x2="61.922" y2="57.716"/>
	<line fill="none" stroke="#000100" x1="61.922" y1="57.716" x2="31.997" y2="6.659"/>
</g>
</svg>
