<?xml version="1.0" encoding="utf-8"?>
<!-- Generator: Adobe Illustrator 14.0.0, SVG Export Plug-In . SVG Version: 6.00 Build 43363)  -->
<!DOCTYPE svg PUBLIC "-//W3C//DTD SVG 1.1//EN" "http://www.w3.org/Graphics/SVG/1.1/DTD/svg11.dtd">
<svg version="1.1" id="图层_1" xmlns="http://www.w3.org/2000/svg" xmlns:xlink="http://www.w3.org/1999/xlink" x="0px" y="0px"
	 width="64px" height="64px" viewBox="0 0 64 64" enable-background="new 0 0 64 64" xml:space="preserve">
<g id="Blue">
	<circle fill="none" stroke="#0000FF" stroke-width="2" cx="32" cy="32.563" r="29.313"/>
	<line fill="none" stroke="#FFFF00" stroke-width="2" x1="57.604" y1="33.979" x2="14.979" y2="33.979"/>
	<line fill="none" stroke="#000100" x1="57.604" y1="33.499" x2="14.979" y2="33.499"/>
	<polygon fill="#000100" points="19.354,33.979 21.854,36.75 9.667,33.979 21.854,31.082 	"/>
	<line fill="none" stroke="#000100" stroke-width="2" x1="30.333" y1="26.833" x2="30.333" y2="41"/>
	<line fill="none" stroke="#FFFF00" x1="30.833" y1="26.833" x2="30.833" y2="40.999"/>
	<line fill="none" stroke="#000100" stroke-width="2" x1="30.333" y1="26.833" x2="51" y2="26.833"/>
	<line fill="none" stroke="#FFFF00" x1="30.333" y1="27.125" x2="51" y2="27.125"/>
	<line fill="none" stroke="#0000FF" stroke-width="2" x1="30.333" y1="41" x2="51" y2="41"/>
	<circle fill="none" stroke="#0000FF" stroke-width="2" cx="39.583" cy="33.978" r="6.042"/>
</g>
<g id="Red">
	<circle fill="none" stroke="#FF0000" stroke-width="2" cx="32" cy="32.563" r="29.313"/>
	<line fill="none" stroke="#FFFF00" stroke-width="2" x1="57.604" y1="33.979" x2="14.979" y2="33.979"/>
	<line fill="none" stroke="#000100" x1="57.604" y1="33.499" x2="14.979" y2="33.499"/>
	<polygon fill="#000100" points="19.354,33.979 21.854,36.75 9.667,33.979 21.854,31.082 	"/>
	<line fill="none" stroke="#000100" stroke-width="2" x1="30.333" y1="26.833" x2="30.333" y2="41"/>
	<line fill="none" stroke="#FFFF00" x1="30.833" y1="26.833" x2="30.833" y2="40.999"/>
	<line fill="none" stroke="#000100" stroke-width="2" x1="30.333" y1="26.833" x2="51" y2="26.833"/>
	<line fill="none" stroke="#FFFF00" x1="30.333" y1="27.125" x2="51" y2="27.125"/>
	<line fill="none" stroke="#FF0000" stroke-width="2" x1="30.333" y1="41" x2="51" y2="41"/>
	<circle fill="none" stroke="#FF0000" stroke-width="2" cx="39.583" cy="33.978" r="6.042"/>
</g>
<g id="White">
	<circle fill="none" stroke="#00FF00" stroke-width="2" cx="32" cy="32.563" r="29.313"/>
	<line fill="none" stroke="#FFFF00" stroke-width="2" x1="57.604" y1="33.979" x2="14.979" y2="33.979"/>
	<line fill="none" stroke="#000100" x1="57.604" y1="33.499" x2="14.979" y2="33.499"/>
	<polygon fill="#000100" points="19.354,33.979 21.854,36.75 9.667,33.979 21.854,31.082 	"/>
	<line fill="none" stroke="#000100" stroke-width="2" x1="30.333" y1="26.833" x2="30.333" y2="41"/>
	<line fill="none" stroke="#FFFF00" x1="30.833" y1="26.833" x2="30.833" y2="40.999"/>
	<line fill="none" stroke="#000100" stroke-width="2" x1="30.333" y1="26.833" x2="51" y2="26.833"/>
	<line fill="none" stroke="#FFFF00" x1="30.333" y1="27.125" x2="51" y2="27.125"/>
	<line fill="none" stroke="#00FF00" stroke-width="2" x1="30.333" y1="41" x2="51" y2="41"/>
	<circle fill="none" stroke="#00FF00" stroke-width="2" cx="39.583" cy="33.978" r="6.042"/>
</g>
</svg>
