<?xml version="1.0" encoding="utf-8"?>
<!-- Generator: Adobe Illustrator 14.0.0, SVG Export Plug-In . SVG Version: 6.00 Build 43363)  -->
<!DOCTYPE svg PUBLIC "-//W3C//DTD SVG 1.1//EN" "http://www.w3.org/Graphics/SVG/1.1/DTD/svg11.dtd">
<svg version="1.1" id="图层_1" xmlns="http://www.w3.org/2000/svg" xmlns:xlink="http://www.w3.org/1999/xlink" x="0px" y="0px"
	 width="64px" height="64px" viewBox="0 0 64 64" enable-background="new 0 0 64 64" xml:space="preserve">
<g id="Blue">
	<circle fill="none" stroke="#0000FF" stroke-width="2" cx="32" cy="32" r="30.125"/>
	<line fill="none" stroke="#4F4F4F" stroke-width="2" x1="32.083" y1="53.833" x2="32.083" y2="15.667"/>
	<line fill="none" stroke="#4F4F4F" stroke-width="2" x1="23.75" y1="48.5" x2="23.75" y2="22.666"/>
	<line fill="none" stroke="#4F4F4F" stroke-width="2" x1="40.25" y1="48.5" x2="40.25" y2="22.666"/>
	<polygon fill="#000100" points="36.087,19.251 32.087,15.646 28.253,19.251 32.087,7.251 	"/>
	<circle fill="none" stroke="#0000FF" stroke-width="2" cx="32.083" cy="34.583" r="7.583"/>
</g>
<g id="Red">
	<circle fill="none" stroke="#FF0000" stroke-width="2" cx="32" cy="32" r="30.125"/>
	<line fill="none" stroke="#4F4F4F" stroke-width="2" x1="32.083" y1="53.833" x2="32.083" y2="15.667"/>
	<line fill="none" stroke="#4F4F4F" stroke-width="2" x1="23.75" y1="48.5" x2="23.75" y2="22.666"/>
	<line fill="none" stroke="#4F4F4F" stroke-width="2" x1="40.25" y1="48.5" x2="40.25" y2="22.666"/>
	<circle fill="none" stroke="#FF0000" stroke-width="2" cx="32.083" cy="34.583" r="7.583"/>
	<polygon fill="#000100" points="36.087,19.251 32.087,15.646 28.253,19.251 32.087,7.251 	"/>
</g>
<g id="White">
	<circle fill="none" stroke="#00FF00" stroke-width="2" cx="32" cy="32" r="30.125"/>
	<line fill="none" stroke="#4F4F4F" stroke-width="2" x1="32.083" y1="53.833" x2="32.083" y2="15.667"/>
	<line fill="none" stroke="#4F4F4F" stroke-width="2" x1="23.75" y1="48.5" x2="23.75" y2="22.666"/>
	<line fill="none" stroke="#4F4F4F" stroke-width="2" x1="40.25" y1="48.5" x2="40.25" y2="22.666"/>
	<circle fill="none" stroke="#00FF00" stroke-width="2" cx="32.083" cy="34.583" r="7.583"/>
	<polygon fill="#000100" points="36.087,19.251 32.087,15.646 28.253,19.251 32.087,7.251 	"/>
</g>
</svg>
