<?xml version="1.0" encoding="utf-8"?>
<!-- Generator: Adobe Illustrator 14.0.0, SVG Export Plug-In . SVG Version: 6.00 Build 43363)  -->
<!DOCTYPE svg PUBLIC "-//W3C//DTD SVG 1.1//EN" "http://www.w3.org/Graphics/SVG/1.1/DTD/svg11.dtd">
<svg version="1.1" id="图层_1" xmlns="http://www.w3.org/2000/svg" xmlns:xlink="http://www.w3.org/1999/xlink" x="0px" y="0px"
	 width="64px" height="64px" viewBox="0 0 64 64" enable-background="new 0 0 64 64" xml:space="preserve">
<g id="Blue">
	<line fill="none" stroke="#4C3D00" stroke-width="2" x1="32.66" y1="49.791" x2="32.66" y2="22.412"/>
	<line fill="none" stroke="#4C3D00" stroke-width="2" x1="26.682" y1="45.965" x2="26.682" y2="27.433"/>
	<line fill="none" stroke="#4C3D00" stroke-width="2" x1="38.52" y1="45.965" x2="38.52" y2="27.433"/>
	<circle fill="none" stroke="#4C3D00" stroke-width="2" cx="32.66" cy="35.982" r="5.44"/>
	<polygon fill="#000100" points="35.533,24.983 32.663,22.396 29.913,24.983 32.663,16.374 	"/>
	<line fill="none" stroke="#0000FF" stroke-width="2" x1="32.723" y1="5.5" x2="2" y2="57.125"/>
	<line fill="none" stroke="#0000FF" stroke-width="2" x1="2" y1="57.125" x2="62.75" y2="57.125"/>
	<line fill="none" stroke="#0000FF" stroke-width="2" x1="62.75" y1="57.125" x2="32.723" y2="5.5"/>
</g>
<g id="Red">
	<line fill="none" stroke="#4C3D00" stroke-width="2" x1="32.66" y1="49.791" x2="32.66" y2="22.412"/>
	<line fill="none" stroke="#4C3D00" stroke-width="2" x1="26.682" y1="45.965" x2="26.682" y2="27.433"/>
	<line fill="none" stroke="#4C3D00" stroke-width="2" x1="38.52" y1="45.965" x2="38.52" y2="27.433"/>
	<circle fill="none" stroke="#4C3D00" stroke-width="2" cx="32.66" cy="35.982" r="5.44"/>
	<polygon fill="#000100" points="35.533,24.983 32.663,22.396 29.913,24.983 32.663,16.374 	"/>
	<line fill="none" stroke="#FF0000" stroke-width="2" x1="32.723" y1="5.5" x2="2" y2="57.125"/>
	<line fill="none" stroke="#FF0000" stroke-width="2" x1="2" y1="57.125" x2="62.75" y2="57.125"/>
	<line fill="none" stroke="#FF0000" stroke-width="2" x1="62.75" y1="57.125" x2="32.723" y2="5.5"/>
</g>
<g id="White">
	<line fill="none" stroke="#4C3D00" stroke-width="2" x1="32.66" y1="49.791" x2="32.66" y2="22.412"/>
	<line fill="none" stroke="#4C3D00" stroke-width="2" x1="26.682" y1="45.965" x2="26.682" y2="27.433"/>
	<line fill="none" stroke="#4C3D00" stroke-width="2" x1="38.52" y1="45.965" x2="38.52" y2="27.433"/>
	<circle fill="none" stroke="#4C3D00" stroke-width="2" cx="32.66" cy="35.982" r="5.44"/>
	<polygon fill="#000100" points="35.533,24.983 32.663,22.396 29.913,24.983 32.663,16.374 	"/>
	<line fill="none" stroke="#00FF00" stroke-width="2" x1="32.723" y1="5.5" x2="2" y2="57.125"/>
	<line fill="none" stroke="#00FF00" stroke-width="2" x1="2" y1="57.125" x2="62.75" y2="57.125"/>
	<line fill="none" stroke="#00FF00" stroke-width="2" x1="62.75" y1="57.125" x2="32.723" y2="5.5"/>
</g>
</svg>
