<?xml version="1.0" encoding="utf-8"?>
<!-- Generator: Adobe Illustrator 14.0.0, SVG Export Plug-In . SVG Version: 6.00 Build 43363)  -->
<!DOCTYPE svg PUBLIC "-//W3C//DTD SVG 1.1//EN" "http://www.w3.org/Graphics/SVG/1.1/DTD/svg11.dtd">
<svg version="1.1" id="图层_1" xmlns="http://www.w3.org/2000/svg" xmlns:xlink="http://www.w3.org/1999/xlink" x="0px" y="0px"
	 width="64px" height="64px" viewBox="0 0 64 64" enable-background="new 0 0 64 64" xml:space="preserve">
<g id="Blue">
	<circle fill="none" stroke="#0000FF" stroke-width="2" cx="32" cy="32.563" r="29.313"/>
	<line fill="none" stroke="#0000FF" stroke-width="2" x1="31.938" y1="15.26" x2="32" y2="57.167"/>
	<line fill="none" stroke="#0000FF" stroke-width="2" x1="32" y1="47.334" x2="26.833" y2="55.5"/>
	<line fill="none" stroke="#0000FF" stroke-width="2" x1="32" y1="47.334" x2="36.667" y2="55.5"/>
	<line fill="none" stroke="#000100" x1="31.938" y1="46.375" x2="26.258" y2="55.454"/>
	<line fill="none" stroke="#000100" x1="31.938" y1="46.375" x2="37.27" y2="55.497"/>
	<polygon fill="#000100" points="31.938,15.26 29.166,17.76 31.938,5.573 34.834,17.76 	"/>
</g>
<g id="Red">
	<circle fill="none" stroke="#FF0000" stroke-width="2" cx="32" cy="32.563" r="29.313"/>
	<line fill="none" stroke="#FF0000" stroke-width="2" x1="31.938" y1="15.26" x2="32" y2="57.167"/>
	<line fill="none" stroke="#FF0000" stroke-width="2" x1="32" y1="47.334" x2="26.833" y2="55.5"/>
	<line fill="none" stroke="#FF0000" stroke-width="2" x1="32" y1="47.334" x2="36.667" y2="55.5"/>
	<line fill="none" stroke="#000100" x1="31.938" y1="46.375" x2="26.258" y2="55.454"/>
	<line fill="none" stroke="#000100" x1="31.938" y1="46.375" x2="37.27" y2="55.497"/>
	<polygon fill="#000100" points="31.938,15.26 29.166,17.76 31.938,5.573 34.834,17.76 	"/>
</g>
<g id="White">
	<circle fill="none" stroke="#00FF00" stroke-width="2" cx="32" cy="32.563" r="29.313"/>
	<line fill="none" stroke="#00FF00" stroke-width="2" x1="31.938" y1="15.26" x2="32" y2="57.167"/>
	<line fill="none" stroke="#00FF00" stroke-width="2" x1="32" y1="47.334" x2="26.833" y2="55.5"/>
	<line fill="none" stroke="#00FF00" stroke-width="2" x1="32" y1="47.334" x2="36.667" y2="55.5"/>
	<line fill="none" stroke="#000100" x1="31.938" y1="46.375" x2="26.258" y2="55.454"/>
	<line fill="none" stroke="#000100" x1="31.938" y1="46.375" x2="37.27" y2="55.497"/>
	<polygon fill="#000100" points="31.938,15.26 29.166,17.76 31.938,5.573 34.834,17.76 	"/>
</g>
</svg>
