<?xml version="1.0" encoding="utf-8"?>
<!-- Generator: Adobe Illustrator 14.0.0, SVG Export Plug-In . SVG Version: 6.00 Build 43363)  -->
<!DOCTYPE svg PUBLIC "-//W3C//DTD SVG 1.1//EN" "http://www.w3.org/Graphics/SVG/1.1/DTD/svg11.dtd">
<svg version="1.1" id="图层_1" xmlns="http://www.w3.org/2000/svg" xmlns:xlink="http://www.w3.org/1999/xlink" x="0px" y="0px"
	 width="64px" height="64px" viewBox="0 0 64 64" enable-background="new 0 0 64 64" xml:space="preserve">
<g id="Blue">
	<line fill="none" stroke="#0000FF" stroke-width="2" x1="26.875" y1="54.188" x2="37.5" y2="54.188"/>
	<line fill="none" stroke="#0000FF" stroke-width="2" x1="32.188" y1="54.188" x2="32.188" y2="13.875"/>
	<line fill="none" stroke="#0000FF" stroke-width="2" x1="37.313" y1="21.188" x2="37.313" y2="40.375"/>
	<line fill="none" stroke="#0000FF" stroke-width="2" x1="26.125" y1="21.188" x2="26.125" y2="40.375"/>
	<line fill="none" stroke="#0000FF" stroke-width="2" x1="32.188" y1="44.375" x2="38.313" y2="50.938"/>
	<line fill="none" stroke="#0000FF" stroke-width="2" x1="32.188" y1="44.375" x2="26.125" y2="50.938"/>
	<polygon fill="#000100" points="32.188,13.875 30.25,15.438 32.188,8.563 34.25,15.438 	"/>
	<path fill="none" stroke="#0000FF" stroke-width="2" d="M2.688,35.985c0,0,3.313,24.75,29.313,25.875c0,0,23.844,1.5,29.109-25.875
		"/>
	<path fill="none" stroke="#0000FF" stroke-width="2" d="M2.688,29.125C2.688,29.125,6,4.375,32,3.25c0,0,23.844-1.5,29.109,25.875"
		/>
	<path fill="none" stroke="#000100" d="M1.811,29.513c0,0,3.412-25.492,30.192-26.651c0,0,24.56-1.545,29.982,26.651"/>
</g>
<g id="Red">
	<line fill="none" stroke="#FF0000" stroke-width="2" x1="26.875" y1="54.188" x2="37.5" y2="54.188"/>
	<line fill="none" stroke="#FF0000" stroke-width="2" x1="32.188" y1="54.188" x2="32.188" y2="13.875"/>
	<line fill="none" stroke="#FF0000" stroke-width="2" x1="37.313" y1="21.188" x2="37.313" y2="40.375"/>
	<line fill="none" stroke="#FF0000" stroke-width="2" x1="26.125" y1="21.188" x2="26.125" y2="40.375"/>
	<line fill="none" stroke="#FF0000" stroke-width="2" x1="32.188" y1="44.375" x2="38.313" y2="50.938"/>
	<line fill="none" stroke="#FF0000" stroke-width="2" x1="32.188" y1="44.375" x2="26.125" y2="50.938"/>
	<polygon fill="#000100" points="32.188,13.875 30.25,15.438 32.188,8.563 34.25,15.438 	"/>
	<path fill="none" stroke="#FF0000" stroke-width="2" d="M2.688,35.985c0,0,3.313,24.75,29.313,25.875c0,0,23.844,1.5,29.109-25.875
		"/>
	<path fill="none" stroke="#FF0000" stroke-width="2" d="M2.688,29.125C2.688,29.125,6,4.375,32,3.25c0,0,23.844-1.5,29.109,25.875"
		/>
	<path fill="none" stroke="#000100" d="M1.811,29.513c0,0,3.412-25.492,30.192-26.651c0,0,24.56-1.545,29.982,26.651"/>
</g>
<g id="White">
	<line fill="none" stroke="#00FF00" stroke-width="2" x1="26.875" y1="54.188" x2="37.5" y2="54.188"/>
	<line fill="none" stroke="#00FF00" stroke-width="2" x1="32.188" y1="54.188" x2="32.188" y2="13.875"/>
	<line fill="none" stroke="#00FF00" stroke-width="2" x1="37.313" y1="21.188" x2="37.313" y2="40.375"/>
	<line fill="none" stroke="#00FF00" stroke-width="2" x1="26.125" y1="21.188" x2="26.125" y2="40.375"/>
	<line fill="none" stroke="#00FF00" stroke-width="2" x1="32.188" y1="44.375" x2="38.313" y2="50.938"/>
	<line fill="none" stroke="#00FF00" stroke-width="2" x1="32.188" y1="44.375" x2="26.125" y2="50.938"/>
	<polygon fill="#000100" points="32.188,13.875 30.25,15.438 32.188,8.563 34.25,15.438 	"/>
	<path fill="none" stroke="#00FF00" stroke-width="2" d="M2.688,35.985c0,0,3.313,24.75,29.313,25.875c0,0,23.844,1.5,29.109-25.875
		"/>
	<path fill="none" stroke="#00FF00" stroke-width="2" d="M2.688,29.125C2.688,29.125,6,4.375,32,3.25c0,0,23.844-1.5,29.109,25.875"
		/>
	<path fill="none" stroke="#000100" d="M1.811,29.513c0,0,3.412-25.492,30.192-26.651c0,0,24.56-1.545,29.982,26.651"/>
</g>
</svg>
