<?xml version="1.0" encoding="utf-8"?>
<!-- Generator: Adobe Illustrator 14.0.0, SVG Export Plug-In . SVG Version: 6.00 Build 43363)  -->
<!DOCTYPE svg PUBLIC "-//W3C//DTD SVG 1.1//EN" "http://www.w3.org/Graphics/SVG/1.1/DTD/svg11.dtd">
<svg version="1.1" id="图层_1" xmlns="http://www.w3.org/2000/svg" xmlns:xlink="http://www.w3.org/1999/xlink" x="0px" y="0px"
	 width="64px" height="64px" viewBox="0 0 64 64" enable-background="new 0 0 64 64" xml:space="preserve">
<g id="Blue">
	<line fill="none" stroke="#0000FF" stroke-width="2" x1="31.929" y1="3.648" x2="1" y2="58.564"/>
	<line fill="none" stroke="#0000FF" stroke-width="2" x1="1" y1="58.564" x2="62.958" y2="58.564"/>
	<line fill="none" stroke="#0000FF" stroke-width="2" x1="62.958" y1="58.564" x2="31.929" y2="3.648"/>
	<polygon fill="#000100" points="29.691,23.326 31.961,16.226 34.167,23.326 31.956,22.39 	"/>
	<line fill="none" stroke="#0000FF" stroke-width="2" x1="31.956" y1="22.39" x2="31.956" y2="54.75"/>
	<line fill="none" stroke="#000000" x1="32.625" y1="22.39" x2="32.625" y2="54.75"/>
	<line fill="none" stroke="#0000FF" stroke-width="2" x1="31.929" y1="45.125" x2="25.625" y2="54.125"/>
	<line fill="none" stroke="#0000FF" stroke-width="2" x1="31.929" y1="44.813" x2="38.125" y2="54.438"/>
</g>
<g id="Red">
	<line fill="none" stroke="#FF0000" stroke-width="2" x1="31.929" y1="3.648" x2="1" y2="58.564"/>
	<line fill="none" stroke="#FF0000" stroke-width="2" x1="1" y1="58.564" x2="62.958" y2="58.564"/>
	<line fill="none" stroke="#FF0000" stroke-width="2" x1="62.958" y1="58.564" x2="31.929" y2="3.648"/>
	<polygon fill="#000100" points="29.691,23.326 31.961,16.226 34.167,23.326 31.956,22.39 	"/>
	<line fill="none" stroke="#FF0000" stroke-width="2" x1="31.956" y1="22.39" x2="31.956" y2="54.75"/>
	<line fill="none" stroke="#000000" x1="32.625" y1="22.39" x2="32.625" y2="54.75"/>
	<line fill="none" stroke="#FF0000" stroke-width="2" x1="31.929" y1="45.125" x2="25.625" y2="54.125"/>
	<line fill="none" stroke="#FF0000" stroke-width="2" x1="31.929" y1="44.813" x2="38.125" y2="54.438"/>
</g>
<g id="White">
	<line fill="none" stroke="#00FF00" stroke-width="2" x1="31.929" y1="3.648" x2="1" y2="58.564"/>
	<line fill="none" stroke="#00FF00" stroke-width="2" x1="1" y1="58.564" x2="62.958" y2="58.564"/>
	<line fill="none" stroke="#00FF00" stroke-width="2" x1="62.958" y1="58.564" x2="31.929" y2="3.648"/>
	<polygon fill="#000100" points="29.691,23.326 31.961,16.226 34.167,23.326 31.956,22.39 	"/>
	<line fill="none" stroke="#00FF00" stroke-width="2" x1="31.956" y1="22.39" x2="31.956" y2="54.75"/>
	<line fill="none" stroke="#000000" x1="32.625" y1="22.39" x2="32.625" y2="54.75"/>
	<line fill="none" stroke="#00FF00" stroke-width="2" x1="31.929" y1="45.125" x2="25.625" y2="54.125"/>
	<line fill="none" stroke="#00FF00" stroke-width="2" x1="31.929" y1="44.813" x2="38.125" y2="54.438"/>
</g>
</svg>
