<?xml version="1.0" encoding="utf-8"?>
<!-- Generator: Adobe Illustrator 14.0.0, SVG Export Plug-In . SVG Version: 6.00 Build 43363)  -->
<!DOCTYPE svg PUBLIC "-//W3C//DTD SVG 1.1//EN" "http://www.w3.org/Graphics/SVG/1.1/DTD/svg11.dtd">
<svg version="1.1" id="图层_1" xmlns="http://www.w3.org/2000/svg" xmlns:xlink="http://www.w3.org/1999/xlink" x="0px" y="0px"
	 width="64px" height="64px" viewBox="0 0 64 64" enable-background="new 0 0 64 64" xml:space="preserve">
<g id="Blue">
	<ellipse fill="none" stroke="#FFFF00" cx="43.125" cy="31.542" rx="17.06" ry="8.272"/>
	<ellipse fill="none" stroke="#3F383F" cx="43.125" cy="31.542" rx="17.958" ry="8.708"/>
	<path fill="none" stroke="#000100" stroke-width="2" d="M43.125,22.833c0,0,0.459-6.583,1.042-9.167c0,0,1-4.833,4.333-5.583"/>
	<path fill="none" stroke="#FFFF00" d="M43.484,22.833c0,0,0.459-6.583,1.042-9.167c0,0,1-4.833,4.333-5.583"/>
	<path fill="none" stroke="#0000FF" stroke-width="2" d="M43.125,40.25c0,0,0.459,7.334,1.792,10.084c0,0,1.584,3.834,3.667,4.5"/>
	<line fill="none" stroke="#0000FF" x1="49.75" y1="32" x2="33.5" y2="32"/>
	<line fill="none" stroke="#0000FF" x1="46.75" y1="29.333" x2="37.084" y2="29.333"/>
	<line fill="none" stroke="#0000FF" x1="46.75" y1="35" x2="37.084" y2="35"/>
	<line fill="none" stroke="#0000FF" stroke-width="2" x1="23.583" y1="31.542" x2="9.333" y2="31.542"/>
	<line fill="none" stroke="#FFFF00" x1="49.416" y1="29.333" x2="49.416" y2="35"/>
	<line fill="none" stroke="#3F383F" x1="49.75" y1="29.333" x2="49.75" y2="35"/>
	<polygon fill="#000100" points="11.75,33.5 1.833,31.542 11.75,29.583 9.333,31.542 	"/>
	<polygon fill="#FFFF00" points="8.775,32.325 4.809,31.542 8.775,30.758 7.809,31.542 	"/>
</g>
<g id="Red">
	<ellipse fill="none" stroke="#FFFF00" cx="43.125" cy="31.542" rx="17.06" ry="8.272"/>
	<ellipse fill="none" stroke="#3F383F" cx="43.125" cy="31.542" rx="17.958" ry="8.708"/>
	<path fill="none" stroke="#000100" stroke-width="2" d="M43.125,22.833c0,0,0.459-6.583,1.042-9.167c0,0,1-4.833,4.333-5.583"/>
	<path fill="none" stroke="#FFFF00" d="M43.484,22.833c0,0,0.459-6.583,1.042-9.167c0,0,1-4.833,4.333-5.583"/>
	<path fill="none" stroke="#FF0000" stroke-width="2" d="M43.125,40.25c0,0,0.459,7.334,1.792,10.084c0,0,1.584,3.834,3.667,4.5"/>
	<line fill="none" stroke="#FF0000" x1="49.75" y1="32" x2="33.5" y2="32"/>
	<line fill="none" stroke="#FF0000" x1="46.75" y1="29.333" x2="37.084" y2="29.333"/>
	<line fill="none" stroke="#FF0000" x1="46.75" y1="35" x2="37.084" y2="35"/>
	<line fill="none" stroke="#FF0000" stroke-width="2" x1="23.583" y1="31.542" x2="9.333" y2="31.542"/>
	<line fill="none" stroke="#FFFF00" x1="49.416" y1="29.333" x2="49.416" y2="35"/>
	<line fill="none" stroke="#3F383F" x1="49.75" y1="29.333" x2="49.75" y2="35"/>
	<polygon fill="#000100" points="11.75,33.5 1.833,31.542 11.75,29.583 9.333,31.542 	"/>
	<polygon fill="#FFFF00" points="8.775,32.325 4.809,31.542 8.775,30.758 7.809,31.542 	"/>
</g>
<g id="White">
	<ellipse fill="none" stroke="#FFFF00" cx="43.125" cy="31.542" rx="17.06" ry="8.272"/>
	<ellipse fill="none" stroke="#3F383F" cx="43.125" cy="31.542" rx="17.958" ry="8.708"/>
	<path fill="none" stroke="#000100" stroke-width="2" d="M43.125,22.833c0,0,0.459-6.583,1.042-9.167c0,0,1-4.833,4.333-5.583"/>
	<path fill="none" stroke="#FFFF00" d="M43.484,22.833c0,0,0.459-6.583,1.042-9.167c0,0,1-4.833,4.333-5.583"/>
	<path fill="none" stroke="#00FF00" stroke-width="2" d="M43.125,40.25c0,0,0.459,7.334,1.792,10.084c0,0,1.584,3.834,3.667,4.5"/>
	<line fill="none" stroke="#00FF00" x1="49.75" y1="32" x2="33.5" y2="32"/>
	<line fill="none" stroke="#00FF00" x1="46.75" y1="29.333" x2="37.084" y2="29.333"/>
	<line fill="none" stroke="#00FF00" x1="46.75" y1="35" x2="37.084" y2="35"/>
	<line fill="none" stroke="#00FF00" stroke-width="2" x1="23.583" y1="31.542" x2="9.333" y2="31.542"/>
	<line fill="none" stroke="#FFFF00" x1="49.416" y1="29.333" x2="49.416" y2="35"/>
	<line fill="none" stroke="#3F383F" x1="49.75" y1="29.333" x2="49.75" y2="35"/>
	<polygon fill="#000100" points="11.75,33.5 1.833,31.542 11.75,29.583 9.333,31.542 	"/>
	<polygon fill="#FFFF00" points="8.775,32.325 4.809,31.542 8.775,30.758 7.809,31.542 	"/>
</g>
</svg>
