<?xml version="1.0" encoding="utf-8"?>
<!-- Generator: Adobe Illustrator 14.0.0, SVG Export Plug-In . SVG Version: 6.00 Build 43363)  -->
<!DOCTYPE svg PUBLIC "-//W3C//DTD SVG 1.1//EN" "http://www.w3.org/Graphics/SVG/1.1/DTD/svg11.dtd">
<svg version="1.1" id="图层_1" xmlns="http://www.w3.org/2000/svg" xmlns:xlink="http://www.w3.org/1999/xlink" x="0px" y="0px"
	 width="64px" height="64px" viewBox="0 0 64 64" enable-background="new 0 0 64 64" xml:space="preserve">
<g id="Blue">
	<ellipse fill="none" stroke="#FFFF00" cx="43.125" cy="31.542" rx="17.06" ry="8.272"/>
	<ellipse fill="none" stroke="#3F383F" cx="43.125" cy="31.542" rx="17.958" ry="8.708"/>
	<line fill="none" stroke="#0000FF" x1="49.75" y1="32" x2="33.5" y2="32"/>
	<line fill="none" stroke="#0000FF" x1="46.75" y1="29.333" x2="37.084" y2="29.333"/>
	<line fill="none" stroke="#0000FF" x1="46.75" y1="35" x2="37.084" y2="35"/>
	<line fill="none" stroke="#FFFF00" x1="23.583" y1="31.328" x2="9.333" y2="31.328"/>
	<line fill="none" stroke="#000100" x1="23.583" y1="31.542" x2="9.333" y2="31.542"/>
	<line fill="none" stroke="#FFFF00" x1="49.416" y1="29.333" x2="49.416" y2="35"/>
	<line fill="none" stroke="#3F383F" x1="49.75" y1="29.333" x2="49.75" y2="35"/>
	<polygon fill="#000100" points="11.75,33.5 1.833,31.542 11.75,29.583 9.333,31.542 	"/>
	<line fill="none" stroke="#3F383F" x1="43.125" y1="22.833" x2="43.358" y2="19.967"/>
	<line fill="none" stroke="#3F383F" x1="43.572" y1="17.782" x2="43.942" y2="14.881"/>
	<line fill="none" stroke="#3F383F" x1="44.167" y1="13.667" x2="44.783" y2="11.8"/>
	<line fill="none" stroke="#3F383F" x1="45.405" y1="10.581" x2="46.14" y2="9.571"/>
	<line fill="none" stroke="#3F383F" x1="47.212" y1="8.631" x2="48.5" y2="8.083"/>
	<line fill="none" stroke="#3F383F" x1="43.125" y1="40.25" x2="43.358" y2="43.115"/>
	<line fill="none" stroke="#3F383F" x1="43.572" y1="45.301" x2="43.942" y2="48.202"/>
	<line fill="none" stroke="#3F383F" x1="44.167" y1="49.416" x2="44.783" y2="51.283"/>
	<line fill="none" stroke="#3F383F" x1="45.405" y1="52.502" x2="46.14" y2="53.512"/>
	<line fill="none" stroke="#3F383F" x1="47.212" y1="54.452" x2="48.5" y2="55"/>
</g>
<g id="Red">
	<ellipse fill="none" stroke="#FFFF00" cx="43.125" cy="31.542" rx="17.06" ry="8.272"/>
	<ellipse fill="none" stroke="#3F383F" cx="43.125" cy="31.542" rx="17.958" ry="8.708"/>
	<line fill="none" stroke="#FF0000" x1="49.75" y1="32" x2="33.5" y2="32"/>
	<line fill="none" stroke="#FF0000" x1="46.75" y1="29.333" x2="37.084" y2="29.333"/>
	<line fill="none" stroke="#FF0000" x1="46.75" y1="35" x2="37.084" y2="35"/>
	<line fill="none" stroke="#FFFF00" x1="23.583" y1="31.328" x2="9.333" y2="31.328"/>
	<line fill="none" stroke="#000100" x1="23.583" y1="31.542" x2="9.333" y2="31.542"/>
	<line fill="none" stroke="#FFFF00" x1="49.416" y1="29.333" x2="49.416" y2="35"/>
	<line fill="none" stroke="#3F383F" x1="49.75" y1="29.333" x2="49.75" y2="35"/>
	<polygon fill="#000100" points="11.75,33.5 1.833,31.542 11.75,29.583 9.333,31.542 	"/>
	<line fill="none" stroke="#3F383F" x1="43.125" y1="22.833" x2="43.358" y2="19.967"/>
	<line fill="none" stroke="#3F383F" x1="43.572" y1="17.782" x2="43.942" y2="14.881"/>
	<line fill="none" stroke="#3F383F" x1="44.167" y1="13.667" x2="44.783" y2="11.8"/>
	<line fill="none" stroke="#3F383F" x1="45.405" y1="10.581" x2="46.14" y2="9.571"/>
	<line fill="none" stroke="#3F383F" x1="47.212" y1="8.631" x2="48.5" y2="8.083"/>
	<line fill="none" stroke="#3F383F" x1="43.125" y1="40.25" x2="43.358" y2="43.115"/>
	<line fill="none" stroke="#3F383F" x1="43.572" y1="45.301" x2="43.942" y2="48.202"/>
	<line fill="none" stroke="#3F383F" x1="44.167" y1="49.416" x2="44.783" y2="51.283"/>
	<line fill="none" stroke="#3F383F" x1="45.405" y1="52.502" x2="46.14" y2="53.512"/>
	<line fill="none" stroke="#3F383F" x1="47.212" y1="54.452" x2="48.5" y2="55"/>
</g>
<g id="White">
	<ellipse fill="none" stroke="#FFFF00" cx="43.125" cy="31.542" rx="17.06" ry="8.272"/>
	<ellipse fill="none" stroke="#3F383F" cx="43.125" cy="31.542" rx="17.958" ry="8.708"/>
	<line fill="none" stroke="#00FF00" x1="49.75" y1="32" x2="33.5" y2="32"/>
	<line fill="none" stroke="#00FF00" x1="46.75" y1="29.333" x2="37.084" y2="29.333"/>
	<line fill="none" stroke="#00FF00" x1="46.75" y1="35" x2="37.084" y2="35"/>
	<line fill="none" stroke="#FFFF00" x1="23.583" y1="31.328" x2="9.333" y2="31.328"/>
	<line fill="none" stroke="#000100" x1="23.583" y1="31.542" x2="9.333" y2="31.542"/>
	<line fill="none" stroke="#FFFF00" x1="49.416" y1="29.333" x2="49.416" y2="35"/>
	<line fill="none" stroke="#3F383F" x1="49.75" y1="29.333" x2="49.75" y2="35"/>
	<polygon fill="#000100" points="11.75,33.5 1.833,31.542 11.75,29.583 9.333,31.542 	"/>
	<line fill="none" stroke="#3F383F" x1="43.125" y1="22.833" x2="43.358" y2="19.967"/>
	<line fill="none" stroke="#3F383F" x1="43.572" y1="17.782" x2="43.942" y2="14.881"/>
	<line fill="none" stroke="#3F383F" x1="44.167" y1="13.667" x2="44.783" y2="11.8"/>
	<line fill="none" stroke="#3F383F" x1="45.405" y1="10.581" x2="46.14" y2="9.571"/>
	<line fill="none" stroke="#3F383F" x1="47.212" y1="8.631" x2="48.5" y2="8.083"/>
	<line fill="none" stroke="#3F383F" x1="43.125" y1="40.25" x2="43.358" y2="43.115"/>
	<line fill="none" stroke="#3F383F" x1="43.572" y1="45.301" x2="43.942" y2="48.202"/>
	<line fill="none" stroke="#3F383F" x1="44.167" y1="49.416" x2="44.783" y2="51.283"/>
	<line fill="none" stroke="#3F383F" x1="45.405" y1="52.502" x2="46.14" y2="53.512"/>
	<line fill="none" stroke="#3F383F" x1="47.212" y1="54.452" x2="48.5" y2="55"/>
</g>
</svg>
