<?xml version="1.0" encoding="utf-8"?>
<!-- Generator: Adobe Illustrator 14.0.0, SVG Export Plug-In . SVG Version: 6.00 Build 43363)  -->
<!DOCTYPE svg PUBLIC "-//W3C//DTD SVG 1.1//EN" "http://www.w3.org/Graphics/SVG/1.1/DTD/svg11.dtd">
<svg version="1.1" id="图层_1" xmlns="http://www.w3.org/2000/svg" xmlns:xlink="http://www.w3.org/1999/xlink" x="0px" y="0px"
	 width="64px" height="64px" viewBox="0 0 64 64" enable-background="new 0 0 64 64" xml:space="preserve">
<g id="Blue">
	<circle fill="none" stroke="#FFFF00" cx="10.417" cy="31.035" r="8.391"/>
	<circle fill="none" stroke="#423D00" cx="10.417" cy="31.035" r="8.833"/>
	<line fill="none" stroke="#423D00" x1="10.25" y1="25.125" x2="10.25" y2="35.781"/>
	<line fill="none" stroke="#FFFF00" x1="9.75" y1="25.125" x2="9.75" y2="35.781"/>
	<line fill="none" stroke="#423D00" x1="8.469" y1="27.25" x2="8.469" y2="33.313"/>
	<line fill="none" stroke="#FFFF00" x1="7.969" y1="27.25" x2="7.969" y2="33.313"/>
	<line fill="none" stroke="#423D00" x1="12.219" y1="27.25" x2="12.219" y2="33.313"/>
	<line fill="none" stroke="#FFFF00" x1="11.719" y1="27.25" x2="11.719" y2="33.313"/>
	<line fill="none" stroke="#0000FF" x1="7.781" y1="35.781" x2="12.75" y2="35.781"/>
	<circle fill="none" stroke="#0000FF" stroke-width="2" cx="32.62" cy="31.035" r="8.833"/>
	<line fill="none" stroke="#423D00" x1="32.453" y1="25.125" x2="32.453" y2="35.781"/>
	<line fill="none" stroke="#FFFF00" x1="31.953" y1="25.125" x2="31.953" y2="35.781"/>
	<line fill="none" stroke="#423D00" x1="30.672" y1="27.25" x2="30.672" y2="33.313"/>
	<line fill="none" stroke="#FFFF00" x1="30.172" y1="27.25" x2="30.172" y2="33.313"/>
	<line fill="none" stroke="#423D00" x1="34.422" y1="27.25" x2="34.422" y2="33.313"/>
	<line fill="none" stroke="#FFFF00" x1="33.922" y1="27.25" x2="33.922" y2="33.313"/>
	<line fill="none" stroke="#0000FF" x1="29.984" y1="35.781" x2="34.953" y2="35.781"/>
	<circle fill="none" stroke="#0000FF" stroke-width="2" cx="54.259" cy="31.035" r="8.833"/>
	<line fill="none" stroke="#423D00" x1="54.093" y1="25.125" x2="54.093" y2="35.781"/>
	<line fill="none" stroke="#FFFF00" x1="53.593" y1="25.125" x2="53.593" y2="35.781"/>
	<line fill="none" stroke="#423D00" x1="52.312" y1="27.25" x2="52.312" y2="33.313"/>
	<line fill="none" stroke="#FFFF00" x1="51.812" y1="27.25" x2="51.812" y2="33.313"/>
	<line fill="none" stroke="#423D00" x1="56.062" y1="27.25" x2="56.062" y2="33.313"/>
	<line fill="none" stroke="#FFFF00" x1="55.562" y1="27.25" x2="55.562" y2="33.313"/>
	<line fill="none" stroke="#423D00" x1="51.624" y1="36" x2="56.593" y2="36"/>
	<line fill="none" stroke="#FFFF00" x1="51.624" y1="35.5" x2="56.593" y2="35.5"/>
	<line fill="none" stroke="#423D00" x1="10.25" y1="22.201" x2="54.26" y2="22.201"/>
	<line fill="none" stroke="#FFFF00" x1="10.25" y1="21.701" x2="54.26" y2="21.701"/>
	<line fill="none" stroke="#423D00" x1="10.25" y1="40.367" x2="54.26" y2="40.367"/>
	<line fill="none" stroke="#FFFF00" x1="10.25" y1="39.867" x2="54.26" y2="39.867"/>
</g>
<g id="Red">
	<circle fill="none" stroke="#FFFF00" cx="10.417" cy="31.035" r="8.391"/>
	<circle fill="none" stroke="#423D00" cx="10.417" cy="31.035" r="8.833"/>
	<line fill="none" stroke="#423D00" x1="10.25" y1="25.125" x2="10.25" y2="35.781"/>
	<line fill="none" stroke="#FFFF00" x1="9.75" y1="25.125" x2="9.75" y2="35.781"/>
	<line fill="none" stroke="#423D00" x1="8.469" y1="27.25" x2="8.469" y2="33.313"/>
	<line fill="none" stroke="#FFFF00" x1="7.969" y1="27.25" x2="7.969" y2="33.313"/>
	<line fill="none" stroke="#423D00" x1="12.219" y1="27.25" x2="12.219" y2="33.313"/>
	<line fill="none" stroke="#FFFF00" x1="11.719" y1="27.25" x2="11.719" y2="33.313"/>
	<line fill="none" stroke="#FF0000" x1="7.781" y1="35.781" x2="12.75" y2="35.781"/>
	<circle fill="none" stroke="#FF0000" stroke-width="2" cx="32.62" cy="31.035" r="8.833"/>
	<line fill="none" stroke="#423D00" x1="32.453" y1="25.125" x2="32.453" y2="35.781"/>
	<line fill="none" stroke="#FFFF00" x1="31.953" y1="25.125" x2="31.953" y2="35.781"/>
	<line fill="none" stroke="#423D00" x1="30.672" y1="27.25" x2="30.672" y2="33.313"/>
	<line fill="none" stroke="#FFFF00" x1="30.172" y1="27.25" x2="30.172" y2="33.313"/>
	<line fill="none" stroke="#423D00" x1="34.422" y1="27.25" x2="34.422" y2="33.313"/>
	<line fill="none" stroke="#FFFF00" x1="33.922" y1="27.25" x2="33.922" y2="33.313"/>
	<line fill="none" stroke="#FF0000" x1="29.984" y1="35.781" x2="34.953" y2="35.781"/>
	<circle fill="none" stroke="#FF0000" stroke-width="2" cx="54.259" cy="31.035" r="8.833"/>
	<line fill="none" stroke="#423D00" x1="54.093" y1="25.125" x2="54.093" y2="35.781"/>
	<line fill="none" stroke="#FFFF00" x1="53.593" y1="25.125" x2="53.593" y2="35.781"/>
	<line fill="none" stroke="#423D00" x1="52.312" y1="27.25" x2="52.312" y2="33.313"/>
	<line fill="none" stroke="#FFFF00" x1="51.812" y1="27.25" x2="51.812" y2="33.313"/>
	<line fill="none" stroke="#423D00" x1="56.062" y1="27.25" x2="56.062" y2="33.313"/>
	<line fill="none" stroke="#FFFF00" x1="55.562" y1="27.25" x2="55.562" y2="33.313"/>
	<line fill="none" stroke="#423D00" x1="51.624" y1="36" x2="56.593" y2="36"/>
	<line fill="none" stroke="#FFFF00" x1="51.624" y1="35.5" x2="56.593" y2="35.5"/>
	<line fill="none" stroke="#423D00" x1="10.25" y1="22.201" x2="54.26" y2="22.201"/>
	<line fill="none" stroke="#FFFF00" x1="10.25" y1="21.701" x2="54.26" y2="21.701"/>
	<line fill="none" stroke="#423D00" x1="10.25" y1="40.367" x2="54.26" y2="40.367"/>
	<line fill="none" stroke="#FFFF00" x1="10.25" y1="39.867" x2="54.26" y2="39.867"/>
</g>
<g id="White">
	<circle fill="none" stroke="#FFFF00" cx="10.417" cy="31.035" r="8.391"/>
	<circle fill="none" stroke="#423D00" cx="10.417" cy="31.035" r="8.833"/>
	<line fill="none" stroke="#423D00" x1="10.25" y1="25.125" x2="10.25" y2="35.781"/>
	<line fill="none" stroke="#FFFF00" x1="9.75" y1="25.125" x2="9.75" y2="35.781"/>
	<line fill="none" stroke="#423D00" x1="8.469" y1="27.25" x2="8.469" y2="33.313"/>
	<line fill="none" stroke="#FFFF00" x1="7.969" y1="27.25" x2="7.969" y2="33.313"/>
	<line fill="none" stroke="#423D00" x1="12.219" y1="27.25" x2="12.219" y2="33.313"/>
	<line fill="none" stroke="#FFFF00" x1="11.719" y1="27.25" x2="11.719" y2="33.313"/>
	<line fill="none" stroke="#00FF00" x1="7.781" y1="35.781" x2="12.75" y2="35.781"/>
	<circle fill="none" stroke="#00FF00" stroke-width="2" cx="32.62" cy="31.035" r="8.833"/>
	<line fill="none" stroke="#423D00" x1="32.453" y1="25.125" x2="32.453" y2="35.781"/>
	<line fill="none" stroke="#FFFF00" x1="31.953" y1="25.125" x2="31.953" y2="35.781"/>
	<line fill="none" stroke="#423D00" x1="30.672" y1="27.25" x2="30.672" y2="33.313"/>
	<line fill="none" stroke="#FFFF00" x1="30.172" y1="27.25" x2="30.172" y2="33.313"/>
	<line fill="none" stroke="#423D00" x1="34.422" y1="27.25" x2="34.422" y2="33.313"/>
	<line fill="none" stroke="#FFFF00" x1="33.922" y1="27.25" x2="33.922" y2="33.313"/>
	<line fill="none" stroke="#00FF00" x1="29.984" y1="35.781" x2="34.953" y2="35.781"/>
	<circle fill="none" stroke="#00FF00" stroke-width="2" cx="54.259" cy="31.035" r="8.833"/>
	<line fill="none" stroke="#423D00" x1="54.093" y1="25.125" x2="54.093" y2="35.781"/>
	<line fill="none" stroke="#FFFF00" x1="53.593" y1="25.125" x2="53.593" y2="35.781"/>
	<line fill="none" stroke="#423D00" x1="52.312" y1="27.25" x2="52.312" y2="33.313"/>
	<line fill="none" stroke="#FFFF00" x1="51.812" y1="27.25" x2="51.812" y2="33.313"/>
	<line fill="none" stroke="#423D00" x1="56.062" y1="27.25" x2="56.062" y2="33.313"/>
	<line fill="none" stroke="#FFFF00" x1="55.562" y1="27.25" x2="55.562" y2="33.313"/>
	<line fill="none" stroke="#423D00" x1="51.624" y1="36" x2="56.593" y2="36"/>
	<line fill="none" stroke="#FFFF00" x1="51.624" y1="35.5" x2="56.593" y2="35.5"/>
	<line fill="none" stroke="#423D00" x1="10.25" y1="22.201" x2="54.26" y2="22.201"/>
	<line fill="none" stroke="#FFFF00" x1="10.25" y1="21.701" x2="54.26" y2="21.701"/>
	<line fill="none" stroke="#423D00" x1="10.25" y1="40.367" x2="54.26" y2="40.367"/>
	<line fill="none" stroke="#FFFF00" x1="10.25" y1="39.867" x2="54.26" y2="39.867"/>
</g>
</svg>
