<?xml version="1.0" encoding="utf-8"?>
<!-- Generator: Adobe Illustrator 14.0.0, SVG Export Plug-In . SVG Version: 6.00 Build 43363)  -->
<!DOCTYPE svg PUBLIC "-//W3C//DTD SVG 1.1//EN" "http://www.w3.org/Graphics/SVG/1.1/DTD/svg11.dtd">
<svg version="1.1" id="图层_1" xmlns="http://www.w3.org/2000/svg" xmlns:xlink="http://www.w3.org/1999/xlink" x="0px" y="0px"
	 width="64px" height="64px" viewBox="0 0 64 64" enable-background="new 0 0 64 64" xml:space="preserve">
<g id="Blue">
	<path fill="none" stroke="#0000FF" stroke-width="2" d="M24.75,12.417C24.75,12.417,2,13.999,2,32c0,0-0.167,14.001,22.75,15.334"
		/>
	<path fill="none" stroke="#0000FF" stroke-width="2" d="M37.952,12.417c0,0,22.75,1.582,22.75,19.583
		c0,0,0.167,14.001-22.75,15.334"/>
	<path fill="none" stroke="#FFFF00" d="M36.94,12.417c0,0,22.75,1.582,22.75,19.583c0,0,0.167,14.001-22.75,15.334"/>
	<line fill="none" stroke="#0000FF" stroke-width="2" x1="21.656" y1="12.857" x2="20.083" y2="7.083"/>
	<line fill="none" stroke="#0000FF" stroke-width="2" x1="17.49" y1="13.886" x2="15.667" y2="8.417"/>
	<line fill="none" stroke="#0000FF" stroke-width="2" x1="41.046" y1="12.857" x2="43" y2="7.083"/>
	<line fill="none" stroke="#0000FF" stroke-width="2" x1="45.212" y1="13.886" x2="47.5" y2="8.417"/>
	<line fill="none" stroke="#0000FF" stroke-width="2" x1="43.183" y1="46.757" x2="45.084" y2="52.25"/>
	<line fill="none" stroke="#0000FF" stroke-width="2" x1="39.422" y1="47.228" x2="39.917" y2="52.917"/>
	<line fill="none" stroke="#0000FF" stroke-width="2" x1="22.328" y1="47.137" x2="22.25" y2="52.917"/>
	<line fill="none" stroke="#0000FF" stroke-width="2" x1="17.396" y1="46.338" x2="17.083" y2="52.25"/>
</g>
<g id="Red">
	<path fill="none" stroke="#FF0000" stroke-width="2" d="M24.75,12.417C24.75,12.417,2,13.999,2,32c0,0-0.167,14.001,22.75,15.334"
		/>
	<path fill="none" stroke="#FF0000" stroke-width="2" d="M37.952,12.417c0,0,22.75,1.582,22.75,19.583
		c0,0,0.167,14.001-22.75,15.334"/>
	<path fill="none" stroke="#FFFF00" d="M36.94,12.417c0,0,22.75,1.582,22.75,19.583c0,0,0.167,14.001-22.75,15.334"/>
	<line fill="none" stroke="#FF0000" stroke-width="2" x1="21.656" y1="12.857" x2="20.083" y2="7.083"/>
	<line fill="none" stroke="#FF0000" stroke-width="2" x1="17.49" y1="13.886" x2="15.667" y2="8.417"/>
	<line fill="none" stroke="#FF0000" stroke-width="2" x1="41.046" y1="12.857" x2="43" y2="7.083"/>
	<line fill="none" stroke="#FF0000" stroke-width="2" x1="45.212" y1="13.886" x2="47.5" y2="8.417"/>
	<line fill="none" stroke="#FF0000" stroke-width="2" x1="43.183" y1="46.757" x2="45.084" y2="52.25"/>
	<line fill="none" stroke="#FF0000" stroke-width="2" x1="39.422" y1="47.228" x2="39.917" y2="52.917"/>
	<line fill="none" stroke="#FF0000" stroke-width="2" x1="22.328" y1="47.137" x2="22.25" y2="52.917"/>
	<line fill="none" stroke="#FF0000" stroke-width="2" x1="17.396" y1="46.338" x2="17.083" y2="52.25"/>
</g>
<g id="White">
	<path fill="none" stroke="#00FF00" stroke-width="2" d="M24.75,12.417C24.75,12.417,2,13.999,2,32c0,0-0.167,14.001,22.75,15.334"
		/>
	<path fill="none" stroke="#00FF00" stroke-width="2" d="M37.952,12.417c0,0,22.75,1.582,22.75,19.583
		c0,0,0.167,14.001-22.75,15.334"/>
	<path fill="none" stroke="#FFFF00" d="M36.94,12.417c0,0,22.75,1.582,22.75,19.583c0,0,0.167,14.001-22.75,15.334"/>
	<line fill="none" stroke="#00FF00" stroke-width="2" x1="21.656" y1="12.857" x2="20.083" y2="7.083"/>
	<line fill="none" stroke="#00FF00" stroke-width="2" x1="17.49" y1="13.886" x2="15.667" y2="8.417"/>
	<line fill="none" stroke="#00FF00" stroke-width="2" x1="41.046" y1="12.857" x2="43" y2="7.083"/>
	<line fill="none" stroke="#00FF00" stroke-width="2" x1="45.212" y1="13.886" x2="47.5" y2="8.417"/>
	<line fill="none" stroke="#00FF00" stroke-width="2" x1="43.183" y1="46.757" x2="45.084" y2="52.25"/>
	<line fill="none" stroke="#00FF00" stroke-width="2" x1="39.422" y1="47.228" x2="39.917" y2="52.917"/>
	<line fill="none" stroke="#00FF00" stroke-width="2" x1="22.328" y1="47.137" x2="22.25" y2="52.917"/>
	<line fill="none" stroke="#00FF00" stroke-width="2" x1="17.396" y1="46.338" x2="17.083" y2="52.25"/>
</g>
</svg>
