<?xml version="1.0" encoding="utf-8"?>
<!-- Generator: Adobe Illustrator 14.0.0, SVG Export Plug-In . SVG Version: 6.00 Build 43363)  -->
<!DOCTYPE svg PUBLIC "-//W3C//DTD SVG 1.1//EN" "http://www.w3.org/Graphics/SVG/1.1/DTD/svg11.dtd">
<svg version="1.1" id="图层_1" xmlns="http://www.w3.org/2000/svg" xmlns:xlink="http://www.w3.org/1999/xlink" x="0px" y="0px"
	 width="64px" height="64px" viewBox="0 0 64 64" enable-background="new 0 0 64 64" xml:space="preserve">
<g id="Blue">
	<path fill="none" stroke="#0000FF" stroke-width="2" d="M14.156,25.063c0,0,4.031-8.313,17.844-8.313
		c0,0,10.125-0.938,17.746,8.313"/>
	<path fill="none" stroke="#0000FF" stroke-width="2" d="M14.156,35c0,0,4.969,9.313,17.844,9.313c0,0,10.805,0.75,17.746-9.313"/>
	<line fill="none" stroke="#0000FF" stroke-width="2" x1="43.938" y1="25.063" x2="59.5" y2="25.063"/>
	<line fill="none" stroke="#0000FF" stroke-width="2" x1="43.938" y1="35" x2="59.5" y2="35"/>
	<line fill="none" stroke="#0000FF" stroke-width="2" x1="43.938" y1="25.063" x2="43.938" y2="35"/>
	<path fill="none" stroke="#0000FF" stroke-width="2" d="M59.5,25.063c0,0,3.438,0.313,3.813,4.969c0,0-0.063,5.406-3.813,4.969"/>
	<circle fill="none" stroke="#0000FF" stroke-width="2" cx="51.719" cy="30.031" r="1.766"/>
	<line fill="none" stroke="#0000FF" stroke-width="2" x1="20.018" y1="25.063" x2="4.455" y2="25.063"/>
	<line fill="none" stroke="#0000FF" stroke-width="2" x1="20.018" y1="35" x2="4.455" y2="35"/>
	<line fill="none" stroke="#0000FF" stroke-width="2" x1="20.018" y1="25.063" x2="20.018" y2="35"/>
	<path fill="none" stroke="#0000FF" stroke-width="2" d="M4.455,25.063c0,0-3.438,0.313-3.813,4.969c0,0,0.063,5.406,3.813,4.969"/>
</g>
<g id="Red">
	<path fill="none" stroke="#FF0000" stroke-width="2" d="M14.156,25.063c0,0,4.031-8.313,17.844-8.313
		c0,0,10.125-0.938,17.746,8.313"/>
	<path fill="none" stroke="#FF0000" stroke-width="2" d="M14.156,35c0,0,4.969,9.313,17.844,9.313c0,0,10.805,0.75,17.746-9.313"/>
	<line fill="none" stroke="#FF0000" stroke-width="2" x1="43.938" y1="25.063" x2="59.5" y2="25.063"/>
	<line fill="none" stroke="#FF0000" stroke-width="2" x1="43.938" y1="35" x2="59.5" y2="35"/>
	<line fill="none" stroke="#FF0000" stroke-width="2" x1="43.938" y1="25.063" x2="43.938" y2="35"/>
	<path fill="none" stroke="#FF0000" stroke-width="2" d="M59.5,25.063c0,0,3.438,0.313,3.813,4.969c0,0-0.063,5.406-3.813,4.969"/>
	<circle fill="none" stroke="#FF0000" stroke-width="2" cx="51.719" cy="30.031" r="1.766"/>
	<line fill="none" stroke="#FF0000" stroke-width="2" x1="20.018" y1="25.063" x2="4.455" y2="25.063"/>
	<line fill="none" stroke="#FF0000" stroke-width="2" x1="20.018" y1="35" x2="4.455" y2="35"/>
	<line fill="none" stroke="#FF0000" stroke-width="2" x1="20.018" y1="25.063" x2="20.018" y2="35"/>
	<path fill="none" stroke="#FF0000" stroke-width="2" d="M4.455,25.063c0,0-3.438,0.313-3.813,4.969c0,0,0.063,5.406,3.813,4.969"/>
</g>
<g id="White">
	<path fill="none" stroke="#00FF00" stroke-width="2" d="M14.156,25.063c0,0,4.031-8.313,17.844-8.313
		c0,0,10.125-0.938,17.746,8.313"/>
	<path fill="none" stroke="#00FF00" stroke-width="2" d="M14.156,35c0,0,4.969,9.313,17.844,9.313c0,0,10.805,0.75,17.746-9.313"/>
	<line fill="none" stroke="#00FF00" stroke-width="2" x1="43.938" y1="25.063" x2="59.5" y2="25.063"/>
	<line fill="none" stroke="#00FF00" stroke-width="2" x1="43.938" y1="35" x2="59.5" y2="35"/>
	<line fill="none" stroke="#00FF00" stroke-width="2" x1="43.938" y1="25.063" x2="43.938" y2="35"/>
	<path fill="none" stroke="#00FF00" stroke-width="2" d="M59.5,25.063c0,0,3.438,0.313,3.813,4.969c0,0-0.063,5.406-3.813,4.969"/>
	<circle fill="none" stroke="#00FF00" stroke-width="2" cx="51.719" cy="30.031" r="1.766"/>
	<line fill="none" stroke="#00FF00" stroke-width="2" x1="20.018" y1="25.063" x2="4.455" y2="25.063"/>
	<line fill="none" stroke="#00FF00" stroke-width="2" x1="20.018" y1="35" x2="4.455" y2="35"/>
	<line fill="none" stroke="#00FF00" stroke-width="2" x1="20.018" y1="25.063" x2="20.018" y2="35"/>
	<path fill="none" stroke="#00FF00" stroke-width="2" d="M4.455,25.063c0,0-3.438,0.313-3.813,4.969c0,0,0.063,5.406,3.813,4.969"/>
</g>
</svg>
