<?xml version="1.0" encoding="utf-8"?>
<!-- Generator: Adobe Illustrator 14.0.0, SVG Export Plug-In . SVG Version: 6.00 Build 43363)  -->
<!DOCTYPE svg PUBLIC "-//W3C//DTD SVG 1.1//EN" "http://www.w3.org/Graphics/SVG/1.1/DTD/svg11.dtd">
<svg version="1.1" id="图层_1" xmlns="http://www.w3.org/2000/svg" xmlns:xlink="http://www.w3.org/1999/xlink" x="0px" y="0px"
	 width="64px" height="64px" viewBox="0 0 64 64" enable-background="new 0 0 64 64" xml:space="preserve">
<g id="Blue">
	<path fill="none" stroke="#0000FF" stroke-width="2" d="M1.667,34c0,0,0.052-19.75,30.568-20.917c0,0,27.1-1.667,29.683,20.5
		c0,0,0.751,10.918-10.083,15.001c0,0-3.75,0.334-6.167,0c0,0-4.917-1.166-12-1.5c0,0-7,0.131-12.083,1.648c0,0-6.667,0.229-8,0
		C13.583,48.732,1.666,45.833,1.667,34z"/>
	<path fill="none" stroke="#FFFF00" d="M2.269,33.938c0,0,0.051-19.354,29.957-20.498c0,0,26.558-1.634,29.088,20.089
		c0,0,0.734,10.699-9.881,14.701c0,0-3.678,0.326-6.043,0c0,0-4.818-1.146-11.763-1.474c0,0-6.86,0.132-11.842,1.616
		c0,0-6.533,0.229-7.84,0C13.948,48.377,2.269,45.535,2.269,33.938z"/>
	<path fill="none" stroke="#FFFF00" d="M12.431,38.711c0,0,0.27-3.084,3.28-3.084c0,0,3.279-0.465,3.646,3.084"/>
	<line fill="none" stroke="#FFFF00" x1="12.431" y1="38.711" x2="15.895" y2="45.416"/>
	<line fill="none" stroke="#FFFF00" x1="15.895" y1="45.416" x2="19.357" y2="38.711"/>
	<path fill="none" stroke="#0000FF" d="M12.249,38.617c0,0,0.284-3.247,3.452-3.247c0,0,3.452-0.489,3.838,3.247"/>
	<line fill="none" stroke="#0000FF" x1="12.249" y1="38.617" x2="15.895" y2="45.676"/>
	<line fill="none" stroke="#0000FF" x1="15.895" y1="45.676" x2="19.54" y2="38.617"/>
	<line fill="none" stroke="#000100" stroke-width="2" x1="24.29" y1="36.25" x2="38.5" y2="36.25"/>
	<line fill="none" stroke="#000100" stroke-width="2" x1="24.29" y1="22.792" x2="38.5" y2="22.792"/>
	<rect x="13.542" y="29.625" fill="none" stroke="#0000FF" width="4.625" height="3.042"/>
	<line fill="none" stroke="#0000FF" x1="15.854" y1="29.625" x2="15.854" y2="21.083"/>
	<line fill="none" stroke="#0000FF" x1="15.854" y1="24.125" x2="12.497" y2="27.482"/>
	<line fill="none" stroke="#0000FF" x1="15.854" y1="24.125" x2="19.285" y2="27.555"/>
</g>
<g id="Red">
	<path fill="none" stroke="#FF0000" stroke-width="2" d="M1.667,34c0,0,0.052-19.75,30.568-20.917c0,0,27.1-1.667,29.683,20.5
		c0,0,0.751,10.918-10.083,15.001c0,0-3.75,0.334-6.167,0c0,0-4.917-1.166-12-1.5c0,0-7,0.131-12.083,1.648c0,0-6.667,0.229-8,0
		C13.583,48.732,1.666,45.833,1.667,34z"/>
	<path fill="none" stroke="#FFFF00" d="M2.269,33.938c0,0,0.051-19.354,29.957-20.498c0,0,26.558-1.634,29.088,20.089
		c0,0,0.734,10.699-9.881,14.701c0,0-3.678,0.326-6.043,0c0,0-4.818-1.146-11.763-1.474c0,0-6.86,0.132-11.842,1.616
		c0,0-6.533,0.229-7.84,0C13.948,48.377,2.269,45.535,2.269,33.938z"/>
	<path fill="none" stroke="#FFFF00" d="M12.431,38.711c0,0,0.27-3.084,3.28-3.084c0,0,3.279-0.465,3.646,3.084"/>
	<line fill="none" stroke="#FFFF00" x1="12.431" y1="38.711" x2="15.895" y2="45.416"/>
	<line fill="none" stroke="#FFFF00" x1="15.895" y1="45.416" x2="19.357" y2="38.711"/>
	<path fill="none" stroke="#FF0000" d="M12.249,38.617c0,0,0.284-3.247,3.452-3.247c0,0,3.452-0.489,3.838,3.247"/>
	<line fill="none" stroke="#FF0000" x1="12.249" y1="38.617" x2="15.895" y2="45.676"/>
	<line fill="none" stroke="#FF0000" x1="15.895" y1="45.676" x2="19.54" y2="38.617"/>
	<line fill="none" stroke="#000100" stroke-width="2" x1="24.29" y1="36.25" x2="38.5" y2="36.25"/>
	<line fill="none" stroke="#000100" stroke-width="2" x1="24.29" y1="22.792" x2="38.5" y2="22.792"/>
	<rect x="13.542" y="29.625" fill="none" stroke="#FF0000" width="4.625" height="3.042"/>
	<line fill="none" stroke="#FF0000" x1="15.854" y1="29.625" x2="15.854" y2="21.083"/>
	<line fill="none" stroke="#FF0000" x1="15.854" y1="24.125" x2="12.497" y2="27.482"/>
	<line fill="none" stroke="#FF0000" x1="15.854" y1="24.125" x2="19.285" y2="27.555"/>
</g>
<g id="White">
	<path fill="none" stroke="#00FF00" stroke-width="2" d="M1.667,34c0,0,0.052-19.75,30.568-20.917c0,0,27.1-1.667,29.683,20.5
		c0,0,0.751,10.918-10.083,15.001c0,0-3.75,0.334-6.167,0c0,0-4.917-1.166-12-1.5c0,0-7,0.131-12.083,1.648c0,0-6.667,0.229-8,0
		C13.583,48.732,1.666,45.833,1.667,34z"/>
	<path fill="none" stroke="#FFFF00" d="M2.269,33.938c0,0,0.051-19.354,29.957-20.498c0,0,26.558-1.634,29.088,20.089
		c0,0,0.734,10.699-9.881,14.701c0,0-3.678,0.326-6.043,0c0,0-4.818-1.146-11.763-1.474c0,0-6.86,0.132-11.842,1.616
		c0,0-6.533,0.229-7.84,0C13.948,48.377,2.269,45.535,2.269,33.938z"/>
	<path fill="none" stroke="#FFFF00" d="M12.431,38.711c0,0,0.27-3.084,3.28-3.084c0,0,3.279-0.465,3.646,3.084"/>
	<line fill="none" stroke="#FFFF00" x1="12.431" y1="38.711" x2="15.895" y2="45.416"/>
	<line fill="none" stroke="#FFFF00" x1="15.895" y1="45.416" x2="19.357" y2="38.711"/>
	<path fill="none" stroke="#00FF00" d="M12.249,38.617c0,0,0.284-3.247,3.452-3.247c0,0,3.452-0.489,3.838,3.247"/>
	<line fill="none" stroke="#00FF00" x1="12.249" y1="38.617" x2="15.895" y2="45.676"/>
	<line fill="none" stroke="#00FF00" x1="15.895" y1="45.676" x2="19.54" y2="38.617"/>
	<line fill="none" stroke="#000100" stroke-width="2" x1="24.29" y1="36.25" x2="38.5" y2="36.25"/>
	<line fill="none" stroke="#000100" stroke-width="2" x1="24.29" y1="22.792" x2="38.5" y2="22.792"/>
	<rect x="13.542" y="29.625" fill="none" stroke="#00FF00" width="4.625" height="3.042"/>
	<line fill="none" stroke="#00FF00" x1="15.854" y1="29.625" x2="15.854" y2="21.083"/>
	<line fill="none" stroke="#00FF00" x1="15.854" y1="24.125" x2="12.497" y2="27.482"/>
	<line fill="none" stroke="#00FF00" x1="15.854" y1="24.125" x2="19.285" y2="27.555"/>
</g>
</svg>
