<?xml version="1.0" encoding="utf-8"?>
<!-- Generator: Adobe Illustrator 14.0.0, SVG Export Plug-In . SVG Version: 6.00 Build 43363)  -->
<!DOCTYPE svg PUBLIC "-//W3C//DTD SVG 1.1//EN" "http://www.w3.org/Graphics/SVG/1.1/DTD/svg11.dtd">
<svg version="1.1" id="图层_1" xmlns="http://www.w3.org/2000/svg" xmlns:xlink="http://www.w3.org/1999/xlink" x="0px" y="0px"
	 width="64px" height="64px" viewBox="0 0 64 64" enable-background="new 0 0 64 64" xml:space="preserve">
<g id="Blue">
	<ellipse fill="none" stroke="#FFFF00" cx="43.125" cy="31.542" rx="17.061" ry="8.272"/>
	<ellipse fill="none" stroke="#00FF00" cx="43.125" cy="31.542" rx="17.958" ry="8.708"/>
	<line fill="none" stroke="#3F383F" x1="50.75" y1="31" x2="34.5" y2="31"/>
	<line fill="none" stroke="#3F383F" x1="47.75" y1="28.333" x2="38.084" y2="28.333"/>
	<line fill="none" stroke="#3F383F" x1="47.75" y1="34" x2="38.084" y2="34"/>
	<line fill="none" stroke="#FFFF00" x1="23.583" y1="31.328" x2="9.333" y2="31.328"/>
	<line fill="none" stroke="#3F383F" x1="23.583" y1="31.542" x2="9.333" y2="31.542"/>
	<polygon fill="#000100" points="11.75,33.5 1.833,31.542 11.75,29.583 9.333,31.542 	"/>
	<line fill="none" stroke="#3F383F" x1="43.125" y1="22.833" x2="43.357" y2="19.967"/>
	<line fill="none" stroke="#3F383F" x1="43.572" y1="17.782" x2="43.941" y2="14.881"/>
	<line fill="none" stroke="#3F383F" x1="43.125" y1="40.25" x2="43.357" y2="43.115"/>
	<line fill="none" stroke="#3F383F" x1="43.572" y1="45.301" x2="43.941" y2="48.202"/>
	<line fill="none" stroke="#3F383F" x1="44.167" y1="49.416" x2="44.783" y2="51.283"/>
	<line fill="none" stroke="#3F383F" x1="45.404" y1="52.502" x2="46.141" y2="53.512"/>
	<line fill="none" stroke="#3F383F" x1="47.212" y1="54.452" x2="48.5" y2="55"/>
	<path fill="none" stroke="#00FF00" d="M44.167,13.667c0,0,1.541-5.375,4.333-5.583"/>
</g>
<g id="Red">
	<ellipse fill="none" stroke="#FFFF00" cx="43.125" cy="31.542" rx="17.061" ry="8.272"/>
	<ellipse fill="none" stroke="#00FF00" cx="43.125" cy="31.542" rx="17.958" ry="8.708"/>
	<line fill="none" stroke="#3F383F" x1="50.75" y1="31" x2="34.5" y2="31"/>
	<line fill="none" stroke="#3F383F" x1="47.75" y1="28.333" x2="38.084" y2="28.333"/>
	<line fill="none" stroke="#3F383F" x1="47.75" y1="34" x2="38.084" y2="34"/>
	<line fill="none" stroke="#FFFF00" x1="23.583" y1="31.328" x2="9.333" y2="31.328"/>
	<line fill="none" stroke="#3F383F" x1="23.583" y1="31.542" x2="9.333" y2="31.542"/>
	<polygon fill="#000100" points="11.75,33.5 1.833,31.542 11.75,29.583 9.333,31.542 	"/>
	<line fill="none" stroke="#3F383F" x1="43.125" y1="22.833" x2="43.357" y2="19.967"/>
	<line fill="none" stroke="#3F383F" x1="43.572" y1="17.782" x2="43.941" y2="14.881"/>
	<line fill="none" stroke="#3F383F" x1="43.125" y1="40.25" x2="43.357" y2="43.115"/>
	<line fill="none" stroke="#3F383F" x1="43.572" y1="45.301" x2="43.941" y2="48.202"/>
	<line fill="none" stroke="#3F383F" x1="44.167" y1="49.416" x2="44.783" y2="51.283"/>
	<line fill="none" stroke="#3F383F" x1="45.404" y1="52.502" x2="46.141" y2="53.512"/>
	<line fill="none" stroke="#3F383F" x1="47.212" y1="54.452" x2="48.5" y2="55"/>
	<path fill="none" stroke="#00FF00" d="M44.167,13.667c0,0,1.541-5.375,4.333-5.583"/>
</g>
<g id="White">
	<ellipse fill="none" stroke="#FFFF00" cx="43.125" cy="31.542" rx="17.061" ry="8.272"/>
	<ellipse fill="none" stroke="#00FF00" cx="43.125" cy="31.542" rx="17.958" ry="8.708"/>
	<line fill="none" stroke="#3F383F" x1="50.75" y1="31" x2="34.5" y2="31"/>
	<line fill="none" stroke="#3F383F" x1="47.75" y1="28.333" x2="38.084" y2="28.333"/>
	<line fill="none" stroke="#3F383F" x1="47.75" y1="34" x2="38.084" y2="34"/>
	<line fill="none" stroke="#FFFF00" x1="23.583" y1="31.328" x2="9.333" y2="31.328"/>
	<line fill="none" stroke="#3F383F" x1="23.583" y1="31.542" x2="9.333" y2="31.542"/>
	<polygon fill="#000100" points="11.75,33.5 1.833,31.542 11.75,29.583 9.333,31.542 	"/>
	<line fill="none" stroke="#3F383F" x1="43.125" y1="22.833" x2="43.357" y2="19.967"/>
	<line fill="none" stroke="#3F383F" x1="43.572" y1="17.782" x2="43.941" y2="14.881"/>
	<line fill="none" stroke="#3F383F" x1="43.125" y1="40.25" x2="43.357" y2="43.115"/>
	<line fill="none" stroke="#3F383F" x1="43.572" y1="45.301" x2="43.941" y2="48.202"/>
	<line fill="none" stroke="#3F383F" x1="44.167" y1="49.416" x2="44.783" y2="51.283"/>
	<line fill="none" stroke="#3F383F" x1="45.404" y1="52.502" x2="46.141" y2="53.512"/>
	<line fill="none" stroke="#3F383F" x1="47.212" y1="54.452" x2="48.5" y2="55"/>
	<path fill="none" stroke="#00FF00" d="M44.167,13.667c0,0,1.541-5.375,4.333-5.583"/>
</g>
</svg>
