<?xml version="1.0" encoding="utf-8"?>
<!-- Generator: Adobe Illustrator 14.0.0, SVG Export Plug-In . SVG Version: 6.00 Build 43363)  -->
<!DOCTYPE svg PUBLIC "-//W3C//DTD SVG 1.1//EN" "http://www.w3.org/Graphics/SVG/1.1/DTD/svg11.dtd">
<svg version="1.1" id="图层_1" xmlns="http://www.w3.org/2000/svg" xmlns:xlink="http://www.w3.org/1999/xlink" x="0px" y="0px"
	 width="64px" height="64px" viewBox="0 0 64 64" enable-background="new 0 0 64 64" xml:space="preserve">
<g id="Blue">
	<rect x="1.5" y="10.5" fill="none" stroke="#0000FF" stroke-width="2" width="60.667" height="43.5"/>
	<line fill="none" stroke="#0000FF" x1="7" y1="22" x2="26" y2="31"/>
	<line fill="none" stroke="#FFFF00" x1="7.564" y1="21.353" x2="26.564" y2="30.353"/>
	<line fill="none" stroke="#0000FF" x1="26" y1="22" x2="7" y2="31"/>
	<line fill="none" stroke="#FFFF00" x1="26" y1="21.353" x2="7" y2="30.353"/>
	<line fill="none" stroke="#0000FF" stroke-width="2" x1="16.5" y1="26.5" x2="16.5" y2="46"/>
</g>
<g id="Red">
	<rect x="1.5" y="10.5" fill="none" stroke="#FF0000" stroke-width="2" width="60.667" height="43.5"/>
	<line fill="none" stroke="#FF0000" x1="7" y1="22" x2="26" y2="31"/>
	<line fill="none" stroke="#FFFF00" x1="7.564" y1="21.353" x2="26.564" y2="30.353"/>
	<line fill="none" stroke="#FF0000" x1="26" y1="22" x2="7" y2="31"/>
	<line fill="none" stroke="#FFFF00" x1="26" y1="21.353" x2="7" y2="30.353"/>
	<line fill="none" stroke="#FF0000" stroke-width="2" x1="16.5" y1="26.5" x2="16.5" y2="46"/>
</g>
<g id="White">
	<rect x="1.5" y="10.5" fill="none" stroke="#00FF00" stroke-width="2" width="60.667" height="43.5"/>
	<line fill="none" stroke="#00FF00" x1="7" y1="22" x2="26" y2="31"/>
	<line fill="none" stroke="#FFFF00" x1="7.564" y1="21.353" x2="26.564" y2="30.353"/>
	<line fill="none" stroke="#00FF00" x1="26" y1="22" x2="7" y2="31"/>
	<line fill="none" stroke="#FFFF00" x1="26" y1="21.353" x2="7" y2="30.353"/>
	<line fill="none" stroke="#00FF00" stroke-width="2" x1="16.5" y1="26.5" x2="16.5" y2="46"/>
</g>
</svg>
