<?xml version="1.0" encoding="utf-8"?>
<!-- Generator: Adobe Illustrator 14.0.0, SVG Export Plug-In . SVG Version: 6.00 Build 43363)  -->
<!DOCTYPE svg PUBLIC "-//W3C//DTD SVG 1.1//EN" "http://www.w3.org/Graphics/SVG/1.1/DTD/svg11.dtd">
<svg version="1.1" id="图层_1" xmlns="http://www.w3.org/2000/svg" xmlns:xlink="http://www.w3.org/1999/xlink" x="0px" y="0px"
	 width="64px" height="64px" viewBox="0 0 64 64" enable-background="new 0 0 64 64" xml:space="preserve">
<g id="Blue">
	<rect x="1.5" y="10.5" fill="none" stroke="#0000FF" stroke-width="2" width="60.667" height="43.5"/>
	<line fill="none" stroke="#0000FF" x1="4.012" y1="13.183" x2="18.322" y2="19.961"/>
	<line fill="none" stroke="#FFFF00" x1="4.437" y1="12.695" x2="18.747" y2="19.474"/>
	<line fill="none" stroke="#0000FF" x1="18.322" y1="13.183" x2="4.012" y2="19.961"/>
	<line fill="none" stroke="#FFFF00" x1="18.322" y1="12.695" x2="4.012" y2="19.474"/>
	<line fill="none" stroke="#0000FF" stroke-width="2" x1="11.167" y1="16.572" x2="11.167" y2="31.259"/>
	<line fill="none" stroke="#0000FF" stroke-width="2" x1="1.5" y1="54" x2="62.167" y2="10.5"/>
	<line fill="none" stroke="#0000FF" stroke-width="2" x1="11.167" y1="31.259" x2="4.063" y2="38.363"/>
	<line fill="none" stroke="#0000FF" stroke-width="2" x1="4.063" y1="38.363" x2="18.322" y2="38.363"/>
	<line fill="none" stroke="#0000FF" stroke-width="2" x1="18.322" y1="38.363" x2="11.192" y2="31.233"/>
</g>
<g id="Red">
	<rect x="1.5" y="10.5" fill="none" stroke="#FF0000" stroke-width="2" width="60.667" height="43.5"/>
	<line fill="none" stroke="#FF0000" x1="4.012" y1="13.183" x2="18.322" y2="19.961"/>
	<line fill="none" stroke="#FFFF00" x1="4.437" y1="12.695" x2="18.747" y2="19.474"/>
	<line fill="none" stroke="#FF0000" x1="18.322" y1="13.183" x2="4.012" y2="19.961"/>
	<line fill="none" stroke="#FFFF00" x1="18.322" y1="12.695" x2="4.012" y2="19.474"/>
	<line fill="none" stroke="#FF0000" stroke-width="2" x1="11.167" y1="16.572" x2="11.167" y2="31.259"/>
	<line fill="none" stroke="#FF0000" stroke-width="2" x1="1.5" y1="54" x2="62.167" y2="10.5"/>
	<line fill="none" stroke="#FF0000" stroke-width="2" x1="11.167" y1="31.259" x2="4.063" y2="38.363"/>
	<line fill="none" stroke="#FF0000" stroke-width="2" x1="4.063" y1="38.363" x2="18.322" y2="38.363"/>
	<line fill="none" stroke="#FF0000" stroke-width="2" x1="18.322" y1="38.363" x2="11.192" y2="31.233"/>
</g>
<g id="White">
	<rect x="1.5" y="10.5" fill="none" stroke="#00FF00" stroke-width="2" width="60.667" height="43.5"/>
	<line fill="none" stroke="#00FF00" x1="4.012" y1="13.183" x2="18.322" y2="19.961"/>
	<line fill="none" stroke="#FFFF00" x1="4.437" y1="12.695" x2="18.747" y2="19.474"/>
	<line fill="none" stroke="#00FF00" x1="18.322" y1="13.183" x2="4.012" y2="19.961"/>
	<line fill="none" stroke="#FFFF00" x1="18.322" y1="12.695" x2="4.012" y2="19.474"/>
	<line fill="none" stroke="#00FF00" stroke-width="2" x1="11.167" y1="16.572" x2="11.167" y2="31.259"/>
	<line fill="none" stroke="#00FF00" stroke-width="2" x1="1.5" y1="54" x2="62.167" y2="10.5"/>
	<line fill="none" stroke="#00FF00" stroke-width="2" x1="11.167" y1="31.259" x2="4.063" y2="38.363"/>
	<line fill="none" stroke="#00FF00" stroke-width="2" x1="4.063" y1="38.363" x2="18.322" y2="38.363"/>
	<line fill="none" stroke="#00FF00" stroke-width="2" x1="18.322" y1="38.363" x2="11.192" y2="31.233"/>
</g>
</svg>
