<?xml version="1.0" encoding="utf-8"?>
<!-- Generator: Adobe Illustrator 14.0.0, SVG Export Plug-In . SVG Version: 6.00 Build 43363)  -->
<!DOCTYPE svg PUBLIC "-//W3C//DTD SVG 1.1//EN" "http://www.w3.org/Graphics/SVG/1.1/DTD/svg11.dtd">
<svg version="1.1" id="图层_1" xmlns="http://www.w3.org/2000/svg" xmlns:xlink="http://www.w3.org/1999/xlink" x="0px" y="0px"
	 width="64px" height="64px" viewBox="0 0 64 64" enable-background="new 0 0 64 64" xml:space="preserve">
<g id="Blue">
	<rect x="1.5" y="10.5" fill="none" stroke="#0000FF" stroke-width="2" width="60.667" height="43.5"/>
	<line fill="none" stroke="#0000FF" x1="8.012" y1="20.38" x2="28.104" y2="29.897"/>
	<line fill="none" stroke="#FFFF00" x1="8.608" y1="19.695" x2="28.7" y2="29.212"/>
	<line fill="none" stroke="#0000FF" x1="28.104" y1="20.38" x2="8.012" y2="29.897"/>
	<line fill="none" stroke="#FFFF00" x1="28.104" y1="19.695" x2="8.012" y2="29.212"/>
	<line fill="none" stroke="#0000FF" stroke-width="2" x1="18.058" y1="25.138" x2="18.058" y2="45.76"/>
	<path fill="none" stroke="#0000FF" stroke-width="2" d="M31.125,45.76c0,0,8.875-5.966,9.125-15.863"/>
	<polygon fill="#0000FF" points="40.25,29.897 37.469,31.5 40.25,23.125 43.031,31.5 	"/>
</g>
<g id="Red">
	<rect x="1.5" y="10.5" fill="none" stroke="#FF0000" stroke-width="2" width="60.667" height="43.5"/>
	<line fill="none" stroke="#FF0000" x1="8.012" y1="20.38" x2="28.104" y2="29.897"/>
	<line fill="none" stroke="#FFFF00" x1="8.608" y1="19.695" x2="28.7" y2="29.212"/>
	<line fill="none" stroke="#FF0000" x1="28.104" y1="20.38" x2="8.012" y2="29.897"/>
	<line fill="none" stroke="#FFFF00" x1="28.104" y1="19.695" x2="8.012" y2="29.212"/>
	<line fill="none" stroke="#FF0000" stroke-width="2" x1="18.058" y1="25.138" x2="18.058" y2="45.76"/>
	<path fill="none" stroke="#FF0000" stroke-width="2" d="M31.125,45.76c0,0,8.875-5.966,9.125-15.863"/>
	<polygon fill="#FF0000" points="40.25,29.897 37.469,31.5 40.25,23.125 43.031,31.5 	"/>
</g>
<g id="White">
	<rect x="1.5" y="10.5" fill="none" stroke="#00FF00" stroke-width="2" width="60.667" height="43.5"/>
	<line fill="none" stroke="#00FF00" x1="8.012" y1="20.38" x2="28.104" y2="29.897"/>
	<line fill="none" stroke="#FFFF00" x1="8.608" y1="19.695" x2="28.7" y2="29.212"/>
	<line fill="none" stroke="#00FF00" x1="28.104" y1="20.38" x2="8.012" y2="29.897"/>
	<line fill="none" stroke="#FFFF00" x1="28.104" y1="19.695" x2="8.012" y2="29.212"/>
	<line fill="none" stroke="#00FF00" stroke-width="2" x1="18.058" y1="25.138" x2="18.058" y2="45.76"/>
	<path fill="none" stroke="#00FF00" stroke-width="2" d="M31.125,45.76c0,0,8.875-5.966,9.125-15.863"/>
	<polygon fill="#00FF00" points="40.25,29.897 37.469,31.5 40.25,23.125 43.031,31.5 	"/>
</g>
</svg>
