<?xml version="1.0" encoding="utf-8"?>
<!-- Generator: Adobe Illustrator 13.0.0, SVG Export Plug-In . SVG Version: 6.00 Build 14948)  -->
<!DOCTYPE svg PUBLIC "-//W3C//DTD SVG 1.1//EN" "http://www.w3.org/Graphics/SVG/1.1/DTD/svg11.dtd">
<svg version="1.1" xmlns="http://www.w3.org/2000/svg" xmlns:xlink="http://www.w3.org/1999/xlink" x="0px" y="0px"
	 width="16.314px" height="46.009px" viewBox="0 0 16.314 46.009" enable-background="new 0 0 16.314 46.009" xml:space="preserve">
<g id="Blue">
	<polygon fill="#0000FF" points="1.679,24.717 3.929,16.467 6.492,24.592 4.804,23.842 4.804,30.28 8.929,30.28 8.929,28.905 
		12.929,30.967 9.054,32.842 9.054,31.78 4.867,31.78 4.867,39.155 2.992,39.155 2.992,23.905 	"/>
	<polygon fill="none" stroke-width="2" stroke="#0000FF" points="7.851,0.946 0.5,12.967 0.5,45.509 15.814,45.509 15.814,13.503 	"/>
</g>
<g id="Red">
	<polygon fill="#FF0000" points="1.679,24.717 3.929,16.467 6.492,24.592 4.804,23.842 4.804,30.28 8.929,30.28 8.929,28.905 
		12.929,30.967 9.054,32.842 9.054,31.78 4.867,31.78 4.867,39.155 2.992,39.155 2.992,23.905 	"/>
	<polygon fill="none" stroke-width="2" stroke="#FF0000" points="7.851,0.946 0.5,12.967 0.5,45.509 15.814,45.509 15.814,13.503 	"/>
</g>
<g id="White">
	<polygon fill="#00FF00" points="1.679,24.717 3.929,16.467 6.492,24.592 4.804,23.842 4.804,30.28 8.929,30.28 8.929,28.905 
		12.929,30.967 9.054,32.842 9.054,31.78 4.867,31.78 4.867,39.155 2.992,39.155 2.992,23.905 	"/>
	<polygon fill="none" stroke-width="2" stroke="#00FF00" points="7.851,0.946 0.5,12.967 0.5,45.509 15.814,45.509 15.814,13.503 	"/>
</g>
</svg>
