<?xml version="1.0" encoding="utf-8"?>
<!-- Generator: Adobe Illustrator 14.0.0, SVG Export Plug-In . SVG Version: 6.00 Build 43363)  -->
<!DOCTYPE svg PUBLIC "-//W3C//DTD SVG 1.1//EN" "http://www.w3.org/Graphics/SVG/1.1/DTD/svg11.dtd">
<svg version="1.1" id="图层_1_1_" xmlns="http://www.w3.org/2000/svg" xmlns:xlink="http://www.w3.org/1999/xlink" x="0px"
	 y="0px" width="64px" height="64px" viewBox="0 0 64 64" enable-background="new 0 0 64 64" xml:space="preserve">
<g id="Blue">
	<circle fill="none" stroke-width="2" stroke="#0000FF" cx="32.583" cy="31.417" r="30.083"/>
	<line fill="none" stroke-width="2" stroke="#0000FF" x1="41.334" y1="23.167" x2="17" y2="23.167"/>
	<line fill="none" stroke-width="2" stroke="#0000FF" x1="17" y1="23.167" x2="17" y2="39.667"/>
	<line fill="none" stroke-width="2" stroke="#0000FF" x1="17" y1="39.667" x2="40.834" y2="39.667"/>
	<line fill="none" stroke-width="2" stroke="#0000FF" x1="39" y1="28.667" x2="39" y2="35.167"/>
	<line fill="none" stroke-width="2" stroke="#0000FF" x1="39" y1="31.417" x2="26.083" y2="31.417"/>
	<polygon fill="#0000FF" points="48.542,32 54.709,40.083 48.417,40.083 43.491,40.083 43.491,30.042 43.491,24.948 	"/>
	<polygon fill="#0000FF" points="24.031,30.578 26.625,29.875 26.625,31.484 26.625,32.875 23.914,32.109 21.203,31.333 	"/>
</g>
<g id="Red">
	<circle fill="none" stroke-width="2" stroke="#FF0000" cx="32.583" cy="31.417" r="30.083"/>
	<line fill="none" stroke-width="2" stroke="#FF0000" x1="41.334" y1="23.167" x2="17" y2="23.167"/>
	<line fill="none" stroke-width="2" stroke="#FF0000" x1="17" y1="23.167" x2="17" y2="39.667"/>
	<line fill="none" stroke-width="2" stroke="#FF0000" x1="17" y1="39.667" x2="40.834" y2="39.667"/>
	<line fill="none" stroke-width="2" stroke="#FF0000" x1="39" y1="28.667" x2="39" y2="35.167"/>
	<line fill="none" stroke-width="2" stroke="#FF0000" x1="39" y1="31.417" x2="26.083" y2="31.417"/>
	<polygon fill="#FF0000" points="48.542,32 54.709,40.083 48.417,40.083 43.491,40.083 43.491,30.042 43.491,24.948 	"/>
	<polygon fill="#FF0000" points="24.031,30.578 26.625,29.875 26.625,31.484 26.625,32.875 23.914,32.109 21.203,31.333 	"/>
</g>
<g id="White">
	<circle fill="none" stroke-width="2" stroke="#00FF00" cx="32.583" cy="31.417" r="30.083"/>
	<line fill="none" stroke-width="2" stroke="#00FF00" x1="41.334" y1="23.167" x2="17" y2="23.167"/>
	<line fill="none" stroke-width="2" stroke="#00FF00" x1="17" y1="23.167" x2="17" y2="39.667"/>
	<line fill="none" stroke-width="2" stroke="#00FF00" x1="17" y1="39.667" x2="40.834" y2="39.667"/>
	<line fill="none" stroke-width="2" stroke="#00FF00" x1="39" y1="28.667" x2="39" y2="35.167"/>
	<line fill="none" stroke-width="2" stroke="#00FF00" x1="39" y1="31.417" x2="26.083" y2="31.417"/>
	<polygon fill="#00FF00" points="48.542,32 54.709,40.083 48.417,40.083 43.491,40.083 43.491,30.042 43.491,24.948 	"/>
	<polygon fill="#00FF00" points="24.031,30.578 26.625,29.875 26.625,31.484 26.625,32.875 23.914,32.109 21.203,31.333 	"/>
</g>
</svg>
