<?xml version="1.0" encoding="utf-8"?>
<!-- Generator: Adobe Illustrator 14.0.0, SVG Export Plug-In . SVG Version: 6.00 Build 43363)  -->
<!DOCTYPE svg PUBLIC "-//W3C//DTD SVG 1.1//EN" "http://www.w3.org/Graphics/SVG/1.1/DTD/svg11.dtd">
<svg version="1.1" id="图层_1" xmlns="http://www.w3.org/2000/svg" xmlns:xlink="http://www.w3.org/1999/xlink" x="0px" y="0px"
	 width="64px" height="64px" viewBox="0 0 64 64" enable-background="new 0 0 64 64" xml:space="preserve">
<g id="Blue">
	<line fill="none" stroke-width="2" stroke="#0000FF" x1="45.973" y1="15.084" x2="37.948" y2="27.598"/>
	<line fill="none" stroke-width="2" stroke="#0000FF" x1="37.702" y1="27.423" x2="37.702" y2="12.07"/>
	<line fill="none" stroke-width="2" stroke="#0000FF" x1="37.948" y1="12.336" x2="28.225" y2="27.104"/>
	<line fill="none" stroke-width="2" stroke="#0000FF" x1="45.788" y1="14.872" x2="38.036" y2="26.895"/>
	<line fill="none" stroke-width="2" stroke="#0000FF" x1="37.948" y1="27.104" x2="37.948" y2="11.625"/>
	<line fill="none" stroke-width="2" stroke="#0000FF" x1="37.948" y1="11.625" x2="27.895" y2="26.895"/>
	<polygon fill="#0000FF" points="45.882,17.351 45.854,14.991 43.721,15.994 48.229,11.076 	"/>
	<line fill="none" stroke-width="2" stroke="#0000FF" x1="1.875" y1="54.688" x2="63.063" y2="54.688"/>
	<path fill="none" stroke-width="2" stroke="#0000FF" d="M8.103,54.155c0,0-0.228-21.655,24.147-22.28c0,0,23.849-0.719,25.021,22.75"/>
</g>
<g id="Red">
	<line fill="none" stroke-width="2" stroke="#FF0000" x1="45.973" y1="15.084" x2="37.948" y2="27.598"/>
	<line fill="none" stroke-width="2" stroke="#FF0000" x1="37.702" y1="27.423" x2="37.702" y2="12.07"/>
	<line fill="none" stroke-width="2" stroke="#FF0000" x1="37.948" y1="12.336" x2="28.225" y2="27.104"/>
	<line fill="none" stroke-width="2" stroke="#FF0000" x1="45.788" y1="14.872" x2="38.036" y2="26.895"/>
	<line fill="none" stroke-width="2" stroke="#FF0000" x1="37.948" y1="27.104" x2="37.948" y2="11.625"/>
	<line fill="none" stroke-width="2" stroke="#FF0000" x1="37.948" y1="11.625" x2="27.895" y2="26.895"/>
	<polygon fill="#FF0000" points="45.882,17.351 45.854,14.991 43.721,15.994 48.229,11.076 	"/>
	<line fill="none" stroke-width="2" stroke="#FF0000" x1="1.875" y1="54.688" x2="63.063" y2="54.688"/>
	<path fill="none" stroke-width="2" stroke="#FF0000" d="M8.103,54.155c0,0-0.228-21.655,24.147-22.28c0,0,23.849-0.719,25.021,22.75"/>
</g>
<g id="White">
	<line fill="none" stroke-width="2" stroke="#00FF00" x1="45.973" y1="15.084" x2="37.948" y2="27.598"/>
	<line fill="none" stroke-width="2" stroke="#00FF00" x1="37.702" y1="27.423" x2="37.702" y2="12.07"/>
	<line fill="none" stroke-width="2" stroke="#00FF00" x1="37.948" y1="12.336" x2="28.225" y2="27.104"/>
	<line fill="none" stroke-width="2" stroke="#00FF00" x1="45.788" y1="14.872" x2="38.036" y2="26.895"/>
	<line fill="none" stroke-width="2" stroke="#00FF00" x1="37.948" y1="27.104" x2="37.948" y2="11.625"/>
	<line fill="none" stroke-width="2" stroke="#00FF00" x1="37.948" y1="11.625" x2="27.895" y2="26.895"/>
	<polygon fill="#00FF00" points="45.882,17.351 45.854,14.991 43.721,15.994 48.229,11.076 	"/>
	<line fill="none" stroke-width="2" stroke="#00FF00" x1="1.875" y1="54.688" x2="63.063" y2="54.688"/>
	<path fill="none" stroke-width="2" stroke="#00FF00" d="M8.103,54.155c0,0-0.228-21.655,24.147-22.28c0,0,23.849-0.719,25.021,22.75"/>
</g>
</svg>
