<?xml version="1.0" encoding="utf-8"?>
<!-- Generator: Adobe Illustrator 14.0.0, SVG Export Plug-In . SVG Version: 6.00 Build 43363)  -->
<!DOCTYPE svg PUBLIC "-//W3C//DTD SVG 1.1//EN" "http://www.w3.org/Graphics/SVG/1.1/DTD/svg11.dtd">
<svg version="1.1" id="图层_1_1_" xmlns="http://www.w3.org/2000/svg" xmlns:xlink="http://www.w3.org/1999/xlink" x="0px"
	 y="0px" width="64px" height="64px" viewBox="0 0 64 64" enable-background="new 0 0 64 64" xml:space="preserve">
<g id="Blue">
	<path fill="none" stroke-width="2" stroke="#0000FF" d="M1.417,34.833c0,0,6.5-6.417,13.75,0c0,0,2,3.083,8.083,3.25c0,0,5,0.501,8.167-3.583
		c0,0,2-2.622,7-2.519c0,0,4.25-0.734,8.25,3.059c0,0,3.499,2.998,8.666,3.063c0,0,5.333-0.325,7-3.089"/>
	<circle fill="none" stroke-width="2" stroke="#0000FF" cx="23.167" cy="26" r="9.667"/>
</g>
<g id="Red">
	<path fill="none" stroke-width="2" stroke="#FF0000" d="M1.417,34.833c0,0,6.5-6.417,13.75,0c0,0,2,3.083,8.083,3.25c0,0,5,0.501,8.167-3.583
		c0,0,2-2.622,7-2.519c0,0,4.25-0.734,8.25,3.059c0,0,3.499,2.998,8.666,3.063c0,0,5.333-0.325,7-3.089"/>
	<circle fill="none" stroke-width="2" stroke="#FF0000" cx="23.167" cy="26" r="9.667"/>
</g>
<g id="White">
	<path fill="none" stroke-width="2" stroke="#00FF00" d="M1.417,34.833c0,0,6.5-6.417,13.75,0c0,0,2,3.083,8.083,3.25c0,0,5,0.501,8.167-3.583
		c0,0,2-2.622,7-2.519c0,0,4.25-0.734,8.25,3.059c0,0,3.499,2.998,8.666,3.063c0,0,5.333-0.325,7-3.089"/>
	<circle fill="none" stroke-width="2" stroke="#00FF00" cx="23.167" cy="26" r="9.667"/>
</g>
</svg>
