<?xml version="1.0" encoding="utf-8"?>
<!-- Generator: Adobe Illustrator 14.0.0, SVG Export Plug-In . SVG Version: 6.00 Build 43363)  -->
<!DOCTYPE svg PUBLIC "-//W3C//DTD SVG 1.1//EN" "http://www.w3.org/Graphics/SVG/1.1/DTD/svg11.dtd">
<svg version="1.1" id="图层_1" xmlns="http://www.w3.org/2000/svg" xmlns:xlink="http://www.w3.org/1999/xlink" x="0px" y="0px"
	 width="64px" height="64px" viewBox="0 0 64 64" enable-background="new 0 0 64 64" xml:space="preserve">
<g id="Blue">
	<path fill="none" stroke-width="2" stroke="#0000FF" d="M61.834,32.175c0,16.522-13.393,29.918-29.917,29.918c-13.667,0-23.292-8.343-28.121-19.686"
		/>
	<polygon fill="#0000FF" points="4.609,26.219 2.212,35.954 0.17,26.479 2.301,28.417 	"/>
	<polygon fill="#0000FF" points="59.353,35.907 61.34,26.08 63.777,35.461 61.566,33.614 	"/>
	<path fill="none" stroke-width="2" stroke="#0000FF" d="M2,32.175C2,15.653,15.394,2.259,31.917,2.259c16.523,0,24.5,11.325,28.239,20.027"/>
</g>
<g id="Red">
	<path fill="none" stroke-width="2" stroke="#FF0000" d="M61.834,32.175c0,16.522-13.393,29.918-29.917,29.918c-13.667,0-23.292-8.343-28.121-19.686"
		/>
	<polygon fill="#FF0000" points="4.609,26.219 2.212,35.954 0.17,26.479 2.301,28.417 	"/>
	<polygon fill="#FF0000" points="59.353,35.907 61.34,26.08 63.777,35.461 61.566,33.614 	"/>
	<path fill="none" stroke-width="2" stroke="#FF0000" d="M2,32.175C2,15.653,15.394,2.259,31.917,2.259c16.523,0,24.5,11.325,28.239,20.027"/>
</g>
<g id="White">
	<path fill="none" stroke-width="2" stroke="#00FF00" d="M61.834,32.175c0,16.522-13.393,29.918-29.917,29.918c-13.667,0-23.292-8.343-28.121-19.686"
		/>
	<polygon fill="#00FF00" points="4.609,26.219 2.212,35.954 0.17,26.479 2.301,28.417 	"/>
	<polygon fill="#00FF00" points="59.353,35.907 61.34,26.08 63.777,35.461 61.566,33.614 	"/>
	<path fill="none" stroke-width="2" stroke="#00FF00" d="M2,32.175C2,15.653,15.394,2.259,31.917,2.259c16.523,0,24.5,11.325,28.239,20.027"/>
</g>
</svg>
