<?xml version="1.0" encoding="utf-8"?>
<!-- Generator: Adobe Illustrator 14.0.0, SVG Export Plug-In . SVG Version: 6.00 Build 43363)  -->
<!DOCTYPE svg PUBLIC "-//W3C//DTD SVG 1.1//EN" "http://www.w3.org/Graphics/SVG/1.1/DTD/svg11.dtd">
<svg version="1.1" id="图层_1" xmlns="http://www.w3.org/2000/svg" xmlns:xlink="http://www.w3.org/1999/xlink" x="0px" y="0px"
	 width="64px" height="64px" viewBox="0 0 64 64" enable-background="new 0 0 64 64" xml:space="preserve">
<g id="Blue">
	<line fill="none" stroke-width="2" stroke="#0000FF" x1="0.833" y1="38.584" x2="62.334" y2="38.584"/>
	<line fill="none" stroke-width="2" stroke="#0000FF" x1="13.583" y1="38.584" x2="13.583" y2="20.25"/>
	<line fill="none" stroke-width="2" stroke="#0000FF" x1="13.078" y1="20.25" x2="50.406" y2="20.25"/>
	<line fill="none" stroke-width="2" stroke="#0000FF" x1="49.917" y1="20.25" x2="49.917" y2="38.584"/>
	<line fill="none" stroke-width="2" stroke="#0000FF" x1="32" y1="20.25" x2="32" y2="38.584"/>
</g>
<g id="Red">
	<line fill="none" stroke-width="2" stroke="#FF0000" x1="0.833" y1="38.584" x2="62.334" y2="38.584"/>
	<line fill="none" stroke-width="2" stroke="#FF0000" x1="13.583" y1="38.584" x2="13.583" y2="20.25"/>
	<line fill="none" stroke-width="2" stroke="#FF0000" x1="13.078" y1="20.25" x2="50.406" y2="20.25"/>
	<line fill="none" stroke-width="2" stroke="#FF0000" x1="49.917" y1="20.25" x2="49.917" y2="38.584"/>
	<line fill="none" stroke-width="2" stroke="#FF0000" x1="32" y1="20.25" x2="32" y2="38.584"/>
</g>
<g id="White">
	<line fill="none" stroke-width="2" stroke="#00FF00" x1="0.833" y1="38.584" x2="62.334" y2="38.584"/>
	<line fill="none" stroke-width="2" stroke="#00FF00" x1="13.583" y1="38.584" x2="13.583" y2="20.25"/>
	<line fill="none" stroke-width="2" stroke="#00FF00" x1="13.078" y1="20.25" x2="50.406" y2="20.25"/>
	<line fill="none" stroke-width="2" stroke="#00FF00" x1="49.917" y1="20.25" x2="49.917" y2="38.584"/>
	<line fill="none" stroke-width="2" stroke="#00FF00" x1="32" y1="20.25" x2="32" y2="38.584"/>
</g>
</svg>
