<?xml version="1.0" encoding="utf-8"?>
<!-- Generator: Adobe Illustrator 14.0.0, SVG Export Plug-In . SVG Version: 6.00 Build 43363)  -->
<!DOCTYPE svg PUBLIC "-//W3C//DTD SVG 1.1//EN" "http://www.w3.org/Graphics/SVG/1.1/DTD/svg11.dtd">
<svg version="1.1" id="图层_4" xmlns="http://www.w3.org/2000/svg" xmlns:xlink="http://www.w3.org/1999/xlink" x="0px" y="0px"
	 width="64px" height="64px" viewBox="0 0 64 64" enable-background="new 0 0 64 64" xml:space="preserve">
<g id="Blue">
	<circle fill="none" stroke-width="2" stroke="#0000FF" cx="32.05" cy="32.129" r="31.332"/>
	<path fill="none" stroke-width="2" stroke="#0000FF" d="M6.532,28.444c0,0,1.833,26.322,25.518,26.213c0,0,23.026,0.647,24.968-25.566"/>
	<line fill="none" stroke-width="2" stroke="#0000FF" x1="31.991" y1="7.667" x2="31.991" y2="54.333"/>
	<line fill="none" stroke-width="2" stroke="#0000FF" x1="24.979" y1="16.76" x2="38.463" y2="16.76"/>
</g>
<g id="White">
	<circle fill="none" stroke-width="2" stroke="#00FF00" cx="32.05" cy="32.129" r="31.332"/>
	<path fill="none" stroke-width="2" stroke="#00FF00" d="M6.532,28.444c0,0,1.833,26.322,25.518,26.213c0,0,23.026,0.647,24.968-25.566"/>
	<line fill="none" stroke-width="2" stroke="#00FF00" x1="31.991" y1="7.667" x2="31.991" y2="54.333"/>
	<line fill="none" stroke-width="2" stroke="#00FF00" x1="24.979" y1="16.76" x2="38.463" y2="16.76"/>
</g>
<g id="Red">
	<circle fill="none" stroke-width="2" stroke="#FF0000" cx="32.05" cy="32.129" r="31.332"/>
	<path fill="none" stroke-width="2" stroke="#FF0000" d="M6.532,28.444c0,0,1.833,26.322,25.518,26.213c0,0,23.026,0.647,24.968-25.566"/>
	<line fill="none" stroke-width="2" stroke="#FF0000" x1="31.991" y1="7.667" x2="31.991" y2="54.333"/>
	<line fill="none" stroke-width="2" stroke="#FF0000" x1="24.979" y1="16.76" x2="38.463" y2="16.76"/>
</g>
</svg>
