<?xml version="1.0" encoding="utf-8"?>
<!-- Generator: Adobe Illustrator 14.0.0, SVG Export Plug-In . SVG Version: 6.00 Build 43363)  -->
<!DOCTYPE svg PUBLIC "-//W3C//DTD SVG 1.1//EN" "http://www.w3.org/Graphics/SVG/1.1/DTD/svg11.dtd">
<svg version="1.1" id="图层_1" xmlns="http://www.w3.org/2000/svg" xmlns:xlink="http://www.w3.org/1999/xlink" x="0px" y="0px"
	 width="64px" height="64px" viewBox="0 0 64 64" enable-background="new 0 0 64 64" xml:space="preserve">
<g id="Blue">
	<circle fill="none" stroke-width="2" stroke="#0000FF" cx="32" cy="34" r="28.917"/>
	<line fill="none" stroke-width="2" stroke="#0000FF" x1="3.083" y1="4.167" x2="62.5" y2="4.167"/>
	<line fill="none" stroke-width="2" stroke="#0000FF" x1="51.334" y1="23.333" x2="11.5" y2="34"/>
	<line fill="none" stroke-width="2" stroke="#0000FF" x1="11.5" y1="34" x2="51.334" y2="45.333"/>
	<line fill="none" stroke-width="2" stroke="#0000FF" x1="51.334" y1="45.333" x2="51.334" y2="23.333"/>
	<line fill="none" stroke-width="2" stroke="#0000FF" x1="47.834" y1="34" x2="37.834" y2="34"/>
	<polygon fill="#0000FF" points="38.261,35.947 36.375,34.072 38.261,32.083 29.5,34.015 	"/>
</g>
<g id="Red">
	<circle fill="none" stroke-width="2" stroke="#FF0000" cx="32" cy="34" r="28.917"/>
	<line fill="none" stroke-width="2" stroke="#FF0000" x1="3.083" y1="4.167" x2="62.5" y2="4.167"/>
	<line fill="none" stroke-width="2" stroke="#FF0000" x1="51.334" y1="23.333" x2="11.5" y2="34"/>
	<line fill="none" stroke-width="2" stroke="#FF0000" x1="11.5" y1="34" x2="51.334" y2="45.333"/>
	<line fill="none" stroke-width="2" stroke="#FF0000" x1="51.334" y1="45.333" x2="51.334" y2="23.333"/>
	<line fill="none" stroke-width="2" stroke="#FF0000" x1="47.834" y1="34" x2="37.834" y2="34"/>
	<polygon fill="#FF0000" points="38.261,35.947 36.375,34.072 38.261,32.083 29.5,34.015 	"/>
</g>
<g id="White">
	<circle fill="none" stroke-width="2" stroke="#00FF00" cx="32" cy="34" r="28.917"/>
	<line fill="none" stroke-width="2" stroke="#00FF00" x1="3.083" y1="4.167" x2="62.5" y2="4.167"/>
	<line fill="none" stroke-width="2" stroke="#00FF00" x1="51.334" y1="23.333" x2="11.5" y2="34"/>
	<line fill="none" stroke-width="2" stroke="#00FF00" x1="11.5" y1="34" x2="51.334" y2="45.333"/>
	<line fill="none" stroke-width="2" stroke="#00FF00" x1="51.334" y1="45.333" x2="51.334" y2="23.333"/>
	<line fill="none" stroke-width="2" stroke="#00FF00" x1="47.834" y1="34" x2="37.834" y2="34"/>
	<polygon fill="#00FF00" points="38.261,35.947 36.375,34.072 38.261,32.083 29.5,34.015 	"/>
</g>
</svg>
