<?xml version="1.0" encoding="utf-8"?>
<!-- Generator: Adobe Illustrator 14.0.0, SVG Export Plug-In . SVG Version: 6.00 Build 43363)  -->
<!DOCTYPE svg PUBLIC "-//W3C//DTD SVG 1.1//EN" "http://www.w3.org/Graphics/SVG/1.1/DTD/svg11.dtd">
<svg version="1.1" id="图层_1" xmlns="http://www.w3.org/2000/svg" xmlns:xlink="http://www.w3.org/1999/xlink" x="0px" y="0px"
	 width="64px" height="64px" viewBox="0 0 64 64" enable-background="new 0 0 64 64" xml:space="preserve">
<g id="Blue">
	<line fill="none" stroke-width="2" stroke="#0000FF" x1="62" y1="9.167" x2="16.833" y2="9.167"/>
	<line fill="none" stroke-width="2" stroke="#0000FF" x1="16.833" y1="9.167" x2="16.833" y2="28.5"/>
	<line fill="none" stroke-width="2" stroke="#0000FF" x1="16.833" y1="28.5" x2="2.333" y2="22.5"/>
	<line fill="none" stroke-width="2" stroke="#0000FF" x1="2.333" y1="22.5" x2="16.833" y2="37"/>
	<line fill="none" stroke-width="2" stroke="#0000FF" x1="16.833" y1="37" x2="16.833" y2="55.667"/>
	<line fill="none" stroke-width="2" stroke="#0000FF" x1="17.667" y1="55.667" x2="62" y2="55.667"/>
	<line fill="none" stroke-width="2" stroke="#0000FF" x1="62" y1="55.667" x2="62" y2="9.167"/>
	<rect x="33.083" y="12.167" fill="none" stroke-width="2" stroke="#0000FF" width="19.25" height="9.167"/>
	<polygon fill="none" stroke-width="2" stroke="#0000FF" points="25.167,31.5 31.167,35.667 52.333,35.667 52.333,27.333 31.167,27.333 	"/>
	<polygon fill="none" stroke-width="2" stroke="#0000FF" points="28.667,46.334 52.333,51.5 52.333,41 	"/>
	<line fill="none" stroke-width="2" stroke="#0000FF" x1="33.083" y1="12.167" x2="25.167" y2="16.75"/>
	<line fill="none" stroke-width="2" stroke="#0000FF" x1="25.167" y1="16.75" x2="33.083" y2="21.333"/>
	<line fill="none" stroke-width="2" stroke="#0000FF" x1="52.333" y1="46.334" x2="32" y2="46.334"/>
	<line fill="none" stroke-width="2" stroke="#0000FF" x1="48.333" y1="31.5" x2="36.938" y2="31.5"/>
	<line fill="none" stroke-width="2" stroke="#0000FF" x1="39.334" y1="30.646" x2="34.542" y2="31.5"/>
	<line fill="none" stroke-width="2" stroke="#0000FF" x1="34.542" y1="31.5" x2="39.334" y2="32.417"/>
	<line fill="none" stroke-width="2" stroke="#0000FF" x1="39.417" y1="15.875" x2="34.958" y2="16.958"/>
	<line fill="none" stroke-width="2" stroke="#0000FF" x1="34.958" y1="16.958" x2="39.417" y2="17.917"/>
	<line fill="none" stroke-width="2" stroke="#0000FF" x1="37.188" y1="16.958" x2="48.333" y2="16.958"/>
</g>
<g id="Red">
	<line fill="none" stroke-width="2" stroke="#FF0000" x1="62" y1="9.167" x2="16.833" y2="9.167"/>
	<line fill="none" stroke-width="2" stroke="#FF0000" x1="16.833" y1="9.167" x2="16.833" y2="28.5"/>
	<line fill="none" stroke-width="2" stroke="#FF0000" x1="16.833" y1="28.5" x2="2.333" y2="22.5"/>
	<line fill="none" stroke-width="2" stroke="#FF0000" x1="2.333" y1="22.5" x2="16.833" y2="37"/>
	<line fill="none" stroke-width="2" stroke="#FF0000" x1="16.833" y1="37" x2="16.833" y2="55.667"/>
	<line fill="none" stroke-width="2" stroke="#FF0000" x1="17.667" y1="55.667" x2="62" y2="55.667"/>
	<line fill="none" stroke-width="2" stroke="#FF0000" x1="62" y1="55.667" x2="62" y2="9.167"/>
	<rect x="33.083" y="12.167" fill="none" stroke-width="2" stroke="#FF0000" width="19.25" height="9.167"/>
	<polygon fill="none" stroke-width="2" stroke="#FF0000" points="25.167,31.5 31.167,35.667 52.333,35.667 52.333,27.333 31.167,27.333 	"/>
	<polygon fill="none" stroke-width="2" stroke="#FF0000" points="28.667,46.334 52.333,51.5 52.333,41 	"/>
	<line fill="none" stroke-width="2" stroke="#FF0000" x1="33.083" y1="12.167" x2="25.167" y2="16.75"/>
	<line fill="none" stroke-width="2" stroke="#FF0000" x1="25.167" y1="16.75" x2="33.083" y2="21.333"/>
	<line fill="none" stroke-width="2" stroke="#FF0000" x1="52.333" y1="46.334" x2="32" y2="46.334"/>
	<line fill="none" stroke-width="2" stroke="#FF0000" x1="48.333" y1="31.5" x2="36.938" y2="31.5"/>
	<line fill="none" stroke-width="2" stroke="#FF0000" x1="39.334" y1="30.646" x2="34.542" y2="31.5"/>
	<line fill="none" stroke-width="2" stroke="#FF0000" x1="34.542" y1="31.5" x2="39.334" y2="32.417"/>
	<line fill="none" stroke-width="2" stroke="#FF0000" x1="39.417" y1="15.875" x2="34.958" y2="16.958"/>
	<line fill="none" stroke-width="2" stroke="#FF0000" x1="34.958" y1="16.958" x2="39.417" y2="17.917"/>
	<line fill="none" stroke-width="2" stroke="#FF0000" x1="37.188" y1="16.958" x2="48.333" y2="16.958"/>
</g>
<g id="White">
	<line fill="none" stroke-width="2" stroke="#00FF00" x1="62" y1="9.167" x2="16.833" y2="9.167"/>
	<line fill="none" stroke-width="2" stroke="#00FF00" x1="16.833" y1="9.167" x2="16.833" y2="28.5"/>
	<line fill="none" stroke-width="2" stroke="#00FF00" x1="16.833" y1="28.5" x2="2.333" y2="22.5"/>
	<line fill="none" stroke-width="2" stroke="#00FF00" x1="2.333" y1="22.5" x2="16.833" y2="37"/>
	<line fill="none" stroke-width="2" stroke="#00FF00" x1="16.833" y1="37" x2="16.833" y2="55.667"/>
	<line fill="none" stroke-width="2" stroke="#00FF00" x1="17.667" y1="55.667" x2="62" y2="55.667"/>
	<line fill="none" stroke-width="2" stroke="#00FF00" x1="62" y1="55.667" x2="62" y2="9.167"/>
	<rect x="33.083" y="12.167" fill="none" stroke-width="2" stroke="#00FF00" width="19.25" height="9.167"/>
	<polygon fill="none" stroke-width="2" stroke="#00FF00" points="25.167,31.5 31.167,35.667 52.333,35.667 52.333,27.333 31.167,27.333 	"/>
	<polygon fill="none" stroke-width="2" stroke="#00FF00" points="28.667,46.334 52.333,51.5 52.333,41 	"/>
	<line fill="none" stroke-width="2" stroke="#00FF00" x1="33.083" y1="12.167" x2="25.167" y2="16.75"/>
	<line fill="none" stroke-width="2" stroke="#00FF00" x1="25.167" y1="16.75" x2="33.083" y2="21.333"/>
	<line fill="none" stroke-width="2" stroke="#00FF00" x1="52.333" y1="46.334" x2="32" y2="46.334"/>
	<line fill="none" stroke-width="2" stroke="#00FF00" x1="48.333" y1="31.5" x2="36.938" y2="31.5"/>
	<line fill="none" stroke-width="2" stroke="#00FF00" x1="39.334" y1="30.646" x2="34.542" y2="31.5"/>
	<line fill="none" stroke-width="2" stroke="#00FF00" x1="34.542" y1="31.5" x2="39.334" y2="32.417"/>
	<line fill="none" stroke-width="2" stroke="#00FF00" x1="39.417" y1="15.875" x2="34.958" y2="16.958"/>
	<line fill="none" stroke-width="2" stroke="#00FF00" x1="34.958" y1="16.958" x2="39.417" y2="17.917"/>
	<line fill="none" stroke-width="2" stroke="#00FF00" x1="37.188" y1="16.958" x2="48.333" y2="16.958"/>
</g>
</svg>
