<?xml version="1.0" encoding="utf-8"?>
<!-- Generator: Adobe Illustrator 14.0.0, SVG Export Plug-In . SVG Version: 6.00 Build 43363)  -->
<!DOCTYPE svg PUBLIC "-//W3C//DTD SVG 1.1//EN" "http://www.w3.org/Graphics/SVG/1.1/DTD/svg11.dtd">
<svg version="1.1" id="图层_1" xmlns="http://www.w3.org/2000/svg" xmlns:xlink="http://www.w3.org/1999/xlink" x="0px" y="0px"
	 width="64px" height="64px" viewBox="0 0 64 64" enable-background="new 0 0 64 64" xml:space="preserve">
<g id="Blue">
	<rect x="20.717" y="23.417" fill="none" stroke="#0000FF" stroke-width="2" width="40.2" height="18.75"/>
	<line fill="none" stroke="#0000FF" stroke-width="2" x1="20.717" y1="32.751" x2="6.595" y2="32.792"/>
	<polygon fill="#0000FF" points="9.411,30.896 0.833,32.792 9.411,35.188 6.595,32.792 	"/>
	<line fill="none" stroke="#0000FF" stroke-width="2" x1="40.817" y1="26.375" x2="27.864" y2="33.042"/>
	<line fill="none" stroke="#0000FF" stroke-width="2" x1="27.864" y1="33.042" x2="40.817" y2="39.25"/>
	<line fill="none" stroke="#0000FF" stroke-width="2" x1="40.817" y1="39.25" x2="54.636" y2="33.042"/>
	<line fill="none" stroke="#0000FF" stroke-width="2" x1="54.636" y1="33.042" x2="40.817" y2="26.375"/>
	<line fill="none" stroke="#0000FF" stroke-width="2" x1="34.341" y1="33.042" x2="48.787" y2="33.042"/>
	<line fill="none" stroke="#0000FF" stroke-width="2" x1="38.001" y1="29.708" x2="43.199" y2="29.708"/>
	<line fill="none" stroke="#0000FF" stroke-width="2" x1="38.001" y1="36.146" x2="43.199" y2="36.146"/>
	<line fill="none" stroke="#0000FF" stroke-width="2" x1="12.01" y1="28" x2="12.01" y2="37.25"/>
	<line fill="none" stroke="#0000FF" stroke-width="2" x1="16.039" y1="28" x2="16.039" y2="37.25"/>
	<path fill="none" stroke="#0000FF" stroke-width="2" d="M40.601,23.417c0,0,0.26-11.542,4.288-12.542"/>
	<path fill="none" stroke="#0000FF" stroke-width="2" d="M40.601,42.167c0,0,0.26,12.041,4.288,13.041"/>
</g>
<g id="Red">
	<rect x="20.717" y="23.417" fill="none" stroke="#FF0000" stroke-width="2" width="40.2" height="18.75"/>
	<line fill="none" stroke="#FF0000" stroke-width="2" x1="20.717" y1="32.751" x2="6.595" y2="32.792"/>
	<polygon fill="#FF0000" points="9.411,30.896 0.833,32.792 9.411,35.188 6.595,32.792 	"/>
	<line fill="none" stroke="#FF0000" stroke-width="2" x1="40.817" y1="26.375" x2="27.864" y2="33.042"/>
	<line fill="none" stroke="#FF0000" stroke-width="2" x1="27.864" y1="33.042" x2="40.817" y2="39.25"/>
	<line fill="none" stroke="#FF0000" stroke-width="2" x1="40.817" y1="39.25" x2="54.636" y2="33.042"/>
	<line fill="none" stroke="#FF0000" stroke-width="2" x1="54.636" y1="33.042" x2="40.817" y2="26.375"/>
	<line fill="none" stroke="#FF0000" stroke-width="2" x1="34.341" y1="33.042" x2="48.787" y2="33.042"/>
	<line fill="none" stroke="#FF0000" stroke-width="2" x1="38.001" y1="29.708" x2="43.199" y2="29.708"/>
	<line fill="none" stroke="#FF0000" stroke-width="2" x1="38.001" y1="36.146" x2="43.199" y2="36.146"/>
	<line fill="none" stroke="#FF0000" stroke-width="2" x1="12.01" y1="28" x2="12.01" y2="37.25"/>
	<line fill="none" stroke="#FF0000" stroke-width="2" x1="16.039" y1="28" x2="16.039" y2="37.25"/>
	<path fill="none" stroke="#FF0000" stroke-width="2" d="M40.601,23.417c0,0,0.26-11.542,4.288-12.542"/>
	<path fill="none" stroke="#FF0000" stroke-width="2" d="M40.601,42.167c0,0,0.26,12.041,4.288,13.041"/>
</g>
<g id="White">
	<rect x="20.717" y="23.417" fill="none" stroke="#00FF00" stroke-width="2" width="40.2" height="18.75"/>
	<line fill="none" stroke="#00FF00" stroke-width="2" x1="20.717" y1="32.751" x2="6.595" y2="32.792"/>
	<polygon fill="#00FF00" points="9.411,30.896 0.833,32.792 9.411,35.188 6.595,32.792 	"/>
	<line fill="none" stroke="#00FF00" stroke-width="2" x1="40.817" y1="26.375" x2="27.864" y2="33.042"/>
	<line fill="none" stroke="#00FF00" stroke-width="2" x1="27.864" y1="33.042" x2="40.817" y2="39.25"/>
	<line fill="none" stroke="#00FF00" stroke-width="2" x1="40.817" y1="39.25" x2="54.636" y2="33.042"/>
	<line fill="none" stroke="#00FF00" stroke-width="2" x1="54.636" y1="33.042" x2="40.817" y2="26.375"/>
	<line fill="none" stroke="#00FF00" stroke-width="2" x1="34.341" y1="33.042" x2="48.787" y2="33.042"/>
	<line fill="none" stroke="#00FF00" stroke-width="2" x1="38.001" y1="29.708" x2="43.199" y2="29.708"/>
	<line fill="none" stroke="#00FF00" stroke-width="2" x1="38.001" y1="36.146" x2="43.199" y2="36.146"/>
	<line fill="none" stroke="#00FF00" stroke-width="2" x1="12.01" y1="28" x2="12.01" y2="37.25"/>
	<line fill="none" stroke="#00FF00" stroke-width="2" x1="16.039" y1="28" x2="16.039" y2="37.25"/>
	<path fill="none" stroke="#00FF00" stroke-width="2" d="M40.601,23.417c0,0,0.26-11.542,4.288-12.542"/>
	<path fill="none" stroke="#00FF00" stroke-width="2" d="M40.601,42.167c0,0,0.26,12.041,4.288,13.041"/>
</g>
</svg>
