<?xml version="1.0" encoding="utf-8"?>
<!-- Generator: Adobe Illustrator 14.0.0, SVG Export Plug-In . SVG Version: 6.00 Build 43363)  -->
<!DOCTYPE svg PUBLIC "-//W3C//DTD SVG 1.1//EN" "http://www.w3.org/Graphics/SVG/1.1/DTD/svg11.dtd">
<svg version="1.1" id="图层_1" xmlns="http://www.w3.org/2000/svg" xmlns:xlink="http://www.w3.org/1999/xlink" x="0px" y="0px"
	 width="64px" height="64px" viewBox="0 0 64 64" enable-background="new 0 0 64 64" xml:space="preserve">
<g id="Blue">
	<line fill="none" stroke="#262400" stroke-width="2" x1="23.083" y1="32" x2="8.833" y2="32"/>
	<line fill="none" stroke="#FFFF00" x1="23.083" y1="31.469" x2="8.833" y2="31.469"/>
	<polygon fill="#262400" points="11.333,34.917 0.417,32 11.333,29.5 8.833,32 	"/>
	<ellipse fill="none" stroke="#262400" stroke-width="2" cx="42.896" cy="32" rx="19.812" ry="8.125"/>
	<ellipse fill="none" stroke="#FFFF00" cx="42.896" cy="32" rx="18.822" ry="7.719"/>
	<line fill="none" stroke="#262400" stroke-width="2" x1="31.75" y1="32" x2="54" y2="32"/>
	<line fill="none" stroke="#FFFF00" x1="31.75" y1="31.469" x2="54" y2="31.469"/>
	<line fill="none" stroke="#0000FF" x1="38.813" y1="28.5" x2="47.188" y2="28.5"/>
	<line fill="none" stroke="#0000FF" x1="38.813" y1="35.375" x2="47.188" y2="35.375"/>
	<path fill="none" stroke="#262400" stroke-width="2" d="M56.209,29.542c0,0-2.209-0.126-2.209,2.458c0,0,0.154,1.953,2.209,2.209"
		/>
	<path fill="none" stroke="#FFFF00" d="M56.389,29.77c0,0-1.992-0.114-1.992,2.218c0,0,0.139,1.764,1.992,1.992"/>
</g>
<g id="Red">
	<line fill="none" stroke="#262400" stroke-width="2" x1="23.083" y1="32" x2="8.833" y2="32"/>
	<line fill="none" stroke="#FFFF00" x1="23.083" y1="31.469" x2="8.833" y2="31.469"/>
	<polygon fill="#262400" points="11.333,34.917 0.417,32 11.333,29.5 8.833,32 	"/>
	<ellipse fill="none" stroke="#262400" stroke-width="2" cx="42.896" cy="32" rx="19.812" ry="8.125"/>
	<ellipse fill="none" stroke="#FFFF00" cx="42.896" cy="32" rx="18.822" ry="7.719"/>
	<line fill="none" stroke="#262400" stroke-width="2" x1="31.75" y1="32" x2="54" y2="32"/>
	<line fill="none" stroke="#FFFF00" x1="31.75" y1="31.469" x2="54" y2="31.469"/>
	<line fill="none" stroke="#FF0000" x1="38.813" y1="28.5" x2="47.188" y2="28.5"/>
	<line fill="none" stroke="#FF0000" x1="38.813" y1="35.375" x2="47.188" y2="35.375"/>
	<path fill="none" stroke="#262400" stroke-width="2" d="M56.209,29.542c0,0-2.209-0.126-2.209,2.458c0,0,0.154,1.953,2.209,2.209"
		/>
	<path fill="none" stroke="#FFFF00" d="M56.389,29.77c0,0-1.992-0.114-1.992,2.218c0,0,0.139,1.764,1.992,1.992"/>
</g>
<g id="White">
	<line fill="none" stroke="#262400" stroke-width="2" x1="23.083" y1="32" x2="8.833" y2="32"/>
	<line fill="none" stroke="#FFFF00" x1="23.083" y1="31.469" x2="8.833" y2="31.469"/>
	<polygon fill="#262400" points="11.333,34.917 0.417,32 11.333,29.5 8.833,32 	"/>
	<ellipse fill="none" stroke="#262400" stroke-width="2" cx="42.896" cy="32" rx="19.812" ry="8.125"/>
	<ellipse fill="none" stroke="#FFFF00" cx="42.896" cy="32" rx="18.822" ry="7.719"/>
	<line fill="none" stroke="#262400" stroke-width="2" x1="31.75" y1="32" x2="54" y2="32"/>
	<line fill="none" stroke="#FFFF00" x1="31.75" y1="31.469" x2="54" y2="31.469"/>
	<line fill="none" stroke="#00FF00" x1="38.813" y1="28.5" x2="47.188" y2="28.5"/>
	<line fill="none" stroke="#00FF00" x1="38.813" y1="35.375" x2="47.188" y2="35.375"/>
	<path fill="none" stroke="#262400" stroke-width="2" d="M56.209,29.542c0,0-2.209-0.126-2.209,2.458c0,0,0.154,1.953,2.209,2.209"
		/>
	<path fill="none" stroke="#FFFF00" d="M56.389,29.77c0,0-1.992-0.114-1.992,2.218c0,0,0.139,1.764,1.992,1.992"/>
</g>
</svg>
