<?xml version="1.0" encoding="utf-8"?>
<!-- Generator: Adobe Illustrator 14.0.0, SVG Export Plug-In . SVG Version: 6.00 Build 43363)  -->
<!DOCTYPE svg PUBLIC "-//W3C//DTD SVG 1.1//EN" "http://www.w3.org/Graphics/SVG/1.1/DTD/svg11.dtd">
<svg version="1.1" id="图层_1" xmlns="http://www.w3.org/2000/svg" xmlns:xlink="http://www.w3.org/1999/xlink" x="0px" y="0px"
	 width="64px" height="64px" viewBox="0 0 64 64" enable-background="new 0 0 64 64" xml:space="preserve">
<g id="Blue">
	<line fill="none" stroke="#0000FF" stroke-width="2" x1="23.083" y1="32" x2="8.833" y2="32"/>
	<polygon fill="#0000FF" points="11.333,34.917 0.417,32 11.333,29.5 8.833,32 	"/>
	<ellipse fill="none" stroke="#0000FF" stroke-width="2" cx="42.896" cy="32" rx="19.812" ry="8.125"/>
	<path fill="none" stroke="#FFFF00" d="M47.114,28.317c0,0-0.842-0.923-2.406-0.842c0,0-2.165,0.241-3.048,2.005
		c0,0-0.642-0.602-2.125-0.522c0,0-1.564-0.08-2.487,1.444c0,0-2.134-0.616-2.976,1.319"/>
	<path fill="none" stroke="#000100" d="M47.114,28.121c0,0-0.842-0.923-2.406-0.843c0,0-2.165,0.241-3.048,2.005
		c0,0-0.642-0.602-2.125-0.521c0,0-1.564-0.08-2.487,1.443c0,0-2.206-0.419-3.048,1.517"/>
	<path fill="none" stroke="#FFFF00" d="M47.114,35.129c0,0-0.842,0.923-2.406,0.843c0,0-2.165-0.241-3.048-2.006
		c0,0-0.642,0.602-2.125,0.521c0,0-1.564,0.08-2.487-1.443c0,0-2.134,0.614-2.976-1.321"/>
	<path fill="none" stroke="#000100" d="M47.114,35.324c0,0-0.842,0.923-2.406,0.843c0,0-2.165-0.241-3.048-2.006
		c0,0-0.642,0.602-2.125,0.521c0,0-1.564,0.08-2.487-1.443c0,0-2.206,0.419-3.048-1.517"/>
</g>
<g id="Red">
	<line fill="none" stroke="#FF0000" stroke-width="2" x1="23.083" y1="32" x2="8.833" y2="32"/>
	<polygon fill="#FF0000" points="11.333,34.917 0.417,32 11.333,29.5 8.833,32 	"/>
	<ellipse fill="none" stroke="#FF0000" stroke-width="2" cx="42.896" cy="32" rx="19.812" ry="8.125"/>
	<path fill="none" stroke="#FFFF00" d="M47.114,28.317c0,0-0.842-0.923-2.406-0.842c0,0-2.165,0.241-3.048,2.005
		c0,0-0.642-0.602-2.125-0.522c0,0-1.564-0.08-2.487,1.444c0,0-2.134-0.616-2.976,1.319"/>
	<path fill="none" stroke="#000100" d="M47.114,28.121c0,0-0.842-0.923-2.406-0.843c0,0-2.165,0.241-3.048,2.005
		c0,0-0.642-0.602-2.125-0.521c0,0-1.564-0.08-2.487,1.443c0,0-2.206-0.419-3.048,1.517"/>
	<path fill="none" stroke="#FFFF00" d="M47.114,35.129c0,0-0.842,0.923-2.406,0.843c0,0-2.165-0.241-3.048-2.006
		c0,0-0.642,0.602-2.125,0.521c0,0-1.564,0.08-2.487-1.443c0,0-2.134,0.614-2.976-1.321"/>
	<path fill="none" stroke="#000100" d="M47.114,35.324c0,0-0.842,0.923-2.406,0.843c0,0-2.165-0.241-3.048-2.006
		c0,0-0.642,0.602-2.125,0.521c0,0-1.564,0.08-2.487-1.443c0,0-2.206,0.419-3.048-1.517"/>
</g>
<g id="White">
	<line fill="none" stroke="#00FF00" stroke-width="2" x1="23.083" y1="32" x2="8.833" y2="32"/>
	<polygon fill="#00FF00" points="11.333,34.917 0.417,32 11.333,29.5 8.833,32 	"/>
	<ellipse fill="none" stroke="#00FF00" stroke-width="2" cx="42.896" cy="32" rx="19.812" ry="8.125"/>
	<path fill="none" stroke="#FFFF00" d="M47.114,28.317c0,0-0.842-0.923-2.406-0.842c0,0-2.165,0.241-3.048,2.005
		c0,0-0.642-0.602-2.125-0.522c0,0-1.564-0.08-2.487,1.444c0,0-2.134-0.616-2.976,1.319"/>
	<path fill="none" stroke="#000100" d="M47.114,28.121c0,0-0.842-0.923-2.406-0.843c0,0-2.165,0.241-3.048,2.005
		c0,0-0.642-0.602-2.125-0.521c0,0-1.564-0.08-2.487,1.443c0,0-2.206-0.419-3.048,1.517"/>
	<path fill="none" stroke="#FFFF00" d="M47.114,35.129c0,0-0.842,0.923-2.406,0.843c0,0-2.165-0.241-3.048-2.006
		c0,0-0.642,0.602-2.125,0.521c0,0-1.564,0.08-2.487-1.443c0,0-2.134,0.614-2.976-1.321"/>
	<path fill="none" stroke="#000100" d="M47.114,35.324c0,0-0.842,0.923-2.406,0.843c0,0-2.165-0.241-3.048-2.006
		c0,0-0.642,0.602-2.125,0.521c0,0-1.564,0.08-2.487-1.443c0,0-2.206,0.419-3.048-1.517"/>
</g>
</svg>
