<?xml version="1.0" encoding="utf-8"?>
<!-- Generator: Adobe Illustrator 14.0.0, SVG Export Plug-In . SVG Version: 6.00 Build 43363)  -->
<!DOCTYPE svg PUBLIC "-//W3C//DTD SVG 1.1//EN" "http://www.w3.org/Graphics/SVG/1.1/DTD/svg11.dtd">
<svg version="1.1" id="图层_1" xmlns="http://www.w3.org/2000/svg" xmlns:xlink="http://www.w3.org/1999/xlink" x="0px" y="0px"
	 width="64px" height="64px" viewBox="0 0 64 64" enable-background="new 0 0 64 64" xml:space="preserve">
<g id="Blue">
	<polygon fill="#0000FF" points="9.167,32 11.292,33.688 2.507,32 11.292,30.313 	"/>
	<line fill="none" stroke="#0000FF" stroke-width="2" x1="9.167" y1="32" x2="29.292" y2="32"/>
	<line fill="none" stroke="#0000FF" stroke-width="2" x1="29.292" y1="32" x2="36.167" y2="29"/>
	<line fill="none" stroke="#0000FF" stroke-width="2" x1="36.167" y1="29" x2="42.708" y2="32"/>
	<line fill="none" stroke="#0000FF" stroke-width="2" x1="42.708" y1="32" x2="36.167" y2="35.084"/>
	<line fill="none" stroke="#0000FF" stroke-width="2" x1="36.167" y1="35.084" x2="29.292" y2="32"/>
	<line fill="none" stroke="#0000FF" stroke-width="2" x1="36.167" y1="29" x2="38.958" y2="25"/>
	<line fill="none" stroke="#0000FF" stroke-width="2" x1="38.958" y1="25" x2="62.792" y2="25"/>
	<line fill="none" stroke="#0000FF" stroke-width="2" x1="36.167" y1="35.084" x2="38.958" y2="38.958"/>
	<line fill="none" stroke="#0000FF" stroke-width="2" x1="38.958" y1="38.958" x2="62.792" y2="38.958"/>
	<line fill="none" stroke="#FFFF00" x1="9.604" y1="31.5" x2="29.729" y2="31.5"/>
	<line fill="none" stroke="#FFFF00" x1="36.604" y1="34.584" x2="39.396" y2="38.458"/>
	<line fill="none" stroke="#FFFF00" x1="39.396" y1="38.458" x2="63.229" y2="38.458"/>
</g>
<g id="Red">
	<polygon fill="#FF0000" points="9.167,32 11.292,33.688 2.507,32 11.292,30.313 	"/>
	<line fill="none" stroke="#FF0000" stroke-width="2" x1="9.167" y1="32" x2="29.292" y2="32"/>
	<line fill="none" stroke="#FF0000" stroke-width="2" x1="29.292" y1="32" x2="36.167" y2="29"/>
	<line fill="none" stroke="#FF0000" stroke-width="2" x1="36.167" y1="29" x2="42.708" y2="32"/>
	<line fill="none" stroke="#FF0000" stroke-width="2" x1="42.708" y1="32" x2="36.167" y2="35.084"/>
	<line fill="none" stroke="#FF0000" stroke-width="2" x1="36.167" y1="35.084" x2="29.292" y2="32"/>
	<line fill="none" stroke="#FF0000" stroke-width="2" x1="36.167" y1="29" x2="38.958" y2="25"/>
	<line fill="none" stroke="#FF0000" stroke-width="2" x1="38.958" y1="25" x2="62.792" y2="25"/>
	<line fill="none" stroke="#FF0000" stroke-width="2" x1="36.167" y1="35.084" x2="38.958" y2="38.958"/>
	<line fill="none" stroke="#FF0000" stroke-width="2" x1="38.958" y1="38.958" x2="62.792" y2="38.958"/>
	<line fill="none" stroke="#FFFF00" x1="9.604" y1="31.5" x2="29.729" y2="31.5"/>
	<line fill="none" stroke="#FFFF00" x1="36.604" y1="34.584" x2="39.396" y2="38.458"/>
	<line fill="none" stroke="#FFFF00" x1="39.396" y1="38.458" x2="63.229" y2="38.458"/>
</g>
<g id="White">
	<polygon fill="#00FF00" points="9.167,32 11.292,33.688 2.507,32 11.292,30.313 	"/>
	<line fill="none" stroke="#00FF00" stroke-width="2" x1="9.167" y1="32" x2="29.292" y2="32"/>
	<line fill="none" stroke="#00FF00" stroke-width="2" x1="29.292" y1="32" x2="36.167" y2="29"/>
	<line fill="none" stroke="#00FF00" stroke-width="2" x1="36.167" y1="29" x2="42.708" y2="32"/>
	<line fill="none" stroke="#00FF00" stroke-width="2" x1="42.708" y1="32" x2="36.167" y2="35.084"/>
	<line fill="none" stroke="#00FF00" stroke-width="2" x1="36.167" y1="35.084" x2="29.292" y2="32"/>
	<line fill="none" stroke="#00FF00" stroke-width="2" x1="36.167" y1="29" x2="38.958" y2="25"/>
	<line fill="none" stroke="#00FF00" stroke-width="2" x1="38.958" y1="25" x2="62.792" y2="25"/>
	<line fill="none" stroke="#00FF00" stroke-width="2" x1="36.167" y1="35.084" x2="38.958" y2="38.958"/>
	<line fill="none" stroke="#00FF00" stroke-width="2" x1="38.958" y1="38.958" x2="62.792" y2="38.958"/>
	<line fill="none" stroke="#FFFF00" x1="9.604" y1="31.5" x2="29.729" y2="31.5"/>
	<line fill="none" stroke="#FFFF00" x1="36.604" y1="34.584" x2="39.396" y2="38.458"/>
	<line fill="none" stroke="#FFFF00" x1="39.396" y1="38.458" x2="63.229" y2="38.458"/>
</g>
</svg>
