<?xml version="1.0" encoding="utf-8"?>
<!-- Generator: Adobe Illustrator 14.0.0, SVG Export Plug-In . SVG Version: 6.00 Build 43363)  -->
<!DOCTYPE svg PUBLIC "-//W3C//DTD SVG 1.1//EN" "http://www.w3.org/Graphics/SVG/1.1/DTD/svg11.dtd">
<svg version="1.1" id="图层_1" xmlns="http://www.w3.org/2000/svg" xmlns:xlink="http://www.w3.org/1999/xlink" x="0px" y="0px"
	 width="64px" height="64px" viewBox="0 0 64 64" enable-background="new 0 0 64 64" xml:space="preserve">
<g id="Blue">
	<line fill="none" stroke="#0000FF" stroke-width="2" x1="8.302" y1="34.608" x2="48.846" y2="34.608"/>
	<line fill="none" stroke="#FFFF00" x1="8.686" y1="34.17" x2="48.846" y2="34.17"/>
	<line fill="none" stroke="#0000FF" stroke-width="2" x1="49.053" y1="41.341" x2="49.053" y2="26.851"/>
	<line fill="none" stroke="#FFFF00" x1="48.613" y1="41.341" x2="48.613" y2="26.851"/>
	<line fill="none" stroke="#0000FF" stroke-width="2" x1="49.053" y1="26.851" x2="62.03" y2="20.777"/>
	<line fill="none" stroke="#0000FF" stroke-width="2" x1="62.03" y1="20.777" x2="49.053" y2="14.776"/>
	<line fill="none" stroke="#0000FF" stroke-width="2" x1="49.053" y1="14.776" x2="35.246" y2="20.777"/>
	<line fill="none" stroke="#0000FF" stroke-width="2" x1="35.246" y1="20.777" x2="49.053" y2="26.851"/>
	<line fill="none" stroke="#0000FF" stroke-width="2" x1="49.467" y1="53.418" x2="62.445" y2="47.343"/>
	<line fill="none" stroke="#0000FF" stroke-width="2" x1="62.445" y1="47.343" x2="49.467" y2="41.343"/>
	<line fill="none" stroke="#0000FF" stroke-width="2" x1="49.467" y1="41.343" x2="35.661" y2="47.343"/>
	<line fill="none" stroke="#0000FF" stroke-width="2" x1="35.661" y1="47.343" x2="49.467" y2="53.418"/>
	<path fill="none" stroke="#0000FF" stroke-width="2" d="M27.452,16.752c0,0-4.537,7.977-4.464,17.418
		c0,0,0.659,11.123,4.464,17.638"/>
	<polygon fill="#0000FF" points="8.501,34.608 10.553,36.239 2.067,34.608 10.553,32.979 	"/>
</g>
<g id="Red">
	<line fill="none" stroke="#FF0000" stroke-width="2" x1="8.302" y1="34.608" x2="48.846" y2="34.608"/>
	<line fill="none" stroke="#FFFF00" x1="8.686" y1="34.17" x2="48.846" y2="34.17"/>
	<line fill="none" stroke="#FF0000" stroke-width="2" x1="49.053" y1="41.341" x2="49.053" y2="26.851"/>
	<line fill="none" stroke="#FFFF00" x1="48.613" y1="41.341" x2="48.613" y2="26.851"/>
	<line fill="none" stroke="#FF0000" stroke-width="2" x1="49.053" y1="26.851" x2="62.03" y2="20.777"/>
	<line fill="none" stroke="#FF0000" stroke-width="2" x1="62.03" y1="20.777" x2="49.053" y2="14.776"/>
	<line fill="none" stroke="#FF0000" stroke-width="2" x1="49.053" y1="14.776" x2="35.246" y2="20.777"/>
	<line fill="none" stroke="#FF0000" stroke-width="2" x1="35.246" y1="20.777" x2="49.053" y2="26.851"/>
	<line fill="none" stroke="#FF0000" stroke-width="2" x1="49.467" y1="53.418" x2="62.445" y2="47.343"/>
	<line fill="none" stroke="#FF0000" stroke-width="2" x1="62.445" y1="47.343" x2="49.467" y2="41.343"/>
	<line fill="none" stroke="#FF0000" stroke-width="2" x1="49.467" y1="41.343" x2="35.661" y2="47.343"/>
	<line fill="none" stroke="#FF0000" stroke-width="2" x1="35.661" y1="47.343" x2="49.467" y2="53.418"/>
	<path fill="none" stroke="#FF0000" stroke-width="2" d="M27.452,16.752c0,0-4.537,7.977-4.464,17.418
		c0,0,0.659,11.123,4.464,17.638"/>
	<polygon fill="#FF0000" points="8.501,34.608 10.553,36.239 2.067,34.608 10.553,32.979 	"/>
</g>
<g id="White">
	<line fill="none" stroke="#00FF00" stroke-width="2" x1="8.302" y1="34.608" x2="48.846" y2="34.608"/>
	<line fill="none" stroke="#FFFF00" x1="8.686" y1="34.17" x2="48.846" y2="34.17"/>
	<line fill="none" stroke="#00FF00" stroke-width="2" x1="49.053" y1="41.341" x2="49.053" y2="26.851"/>
	<line fill="none" stroke="#FFFF00" x1="48.613" y1="41.341" x2="48.613" y2="26.851"/>
	<line fill="none" stroke="#00FF00" stroke-width="2" x1="49.053" y1="26.851" x2="62.03" y2="20.777"/>
	<line fill="none" stroke="#00FF00" stroke-width="2" x1="62.03" y1="20.777" x2="49.053" y2="14.776"/>
	<line fill="none" stroke="#00FF00" stroke-width="2" x1="49.053" y1="14.776" x2="35.246" y2="20.777"/>
	<line fill="none" stroke="#00FF00" stroke-width="2" x1="35.246" y1="20.777" x2="49.053" y2="26.851"/>
	<line fill="none" stroke="#00FF00" stroke-width="2" x1="49.467" y1="53.418" x2="62.445" y2="47.343"/>
	<line fill="none" stroke="#00FF00" stroke-width="2" x1="62.445" y1="47.343" x2="49.467" y2="41.343"/>
	<line fill="none" stroke="#00FF00" stroke-width="2" x1="49.467" y1="41.343" x2="35.661" y2="47.343"/>
	<line fill="none" stroke="#00FF00" stroke-width="2" x1="35.661" y1="47.343" x2="49.467" y2="53.418"/>
	<path fill="none" stroke="#00FF00" stroke-width="2" d="M27.452,16.752c0,0-4.537,7.977-4.464,17.418
		c0,0,0.659,11.123,4.464,17.638"/>
	<polygon fill="#00FF00" points="8.501,34.608 10.553,36.239 2.067,34.608 10.553,32.979 	"/>
</g>
</svg>
