<?xml version="1.0" encoding="utf-8"?>
<!-- Generator: Adobe Illustrator 14.0.0, SVG Export Plug-In . SVG Version: 6.00 Build 43363)  -->
<!DOCTYPE svg PUBLIC "-//W3C//DTD SVG 1.1//EN" "http://www.w3.org/Graphics/SVG/1.1/DTD/svg11.dtd">
<svg version="1.1" id="图层_1" xmlns="http://www.w3.org/2000/svg" xmlns:xlink="http://www.w3.org/1999/xlink" x="0px" y="0px"
	 width="64px" height="64px" viewBox="0 0 64 64" enable-background="new 0 0 64 64" xml:space="preserve">
<g id="Blue">
	<rect x="22.25" y="23.417" fill="none" stroke="#0000FF" stroke-width="2" width="38.667" height="18.75"/>
	<line fill="none" stroke="#0000FF" stroke-width="2" x1="22.25" y1="32.751" x2="8.667" y2="32.792"/>
	<polygon fill="#0000FF" points="11.375,30.896 3.125,32.792 11.375,35.188 8.667,32.792 	"/>
	<line fill="none" stroke="#0000FF" stroke-width="2" x1="41.584" y1="26.375" x2="29.125" y2="33.042"/>
	<line fill="none" stroke="#0000FF" stroke-width="2" x1="29.125" y1="33.042" x2="41.584" y2="39.25"/>
	<line fill="none" stroke="#0000FF" stroke-width="2" x1="41.584" y1="39.25" x2="54.875" y2="33.042"/>
	<line fill="none" stroke="#0000FF" stroke-width="2" x1="54.875" y1="33.042" x2="41.584" y2="26.375"/>
	<line fill="none" stroke="#0000FF" stroke-width="2" x1="35.354" y1="33.042" x2="49.25" y2="33.042"/>
	<line fill="none" stroke="#0000FF" stroke-width="2" x1="38.875" y1="29.708" x2="43.875" y2="29.708"/>
	<line fill="none" stroke="#0000FF" stroke-width="2" x1="38.875" y1="36.146" x2="43.875" y2="36.146"/>
</g>
<g id="Red">
	<rect x="22.25" y="23.417" fill="none" stroke="#FF0000" stroke-width="2" width="38.667" height="18.75"/>
	<line fill="none" stroke="#FF0000" stroke-width="2" x1="22.25" y1="32.751" x2="8.667" y2="32.792"/>
	<polygon fill="#FF0000" points="11.375,30.896 3.125,32.792 11.375,35.188 8.667,32.792 	"/>
	<line fill="none" stroke="#FF0000" stroke-width="2" x1="41.584" y1="26.375" x2="29.125" y2="33.042"/>
	<line fill="none" stroke="#FF0000" stroke-width="2" x1="29.125" y1="33.042" x2="41.584" y2="39.25"/>
	<line fill="none" stroke="#FF0000" stroke-width="2" x1="41.584" y1="39.25" x2="54.875" y2="33.042"/>
	<line fill="none" stroke="#FF0000" stroke-width="2" x1="54.875" y1="33.042" x2="41.584" y2="26.375"/>
	<line fill="none" stroke="#FF0000" stroke-width="2" x1="35.354" y1="33.042" x2="49.25" y2="33.042"/>
	<line fill="none" stroke="#FF0000" stroke-width="2" x1="38.875" y1="29.708" x2="43.875" y2="29.708"/>
	<line fill="none" stroke="#FF0000" stroke-width="2" x1="38.875" y1="36.146" x2="43.875" y2="36.146"/>
</g>
<g id="White">
	<rect x="22.25" y="23.417" fill="none" stroke="#00FF00" stroke-width="2" width="38.667" height="18.75"/>
	<line fill="none" stroke="#00FF00" stroke-width="2" x1="22.25" y1="32.751" x2="8.667" y2="32.792"/>
	<polygon fill="#00FF00" points="11.375,30.896 3.125,32.792 11.375,35.188 8.667,32.792 	"/>
	<line fill="none" stroke="#00FF00" stroke-width="2" x1="41.584" y1="26.375" x2="29.125" y2="33.042"/>
	<line fill="none" stroke="#00FF00" stroke-width="2" x1="29.125" y1="33.042" x2="41.584" y2="39.25"/>
	<line fill="none" stroke="#00FF00" stroke-width="2" x1="41.584" y1="39.25" x2="54.875" y2="33.042"/>
	<line fill="none" stroke="#00FF00" stroke-width="2" x1="54.875" y1="33.042" x2="41.584" y2="26.375"/>
	<line fill="none" stroke="#00FF00" stroke-width="2" x1="35.354" y1="33.042" x2="49.25" y2="33.042"/>
	<line fill="none" stroke="#00FF00" stroke-width="2" x1="38.875" y1="29.708" x2="43.875" y2="29.708"/>
	<line fill="none" stroke="#00FF00" stroke-width="2" x1="38.875" y1="36.146" x2="43.875" y2="36.146"/>
</g>
</svg>
