<?xml version="1.0" encoding="utf-8"?>
<!-- Generator: Adobe Illustrator 14.0.0, SVG Export Plug-In . SVG Version: 6.00 Build 43363)  -->
<!DOCTYPE svg PUBLIC "-//W3C//DTD SVG 1.1//EN" "http://www.w3.org/Graphics/SVG/1.1/DTD/svg11.dtd">
<svg version="1.1" id="图层_1" xmlns="http://www.w3.org/2000/svg" xmlns:xlink="http://www.w3.org/1999/xlink" x="0px" y="0px"
	 width="64px" height="64px" viewBox="0 0 64 64" enable-background="new 0 0 64 64" xml:space="preserve">
<g id="Blue">
	<rect x="24" y="22.917" fill="none" stroke="#0000FF" stroke-width="2" width="38.333" height="18.583"/>
	<line fill="none" stroke="#0000FF" stroke-width="2" x1="24" y1="32" x2="9.75" y2="32"/>
	<polygon fill="#0000FF" points="12.25,34.917 1.333,32 12.25,29.5 9.75,32 	"/>
	<line fill="none" stroke="#0000FF" stroke-width="2" x1="32.563" y1="41.5" x2="43.166" y2="22.917"/>
	<line fill="none" stroke="#0000FF" stroke-width="2" x1="43.166" y1="22.917" x2="52.625" y2="41.5"/>
</g>
<g id="Red">
	<rect x="24" y="22.917" fill="none" stroke="#FF0000" stroke-width="2" width="38.333" height="18.583"/>
	<line fill="none" stroke="#FF0000" stroke-width="2" x1="24" y1="32" x2="9.75" y2="32"/>
	<polygon fill="#FF0000" points="12.25,34.917 1.333,32 12.25,29.5 9.75,32 	"/>
	<line fill="none" stroke="#FF0000" stroke-width="2" x1="32.563" y1="41.5" x2="43.166" y2="22.917"/>
	<line fill="none" stroke="#FF0000" stroke-width="2" x1="43.166" y1="22.917" x2="52.625" y2="41.5"/>
</g>
<g id="White">
	<rect x="24" y="22.917" fill="none" stroke="#00FF00" stroke-width="2" width="38.333" height="18.583"/>
	<line fill="none" stroke="#00FF00" stroke-width="2" x1="24" y1="32" x2="9.75" y2="32"/>
	<polygon fill="#00FF00" points="12.25,34.917 1.333,32 12.25,29.5 9.75,32 	"/>
	<line fill="none" stroke="#00FF00" stroke-width="2" x1="32.563" y1="41.5" x2="43.166" y2="22.917"/>
	<line fill="none" stroke="#00FF00" stroke-width="2" x1="43.166" y1="22.917" x2="52.625" y2="41.5"/>
</g>
</svg>
