<?xml version="1.0" encoding="utf-8"?>
<!-- Generator: Adobe Illustrator 14.0.0, SVG Export Plug-In . SVG Version: 6.00 Build 43363)  -->
<!DOCTYPE svg PUBLIC "-//W3C//DTD SVG 1.1//EN" "http://www.w3.org/Graphics/SVG/1.1/DTD/svg11.dtd">
<svg version="1.1" id="图层_1" xmlns="http://www.w3.org/2000/svg" xmlns:xlink="http://www.w3.org/1999/xlink" x="0px" y="0px"
	 width="64px" height="64px" viewBox="0 0 64 64" enable-background="new 0 0 64 64" xml:space="preserve">
<g id="Blue">
	<rect x="23.25" y="23.417" fill="none" stroke="#0000FF" stroke-width="2" width="38.667" height="18.75"/>
	<line fill="none" stroke="#0000FF" stroke-width="2" x1="34.5" y1="32.792" x2="9.667" y2="32.792"/>
	<polygon fill="#0000FF" points="12.375,30.896 4.125,32.792 12.375,35.188 9.667,32.792 	"/>
	<line fill="none" stroke="#0000FF" stroke-width="2" x1="34.5" y1="23.417" x2="34.5" y2="42.167"/>
</g>
<g id="Red">
	<rect x="23.25" y="23.417" fill="none" stroke="#FF0000" stroke-width="2" width="38.667" height="18.75"/>
	<line fill="none" stroke="#FF0000" stroke-width="2" x1="34.5" y1="32.792" x2="9.667" y2="32.792"/>
	<polygon fill="#FF0000" points="12.375,30.896 4.125,32.792 12.375,35.188 9.667,32.792 	"/>
	<line fill="none" stroke="#FF0000" stroke-width="2" x1="34.5" y1="23.417" x2="34.5" y2="42.167"/>
</g>
<g id="White">
	<rect x="23.25" y="23.417" fill="none" stroke="#00FF00" stroke-width="2" width="38.667" height="18.75"/>
	<line fill="none" stroke="#00FF00" stroke-width="2" x1="34.5" y1="32.792" x2="9.667" y2="32.792"/>
	<polygon fill="#00FF00" points="12.375,30.896 4.125,32.792 12.375,35.188 9.667,32.792 	"/>
	<line fill="none" stroke="#00FF00" stroke-width="2" x1="34.5" y1="23.417" x2="34.5" y2="42.167"/>
</g>
</svg>
