<?xml version="1.0" encoding="utf-8"?>
<!-- Generator: Adobe Illustrator 14.0.0, SVG Export Plug-In . SVG Version: 6.00 Build 43363)  -->
<!DOCTYPE svg PUBLIC "-//W3C//DTD SVG 1.1//EN" "http://www.w3.org/Graphics/SVG/1.1/DTD/svg11.dtd">
<svg version="1.1" id="图层_1" xmlns="http://www.w3.org/2000/svg" xmlns:xlink="http://www.w3.org/1999/xlink" x="0px" y="0px"
	 width="64px" height="64px" viewBox="0 0 64 64" enable-background="new 0 0 64 64" xml:space="preserve">
<g id="Blue">
	<line fill="none" stroke="#0000FF" stroke-width="2" x1="14.833" y1="30.656" x2="3.469" y2="30.656"/>
	<path fill="none" stroke="#0000FF" stroke-width="2" d="M3.469,30.656c0,0-2.5,0.031-2.5,3.844c0,0-0.125,2.813,2.5,3.188"/>
	<line fill="none" stroke="#0000FF" stroke-width="2" x1="51.833" y1="30.656" x2="60.434" y2="30.656"/>
	<path fill="none" stroke="#0000FF" stroke-width="2" d="M60.434,30.656c0,0,2.5-0.031,2.5-3.844c0,0,0.125-2.813-2.5-3.188"/>
	<rect x="14.833" y="19.167" fill="none" stroke="#0000FF" stroke-width="2" width="37" height="22.167"/>
	<line fill="none" stroke="#232300" stroke-width="2" x1="33.333" y1="37.688" x2="33.333" y2="25.875"/>
	<line fill="none" stroke="#232300" stroke-width="2" x1="29.813" y1="34.938" x2="29.813" y2="30.25"/>
	<line fill="none" stroke="#232300" stroke-width="2" x1="36.625" y1="34.938" x2="36.625" y2="30.25"/>
	<polygon fill="#232300" points="33.333,25.938 31.646,26.57 33.333,20.75 35.021,26.57 	"/>
</g>
<g id="Red">
	<line fill="none" stroke="#FF0000" stroke-width="2" x1="14.833" y1="30.656" x2="3.469" y2="30.656"/>
	<path fill="none" stroke="#FF0000" stroke-width="2" d="M3.469,30.656c0,0-2.5,0.031-2.5,3.844c0,0-0.125,2.813,2.5,3.188"/>
	<line fill="none" stroke="#FF0000" stroke-width="2" x1="51.833" y1="30.656" x2="60.434" y2="30.656"/>
	<path fill="none" stroke="#FF0000" stroke-width="2" d="M60.434,30.656c0,0,2.5-0.031,2.5-3.844c0,0,0.125-2.813-2.5-3.188"/>
	<rect x="14.833" y="19.167" fill="none" stroke="#FF0000" stroke-width="2" width="37" height="22.167"/>
	<line fill="none" stroke="#232300" stroke-width="2" x1="33.333" y1="37.688" x2="33.333" y2="25.875"/>
	<line fill="none" stroke="#232300" stroke-width="2" x1="29.813" y1="34.938" x2="29.813" y2="30.25"/>
	<line fill="none" stroke="#232300" stroke-width="2" x1="36.625" y1="34.938" x2="36.625" y2="30.25"/>
	<polygon fill="#232300" points="33.333,25.938 31.646,26.57 33.333,20.75 35.021,26.57 	"/>
</g>
<g id="White">
	<line fill="none" stroke="#00FF00" stroke-width="2" x1="14.833" y1="30.656" x2="3.469" y2="30.656"/>
	<path fill="none" stroke="#00FF00" stroke-width="2" d="M3.469,30.656c0,0-2.5,0.031-2.5,3.844c0,0-0.125,2.813,2.5,3.188"/>
	<line fill="none" stroke="#00FF00" stroke-width="2" x1="51.833" y1="30.656" x2="60.434" y2="30.656"/>
	<path fill="none" stroke="#00FF00" stroke-width="2" d="M60.434,30.656c0,0,2.5-0.031,2.5-3.844c0,0,0.125-2.813-2.5-3.188"/>
	<rect x="14.833" y="19.167" fill="none" stroke="#00FF00" stroke-width="2" width="37" height="22.167"/>
	<line fill="none" stroke="#232300" stroke-width="2" x1="33.333" y1="37.688" x2="33.333" y2="25.875"/>
	<line fill="none" stroke="#232300" stroke-width="2" x1="29.813" y1="34.938" x2="29.813" y2="30.25"/>
	<line fill="none" stroke="#232300" stroke-width="2" x1="36.625" y1="34.938" x2="36.625" y2="30.25"/>
	<polygon fill="#232300" points="33.333,25.938 31.646,26.57 33.333,20.75 35.021,26.57 	"/>
</g>
</svg>
