<?xml version="1.0" encoding="utf-8"?>
<!-- Generator: Adobe Illustrator 14.0.0, SVG Export Plug-In . SVG Version: 6.00 Build 43363)  -->
<!DOCTYPE svg PUBLIC "-//W3C//DTD SVG 1.1//EN" "http://www.w3.org/Graphics/SVG/1.1/DTD/svg11.dtd">
<svg version="1.1" id="图层_1" xmlns="http://www.w3.org/2000/svg" xmlns:xlink="http://www.w3.org/1999/xlink" x="0px" y="0px"
	 width="64px" height="64px" viewBox="0 0 64 64" enable-background="new 0 0 64 64" xml:space="preserve">
<g id="Blue">
	<line fill="none" stroke="#262400" stroke-width="2" x1="23.083" y1="32" x2="8.833" y2="32"/>
	<line fill="none" stroke="#0000FF" x1="23.083" y1="31.469" x2="8.833" y2="31.469"/>
	<polygon fill="#262400" points="11.333,34.917 0.417,32 11.333,29.5 8.833,32 	"/>
	<ellipse fill="none" stroke="#262400" stroke-width="2" cx="42.896" cy="32" rx="19.812" ry="8.125"/>
	<ellipse fill="none" stroke="#0000FF" cx="42.896" cy="32" rx="18.822" ry="7.719"/>
	<line fill="none" stroke="#0000FF" x1="36.75" y1="37.583" x2="41.406" y2="29.594"/>
	<line fill="none" stroke="#262400" x1="36.912" y1="36.811" x2="41.568" y2="28.821"/>
	<line fill="none" stroke="#0000FF" x1="41.406" y1="29.594" x2="42.5" y2="37.583"/>
	<line fill="none" stroke="#262400" x1="41.568" y1="28.821" x2="42.662" y2="36.811"/>
	<line fill="none" stroke="#0000FF" x1="42.5" y1="37.583" x2="46.313" y2="31.139"/>
	<line fill="none" stroke="#262400" x1="42.662" y1="36.811" x2="45.96" y2="31.237"/>
	<polygon fill="#262400" points="44.334,31.491 48.732,27.341 46.8,33.014 46.365,31.173 	"/>
</g>
<g id="Red">
	<line fill="none" stroke="#262400" stroke-width="2" x1="23.083" y1="32" x2="8.833" y2="32"/>
	<line fill="none" stroke="#FF0000" x1="23.083" y1="31.469" x2="8.833" y2="31.469"/>
	<polygon fill="#262400" points="11.333,34.917 0.417,32 11.333,29.5 8.833,32 	"/>
	<ellipse fill="none" stroke="#262400" stroke-width="2" cx="42.896" cy="32" rx="19.812" ry="8.125"/>
	<ellipse fill="none" stroke="#FF0000" cx="42.896" cy="32" rx="18.822" ry="7.719"/>
	<line fill="none" stroke="#FF0000" x1="36.75" y1="37.583" x2="41.406" y2="29.594"/>
	<line fill="none" stroke="#262400" x1="36.912" y1="36.811" x2="41.568" y2="28.821"/>
	<line fill="none" stroke="#FF0000" x1="41.406" y1="29.594" x2="42.5" y2="37.583"/>
	<line fill="none" stroke="#262400" x1="41.568" y1="28.821" x2="42.662" y2="36.811"/>
	<line fill="none" stroke="#FF0000" x1="42.5" y1="37.583" x2="46.313" y2="31.139"/>
	<line fill="none" stroke="#262400" x1="42.662" y1="36.811" x2="45.96" y2="31.237"/>
	<polygon fill="#262400" points="44.334,31.491 48.732,27.341 46.8,33.014 46.365,31.173 	"/>
</g>
<g id="White">
	<line fill="none" stroke="#262400" stroke-width="2" x1="23.083" y1="32" x2="8.833" y2="32"/>
	<line fill="none" stroke="#00FF00" x1="23.083" y1="31.469" x2="8.833" y2="31.469"/>
	<polygon fill="#262400" points="11.333,34.917 0.417,32 11.333,29.5 8.833,32 	"/>
	<ellipse fill="none" stroke="#262400" stroke-width="2" cx="42.896" cy="32" rx="19.812" ry="8.125"/>
	<ellipse fill="none" stroke="#00FF00" cx="42.896" cy="32" rx="18.822" ry="7.719"/>
	<line fill="none" stroke="#00FF00" x1="36.75" y1="37.583" x2="41.406" y2="29.594"/>
	<line fill="none" stroke="#262400" x1="36.912" y1="36.811" x2="41.568" y2="28.821"/>
	<line fill="none" stroke="#00FF00" x1="41.406" y1="29.594" x2="42.5" y2="37.583"/>
	<line fill="none" stroke="#262400" x1="41.568" y1="28.821" x2="42.662" y2="36.811"/>
	<line fill="none" stroke="#00FF00" x1="42.5" y1="37.583" x2="46.313" y2="31.139"/>
	<line fill="none" stroke="#262400" x1="42.662" y1="36.811" x2="45.96" y2="31.237"/>
	<polygon fill="#262400" points="44.334,31.491 48.732,27.341 46.8,33.014 46.365,31.173 	"/>
</g>
</svg>
