<?xml version="1.0" encoding="utf-8"?>
<!-- Generator: Adobe Illustrator 14.0.0, SVG Export Plug-In . SVG Version: 6.00 Build 43363)  -->
<!DOCTYPE svg PUBLIC "-//W3C//DTD SVG 1.1//EN" "http://www.w3.org/Graphics/SVG/1.1/DTD/svg11.dtd">
<svg version="1.1" id="图层_1" xmlns="http://www.w3.org/2000/svg" xmlns:xlink="http://www.w3.org/1999/xlink" x="0px" y="0px"
	 width="64px" height="64px" viewBox="0 0 64 64" enable-background="new 0 0 64 64" xml:space="preserve">
<g id="Blue">
	<line fill="none" stroke="#262400" stroke-width="2" x1="23.083" y1="32" x2="8.833" y2="32"/>
	<line fill="none" stroke="#FFFF00" x1="23.083" y1="31.469" x2="8.833" y2="31.469"/>
	<polygon fill="#262400" points="11.333,34.917 0.417,32 11.333,29.5 8.833,32 	"/>
	<ellipse fill="none" stroke="#262400" stroke-width="2" cx="42.896" cy="32" rx="19.812" ry="8.125"/>
	<ellipse fill="none" stroke="#FFFF00" cx="42.896" cy="32" rx="18.822" ry="7.719"/>
	<line fill="none" stroke="#262400" x1="35" y1="35.75" x2="43.563" y2="27.188"/>
	<line fill="none" stroke="#262400" x1="43.563" y1="27.188" x2="43.563" y2="35.75"/>
	<line fill="none" stroke="#262400" x1="43.563" y1="35.75" x2="51.688" y2="27.625"/>
	<line fill="none" stroke="#FFFF00" x1="34.354" y1="35.75" x2="42.917" y2="27.188"/>
	<line fill="none" stroke="#FFFF00" x1="42.917" y1="27.188" x2="42.917" y2="35.75"/>
	<line fill="none" stroke="#FFFF00" x1="42.917" y1="35.75" x2="51.042" y2="27.625"/>
</g>
<g id="Red">
	<line fill="none" stroke="#262400" stroke-width="2" x1="23.083" y1="32" x2="8.833" y2="32"/>
	<line fill="none" stroke="#FFFF00" x1="23.083" y1="31.469" x2="8.833" y2="31.469"/>
	<polygon fill="#262400" points="11.333,34.917 0.417,32 11.333,29.5 8.833,32 	"/>
	<ellipse fill="none" stroke="#262400" stroke-width="2" cx="42.896" cy="32" rx="19.812" ry="8.125"/>
	<ellipse fill="none" stroke="#FFFF00" cx="42.896" cy="32" rx="18.822" ry="7.719"/>
	<line fill="none" stroke="#262400" x1="35" y1="35.75" x2="43.563" y2="27.188"/>
	<line fill="none" stroke="#262400" x1="43.563" y1="27.188" x2="43.563" y2="35.75"/>
	<line fill="none" stroke="#262400" x1="43.563" y1="35.75" x2="51.688" y2="27.625"/>
	<line fill="none" stroke="#FFFF00" x1="34.354" y1="35.75" x2="42.917" y2="27.188"/>
	<line fill="none" stroke="#FFFF00" x1="42.917" y1="27.188" x2="42.917" y2="35.75"/>
	<line fill="none" stroke="#FFFF00" x1="42.917" y1="35.75" x2="51.042" y2="27.625"/>
</g>
<g id="White">
	<line fill="none" stroke="#262400" stroke-width="2" x1="23.083" y1="32" x2="8.833" y2="32"/>
	<line fill="none" stroke="#FFFF00" x1="23.083" y1="31.469" x2="8.833" y2="31.469"/>
	<polygon fill="#262400" points="11.333,34.917 0.417,32 11.333,29.5 8.833,32 	"/>
	<ellipse fill="none" stroke="#262400" stroke-width="2" cx="42.896" cy="32" rx="19.812" ry="8.125"/>
	<ellipse fill="none" stroke="#FFFF00" cx="42.896" cy="32" rx="18.822" ry="7.719"/>
	<line fill="none" stroke="#262400" x1="35" y1="35.75" x2="43.563" y2="27.188"/>
	<line fill="none" stroke="#262400" x1="43.563" y1="27.188" x2="43.563" y2="35.75"/>
	<line fill="none" stroke="#262400" x1="43.563" y1="35.75" x2="51.688" y2="27.625"/>
	<line fill="none" stroke="#FFFF00" x1="34.354" y1="35.75" x2="42.917" y2="27.188"/>
	<line fill="none" stroke="#FFFF00" x1="42.917" y1="27.188" x2="42.917" y2="35.75"/>
	<line fill="none" stroke="#FFFF00" x1="42.917" y1="35.75" x2="51.042" y2="27.625"/>
</g>
</svg>
