<?xml version="1.0" encoding="utf-8"?>
<!-- Generator: Adobe Illustrator 14.0.0, SVG Export Plug-In . SVG Version: 6.00 Build 43363)  -->
<!DOCTYPE svg PUBLIC "-//W3C//DTD SVG 1.1//EN" "http://www.w3.org/Graphics/SVG/1.1/DTD/svg11.dtd">
<svg version="1.1" id="图层_1" xmlns="http://www.w3.org/2000/svg" xmlns:xlink="http://www.w3.org/1999/xlink" x="0px" y="0px"
	 width="64px" height="64px" viewBox="0 0 64 64" enable-background="new 0 0 64 64" xml:space="preserve">
<g id="Blue">
	<rect x="20.717" y="23.417" fill="none" stroke="#3A3400" stroke-width="2" width="40.2" height="18.75"/>
	<rect x="21.722" y="23.886" fill="none" stroke="#FFFF00" width="38.19" height="17.813"/>
	<line fill="none" stroke="#3A3400" stroke-width="2" x1="60.948" y1="32.751" x2="6.595" y2="32.792"/>
	<line fill="none" stroke="#FFFF00" x1="60.886" y1="32.25" x2="7.084" y2="32.29"/>
	<polygon fill="#3A3400" points="9.411,30.896 0.833,32.792 9.411,35.188 6.595,32.792 	"/>
	<line fill="none" stroke="#3A3400" stroke-width="2" x1="29" y1="23.417" x2="33.572" y2="27.99"/>
	<line fill="none" stroke="#3A3400" stroke-width="2" x1="33.572" y1="27.99" x2="48.625" y2="27.99"/>
	<line fill="none" stroke="#3A3400" stroke-width="2" x1="48.625" y1="27.99" x2="53.099" y2="23.516"/>
	<line fill="none" stroke="#FFFF00" x1="28.397" y1="23.303" x2="33.198" y2="28.104"/>
	<line fill="none" stroke="#FFFF00" x1="33.198" y1="28.104" x2="49.004" y2="28.104"/>
	<line fill="none" stroke="#FFFF00" x1="49.004" y1="28.104" x2="53.701" y2="23.406"/>
	<line fill="none" stroke="#3A3400" stroke-width="2" x1="29.05" y1="42.103" x2="33.622" y2="37.529"/>
	<line fill="none" stroke="#3A3400" stroke-width="2" x1="33.622" y1="37.529" x2="48.675" y2="37.529"/>
	<line fill="none" stroke="#3A3400" stroke-width="2" x1="48.675" y1="37.529" x2="53.148" y2="42.004"/>
	<line fill="none" stroke="#FFFF00" x1="28.447" y1="42.217" x2="33.248" y2="37.416"/>
	<line fill="none" stroke="#FFFF00" x1="33.248" y1="37.416" x2="49.054" y2="37.416"/>
	<line fill="none" stroke="#FFFF00" x1="49.054" y1="37.416" x2="53.751" y2="42.113"/>
</g>
<g id="Red">
	<rect x="20.717" y="23.417" fill="none" stroke="#3A3400" stroke-width="2" width="40.2" height="18.75"/>
	<rect x="21.722" y="23.886" fill="none" stroke="#FFFF00" width="38.19" height="17.813"/>
	<line fill="none" stroke="#3A3400" stroke-width="2" x1="60.948" y1="32.751" x2="6.595" y2="32.792"/>
	<line fill="none" stroke="#FFFF00" x1="60.886" y1="32.25" x2="7.084" y2="32.29"/>
	<polygon fill="#3A3400" points="9.411,30.896 0.833,32.792 9.411,35.188 6.595,32.792 	"/>
	<line fill="none" stroke="#3A3400" stroke-width="2" x1="29" y1="23.417" x2="33.572" y2="27.99"/>
	<line fill="none" stroke="#3A3400" stroke-width="2" x1="33.572" y1="27.99" x2="48.625" y2="27.99"/>
	<line fill="none" stroke="#3A3400" stroke-width="2" x1="48.625" y1="27.99" x2="53.099" y2="23.516"/>
	<line fill="none" stroke="#FFFF00" x1="28.397" y1="23.303" x2="33.198" y2="28.104"/>
	<line fill="none" stroke="#FFFF00" x1="33.198" y1="28.104" x2="49.004" y2="28.104"/>
	<line fill="none" stroke="#FFFF00" x1="49.004" y1="28.104" x2="53.701" y2="23.406"/>
	<line fill="none" stroke="#3A3400" stroke-width="2" x1="29.05" y1="42.103" x2="33.622" y2="37.529"/>
	<line fill="none" stroke="#3A3400" stroke-width="2" x1="33.622" y1="37.529" x2="48.675" y2="37.529"/>
	<line fill="none" stroke="#3A3400" stroke-width="2" x1="48.675" y1="37.529" x2="53.148" y2="42.004"/>
	<line fill="none" stroke="#FFFF00" x1="28.447" y1="42.217" x2="33.248" y2="37.416"/>
	<line fill="none" stroke="#FFFF00" x1="33.248" y1="37.416" x2="49.054" y2="37.416"/>
	<line fill="none" stroke="#FFFF00" x1="49.054" y1="37.416" x2="53.751" y2="42.113"/>
</g>
<g id="White">
	<rect x="20.717" y="23.417" fill="none" stroke="#3A3400" stroke-width="2" width="40.2" height="18.75"/>
	<rect x="21.722" y="23.886" fill="none" stroke="#FFFF00" width="38.19" height="17.813"/>
	<line fill="none" stroke="#3A3400" stroke-width="2" x1="60.948" y1="32.751" x2="6.595" y2="32.792"/>
	<line fill="none" stroke="#FFFF00" x1="60.886" y1="32.25" x2="7.084" y2="32.29"/>
	<polygon fill="#3A3400" points="9.411,30.896 0.833,32.792 9.411,35.188 6.595,32.792 	"/>
	<line fill="none" stroke="#3A3400" stroke-width="2" x1="29" y1="23.417" x2="33.572" y2="27.99"/>
	<line fill="none" stroke="#3A3400" stroke-width="2" x1="33.572" y1="27.99" x2="48.625" y2="27.99"/>
	<line fill="none" stroke="#3A3400" stroke-width="2" x1="48.625" y1="27.99" x2="53.099" y2="23.516"/>
	<line fill="none" stroke="#FFFF00" x1="28.397" y1="23.303" x2="33.198" y2="28.104"/>
	<line fill="none" stroke="#FFFF00" x1="33.198" y1="28.104" x2="49.004" y2="28.104"/>
	<line fill="none" stroke="#FFFF00" x1="49.004" y1="28.104" x2="53.701" y2="23.406"/>
	<line fill="none" stroke="#3A3400" stroke-width="2" x1="29.05" y1="42.103" x2="33.622" y2="37.529"/>
	<line fill="none" stroke="#3A3400" stroke-width="2" x1="33.622" y1="37.529" x2="48.675" y2="37.529"/>
	<line fill="none" stroke="#3A3400" stroke-width="2" x1="48.675" y1="37.529" x2="53.148" y2="42.004"/>
	<line fill="none" stroke="#FFFF00" x1="28.447" y1="42.217" x2="33.248" y2="37.416"/>
	<line fill="none" stroke="#FFFF00" x1="33.248" y1="37.416" x2="49.054" y2="37.416"/>
	<line fill="none" stroke="#FFFF00" x1="49.054" y1="37.416" x2="53.751" y2="42.113"/>
</g>
</svg>
