<?xml version="1.0" encoding="utf-8"?>
<!-- Generator: Adobe Illustrator 14.0.0, SVG Export Plug-In . SVG Version: 6.00 Build 43363)  -->
<!DOCTYPE svg PUBLIC "-//W3C//DTD SVG 1.1//EN" "http://www.w3.org/Graphics/SVG/1.1/DTD/svg11.dtd">
<svg version="1.1" id="图层_1" xmlns="http://www.w3.org/2000/svg" xmlns:xlink="http://www.w3.org/1999/xlink" x="0px" y="0px"
	 width="64px" height="64px" viewBox="0 0 64 64" enable-background="new 0 0 64 64" xml:space="preserve">
<g id="Blue">
	<circle fill="none" stroke="#0000FF" stroke-width="2" cx="28.598" cy="34.67" r="23.58"/>
	<circle fill="#0000FF" cx="28.599" cy="34.67" r="4.716"/>
	<line fill="none" stroke="#0000FF" stroke-width="2" x1="13.843" y1="16.283" x2="2" y2="4.439"/>
	<line fill="none" stroke="#0000FF" stroke-width="2" x1="43.354" y1="16.283" x2="55.083" y2="4.554"/>
	<text transform="matrix(1 0 0 1 49.2178 58.25)" font-family="'SimSun'" font-size="11">FH</text>
</g>
<g id="Red">
	<circle fill="none" stroke="#FF0000" stroke-width="2" cx="28.598" cy="34.67" r="23.58"/>
	<circle fill="#FF0000" cx="28.599" cy="34.67" r="4.716"/>
	<line fill="none" stroke="#FF0000" stroke-width="2" x1="13.843" y1="16.283" x2="2" y2="4.439"/>
	<line fill="none" stroke="#FF0000" stroke-width="2" x1="43.354" y1="16.283" x2="55.083" y2="4.554"/>
	<text transform="matrix(1 0 0 1 49.2178 58.25)" font-family="'SimSun'" font-size="11">FH</text>
</g>
<g id="White">
	<circle fill="none" stroke="#00FF00" stroke-width="2" cx="28.598" cy="34.67" r="23.58"/>
	<circle fill="#00FF00" cx="28.599" cy="34.67" r="4.716"/>
	<line fill="none" stroke="#00FF00" stroke-width="2" x1="13.843" y1="16.283" x2="2" y2="4.439"/>
	<line fill="none" stroke="#00FF00" stroke-width="2" x1="43.354" y1="16.283" x2="55.083" y2="4.554"/>
	<text transform="matrix(1 0 0 1 49.2178 58.25)" font-family="'SimSun'" font-size="11">FH</text>
</g>
</svg>
