<?xml version="1.0" encoding="utf-8"?>
<!-- Generator: Adobe Illustrator 14.0.0, SVG Export Plug-In . SVG Version: 6.00 Build 43363)  -->
<!DOCTYPE svg PUBLIC "-//W3C//DTD SVG 1.1//EN" "http://www.w3.org/Graphics/SVG/1.1/DTD/svg11.dtd">
<svg version="1.1" id="图层_1" xmlns="http://www.w3.org/2000/svg" xmlns:xlink="http://www.w3.org/1999/xlink" x="0px" y="0px"
	 width="64px" height="64px" viewBox="0 0 64 64" enable-background="new 0 0 64 64" xml:space="preserve">
<g id="Blue">
	<rect x="20.717" y="23.417" fill="none" stroke="#3A3400" stroke-width="2" width="40.2" height="18.75"/>
	<rect x="21.722" y="23.886" fill="none" stroke="#FFFF00" width="38.19" height="17.813"/>
	<line fill="none" stroke="#3A3400" stroke-width="2" x1="20.717" y1="32.751" x2="6.595" y2="32.792"/>
	<line fill="none" stroke="#FFFF00" x1="20.654" y1="32.25" x2="7.084" y2="32.29"/>
	<polygon fill="#3A3400" points="9.411,30.896 0.833,32.792 9.411,35.188 6.595,32.792 	"/>
	<circle fill="#000100" cx="34" cy="32.667" r="3.5"/>
	<circle fill="#000100" cx="48" cy="32.667" r="3.5"/>
</g>
<g id="Red">
	<rect x="20.717" y="23.417" fill="none" stroke="#3A3400" stroke-width="2" width="40.2" height="18.75"/>
	<rect x="21.722" y="23.886" fill="none" stroke="#FFFF00" width="38.19" height="17.813"/>
	<line fill="none" stroke="#3A3400" stroke-width="2" x1="20.717" y1="32.751" x2="6.595" y2="32.792"/>
	<line fill="none" stroke="#FFFF00" x1="20.654" y1="32.25" x2="7.084" y2="32.29"/>
	<polygon fill="#3A3400" points="9.411,30.896 0.833,32.792 9.411,35.188 6.595,32.792 	"/>
	<circle fill="#000100" cx="34" cy="32.667" r="3.5"/>
	<circle fill="#000100" cx="48" cy="32.667" r="3.5"/>
</g>
<g id="White">
	<rect x="20.717" y="23.417" fill="none" stroke="#3A3400" stroke-width="2" width="40.2" height="18.75"/>
	<rect x="21.722" y="23.886" fill="none" stroke="#FFFF00" width="38.19" height="17.813"/>
	<line fill="none" stroke="#3A3400" stroke-width="2" x1="20.717" y1="32.751" x2="6.595" y2="32.792"/>
	<line fill="none" stroke="#FFFF00" x1="20.654" y1="32.25" x2="7.084" y2="32.29"/>
	<polygon fill="#3A3400" points="9.411,30.896 0.833,32.792 9.411,35.188 6.595,32.792 	"/>
	<circle fill="#000100" cx="34" cy="32.667" r="3.5"/>
	<circle fill="#000100" cx="48" cy="32.667" r="3.5"/>
</g>
</svg>
