<?xml version="1.0" encoding="utf-8"?>
<!-- Generator: Adobe Illustrator 14.0.0, SVG Export Plug-In . SVG Version: 6.00 Build 43363)  -->
<!DOCTYPE svg PUBLIC "-//W3C//DTD SVG 1.1//EN" "http://www.w3.org/Graphics/SVG/1.1/DTD/svg11.dtd">
<svg version="1.1" id="图层_1" xmlns="http://www.w3.org/2000/svg" xmlns:xlink="http://www.w3.org/1999/xlink" x="0px" y="0px"
	 width="64px" height="64px" viewBox="0 0 64 64" enable-background="new 0 0 64 64" xml:space="preserve">
<g id="Blue">
	<path fill="none" stroke="#FFFF00" d="M2.208,44.25c0,0,0.734-29.458,29.785-29.458c0,0,27.296-0.041,29.132,29.458"/>
	<path fill="none" stroke="#0000FF" d="M1.583,44.25c0,0,0.75-30.083,30.417-30.083c0,0,27.875-0.042,29.75,30.083"/>
	<path fill="none" stroke="#0000FF" d="M7.271,44.25c0,0,0.592-23.765,24.029-23.765c0,0,22.021-0.033,23.502,23.765"/>
</g>
<g id="Red">
	<path fill="none" stroke="#FFFF00" d="M2.208,44.25c0,0,0.734-29.458,29.785-29.458c0,0,27.296-0.041,29.132,29.458"/>
	<path fill="none" stroke="#FF0000" d="M1.583,44.25c0,0,0.75-30.083,30.417-30.083c0,0,27.875-0.042,29.75,30.083"/>
	<path fill="none" stroke="#FF0000" d="M7.271,44.25c0,0,0.592-23.765,24.029-23.765c0,0,22.021-0.033,23.502,23.765"/>
</g>
<g id="White">
	<path fill="none" stroke="#FFFF00" d="M2.208,44.25c0,0,0.734-29.458,29.785-29.458c0,0,27.296-0.041,29.132,29.458"/>
	<path fill="none" stroke="#00FF00" d="M1.583,44.25c0,0,0.75-30.083,30.417-30.083c0,0,27.875-0.042,29.75,30.083"/>
	<path fill="none" stroke="#00FF00" d="M7.271,44.25c0,0,0.592-23.765,24.029-23.765c0,0,22.021-0.033,23.502,23.765"/>
</g>
</svg>
