<?xml version="1.0" encoding="utf-8"?>
<!-- Generator: Adobe Illustrator 14.0.0, SVG Export Plug-In . SVG Version: 6.00 Build 43363)  -->
<!DOCTYPE svg PUBLIC "-//W3C//DTD SVG 1.1//EN" "http://www.w3.org/Graphics/SVG/1.1/DTD/svg11.dtd">
<svg version="1.1" id="图层_1" xmlns="http://www.w3.org/2000/svg" xmlns:xlink="http://www.w3.org/1999/xlink" x="0px" y="0px"
	 width="64px" height="64px" viewBox="0 0 64 64" enable-background="new 0 0 64 64" xml:space="preserve">
<g id="Blue">
	<rect x="14.776" y="24.397" fill="#FFFFFF" stroke="#0000FF" width="3.776" height="18.583"/>
	<circle fill="none" stroke="#0000FF" cx="16.438" cy="33.689" r="9.44"/>
	<line fill="none" stroke="#0000FF" x1="14.776" y1="24.397" x2="14.776" y2="42.98"/>
	<path fill="#0000FF" stroke="#0000FF" d="M25.877,33.688c-0.227-7.815-7.325-9.2-7.325-9.2v18.399
		C26.217,40.607,25.877,33.688,25.877,33.688z"/>
	<path fill="none" stroke="#0000FF" d="M12.667,46.667c0,0-10.917-1.624-10.417-12.979c0,0,0.417-10.604,10.417-12.271"/>
	<line fill="none" stroke="#0000FF" x1="12.667" y1="21.417" x2="63.25" y2="21.417"/>
	<polygon fill="#0000FF" points="17.708,48.125 10,47.958 12.667,46.667 10.833,44.041 	"/>
</g>
<g id="Red">
	<rect x="14.776" y="24.397" fill="none" stroke="#FF0000" width="3.776" height="18.583"/>
	<circle fill="none" stroke="#FF0000" cx="16.438" cy="33.689" r="9.44"/>
	<line fill="none" stroke="#FF0000" x1="14.776" y1="24.397" x2="14.776" y2="42.98"/>
	<path fill="#FF0000" stroke="#FF0000" d="M25.877,33.688c-0.227-7.815-7.325-9.2-7.325-9.2v18.399
		C26.217,40.607,25.877,33.688,25.877,33.688z"/>
	<path fill="none" stroke="#FF0000" d="M12.667,46.667c0,0-10.917-1.624-10.417-12.979c0,0,0.417-10.604,10.417-12.271"/>
	<line fill="none" stroke="#FF0000" x1="12.667" y1="21.417" x2="63.25" y2="21.417"/>
	<polygon fill="#FF0000" points="17.708,48.125 10,47.958 12.667,46.667 10.833,44.041 	"/>
</g>
<g id="White">
	<rect x="14.776" y="24.397" fill="#FFFFFF" stroke="#00FF00" width="3.776" height="18.583"/>
	<circle fill="none" stroke="#00FF00" cx="16.438" cy="33.689" r="9.44"/>
	<line fill="none" stroke="#00FF00" x1="14.776" y1="24.397" x2="14.776" y2="42.98"/>
	<path fill="#00FF00" stroke="#00FF00" d="M25.877,33.688c-0.227-7.815-7.325-9.2-7.325-9.2v18.399
		C26.217,40.607,25.877,33.688,25.877,33.688z"/>
	<path fill="none" stroke="#00FF00" d="M12.667,46.667c0,0-10.917-1.624-10.417-12.979c0,0,0.417-10.604,10.417-12.271"/>
	<line fill="none" stroke="#00FF00" x1="12.667" y1="21.417" x2="63.25" y2="21.417"/>
	<polygon fill="#00FF00" points="17.708,48.125 10,47.958 12.667,46.667 10.833,44.041 	"/>
</g>
</svg>
