<?xml version="1.0" encoding="utf-8"?>
<!-- Generator: Adobe Illustrator 14.0.0, SVG Export Plug-In . SVG Version: 6.00 Build 43363)  -->
<!DOCTYPE svg PUBLIC "-//W3C//DTD SVG 1.1//EN" "http://www.w3.org/Graphics/SVG/1.1/DTD/svg11.dtd">
<svg version="1.1" id="图层_1" xmlns="http://www.w3.org/2000/svg" xmlns:xlink="http://www.w3.org/1999/xlink" x="0px" y="0px"
	 width="64px" height="64px" viewBox="0 0 64 64" enable-background="new 0 0 64 64" xml:space="preserve">
<g id="Blue">
	<rect x="2" y="13" fill="none" stroke="#0000FF" width="60" height="37.75"/>
	<line fill="none" stroke="#0000FF" x1="2" y1="22" x2="15.375" y2="13"/>
	<line fill="none" stroke="#0000FF" x1="2" y1="28.625" x2="25.5" y2="13"/>
	<line fill="none" stroke="#0000FF" x1="2" y1="35.5" x2="35.125" y2="13"/>
	<line fill="none" stroke="#0000FF" x1="2" y1="41.875" x2="45.25" y2="13"/>
	<line fill="none" stroke="#0000FF" x1="2" y1="49" x2="54.125" y2="13"/>
	<line fill="none" stroke="#0000FF" x1="8.688" y1="50.75" x2="28.556" y2="37.38"/>
	<line fill="none" stroke="#0000FF" x1="38.521" y1="30.19" x2="62" y2="14.333"/>
	<line fill="none" stroke="#0000FF" x1="18.563" y1="50.75" x2="62" y2="21.25"/>
	<line fill="none" stroke="#0000FF" x1="28.556" y1="50.75" x2="62" y2="28.125"/>
	<line fill="none" stroke="#0000FF" x1="37.929" y1="50.75" x2="62" y2="34.25"/>
	<line fill="none" stroke="#0000FF" x1="48.454" y1="50.75" x2="62" y2="41.875"/>
	<line fill="none" stroke="#0000FF" x1="57.692" y1="50.75" x2="62" y2="47.834"/>
	
		<text transform="matrix(0.8072 0.5902 -0.5902 0.8072 25.5 32.5469)" font-family="'AdobeSongStd-Light-GBpc-EUC-H'" font-size="12">HK</text>
</g>
<g id="Red">
	<rect x="2" y="13" fill="none" stroke="#FF0000" width="60" height="37.75"/>
	<line fill="none" stroke="#FF0000" x1="2" y1="22" x2="15.375" y2="13"/>
	<line fill="none" stroke="#FF0000" x1="2" y1="28.625" x2="25.5" y2="13"/>
	<line fill="none" stroke="#FF0000" x1="2" y1="35.5" x2="35.125" y2="13"/>
	<line fill="none" stroke="#FF0000" x1="2" y1="41.875" x2="45.25" y2="13"/>
	<line fill="none" stroke="#FF0000" x1="2" y1="49" x2="54.125" y2="13"/>
	<line fill="none" stroke="#FF0000" x1="8.688" y1="50.75" x2="28.556" y2="37.38"/>
	<line fill="none" stroke="#FF0000" x1="38.521" y1="30.19" x2="62" y2="14.333"/>
	<line fill="none" stroke="#FF0000" x1="18.563" y1="50.75" x2="62" y2="21.25"/>
	<line fill="none" stroke="#FF0000" x1="28.556" y1="50.75" x2="62" y2="28.125"/>
	<line fill="none" stroke="#FF0000" x1="37.929" y1="50.75" x2="62" y2="34.25"/>
	<line fill="none" stroke="#FF0000" x1="48.454" y1="50.75" x2="62" y2="41.875"/>
	<line fill="none" stroke="#FF0000" x1="57.692" y1="50.75" x2="62" y2="47.834"/>
	
		<text transform="matrix(0.8072 0.5902 -0.5902 0.8072 25.5 32.5469)" font-family="'AdobeSongStd-Light-GBpc-EUC-H'" font-size="12">HK</text>
</g>
<g id="White">
	<rect x="2" y="13" fill="none" stroke="#00FF00" width="60" height="37.75"/>
	<line fill="none" stroke="#00FF00" x1="2" y1="22" x2="15.375" y2="13"/>
	<line fill="none" stroke="#00FF00" x1="2" y1="28.625" x2="25.5" y2="13"/>
	<line fill="none" stroke="#00FF00" x1="2" y1="35.5" x2="35.125" y2="13"/>
	<line fill="none" stroke="#00FF00" x1="2" y1="41.875" x2="45.25" y2="13"/>
	<line fill="none" stroke="#00FF00" x1="2" y1="49" x2="54.125" y2="13"/>
	<line fill="none" stroke="#00FF00" x1="8.688" y1="50.75" x2="28.556" y2="37.38"/>
	<line fill="none" stroke="#00FF00" x1="38.521" y1="30.19" x2="62" y2="14.333"/>
	<line fill="none" stroke="#00FF00" x1="18.563" y1="50.75" x2="62" y2="21.25"/>
	<line fill="none" stroke="#00FF00" x1="28.556" y1="50.75" x2="62" y2="28.125"/>
	<line fill="none" stroke="#00FF00" x1="37.929" y1="50.75" x2="62" y2="34.25"/>
	<line fill="none" stroke="#00FF00" x1="48.454" y1="50.75" x2="62" y2="41.875"/>
	<line fill="none" stroke="#00FF00" x1="57.692" y1="50.75" x2="62" y2="47.834"/>
	
		<text transform="matrix(0.8072 0.5902 -0.5902 0.8072 25.5 32.5469)" font-family="'AdobeSongStd-Light-GBpc-EUC-H'" font-size="12">HK</text>
</g>
</svg>
