<?xml version="1.0" encoding="utf-8"?>
<!-- Generator: Adobe Illustrator 14.0.0, SVG Export Plug-In . SVG Version: 6.00 Build 43363)  -->
<!DOCTYPE svg PUBLIC "-//W3C//DTD SVG 1.1//EN" "http://www.w3.org/Graphics/SVG/1.1/DTD/svg11.dtd">
<svg version="1.1" id="图层_1" xmlns="http://www.w3.org/2000/svg" xmlns:xlink="http://www.w3.org/1999/xlink" x="0px" y="0px"
	 width="64px" height="64px" viewBox="0 0 64 64" enable-background="new 0 0 64 64" xml:space="preserve">
<g id="Blue">
	<polygon fill="#0000FF" points="5.787,32.644 7.781,34.514 0.5,32.73 7.781,30.736 	"/>
	<line fill="none" stroke="#0000FF" x1="5.113" y1="32.625" x2="25.083" y2="32.625"/>
	<polygon fill="#0000FF" points="48.606,22.002 50.726,21.996 45.673,24.862 48.718,19.865 	"/>
	<line fill="none" stroke="#0000FF" x1="48.681" y1="21.92" x2="56.485" y2="14.563"/>
	<polygon fill="#0000FF" points="48.606,43.584 50.726,43.59 45.673,40.725 48.718,45.721 	"/>
	<line fill="none" stroke="#0000FF" x1="48.681" y1="43.666" x2="56.485" y2="51.023"/>
	<circle fill="none" stroke="#0000FF" cx="38.042" cy="32.541" r="8.792"/>
	<line fill="none" stroke="#0000FF" x1="25.083" y1="30.736" x2="25.083" y2="34.514"/>
	<line fill="none" stroke="#000000" x1="48.681" y1="32.625" x2="62.875" y2="32.625"/>
</g>
<g id="Red">
	<polygon fill="#FF0000" points="5.787,32.644 7.781,34.514 0.5,32.73 7.781,30.736 	"/>
	<line fill="none" stroke="#FF0000" x1="5.113" y1="32.625" x2="25.083" y2="32.625"/>
	<polygon fill="#FF0000" points="48.606,22.002 50.726,21.996 45.673,24.862 48.718,19.865 	"/>
	<line fill="none" stroke="#FF0000" x1="48.681" y1="21.92" x2="56.485" y2="14.563"/>
	<polygon fill="#FF0000" points="48.606,43.584 50.726,43.59 45.673,40.725 48.718,45.721 	"/>
	<line fill="none" stroke="#FF0000" x1="48.681" y1="43.666" x2="56.485" y2="51.023"/>
	<circle fill="none" stroke="#FF0000" cx="38.042" cy="32.541" r="8.792"/>
	<line fill="none" stroke="#FF0000" x1="25.083" y1="30.736" x2="25.083" y2="34.514"/>
	<line fill="none" stroke="#000000" x1="48.681" y1="32.625" x2="62.875" y2="32.625"/>
</g>
<g id="White">
	<polygon fill="#00FF00" points="5.787,32.644 7.781,34.514 0.5,32.73 7.781,30.736 	"/>
	<line fill="none" stroke="#00FF00" x1="5.113" y1="32.625" x2="25.083" y2="32.625"/>
	<polygon fill="#00FF00" points="48.606,22.002 50.726,21.996 45.673,24.862 48.718,19.865 	"/>
	<line fill="none" stroke="#00FF00" x1="48.681" y1="21.92" x2="56.485" y2="14.563"/>
	<polygon fill="#00FF00" points="48.606,43.584 50.726,43.59 45.673,40.725 48.718,45.721 	"/>
	<line fill="none" stroke="#00FF00" x1="48.681" y1="43.666" x2="56.485" y2="51.023"/>
	<circle fill="none" stroke="#00FF00" cx="38.042" cy="32.541" r="8.792"/>
	<line fill="none" stroke="#00FF00" x1="25.083" y1="30.736" x2="25.083" y2="34.514"/>
	<line fill="none" stroke="#000000" x1="48.681" y1="32.625" x2="62.875" y2="32.625"/>
</g>
</svg>
