<?xml version="1.0" encoding="utf-8"?>
<!-- Generator: Adobe Illustrator 14.0.0, SVG Export Plug-In . SVG Version: 6.00 Build 43363)  -->
<!DOCTYPE svg PUBLIC "-//W3C//DTD SVG 1.1//EN" "http://www.w3.org/Graphics/SVG/1.1/DTD/svg11.dtd">
<svg version="1.1" id="图层_1" xmlns="http://www.w3.org/2000/svg" xmlns:xlink="http://www.w3.org/1999/xlink" x="0px" y="0px"
	 width="64px" height="64px" viewBox="0 0 64 64" enable-background="new 0 0 64 64" xml:space="preserve">
<g id="Blue">
	<polygon fill="#0000FF" points="42.703,32.644 44.697,34.514 37.416,32.73 44.697,30.736 	"/>
	<line fill="none" stroke="#0000FF" x1="42.029" y1="32.625" x2="62" y2="32.625"/>
	<polygon fill="#0000FF" points="13.606,17.422 15.726,17.428 10.673,14.562 13.718,19.559 	"/>
	<line fill="none" stroke="#0000FF" x1="13.681" y1="17.504" x2="21.485" y2="24.861"/>
	<polygon fill="#0000FF" points="13.606,48.164 15.726,48.158 10.673,51.023 13.718,46.027 	"/>
	<line fill="none" stroke="#0000FF" x1="13.681" y1="48.082" x2="21.485" y2="40.725"/>
	<circle fill="none" stroke="#0000FF" cx="27.042" cy="32.541" r="8.792"/>
	<line fill="none" stroke="#000000" x1="2" y1="32.625" x2="16.194" y2="32.625"/>
</g>
<g id="Red">
	<polygon fill="#FF0000" points="42.703,32.644 44.697,34.514 37.416,32.73 44.697,30.736 	"/>
	<line fill="none" stroke="#FF0000" x1="42.029" y1="32.625" x2="62" y2="32.625"/>
	<polygon fill="#FF0000" points="13.606,17.422 15.726,17.428 10.673,14.562 13.718,19.559 	"/>
	<line fill="none" stroke="#FF0000" x1="13.681" y1="17.504" x2="21.485" y2="24.861"/>
	<polygon fill="#FF0000" points="13.606,48.164 15.726,48.158 10.673,51.023 13.718,46.027 	"/>
	<line fill="none" stroke="#FF0000" x1="13.681" y1="48.082" x2="21.485" y2="40.725"/>
	<circle fill="none" stroke="#FF0000" cx="27.042" cy="32.541" r="8.792"/>
	<line fill="none" stroke="#000000" x1="2" y1="32.625" x2="16.194" y2="32.625"/>
</g>
<g id="White">
	<polygon fill="#00FF00" points="42.703,32.644 44.697,34.514 37.416,32.73 44.697,30.736 	"/>
	<line fill="none" stroke="#00FF00" x1="42.029" y1="32.625" x2="62" y2="32.625"/>
	<polygon fill="#00FF00" points="13.606,17.422 15.726,17.428 10.673,14.562 13.718,19.559 	"/>
	<line fill="none" stroke="#00FF00" x1="13.681" y1="17.504" x2="21.485" y2="24.861"/>
	<polygon fill="#00FF00" points="13.606,48.164 15.726,48.158 10.673,51.023 13.718,46.027 	"/>
	<line fill="none" stroke="#00FF00" x1="13.681" y1="48.082" x2="21.485" y2="40.725"/>
	<circle fill="none" stroke="#00FF00" cx="27.042" cy="32.541" r="8.792"/>
	<line fill="none" stroke="#000000" x1="2" y1="32.625" x2="16.194" y2="32.625"/>
</g>
</svg>
