<?xml version="1.0" encoding="utf-8"?>
<!-- Generator: Adobe Illustrator 14.0.0, SVG Export Plug-In . SVG Version: 6.00 Build 43363)  -->
<!DOCTYPE svg PUBLIC "-//W3C//DTD SVG 1.1//EN" "http://www.w3.org/Graphics/SVG/1.1/DTD/svg11.dtd">
<svg version="1.1" id="图层_1" xmlns="http://www.w3.org/2000/svg" xmlns:xlink="http://www.w3.org/1999/xlink" x="0px" y="0px"
	 width="64px" height="64px" viewBox="0 0 64 64" enable-background="new 0 0 64 64" xml:space="preserve">
<g id="Blue">
	<line fill="none" stroke="#0000FF" x1="2.333" y1="28.167" x2="2.333" y2="34"/>
	<line fill="none" stroke="#0000FF" x1="2.333" y1="31.083" x2="18.333" y2="31.083"/>
	<line fill="none" stroke="#0000FF" x1="23" y1="31.083" x2="41.75" y2="31.083"/>
	<line fill="none" stroke="#0000FF" x1="41.75" y1="31.083" x2="43.375" y2="29.458"/>
	<line fill="none" stroke="#0000FF" x1="41.75" y1="31.083" x2="43.271" y2="32.604"/>
	<line fill="none" stroke="#0000FF" x1="29.833" y1="31.083" x2="34.875" y2="26.042"/>
	<line fill="none" stroke="#0000FF" x1="29.833" y1="31.083" x2="34.854" y2="36.104"/>
	<line fill="none" stroke="#0000FF" x1="47.417" y1="31.083" x2="62.25" y2="31.083"/>
	<line fill="none" stroke="#0000FF" x1="62.25" y1="28.167" x2="62.25" y2="33.594"/>
</g>
<g id="Red">
	<line fill="none" stroke="#FF0000" x1="2.333" y1="28.167" x2="2.333" y2="34"/>
	<line fill="none" stroke="#FF0000" x1="2.333" y1="31.083" x2="18.333" y2="31.083"/>
	<line fill="none" stroke="#FF0000" x1="23" y1="31.083" x2="41.75" y2="31.083"/>
	<line fill="none" stroke="#FF0000" x1="41.75" y1="31.083" x2="43.375" y2="29.458"/>
	<line fill="none" stroke="#FF0000" x1="41.75" y1="31.083" x2="43.271" y2="32.604"/>
	<line fill="none" stroke="#FF0000" x1="29.833" y1="31.083" x2="34.875" y2="26.042"/>
	<line fill="none" stroke="#FF0000" x1="29.833" y1="31.083" x2="34.854" y2="36.104"/>
	<line fill="none" stroke="#FF0000" x1="47.417" y1="31.083" x2="62.25" y2="31.083"/>
	<line fill="none" stroke="#FF0000" x1="62.25" y1="28.167" x2="62.25" y2="33.594"/>
</g>
<g id="White">
	<line fill="none" stroke="#00FF00" x1="2.333" y1="28.167" x2="2.333" y2="34"/>
	<line fill="none" stroke="#00FF00" x1="2.333" y1="31.083" x2="18.333" y2="31.083"/>
	<line fill="none" stroke="#00FF00" x1="23" y1="31.083" x2="41.75" y2="31.083"/>
	<line fill="none" stroke="#00FF00" x1="41.75" y1="31.083" x2="43.375" y2="29.458"/>
	<line fill="none" stroke="#00FF00" x1="41.75" y1="31.083" x2="43.271" y2="32.604"/>
	<line fill="none" stroke="#00FF00" x1="29.833" y1="31.083" x2="34.875" y2="26.042"/>
	<line fill="none" stroke="#00FF00" x1="29.833" y1="31.083" x2="34.854" y2="36.104"/>
	<line fill="none" stroke="#00FF00" x1="47.417" y1="31.083" x2="62.25" y2="31.083"/>
	<line fill="none" stroke="#00FF00" x1="62.25" y1="28.167" x2="62.25" y2="33.594"/>
</g>
</svg>
