<?xml version="1.0" encoding="utf-8"?>
<!-- Generator: Adobe Illustrator 14.0.0, SVG Export Plug-In . SVG Version: 6.00 Build 43363)  -->
<!DOCTYPE svg PUBLIC "-//W3C//DTD SVG 1.1//EN" "http://www.w3.org/Graphics/SVG/1.1/DTD/svg11.dtd">
<svg version="1.1" id="图层_1" xmlns="http://www.w3.org/2000/svg" xmlns:xlink="http://www.w3.org/1999/xlink" x="0px" y="0px"
	 width="64px" height="64px" viewBox="0 0 64 64" enable-background="new 0 0 64 64" xml:space="preserve">
<g id="Blue">
	<path fill="none" stroke="#0000FF" d="M14.5,15.25c0,0-12,0.5-12.5,13.125c0,0-1.25,13.126,12.5,13.125
		c0,0,5.833,0.259,12.515-7.037L41.75,17.875c0,0,6.25-4.5,14.25-0.375c0,0,6.125,3.945,5.75,10.91c0,0-1,12.09-12.375,12.465"/>
	<line fill="none" stroke="#000000" x1="12.125" y1="51.125" x2="34.125" y2="51.125"/>
</g>
<g id="Red">
	<path fill="none" stroke="#FF0000" d="M14.5,15.25c0,0-12,0.5-12.5,13.125c0,0-1.25,13.126,12.5,13.125
		c0,0,5.833,0.259,12.515-7.037L41.75,17.875c0,0,6.25-4.5,14.25-0.375c0,0,6.125,3.945,5.75,10.91c0,0-1,12.09-12.375,12.465"/>
	<line fill="none" stroke="#000000" x1="12.125" y1="51.125" x2="34.125" y2="51.125"/>
</g>
<g id="White">
	<path fill="none" stroke="#00FF00" d="M14.5,15.25c0,0-12,0.5-12.5,13.125c0,0-1.25,13.126,12.5,13.125
		c0,0,5.833,0.259,12.515-7.037L41.75,17.875c0,0,6.25-4.5,14.25-0.375c0,0,6.125,3.945,5.75,10.91c0,0-1,12.09-12.375,12.465"/>
	<line fill="none" stroke="#000000" x1="12.125" y1="51.125" x2="34.125" y2="51.125"/>
</g>
</svg>
