<?xml version="1.0" encoding="utf-8"?>
<!-- Generator: Adobe Illustrator 14.0.0, SVG Export Plug-In . SVG Version: 6.00 Build 43363)  -->
<!DOCTYPE svg PUBLIC "-//W3C//DTD SVG 1.1//EN" "http://www.w3.org/Graphics/SVG/1.1/DTD/svg11.dtd">
<svg version="1.1" id="图层_1" xmlns="http://www.w3.org/2000/svg" xmlns:xlink="http://www.w3.org/1999/xlink" x="0px" y="0px"
	 width="64px" height="64px" viewBox="0 0 64 64" enable-background="new 0 0 64 64" xml:space="preserve">
<g id="Blue">
	<rect x="1.25" y="12.875" fill="none" stroke="#0000FF" width="61.25" height="39.5"/>
	<rect x="27" y="42.5" fill="none" stroke="#0000FF" width="9.125" height="4.25"/>
	<line fill="none" stroke="#0000FF" x1="31.875" y1="40.375" x2="39" y2="25.25"/>
	<line fill="none" stroke="#0000FF" x1="31.844" y1="40.375" x2="24.719" y2="25.25"/>
	<path fill="none" stroke="#0000FF" d="M32.031,17.5c0,0-7.313-0.5-7.313,7.75"/>
	<path fill="none" stroke="#0000FF" d="M31.719,17.5c0,0,7.313-0.5,7.313,7.75"/>
</g>
<g id="Red">
	<rect x="1.25" y="12.875" fill="none" stroke="#FF0000" width="61.25" height="39.5"/>
	<rect x="27" y="42.5" fill="none" stroke="#FF0000" width="9.125" height="4.25"/>
	<line fill="none" stroke="#FF0000" x1="31.875" y1="40.375" x2="39" y2="25.25"/>
	<line fill="none" stroke="#FF0000" x1="31.844" y1="40.375" x2="24.719" y2="25.25"/>
	<path fill="none" stroke="#FF0000" d="M32.031,17.5c0,0-7.313-0.5-7.313,7.75"/>
	<path fill="none" stroke="#FF0000" d="M31.719,17.5c0,0,7.313-0.5,7.313,7.75"/>
</g>
<g id="White">
	<rect x="1.25" y="12.875" fill="none" stroke="#00FF00" width="61.25" height="39.5"/>
	<rect x="27" y="42.5" fill="none" stroke="#00FF00" width="9.125" height="4.25"/>
	<line fill="none" stroke="#00FF00" x1="31.875" y1="40.375" x2="39" y2="25.25"/>
	<line fill="none" stroke="#00FF00" x1="31.844" y1="40.375" x2="24.719" y2="25.25"/>
	<path fill="none" stroke="#00FF00" d="M32.031,17.5c0,0-7.313-0.5-7.313,7.75"/>
	<path fill="none" stroke="#00FF00" d="M31.719,17.5c0,0,7.313-0.5,7.313,7.75"/>
</g>
</svg>
