<?xml version="1.0" encoding="utf-8"?>
<!-- Generator: Adobe Illustrator 14.0.0, SVG Export Plug-In . SVG Version: 6.00 Build 43363)  -->
<!DOCTYPE svg PUBLIC "-//W3C//DTD SVG 1.1//EN" "http://www.w3.org/Graphics/SVG/1.1/DTD/svg11.dtd">
<svg version="1.1" id="图层_1" xmlns="http://www.w3.org/2000/svg" xmlns:xlink="http://www.w3.org/1999/xlink" x="0px" y="0px"
	 width="64px" height="64px" viewBox="0 0 64 64" enable-background="new 0 0 64 64" xml:space="preserve">
<g id="Blue">
	<line fill="none" stroke="#0000FF" x1="61.902" y1="31.369" x2="9.414" y2="31.37"/>
	<polygon fill="#0000FF" points="9.377,31.365 11.377,33.904 3.237,31.117 11.691,29.306 	"/>
	<line fill="none" stroke="#0000FF" x1="22.625" y1="23.73" x2="22.625" y2="39.48"/>
	<line fill="none" stroke="#0000FF" x1="49.125" y1="24.125" x2="49.125" y2="39.875"/>
</g>
<g id="Red">
	<line fill="none" stroke="#FF0000" x1="61.902" y1="31.369" x2="9.414" y2="31.37"/>
	<polygon fill="#FF0000" points="9.377,31.365 11.377,33.904 3.237,31.117 11.691,29.306 	"/>
	<line fill="none" stroke="#FF0000" x1="22.625" y1="23.73" x2="22.625" y2="39.48"/>
	<line fill="none" stroke="#FF0000" x1="49.125" y1="24.125" x2="49.125" y2="39.875"/>
</g>
<g id="White">
	<line fill="none" stroke="#00FF00" x1="61.902" y1="31.369" x2="9.414" y2="31.37"/>
	<polygon fill="#00FF00" points="9.377,31.365 11.377,33.904 3.237,31.117 11.691,29.306 	"/>
	<line fill="none" stroke="#00FF00" x1="22.625" y1="23.73" x2="22.625" y2="39.48"/>
	<line fill="none" stroke="#00FF00" x1="49.125" y1="24.125" x2="49.125" y2="39.875"/>
</g>
</svg>
