<?xml version="1.0" encoding="utf-8"?>
<!-- Generator: Adobe Illustrator 14.0.0, SVG Export Plug-In . SVG Version: 6.00 Build 43363)  -->
<!DOCTYPE svg PUBLIC "-//W3C//DTD SVG 1.1//EN" "http://www.w3.org/Graphics/SVG/1.1/DTD/svg11.dtd">
<svg version="1.1" id="图层_1" xmlns="http://www.w3.org/2000/svg" xmlns:xlink="http://www.w3.org/1999/xlink" x="0px" y="0px"
	 width="64px" height="64px" viewBox="0 0 64 64" enable-background="new 0 0 64 64" xml:space="preserve">
<g id="Blue">
	<path fill="none" stroke="#0000FF" d="M15,6.5c0,0,16.25-11.625,33.75,0"/>
	<path fill="none" stroke="#0000FF" d="M56.625,13.875c0,0,12.625,16.375,0,35.25"/>
	<path fill="none" stroke="#0000FF" d="M50.125,55.625c0,0-13.25,14-35.875,0.75"/>
	<path fill="none" stroke="#0000FF" d="M7.125,49.125c0,0-12.75-15.875,0-36"/>
</g>
<g id="Red">
	<path fill="none" stroke="#FF0000" d="M15,6.5c0,0,16.25-11.625,33.75,0"/>
	<path fill="none" stroke="#FF0000" d="M56.625,13.875c0,0,12.625,16.375,0,35.25"/>
	<path fill="none" stroke="#FF0000" d="M50.125,55.625c0,0-13.25,14-35.875,0.75"/>
	<path fill="none" stroke="#FF0000" d="M7.125,49.125c0,0-12.75-15.875,0-36"/>
</g>
<g id="White">
	<path fill="none" stroke="#00FF00" d="M15,6.5c0,0,16.25-11.625,33.75,0"/>
	<path fill="none" stroke="#00FF00" d="M56.625,13.875c0,0,12.625,16.375,0,35.25"/>
	<path fill="none" stroke="#00FF00" d="M50.125,55.625c0,0-13.25,14-35.875,0.75"/>
	<path fill="none" stroke="#00FF00" d="M7.125,49.125c0,0-12.75-15.875,0-36"/>
</g>
</svg>
