<?xml version="1.0" encoding="utf-8"?>
<!-- Generator: Adobe Illustrator 14.0.0, SVG Export Plug-In . SVG Version: 6.00 Build 43363)  -->
<!DOCTYPE svg PUBLIC "-//W3C//DTD SVG 1.1//EN" "http://www.w3.org/Graphics/SVG/1.1/DTD/svg11.dtd">
<svg version="1.1" id="图层_1" xmlns="http://www.w3.org/2000/svg" xmlns:xlink="http://www.w3.org/1999/xlink" x="0px" y="0px"
	 width="64px" height="64px" viewBox="0 0 64 64" enable-background="new 0 0 64 64" xml:space="preserve">
<g id="Blue">
	<circle fill="none" stroke-width="2" stroke="#0000FF" cx="23.167" cy="30.333" r="22"/>
	<line fill="none" stroke-width="2" stroke="#000000" x1="46.5" y1="50.333" x2="62.833" y2="50.333"/>
	<line fill="none" stroke-width="2" stroke="#0000FF" x1="11.333" y1="36.333" x2="35.833" y2="36.333"/>
	<line fill="none" stroke-width="2" stroke="#0000FF" x1="35.833" y1="26.667" x2="30.667" y2="36.333"/>
	<line fill="none" stroke-width="2" stroke="#0000FF" x1="10.667" y1="26.667" x2="16.167" y2="36.333"/>
	<line fill="none" stroke-width="2" stroke="#0000FF" x1="23.167" y1="21.833" x2="23.167" y2="36.333"/>
</g>
<g id="Red">
	<circle fill="none" stroke-width="2" stroke="#FF0000" cx="23.167" cy="30.333" r="22"/>
	<line fill="none" stroke-width="2" stroke="#000000" x1="46.5" y1="50.333" x2="62.833" y2="50.333"/>
	<line fill="none" stroke-width="2" stroke="#FF0000" x1="11.333" y1="36.333" x2="35.833" y2="36.333"/>
	<line fill="none" stroke-width="2" stroke="#FF0000" x1="35.833" y1="26.667" x2="30.667" y2="36.333"/>
	<line fill="none" stroke-width="2" stroke="#FF0000" x1="10.667" y1="26.667" x2="16.167" y2="36.333"/>
	<line fill="none" stroke-width="2" stroke="#FF0000" x1="23.167" y1="21.833" x2="23.167" y2="36.333"/>
</g>
<g id="White">
	<circle fill="none" stroke-width="2" stroke="#00FF00" cx="23.167" cy="30.333" r="22"/>
	<line fill="none" stroke-width="2" stroke="#000000" x1="46.5" y1="50.333" x2="62.833" y2="50.333"/>
	<line fill="none" stroke-width="2" stroke="#00FF00" x1="11.333" y1="36.333" x2="35.833" y2="36.333"/>
	<line fill="none" stroke-width="2" stroke="#00FF00" x1="35.833" y1="26.667" x2="30.667" y2="36.333"/>
	<line fill="none" stroke-width="2" stroke="#00FF00" x1="10.667" y1="26.667" x2="16.167" y2="36.333"/>
	<line fill="none" stroke-width="2" stroke="#00FF00" x1="23.167" y1="21.833" x2="23.167" y2="36.333"/>
</g>
</svg>
