<?xml version="1.0" encoding="utf-8"?>
<!-- Generator: Adobe Illustrator 14.0.0, SVG Export Plug-In . SVG Version: 6.00 Build 43363)  -->
<!DOCTYPE svg PUBLIC "-//W3C//DTD SVG 1.1//EN" "http://www.w3.org/Graphics/SVG/1.1/DTD/svg11.dtd">
<svg version="1.1" id="图层_1" xmlns="http://www.w3.org/2000/svg" xmlns:xlink="http://www.w3.org/1999/xlink" x="0px" y="0px"
	 width="64px" height="64px" viewBox="0 0 64 64" enable-background="new 0 0 64 64" xml:space="preserve">
<g id="Blue">
	<line fill="none" stroke-width="2" stroke="#0000FF" x1="35.969" y1="35.404" x2="48.979" y2="50.006"/>
	<line fill="none" stroke-width="2" stroke="#0000FF" x1="39.944" y1="39.866" x2="45.901" y2="40.366"/>
	<line fill="none" stroke-width="2" stroke="#0000FF" x1="39.944" y1="39.866" x2="39.747" y2="46.196"/>
	<line fill="none" stroke-width="2" stroke="#0000FF" x1="60.875" y1="50.625" x2="15.625" y2="13.5"/>
	<line fill="none" stroke-width="2" stroke="#0000FF" x1="15.625" y1="13.5" x2="22.5" y2="15.25"/>
	<line fill="none" stroke-width="2" stroke="#0000FF" x1="22.5" y1="15.25" x2="2.375" y2="2.125"/>
	<line fill="none" stroke-width="2" stroke="#0000FF" x1="2.375" y1="2.125" x2="15.625" y2="23.5"/>
	<line fill="none" stroke-width="2" stroke="#0000FF" x1="15.625" y1="23.5" x2="13.625" y2="15.25"/>
	<line fill="none" stroke-width="2" stroke="#0000FF" x1="13.625" y1="15.25" x2="50.125" y2="62.25"/>
</g>
<g id="Red">
	<line fill="none" stroke-width="2" stroke="#FF0000" x1="35.969" y1="35.404" x2="48.979" y2="50.006"/>
	<line fill="none" stroke-width="2" stroke="#FF0000" x1="39.944" y1="39.866" x2="45.901" y2="40.366"/>
	<line fill="none" stroke-width="2" stroke="#FF0000" x1="39.944" y1="39.866" x2="39.747" y2="46.196"/>
	<line fill="none" stroke-width="2" stroke="#FF0000" x1="60.875" y1="50.625" x2="15.625" y2="13.5"/>
	<line fill="none" stroke-width="2" stroke="#FF0000" x1="15.625" y1="13.5" x2="22.5" y2="15.25"/>
	<line fill="none" stroke-width="2" stroke="#FF0000" x1="22.5" y1="15.25" x2="2.375" y2="2.125"/>
	<line fill="none" stroke-width="2" stroke="#FF0000" x1="2.375" y1="2.125" x2="15.625" y2="23.5"/>
	<line fill="none" stroke-width="2" stroke="#FF0000" x1="15.625" y1="23.5" x2="13.625" y2="15.25"/>
	<line fill="none" stroke-width="2" stroke="#FF0000" x1="13.625" y1="15.25" x2="50.125" y2="62.25"/>
</g>
<g id="White">
	<line fill="none" stroke-width="2" stroke="#00FF00" x1="35.969" y1="35.404" x2="48.979" y2="50.006"/>
	<line fill="none" stroke-width="2" stroke="#00FF00" x1="39.944" y1="39.866" x2="45.901" y2="40.366"/>
	<line fill="none" stroke-width="2" stroke="#00FF00" x1="39.944" y1="39.866" x2="39.747" y2="46.196"/>
	<line fill="none" stroke-width="2" stroke="#00FF00" x1="60.875" y1="50.625" x2="15.625" y2="13.5"/>
	<line fill="none" stroke-width="2" stroke="#00FF00" x1="15.625" y1="13.5" x2="22.5" y2="15.25"/>
	<line fill="none" stroke-width="2" stroke="#00FF00" x1="22.5" y1="15.25" x2="2.375" y2="2.125"/>
	<line fill="none" stroke-width="2" stroke="#00FF00" x1="2.375" y1="2.125" x2="15.625" y2="23.5"/>
	<line fill="none" stroke-width="2" stroke="#00FF00" x1="15.625" y1="23.5" x2="13.625" y2="15.25"/>
	<line fill="none" stroke-width="2" stroke="#00FF00" x1="13.625" y1="15.25" x2="50.125" y2="62.25"/>
</g>
</svg>
