<?xml version="1.0" encoding="utf-8"?>
<!-- Generator: Adobe Illustrator 14.0.0, SVG Export Plug-In . SVG Version: 6.00 Build 43363)  -->
<!DOCTYPE svg PUBLIC "-//W3C//DTD SVG 1.1//EN" "http://www.w3.org/Graphics/SVG/1.1/DTD/svg11.dtd">
<svg version="1.1" id="图层_1" xmlns="http://www.w3.org/2000/svg" xmlns:xlink="http://www.w3.org/1999/xlink" x="0px" y="0px"
	 width="64px" height="64px" viewBox="0 0 64 64" enable-background="new 0 0 64 64" xml:space="preserve">
<g id="Blue">
	<polygon fill="#0000FF" points="6.66,6.646 6.386,12.01 0.75,0.079 12.023,7.358 	"/>
	<polygon fill="#0000FF" points="57.01,57.161 57.283,51.797 62.92,63.729 51.647,56.449 	"/>
	<polygon fill="#0000FF" points="57.012,6.319 51.647,6.044 63.579,0.408 56.3,11.68 	"/>
	<polygon fill="#0000FF" points="6.988,57.488 12.352,57.763 0.42,63.399 7.699,52.126 	"/>
	<line fill="none" stroke="#0000FF" x1="6.66" y1="6.646" x2="57.283" y2="57.763"/>
	<line fill="none" stroke="#0000FF" x1="57.012" y1="6.319" x2="6.988" y2="57.488"/>
	<line fill="none" stroke="#0000FF" x1="0.75" y1="34" x2="10.25" y2="34"/>
	<line fill="none" stroke="#0000FF" x1="53.75" y1="34" x2="63.25" y2="34"/>
</g>
<g id="Red">
	<polygon fill="#FF0000" points="6.66,6.646 6.386,12.01 0.75,0.079 12.023,7.358 	"/>
	<polygon fill="#FF0000" points="57.01,57.161 57.283,51.797 62.92,63.729 51.647,56.449 	"/>
	<polygon fill="#FF0000" points="57.012,6.319 51.647,6.044 63.579,0.408 56.3,11.68 	"/>
	<polygon fill="#FF0000" points="6.988,57.488 12.352,57.763 0.42,63.399 7.699,52.126 	"/>
	<line fill="none" stroke="#FF0000" x1="6.66" y1="6.646" x2="57.283" y2="57.763"/>
	<line fill="none" stroke="#FF0000" x1="57.012" y1="6.319" x2="6.988" y2="57.488"/>
	<line fill="none" stroke="#FF0000" x1="0.75" y1="34" x2="10.25" y2="34"/>
	<line fill="none" stroke="#FF0000" x1="53.75" y1="34" x2="63.25" y2="34"/>
</g>
<g id="White">
	<polygon fill="#00FF00" points="6.66,6.646 6.386,12.01 0.75,0.079 12.023,7.358 	"/>
	<polygon fill="#00FF00" points="57.01,57.161 57.283,51.797 62.92,63.729 51.647,56.449 	"/>
	<polygon fill="#00FF00" points="57.012,6.319 51.647,6.044 63.579,0.408 56.3,11.68 	"/>
	<polygon fill="#00FF00" points="6.988,57.488 12.352,57.763 0.42,63.399 7.699,52.126 	"/>
	<line fill="none" stroke="#00FF00" x1="6.66" y1="6.646" x2="57.283" y2="57.763"/>
	<line fill="none" stroke="#00FF00" x1="57.012" y1="6.319" x2="6.988" y2="57.488"/>
	<line fill="none" stroke="#00FF00" x1="0.75" y1="34" x2="10.25" y2="34"/>
	<line fill="none" stroke="#00FF00" x1="53.75" y1="34" x2="63.25" y2="34"/>
</g>
</svg>
