<?xml version="1.0" encoding="utf-8"?>
<!-- Generator: Adobe Illustrator 14.0.0, SVG Export Plug-In . SVG Version: 6.00 Build 43363)  -->
<!DOCTYPE svg PUBLIC "-//W3C//DTD SVG 1.1//EN" "http://www.w3.org/Graphics/SVG/1.1/DTD/svg11.dtd">
<svg version="1.1" id="图层_1" xmlns="http://www.w3.org/2000/svg" xmlns:xlink="http://www.w3.org/1999/xlink" x="0px" y="0px"
	 width="64px" height="64px" viewBox="0 0 64 64" enable-background="new 0 0 64 64" xml:space="preserve">
<g id="Blue">
	<line fill="none" stroke-width="2" stroke="#0000FF" x1="58" y1="2" x2="5.5" y2="32.036"/>
	<line fill="none" stroke-width="2" stroke="#0000FF" x1="5.5" y1="32.036" x2="58" y2="62.333"/>
	<line fill="none" stroke-width="2" stroke="#0000FF" x1="50.417" y1="20.417" x2="37" y2="27.917"/>
	<line fill="none" stroke-width="2" stroke="#0000FF" x1="37" y1="20.083" x2="50.417" y2="27.333"/>
	<line fill="none" stroke-width="2" stroke="#0000FF" x1="44.125" y1="23.934" x2="44.125" y2="37"/>
	<line fill="none" stroke-width="2" stroke="#0000FF" x1="44.125" y1="37" x2="38.25" y2="44.667"/>
	<line fill="none" stroke-width="2" stroke="#0000FF" x1="38.25" y1="44.667" x2="49.667" y2="44.667"/>
	<line fill="none" stroke-width="2" stroke="#0000FF" x1="49.667" y1="44.667" x2="44.125" y2="37"/>
</g>
<g id="Red">
	<line fill="none" stroke-width="2" stroke="#FF0000" x1="58" y1="2" x2="5.5" y2="32.036"/>
	<line fill="none" stroke-width="2" stroke="#FF0000" x1="5.5" y1="32.036" x2="58" y2="62.333"/>
	<line fill="none" stroke-width="2" stroke="#FF0000" x1="50.417" y1="20.417" x2="37" y2="27.917"/>
	<line fill="none" stroke-width="2" stroke="#FF0000" x1="37" y1="20.083" x2="50.417" y2="27.333"/>
	<line fill="none" stroke-width="2" stroke="#FF0000" x1="44.125" y1="23.934" x2="44.125" y2="37"/>
	<line fill="none" stroke-width="2" stroke="#FF0000" x1="44.125" y1="37" x2="38.25" y2="44.667"/>
	<line fill="none" stroke-width="2" stroke="#FF0000" x1="38.25" y1="44.667" x2="49.667" y2="44.667"/>
	<line fill="none" stroke-width="2" stroke="#FF0000" x1="49.667" y1="44.667" x2="44.125" y2="37"/>
</g>
<g id="White">
	<line fill="none" stroke-width="2" stroke="#00FF00" x1="58" y1="2" x2="5.5" y2="32.036"/>
	<line fill="none" stroke-width="2" stroke="#00FF00" x1="5.5" y1="32.036" x2="58" y2="62.333"/>
	<line fill="none" stroke-width="2" stroke="#00FF00" x1="50.417" y1="20.417" x2="37" y2="27.917"/>
	<line fill="none" stroke-width="2" stroke="#00FF00" x1="37" y1="20.083" x2="50.417" y2="27.333"/>
	<line fill="none" stroke-width="2" stroke="#00FF00" x1="44.125" y1="23.934" x2="44.125" y2="37"/>
	<line fill="none" stroke-width="2" stroke="#00FF00" x1="44.125" y1="37" x2="38.25" y2="44.667"/>
	<line fill="none" stroke-width="2" stroke="#00FF00" x1="38.25" y1="44.667" x2="49.667" y2="44.667"/>
	<line fill="none" stroke-width="2" stroke="#00FF00" x1="49.667" y1="44.667" x2="44.125" y2="37"/>
</g>
</svg>
