<?xml version="1.0" encoding="utf-8"?>
<!-- Generator: Adobe Illustrator 14.0.0, SVG Export Plug-In . SVG Version: 6.00 Build 43363)  -->
<!DOCTYPE svg PUBLIC "-//W3C//DTD SVG 1.1//EN" "http://www.w3.org/Graphics/SVG/1.1/DTD/svg11.dtd">
<svg version="1.1" id="图层_1" xmlns="http://www.w3.org/2000/svg" xmlns:xlink="http://www.w3.org/1999/xlink" x="0px" y="0px"
	 width="64px" height="64px" viewBox="0 0 64 64" enable-background="new 0 0 64 64" xml:space="preserve">
<g id="Blue">
	<line fill="none" stroke-width="2" stroke="#0000FF" x1="36.418" y1="34.737" x2="49.428" y2="49.339"/>
	<line fill="none" stroke-width="2" stroke="#0000FF" x1="40.394" y1="39.199" x2="46.351" y2="39.699"/>
	<line fill="none" stroke-width="2" stroke="#0000FF" x1="40.394" y1="39.199" x2="40.196" y2="45.529"/>
	<path fill="none" stroke-width="2" stroke="#0000FF" d="M15.625,13.5"/>
	<line fill="none" stroke-width="2" stroke="#0000FF" x1="15.625" y1="13.5" x2="22.5" y2="15.25"/>
	<line fill="none" stroke-width="2" stroke="#0000FF" x1="22.5" y1="15.25" x2="2.375" y2="2.125"/>
	<line fill="none" stroke-width="2" stroke="#0000FF" x1="2.375" y1="2.125" x2="15.625" y2="23.5"/>
	<line fill="none" stroke-width="2" stroke="#0000FF" x1="15.625" y1="23.5" x2="13.625" y2="15.25"/>
	<line fill="none" stroke-width="2" stroke="#0000FF" x1="13.625" y1="15.25" x2="23.389" y2="27.823"/>
	<line fill="none" stroke-width="2" stroke="#0000FF" x1="26.205" y1="32.063" x2="35.969" y2="44.635"/>
	<line fill="none" stroke-width="2" stroke="#0000FF" x1="38.784" y1="48.875" x2="48.549" y2="61.447"/>
	<line fill="none" stroke-width="2" stroke="#0000FF" x1="16.109" y1="13.5" x2="29.223" y2="22.524"/>
	<line fill="none" stroke-width="2" stroke="#0000FF" x1="33.19" y1="25.713" x2="46.304" y2="34.737"/>
	<line fill="none" stroke-width="2" stroke="#0000FF" x1="50.271" y1="37.926" x2="63.385" y2="46.949"/>
</g>
<g id="Red">
	<line fill="none" stroke-width="2" stroke="#FF0000" x1="36.418" y1="34.737" x2="49.428" y2="49.339"/>
	<line fill="none" stroke-width="2" stroke="#FF0000" x1="40.394" y1="39.199" x2="46.351" y2="39.699"/>
	<line fill="none" stroke-width="2" stroke="#FF0000" x1="40.394" y1="39.199" x2="40.196" y2="45.529"/>
	<path fill="none" stroke-width="2" stroke="#FF0000" d="M15.625,13.5"/>
	<line fill="none" stroke-width="2" stroke="#FF0000" x1="15.625" y1="13.5" x2="22.5" y2="15.25"/>
	<line fill="none" stroke-width="2" stroke="#FF0000" x1="22.5" y1="15.25" x2="2.375" y2="2.125"/>
	<line fill="none" stroke-width="2" stroke="#FF0000" x1="2.375" y1="2.125" x2="15.625" y2="23.5"/>
	<line fill="none" stroke-width="2" stroke="#FF0000" x1="15.625" y1="23.5" x2="13.625" y2="15.25"/>
	<line fill="none" stroke-width="2" stroke="#FF0000" x1="13.625" y1="15.25" x2="23.389" y2="27.823"/>
	<line fill="none" stroke-width="2" stroke="#FF0000" x1="26.205" y1="32.063" x2="35.969" y2="44.635"/>
	<line fill="none" stroke-width="2" stroke="#FF0000" x1="38.784" y1="48.875" x2="48.549" y2="61.447"/>
	<line fill="none" stroke-width="2" stroke="#FF0000" x1="16.109" y1="13.5" x2="29.223" y2="22.524"/>
	<line fill="none" stroke-width="2" stroke="#FF0000" x1="33.19" y1="25.713" x2="46.304" y2="34.737"/>
	<line fill="none" stroke-width="2" stroke="#FF0000" x1="50.271" y1="37.926" x2="63.385" y2="46.949"/>
</g>
<g id="White">
	<line fill="none" stroke-width="2" stroke="#00FF00" x1="36.418" y1="34.737" x2="49.428" y2="49.339"/>
	<line fill="none" stroke-width="2" stroke="#00FF00" x1="40.394" y1="39.199" x2="46.351" y2="39.699"/>
	<line fill="none" stroke-width="2" stroke="#00FF00" x1="40.394" y1="39.199" x2="40.196" y2="45.529"/>
	<path fill="none" stroke-width="2" stroke="#00FF00" d="M15.625,13.5"/>
	<line fill="none" stroke-width="2" stroke="#00FF00" x1="15.625" y1="13.5" x2="22.5" y2="15.25"/>
	<line fill="none" stroke-width="2" stroke="#00FF00" x1="22.5" y1="15.25" x2="2.375" y2="2.125"/>
	<line fill="none" stroke-width="2" stroke="#00FF00" x1="2.375" y1="2.125" x2="15.625" y2="23.5"/>
	<line fill="none" stroke-width="2" stroke="#00FF00" x1="15.625" y1="23.5" x2="13.625" y2="15.25"/>
	<line fill="none" stroke-width="2" stroke="#00FF00" x1="13.625" y1="15.25" x2="23.389" y2="27.823"/>
	<line fill="none" stroke-width="2" stroke="#00FF00" x1="26.205" y1="32.063" x2="35.969" y2="44.635"/>
	<line fill="none" stroke-width="2" stroke="#00FF00" x1="38.784" y1="48.875" x2="48.549" y2="61.447"/>
	<line fill="none" stroke-width="2" stroke="#00FF00" x1="16.109" y1="13.5" x2="29.223" y2="22.524"/>
	<line fill="none" stroke-width="2" stroke="#00FF00" x1="33.19" y1="25.713" x2="46.304" y2="34.737"/>
	<line fill="none" stroke-width="2" stroke="#00FF00" x1="50.271" y1="37.926" x2="63.385" y2="46.949"/>
</g>
</svg>
