<?xml version="1.0" encoding="utf-8"?>
<!-- Generator: Adobe Illustrator 14.0.0, SVG Export Plug-In . SVG Version: 6.00 Build 43363)  -->
<!DOCTYPE svg PUBLIC "-//W3C//DTD SVG 1.1//EN" "http://www.w3.org/Graphics/SVG/1.1/DTD/svg11.dtd">
<svg version="1.1" id="图层_1" xmlns="http://www.w3.org/2000/svg" xmlns:xlink="http://www.w3.org/1999/xlink" x="0px" y="0px"
	 width="64px" height="64px" viewBox="0 0 64 64" enable-background="new 0 0 64 64" xml:space="preserve">
<g id="Blue">
	<polygon fill="#0000FF" points="53.721,14.149 56.248,16.519 47.022,14.26 56.248,11.732 	"/>
	<polygon fill="#0000FF" points="30.098,14.149 32.625,16.519 23.399,14.26 32.625,11.732 	"/>
	<polygon fill="#0000FF" points="7.323,14.149 9.851,16.519 0.625,14.26 9.851,11.732 	"/>
	<line fill="none" stroke="#0000FF" x1="5.238" y1="14.125" x2="63.625" y2="14.125"/>
	<path fill="none" stroke="#0000FF" d="M18.813,33.563c0,0,1.707-11.938,14.26-11.938"/>
	<path fill="none" stroke="#0000FF" d="M47.072,33.563c0,0-1.707-11.938-14.26-11.938"/>
	<path fill="none" stroke="#0000FF" d="M18.683,37.513c0,0,1.707,11.938,14.26,11.938"/>
	<path fill="none" stroke="#0000FF" d="M46.942,37.513c0,0-1.707,11.938-14.26,11.938"/>
</g>
<g id="Red">
	<polygon fill="#FF0000" points="53.721,14.149 56.248,16.519 47.022,14.26 56.248,11.732 	"/>
	<polygon fill="#FF0000" points="30.098,14.149 32.625,16.519 23.399,14.26 32.625,11.732 	"/>
	<polygon fill="#FF0000" points="7.323,14.149 9.851,16.519 0.625,14.26 9.851,11.732 	"/>
	<line fill="none" stroke="#FF0000" x1="5.238" y1="14.125" x2="63.625" y2="14.125"/>
	<path fill="none" stroke="#FF0000" d="M18.813,33.563c0,0,1.707-11.938,14.26-11.938"/>
	<path fill="none" stroke="#FF0000" d="M47.072,33.563c0,0-1.707-11.938-14.26-11.938"/>
	<path fill="none" stroke="#FF0000" d="M18.683,37.513c0,0,1.707,11.938,14.26,11.938"/>
	<path fill="none" stroke="#FF0000" d="M46.942,37.513c0,0-1.707,11.938-14.26,11.938"/>
</g>
<g id="White">
	<polygon fill="#00FF00" points="53.721,14.149 56.248,16.519 47.022,14.26 56.248,11.732 	"/>
	<polygon fill="#00FF00" points="30.098,14.149 32.625,16.519 23.399,14.26 32.625,11.732 	"/>
	<polygon fill="#00FF00" points="7.323,14.149 9.851,16.519 0.625,14.26 9.851,11.732 	"/>
	<line fill="none" stroke="#00FF00" x1="5.238" y1="14.125" x2="63.625" y2="14.125"/>
	<path fill="none" stroke="#00FF00" d="M18.813,33.563c0,0,1.707-11.938,14.26-11.938"/>
	<path fill="none" stroke="#00FF00" d="M47.072,33.563c0,0-1.707-11.938-14.26-11.938"/>
	<path fill="none" stroke="#00FF00" d="M18.683,37.513c0,0,1.707,11.938,14.26,11.938"/>
	<path fill="none" stroke="#00FF00" d="M46.942,37.513c0,0-1.707,11.938-14.26,11.938"/>
</g>
</svg>
