<?xml version="1.0" encoding="utf-8"?>
<!-- Generator: Adobe Illustrator 14.0.0, SVG Export Plug-In . SVG Version: 6.00 Build 43363)  -->
<!DOCTYPE svg PUBLIC "-//W3C//DTD SVG 1.1//EN" "http://www.w3.org/Graphics/SVG/1.1/DTD/svg11.dtd">
<svg version="1.1" id="图层_1" xmlns="http://www.w3.org/2000/svg" xmlns:xlink="http://www.w3.org/1999/xlink" x="0px" y="0px"
	 width="64px" height="64px" viewBox="0 0 64 64" enable-background="new 0 0 64 64" xml:space="preserve">
<g id="Blue">
	<polygon fill="#0000FF" points="15.5,30.594 13.833,32.156 19.917,30.667 13.833,29 	"/>
	<polygon fill="#0000FF" points="33.667,30.594 32,32.156 38.084,30.667 32,29 	"/>
	<polygon fill="#0000FF" points="51.195,30.594 49.529,32.156 55.612,30.667 49.529,29 	"/>
	<line fill="none" stroke="#0000FF" x1="2" y1="30.578" x2="51.195" y2="30.578"/>
	<line fill="none" stroke="#0000FF" x1="57" y1="26.333" x2="57" y2="35.084"/>
	<line fill="none" stroke="#0000FF" x1="60.584" y1="26.333" x2="60.584" y2="35.084"/>
</g>
<g id="Red">
	<polygon fill="#FF0000" points="15.5,30.594 13.833,32.156 19.917,30.667 13.833,29 	"/>
	<polygon fill="#FF0000" points="33.667,30.594 32,32.156 38.084,30.667 32,29 	"/>
	<polygon fill="#FF0000" points="51.195,30.594 49.529,32.156 55.612,30.667 49.529,29 	"/>
	<line fill="none" stroke="#FF0000" x1="2" y1="30.578" x2="51.195" y2="30.578"/>
	<line fill="none" stroke="#FF0000" x1="57" y1="26.333" x2="57" y2="35.084"/>
	<line fill="none" stroke="#FF0000" x1="60.584" y1="26.333" x2="60.584" y2="35.084"/>
</g>
<g id="White">
	<polygon fill="#00FF00" points="15.5,30.594 13.833,32.156 19.917,30.667 13.833,29 	"/>
	<polygon fill="#00FF00" points="33.667,30.594 32,32.156 38.084,30.667 32,29 	"/>
	<polygon fill="#00FF00" points="51.195,30.594 49.529,32.156 55.612,30.667 49.529,29 	"/>
	<line fill="none" stroke="#00FF00" x1="2" y1="30.578" x2="51.195" y2="30.578"/>
	<line fill="none" stroke="#00FF00" x1="57" y1="26.333" x2="57" y2="35.084"/>
	<line fill="none" stroke="#00FF00" x1="60.584" y1="26.333" x2="60.584" y2="35.084"/>
</g>
</svg>
