<?xml version="1.0" encoding="utf-8"?>
<!-- Generator: Adobe Illustrator 14.0.0, SVG Export Plug-In . SVG Version: 6.00 Build 43363)  -->
<!DOCTYPE svg PUBLIC "-//W3C//DTD SVG 1.1//EN" "http://www.w3.org/Graphics/SVG/1.1/DTD/svg11.dtd">
<svg version="1.1" id="图层_1" xmlns="http://www.w3.org/2000/svg" xmlns:xlink="http://www.w3.org/1999/xlink" x="0px" y="0px"
	 width="64px" height="64px" viewBox="0 0 64 64" enable-background="new 0 0 64 64" xml:space="preserve">
<g id="Blue">
	<line fill="none" stroke="#0000FF" x1="23.167" y1="11.833" x2="2.167" y2="48"/>
	<line fill="none" stroke="#0000FF" x1="2.167" y1="48" x2="44.5" y2="48"/>
	<line fill="none" stroke="#0000FF" x1="44.5" y1="48" x2="23.167" y2="11.833"/>
	<line fill="none" stroke="#000000" x1="47.667" y1="42.5" x2="62.5" y2="42.5"/>
	<circle fill="#0000FF" cx="23.667" cy="35.166" r="4"/>
</g>
<g id="Red">
	<line fill="none" stroke="#FF0000" x1="23.167" y1="11.833" x2="2.167" y2="48"/>
	<line fill="none" stroke="#FF0000" x1="2.167" y1="48" x2="44.5" y2="48"/>
	<line fill="none" stroke="#FF0000" x1="44.5" y1="48" x2="23.167" y2="11.833"/>
	<line fill="none" stroke="#000000" x1="47.667" y1="42.5" x2="62.5" y2="42.5"/>
	<circle fill="#FF0000" cx="23.667" cy="35.166" r="4"/>
</g>
<g id="White">
	<line fill="none" stroke="#00FF00" x1="23.167" y1="11.833" x2="2.167" y2="48"/>
	<line fill="none" stroke="#00FF00" x1="2.167" y1="48" x2="44.5" y2="48"/>
	<line fill="none" stroke="#00FF00" x1="44.5" y1="48" x2="23.167" y2="11.833"/>
	<line fill="none" stroke="#000000" x1="47.667" y1="42.5" x2="62.5" y2="42.5"/>
	<circle fill="#00FF00" cx="23.667" cy="35.166" r="4"/>
</g>
</svg>
