<?xml version="1.0" encoding="utf-8"?>
<!-- Generator: Adobe Illustrator 14.0.0, SVG Export Plug-In . SVG Version: 6.00 Build 43363)  -->
<!DOCTYPE svg PUBLIC "-//W3C//DTD SVG 1.1//EN" "http://www.w3.org/Graphics/SVG/1.1/DTD/svg11.dtd">
<svg version="1.1" id="图层_1" xmlns="http://www.w3.org/2000/svg" xmlns:xlink="http://www.w3.org/1999/xlink" x="0px" y="0px"
	 width="64px" height="64px" viewBox="0 0 64 64" enable-background="new 0 0 64 64" xml:space="preserve">
<g id="Blue">
	<rect x="15.5" y="42.5" fill="none" stroke="#0000FF" stroke-width="2" width="19.667" height="19.667"/>
	<line fill="none" stroke="#0000FF" stroke-width="2" x1="25.75" y1="18.667" x2="25.75" y2="42.5"/>
	<line fill="none" stroke="#0000FF" x1="51.688" y1="3.22" x2="42.248" y2="8.14"/>
	<line fill="none" stroke="#0000FF" x1="42.248" y1="8.14" x2="42.248" y2="2.48"/>
	<line fill="none" stroke="#0000FF" x1="42.248" y1="2.48" x2="32" y2="7.988"/>
	<line fill="none" stroke="#000100" x1="51.688" y1="2.916" x2="42.344" y2="7.836"/>
	<line fill="none" stroke="#000100" x1="42.344" y1="7.836" x2="42.344" y2="2.176"/>
	<line fill="none" stroke="#000100" x1="42.344" y1="2.176" x2="32" y2="7.684"/>
	<polygon fill="#000100" points="55.178,1.488 49.479,2.792 51.688,3.22 50.925,5.271 	"/>
	<line fill="none" stroke="#0000FF" stroke-width="2" x1="15.868" y1="18.667" x2="35.632" y2="18.667"/>
	<path fill="none" stroke="#0000FF" stroke-width="2" d="M15.868,18.667c0,0,0.549-9.888,9.882-9.882c0,0,9.139-0.576,9.882,9.882"
		/>
</g>
<g id="Red">
	<rect x="15.5" y="42.5" fill="none" stroke="#FF0000" stroke-width="2" width="19.667" height="19.667"/>
	<line fill="none" stroke="#FF0000" stroke-width="2" x1="25.75" y1="18.667" x2="25.75" y2="42.5"/>
	<line fill="none" stroke="#FF0000" x1="51.688" y1="3.22" x2="42.248" y2="8.14"/>
	<line fill="none" stroke="#FF0000" x1="42.248" y1="8.14" x2="42.248" y2="2.48"/>
	<line fill="none" stroke="#FF0000" x1="42.248" y1="2.48" x2="32" y2="7.988"/>
	<line fill="none" stroke="#000100" x1="51.688" y1="2.916" x2="42.344" y2="7.836"/>
	<line fill="none" stroke="#000100" x1="42.344" y1="7.836" x2="42.344" y2="2.176"/>
	<line fill="none" stroke="#000100" x1="42.344" y1="2.176" x2="32" y2="7.684"/>
	<polygon fill="#000100" points="55.178,1.488 49.479,2.792 51.688,3.22 50.925,5.271 	"/>
	<line fill="none" stroke="#FF0000" stroke-width="2" x1="15.868" y1="18.667" x2="35.632" y2="18.667"/>
	<path fill="none" stroke="#FF0000" stroke-width="2" d="M15.868,18.667c0,0,0.549-9.888,9.882-9.882c0,0,9.139-0.576,9.882,9.882"
		/>
</g>
<g id="White">
	<rect x="15.5" y="42.5" fill="none" stroke="#00FF00" stroke-width="2" width="19.667" height="19.667"/>
	<line fill="none" stroke="#00FF00" stroke-width="2" x1="25.75" y1="18.667" x2="25.75" y2="42.5"/>
	<line fill="none" stroke="#00FF00" x1="51.688" y1="3.22" x2="42.248" y2="8.14"/>
	<line fill="none" stroke="#00FF00" x1="42.248" y1="8.14" x2="42.248" y2="2.48"/>
	<line fill="none" stroke="#00FF00" x1="42.248" y1="2.48" x2="32" y2="7.988"/>
	<line fill="none" stroke="#000100" x1="51.688" y1="2.916" x2="42.344" y2="7.836"/>
	<line fill="none" stroke="#000100" x1="42.344" y1="7.836" x2="42.344" y2="2.176"/>
	<line fill="none" stroke="#000100" x1="42.344" y1="2.176" x2="32" y2="7.684"/>
	<polygon fill="#000100" points="55.178,1.488 49.479,2.792 51.688,3.22 50.925,5.271 	"/>
	<line fill="none" stroke="#00FF00" stroke-width="2" x1="15.868" y1="18.667" x2="35.632" y2="18.667"/>
	<path fill="none" stroke="#00FF00" stroke-width="2" d="M15.868,18.667c0,0,0.549-9.888,9.882-9.882c0,0,9.139-0.576,9.882,9.882"
		/>
</g>
</svg>
