<?xml version="1.0" encoding="utf-8"?>
<!-- Generator: Adobe Illustrator 14.0.0, SVG Export Plug-In . SVG Version: 6.00 Build 43363)  -->
<!DOCTYPE svg PUBLIC "-//W3C//DTD SVG 1.1//EN" "http://www.w3.org/Graphics/SVG/1.1/DTD/svg11.dtd">
<svg version="1.1" id="图层_1" xmlns="http://www.w3.org/2000/svg" xmlns:xlink="http://www.w3.org/1999/xlink" x="0px" y="0px"
	 width="64px" height="64px" viewBox="0 0 64 64" enable-background="new 0 0 64 64" xml:space="preserve">
<g id="Blue">
	<line fill="none" stroke="#0000FF" stroke-width="2" x1="54.605" y1="11.187" x2="52.4" y2="21.065"/>
	<line fill="none" stroke="#0000FF" stroke-width="2" x1="49.438" y1="11.187" x2="47.08" y2="21.065"/>
	<line fill="none" stroke="#0000FF" stroke-width="2" x1="14.454" y1="11.187" x2="12.706" y2="21.065"/>
	<line fill="none" stroke="#0000FF" stroke-width="2" x1="9.135" y1="11.187" x2="6.779" y2="21.065"/>
	<line fill="none" stroke="#0000FF" stroke-width="2" x1="7.958" y1="16.125" x2="53.502" y2="16.125"/>
	<line fill="none" stroke="#0000FF" stroke-width="2" x1="31.592" y1="6" x2="31.592" y2="46.193"/>
	<line fill="none" stroke="#000100" stroke-width="2" x1="23.195" y1="54.629" x2="39.99" y2="54.629"/>
	<line fill="none" stroke="#0000FF" stroke-width="2" x1="23.195" y1="54" x2="39.99" y2="54"/>
	<rect x="23.195" y="46.193" fill="none" stroke="#0000FF" stroke-width="2" width="16.795" height="16.871"/>
	<line fill="none" stroke="#0000FF" stroke-width="2" x1="14.771" y1="5.979" x2="47.833" y2="5.979"/>
	<polygon fill="#000100" points="18.033,7.854 14.771,5.979 18.033,4.188 9.135,5.979 	"/>
	<polygon fill="#000100" points="44.605,7.813 47.865,5.938 44.605,4.146 53.503,5.938 	"/>
</g>
<g id="Red">
	<line fill="none" stroke="#FF0000" stroke-width="2" x1="54.605" y1="11.187" x2="52.4" y2="21.065"/>
	<line fill="none" stroke="#FF0000" stroke-width="2" x1="49.438" y1="11.187" x2="47.08" y2="21.065"/>
	<line fill="none" stroke="#FF0000" stroke-width="2" x1="14.454" y1="11.187" x2="12.706" y2="21.065"/>
	<line fill="none" stroke="#FF0000" stroke-width="2" x1="9.135" y1="11.187" x2="6.779" y2="21.065"/>
	<line fill="none" stroke="#FF0000" stroke-width="2" x1="7.958" y1="16.125" x2="53.502" y2="16.125"/>
	<line fill="none" stroke="#FF0000" stroke-width="2" x1="31.592" y1="6" x2="31.592" y2="46.193"/>
	<line fill="none" stroke="#000100" stroke-width="2" x1="23.195" y1="54.629" x2="39.99" y2="54.629"/>
	<line fill="none" stroke="#FF0000" stroke-width="2" x1="23.195" y1="54" x2="39.99" y2="54"/>
	<rect x="23.195" y="46.193" fill="none" stroke="#FF0000" stroke-width="2" width="16.795" height="16.871"/>
	<line fill="none" stroke="#FF0000" stroke-width="2" x1="14.771" y1="5.979" x2="47.833" y2="5.979"/>
	<polygon fill="#000100" points="18.033,7.854 14.771,5.979 18.033,4.188 9.135,5.979 	"/>
	<polygon fill="#000100" points="44.605,7.813 47.865,5.938 44.605,4.146 53.503,5.938 	"/>
</g>
<g id="White">
	<line fill="none" stroke="#00FF00" stroke-width="2" x1="54.605" y1="11.187" x2="52.4" y2="21.065"/>
	<line fill="none" stroke="#00FF00" stroke-width="2" x1="49.438" y1="11.187" x2="47.08" y2="21.065"/>
	<line fill="none" stroke="#00FF00" stroke-width="2" x1="14.454" y1="11.187" x2="12.706" y2="21.065"/>
	<line fill="none" stroke="#00FF00" stroke-width="2" x1="9.135" y1="11.187" x2="6.779" y2="21.065"/>
	<line fill="none" stroke="#00FF00" stroke-width="2" x1="7.958" y1="16.125" x2="53.502" y2="16.125"/>
	<line fill="none" stroke="#00FF00" stroke-width="2" x1="31.592" y1="6" x2="31.592" y2="46.193"/>
	<line fill="none" stroke="#000100" stroke-width="2" x1="23.195" y1="54.629" x2="39.99" y2="54.629"/>
	<line fill="none" stroke="#00FF00" stroke-width="2" x1="23.195" y1="54" x2="39.99" y2="54"/>
	<rect x="23.195" y="46.193" fill="none" stroke="#00FF00" stroke-width="2" width="16.795" height="16.871"/>
	<line fill="none" stroke="#00FF00" stroke-width="2" x1="14.771" y1="5.979" x2="47.833" y2="5.979"/>
	<polygon fill="#000100" points="18.033,7.854 14.771,5.979 18.033,4.188 9.135,5.979 	"/>
	<polygon fill="#000100" points="44.605,7.813 47.865,5.938 44.605,4.146 53.503,5.938 	"/>
</g>
</svg>
