<?xml version="1.0" encoding="utf-8"?>
<!-- Generator: Adobe Illustrator 14.0.0, SVG Export Plug-In . SVG Version: 6.00 Build 43363)  -->
<!DOCTYPE svg PUBLIC "-//W3C//DTD SVG 1.1//EN" "http://www.w3.org/Graphics/SVG/1.1/DTD/svg11.dtd">
<svg version="1.1" id="图层_1" xmlns="http://www.w3.org/2000/svg" xmlns:xlink="http://www.w3.org/1999/xlink" x="0px" y="0px"
	 width="64px" height="64px" viewBox="0 0 64 64" enable-background="new 0 0 64 64" xml:space="preserve">
<g id="Blue">
	<rect x="11.24" y="40.191" fill="none" stroke="#000100" stroke-width="2" width="42.854" height="22.284"/>
	<line fill="none" stroke="#0000FF" stroke-width="2" x1="17" y1="57.75" x2="32" y2="50"/>
	<line fill="none" stroke="#0000FF" stroke-width="2" x1="32" y1="50" x2="32" y2="57.75"/>
	<line fill="none" stroke="#0000FF" stroke-width="2" x1="32" y1="57.75" x2="43.5" y2="50"/>
	<polygon fill="#000100" points="42.792,52.75 43.5,50 40.459,50 47.896,46.93 	"/>
	<path fill="none" stroke="#0000FF" stroke-width="2" d="M45.5,12.167L32.833,40.5"/>
	<line fill="none" stroke="#0000FF" stroke-width="2" x1="32.833" y1="40.5" x2="18.833" y2="12.167"/>
	<rect x="11.833" y="40.5" fill="none" stroke="#0000FF" stroke-width="2" width="41.667" height="21.667"/>
	<path fill="none" stroke="#0000FF" stroke-width="2" d="M18.833,12.167c0-6.559,5.97-11.5,13.333-11.5
		c7.363,0,13.333,4.941,13.333,11.5"/>
</g>
<g id="Red">
	<rect x="11.24" y="40.191" fill="none" stroke="#000100" stroke-width="2" width="42.854" height="22.284"/>
	<line fill="none" stroke="#FF0000" stroke-width="2" x1="17" y1="57.75" x2="32" y2="50"/>
	<line fill="none" stroke="#FF0000" stroke-width="2" x1="32" y1="50" x2="32" y2="57.75"/>
	<line fill="none" stroke="#FF0000" stroke-width="2" x1="32" y1="57.75" x2="43.5" y2="50"/>
	<polygon fill="#000100" points="42.792,52.75 43.5,50 40.459,50 47.896,46.93 	"/>
	<path fill="none" stroke="#FF0000" stroke-width="2" d="M45.5,12.167L32.833,40.5"/>
	<line fill="none" stroke="#FF0000" stroke-width="2" x1="32.833" y1="40.5" x2="18.833" y2="12.167"/>
	<rect x="11.833" y="40.5" fill="none" stroke="#FF0000" stroke-width="2" width="41.667" height="21.667"/>
	<path fill="none" stroke="#FF0000" stroke-width="2" d="M18.833,12.167c0-6.559,5.97-11.5,13.333-11.5
		c7.363,0,13.333,4.941,13.333,11.5"/>
</g>
<g id="White">
	<rect x="11.24" y="40.191" fill="none" stroke="#000100" stroke-width="2" width="42.854" height="22.284"/>
	<line fill="none" stroke="#00FF00" stroke-width="2" x1="17" y1="57.75" x2="32" y2="50"/>
	<line fill="none" stroke="#00FF00" stroke-width="2" x1="32" y1="50" x2="32" y2="57.75"/>
	<line fill="none" stroke="#00FF00" stroke-width="2" x1="32" y1="57.75" x2="43.5" y2="50"/>
	<polygon fill="#000100" points="42.792,52.75 43.5,50 40.459,50 47.896,46.93 	"/>
	<path fill="none" stroke="#00FF00" stroke-width="2" d="M45.5,12.167L32.833,40.5"/>
	<line fill="none" stroke="#00FF00" stroke-width="2" x1="18.833" y1="12.167" x2="32.833" y2="40.5"/>
	<rect x="11.833" y="40.5" fill="none" stroke="#00FF00" stroke-width="2" width="41.667" height="21.667"/>
	<path fill="none" stroke="#00FF00" stroke-width="2" d="M18.833,12.167c0-6.559,5.97-11.5,13.333-11.5
		c7.363,0,13.333,4.941,13.333,11.5"/>
</g>
</svg>
