<?xml version="1.0" encoding="utf-8"?>
<!-- Generator: Adobe Illustrator 14.0.0, SVG Export Plug-In . SVG Version: 6.00 Build 43363)  -->
<!DOCTYPE svg PUBLIC "-//W3C//DTD SVG 1.1//EN" "http://www.w3.org/Graphics/SVG/1.1/DTD/svg11.dtd">
<svg version="1.1" id="图层_1" xmlns="http://www.w3.org/2000/svg" xmlns:xlink="http://www.w3.org/1999/xlink" x="0px" y="0px"
	 width="64px" height="64px" viewBox="0 0 64 64" enable-background="new 0 0 64 64" xml:space="preserve">
<g id="Blue">
	<line fill="none" stroke="#000000" stroke-width="2" x1="43.292" y1="29" x2="32.125" y2="36.583"/>
	<line fill="none" stroke="#000000" stroke-width="2" x1="32.125" y1="36.583" x2="32.125" y2="29"/>
	<line fill="none" stroke="#000000" stroke-width="2" x1="32.125" y1="29" x2="17.167" y2="36.583"/>
	<line fill="none" stroke="#0000FF" stroke-width="2" x1="0" y1="42.25" x2="64" y2="42.25"/>
	<line fill="none" stroke="#0000FF" stroke-width="2" x1="11.25" y1="42.25" x2="11.25" y2="19.75"/>
	<line fill="none" stroke="#0000FF" stroke-width="2" x1="11.25" y1="19.75" x2="53" y2="19.75"/>
	<line fill="none" stroke="#0000FF" stroke-width="2" x1="53" y1="19.75" x2="53" y2="42.25"/>
	<line fill="none" stroke="#0000FF" stroke-width="2" x1="17" y1="37" x2="32" y2="29.25"/>
	<line fill="none" stroke="#0000FF" stroke-width="2" x1="32" y1="29.25" x2="32" y2="37"/>
	<line fill="none" stroke="#0000FF" stroke-width="2" x1="32" y1="37" x2="43.5" y2="29.25"/>
	<polygon fill="#000100" points="42.792,32 43.5,29.25 40.459,29.25 47.896,26.18 	"/>
</g>
<g id="Red">
	<line fill="none" stroke="#000000" stroke-width="2" x1="43.292" y1="29" x2="32.125" y2="36.583"/>
	<line fill="none" stroke="#000000" stroke-width="2" x1="32.125" y1="36.583" x2="32.125" y2="29"/>
	<line fill="none" stroke="#000000" stroke-width="2" x1="32.125" y1="29" x2="17.167" y2="36.583"/>
	<line fill="none" stroke="#FF0000" stroke-width="2" x1="0" y1="42.25" x2="64" y2="42.25"/>
	<line fill="none" stroke="#FF0000" stroke-width="2" x1="11.25" y1="42.25" x2="11.25" y2="19.75"/>
	<line fill="none" stroke="#FF0000" stroke-width="2" x1="11.25" y1="19.75" x2="53" y2="19.75"/>
	<line fill="none" stroke="#FF0000" stroke-width="2" x1="53" y1="19.75" x2="53" y2="42.25"/>
	<line fill="none" stroke="#FF0000" stroke-width="2" x1="17" y1="37" x2="32" y2="29.25"/>
	<line fill="none" stroke="#FF0000" stroke-width="2" x1="32" y1="29.25" x2="32" y2="37"/>
	<line fill="none" stroke="#FF0000" stroke-width="2" x1="32" y1="37" x2="43.5" y2="29.25"/>
	<polygon fill="#000100" points="42.792,32 43.5,29.25 40.459,29.25 47.896,26.18 	"/>
</g>
<g id="White">
	<line fill="none" stroke="#000000" stroke-width="2" x1="43.292" y1="29" x2="32.125" y2="36.583"/>
	<line fill="none" stroke="#000000" stroke-width="2" x1="32.125" y1="36.583" x2="32.125" y2="29"/>
	<line fill="none" stroke="#000000" stroke-width="2" x1="32.125" y1="29" x2="17.167" y2="36.583"/>
	<line fill="none" stroke="#00FF00" stroke-width="2" x1="0" y1="42.25" x2="64" y2="42.25"/>
	<line fill="none" stroke="#00FF00" stroke-width="2" x1="11.25" y1="42.25" x2="11.25" y2="19.75"/>
	<line fill="none" stroke="#00FF00" stroke-width="2" x1="11.25" y1="19.75" x2="53" y2="19.75"/>
	<line fill="none" stroke="#00FF00" stroke-width="2" x1="53" y1="19.75" x2="53" y2="42.25"/>
	<line fill="none" stroke="#00FF00" stroke-width="2" x1="17" y1="37" x2="32" y2="29.25"/>
	<line fill="none" stroke="#00FF00" stroke-width="2" x1="32" y1="29.25" x2="32" y2="37"/>
	<line fill="none" stroke="#00FF00" stroke-width="2" x1="32" y1="37" x2="43.5" y2="29.25"/>
	<polygon fill="#000100" points="42.792,32 43.5,29.25 40.459,29.25 47.896,26.18 	"/>
</g>
</svg>
