<?xml version="1.0" encoding="utf-8"?>
<!-- Generator: Adobe Illustrator 14.0.0, SVG Export Plug-In . SVG Version: 6.00 Build 43363)  -->
<!DOCTYPE svg PUBLIC "-//W3C//DTD SVG 1.1//EN" "http://www.w3.org/Graphics/SVG/1.1/DTD/svg11.dtd">
<svg version="1.1" id="图层_1" xmlns="http://www.w3.org/2000/svg" xmlns:xlink="http://www.w3.org/1999/xlink" x="0px" y="0px"
	 width="64px" height="64px" viewBox="0 0 64 64" enable-background="new 0 0 64 64" xml:space="preserve">
<g id="Blue">
	<line fill="none" stroke="#0000FF" stroke-width="2" x1="31.592" y1="6" x2="31.593" y2="39.277"/>
	<line fill="none" stroke="#000100" stroke-width="2" x1="29.313" y1="51.485" x2="41.365" y2="51.485"/>
	<line fill="none" stroke="#0000FF" stroke-width="2" x1="29.313" y1="50.856" x2="41.365" y2="50.856"/>
	<rect x="19.752" y="39.277" fill="none" stroke="#0000FF" stroke-width="2" width="23.68" height="23.787"/>
	<polygon fill="#000100" points="32.574,52.731 29.313,50.856 32.574,49.064 22.01,50.815 	"/>
	<polygon fill="#000100" points="31.592,0.362 33.385,9.26 31.592,6 29.718,9.26 	"/>
</g>
<g id="Red">
	<line fill="none" stroke="#FF0000" stroke-width="2" x1="31.592" y1="6" x2="31.593" y2="39.277"/>
	<line fill="none" stroke="#000100" stroke-width="2" x1="29.313" y1="51.485" x2="41.365" y2="51.485"/>
	<line fill="none" stroke="#FF0000" stroke-width="2" x1="29.313" y1="50.856" x2="41.365" y2="50.856"/>
	<rect x="19.752" y="39.277" fill="none" stroke="#FF0000" stroke-width="2" width="23.68" height="23.787"/>
	<polygon fill="#000100" points="32.574,52.731 29.313,50.856 32.574,49.064 22.01,50.815 	"/>
	<polygon fill="#000100" points="31.592,0.362 33.385,9.26 31.592,6 29.718,9.26 	"/>
</g>
<g id="White">
	<line fill="none" stroke="#00FF00" stroke-width="2" x1="31.592" y1="6" x2="31.593" y2="39.277"/>
	<line fill="none" stroke="#000100" stroke-width="2" x1="29.313" y1="51.485" x2="41.365" y2="51.485"/>
	<line fill="none" stroke="#00FF00" stroke-width="2" x1="29.313" y1="50.856" x2="41.365" y2="50.856"/>
	<rect x="19.752" y="39.277" fill="none" stroke="#00FF00" stroke-width="2" width="23.68" height="23.787"/>
	<polygon fill="#000100" points="32.574,52.731 29.313,50.856 32.574,49.064 22.01,50.815 	"/>
	<polygon fill="#000100" points="31.592,0.362 33.385,9.26 31.592,6 29.718,9.26 	"/>
</g>
</svg>
