<?xml version="1.0" encoding="utf-8"?>
<!-- Generator: Adobe Illustrator 14.0.0, SVG Export Plug-In . SVG Version: 6.00 Build 43363)  -->
<!DOCTYPE svg PUBLIC "-//W3C//DTD SVG 1.1//EN" "http://www.w3.org/Graphics/SVG/1.1/DTD/svg11.dtd">
<svg version="1.1" id="图层_1" xmlns="http://www.w3.org/2000/svg" xmlns:xlink="http://www.w3.org/1999/xlink" x="0px" y="0px"
	 width="64px" height="64px" viewBox="0 0 64 64" enable-background="new 0 0 64 64" xml:space="preserve">
<g id="Blue">
	<rect x="15.833" y="30" fill="none" stroke="#0000FF" stroke-width="2" width="31.5" height="31.667"/>
	<line fill="none" stroke="#0000FF" stroke-width="2" x1="23.333" y1="28" x2="17" y2="16.167"/>
	<line fill="none" stroke="#0000FF" stroke-width="2" x1="17" y1="16.167" x2="27.333" y2="16.167"/>
	<line fill="none" stroke="#0000FF" stroke-width="2" x1="27.333" y1="16.167" x2="20.833" y2="5.667"/>
	<polygon fill="#0000FF" points="20.854,5.667 20.688,8.406 17.519,1.44 23.478,6.44 	"/>
	<line fill="none" stroke="#0000FF" stroke-width="2" x1="40.999" y1="28" x2="47.332" y2="16.167"/>
	<line fill="none" stroke="#0000FF" stroke-width="2" x1="47.332" y1="16.167" x2="36.999" y2="16.167"/>
	<line fill="none" stroke="#0000FF" stroke-width="2" x1="36.999" y1="16.167" x2="43.499" y2="5.667"/>
	<polygon fill="#0000FF" points="43.479,5.667 43.645,8.406 46.813,1.44 40.855,6.44 	"/>
	<line fill="none" stroke="#0000FF" stroke-width="2" x1="15.833" y1="42.334" x2="47.333" y2="42.334"/>
</g>
<g id="Red">
	<rect x="15.833" y="30" fill="none" stroke="#FF0000" stroke-width="2" width="31.5" height="31.667"/>
	<line fill="none" stroke="#FF0000" stroke-width="2" x1="23.333" y1="28" x2="17" y2="16.167"/>
	<line fill="none" stroke="#FF0000" stroke-width="2" x1="17" y1="16.167" x2="27.333" y2="16.167"/>
	<line fill="none" stroke="#FF0000" stroke-width="2" x1="27.333" y1="16.167" x2="20.833" y2="5.667"/>
	<polygon fill="#FF0000" points="20.854,5.667 20.688,8.406 17.519,1.44 23.478,6.44 	"/>
	<line fill="none" stroke="#FF0000" stroke-width="2" x1="40.999" y1="28" x2="47.332" y2="16.167"/>
	<line fill="none" stroke="#FF0000" stroke-width="2" x1="47.332" y1="16.167" x2="36.999" y2="16.167"/>
	<line fill="none" stroke="#FF0000" stroke-width="2" x1="36.999" y1="16.167" x2="43.499" y2="5.667"/>
	<polygon fill="#FF0000" points="43.479,5.667 43.645,8.406 46.813,1.44 40.855,6.44 	"/>
	<line fill="none" stroke="#FF0000" stroke-width="2" x1="15.833" y1="42.334" x2="47.333" y2="42.334"/>
</g>
<g id="White">
	<rect x="15.833" y="30" fill="none" stroke="#00FF00" stroke-width="2" width="31.5" height="31.667"/>
	<line fill="none" stroke="#00FF00" stroke-width="2" x1="23.333" y1="28" x2="17" y2="16.167"/>
	<line fill="none" stroke="#00FF00" stroke-width="2" x1="17" y1="16.167" x2="27.333" y2="16.167"/>
	<line fill="none" stroke="#00FF00" stroke-width="2" x1="27.333" y1="16.167" x2="20.833" y2="5.667"/>
	<polygon fill="#00FF00" points="20.854,5.667 20.688,8.406 17.519,1.44 23.478,6.44 	"/>
	<line fill="none" stroke="#00FF00" stroke-width="2" x1="40.999" y1="28" x2="47.332" y2="16.167"/>
	<line fill="none" stroke="#00FF00" stroke-width="2" x1="47.332" y1="16.167" x2="36.999" y2="16.167"/>
	<line fill="none" stroke="#00FF00" stroke-width="2" x1="36.999" y1="16.167" x2="43.499" y2="5.667"/>
	<polygon fill="#00FF00" points="43.479,5.667 43.645,8.406 46.813,1.44 40.855,6.44 	"/>
	<line fill="none" stroke="#00FF00" stroke-width="2" x1="15.833" y1="42.334" x2="47.333" y2="42.334"/>
</g>
</svg>
