<?xml version="1.0" encoding="utf-8"?>
<!-- Generator: Adobe Illustrator 14.0.0, SVG Export Plug-In . SVG Version: 6.00 Build 43363)  -->
<!DOCTYPE svg PUBLIC "-//W3C//DTD SVG 1.1//EN" "http://www.w3.org/Graphics/SVG/1.1/DTD/svg11.dtd">
<svg version="1.1" id="图层_1" xmlns="http://www.w3.org/2000/svg" xmlns:xlink="http://www.w3.org/1999/xlink" x="0px" y="0px"
	 width="64px" height="64px" viewBox="0 0 64 64" enable-background="new 0 0 64 64" xml:space="preserve">
<g id="Blue">
	<rect x="21.833" y="39.424" fill="none" stroke="#0000FF" stroke-width="2" width="22.125" height="22.243"/>
	<line fill="none" stroke="#0000FF" stroke-width="2" x1="27.102" y1="38.02" x2="22.653" y2="27.941"/>
	<line fill="none" stroke="#0000FF" stroke-width="2" x1="22.653" y1="27.941" x2="29.911" y2="27.941"/>
	<line fill="none" stroke="#0000FF" stroke-width="2" x1="29.911" y1="27.941" x2="25.346" y2="19"/>
	<line fill="none" stroke="#0000FF" stroke-width="2" x1="39.51" y1="38.02" x2="43.958" y2="27.941"/>
	<line fill="none" stroke="#0000FF" stroke-width="2" x1="43.958" y1="27.941" x2="36.7" y2="27.941"/>
	<line fill="none" stroke="#0000FF" stroke-width="2" x1="36.7" y1="27.941" x2="41.266" y2="19"/>
	<line fill="none" stroke="#0000FF" stroke-width="2" x1="33.257" y1="39.424" x2="33.257" y2="3.667"/>
	<line fill="none" stroke="#0000FF" stroke-width="2" x1="20.651" y1="3.667" x2="45.334" y2="3.667"/>
	<polygon fill="#000100" points="23.086,5.542 20.651,3.667 23.086,1.875 16.443,3.667 	"/>
	<polygon fill="#000100" points="42.924,5.5 45.357,3.625 42.924,1.833 49.566,3.625 	"/>
	<line fill="none" stroke="#0000FF" stroke-width="2" x1="21.833" y1="50.545" x2="43.958" y2="50.545"/>
</g>
<g id="Red">
	<rect x="21.833" y="39.424" fill="none" stroke="#FF0000" stroke-width="2" width="22.125" height="22.243"/>
	<line fill="none" stroke="#FF0000" stroke-width="2" x1="27.102" y1="38.02" x2="22.653" y2="27.941"/>
	<line fill="none" stroke="#FF0000" stroke-width="2" x1="22.653" y1="27.941" x2="29.911" y2="27.941"/>
	<line fill="none" stroke="#FF0000" stroke-width="2" x1="29.911" y1="27.941" x2="25.346" y2="19"/>
	<line fill="none" stroke="#FF0000" stroke-width="2" x1="39.51" y1="38.02" x2="43.958" y2="27.941"/>
	<line fill="none" stroke="#FF0000" stroke-width="2" x1="43.958" y1="27.941" x2="36.7" y2="27.941"/>
	<line fill="none" stroke="#FF0000" stroke-width="2" x1="36.7" y1="27.941" x2="41.266" y2="19"/>
	<line fill="none" stroke="#FF0000" stroke-width="2" x1="33.257" y1="39.424" x2="33.257" y2="3.667"/>
	<line fill="none" stroke="#FF0000" stroke-width="2" x1="20.651" y1="3.667" x2="45.334" y2="3.667"/>
	<polygon fill="#000100" points="23.086,5.542 20.651,3.667 23.086,1.875 16.443,3.667 	"/>
	<polygon fill="#000100" points="42.924,5.5 45.357,3.625 42.924,1.833 49.566,3.625 	"/>
	<line fill="none" stroke="#FF0000" stroke-width="2" x1="21.833" y1="50.545" x2="43.958" y2="50.545"/>
</g>
<g id="White">
	<rect x="21.833" y="39.424" fill="none" stroke="#00FF00" stroke-width="2" width="22.125" height="22.243"/>
	<line fill="none" stroke="#00FF00" stroke-width="2" x1="27.102" y1="38.02" x2="22.653" y2="27.941"/>
	<line fill="none" stroke="#00FF00" stroke-width="2" x1="22.653" y1="27.941" x2="29.911" y2="27.941"/>
	<line fill="none" stroke="#00FF00" stroke-width="2" x1="29.911" y1="27.941" x2="25.346" y2="19"/>
	<line fill="none" stroke="#00FF00" stroke-width="2" x1="39.51" y1="38.02" x2="43.958" y2="27.941"/>
	<line fill="none" stroke="#00FF00" stroke-width="2" x1="43.958" y1="27.941" x2="36.7" y2="27.941"/>
	<line fill="none" stroke="#00FF00" stroke-width="2" x1="36.7" y1="27.941" x2="41.266" y2="19"/>
	<line fill="none" stroke="#00FF00" stroke-width="2" x1="33.257" y1="39.424" x2="33.257" y2="3.667"/>
	<line fill="none" stroke="#00FF00" stroke-width="2" x1="20.651" y1="3.667" x2="45.334" y2="3.667"/>
	<polygon fill="#000100" points="23.086,5.542 20.651,3.667 23.086,1.875 16.443,3.667 	"/>
	<polygon fill="#000100" points="42.924,5.5 45.357,3.625 42.924,1.833 49.566,3.625 	"/>
	<line fill="none" stroke="#00FF00" stroke-width="2" x1="21.833" y1="50.545" x2="43.958" y2="50.545"/>
</g>
</svg>
