<?xml version="1.0" encoding="utf-8"?>
<!-- Generator: Adobe Illustrator 14.0.0, SVG Export Plug-In . SVG Version: 6.00 Build 43363)  -->
<!DOCTYPE svg PUBLIC "-//W3C//DTD SVG 1.1//EN" "http://www.w3.org/Graphics/SVG/1.1/DTD/svg11.dtd">
<svg version="1.1" id="图层_1" xmlns="http://www.w3.org/2000/svg" xmlns:xlink="http://www.w3.org/1999/xlink" x="0px" y="0px"
	 width="64px" height="64px" viewBox="0 0 64 64" enable-background="new 0 0 64 64" xml:space="preserve">
<g id="Blue">
	<rect x="17.833" y="39.424" fill="none" stroke="#0000FF" stroke-width="2" width="22.125" height="22.243"/>
	<line fill="none" stroke="#0000FF" stroke-width="2" x1="23.102" y1="38.02" x2="18.653" y2="26.705"/>
	<line fill="none" stroke="#0000FF" stroke-width="2" x1="18.653" y1="26.705" x2="25.911" y2="26.705"/>
	<line fill="none" stroke="#0000FF" stroke-width="2" x1="25.911" y1="26.705" x2="21.346" y2="16.666"/>
	<line fill="none" stroke="#0000FF" stroke-width="2" x1="35.51" y1="38.02" x2="39.958" y2="26.705"/>
	<line fill="none" stroke="#0000FF" stroke-width="2" x1="39.958" y1="26.705" x2="32.7" y2="26.705"/>
	<line fill="none" stroke="#0000FF" stroke-width="2" x1="32.7" y1="26.705" x2="37.266" y2="16.666"/>
	<line fill="none" stroke="#0000FF" stroke-width="2" x1="28.896" y1="39.424" x2="28.896" y2="3.667"/>
	<line fill="none" stroke="#0000FF" stroke-width="2" x1="22.282" y1="3.667" x2="34.788" y2="3.667"/>
</g>
<g id="Red">
	<rect x="17.833" y="39.424" fill="none" stroke="#FF0000" stroke-width="2" width="22.125" height="22.243"/>
	<line fill="none" stroke="#FF0000" stroke-width="2" x1="23.102" y1="38.02" x2="18.653" y2="26.705"/>
	<line fill="none" stroke="#FF0000" stroke-width="2" x1="18.653" y1="26.705" x2="25.911" y2="26.705"/>
	<line fill="none" stroke="#FF0000" stroke-width="2" x1="25.911" y1="26.705" x2="21.346" y2="16.666"/>
	<line fill="none" stroke="#FF0000" stroke-width="2" x1="35.51" y1="38.02" x2="39.958" y2="26.705"/>
	<line fill="none" stroke="#FF0000" stroke-width="2" x1="39.958" y1="26.705" x2="32.7" y2="26.705"/>
	<line fill="none" stroke="#FF0000" stroke-width="2" x1="32.7" y1="26.705" x2="37.266" y2="16.666"/>
	<line fill="none" stroke="#FF0000" stroke-width="2" x1="28.896" y1="39.424" x2="28.896" y2="3.667"/>
	<line fill="none" stroke="#FF0000" stroke-width="2" x1="22.282" y1="3.667" x2="34.788" y2="3.667"/>
</g>
<g id="White">
	<rect x="17.833" y="39.424" fill="none" stroke="#00FF00" stroke-width="2" width="22.125" height="22.243"/>
	<line fill="none" stroke="#00FF00" stroke-width="2" x1="23.102" y1="38.02" x2="18.653" y2="26.705"/>
	<line fill="none" stroke="#00FF00" stroke-width="2" x1="18.653" y1="26.705" x2="25.911" y2="26.705"/>
	<line fill="none" stroke="#00FF00" stroke-width="2" x1="25.911" y1="26.705" x2="21.346" y2="16.666"/>
	<line fill="none" stroke="#00FF00" stroke-width="2" x1="35.51" y1="38.02" x2="39.958" y2="26.705"/>
	<line fill="none" stroke="#00FF00" stroke-width="2" x1="39.958" y1="26.705" x2="32.7" y2="26.705"/>
	<line fill="none" stroke="#00FF00" stroke-width="2" x1="32.7" y1="26.705" x2="37.266" y2="16.666"/>
	<line fill="none" stroke="#00FF00" stroke-width="2" x1="28.896" y1="39.424" x2="28.896" y2="3.667"/>
	<line fill="none" stroke="#00FF00" stroke-width="2" x1="22.282" y1="3.667" x2="34.788" y2="3.667"/>
</g>
</svg>
