<?xml version="1.0" encoding="utf-8"?>
<!-- Generator: Adobe Illustrator 14.0.0, SVG Export Plug-In . SVG Version: 6.00 Build 43363)  -->
<!DOCTYPE svg PUBLIC "-//W3C//DTD SVG 1.1//EN" "http://www.w3.org/Graphics/SVG/1.1/DTD/svg11.dtd">
<svg version="1.1" id="图层_1" xmlns="http://www.w3.org/2000/svg" xmlns:xlink="http://www.w3.org/1999/xlink" x="0px" y="0px"
	 width="64px" height="64px" viewBox="0 0 64 64" enable-background="new 0 0 64 64" xml:space="preserve">
<g id="Blue">
	<line fill="none" stroke="#0000FF" stroke-width="2" x1="55.709" y1="7.816" x2="53.503" y2="17.695"/>
	<line fill="none" stroke="#0000FF" stroke-width="2" x1="50.54" y1="7.816" x2="48.184" y2="17.695"/>
	<line fill="none" stroke="#0000FF" stroke-width="2" x1="15.557" y1="7.816" x2="13.809" y2="17.695"/>
	<line fill="none" stroke="#0000FF" stroke-width="2" x1="10.238" y1="7.816" x2="7.882" y2="17.695"/>
	<line fill="none" stroke="#0000FF" stroke-width="2" x1="9.061" y1="12.755" x2="54.605" y2="12.755"/>
	<line fill="none" stroke="#0000FF" stroke-width="2" x1="31.592" y1="12.755" x2="31.592" y2="46.193"/>
	<rect x="23.195" y="46.193" fill="none" stroke="#0000FF" stroke-width="2" width="16.795" height="16.871"/>
	<line fill="none" stroke="#000000" stroke-width="2" x1="24.755" y1="8.361" x2="33.521" y2="2.41"/>
	<line fill="none" stroke="#000000" stroke-width="2" x1="33.521" y1="2.41" x2="33.521" y2="8.361"/>
	<line fill="none" stroke="#000000" stroke-width="2" x1="33.521" y1="8.361" x2="45.258" y2="2.41"/>
	<line fill="none" stroke="#0000FF" stroke-width="2" x1="45.389" y1="2.083" x2="33.618" y2="8.166"/>
	<line fill="none" stroke="#0000FF" stroke-width="2" x1="33.618" y1="8.166" x2="33.618" y2="2.083"/>
	<line fill="none" stroke="#0000FF" stroke-width="2" x1="33.618" y1="2.083" x2="24.591" y2="8.166"/>
	<polygon fill="#000100" points="25.147,6.006 24.591,8.166 26.979,8.166 21.141,10.574 	"/>
</g>
<g id="Red">
	<line fill="none" stroke="#FF0000" stroke-width="2" x1="55.709" y1="7.816" x2="53.503" y2="17.695"/>
	<line fill="none" stroke="#FF0000" stroke-width="2" x1="50.54" y1="7.816" x2="48.184" y2="17.695"/>
	<line fill="none" stroke="#FF0000" stroke-width="2" x1="15.557" y1="7.816" x2="13.809" y2="17.695"/>
	<line fill="none" stroke="#FF0000" stroke-width="2" x1="10.238" y1="7.816" x2="7.882" y2="17.695"/>
	<line fill="none" stroke="#FF0000" stroke-width="2" x1="9.061" y1="12.755" x2="54.605" y2="12.755"/>
	<line fill="none" stroke="#FF0000" stroke-width="2" x1="31.592" y1="12.755" x2="31.592" y2="46.193"/>
	<rect x="23.195" y="46.193" fill="none" stroke="#FF0000" stroke-width="2" width="16.795" height="16.871"/>
	<line fill="none" stroke="#000000" stroke-width="2" x1="24.755" y1="8.361" x2="33.521" y2="2.41"/>
	<line fill="none" stroke="#000000" stroke-width="2" x1="33.521" y1="2.41" x2="33.521" y2="8.361"/>
	<line fill="none" stroke="#000000" stroke-width="2" x1="33.521" y1="8.361" x2="45.258" y2="2.41"/>
	<line fill="none" stroke="#FF0000" stroke-width="2" x1="45.389" y1="2.083" x2="33.618" y2="8.166"/>
	<line fill="none" stroke="#FF0000" stroke-width="2" x1="33.618" y1="8.166" x2="33.618" y2="2.083"/>
	<line fill="none" stroke="#FF0000" stroke-width="2" x1="33.618" y1="2.083" x2="24.591" y2="8.166"/>
	<polygon fill="#000100" points="25.147,6.006 24.591,8.166 26.979,8.166 21.141,10.574 	"/>
</g>
<g id="White">
	<line fill="none" stroke="#00FF00" stroke-width="2" x1="55.709" y1="7.816" x2="53.503" y2="17.695"/>
	<line fill="none" stroke="#00FF00" stroke-width="2" x1="50.54" y1="7.816" x2="48.184" y2="17.695"/>
	<line fill="none" stroke="#00FF00" stroke-width="2" x1="15.557" y1="7.816" x2="13.809" y2="17.695"/>
	<line fill="none" stroke="#00FF00" stroke-width="2" x1="10.238" y1="7.816" x2="7.882" y2="17.695"/>
	<line fill="none" stroke="#00FF00" stroke-width="2" x1="9.061" y1="12.755" x2="54.605" y2="12.755"/>
	<line fill="none" stroke="#00FF00" stroke-width="2" x1="31.592" y1="12.755" x2="31.592" y2="46.193"/>
	<rect x="23.195" y="46.193" fill="none" stroke="#00FF00" stroke-width="2" width="16.795" height="16.871"/>
	<line fill="none" stroke="#000000" stroke-width="2" x1="24.755" y1="8.361" x2="33.521" y2="2.41"/>
	<line fill="none" stroke="#000000" stroke-width="2" x1="33.521" y1="2.41" x2="33.521" y2="8.361"/>
	<line fill="none" stroke="#000000" stroke-width="2" x1="33.521" y1="8.361" x2="45.258" y2="2.41"/>
	<line fill="none" stroke="#00FF00" stroke-width="2" x1="45.389" y1="2.083" x2="33.618" y2="8.166"/>
	<line fill="none" stroke="#00FF00" stroke-width="2" x1="33.618" y1="8.166" x2="33.618" y2="2.083"/>
	<line fill="none" stroke="#00FF00" stroke-width="2" x1="33.618" y1="2.083" x2="24.591" y2="8.166"/>
	<polygon fill="#000100" points="25.147,6.006 24.591,8.166 26.979,8.166 21.141,10.574 	"/>
</g>
</svg>
