<?xml version="1.0" encoding="utf-8"?>
<!-- Generator: Adobe Illustrator 14.0.0, SVG Export Plug-In . SVG Version: 6.00 Build 43363)  -->
<!DOCTYPE svg PUBLIC "-//W3C//DTD SVG 1.1//EN" "http://www.w3.org/Graphics/SVG/1.1/DTD/svg11.dtd">
<svg version="1.1" id="图层_1" xmlns="http://www.w3.org/2000/svg" xmlns:xlink="http://www.w3.org/1999/xlink" x="0px" y="0px"
	 width="64px" height="64px" viewBox="0 0 64 64" enable-background="new 0 0 64 64" xml:space="preserve">
<g id="Blue">
	<rect x="20.833" y="39.424" fill="none" stroke="#0000FF" stroke-width="2" width="22.125" height="22.243"/>
	<line fill="none" stroke="#0000FF" stroke-width="2" x1="31.896" y1="39.424" x2="31.896" y2="1.833"/>
	<line fill="none" stroke="#0000FF" stroke-width="2" x1="25.282" y1="1.833" x2="37.788" y2="1.833"/>
	<line fill="none" stroke="#0000FF" stroke-width="2" x1="10.562" y1="15.165" x2="53.229" y2="15.165"/>
	<line fill="none" stroke="#0000FF" stroke-width="2" x1="11.5" y1="10.167" x2="9.667" y2="19.167"/>
	<line fill="none" stroke="#0000FF" stroke-width="2" x1="15.5" y1="10.167" x2="13.667" y2="19.167"/>
	<line fill="none" stroke="#0000FF" stroke-width="2" x1="54.251" y1="10.146" x2="52.417" y2="19.146"/>
	<line fill="none" stroke="#0000FF" stroke-width="2" x1="50.251" y1="10.146" x2="48.417" y2="19.146"/>
</g>
<g id="Red">
	<rect x="20.833" y="39.424" fill="none" stroke="#FF0000" stroke-width="2" width="22.125" height="22.243"/>
	<line fill="none" stroke="#FF0000" stroke-width="2" x1="31.896" y1="39.424" x2="31.896" y2="1.833"/>
	<line fill="none" stroke="#FF0000" stroke-width="2" x1="25.282" y1="1.833" x2="37.788" y2="1.833"/>
	<line fill="none" stroke="#FF0000" stroke-width="2" x1="10.562" y1="15.165" x2="53.229" y2="15.165"/>
	<line fill="none" stroke="#FF0000" stroke-width="2" x1="11.5" y1="10.167" x2="9.667" y2="19.167"/>
	<line fill="none" stroke="#FF0000" stroke-width="2" x1="15.5" y1="10.167" x2="13.667" y2="19.167"/>
	<line fill="none" stroke="#FF0000" stroke-width="2" x1="54.251" y1="10.146" x2="52.417" y2="19.146"/>
	<line fill="none" stroke="#FF0000" stroke-width="2" x1="50.251" y1="10.146" x2="48.417" y2="19.146"/>
</g>
<g id="White">
	<rect x="20.833" y="39.424" fill="none" stroke="#00FF00" stroke-width="2" width="22.125" height="22.243"/>
	<line fill="none" stroke="#00FF00" stroke-width="2" x1="31.896" y1="39.424" x2="31.896" y2="1.833"/>
	<line fill="none" stroke="#00FF00" stroke-width="2" x1="25.282" y1="1.833" x2="37.788" y2="1.833"/>
	<line fill="none" stroke="#00FF00" stroke-width="2" x1="10.562" y1="15.165" x2="53.229" y2="15.165"/>
	<line fill="none" stroke="#00FF00" stroke-width="2" x1="11.5" y1="10.167" x2="9.667" y2="19.167"/>
	<line fill="none" stroke="#00FF00" stroke-width="2" x1="15.5" y1="10.167" x2="13.667" y2="19.167"/>
	<line fill="none" stroke="#00FF00" stroke-width="2" x1="54.251" y1="10.146" x2="52.417" y2="19.146"/>
	<line fill="none" stroke="#00FF00" stroke-width="2" x1="50.251" y1="10.146" x2="48.417" y2="19.146"/>
</g>
</svg>
