<?xml version="1.0" encoding="utf-8"?>
<!-- Generator: Adobe Illustrator 14.0.0, SVG Export Plug-In . SVG Version: 6.00 Build 43363)  -->
<!DOCTYPE svg PUBLIC "-//W3C//DTD SVG 1.1//EN" "http://www.w3.org/Graphics/SVG/1.1/DTD/svg11.dtd">
<svg version="1.1" id="图层_1" xmlns="http://www.w3.org/2000/svg" xmlns:xlink="http://www.w3.org/1999/xlink" x="0px" y="0px"
	 width="64px" height="64px" viewBox="0 0 64 64" enable-background="new 0 0 64 64" xml:space="preserve">
<g id="Blue">
	<line fill="none" stroke="#0000FF" stroke-width="2" x1="1.875" y1="23.875" x2="1.875" y2="38.25"/>
	<line fill="none" stroke="#0000FF" stroke-width="2" x1="1.875" y1="31.063" x2="26.625" y2="31.063"/>
	<line fill="none" stroke="#0000FF" stroke-width="2" x1="36.25" y1="31.063" x2="61.375" y2="31.063"/>
	<line fill="none" stroke="#0000FF" stroke-width="2" x1="61.375" y1="23.875" x2="61.375" y2="38.25"/>
	<text transform="matrix(1 0 0 1 27.625 34.125)" font-family="'SimSun'" font-size="8">冲</text>
</g>
<g id="Red">
	<line fill="none" stroke="#FF0000" stroke-width="2" x1="1.875" y1="23.875" x2="1.875" y2="38.25"/>
	<line fill="none" stroke="#FF0000" stroke-width="2" x1="1.875" y1="31.063" x2="26.625" y2="31.063"/>
	<line fill="none" stroke="#FF0000" stroke-width="2" x1="36.25" y1="31.063" x2="61.375" y2="31.063"/>
	<line fill="none" stroke="#FF0000" stroke-width="2" x1="61.375" y1="23.875" x2="61.375" y2="38.25"/>
	<text transform="matrix(1 0 0 1 27.625 34.125)" font-family="'SimSun'" font-size="8">冲</text>
</g>
<g id="White">
	<line fill="none" stroke="#00FF00" stroke-width="2" x1="1.875" y1="23.875" x2="1.875" y2="38.25"/>
	<line fill="none" stroke="#00FF00" stroke-width="2" x1="1.875" y1="31.063" x2="26.625" y2="31.063"/>
	<line fill="none" stroke="#00FF00" stroke-width="2" x1="36.25" y1="31.063" x2="61.375" y2="31.063"/>
	<line fill="none" stroke="#00FF00" stroke-width="2" x1="61.375" y1="23.875" x2="61.375" y2="38.25"/>
	<text transform="matrix(1 0 0 1 27.625 34.125)" font-family="'SimSun'" font-size="8">冲</text>
</g>
</svg>
