<?xml version="1.0" encoding="utf-8"?>
<!-- Generator: Adobe Illustrator 14.0.0, SVG Export Plug-In . SVG Version: 6.00 Build 43363)  -->
<!DOCTYPE svg PUBLIC "-//W3C//DTD SVG 1.1//EN" "http://www.w3.org/Graphics/SVG/1.1/DTD/svg11.dtd">
<svg version="1.1" id="图层_1" xmlns="http://www.w3.org/2000/svg" xmlns:xlink="http://www.w3.org/1999/xlink" x="0px" y="0px"
	 width="64px" height="64px" viewBox="0 0 64 64" enable-background="new 0 0 64 64" xml:space="preserve">
<g id="Blue">
	<circle fill="none" stroke="#0000FF" stroke-width="2" cx="28.625" cy="29.25" r="27.125"/>
	<line fill="none" stroke="#0000FF" stroke-width="2" x1="28.792" y1="9.507" x2="10.784" y2="39.261"/>
	<line fill="none" stroke="#0000FF" stroke-width="2" x1="10.784" y1="39.261" x2="46.577" y2="39.261"/>
	<line fill="none" stroke="#0000FF" stroke-width="2" x1="46.577" y1="39.261" x2="28.792" y2="9.507"/>
	<text transform="matrix(1 0 0 1 47.1094 60.5)" font-family="'ArialMT'" font-size="11">HX</text>
</g>
<g id="Red">
	<circle fill="none" stroke="#FF0000" stroke-width="2" cx="28.625" cy="29.25" r="27.125"/>
	<line fill="none" stroke="#FF0000" stroke-width="2" x1="28.792" y1="9.507" x2="10.784" y2="39.261"/>
	<line fill="none" stroke="#FF0000" stroke-width="2" x1="10.784" y1="39.261" x2="46.577" y2="39.261"/>
	<line fill="none" stroke="#FF0000" stroke-width="2" x1="46.577" y1="39.261" x2="28.792" y2="9.507"/>
	<text transform="matrix(1 0 0 1 47.1094 60.5)" font-family="'ArialMT'" font-size="11">HX</text>
</g>
<g id="White">
	<circle fill="none" stroke="#00FF00" stroke-width="2" cx="28.625" cy="29.25" r="27.125"/>
	<line fill="none" stroke="#00FF00" stroke-width="2" x1="28.792" y1="9.507" x2="10.784" y2="39.261"/>
	<line fill="none" stroke="#00FF00" stroke-width="2" x1="10.784" y1="39.261" x2="46.577" y2="39.261"/>
	<line fill="none" stroke="#00FF00" stroke-width="2" x1="46.577" y1="39.261" x2="28.792" y2="9.507"/>
	<text transform="matrix(1 0 0 1 47.1094 60.5)" font-family="'ArialMT'" font-size="11">HX</text>
</g>
</svg>
