<?xml version="1.0" encoding="utf-8"?>
<!-- Generator: Adobe Illustrator 14.0.0, SVG Export Plug-In . SVG Version: 6.00 Build 43363)  -->
<!DOCTYPE svg PUBLIC "-//W3C//DTD SVG 1.1//EN" "http://www.w3.org/Graphics/SVG/1.1/DTD/svg11.dtd">
<svg version="1.1" id="图层_1" xmlns="http://www.w3.org/2000/svg" xmlns:xlink="http://www.w3.org/1999/xlink" x="0px" y="0px"
	 width="64px" height="64px" viewBox="0 0 64 64" enable-background="new 0 0 64 64" xml:space="preserve">
<g id="Blue">
	<circle fill="none" stroke="#0000FF" stroke-width="2" cx="23.859" cy="32.828" r="7.422"/>
	<circle fill="none" stroke="#FFFF00" cx="23.859" cy="32.828" r="7.051"/>
	<line fill="none" stroke="#0000FF" stroke-width="2" x1="2.438" y1="18.031" x2="10.25" y2="18.031"/>
	<line fill="none" stroke="#FFFF00" x1="2.438" y1="17.688" x2="10.25" y2="17.688"/>
	<line fill="none" stroke="#0000FF" stroke-width="2" x1="6.344" y1="18.031" x2="6.344" y2="46.313"/>
	<line fill="none" stroke="#FFFF00" x1="5.5" y1="18.031" x2="5.5" y2="46.313"/>
	<line fill="none" stroke="#0000FF" stroke-width="2" x1="2.438" y1="46.313" x2="10.25" y2="46.313"/>
	<line fill="none" stroke="#0000FF" stroke-width="2" x1="0" y1="32.172" x2="13.125" y2="32.172"/>
	<line fill="none" stroke="#0000FF" stroke-width="2" x1="23.859" y1="25.406" x2="42.438" y2="25.406"/>
	<line fill="none" stroke="#0000FF" stroke-width="2" x1="23.859" y1="40.25" x2="42.438" y2="40.25"/>
	<line fill="none" stroke="#0000FF" stroke-width="2" x1="31.281" y1="32.828" x2="46.813" y2="32.828"/>
	<line fill="none" stroke="#0000FF" stroke-width="2" x1="53.438" y1="18" x2="60.75" y2="18"/>
	<line fill="none" stroke="#0000FF" stroke-width="2" x1="57.094" y1="18" x2="57.094" y2="46.25"/>
	<line fill="none" stroke="#FFFF00" x1="56.5" y1="18" x2="56.5" y2="46.25"/>
	<line fill="none" stroke="#0000FF" stroke-width="2" x1="53.438" y1="46.25" x2="60.75" y2="46.25"/>
	<line fill="none" stroke="#0000FF" stroke-width="2" x1="50.625" y1="32.125" x2="63.625" y2="32.125"/>
</g>
<g id="Red">
	<circle fill="none" stroke="#FF0000" stroke-width="2" cx="23.859" cy="32.828" r="7.422"/>
	<circle fill="none" stroke="#FFFF00" cx="23.859" cy="32.828" r="7.051"/>
	<line fill="none" stroke="#FF0000" stroke-width="2" x1="2.438" y1="18.031" x2="10.25" y2="18.031"/>
	<line fill="none" stroke="#FFFF00" x1="2.438" y1="17.688" x2="10.25" y2="17.688"/>
	<line fill="none" stroke="#FF0000" stroke-width="2" x1="6.344" y1="18.031" x2="6.344" y2="46.313"/>
	<line fill="none" stroke="#FFFF00" x1="5.5" y1="18.031" x2="5.5" y2="46.313"/>
	<line fill="none" stroke="#FF0000" stroke-width="2" x1="2.438" y1="46.313" x2="10.25" y2="46.313"/>
	<line fill="none" stroke="#FF0000" stroke-width="2" x1="0" y1="32.172" x2="13.125" y2="32.172"/>
	<line fill="none" stroke="#FF0000" stroke-width="2" x1="23.859" y1="25.406" x2="42.438" y2="25.406"/>
	<line fill="none" stroke="#FF0000" stroke-width="2" x1="23.859" y1="40.25" x2="42.438" y2="40.25"/>
	<line fill="none" stroke="#FF0000" stroke-width="2" x1="31.281" y1="32.828" x2="46.813" y2="32.828"/>
	<line fill="none" stroke="#FF0000" stroke-width="2" x1="53.438" y1="18" x2="60.75" y2="18"/>
	<line fill="none" stroke="#FF0000" stroke-width="2" x1="57.094" y1="18" x2="57.094" y2="46.25"/>
	<line fill="none" stroke="#FFFF00" x1="56.5" y1="18" x2="56.5" y2="46.25"/>
	<line fill="none" stroke="#FF0000" stroke-width="2" x1="53.438" y1="46.25" x2="60.75" y2="46.25"/>
	<line fill="none" stroke="#FF0000" stroke-width="2" x1="50.625" y1="32.125" x2="63.625" y2="32.125"/>
</g>
<g id="White">
	<circle fill="none" stroke="#00FF00" stroke-width="2" cx="23.859" cy="32.828" r="7.422"/>
	<circle fill="none" stroke="#FFFF00" cx="23.859" cy="32.828" r="7.051"/>
	<line fill="none" stroke="#00FF00" stroke-width="2" x1="2.438" y1="18.031" x2="10.25" y2="18.031"/>
	<line fill="none" stroke="#FFFF00" x1="2.438" y1="17.688" x2="10.25" y2="17.688"/>
	<line fill="none" stroke="#00FF00" stroke-width="2" x1="6.344" y1="18.031" x2="6.344" y2="46.313"/>
	<line fill="none" stroke="#FFFF00" x1="5.5" y1="18.031" x2="5.5" y2="46.313"/>
	<line fill="none" stroke="#00FF00" stroke-width="2" x1="2.438" y1="46.313" x2="10.25" y2="46.313"/>
	<line fill="none" stroke="#00FF00" stroke-width="2" x1="0" y1="32.172" x2="13.125" y2="32.172"/>
	<line fill="none" stroke="#00FF00" stroke-width="2" x1="23.859" y1="25.406" x2="42.438" y2="25.406"/>
	<line fill="none" stroke="#00FF00" stroke-width="2" x1="23.859" y1="40.25" x2="42.438" y2="40.25"/>
	<line fill="none" stroke="#00FF00" stroke-width="2" x1="31.281" y1="32.828" x2="46.813" y2="32.828"/>
	<line fill="none" stroke="#00FF00" stroke-width="2" x1="53.438" y1="18" x2="60.75" y2="18"/>
	<line fill="none" stroke="#00FF00" stroke-width="2" x1="57.094" y1="18" x2="57.094" y2="46.25"/>
	<line fill="none" stroke="#FFFF00" x1="56.5" y1="18" x2="56.5" y2="46.25"/>
	<line fill="none" stroke="#00FF00" stroke-width="2" x1="53.438" y1="46.25" x2="60.75" y2="46.25"/>
	<line fill="none" stroke="#00FF00" stroke-width="2" x1="50.625" y1="32.125" x2="63.625" y2="32.125"/>
</g>
</svg>
