<?xml version="1.0" encoding="utf-8"?>
<!-- Generator: Adobe Illustrator 14.0.0, SVG Export Plug-In . SVG Version: 6.00 Build 43363)  -->
<!DOCTYPE svg PUBLIC "-//W3C//DTD SVG 1.1//EN" "http://www.w3.org/Graphics/SVG/1.1/DTD/svg11.dtd">
<svg version="1.1" id="图层_1" xmlns="http://www.w3.org/2000/svg" xmlns:xlink="http://www.w3.org/1999/xlink" x="0px" y="0px"
	 width="64px" height="64px" viewBox="0 0 64 64" enable-background="new 0 0 64 64" xml:space="preserve">
<g id="Blue">
	<circle fill="none" stroke="#0000FF" stroke-width="2" cx="32.5" cy="36.069" r="23.667"/>
	<line fill="none" stroke="#0000FF" stroke-width="2" x1="48.964" y1="19.076" x2="32.766" y2="35.139"/>
	<line fill="none" stroke="#0000FF" stroke-width="2" x1="32.766" y1="35.139" x2="16.51" y2="18.624"/>
	<path fill="none" stroke="#0000FF" stroke-width="2" d="M2.167,37.834C2.167,37.834,3.333,6,32.5,6c0,0,28-2.499,30,31.834"/>
</g>
<g id="Red">
	<circle fill="none" stroke="#FF0000" stroke-width="2" cx="32.5" cy="36.069" r="23.667"/>
	<line fill="none" stroke="#FF0000" stroke-width="2" x1="48.964" y1="19.076" x2="32.766" y2="35.139"/>
	<line fill="none" stroke="#FF0000" stroke-width="2" x1="32.766" y1="35.139" x2="16.51" y2="18.624"/>
	<path fill="none" stroke="#FF0000" stroke-width="2" d="M2.167,37.834C2.167,37.834,3.333,6,32.5,6c0,0,28-2.499,30,31.834"/>
</g>
<g id="White">
	<circle fill="none" stroke="#00FF00" stroke-width="2" cx="32.5" cy="36.069" r="23.667"/>
	<line fill="none" stroke="#00FF00" stroke-width="2" x1="48.964" y1="19.076" x2="32.766" y2="35.139"/>
	<line fill="none" stroke="#00FF00" stroke-width="2" x1="32.766" y1="35.139" x2="16.51" y2="18.624"/>
	<path fill="none" stroke="#00FF00" stroke-width="2" d="M2.167,37.834C2.167,37.834,3.333,6,32.5,6c0,0,28-2.499,30,31.834"/>
</g>
</svg>
