<?xml version="1.0" encoding="utf-8"?>
<!-- Generator: Adobe Illustrator 14.0.0, SVG Export Plug-In . SVG Version: 6.00 Build 43363)  -->
<!DOCTYPE svg PUBLIC "-//W3C//DTD SVG 1.1//EN" "http://www.w3.org/Graphics/SVG/1.1/DTD/svg11.dtd">
<svg version="1.1" id="图层_1" xmlns="http://www.w3.org/2000/svg" xmlns:xlink="http://www.w3.org/1999/xlink" x="0px" y="0px"
	 width="64px" height="64px" viewBox="0 0 64 64" enable-background="new 0 0 64 64" xml:space="preserve">
<g id="Blue">
	<rect x="1.917" y="17.583" fill="none" stroke="#0000FF" stroke-width="2" width="60.333" height="30.583"/>
	<path fill="none" stroke="#FFFF00" d="M9.594,33.938c0,0-2.333,0.667-2.417,3.5c0,0-0.375,2.917,2.417,3.417"/>
	<line fill="none" stroke="#FFFF00" x1="9.594" y1="33.938" x2="24.76" y2="33.938"/>
	<line fill="none" stroke="#FFFF00" x1="9.594" y1="40.854" x2="15.885" y2="40.854"/>
	<path fill="none" stroke="#FFFF00" d="M55.022,33.927c0,0,2.333-0.667,2.416-3.5c0,0,0.375-2.917-2.416-3.417"/>
	<line fill="none" stroke="#FFFF00" x1="55.022" y1="33.927" x2="39.856" y2="33.927"/>
	<line fill="none" stroke="#FFFF00" x1="55.022" y1="27.01" x2="48.731" y2="27.01"/>
	<line fill="none" stroke="#FFFF00" x1="36.52" y1="25.819" x2="27.769" y2="30.236"/>
	<line fill="none" stroke="#FFFF00" x1="32.047" y1="28.125" x2="32.047" y2="38.479"/>
	<path fill="none" stroke="#0000FF" d="M9.375,33.792c0,0-2.333,0.667-2.417,3.5c0,0-0.375,2.917,2.417,3.417"/>
	<line fill="none" stroke="#0000FF" x1="9.375" y1="33.792" x2="24.542" y2="33.792"/>
	<line fill="none" stroke="#0000FF" x1="9.375" y1="40.709" x2="15.667" y2="40.709"/>
	<path fill="none" stroke="#0000FF" d="M54.734,33.792c0,0,2.333-0.667,2.416-3.5c0,0,0.375-2.917-2.416-3.417"/>
	<line fill="none" stroke="#0000FF" x1="54.734" y1="33.792" x2="39.568" y2="33.792"/>
	<line fill="none" stroke="#0000FF" x1="54.734" y1="26.875" x2="48.443" y2="26.875"/>
	<line fill="none" stroke="#0000FF" x1="36.584" y1="25.917" x2="27.833" y2="30.333"/>
	<line fill="none" stroke="#0000FF" x1="27.833" y1="25.917" x2="36.584" y2="30.333"/>
	<line fill="none" stroke="#0000FF" x1="32.209" y1="28.125" x2="32.209" y2="38.479"/>
</g>
<g id="Red">
	<rect x="1.917" y="17.583" fill="none" stroke="#FF0000" stroke-width="2" width="60.333" height="30.583"/>
	<path fill="none" stroke="#FFFF00" d="M9.594,33.938c0,0-2.333,0.667-2.417,3.5c0,0-0.375,2.917,2.417,3.417"/>
	<line fill="none" stroke="#FFFF00" x1="9.594" y1="33.938" x2="24.76" y2="33.938"/>
	<line fill="none" stroke="#FFFF00" x1="9.594" y1="40.854" x2="15.885" y2="40.854"/>
	<path fill="none" stroke="#FFFF00" d="M55.022,33.927c0,0,2.333-0.667,2.416-3.5c0,0,0.375-2.917-2.416-3.417"/>
	<line fill="none" stroke="#FFFF00" x1="55.022" y1="33.927" x2="39.856" y2="33.927"/>
	<line fill="none" stroke="#FFFF00" x1="55.022" y1="27.01" x2="48.731" y2="27.01"/>
	<line fill="none" stroke="#FFFF00" x1="36.52" y1="25.819" x2="27.769" y2="30.236"/>
	<line fill="none" stroke="#FFFF00" x1="32.047" y1="28.125" x2="32.047" y2="38.479"/>
	<path fill="none" stroke="#FF0000" d="M9.375,33.792c0,0-2.333,0.667-2.417,3.5c0,0-0.375,2.917,2.417,3.417"/>
	<line fill="none" stroke="#FF0000" x1="9.375" y1="33.792" x2="24.542" y2="33.792"/>
	<line fill="none" stroke="#FF0000" x1="9.375" y1="40.709" x2="15.667" y2="40.709"/>
	<path fill="none" stroke="#FF0000" d="M54.734,33.792c0,0,2.333-0.667,2.416-3.5c0,0,0.375-2.917-2.416-3.417"/>
	<line fill="none" stroke="#FF0000" x1="54.734" y1="33.792" x2="39.568" y2="33.792"/>
	<line fill="none" stroke="#FF0000" x1="54.734" y1="26.875" x2="48.443" y2="26.875"/>
	<line fill="none" stroke="#FF0000" x1="36.584" y1="25.917" x2="27.833" y2="30.333"/>
	<line fill="none" stroke="#FF0000" x1="27.833" y1="25.917" x2="36.584" y2="30.333"/>
	<line fill="none" stroke="#FF0000" x1="32.209" y1="28.125" x2="32.209" y2="38.479"/>
</g>
<g id="White">
	<rect x="1.917" y="17.583" fill="none" stroke="#00FF00" stroke-width="2" width="60.333" height="30.583"/>
	<path fill="none" stroke="#FFFF00" d="M9.594,33.938c0,0-2.333,0.667-2.417,3.5c0,0-0.375,2.917,2.417,3.417"/>
	<line fill="none" stroke="#FFFF00" x1="9.594" y1="33.938" x2="24.76" y2="33.938"/>
	<line fill="none" stroke="#FFFF00" x1="9.594" y1="40.854" x2="15.885" y2="40.854"/>
	<path fill="none" stroke="#FFFF00" d="M55.022,33.927c0,0,2.333-0.667,2.416-3.5c0,0,0.375-2.917-2.416-3.417"/>
	<line fill="none" stroke="#FFFF00" x1="55.022" y1="33.927" x2="39.856" y2="33.927"/>
	<line fill="none" stroke="#FFFF00" x1="55.022" y1="27.01" x2="48.731" y2="27.01"/>
	<line fill="none" stroke="#FFFF00" x1="36.52" y1="25.819" x2="27.769" y2="30.236"/>
	<line fill="none" stroke="#FFFF00" x1="32.047" y1="28.125" x2="32.047" y2="38.479"/>
	<path fill="none" stroke="#00FF00" d="M9.375,33.792c0,0-2.333,0.667-2.417,3.5c0,0-0.375,2.917,2.417,3.417"/>
	<line fill="none" stroke="#00FF00" x1="9.375" y1="33.792" x2="24.542" y2="33.792"/>
	<line fill="none" stroke="#00FF00" x1="9.375" y1="40.709" x2="15.667" y2="40.709"/>
	<path fill="none" stroke="#00FF00" d="M54.734,33.792c0,0,2.333-0.667,2.416-3.5c0,0,0.375-2.917-2.416-3.417"/>
	<line fill="none" stroke="#00FF00" x1="54.734" y1="33.792" x2="39.568" y2="33.792"/>
	<line fill="none" stroke="#00FF00" x1="54.734" y1="26.875" x2="48.443" y2="26.875"/>
	<line fill="none" stroke="#00FF00" x1="36.584" y1="25.917" x2="27.833" y2="30.333"/>
	<line fill="none" stroke="#00FF00" x1="27.833" y1="25.917" x2="36.584" y2="30.333"/>
	<line fill="none" stroke="#00FF00" x1="32.209" y1="28.125" x2="32.209" y2="38.479"/>
</g>
</svg>
