<?xml version="1.0" encoding="utf-8"?>
<!-- Generator: Adobe Illustrator 14.0.0, SVG Export Plug-In . SVG Version: 6.00 Build 43363)  -->
<!DOCTYPE svg PUBLIC "-//W3C//DTD SVG 1.1//EN" "http://www.w3.org/Graphics/SVG/1.1/DTD/svg11.dtd">
<svg version="1.1" id="图层_1" xmlns="http://www.w3.org/2000/svg" xmlns:xlink="http://www.w3.org/1999/xlink" x="0px" y="0px"
	 width="64px" height="64px" viewBox="0 0 64 64" enable-background="new 0 0 64 64" xml:space="preserve">
<g id="Blue">
	<path fill="none" stroke="#0000FF" stroke-width="2" d="M1.333,36.167c0,0,16.167-6.833,30.667-6.833c0,0,20.667,1.167,30.5,6.833"
		/>
	<line fill="none" stroke="#0000FF" stroke-width="2" x1="18.915" y1="30.824" x2="11.75" y2="21.667"/>
	<line fill="none" stroke="#0000FF" stroke-width="2" x1="11.75" y1="21.667" x2="11.75" y2="32.601"/>
	<line fill="none" stroke="#0000FF" stroke-width="2" x1="46.075" y1="31.046" x2="53.333" y2="21.667"/>
	<line fill="none" stroke="#0000FF" stroke-width="2" x1="53.333" y1="21.667" x2="53.333" y2="32.75"/>
</g>
<g id="Red">
	<path fill="none" stroke="#FF0000" stroke-width="2" d="M1.333,36.167c0,0,16.167-6.833,30.667-6.833c0,0,20.667,1.167,30.5,6.833"
		/>
	<line fill="none" stroke="#FF0000" stroke-width="2" x1="18.915" y1="30.824" x2="11.75" y2="21.667"/>
	<line fill="none" stroke="#FF0000" stroke-width="2" x1="11.75" y1="21.667" x2="11.75" y2="32.601"/>
	<line fill="none" stroke="#FF0000" stroke-width="2" x1="46.075" y1="31.046" x2="53.333" y2="21.667"/>
	<line fill="none" stroke="#FF0000" stroke-width="2" x1="53.333" y1="21.667" x2="53.333" y2="32.75"/>
</g>
<g id="White">
	<path fill="none" stroke="#00FF00" stroke-width="2" d="M1.333,36.167c0,0,16.167-6.833,30.667-6.833c0,0,20.667,1.167,30.5,6.833"
		/>
	<line fill="none" stroke="#00FF00" stroke-width="2" x1="18.915" y1="30.824" x2="11.75" y2="21.667"/>
	<line fill="none" stroke="#00FF00" stroke-width="2" x1="11.75" y1="21.667" x2="11.75" y2="32.601"/>
	<line fill="none" stroke="#00FF00" stroke-width="2" x1="46.075" y1="31.046" x2="53.333" y2="21.667"/>
	<line fill="none" stroke="#00FF00" stroke-width="2" x1="53.333" y1="21.667" x2="53.333" y2="32.75"/>
</g>
</svg>
