<?xml version="1.0" encoding="utf-8"?>
<!-- Generator: Adobe Illustrator 14.0.0, SVG Export Plug-In . SVG Version: 6.00 Build 43363)  -->
<!DOCTYPE svg PUBLIC "-//W3C//DTD SVG 1.1//EN" "http://www.w3.org/Graphics/SVG/1.1/DTD/svg11.dtd">
<svg version="1.1" id="图层_1" xmlns="http://www.w3.org/2000/svg" xmlns:xlink="http://www.w3.org/1999/xlink" x="0px" y="0px"
	 width="64px" height="64px" viewBox="0 0 64 64" enable-background="new 0 0 64 64" xml:space="preserve">
<g id="Blue">
	<circle fill="none" stroke="#0000FF" stroke-width="2" cx="31.875" cy="16.875" r="15.125"/>
	<line fill="none" stroke="#0000FF" stroke-width="2" x1="31.875" y1="32" x2="31.875" y2="62.125"/>
	<line fill="none" stroke="#0000FF" stroke-width="2" x1="31.875" y1="62.125" x2="44.25" y2="62.125"/>
	<line fill="none" stroke="#FFFF00" x1="32.125" y1="32" x2="32.125" y2="61.875"/>
	<line fill="none" stroke="#FFFF00" x1="32.125" y1="61.875" x2="44.5" y2="61.875"/>
	<line fill="none" stroke="#0000FF" stroke-width="2" x1="21.829" y1="5.572" x2="31.875" y2="16.875"/>
	<line fill="none" stroke="#0000FF" stroke-width="2" x1="31.875" y1="16.875" x2="41.921" y2="5.572"/>
	<line fill="none" stroke="#FFFF00" x1="21.672" y1="5.688" x2="31.875" y2="17.156"/>
	<line fill="none" stroke="#FFFF00" x1="31.875" y1="17.156" x2="42.072" y2="5.688"/>
</g>
<g id="Red">
	<circle fill="none" stroke="#FF0000" stroke-width="2" cx="31.875" cy="16.875" r="15.125"/>
	<line fill="none" stroke="#FF0000" stroke-width="2" x1="31.875" y1="32" x2="31.875" y2="62.125"/>
	<line fill="none" stroke="#FF0000" stroke-width="2" x1="31.875" y1="62.125" x2="44.25" y2="62.125"/>
	<line fill="none" stroke="#FFFF00" x1="32.125" y1="32" x2="32.125" y2="61.875"/>
	<line fill="none" stroke="#FFFF00" x1="32.125" y1="61.875" x2="44.5" y2="61.875"/>
	<line fill="none" stroke="#FF0000" stroke-width="2" x1="21.829" y1="5.572" x2="31.875" y2="16.875"/>
	<line fill="none" stroke="#FF0000" stroke-width="2" x1="31.875" y1="16.875" x2="41.921" y2="5.572"/>
	<line fill="none" stroke="#FFFF00" x1="21.672" y1="5.688" x2="31.875" y2="17.156"/>
	<line fill="none" stroke="#FFFF00" x1="31.875" y1="17.156" x2="42.072" y2="5.688"/>
</g>
<g id="White">
	<circle fill="none" stroke="#00FF00" stroke-width="2" cx="31.875" cy="16.875" r="15.125"/>
	<line fill="none" stroke="#00FF00" stroke-width="2" x1="31.875" y1="32" x2="31.875" y2="62.125"/>
	<line fill="none" stroke="#00FF00" stroke-width="2" x1="31.875" y1="62.125" x2="44.25" y2="62.125"/>
	<line fill="none" stroke="#FFFF00" x1="32.125" y1="32" x2="32.125" y2="61.875"/>
	<line fill="none" stroke="#FFFF00" x1="32.125" y1="61.875" x2="44.5" y2="61.875"/>
	<line fill="none" stroke="#00FF00" stroke-width="2" x1="21.829" y1="5.572" x2="31.875" y2="16.875"/>
	<line fill="none" stroke="#00FF00" stroke-width="2" x1="31.875" y1="16.875" x2="41.921" y2="5.572"/>
	<line fill="none" stroke="#FFFF00" x1="21.672" y1="5.688" x2="31.875" y2="17.156"/>
	<line fill="none" stroke="#FFFF00" x1="31.875" y1="17.156" x2="42.072" y2="5.688"/>
</g>
</svg>
