<?xml version="1.0" encoding="utf-8"?>
<!-- Generator: Adobe Illustrator 13.0.0, SVG Export Plug-In . SVG Version: 6.00 Build 14948)  -->
<!DOCTYPE svg PUBLIC "-//W3C//DTD SVG 1.1//EN" "http://www.w3.org/Graphics/SVG/1.1/DTD/svg11.dtd">
<svg version="1.1" xmlns="http://www.w3.org/2000/svg" xmlns:xlink="http://www.w3.org/1999/xlink" x="0px" y="0px" width="47.5px"
	 height="35.375px" viewBox="0 0 47.5 35.375" enable-background="new 0 0 47.5 35.375" xml:space="preserve">
<g id="Blue">
	<ellipse fill="none" stroke-width="2" stroke="#0000FF" cx="23.75" cy="17.688" rx="23.25" ry="17.188"/>
	<polygon fill="none" stroke-width="2" stroke="#0000FF" points="5.125,11.375 9.688,26.563 14.75,11.375 	"/>
	<polygon fill="none" stroke-width="2" stroke="#0000FF" points="18.75,11.5 23.313,26.688 28.375,11.5 	"/>
	<polygon fill="none" stroke-width="2" stroke="#0000FF" points="33,11.438 37.563,26.625 42.625,11.438 	"/>
</g>
<g id="Red">
	<ellipse fill="none" stroke-width="2" stroke="#FF0000" cx="23.75" cy="17.688" rx="23.25" ry="17.188"/>
	<polygon fill="none" stroke-width="2" stroke="#FF0000" points="5.125,11.375 9.688,26.563 14.75,11.375 	"/>
	<polygon fill="none" stroke-width="2" stroke="#FF0000" points="18.75,11.5 23.313,26.688 28.375,11.5 	"/>
	<polygon fill="none" stroke-width="2" stroke="#FF0000" points="33,11.438 37.563,26.625 42.625,11.438 	"/>
</g>
<g id="White">
	<ellipse fill="none" stroke-width="2" stroke="#00FF00" cx="23.75" cy="17.688" rx="23.25" ry="17.188"/>
	<polygon fill="none" stroke-width="2" stroke="#00FF00" points="5.125,11.375 9.688,26.563 14.75,11.375 	"/>
	<polygon fill="none" stroke-width="2" stroke="#00FF00" points="18.75,11.5 23.313,26.688 28.375,11.5 	"/>
	<polygon fill="none" stroke-width="2" stroke="#00FF00" points="33,11.438 37.563,26.625 42.625,11.438 	"/>
</g>
</svg>
