<?xml version="1.0" encoding="utf-8"?>
<!-- Generator: Adobe Illustrator 14.0.0, SVG Export Plug-In . SVG Version: 6.00 Build 43363)  -->
<!DOCTYPE svg PUBLIC "-//W3C//DTD SVG 1.1//EN" "http://www.w3.org/Graphics/SVG/1.1/DTD/svg11.dtd">
<svg version="1.1" id="图层_1" xmlns="http://www.w3.org/2000/svg" xmlns:xlink="http://www.w3.org/1999/xlink" x="0px" y="0px"
	 width="64px" height="64px" viewBox="0 0 64 64" enable-background="new 0 0 64 64" xml:space="preserve">
<g id="Blue">
	<polygon fill="none" stroke-width="2" stroke="#0000FF" points="38.954,33.896 19.543,44.175 1.403,32.798 19.949,22.498 	"/>
	<line fill="none" stroke-width="2" stroke="#0000FF" x1="38.952" y1="33.992" x2="53.557" y2="33.992"/>
	<path fill="none" stroke-width="2" stroke="#0000FF" d="M62.248,33.921c0,2.521-2.045,4.565-4.564,4.565c-2.521,0-4.566-2.045-4.566-4.565"/>
</g>
<g id="Red">
	<polygon fill="none" stroke-width="2" stroke="#FF0000" points="38.952,33.992 19.487,44.172 1.406,32.7 20.005,22.497 	"/>
	<line fill="none" stroke-width="2" stroke="#FF0000" x1="38.952" y1="33.992" x2="53.557" y2="33.992"/>
	<path fill="none" stroke-width="2" stroke="#FF0000" d="M62.248,33.921c0,2.521-2.045,4.565-4.564,4.565c-2.521,0-4.566-2.045-4.566-4.565"/>
</g>
<g id="White">
	<polygon fill="none" stroke-width="2" stroke="#00FF00" points="38.952,33.992 19.487,44.172 1.406,32.7 20.005,22.497 	"/>
	<line fill="none" stroke-width="2" stroke="#00FF00" x1="38.952" y1="33.992" x2="53.557" y2="33.992"/>
	<path fill="none" stroke-width="2" stroke="#00FF00" d="M62.248,33.921c0,2.521-2.045,4.565-4.564,4.565c-2.521,0-4.566-2.045-4.566-4.565"/>
</g>
</svg>
