<?xml version="1.0" encoding="utf-8"?>
<!-- Generator: Adobe Illustrator 14.0.0, SVG Export Plug-In . SVG Version: 6.00 Build 43363)  -->
<!DOCTYPE svg PUBLIC "-//W3C//DTD SVG 1.1//EN" "http://www.w3.org/Graphics/SVG/1.1/DTD/svg11.dtd">
<svg version="1.1" id="图层_1" xmlns="http://www.w3.org/2000/svg" xmlns:xlink="http://www.w3.org/1999/xlink" x="0px" y="0px"
	 width="64px" height="64px" viewBox="0 0 64 64" enable-background="new 0 0 64 64" xml:space="preserve">
<g id="Blue">
	<path fill="none" stroke-width="2" stroke="#0000FF" d="M63.23,19.301H13.758v0.054C6.532,19.898,0.833,26,0.833,33.466
		c0,7.82,6.255,14.161,13.968,14.161v-0.129h48.432V19.301H63.23z"/>
	<circle fill="none" stroke-width="2" stroke="#0000FF" cx="33.75" cy="33.749" r="6.25"/>
</g>
<g id="Red">
	<path fill="none" stroke-width="2" stroke="#FF0000" d="M63.23,19.301H13.758v0.054C6.532,19.898,0.833,26,0.833,33.466
		c0,7.82,6.255,14.161,13.968,14.161v-0.129h48.432V19.301H63.23z"/>
	<circle fill="none" stroke-width="2" stroke="#FF0000" cx="33.75" cy="33.749" r="6.25"/>
</g>
<g id="White">
	<path fill="none" stroke-width="2" stroke="#00FF00" d="M63.23,19.301H13.758v0.054C6.532,19.898,0.833,26,0.833,33.466
		c0,7.82,6.255,14.161,13.968,14.161v-0.129h48.432V19.301H63.23z"/>
	<circle fill="none" stroke-width="2" stroke="#00FF00" cx="33.75" cy="33.749" r="6.25"/>
</g>
</svg>
