<?xml version="1.0" encoding="utf-8"?>
<!-- Generator: Adobe Illustrator 14.0.0, SVG Export Plug-In . SVG Version: 6.00 Build 43363)  -->
<!DOCTYPE svg PUBLIC "-//W3C//DTD SVG 1.1//EN" "http://www.w3.org/Graphics/SVG/1.1/DTD/svg11.dtd">
<svg version="1.1" id="图层_1" xmlns="http://www.w3.org/2000/svg" xmlns:xlink="http://www.w3.org/1999/xlink" x="0px" y="0px"
	 width="64px" height="64px" viewBox="0 0 64 64" enable-background="new 0 0 64 64" xml:space="preserve">
<g id="Blue">
	<path fill="none" stroke-width="2" stroke="#0000FF" d="M62.5,36.163H13.88v0.053C6.779,36.75,1.178,42.747,1.178,50.083
		C1.178,57.768,7.325,64,14.905,64v-0.126H62.5V36.163z"/>
	<polyline fill="none" stroke-width="2" stroke="#0000FF" points="31.833,1.042 48.167,14.203 31.747,14.203 	"/>
	<line fill="none" stroke-width="2" stroke="#0000FF" x1="31.747" y1="0.577" x2="31.747" y2="35.816"/>
	<circle fill="none" stroke-width="2" stroke="#0000FF" cx="32.125" cy="50.375" r="7.375"/>
</g>
<g id="Red">
	<path fill="none" stroke-width="2" stroke="#FF0000" d="M62.5,36.163H13.88v0.053C6.779,36.75,1.178,42.747,1.178,50.083
		C1.178,57.768,7.325,64,14.905,64v-0.126H62.5V36.163z"/>
	<polyline fill="none" stroke-width="2" stroke="#FF0000" points="31.833,1.042 48.167,14.203 31.747,14.203 	"/>
	<line fill="none" stroke-width="2" stroke="#FF0000" x1="31.747" y1="0.577" x2="31.747" y2="35.816"/>
	<circle fill="none" stroke-width="2" stroke="#FF0000" cx="32.125" cy="50.375" r="7.375"/>
</g>
<g id="White">
	<path fill="none" stroke-width="2" stroke="#00FF00" d="M62.5,36.163H13.88v0.053C6.779,36.75,1.178,42.747,1.178,50.083
		C1.178,57.768,7.325,64,14.905,64v-0.126H62.5V36.163z"/>
	<polyline fill="none" stroke-width="2" stroke="#00FF00" points="31.833,1.042 48.167,14.203 31.747,14.203 	"/>
	<line fill="none" stroke-width="2" stroke="#00FF00" x1="31.747" y1="0.577" x2="31.747" y2="35.816"/>
	<circle fill="none" stroke-width="2" stroke="#00FF00" cx="32.125" cy="50.375" r="7.375"/>
</g>
</svg>
