<?xml version="1.0" encoding="utf-8"?>
<!-- Generator: Adobe Illustrator 14.0.0, SVG Export Plug-In . SVG Version: 6.00 Build 43363)  -->
<!DOCTYPE svg PUBLIC "-//W3C//DTD SVG 1.1//EN" "http://www.w3.org/Graphics/SVG/1.1/DTD/svg11.dtd">
<svg version="1.1" id="图层_1" xmlns="http://www.w3.org/2000/svg" xmlns:xlink="http://www.w3.org/1999/xlink" x="0px" y="0px"
	 width="64px" height="64px" viewBox="0 0 64 64" enable-background="new 0 0 64 64" xml:space="preserve">
<g id="Blue">
	<polygon fill="none" stroke-width="2" stroke="#0000FF" points="62.674,28.91 31.878,46.174 2.289,28.589 31.694,11.324 	"/>
	<path fill="none" stroke-width="2" stroke="#0000FF" d="M23.11,30.492c0,0,3.413-8.268,9.712-2.757c0,0,6.562-5.379,9.187,3.15"/>
</g>
<g id="Red">
	<polygon fill="none" stroke-width="2" stroke="#FF0000" points="62.674,28.91 31.878,46.174 2.289,28.589 31.694,11.324 	"/>
	<path fill="none" stroke-width="2" stroke="#FF0000" d="M23.11,30.492c0,0,3.413-8.268,9.712-2.757c0,0,6.562-5.379,9.187,3.15"/>
</g>
<g id="White">
	<polygon fill="none" stroke-width="2" stroke="#00FF00" points="62.674,28.91 31.878,46.174 2.289,28.589 31.694,11.324 	"/>
	<path fill="none" stroke-width="2" stroke="#00FF00" d="M23.11,30.492c0,0,3.413-8.268,9.712-2.757c0,0,6.562-5.379,9.187,3.15"/>
</g>
</svg>
