<?xml version="1.0" encoding="utf-8"?>
<!-- Generator: Adobe Illustrator 14.0.0, SVG Export Plug-In . SVG Version: 6.00 Build 43363)  -->
<!DOCTYPE svg PUBLIC "-//W3C//DTD SVG 1.1//EN" "http://www.w3.org/Graphics/SVG/1.1/DTD/svg11.dtd">
<svg version="1.1" id="图层_1" xmlns="http://www.w3.org/2000/svg" xmlns:xlink="http://www.w3.org/1999/xlink" x="0px" y="0px"
	 width="64px" height="64px" viewBox="0 0 64 64" enable-background="new 0 0 64 64" xml:space="preserve">
<g id="Blue">
	<path fill="none" stroke-width="2" stroke="#0000FF" d="M39.113,24.944H9.144v0.033c-4.377,0.329-7.83,4.025-7.83,8.548
		c0,4.736,3.789,8.578,8.461,8.578v-0.078h29.338V24.944z"/>
	<line fill="none" stroke-width="2" stroke="#0000FF" x1="39.497" y1="34.07" x2="54.648" y2="34.07"/>
	<path fill="none" stroke-width="2" stroke="#0000FF" d="M63.665,33.998c0,2.613-2.121,4.736-4.735,4.736c-2.615,0-4.736-2.123-4.736-4.736"/>
</g>
<g id="Red">
	<path fill="none" stroke-width="2" stroke="#FF0000" d="M39.113,24.944H9.144v0.033c-4.377,0.329-7.83,4.025-7.83,8.548
		c0,4.736,3.789,8.578,8.461,8.578v-0.078h29.338V24.944z"/>
	<line fill="none" stroke-width="2" stroke="#FF0000" x1="39.497" y1="34.07" x2="54.648" y2="34.07"/>
	<path fill="none" stroke-width="2" stroke="#FF0000" d="M63.665,33.998c0,2.613-2.121,4.736-4.735,4.736c-2.615,0-4.736-2.123-4.736-4.736"/>
</g>
<g id="White">
	<path fill="none" stroke-width="2" stroke="#00FF00" d="M39.113,24.944H9.144v0.033c-4.377,0.329-7.83,4.025-7.83,8.548
		c0,4.736,3.789,8.578,8.461,8.578v-0.078h29.338V24.944z"/>
	<line fill="none" stroke-width="2" stroke="#00FF00" x1="39.497" y1="34.07" x2="54.648" y2="34.07"/>
	<path fill="none" stroke-width="2" stroke="#00FF00" d="M63.665,33.998c0,2.613-2.121,4.736-4.735,4.736c-2.615,0-4.736-2.123-4.736-4.736"/>
</g>
</svg>
