<?xml version="1.0" encoding="utf-8"?>
<!-- Generator: Adobe Illustrator 14.0.0, SVG Export Plug-In . SVG Version: 6.00 Build 43363)  -->
<!DOCTYPE svg PUBLIC "-//W3C//DTD SVG 1.1//EN" "http://www.w3.org/Graphics/SVG/1.1/DTD/svg11.dtd">
<svg version="1.1" id="图层_1" xmlns="http://www.w3.org/2000/svg" xmlns:xlink="http://www.w3.org/1999/xlink" x="0px" y="0px"
	 width="64px" height="64px" viewBox="0 0 64 64" enable-background="new 0 0 64 64" xml:space="preserve">
<g id="Blue">
	<path fill="none" stroke-width="2" stroke="#0000FF" d="M62.5,25.752H13.88v0.053c-7.101,0.534-12.702,6.53-12.702,13.867
		c0,7.686,6.146,13.917,13.727,13.917v-0.126H62.5V25.752z"/>
	<line fill="none" stroke-width="2" stroke="#0000FF" x1="20.5" y1="16.25" x2="30.75" y2="24.75"/>
	<line fill="none" stroke-width="2" stroke="#0000FF" x1="48.5" y1="16.25" x2="38.25" y2="24.75"/>
</g>
<g id="Red">
	<path fill="none" stroke-width="2" stroke="#FF0000" d="M62.5,25.752H13.88v0.053c-7.101,0.534-12.702,6.53-12.702,13.867
		c0,7.686,6.146,13.917,13.727,13.917v-0.126H62.5V25.752z"/>
	<line fill="none" stroke-width="2" stroke="#FF0000" x1="20.5" y1="16.25" x2="30.75" y2="24.75"/>
	<line fill="none" stroke-width="2" stroke="#FF0000" x1="48.5" y1="16.25" x2="38.25" y2="24.75"/>
</g>
<g id="White">
	<path fill="none" stroke-width="2" stroke="#00FF00" d="M62.5,25.752H13.88v0.053c-7.101,0.534-12.702,6.53-12.702,13.867
		c0,7.686,6.146,13.917,13.727,13.917v-0.126H62.5V25.752z"/>
	<line fill="none" stroke-width="2" stroke="#0000FF" x1="20.5" y1="16.25" x2="30.75" y2="24.75"/>
	<line fill="none" stroke-width="2" stroke="#0000FF" x1="48.5" y1="16.25" x2="38.25" y2="24.75"/>
	<line fill="none" stroke-width="2" stroke="#00FF00" x1="20.5" y1="16.25" x2="30.75" y2="24.75"/>
	<line fill="none" stroke-width="2" stroke="#00FF00" x1="48.5" y1="16.25" x2="38.25" y2="24.75"/>
</g>
</svg>
