<?xml version="1.0" encoding="utf-8"?>
<!-- Generator: Adobe Illustrator 14.0.0, SVG Export Plug-In . SVG Version: 6.00 Build 43363)  -->
<!DOCTYPE svg PUBLIC "-//W3C//DTD SVG 1.1//EN" "http://www.w3.org/Graphics/SVG/1.1/DTD/svg11.dtd">
<svg version="1.1" xmlns="http://www.w3.org/2000/svg" xmlns:xlink="http://www.w3.org/1999/xlink" x="0px" y="0px" width="64px"
	 height="64px" viewBox="0 0 64 64" enable-background="new 0 0 64 64" xml:space="preserve">
<g id="Blue">
	<rect x="13.162" y="24.508" display="inline" fill="none" stroke-width="2" stroke="#0000FF" width="33.755" height="16.132"/>
	<line display="inline" fill="none" stroke-width="2" stroke="#0000FF" x1="1.195" y1="27.868" x2="1.195" y2="38.94"/>
	<line display="inline" fill="none" stroke-width="2" stroke="#0000FF" x1="1" y1="38.745" x2="13.146" y2="33.77"/>
	<line display="inline" fill="none" stroke-width="2" stroke="#0000FF" x1="1.049" y1="27.965" x2="13.097" y2="33.574"/>
	<text transform="matrix(1 0 0 1 49.5 44.25)" display="inline" fill="#0000FF" font-family="'YouYuan'" font-size="12">终</text>
</g>
<g id="White">
	<rect x="13.162" y="24.508" display="inline" fill="none" stroke-width="2" stroke="#00FF00" width="33.755" height="16.132"/>
	<line display="inline" fill="none" stroke-width="2" stroke="#00FF00" x1="1.195" y1="27.868" x2="1.195" y2="38.94"/>
	<line display="inline" fill="none" stroke-width="2" stroke="#00FF00" x1="1" y1="38.745" x2="13.146" y2="33.77"/>
	<line display="inline" fill="none" stroke-width="2" stroke="#00FF00" x1="1.049" y1="27.965" x2="13.097" y2="33.574"/>
	<text transform="matrix(1 0 0 1 49.5 44.25)" display="inline" fill="#00FF00" font-family="'YouYuan'" font-size="12">终</text>
</g>
<g id="Red">
	<rect x="13.162" y="24.508" fill="none" stroke-width="2" stroke="#FF0000" width="33.755" height="16.132"/>
	<line fill="none" stroke-width="2" stroke="#FF0000" x1="1.195" y1="27.868" x2="1.195" y2="38.94"/>
	<line fill="none" stroke-width="2" stroke="#FF0000" x1="1" y1="38.745" x2="13.146" y2="33.77"/>
	<line fill="none" stroke-width="2" stroke="#FF0000" x1="1.049" y1="27.965" x2="13.097" y2="33.574"/>
	<text transform="matrix(1 0 0 1 49.5 44.25)" fill="#FF0000" font-family="'YouYuan'" font-size="12">终</text>
</g>
</svg>
