<?xml version="1.0" encoding="utf-8"?>
<!-- Generator: Adobe Illustrator 14.0.0, SVG Export Plug-In . SVG Version: 6.00 Build 43363)  -->
<!DOCTYPE svg PUBLIC "-//W3C//DTD SVG 1.1//EN" "http://www.w3.org/Graphics/SVG/1.1/DTD/svg11.dtd">
<svg version="1.1" xmlns="http://www.w3.org/2000/svg" xmlns:xlink="http://www.w3.org/1999/xlink" x="0px" y="0px" width="64px"
	 height="64px" viewBox="0 0 64 64" enable-background="new 0 0 64 64" xml:space="preserve">
<g id="Blue">
	<polygon fill="none" stroke-width="2" stroke="#0000FF" points="26.334,22.487 3.5,35.625 3.5,49.01 60.75,49.01 60.75,22.487 	"/>
	<line fill="none" stroke-width="2" stroke="#0000FF" x1="44.739" y1="22.164" x2="54.767" y2="13.269"/>
	<line fill="none" stroke-width="2" stroke="#0000FF" x1="38.433" y1="22.164" x2="31.802" y2="11.49"/>
	<line fill="none" stroke-width="2" stroke="#0000FF" x1="28.156" y1="38.469" x2="39.13" y2="31.504"/>
	<line fill="none" stroke-width="2" stroke="#0000FF" x1="38.938" y1="31.656" x2="34.219" y2="41.531"/>
	<line fill="none" stroke-width="2" stroke="#0000FF" x1="33.75" y1="41.708" x2="46.875" y2="36.563"/>
	<polygon fill="#0000FF" points="32.668,38.118 21.923,41.183 31.09,35.076 28.22,38.371 	"/>
</g>
<g id="Red">
	<polygon display="inline" fill="none" stroke-width="2" stroke="#FF0000" points="26.334,22.487 3.5,35.625 3.5,49.01 60.75,49.01 60.75,22.487 	"/>
	<line display="inline" fill="none" stroke-width="2" stroke="#FF0000" x1="44.739" y1="22.164" x2="54.767" y2="13.269"/>
	<line display="inline" fill="none" stroke-width="2" stroke="#FF0000" x1="38.433" y1="22.164" x2="31.802" y2="11.49"/>
	<line display="inline" fill="none" stroke-width="2" stroke="#FF0000" x1="28.156" y1="38.469" x2="39.13" y2="31.504"/>
	<line display="inline" fill="none" stroke-width="2" stroke="#FF0000" x1="38.938" y1="31.656" x2="34.219" y2="41.531"/>
	<line display="inline" fill="none" stroke-width="2" stroke="#FF0000" x1="33.75" y1="41.708" x2="46.875" y2="36.563"/>
	<polygon display="inline" stroke-width="2" stroke="#FF0000" points="32.668,38.118 21.923,41.183 31.09,35.076 28.22,38.371 	"/>
</g>
<g id="White">
	<polygon display="inline" fill="none" stroke-width="2" stroke="#00FF00" points="26.334,22.487 3.5,35.625 3.5,49.01 60.75,49.01 60.75,22.487 	"/>
	<line display="inline" fill="none" stroke-width="2" stroke="#00FF00" x1="44.739" y1="22.164" x2="54.767" y2="13.269"/>
	<line display="inline" fill="none" stroke-width="2" stroke="#00FF00" x1="38.433" y1="22.164" x2="31.802" y2="11.49"/>
	<line display="inline" fill="none" stroke-width="2" stroke="#00FF00" x1="30.156" y1="36.469" x2="41.13" y2="29.504"/>
	<line display="inline" fill="none" stroke-width="2" stroke="#00FF00" x1="40.938" y1="29.656" x2="36.219" y2="39.531"/>
	<line display="inline" fill="none" stroke-width="2" stroke="#00FF00" x1="35.75" y1="39.708" x2="48.875" y2="34.563"/>
	<polygon display="inline" stroke-width="2" stroke="#00FF00" points="34.668,36.118 23.923,39.183 33.09,33.076 30.22,36.371 	"/>
</g>
</svg>
