<?xml version="1.0" encoding="utf-8"?>
<!-- Generator: Adobe Illustrator 14.0.0, SVG Export Plug-In . SVG Version: 6.00 Build 43363)  -->
<!DOCTYPE svg PUBLIC "-//W3C//DTD SVG 1.1//EN" "http://www.w3.org/Graphics/SVG/1.1/DTD/svg11.dtd">
<svg version="1.1" xmlns="http://www.w3.org/2000/svg" xmlns:xlink="http://www.w3.org/1999/xlink" x="0px" y="0px" width="64px"
	 height="64px" viewBox="0 0 64 64" enable-background="new 0 0 64 64" xml:space="preserve">
<g id="Blue">
	<rect x="17.947" y="32.221" fill="none" stroke-width="2" stroke="#0000FF" width="29.779" height="29.779"/>
	<line fill="none" stroke-width="2" stroke="#0000FF" x1="41.907" y1="5.243" x2="33.166" y2="11.875"/>
	<line fill="none" stroke-width="2" stroke="#0000FF" x1="32.75" y1="11.75" x2="24" y2="5.205"/>
	<line fill="none" stroke-width="2" stroke="#0000FF" x1="33" y1="11.375" x2="33" y2="32.25"/>
	<line fill="none" stroke-width="2" stroke="#0000FF" x1="11.667" y1="19.333" x2="54.5" y2="19.333"/>
	<line fill="none" stroke-width="2" stroke="#0000FF" x1="13.167" y1="15.583" x2="10.417" y2="23"/>
	<line fill="none" stroke-width="2" stroke="#0000FF" x1="19.167" y1="15.583" x2="16.417" y2="23"/>
	<line fill="none" stroke-width="2" stroke="#0000FF" x1="49.834" y1="15.583" x2="47.084" y2="23"/>
	<line fill="none" stroke-width="2" stroke="#0000FF" x1="55.834" y1="15.583" x2="53.084" y2="23"/>
</g>
<g id="Red">
	<rect x="17.947" y="32.221" display="inline" fill="none" stroke-width="2" stroke="#FF0000" width="29.779" height="29.779"/>
	<line display="inline" fill="none" stroke-width="2" stroke="#FF0000" x1="41.907" y1="5.243" x2="33.166" y2="11.875"/>
	<line display="inline" fill="none" stroke-width="2" stroke="#FF0000" x1="32.75" y1="11.75" x2="24" y2="5.205"/>
	<line display="inline" fill="none" stroke-width="2" stroke="#FF0000" x1="33" y1="11.375" x2="33" y2="32.25"/>
	<line display="inline" fill="none" stroke-width="2" stroke="#FF0000" x1="11.667" y1="19.333" x2="54.5" y2="19.333"/>
	<line display="inline" fill="none" stroke-width="2" stroke="#FF0000" x1="13.167" y1="15.583" x2="10.417" y2="23"/>
	<line display="inline" fill="none" stroke-width="2" stroke="#FF0000" x1="19.167" y1="15.583" x2="16.417" y2="23"/>
	<line display="inline" fill="none" stroke-width="2" stroke="#FF0000" x1="49.834" y1="15.583" x2="47.084" y2="23"/>
	<line display="inline" fill="none" stroke-width="2" stroke="#FF0000" x1="55.834" y1="15.583" x2="53.084" y2="23"/>
</g>
<g id="White">
	<rect x="17.947" y="32.221" display="inline" fill="none" stroke-width="2" stroke="#00FF00" width="29.779" height="29.779"/>
	<line display="inline" fill="none" stroke-width="2" stroke="#00FF00" x1="41.907" y1="5.243" x2="33.166" y2="11.875"/>
	<line display="inline" fill="none" stroke-width="2" stroke="#00FF00" x1="32.75" y1="11.75" x2="24" y2="5.205"/>
	<line display="inline" fill="none" stroke-width="2" stroke="#00FF00" x1="33" y1="11.375" x2="33" y2="32.25"/>
	<line display="inline" fill="none" stroke-width="2" stroke="#00FF00" x1="11.667" y1="19.333" x2="54.5" y2="19.333"/>
	<line display="inline" fill="none" stroke-width="2" stroke="#00FF00" x1="13.167" y1="15.583" x2="10.417" y2="23"/>
	<line display="inline" fill="none" stroke-width="2" stroke="#00FF00" x1="19.167" y1="15.583" x2="16.417" y2="23"/>
	<line display="inline" fill="none" stroke-width="2" stroke="#00FF00" x1="49.834" y1="15.583" x2="47.084" y2="23"/>
	<line display="inline" fill="none" stroke-width="2" stroke="#00FF00" x1="55.834" y1="15.583" x2="53.084" y2="23"/>
</g>
</svg>
