<?xml version="1.0" encoding="utf-8"?>
<!-- Generator: Adobe Illustrator 14.0.0, SVG Export Plug-In . SVG Version: 6.00 Build 43363)  -->
<!DOCTYPE svg PUBLIC "-//W3C//DTD SVG 1.1//EN" "http://www.w3.org/Graphics/SVG/1.1/DTD/svg11.dtd">
<svg version="1.1" xmlns="http://www.w3.org/2000/svg" xmlns:xlink="http://www.w3.org/1999/xlink" x="0px" y="0px" width="64px"
	 height="64px" viewBox="0 0 64 64" enable-background="new 0 0 64 64" xml:space="preserve">
<g id="Blue">
	<rect x="17.947" y="32.221" fill="none" stroke-width="2" stroke="#0000FF" width="29.779" height="29.779"/>
	<line fill="none" stroke-width="2" stroke="#0000FF" x1="32.875" y1="9.5" x2="32.875" y2="32.5"/>
	<path fill="none" stroke-width="2" stroke="#0000FF" d="M25.25,9.875c0-4.142,3.358-7.5,7.5-7.5c4.143,0,7.5,3.358,7.5,7.5"/>
</g>
<g id="Red">
	<rect x="17.947" y="32.221" fill="none" stroke-width="2" stroke="#FF0000" width="29.779" height="29.779"/>
	<line fill="none" stroke-width="2" stroke="#FF0000" x1="32.875" y1="9.5" x2="32.875" y2="32.5"/>
	<path fill="none" stroke-width="2" stroke="#FF0000" d="M25.25,9.875c0-4.142,3.358-7.5,7.5-7.5c4.143,0,7.5,3.358,7.5,7.5"/>
</g>
<g id="White">
	<rect x="17.947" y="32.221" fill="none" stroke-width="2" stroke="#00FF00" width="29.779" height="29.779"/>
	<line fill="none" stroke-width="2" stroke="#00FF00" x1="32.875" y1="9.5" x2="32.875" y2="32.5"/>
	<path fill="none" stroke-width="2" stroke="#00FF00" d="M25.25,9.875c0-4.142,3.358-7.5,7.5-7.5c4.143,0,7.5,3.358,7.5,7.5"/>
</g>
</svg>
