<?xml version="1.0" encoding="utf-8"?>
<!-- Generator: Adobe Illustrator 14.0.0, SVG Export Plug-In . SVG Version: 6.00 Build 43363)  -->
<!DOCTYPE svg PUBLIC "-//W3C//DTD SVG 1.1//EN" "http://www.w3.org/Graphics/SVG/1.1/DTD/svg11.dtd">
<svg version="1.1" id="图层_1" xmlns="http://www.w3.org/2000/svg" xmlns:xlink="http://www.w3.org/1999/xlink" x="0px" y="0px"
	 width="64px" height="64px" viewBox="0 0 64 64" enable-background="new 0 0 64 64" xml:space="preserve">
<g id="Blue">
	<line fill="none" stroke-width="2" stroke="#0000FF" x1="22.875" y1="11.5" x2="41.25" y2="11.5"/>
	<line fill="none" stroke-width="2" stroke="#0000FF" x1="22.875" y1="22.75" x2="41.25" y2="22.75"/>
	<line fill="none" stroke-width="2" stroke="#0000FF" x1="32.063" y1="2.5" x2="32.063" y2="31.75"/>
	<circle fill="none" stroke-width="2" stroke="#0000FF" cx="32.063" cy="46.813" r="15.063"/>
	<line fill="none" stroke-width="2" stroke="#0000FF" x1="32.063" y1="31.75" x2="32.063" y2="61.876"/>
</g>
<g id="Red">
	<line fill="none" stroke-width="2" stroke="#FF0000" x1="22.875" y1="11.5" x2="41.25" y2="11.5"/>
	<line fill="none" stroke-width="2" stroke="#FF0000" x1="22.875" y1="22.75" x2="41.25" y2="22.75"/>
	<line fill="none" stroke-width="2" stroke="#FF0000" x1="32.063" y1="2.5" x2="32.063" y2="31.75"/>
	<circle fill="none" stroke-width="2" stroke="#FF0000" cx="32.063" cy="46.813" r="15.063"/>
	<line fill="none" stroke-width="2" stroke="#FF0000" x1="32.063" y1="31.75" x2="32.063" y2="61.876"/>
</g>
<g id="White">
	<line fill="none" stroke-width="2" stroke="#00FF00" x1="22.875" y1="11.5" x2="41.25" y2="11.5"/>
	<line fill="none" stroke-width="2" stroke="#00FF00" x1="22.875" y1="22.75" x2="41.25" y2="22.75"/>
	<line fill="none" stroke-width="2" stroke="#00FF00" x1="32.063" y1="2.5" x2="32.063" y2="31.75"/>
	<circle fill="none" stroke-width="2" stroke="#00FF00" cx="32.063" cy="46.813" r="15.063"/>
	<line fill="none" stroke-width="2" stroke="#00FF00" x1="32.063" y1="31.75" x2="32.063" y2="61.876"/>
</g>
</svg>
