<?xml version="1.0" encoding="utf-8"?>
<!-- Generator: Adobe Illustrator 14.0.0, SVG Export Plug-In . SVG Version: 6.00 Build 43363)  -->
<!DOCTYPE svg PUBLIC "-//W3C//DTD SVG 1.1//EN" "http://www.w3.org/Graphics/SVG/1.1/DTD/svg11.dtd">
<svg version="1.1" id="图层_1" xmlns="http://www.w3.org/2000/svg" xmlns:xlink="http://www.w3.org/1999/xlink" x="0px" y="0px"
	 width="64px" height="64px" viewBox="0 0 64 64" enable-background="new 0 0 64 64" xml:space="preserve">
<g id="Blue">
	<line fill="none" stroke="#0000FF" stroke-width="2" x1="2.917" y1="43.333" x2="62.5" y2="14.333"/>
	<line fill="none" stroke="#0000FF" stroke-width="2" x1="62.5" y1="14.333" x2="62.5" y2="43.333"/>
	<line fill="none" stroke="#0000FF" stroke-width="2" x1="62.5" y1="43.333" x2="2.917" y2="43.333"/>
	<line fill="none" stroke="#0000FF" stroke-width="2" x1="53.587" y1="18.672" x2="53.587" y2="43.333"/>
	<line fill="none" stroke="#0000FF" stroke-width="2" x1="45.107" y1="22.798" x2="45.107" y2="43.333"/>
	<line fill="none" stroke="#0000FF" stroke-width="2" x1="36.964" y1="26.762" x2="36.964" y2="43.333"/>
	<line fill="none" stroke="#0000FF" stroke-width="2" x1="29.39" y1="30.449" x2="29.39" y2="43.333"/>
	<line fill="none" stroke="#0000FF" stroke-width="2" x1="21.615" y1="34.232" x2="21.615" y2="43.333"/>
	<line fill="none" stroke="#0000FF" stroke-width="2" x1="14.311" y1="37.787" x2="14.311" y2="43.333"/>
</g>
<g id="Red">
	<line fill="none" stroke="#FF0000" stroke-width="2" x1="2.917" y1="43.333" x2="62.5" y2="14.333"/>
	<line fill="none" stroke="#FF0000" stroke-width="2" x1="62.5" y1="14.333" x2="62.5" y2="43.333"/>
	<line fill="none" stroke="#FF0000" stroke-width="2" x1="62.5" y1="43.333" x2="2.917" y2="43.333"/>
	<line fill="none" stroke="#FF0000" stroke-width="2" x1="53.587" y1="18.672" x2="53.587" y2="43.333"/>
	<line fill="none" stroke="#FF0000" stroke-width="2" x1="45.107" y1="22.798" x2="45.107" y2="43.333"/>
	<line fill="none" stroke="#FF0000" stroke-width="2" x1="36.964" y1="26.762" x2="36.964" y2="43.333"/>
	<line fill="none" stroke="#FF0000" stroke-width="2" x1="29.39" y1="30.449" x2="29.39" y2="43.333"/>
	<line fill="none" stroke="#FF0000" stroke-width="2" x1="21.615" y1="34.232" x2="21.615" y2="43.333"/>
	<line fill="none" stroke="#FF0000" stroke-width="2" x1="14.311" y1="37.787" x2="14.311" y2="43.333"/>
</g>
<g id="White">
	<line fill="none" stroke="#00FF00" stroke-width="2" x1="2.917" y1="43.333" x2="62.5" y2="14.333"/>
	<line fill="none" stroke="#00FF00" stroke-width="2" x1="62.5" y1="14.333" x2="62.5" y2="43.333"/>
	<line fill="none" stroke="#00FF00" stroke-width="2" x1="62.5" y1="43.333" x2="2.917" y2="43.333"/>
	<line fill="none" stroke="#00FF00" stroke-width="2" x1="53.587" y1="18.672" x2="53.587" y2="43.333"/>
	<line fill="none" stroke="#00FF00" stroke-width="2" x1="45.107" y1="22.798" x2="45.107" y2="43.333"/>
	<line fill="none" stroke="#00FF00" stroke-width="2" x1="36.964" y1="26.762" x2="36.964" y2="43.333"/>
	<line fill="none" stroke="#00FF00" stroke-width="2" x1="29.39" y1="30.449" x2="29.39" y2="43.333"/>
	<line fill="none" stroke="#00FF00" stroke-width="2" x1="21.615" y1="34.232" x2="21.615" y2="43.333"/>
	<line fill="none" stroke="#00FF00" stroke-width="2" x1="14.311" y1="37.787" x2="14.311" y2="43.333"/>
</g>
</svg>
