<?xml version="1.0" encoding="utf-8"?>
<!-- Generator: Adobe Illustrator 14.0.0, SVG Export Plug-In . SVG Version: 6.00 Build 43363)  -->
<!DOCTYPE svg PUBLIC "-//W3C//DTD SVG 1.1//EN" "http://www.w3.org/Graphics/SVG/1.1/DTD/svg11.dtd">
<svg version="1.1" id="图层_1" xmlns="http://www.w3.org/2000/svg" xmlns:xlink="http://www.w3.org/1999/xlink" x="0px" y="0px"
	 width="64px" height="64px" viewBox="0 0 64 64" enable-background="new 0 0 64 64" xml:space="preserve">
<g id="Blue">
	<rect x="1.25" y="12.625" fill="none" stroke="#0000FF" stroke-width="2" width="60.75" height="41.125"/>
	<path fill="none" stroke="#0000FF" stroke-width="2" d="M22.875,25.75c0,0,1.25-6.438,8.75-6.438c0,0,7.875-0.813,8.25,6.438"/>
	<line fill="none" stroke="#0000FF" stroke-width="2" x1="39.875" y1="25.75" x2="31.625" y2="43.063"/>
	<line fill="none" stroke="#0000FF" stroke-width="2" x1="22.875" y1="25.75" x2="31.625" y2="43.063"/>
	<circle fill="#000100" cx="31.625" cy="46.156" r="3.094"/>
</g>
<g id="Red">
	<rect x="1.25" y="12.625" fill="none" stroke="#FF0000" stroke-width="2" width="60.75" height="41.125"/>
	<path fill="none" stroke="#FF0000" stroke-width="2" d="M22.875,25.75c0,0,1.25-6.438,8.75-6.438c0,0,7.875-0.813,8.25,6.438"/>
	<line fill="none" stroke="#FF0000" stroke-width="2" x1="39.875" y1="25.75" x2="31.625" y2="43.063"/>
	<line fill="none" stroke="#FF0000" stroke-width="2" x1="22.875" y1="25.75" x2="31.625" y2="43.063"/>
	<circle fill="#000100" cx="31.625" cy="46.156" r="3.094"/>
</g>
<g id="White">
	<rect x="1.25" y="12.625" fill="none" stroke="#00FF00" stroke-width="2" width="60.75" height="41.125"/>
	<path fill="none" stroke="#00FF00" stroke-width="2" d="M22.875,25.75c0,0,1.25-6.438,8.75-6.438c0,0,7.875-0.813,8.25,6.438"/>
	<line fill="none" stroke="#00FF00" stroke-width="2" x1="39.875" y1="25.75" x2="31.625" y2="43.063"/>
	<line fill="none" stroke="#00FF00" stroke-width="2" x1="22.875" y1="25.75" x2="31.625" y2="43.063"/>
	<circle fill="#000100" cx="31.625" cy="46.156" r="3.094"/>
</g>
</svg>
