<?xml version="1.0" encoding="utf-8"?>
<!-- Generator: Adobe Illustrator 14.0.0, SVG Export Plug-In . SVG Version: 6.00 Build 43363)  -->
<!DOCTYPE svg PUBLIC "-//W3C//DTD SVG 1.1//EN" "http://www.w3.org/Graphics/SVG/1.1/DTD/svg11.dtd">
<svg version="1.1" id="图层_1" xmlns="http://www.w3.org/2000/svg" xmlns:xlink="http://www.w3.org/1999/xlink" x="0px" y="0px"
	 width="64px" height="64px" viewBox="0 0 64 64" enable-background="new 0 0 64 64" xml:space="preserve">
<g id="Blue">
	<line fill="none" stroke="#0000FF" stroke-width="2" x1="0.833" y1="47.667" x2="39.167" y2="9.333"/>
	<line fill="none" stroke="#0000FF" stroke-width="2" x1="39.167" y1="9.333" x2="46.25" y2="16.417"/>
	<line fill="none" stroke="#0000FF" stroke-width="2" x1="46.25" y1="16.417" x2="39.167" y2="23.5"/>
	<line fill="none" stroke="#0000FF" stroke-width="2" x1="39.167" y1="23.5" x2="62.584" y2="46.917"/>
	<line fill="none" stroke="#0000FF" stroke-width="2" x1="32" y1="29.833" x2="55.167" y2="53"/>
	<line fill="none" stroke="#0000FF" stroke-width="2" x1="32" y1="29.833" x2="8.583" y2="53.25"/>
</g>
<g id="Red">
	<line fill="none" stroke="#FF0000" stroke-width="2" x1="0.833" y1="47.667" x2="39.167" y2="9.333"/>
	<line fill="none" stroke="#FF0000" stroke-width="2" x1="39.167" y1="9.333" x2="46.25" y2="16.417"/>
	<line fill="none" stroke="#FF0000" stroke-width="2" x1="46.25" y1="16.417" x2="39.167" y2="23.5"/>
	<line fill="none" stroke="#FF0000" stroke-width="2" x1="39.167" y1="23.5" x2="62.584" y2="46.917"/>
	<line fill="none" stroke="#FF0000" stroke-width="2" x1="32" y1="29.833" x2="55.167" y2="53"/>
	<line fill="none" stroke="#FF0000" stroke-width="2" x1="32" y1="29.833" x2="8.583" y2="53.25"/>
</g>
<g id="White">
	<line fill="none" stroke="#00FF00" stroke-width="2" x1="0.833" y1="47.667" x2="39.167" y2="9.333"/>
	<line fill="none" stroke="#00FF00" stroke-width="2" x1="39.167" y1="9.333" x2="46.25" y2="16.417"/>
	<line fill="none" stroke="#00FF00" stroke-width="2" x1="46.25" y1="16.417" x2="39.167" y2="23.5"/>
	<line fill="none" stroke="#00FF00" stroke-width="2" x1="39.167" y1="23.5" x2="62.584" y2="46.917"/>
	<line fill="none" stroke="#00FF00" stroke-width="2" x1="32" y1="29.833" x2="55.167" y2="53"/>
	<line fill="none" stroke="#00FF00" stroke-width="2" x1="32" y1="29.833" x2="8.583" y2="53.25"/>
</g>
</svg>
