<?xml version="1.0" encoding="utf-8"?>
<!-- Generator: Adobe Illustrator 14.0.0, SVG Export Plug-In . SVG Version: 6.00 Build 43363)  -->
<!DOCTYPE svg PUBLIC "-//W3C//DTD SVG 1.1//EN" "http://www.w3.org/Graphics/SVG/1.1/DTD/svg11.dtd">
<svg version="1.1" id="图层_1" xmlns="http://www.w3.org/2000/svg" xmlns:xlink="http://www.w3.org/1999/xlink" x="0px" y="0px"
	 width="64px" height="64px" viewBox="0 0 64 64" enable-background="new 0 0 64 64" xml:space="preserve">
<g id="Blue">
	<ellipse fill="none" stroke="#0000FF" stroke-width="2" cx="31.084" cy="28.127" rx="23.824" ry="11.707"/>
	<line fill="none" stroke="#0000FF" stroke-width="2" x1="0.875" y1="28.127" x2="7.261" y2="28.127"/>
	<line fill="none" stroke="#0000FF" stroke-width="2" x1="10.699" y1="28.127" x2="17.413" y2="28.127"/>
	<line fill="none" stroke="#0000FF" stroke-width="2" x1="44.92" y1="28.127" x2="51.961" y2="28.127"/>
	<line fill="none" stroke="#0000FF" stroke-width="2" x1="54.839" y1="28.127" x2="63.75" y2="28.127"/>
	<line fill="none" stroke="#0000FF" stroke-width="2" x1="31.084" y1="35.25" x2="17.413" y2="28.127"/>
	<line fill="none" stroke="#0000FF" stroke-width="2" x1="17.413" y1="28.127" x2="31.084" y2="21.5"/>
	<line fill="none" stroke="#0000FF" stroke-width="2" x1="31.084" y1="21.5" x2="44.92" y2="28.127"/>
	<line fill="none" stroke="#0000FF" stroke-width="2" x1="44.92" y1="28.127" x2="31.084" y2="35.25"/>
</g>
<g id="Red">
	<ellipse fill="none" stroke="#FF0000" stroke-width="2" cx="31.084" cy="28.127" rx="23.824" ry="11.707"/>
	<line fill="none" stroke="#FF0000" stroke-width="2" x1="0.875" y1="28.127" x2="7.261" y2="28.127"/>
	<line fill="none" stroke="#FF0000" stroke-width="2" x1="10.699" y1="28.127" x2="17.413" y2="28.127"/>
	<line fill="none" stroke="#FF0000" stroke-width="2" x1="44.92" y1="28.127" x2="51.961" y2="28.127"/>
	<line fill="none" stroke="#FF0000" stroke-width="2" x1="54.839" y1="28.127" x2="63.75" y2="28.127"/>
	<line fill="none" stroke="#FF0000" stroke-width="2" x1="31.084" y1="35.25" x2="17.413" y2="28.127"/>
	<line fill="none" stroke="#FF0000" stroke-width="2" x1="17.413" y1="28.127" x2="31.084" y2="21.5"/>
	<line fill="none" stroke="#FF0000" stroke-width="2" x1="31.084" y1="21.5" x2="44.92" y2="28.127"/>
	<line fill="none" stroke="#FF0000" stroke-width="2" x1="44.92" y1="28.127" x2="31.084" y2="35.25"/>
</g>
<g id="White">
	<ellipse fill="none" stroke="#00FF00" stroke-width="2" cx="31.084" cy="28.127" rx="23.824" ry="11.707"/>
	<line fill="none" stroke="#00FF00" stroke-width="2" x1="0.875" y1="28.127" x2="7.261" y2="28.127"/>
	<line fill="none" stroke="#00FF00" stroke-width="2" x1="10.699" y1="28.127" x2="17.413" y2="28.127"/>
	<line fill="none" stroke="#00FF00" stroke-width="2" x1="44.92" y1="28.127" x2="51.961" y2="28.127"/>
	<line fill="none" stroke="#00FF00" stroke-width="2" x1="54.839" y1="28.127" x2="63.75" y2="28.127"/>
	<line fill="none" stroke="#00FF00" stroke-width="2" x1="31.084" y1="35.25" x2="17.413" y2="28.127"/>
	<line fill="none" stroke="#00FF00" stroke-width="2" x1="17.413" y1="28.127" x2="31.084" y2="21.5"/>
	<line fill="none" stroke="#00FF00" stroke-width="2" x1="31.084" y1="21.5" x2="44.92" y2="28.127"/>
	<line fill="none" stroke="#00FF00" stroke-width="2" x1="44.92" y1="28.127" x2="31.084" y2="35.25"/>
</g>
</svg>
