<?xml version="1.0" encoding="utf-8"?>
<!-- Generator: Adobe Illustrator 14.0.0, SVG Export Plug-In . SVG Version: 6.00 Build 43363)  -->
<!DOCTYPE svg PUBLIC "-//W3C//DTD SVG 1.1//EN" "http://www.w3.org/Graphics/SVG/1.1/DTD/svg11.dtd">
<svg version="1.1" id="图层_1" xmlns="http://www.w3.org/2000/svg" xmlns:xlink="http://www.w3.org/1999/xlink" x="0px" y="0px"
	 width="64px" height="64px" viewBox="0 0 64 64" enable-background="new 0 0 64 64" xml:space="preserve">
<g id="Blue">
	<ellipse fill="none" stroke="#0000FF" stroke-width="2" cx="23.938" cy="30.896" rx="18.188" ry="8.938"/>
	<line fill="none" stroke="#0000FF" stroke-width="2" x1="0.875" y1="30.896" x2="5.75" y2="30.896"/>
	<line fill="none" stroke="#0000FF" stroke-width="2" x1="8.375" y1="30.896" x2="13.5" y2="30.896"/>
	<line fill="none" stroke="#0000FF" stroke-width="2" x1="17.25" y1="30.896" x2="22.5" y2="30.896"/>
	<line fill="none" stroke="#0000FF" stroke-width="2" x1="26.125" y1="30.896" x2="31" y2="30.896"/>
	<line fill="none" stroke="#0000FF" stroke-width="2" x1="34.5" y1="30.896" x2="39.875" y2="30.896"/>
	<line fill="none" stroke="#0000FF" stroke-width="2" x1="42.072" y1="30.896" x2="48.875" y2="30.896"/>
	<line fill="none" stroke="#000100" stroke-width="2" x1="54.125" y1="34.875" x2="64" y2="34.875"/>
</g>
<g id="Red">
	<ellipse fill="none" stroke="#FF0000" stroke-width="2" cx="23.938" cy="30.896" rx="18.188" ry="8.938"/>
	<line fill="none" stroke="#FF0000" stroke-width="2" x1="0.875" y1="30.896" x2="5.75" y2="30.896"/>
	<line fill="none" stroke="#FF0000" stroke-width="2" x1="8.375" y1="30.896" x2="13.5" y2="30.896"/>
	<line fill="none" stroke="#FF0000" stroke-width="2" x1="17.25" y1="30.896" x2="22.5" y2="30.896"/>
	<line fill="none" stroke="#FF0000" stroke-width="2" x1="26.125" y1="30.896" x2="31" y2="30.896"/>
	<line fill="none" stroke="#FF0000" stroke-width="2" x1="34.5" y1="30.896" x2="39.875" y2="30.896"/>
	<line fill="none" stroke="#FF0000" stroke-width="2" x1="42.072" y1="30.896" x2="48.875" y2="30.896"/>
	<line fill="none" stroke="#000100" stroke-width="2" x1="54.125" y1="34.875" x2="64" y2="34.875"/>
</g>
<g id="White">
	<ellipse fill="none" stroke="#00FF00" stroke-width="2" cx="23.938" cy="30.896" rx="18.188" ry="8.938"/>
	<line fill="none" stroke="#00FF00" stroke-width="2" x1="0.875" y1="30.896" x2="5.75" y2="30.896"/>
	<line fill="none" stroke="#00FF00" stroke-width="2" x1="8.375" y1="30.896" x2="13.5" y2="30.896"/>
	<line fill="none" stroke="#00FF00" stroke-width="2" x1="17.25" y1="30.896" x2="22.5" y2="30.896"/>
	<line fill="none" stroke="#00FF00" stroke-width="2" x1="26.125" y1="30.896" x2="31" y2="30.896"/>
	<line fill="none" stroke="#00FF00" stroke-width="2" x1="34.5" y1="30.896" x2="39.875" y2="30.896"/>
	<line fill="none" stroke="#00FF00" stroke-width="2" x1="42.072" y1="30.896" x2="48.875" y2="30.896"/>
	<line fill="none" stroke="#000100" stroke-width="2" x1="54.125" y1="34.875" x2="64" y2="34.875"/>
</g>
</svg>
