<?xml version="1.0" encoding="utf-8"?>
<!-- Generator: Adobe Illustrator 14.0.0, SVG Export Plug-In . SVG Version: 6.00 Build 43363)  -->
<!DOCTYPE svg PUBLIC "-//W3C//DTD SVG 1.1//EN" "http://www.w3.org/Graphics/SVG/1.1/DTD/svg11.dtd">
<svg version="1.1" id="图层_1" xmlns="http://www.w3.org/2000/svg" xmlns:xlink="http://www.w3.org/1999/xlink" x="0px" y="0px"
	 width="64px" height="64px" viewBox="0 0 64 64" enable-background="new 0 0 64 64" xml:space="preserve">
<g id="Blue">
	<line fill="none" stroke="#0000FF" stroke-width="2" x1="61.417" y1="14.333" x2="20.917" y2="14.333"/>
	<line fill="none" stroke="#0000FF" stroke-width="2" x1="20.917" y1="14.333" x2="2.167" y2="28.5"/>
	<line fill="none" stroke="#0000FF" stroke-width="2" x1="2.167" y1="28.5" x2="2.167" y2="42.833"/>
	<line fill="none" stroke="#0000FF" stroke-width="2" x1="2.167" y1="42.833" x2="61.417" y2="42.833"/>
	<line fill="none" stroke="#0000FF" stroke-width="2" x1="61.417" y1="42.833" x2="61.417" y2="14.333"/>
	<line fill="none" stroke="#0000FF" stroke-width="2" x1="11.542" y1="21.417" x2="11.542" y2="42.411"/>
</g>
<g id="Red">
	<line fill="none" stroke="#FF0000" stroke-width="2" x1="61.417" y1="14.333" x2="20.917" y2="14.333"/>
	<line fill="none" stroke="#FF0000" stroke-width="2" x1="20.917" y1="14.333" x2="2.167" y2="28.5"/>
	<line fill="none" stroke="#FF0000" stroke-width="2" x1="2.167" y1="28.5" x2="2.167" y2="42.833"/>
	<line fill="none" stroke="#FF0000" stroke-width="2" x1="2.167" y1="42.833" x2="61.417" y2="42.833"/>
	<line fill="none" stroke="#FF0000" stroke-width="2" x1="61.417" y1="42.833" x2="61.417" y2="14.333"/>
	<line fill="none" stroke="#FF0000" stroke-width="2" x1="11.542" y1="21.417" x2="11.542" y2="42.411"/>
</g>
<g id="White">
	<line fill="none" stroke="#00FF00" stroke-width="2" x1="61.417" y1="14.333" x2="20.917" y2="14.333"/>
	<line fill="none" stroke="#00FF00" stroke-width="2" x1="20.917" y1="14.333" x2="2.167" y2="28.5"/>
	<line fill="none" stroke="#00FF00" stroke-width="2" x1="2.167" y1="28.5" x2="2.167" y2="42.833"/>
	<line fill="none" stroke="#00FF00" stroke-width="2" x1="2.167" y1="42.833" x2="61.417" y2="42.833"/>
	<line fill="none" stroke="#00FF00" stroke-width="2" x1="61.417" y1="42.833" x2="61.417" y2="14.333"/>
	<line fill="none" stroke="#00FF00" stroke-width="2" x1="11.542" y1="21.417" x2="11.542" y2="42.411"/>
</g>
</svg>
