<?xml version="1.0" encoding="utf-8"?>
<!-- Generator: Adobe Illustrator 14.0.0, SVG Export Plug-In . SVG Version: 6.00 Build 43363)  -->
<!DOCTYPE svg PUBLIC "-//W3C//DTD SVG 1.1//EN" "http://www.w3.org/Graphics/SVG/1.1/DTD/svg11.dtd">
<svg version="1.1" id="图层_1" xmlns="http://www.w3.org/2000/svg" xmlns:xlink="http://www.w3.org/1999/xlink" x="0px" y="0px"
	 width="64px" height="64px" viewBox="0 0 64 64" enable-background="new 0 0 64 64" xml:space="preserve">
<g id="Blue">
	<line fill="none" stroke="#0000FF" stroke-width="2" x1="61" y1="24.924" x2="61" y2="44.75"/>
	<line fill="none" stroke="#0000FF" stroke-width="2" x1="61" y1="44.75" x2="19.667" y2="44.75"/>
	<line fill="none" stroke="#0000FF" stroke-width="2" x1="19.667" y1="44.75" x2="19.667" y2="34.417"/>
	<line fill="none" stroke="#0000FF" stroke-width="2" x1="19.667" y1="34.417" x2="32.523" y2="24.924"/>
	<line fill="none" stroke="#0000FF" stroke-width="2" x1="32.523" y1="24.924" x2="61" y2="24.924"/>
	<line fill="none" stroke="#0000FF" stroke-width="2" x1="24.809" y1="30.62" x2="61" y2="30.62"/>
	<line fill="none" stroke="#0000FF" stroke-width="2" x1="24.809" y1="30.62" x2="20.917" y2="25.5"/>
	<line fill="none" stroke="#0000FF" stroke-width="2" x1="20.917" y1="25.5" x2="12" y2="32.5"/>
	<path fill="none" stroke="#0000FF" stroke-width="2" d="M10.667,33.333c0,0-3.583-3.5-7.417,0.667c0,0-2.833,2.917,0.417,6.5"/>
</g>
<g id="Red">
	<line fill="none" stroke="#FF0000" stroke-width="2" x1="61" y1="24.924" x2="61" y2="44.75"/>
	<line fill="none" stroke="#FF0000" stroke-width="2" x1="61" y1="44.75" x2="19.667" y2="44.75"/>
	<line fill="none" stroke="#FF0000" stroke-width="2" x1="19.667" y1="44.75" x2="19.667" y2="34.417"/>
	<line fill="none" stroke="#FF0000" stroke-width="2" x1="19.667" y1="34.417" x2="32.523" y2="24.924"/>
	<line fill="none" stroke="#FF0000" stroke-width="2" x1="32.523" y1="24.924" x2="61" y2="24.924"/>
	<line fill="none" stroke="#FF0000" stroke-width="2" x1="24.809" y1="30.62" x2="61" y2="30.62"/>
	<line fill="none" stroke="#FF0000" stroke-width="2" x1="24.809" y1="30.62" x2="20.917" y2="25.5"/>
	<line fill="none" stroke="#FF0000" stroke-width="2" x1="20.917" y1="25.5" x2="12" y2="32.5"/>
	<path fill="none" stroke="#FF0000" stroke-width="2" d="M10.667,33.333c0,0-3.583-3.5-7.417,0.667c0,0-2.833,2.917,0.417,6.5"/>
</g>
<g id="White">
	<line fill="none" stroke="#00FF00" stroke-width="2" x1="61" y1="24.924" x2="61" y2="44.75"/>
	<line fill="none" stroke="#00FF00" stroke-width="2" x1="61" y1="44.75" x2="19.667" y2="44.75"/>
	<line fill="none" stroke="#00FF00" stroke-width="2" x1="19.667" y1="44.75" x2="19.667" y2="34.417"/>
	<line fill="none" stroke="#00FF00" stroke-width="2" x1="19.667" y1="34.417" x2="32.523" y2="24.924"/>
	<line fill="none" stroke="#00FF00" stroke-width="2" x1="32.523" y1="24.924" x2="61" y2="24.924"/>
	<line fill="none" stroke="#00FF00" stroke-width="2" x1="24.809" y1="30.62" x2="61" y2="30.62"/>
	<line fill="none" stroke="#00FF00" stroke-width="2" x1="24.809" y1="30.62" x2="20.917" y2="25.5"/>
	<line fill="none" stroke="#00FF00" stroke-width="2" x1="20.917" y1="25.5" x2="12" y2="32.5"/>
	<path fill="none" stroke="#00FF00" stroke-width="2" d="M10.667,33.333c0,0-3.583-3.5-7.417,0.667c0,0-2.833,2.917,0.417,6.5"/>
</g>
</svg>
