<?xml version="1.0" encoding="utf-8"?>
<!-- Generator: Adobe Illustrator 14.0.0, SVG Export Plug-In . SVG Version: 6.00 Build 43363)  -->
<!DOCTYPE svg PUBLIC "-//W3C//DTD SVG 1.1//EN" "http://www.w3.org/Graphics/SVG/1.1/DTD/svg11.dtd">
<svg version="1.1" id="图层_1" xmlns="http://www.w3.org/2000/svg" xmlns:xlink="http://www.w3.org/1999/xlink" x="0px" y="0px"
	 width="64px" height="64px" viewBox="0 0 64 64" enable-background="new 0 0 64 64" xml:space="preserve">
<g id="Blue">
	<path fill="none" stroke="#0000FF" stroke-width="2" d="M7.5,38.334c0,0,5.833-15.667,24.5-15.5c0,0,16.668-1,23.334,15.5"/>
	<line fill="none" stroke="#0000FF" stroke-width="2" x1="10.322" y1="33.397" x2="2.667" y2="28"/>
	<line fill="none" stroke="#0000FF" stroke-width="2" x1="32" y1="22.833" x2="32" y2="15"/>
	<line fill="none" stroke="#0000FF" stroke-width="2" x1="53.377" y1="34.407" x2="60.334" y2="29.667"/>
</g>
<g id="Red">
	<path fill="none" stroke="#FF0000" stroke-width="2" d="M7.5,38.334c0,0,5.833-15.667,24.5-15.5c0,0,16.668-1,23.334,15.5"/>
	<line fill="none" stroke="#FF0000" stroke-width="2" x1="10.322" y1="33.397" x2="2.667" y2="28"/>
	<line fill="none" stroke="#FF0000" stroke-width="2" x1="32" y1="22.833" x2="32" y2="15"/>
	<line fill="none" stroke="#FF0000" stroke-width="2" x1="53.377" y1="34.407" x2="60.334" y2="29.667"/>
</g>
<g id="White">
	<path fill="none" stroke="#00FF00" stroke-width="2" d="M7.5,38.334c0,0,5.833-15.667,24.5-15.5c0,0,16.668-1,23.334,15.5"/>
	<line fill="none" stroke="#00FF00" stroke-width="2" x1="10.322" y1="33.397" x2="2.667" y2="28"/>
	<line fill="none" stroke="#00FF00" stroke-width="2" x1="32" y1="22.833" x2="32" y2="15"/>
	<line fill="none" stroke="#00FF00" stroke-width="2" x1="53.377" y1="34.407" x2="60.334" y2="29.667"/>
</g>
</svg>
