<?xml version="1.0" encoding="utf-8"?>
<!-- Generator: Adobe Illustrator 14.0.0, SVG Export Plug-In . SVG Version: 6.00 Build 43363)  -->
<!DOCTYPE svg PUBLIC "-//W3C//DTD SVG 1.1//EN" "http://www.w3.org/Graphics/SVG/1.1/DTD/svg11.dtd">
<svg version="1.1" id="图层_1" xmlns="http://www.w3.org/2000/svg" xmlns:xlink="http://www.w3.org/1999/xlink" x="0px" y="0px"
	 width="64px" height="64px" viewBox="0 0 64 64" enable-background="new 0 0 64 64" xml:space="preserve">
<g id="Blue">
	<path fill="none" stroke="#0000FF" d="M1.5,56.25c0,0-2-9.875,18.375-18.25c0,0,16.875-3.875,26-7.75c0,0,12.5-6.75,13.875-14.125
		V13.25"/>
	<path fill="none" stroke="#0000FF" stroke-width="2" d="M22.25,14.5c0,0,5.5,1.875,3,6.875c0,0-2.974,3.5-1.174,6.75
		c0,0,1.424,3.125,4.174,3c0,0,3.75,1.498,3.75,3.749"/>
	<path fill="none" stroke="#0000FF" d="M35,13.875c0,0-2.125,5,0,8c0,0,2.898,5.775,1.012,11.825"/>
	<path fill="none" stroke="#000100" d="M35.412,13.875c0,0-2.125,5,0,8c0,0,2.898,5.775,1.012,11.825"/>
	<circle fill="#000100" cx="20.966" cy="12.276" r="2.568"/>
	<circle fill="#000100" cx="35.353" cy="11.308" r="2.567"/>
	<circle fill="#000100" cx="59.75" cy="10.683" r="2.567"/>
</g>
<g id="Red">
	<path fill="none" stroke="#FF0000" d="M1.5,56.25c0,0-2-9.875,18.375-18.25c0,0,16.875-3.875,26-7.75c0,0,12.5-6.75,13.875-14.125
		V13.25"/>
	<path fill="none" stroke="#FF0000" stroke-width="2" d="M22.25,14.5c0,0,5.5,1.875,3,6.875c0,0-2.974,3.5-1.174,6.75
		c0,0,1.424,3.125,4.174,3c0,0,3.75,1.498,3.75,3.749"/>
	<path fill="none" stroke="#FF0000" d="M35,13.875c0,0-2.125,5,0,8c0,0,2.898,5.775,1.012,11.825"/>
	<path fill="none" stroke="#000100" d="M35.412,13.875c0,0-2.125,5,0,8c0,0,2.898,5.775,1.012,11.825"/>
	<circle fill="#000100" cx="20.966" cy="12.276" r="2.568"/>
	<circle fill="#000100" cx="35.353" cy="11.308" r="2.567"/>
	<circle fill="#000100" cx="59.75" cy="10.683" r="2.567"/>
</g>
<g id="White">
	<path fill="none" stroke="#00FF00" d="M1.5,56.25c0,0-2-9.875,18.375-18.25c0,0,16.875-3.875,26-7.75c0,0,12.5-6.75,13.875-14.125
		V13.25"/>
	<path fill="none" stroke="#00FF00" stroke-width="2" d="M22.25,14.5c0,0,5.5,1.875,3,6.875c0,0-2.974,3.5-1.174,6.75
		c0,0,1.424,3.125,4.174,3c0,0,3.75,1.498,3.75,3.749"/>
	<path fill="none" stroke="#00FF00" d="M35,13.875c0,0-2.125,5,0,8c0,0,2.898,5.775,1.012,11.825"/>
	<path fill="none" stroke="#000100" d="M35.412,13.875c0,0-2.125,5,0,8c0,0,2.898,5.775,1.012,11.825"/>
	<circle fill="#000100" cx="20.966" cy="12.276" r="2.568"/>
	<circle fill="#000100" cx="35.353" cy="11.308" r="2.567"/>
	<circle fill="#000100" cx="59.75" cy="10.683" r="2.567"/>
</g>
</svg>
