<?xml version="1.0" encoding="utf-8"?>
<!-- Generator: Adobe Illustrator 14.0.0, SVG Export Plug-In . SVG Version: 6.00 Build 43363)  -->
<!DOCTYPE svg PUBLIC "-//W3C//DTD SVG 1.1//EN" "http://www.w3.org/Graphics/SVG/1.1/DTD/svg11.dtd">
<svg version="1.1" id="图层_1" xmlns="http://www.w3.org/2000/svg" xmlns:xlink="http://www.w3.org/1999/xlink" x="0px" y="0px"
	 width="64px" height="64px" viewBox="0 0 64 64" enable-background="new 0 0 64 64" xml:space="preserve">
<g id="Blue">
	<path fill="none" stroke="#0000FF" stroke-width="2" d="M26.168,7.833c0,0-15.667,5.833-15.5,24.5c0,0-1,16.667,15.5,23.333"/>
	<line fill="none" stroke="#0000FF" stroke-width="2" x1="21.231" y1="10.655" x2="15.834" y2="3"/>
	<line fill="none" stroke="#0000FF" stroke-width="2" x1="10.668" y1="32.333" x2="2.834" y2="32.333"/>
	<line fill="none" stroke="#0000FF" stroke-width="2" x1="22.241" y1="53.709" x2="17.501" y2="60.666"/>
	<polygon fill="none" stroke="#0000FF" stroke-width="2" points="59.834,33 39.834,44.334 19.871,33 39.834,22 	"/>
</g>
<g id="Red">
	<path fill="none" stroke="#FF0000" stroke-width="2" d="M26.168,7.833c0,0-15.667,5.833-15.5,24.5c0,0-1,16.667,15.5,23.333"/>
	<line fill="none" stroke="#FF0000" stroke-width="2" x1="21.231" y1="10.655" x2="15.834" y2="3"/>
	<line fill="none" stroke="#FF0000" stroke-width="2" x1="10.668" y1="32.333" x2="2.834" y2="32.333"/>
	<line fill="none" stroke="#FF0000" stroke-width="2" x1="22.241" y1="53.709" x2="17.501" y2="60.666"/>
	<polygon fill="none" stroke="#FF0000" stroke-width="2" points="59.834,33 39.834,44.334 19.871,33 39.834,22 	"/>
</g>
<g id="White">
	<path fill="none" stroke="#00FF00" stroke-width="2" d="M26.168,7.833c0,0-15.667,5.833-15.5,24.5c0,0-1,16.667,15.5,23.333"/>
	<line fill="none" stroke="#00FF00" stroke-width="2" x1="21.231" y1="10.655" x2="15.834" y2="3"/>
	<line fill="none" stroke="#00FF00" stroke-width="2" x1="10.668" y1="32.333" x2="2.834" y2="32.333"/>
	<line fill="none" stroke="#00FF00" stroke-width="2" x1="22.241" y1="53.709" x2="17.501" y2="60.666"/>
	<polygon fill="none" stroke="#00FF00" stroke-width="2" points="59.834,33 39.834,44.334 19.871,33 39.834,22 	"/>
</g>
</svg>
