<?xml version="1.0" encoding="utf-8"?>
<!-- Generator: Adobe Illustrator 14.0.0, SVG Export Plug-In . SVG Version: 6.00 Build 43363)  -->
<!DOCTYPE svg PUBLIC "-//W3C//DTD SVG 1.1//EN" "http://www.w3.org/Graphics/SVG/1.1/DTD/svg11.dtd">
<svg version="1.1" id="图层_1" xmlns="http://www.w3.org/2000/svg" xmlns:xlink="http://www.w3.org/1999/xlink" x="0px" y="0px"
	 width="64px" height="64px" viewBox="0 0 64 64" enable-background="new 0 0 64 64" xml:space="preserve">
<g id="Blue">
	<line fill="none" stroke="#0000FF" stroke-width="2" x1="61.875" y1="19" x2="23.125" y2="19"/>
	<line fill="none" stroke="#0000FF" stroke-width="2" x1="23.125" y1="19" x2="3.25" y2="33.375"/>
	<line fill="none" stroke="#0000FF" stroke-width="2" x1="3.25" y1="33.375" x2="3.25" y2="47.5"/>
	<line fill="none" stroke="#0000FF" stroke-width="2" x1="3.25" y1="47.5" x2="61.875" y2="47.5"/>
	<line fill="none" stroke="#0000FF" stroke-width="2" x1="61.875" y1="47.5" x2="61.875" y2="19"/>
	<line fill="none" stroke="#0000FF" stroke-width="2" x1="49.25" y1="30.125" x2="46.625" y2="32.75"/>
	<line fill="none" stroke="#0000FF" stroke-width="2" x1="46.625" y1="32.75" x2="49.271" y2="35.396"/>
	<line fill="none" stroke="#0000FF" stroke-width="2" x1="46.625" y1="32.75" x2="24.042" y2="32.75"/>
	<line fill="none" stroke="#0000FF" stroke-width="2" x1="24.042" y1="32.75" x2="21.396" y2="30.104"/>
	<line fill="none" stroke="#0000FF" stroke-width="2" x1="24.042" y1="32.75" x2="21.396" y2="35.396"/>
</g>
<g id="Red">
	<line fill="none" stroke="#FF0000" stroke-width="2" x1="61.875" y1="19" x2="23.125" y2="19"/>
	<line fill="none" stroke="#FF0000" stroke-width="2" x1="23.125" y1="19" x2="3.25" y2="33.375"/>
	<line fill="none" stroke="#FF0000" stroke-width="2" x1="3.25" y1="33.375" x2="3.25" y2="47.5"/>
	<line fill="none" stroke="#FF0000" stroke-width="2" x1="3.25" y1="47.5" x2="61.875" y2="47.5"/>
	<line fill="none" stroke="#FF0000" stroke-width="2" x1="61.875" y1="47.5" x2="61.875" y2="19"/>
	<line fill="none" stroke="#FF0000" stroke-width="2" x1="49.25" y1="30.125" x2="46.625" y2="32.75"/>
	<line fill="none" stroke="#FF0000" stroke-width="2" x1="46.625" y1="32.75" x2="49.271" y2="35.396"/>
	<line fill="none" stroke="#FF0000" stroke-width="2" x1="46.625" y1="32.75" x2="24.042" y2="32.75"/>
	<line fill="none" stroke="#FF0000" stroke-width="2" x1="24.042" y1="32.75" x2="21.396" y2="30.104"/>
	<line fill="none" stroke="#FF0000" stroke-width="2" x1="24.042" y1="32.75" x2="21.396" y2="35.396"/>
</g>
<g id="White">
	<line fill="none" stroke="#00FF00" stroke-width="2" x1="61.875" y1="19" x2="23.125" y2="19"/>
	<line fill="none" stroke="#00FF00" stroke-width="2" x1="23.125" y1="19" x2="3.25" y2="33.375"/>
	<line fill="none" stroke="#00FF00" stroke-width="2" x1="3.25" y1="33.375" x2="3.25" y2="47.5"/>
	<line fill="none" stroke="#00FF00" stroke-width="2" x1="3.25" y1="47.5" x2="61.875" y2="47.5"/>
	<line fill="none" stroke="#00FF00" stroke-width="2" x1="61.875" y1="47.5" x2="61.875" y2="19"/>
	<line fill="none" stroke="#00FF00" stroke-width="2" x1="49.25" y1="30.125" x2="46.625" y2="32.75"/>
	<line fill="none" stroke="#00FF00" stroke-width="2" x1="46.625" y1="32.75" x2="49.271" y2="35.396"/>
	<line fill="none" stroke="#00FF00" stroke-width="2" x1="46.625" y1="32.75" x2="24.042" y2="32.75"/>
	<line fill="none" stroke="#00FF00" stroke-width="2" x1="24.042" y1="32.75" x2="21.396" y2="30.104"/>
	<line fill="none" stroke="#00FF00" stroke-width="2" x1="24.042" y1="32.75" x2="21.396" y2="35.396"/>
</g>
</svg>
