<?xml version="1.0" encoding="utf-8"?>
<!-- Generator: Adobe Illustrator 14.0.0, SVG Export Plug-In . SVG Version: 6.00 Build 43363)  -->
<!DOCTYPE svg PUBLIC "-//W3C//DTD SVG 1.1//EN" "http://www.w3.org/Graphics/SVG/1.1/DTD/svg11.dtd">
<svg version="1.1" id="图层_1" xmlns="http://www.w3.org/2000/svg" xmlns:xlink="http://www.w3.org/1999/xlink" x="0px" y="0px"
	 width="64px" height="64px" viewBox="0 0 64 64" enable-background="new 0 0 64 64" xml:space="preserve">
<g id="Blue">
	<line fill="none" stroke="#0000FF" stroke-width="2" x1="1.375" y1="28.375" x2="62.75" y2="28.375"/>
	<line fill="none" stroke="#0000FF" stroke-width="2" x1="62.75" y1="33" x2="1.375" y2="36.375"/>
	<line fill="none" stroke="#0000FF" stroke-width="2" x1="12.625" y1="24.5" x2="12.625" y2="40.625"/>
	<line fill="none" stroke="#0000FF" stroke-width="2" x1="25.375" y1="24.5" x2="25.375" y2="40.625"/>
	<line fill="none" stroke="#0000FF" stroke-width="2" x1="39" y1="24.5" x2="39" y2="40.625"/>
	<line fill="none" stroke="#0000FF" stroke-width="2" x1="52.25" y1="24.5" x2="52.25" y2="40.625"/>
</g>
<g id="Red">
	<line fill="none" stroke="#FF0000" stroke-width="2" x1="1.375" y1="28.375" x2="62.75" y2="28.375"/>
	<line fill="none" stroke="#FF0000" stroke-width="2" x1="62.75" y1="33" x2="1.375" y2="36.375"/>
	<line fill="none" stroke="#FF0000" stroke-width="2" x1="12.625" y1="24.5" x2="12.625" y2="40.625"/>
	<line fill="none" stroke="#FF0000" stroke-width="2" x1="25.375" y1="24.5" x2="25.375" y2="40.625"/>
	<line fill="none" stroke="#FF0000" stroke-width="2" x1="39" y1="24.5" x2="39" y2="40.625"/>
	<line fill="none" stroke="#FF0000" stroke-width="2" x1="52.25" y1="24.5" x2="52.25" y2="40.625"/>
</g>
<g id="White">
	<line fill="none" stroke="#00FF00" stroke-width="2" x1="1.375" y1="28.375" x2="62.75" y2="28.375"/>
	<line fill="none" stroke="#00FF00" stroke-width="2" x1="62.75" y1="33" x2="1.375" y2="36.375"/>
	<line fill="none" stroke="#00FF00" stroke-width="2" x1="12.625" y1="24.5" x2="12.625" y2="40.625"/>
	<line fill="none" stroke="#00FF00" stroke-width="2" x1="25.375" y1="24.5" x2="25.375" y2="40.625"/>
	<line fill="none" stroke="#00FF00" stroke-width="2" x1="39" y1="24.5" x2="39" y2="40.625"/>
	<line fill="none" stroke="#00FF00" stroke-width="2" x1="52.25" y1="24.5" x2="52.25" y2="40.625"/>
</g>
</svg>
