<?xml version="1.0" encoding="utf-8"?>
<!-- Generator: Adobe Illustrator 14.0.0, SVG Export Plug-In . SVG Version: 6.00 Build 43363)  -->
<!DOCTYPE svg PUBLIC "-//W3C//DTD SVG 1.1//EN" "http://www.w3.org/Graphics/SVG/1.1/DTD/svg11.dtd">
<svg version="1.1" id="图层_1" xmlns="http://www.w3.org/2000/svg" xmlns:xlink="http://www.w3.org/1999/xlink" x="0px" y="0px"
	 width="64px" height="64px" viewBox="0 0 64 64" enable-background="new 0 0 64 64" xml:space="preserve">
<g id="Blue">
	<ellipse fill="none" stroke="#0000FF" stroke-width="2" cx="32" cy="32.834" rx="31.25" ry="17"/>
	<line fill="none" stroke="#0000FF" stroke-width="2" x1="15.375" y1="26.5" x2="18.75" y2="30"/>
	<line fill="none" stroke="#0000FF" stroke-width="2" x1="18.75" y1="30" x2="47.25" y2="30"/>
	<line fill="none" stroke="#0000FF" stroke-width="2" x1="47.25" y1="30" x2="50.75" y2="26.5"/>
	<line fill="none" stroke="#0000FF" stroke-width="2" x1="50.75" y1="39.5" x2="47.313" y2="36.063"/>
	<line fill="none" stroke="#0000FF" stroke-width="2" x1="47.313" y1="36.063" x2="18.75" y2="36.063"/>
	<line fill="none" stroke="#0000FF" stroke-width="2" x1="18.75" y1="36.063" x2="15.344" y2="39.469"/>
</g>
<g id="Red">
	<ellipse fill="none" stroke="#FF0000" stroke-width="2" cx="32" cy="32.834" rx="31.25" ry="17"/>
	<line fill="none" stroke="#FF0000" stroke-width="2" x1="15.375" y1="26.5" x2="18.75" y2="30"/>
	<line fill="none" stroke="#FF0000" stroke-width="2" x1="18.75" y1="30" x2="47.25" y2="30"/>
	<line fill="none" stroke="#FF0000" stroke-width="2" x1="47.25" y1="30" x2="50.75" y2="26.5"/>
	<line fill="none" stroke="#FF0000" stroke-width="2" x1="50.75" y1="39.5" x2="47.313" y2="36.063"/>
	<line fill="none" stroke="#FF0000" stroke-width="2" x1="47.313" y1="36.063" x2="18.75" y2="36.063"/>
	<line fill="none" stroke="#FF0000" stroke-width="2" x1="18.75" y1="36.063" x2="15.344" y2="39.469"/>
</g>
<g id="White">
	<ellipse fill="none" stroke="#00FF00" stroke-width="2" cx="32" cy="32.834" rx="31.25" ry="17"/>
	<line fill="none" stroke="#00FF00" stroke-width="2" x1="15.375" y1="26.5" x2="18.75" y2="30"/>
	<line fill="none" stroke="#00FF00" stroke-width="2" x1="18.75" y1="30" x2="47.25" y2="30"/>
	<line fill="none" stroke="#00FF00" stroke-width="2" x1="47.25" y1="30" x2="50.75" y2="26.5"/>
	<line fill="none" stroke="#00FF00" stroke-width="2" x1="50.75" y1="39.5" x2="47.313" y2="36.063"/>
	<line fill="none" stroke="#00FF00" stroke-width="2" x1="47.313" y1="36.063" x2="18.75" y2="36.063"/>
	<line fill="none" stroke="#00FF00" stroke-width="2" x1="18.75" y1="36.063" x2="15.344" y2="39.469"/>
</g>
</svg>
