<?xml version="1.0" encoding="utf-8"?>
<!-- Generator: Adobe Illustrator 14.0.0, SVG Export Plug-In . SVG Version: 6.00 Build 43363)  -->
<!DOCTYPE svg PUBLIC "-//W3C//DTD SVG 1.1//EN" "http://www.w3.org/Graphics/SVG/1.1/DTD/svg11.dtd">
<svg version="1.1" id="图层_1" xmlns="http://www.w3.org/2000/svg" xmlns:xlink="http://www.w3.org/1999/xlink" x="0px" y="0px"
	 width="64px" height="64px" viewBox="0 0 64 64" enable-background="new 0 0 64 64" xml:space="preserve">
<g id="Blue">
	<rect x="9.417" y="10.25" fill="none" stroke="#0000FF" stroke-width="2" width="45.583" height="45.583"/>
	<line fill="none" stroke="#0000FF" stroke-width="2" x1="55" y1="10.25" x2="63.084" y2="2.083"/>
	<line fill="none" stroke="#0000FF" stroke-width="2" x1="55" y1="55.833" x2="63.167" y2="64"/>
	<line fill="none" stroke="#0000FF" stroke-width="2" x1="9.417" y1="10.25" x2="1.583" y2="2.417"/>
	<line fill="none" stroke="#0000FF" stroke-width="2" x1="9.417" y1="55.833" x2="1.375" y2="63.792"/>
</g>
<g id="Red">
	<rect x="9.417" y="10.25" fill="none" stroke="#FF0000" stroke-width="2" width="45.583" height="45.583"/>
	<line fill="none" stroke="#FF0000" stroke-width="2" x1="55" y1="10.25" x2="63.084" y2="2.083"/>
	<line fill="none" stroke="#FF0000" stroke-width="2" x1="55" y1="55.833" x2="63.167" y2="64"/>
	<line fill="none" stroke="#FF0000" stroke-width="2" x1="9.417" y1="10.25" x2="1.583" y2="2.417"/>
	<line fill="none" stroke="#FF0000" stroke-width="2" x1="9.417" y1="55.833" x2="1.375" y2="63.792"/>
</g>
<g id="White">
	<rect x="9.417" y="10.25" fill="none" stroke="#00FF00" stroke-width="2" width="45.583" height="45.583"/>
	<line fill="none" stroke="#00FF00" stroke-width="2" x1="55" y1="10.25" x2="63.084" y2="2.083"/>
	<line fill="none" stroke="#00FF00" stroke-width="2" x1="55" y1="55.833" x2="63.167" y2="64"/>
	<line fill="none" stroke="#00FF00" stroke-width="2" x1="9.417" y1="10.25" x2="1.583" y2="2.417"/>
	<line fill="none" stroke="#00FF00" stroke-width="2" x1="9.417" y1="55.833" x2="1.375" y2="63.792"/>
</g>
</svg>
