<?xml version="1.0" encoding="utf-8"?>
<!-- Generator: Adobe Illustrator 14.0.0, SVG Export Plug-In . SVG Version: 6.00 Build 43363)  -->
<!DOCTYPE svg PUBLIC "-//W3C//DTD SVG 1.1//EN" "http://www.w3.org/Graphics/SVG/1.1/DTD/svg11.dtd">
<svg version="1.1" id="图层_1" xmlns="http://www.w3.org/2000/svg" xmlns:xlink="http://www.w3.org/1999/xlink" x="0px" y="0px"
	 width="64px" height="64px" viewBox="0 0 64 64" enable-background="new 0 0 64 64" xml:space="preserve">
<g id="Blue">
	<line fill="none" stroke="#0000FF" stroke-width="2" x1="1.375" y1="33.375" x2="62.75" y2="33.375"/>
	<rect x="9.625" y="30.989" fill="#000100" width="3.531" height="4.772"/>
	<rect x="20.125" y="30.989" fill="#000100" width="3.531" height="4.772"/>
	<rect x="30.625" y="30.989" fill="#000100" width="3.531" height="4.772"/>
	<rect x="41.125" y="30.989" fill="#000100" width="3.531" height="4.772"/>
	<rect x="51.625" y="30.989" fill="#000100" width="3.531" height="4.772"/>
</g>
<g id="Red">
	<line fill="none" stroke="#FF0000" stroke-width="2" x1="1.375" y1="33.375" x2="62.75" y2="33.375"/>
	<rect x="9.625" y="30.989" fill="#000100" width="3.531" height="4.772"/>
	<rect x="20.125" y="30.989" fill="#000100" width="3.531" height="4.772"/>
	<rect x="30.625" y="30.989" fill="#000100" width="3.531" height="4.772"/>
	<rect x="41.125" y="30.989" fill="#000100" width="3.531" height="4.772"/>
	<rect x="51.625" y="30.989" fill="#000100" width="3.531" height="4.772"/>
</g>
<g id="White">
	<line fill="none" stroke="#00FF00" stroke-width="2" x1="1.375" y1="33.375" x2="62.75" y2="33.375"/>
	<rect x="9.625" y="30.989" fill="#000100" width="3.531" height="4.772"/>
	<rect x="20.125" y="30.989" fill="#000100" width="3.531" height="4.772"/>
	<rect x="30.625" y="30.989" fill="#000100" width="3.531" height="4.772"/>
	<rect x="41.125" y="30.989" fill="#000100" width="3.531" height="4.772"/>
	<rect x="51.625" y="30.989" fill="#000100" width="3.531" height="4.772"/>
</g>
</svg>
