<?xml version="1.0" encoding="utf-8"?>
<!-- Generator: Adobe Illustrator 14.0.0, SVG Export Plug-In . SVG Version: 6.00 Build 43363)  -->
<!DOCTYPE svg PUBLIC "-//W3C//DTD SVG 1.1//EN" "http://www.w3.org/Graphics/SVG/1.1/DTD/svg11.dtd">
<svg version="1.1" id="图层_1" xmlns="http://www.w3.org/2000/svg" xmlns:xlink="http://www.w3.org/1999/xlink" x="0px" y="0px"
	 width="64px" height="64px" viewBox="0 0 64 64" enable-background="new 0 0 64 64" xml:space="preserve">
<g id="Blue">
	<line fill="none" stroke="#0000FF" stroke-width="2" x1="1.5" y1="1" x2="54.5" y2="54"/>
	<line fill="none" stroke="#0000FF" stroke-width="2" x1="54.5" y1="54" x2="54.5" y2="63"/>
	<line fill="none" stroke="#0000FF" stroke-width="2" x1="54.5" y1="54" x2="62.25" y2="54"/>
	<line fill="none" stroke="#0000FF" stroke-width="2" x1="38.313" y1="37.813" x2="48.75" y2="27.375"/>
	<line fill="none" stroke="#0000FF" stroke-width="2" x1="48.75" y1="27.375" x2="26.188" y2="4.813"/>
	<line fill="none" stroke="#0000FF" stroke-width="2" x1="26.188" y1="4.813" x2="15.75" y2="15.25"/>
	<line fill="none" stroke="#0000FF" stroke-width="2" x1="27.567" y1="8.567" x2="36.73" y2="33.507"/>
	<line fill="none" stroke="#0000FF" stroke-width="2" x1="19.458" y1="16.613" x2="44.149" y2="25.685"/>
</g>
<g id="Red">
	<line fill="none" stroke="#FF0000" stroke-width="2" x1="1.5" y1="1" x2="54.5" y2="54"/>
	<line fill="none" stroke="#FF0000" stroke-width="2" x1="54.5" y1="54" x2="54.5" y2="63"/>
	<line fill="none" stroke="#FF0000" stroke-width="2" x1="54.5" y1="54" x2="62.25" y2="54"/>
	<line fill="none" stroke="#FF0000" stroke-width="2" x1="38.313" y1="37.813" x2="48.75" y2="27.375"/>
	<line fill="none" stroke="#FF0000" stroke-width="2" x1="48.75" y1="27.375" x2="26.188" y2="4.813"/>
	<line fill="none" stroke="#FF0000" stroke-width="2" x1="26.188" y1="4.813" x2="15.75" y2="15.25"/>
	<line fill="none" stroke="#FF0000" stroke-width="2" x1="27.567" y1="8.567" x2="36.73" y2="33.507"/>
	<line fill="none" stroke="#FF0000" stroke-width="2" x1="19.458" y1="16.613" x2="44.149" y2="25.685"/>
</g>
<g id="White">
	<line fill="none" stroke="#00FF00" stroke-width="2" x1="1.5" y1="1" x2="54.5" y2="54"/>
	<line fill="none" stroke="#00FF00" stroke-width="2" x1="54.5" y1="54" x2="54.5" y2="63"/>
	<line fill="none" stroke="#00FF00" stroke-width="2" x1="54.5" y1="54" x2="62.25" y2="54"/>
	<line fill="none" stroke="#00FF00" stroke-width="2" x1="38.313" y1="37.813" x2="48.75" y2="27.375"/>
	<line fill="none" stroke="#00FF00" stroke-width="2" x1="48.75" y1="27.375" x2="26.188" y2="4.813"/>
	<line fill="none" stroke="#00FF00" stroke-width="2" x1="26.188" y1="4.813" x2="15.75" y2="15.25"/>
	<line fill="none" stroke="#00FF00" stroke-width="2" x1="27.567" y1="8.567" x2="36.73" y2="33.507"/>
	<line fill="none" stroke="#00FF00" stroke-width="2" x1="19.458" y1="16.613" x2="44.149" y2="25.685"/>
</g>
</svg>
