<?xml version="1.0" encoding="utf-8"?>
<!-- Generator: Adobe Illustrator 14.0.0, SVG Export Plug-In . SVG Version: 6.00 Build 43363)  -->
<!DOCTYPE svg PUBLIC "-//W3C//DTD SVG 1.1//EN" "http://www.w3.org/Graphics/SVG/1.1/DTD/svg11.dtd">
<svg version="1.1" id="图层_1" xmlns="http://www.w3.org/2000/svg" xmlns:xlink="http://www.w3.org/1999/xlink" x="0px" y="0px"
	 width="64px" height="64px" viewBox="0 0 64 64" enable-background="new 0 0 64 64" xml:space="preserve">
<g id="Blue">
	<polygon fill="none" stroke="#0000FF" stroke-width="2" points="53.75,49.375 10.125,49.375 1.375,32.875 62.5,32.875 	"/>
	<line fill="none" stroke="#0000FF" stroke-width="2" x1="16.125" y1="32.875" x2="16.125" y2="15.875"/>
	<line fill="none" stroke="#0000FF" stroke-width="2" x1="16.125" y1="15.875" x2="47.625" y2="15.875"/>
	<line fill="none" stroke="#0000FF" stroke-width="2" x1="47.625" y1="15.875" x2="47.625" y2="32.875"/>
</g>
<g id="Red">
	<polygon fill="none" stroke="#FF0000" stroke-width="2" points="53.75,49.375 10.125,49.375 1.375,32.875 62.5,32.875 	"/>
	<line fill="none" stroke="#FF0000" stroke-width="2" x1="16.125" y1="32.875" x2="16.125" y2="15.875"/>
	<line fill="none" stroke="#FF0000" stroke-width="2" x1="16.125" y1="15.875" x2="47.625" y2="15.875"/>
	<line fill="none" stroke="#FF0000" stroke-width="2" x1="47.625" y1="15.875" x2="47.625" y2="32.875"/>
</g>
<g id="White">
	<polygon fill="none" stroke="#00FF00" stroke-width="2" points="53.75,49.375 10.125,49.375 1.375,32.875 62.5,32.875 	"/>
	<line fill="none" stroke="#00FF00" stroke-width="2" x1="16.125" y1="32.875" x2="16.125" y2="15.875"/>
	<line fill="none" stroke="#00FF00" stroke-width="2" x1="16.125" y1="15.875" x2="47.625" y2="15.875"/>
	<line fill="none" stroke="#00FF00" stroke-width="2" x1="47.625" y1="15.875" x2="47.625" y2="32.875"/>
</g>
</svg>
