<?xml version="1.0" encoding="utf-8"?>
<!-- Generator: Adobe Illustrator 14.0.0, SVG Export Plug-In . SVG Version: 6.00 Build 43363)  -->
<!DOCTYPE svg PUBLIC "-//W3C//DTD SVG 1.1//EN" "http://www.w3.org/Graphics/SVG/1.1/DTD/svg11.dtd">
<svg version="1.1" id="图层_1" xmlns="http://www.w3.org/2000/svg" xmlns:xlink="http://www.w3.org/1999/xlink" x="0px" y="0px"
	 width="64px" height="64px" viewBox="0 0 64 64" enable-background="new 0 0 64 64" xml:space="preserve">
<g id="Blue">
	<polygon fill="none" stroke="#0000FF" stroke-width="2" points="54,48.75 10.875,48.75 2.5,19 62.75,19 	"/>
	<line fill="none" stroke="#0000FF" stroke-width="2" x1="17.5" y1="31.25" x2="20.25" y2="34"/>
	<line fill="none" stroke="#0000FF" stroke-width="2" x1="20.25" y1="34" x2="17.313" y2="36.938"/>
	<line fill="none" stroke="#0000FF" stroke-width="2" x1="20.25" y1="34" x2="43.375" y2="34"/>
	<line fill="none" stroke="#0000FF" stroke-width="2" x1="43.375" y1="34" x2="46" y2="31.375"/>
	<line fill="none" stroke="#0000FF" stroke-width="2" x1="43.375" y1="34" x2="46.156" y2="36.781"/>
</g>
<g id="Red">
	<polygon fill="none" stroke="#FF0000" stroke-width="2" points="54,48.75 10.875,48.75 2.5,19 62.75,19 	"/>
	<line fill="none" stroke="#FF0000" stroke-width="2" x1="17.5" y1="31.25" x2="20.25" y2="34"/>
	<line fill="none" stroke="#FF0000" stroke-width="2" x1="20.25" y1="34" x2="17.313" y2="36.938"/>
	<line fill="none" stroke="#FF0000" stroke-width="2" x1="20.25" y1="34" x2="43.375" y2="34"/>
	<line fill="none" stroke="#FF0000" stroke-width="2" x1="43.375" y1="34" x2="46" y2="31.375"/>
	<line fill="none" stroke="#FF0000" stroke-width="2" x1="43.375" y1="34" x2="46.156" y2="36.781"/>
</g>
<g id="White">
	<polygon fill="none" stroke="#00FF00" stroke-width="2" points="54,48.75 10.875,48.75 2.5,19 62.75,19 	"/>
	<line fill="none" stroke="#00FF00" stroke-width="2" x1="17.5" y1="31.25" x2="20.25" y2="34"/>
	<line fill="none" stroke="#00FF00" stroke-width="2" x1="20.25" y1="34" x2="17.313" y2="36.938"/>
	<line fill="none" stroke="#00FF00" stroke-width="2" x1="20.25" y1="34" x2="43.375" y2="34"/>
	<line fill="none" stroke="#00FF00" stroke-width="2" x1="43.375" y1="34" x2="46" y2="31.375"/>
	<line fill="none" stroke="#00FF00" stroke-width="2" x1="43.375" y1="34" x2="46.156" y2="36.781"/>
</g>
</svg>
