<?xml version="1.0" encoding="utf-8"?>
<!-- Generator: Adobe Illustrator 14.0.0, SVG Export Plug-In . SVG Version: 6.00 Build 43363)  -->
<!DOCTYPE svg PUBLIC "-//W3C//DTD SVG 1.1//EN" "http://www.w3.org/Graphics/SVG/1.1/DTD/svg11.dtd">
<svg version="1.1" id="图层_1" xmlns="http://www.w3.org/2000/svg" xmlns:xlink="http://www.w3.org/1999/xlink" x="0px" y="0px"
	 width="64px" height="64px" viewBox="0 0 64 64" enable-background="new 0 0 64 64" xml:space="preserve">
<g id="Blue">
	<line fill="none" stroke="#0000FF" stroke-width="2" x1="61.417" y1="23.998" x2="32" y2="23.998"/>
	<line fill="none" stroke="#0000FF" stroke-width="2" x1="61.417" y1="42.833" x2="32" y2="42.833"/>
	<line fill="none" stroke="#0000FF" stroke-width="2" x1="61.417" y1="42.833" x2="61.417" y2="23.998"/>
	<circle fill="none" stroke="#0000FF" stroke-width="2" cx="4.792" cy="33.416" r="3.709"/>
	<line fill="none" stroke="#0000FF" stroke-width="2" x1="22.259" y1="33.416" x2="8.501" y2="33.416"/>
	<path fill="none" stroke="#0000FF" stroke-width="2" d="M32,23.998c0,0-9.741,0-9.741,9.418c0,0,0,9.418,9.741,9.417"/>
</g>
<g id="Red">
	<line fill="none" stroke="#FF0000" stroke-width="2" x1="61.417" y1="23.998" x2="32" y2="23.998"/>
	<line fill="none" stroke="#FF0000" stroke-width="2" x1="61.417" y1="42.833" x2="32" y2="42.833"/>
	<line fill="none" stroke="#FF0000" stroke-width="2" x1="61.417" y1="42.833" x2="61.417" y2="23.998"/>
	<circle fill="none" stroke="#FF0000" stroke-width="2" cx="4.792" cy="33.416" r="3.709"/>
	<line fill="none" stroke="#FF0000" stroke-width="2" x1="22.259" y1="33.416" x2="8.501" y2="33.416"/>
	<path fill="none" stroke="#FF0000" stroke-width="2" d="M32,23.998c0,0-9.741,0-9.741,9.418c0,0,0,9.418,9.741,9.417"/>
</g>
<g id="White">
	<line fill="none" stroke="#00FF00" stroke-width="2" x1="61.417" y1="23.998" x2="32" y2="23.998"/>
	<line fill="none" stroke="#00FF00" stroke-width="2" x1="61.417" y1="42.833" x2="32" y2="42.833"/>
	<line fill="none" stroke="#00FF00" stroke-width="2" x1="61.417" y1="42.833" x2="61.417" y2="23.998"/>
	<circle fill="none" stroke="#00FF00" stroke-width="2" cx="4.792" cy="33.416" r="3.709"/>
	<line fill="none" stroke="#00FF00" stroke-width="2" x1="22.259" y1="33.416" x2="8.501" y2="33.416"/>
	<path fill="none" stroke="#00FF00" stroke-width="2" d="M32,23.998c0,0-9.741,0-9.741,9.418c0,0,0,9.418,9.741,9.417"/>
</g>
</svg>
