<?xml version="1.0" encoding="utf-8"?>
<!-- Generator: Adobe Illustrator 14.0.0, SVG Export Plug-In . SVG Version: 6.00 Build 43363)  -->
<!DOCTYPE svg PUBLIC "-//W3C//DTD SVG 1.1//EN" "http://www.w3.org/Graphics/SVG/1.1/DTD/svg11.dtd">
<svg version="1.1" id="图层_1" xmlns="http://www.w3.org/2000/svg" xmlns:xlink="http://www.w3.org/1999/xlink" x="0px" y="0px"
	 width="64px" height="64px" viewBox="0 0 64 64" enable-background="new 0 0 64 64" xml:space="preserve">
<g id="Blue">
	<line fill="none" stroke="#0000FF" x1="61.75" y1="28.333" x2="57.167" y2="32.917"/>
	<line fill="none" stroke="#0000FF" x1="57.167" y1="32.917" x2="61.75" y2="37.417"/>
	<line fill="none" stroke="#FFFF00" x1="2.917" y1="28.437" x2="8.309" y2="32.931"/>
	<line fill="none" stroke="#FFFF00" x1="8.309" y1="32.931" x2="2.917" y2="37.343"/>
	<line fill="none" stroke="#FFFF00" x1="8.417" y1="32.813" x2="57.167" y2="32.813"/>
	<line fill="none" stroke="#403349" x1="2.917" y1="28.333" x2="8.417" y2="32.917"/>
	<line fill="none" stroke="#403349" x1="8.417" y1="32.917" x2="2.917" y2="37.417"/>
	<line fill="none" stroke="#403349" x1="8.417" y1="32.917" x2="57.167" y2="32.917"/>
</g>
<g id="Red">
	<line fill="none" stroke="#FF0000" x1="61.75" y1="28.333" x2="57.167" y2="32.917"/>
	<line fill="none" stroke="#FF0000" x1="57.167" y1="32.917" x2="61.75" y2="37.417"/>
	<line fill="none" stroke="#FFFF00" x1="2.917" y1="28.437" x2="8.309" y2="32.931"/>
	<line fill="none" stroke="#FFFF00" x1="8.309" y1="32.931" x2="2.917" y2="37.343"/>
	<line fill="none" stroke="#FFFF00" x1="8.417" y1="32.813" x2="57.167" y2="32.813"/>
	<line fill="none" stroke="#403349" x1="2.917" y1="28.333" x2="8.417" y2="32.917"/>
	<line fill="none" stroke="#403349" x1="8.417" y1="32.917" x2="2.917" y2="37.417"/>
	<line fill="none" stroke="#403349" x1="8.417" y1="32.917" x2="57.167" y2="32.917"/>
</g>
<g id="White">
	<line fill="none" stroke="#00FF00" x1="61.75" y1="28.333" x2="57.167" y2="32.917"/>
	<line fill="none" stroke="#00FF00" x1="57.167" y1="32.917" x2="61.75" y2="37.417"/>
	<line fill="none" stroke="#FFFF00" x1="2.917" y1="28.437" x2="8.309" y2="32.931"/>
	<line fill="none" stroke="#FFFF00" x1="8.309" y1="32.931" x2="2.917" y2="37.343"/>
	<line fill="none" stroke="#FFFF00" x1="8.417" y1="32.813" x2="57.167" y2="32.813"/>
	<line fill="none" stroke="#403349" x1="2.917" y1="28.333" x2="8.417" y2="32.917"/>
	<line fill="none" stroke="#403349" x1="8.417" y1="32.917" x2="2.917" y2="37.417"/>
	<line fill="none" stroke="#403349" x1="8.417" y1="32.917" x2="57.167" y2="32.917"/>
</g>
</svg>
