<?xml version="1.0" encoding="utf-8"?>
<!-- Generator: Adobe Illustrator 14.0.0, SVG Export Plug-In . SVG Version: 6.00 Build 43363)  -->
<!DOCTYPE svg PUBLIC "-//W3C//DTD SVG 1.1//EN" "http://www.w3.org/Graphics/SVG/1.1/DTD/svg11.dtd">
<svg version="1.1" id="图层_1" xmlns="http://www.w3.org/2000/svg" xmlns:xlink="http://www.w3.org/1999/xlink" x="0px" y="0px"
	 width="64px" height="64px" viewBox="0 0 64 64" enable-background="new 0 0 64 64" xml:space="preserve">
<g id="Blue">
	<path fill="none" stroke="#0000FF" stroke-width="2" d="M39.168,7.833c0,0-15.667,5.833-15.5,24.5c0,0-1,16.667,15.5,23.333"/>
	<path fill="none" stroke="#0000FF" stroke-width="2" d="M43.667,13.875c0,0-12.377,4.608-12.246,19.356
		c0,0-0.79,13.168,12.246,18.435"/>
	<line fill="none" stroke="#0000FF" stroke-width="2" x1="34.231" y1="10.655" x2="28.834" y2="3"/>
	<line fill="none" stroke="#0000FF" stroke-width="2" x1="23.668" y1="32.333" x2="13.667" y2="32.333"/>
	<line fill="none" stroke="#0000FF" stroke-width="2" x1="35.241" y1="53.709" x2="30.501" y2="60.666"/>
</g>
<g id="Red">
	<path fill="none" stroke="#FF0000" stroke-width="2" d="M39.168,7.833c0,0-15.667,5.833-15.5,24.5c0,0-1,16.667,15.5,23.333"/>
	<path fill="none" stroke="#FF0000" stroke-width="2" d="M43.667,13.875c0,0-12.377,4.608-12.246,19.356
		c0,0-0.79,13.168,12.246,18.435"/>
	<line fill="none" stroke="#FF0000" stroke-width="2" x1="34.231" y1="10.655" x2="28.834" y2="3"/>
	<line fill="none" stroke="#FF0000" stroke-width="2" x1="23.668" y1="32.333" x2="13.667" y2="32.333"/>
	<line fill="none" stroke="#FF0000" stroke-width="2" x1="35.241" y1="53.709" x2="30.501" y2="60.666"/>
</g>
<g id="White">
	<path fill="none" stroke="#00FF00" stroke-width="2" d="M39.168,7.833c0,0-15.667,5.833-15.5,24.5c0,0-1,16.667,15.5,23.333"/>
	<path fill="none" stroke="#00FF00" stroke-width="2" d="M43.667,13.875c0,0-12.377,4.608-12.246,19.356
		c0,0-0.79,13.168,12.246,18.435"/>
	<line fill="none" stroke="#00FF00" stroke-width="2" x1="34.231" y1="10.655" x2="28.834" y2="3"/>
	<line fill="none" stroke="#00FF00" stroke-width="2" x1="23.668" y1="32.333" x2="13.667" y2="32.333"/>
	<line fill="none" stroke="#00FF00" stroke-width="2" x1="35.241" y1="53.709" x2="30.501" y2="60.666"/>
</g>
</svg>
