<?xml version="1.0" encoding="utf-8"?>
<!-- Generator: Adobe Illustrator 14.0.0, SVG Export Plug-In . SVG Version: 6.00 Build 43363)  -->
<!DOCTYPE svg PUBLIC "-//W3C//DTD SVG 1.1//EN" "http://www.w3.org/Graphics/SVG/1.1/DTD/svg11.dtd">
<svg version="1.1" id="图层_1" xmlns="http://www.w3.org/2000/svg" xmlns:xlink="http://www.w3.org/1999/xlink" x="0px" y="0px"
	 width="64px" height="64px" viewBox="0 0 64 64" enable-background="new 0 0 64 64" xml:space="preserve">
<g id="Blue">
	<polygon fill="none" stroke="#0000FF" stroke-width="2" points="63.063,61.75 0.938,61.75 0.75,1.375 62.875,1.375 	"/>
	<line fill="none" stroke="#0000FF" stroke-width="2" x1="10" y1="17.125" x2="54.375" y2="17.125"/>
	<line fill="none" stroke="#0000FF" stroke-width="2" x1="10" y1="45.875" x2="54.375" y2="45.875"/>
	<line fill="none" stroke="#0000FF" stroke-width="2" x1="21" y1="5.875" x2="21" y2="56.375"/>
	<line fill="none" stroke="#0000FF" stroke-width="2" x1="45.25" y1="7" x2="45.25" y2="57.5"/>
</g>
<g id="Red">
	<polygon fill="none" stroke="#FF0000" stroke-width="2" points="63.063,61.75 0.938,61.75 0.75,1.375 62.875,1.375 	"/>
	<line fill="none" stroke="#FF0000" stroke-width="2" x1="10" y1="17.125" x2="54.375" y2="17.125"/>
	<line fill="none" stroke="#FF0000" stroke-width="2" x1="10" y1="45.875" x2="54.375" y2="45.875"/>
	<line fill="none" stroke="#FF0000" stroke-width="2" x1="21" y1="5.875" x2="21" y2="56.375"/>
	<line fill="none" stroke="#FF0000" stroke-width="2" x1="45.25" y1="7" x2="45.25" y2="57.5"/>
</g>
<g id="White">
	<polygon fill="none" stroke="#00FF00" stroke-width="2" points="63.063,61.75 0.938,61.75 0.75,1.375 62.875,1.375 	"/>
	<line fill="none" stroke="#00FF00" stroke-width="2" x1="10" y1="17.125" x2="54.375" y2="17.125"/>
	<line fill="none" stroke="#00FF00" stroke-width="2" x1="10" y1="45.875" x2="54.375" y2="45.875"/>
	<line fill="none" stroke="#00FF00" stroke-width="2" x1="21" y1="5.875" x2="21" y2="56.375"/>
	<line fill="none" stroke="#00FF00" stroke-width="2" x1="45.25" y1="7" x2="45.25" y2="57.5"/>
</g>
</svg>
