<?xml version="1.0" encoding="utf-8"?>
<!-- Generator: Adobe Illustrator 14.0.0, SVG Export Plug-In . SVG Version: 6.00 Build 43363)  -->
<!DOCTYPE svg PUBLIC "-//W3C//DTD SVG 1.1//EN" "http://www.w3.org/Graphics/SVG/1.1/DTD/svg11.dtd">
<svg version="1.1" id="图层_1" xmlns="http://www.w3.org/2000/svg" xmlns:xlink="http://www.w3.org/1999/xlink" x="0px" y="0px"
	 width="64px" height="64px" viewBox="0 0 64 64" enable-background="new 0 0 64 64" xml:space="preserve">
<g id="Blue">
	<path fill="none" stroke="#0000FF" stroke-width="2" d="M2.529,37.522c0,0-1.628-9.906,13.035-17.316c0,0,4.399-2.818,12.954-3.462
		c0,0,10.837-1.289,17.516,1.61c0,0,15.315,5.718,15.561,17.557c0,0,2.037,13.127-10.103,15.541c0,0-3.013-0.077-11.729-1.126
		c0,0-7.822-1.529-18.006,1.126c0,0-6.681,0.323-10.265-0.966C11.491,50.486,2.203,48.393,2.529,37.522z"/>
	<path fill="none" stroke="#422E44" stroke-width="2" d="M1.833,37.583c0,0-1.667-10.25,13.333-17.917c0,0,4.5-2.916,13.25-3.583
		c0,0,11.084-1.333,17.917,1.667c0,0,15.666,5.917,15.916,18.167c0,0,2.084,13.583-10.333,16.083c0,0-3.083-0.082-12-1.166
		c0,0-8-1.584-18.417,1.166c0,0-6.833,0.333-10.5-1C11,51,1.5,48.832,1.833,37.583z"/>
	<polygon fill="#000100" points="35.188,29.688 29.813,29.688 32.5,25.563 33.047,26.422 	"/>
	<polygon fill="#000100" points="45.938,40.854 40.563,40.854 43.25,36.729 43.797,37.588 	"/>
	<polygon fill="#000100" points="24.438,40.854 19.063,40.854 21.75,36.729 22.297,37.589 	"/>
</g>
<g id="Red">
	<path fill="none" stroke="#FF0000" stroke-width="2" d="M2.529,37.522c0,0-1.628-9.906,13.035-17.316c0,0,4.399-2.818,12.954-3.462
		c0,0,10.837-1.289,17.516,1.61c0,0,15.315,5.718,15.561,17.557c0,0,2.037,13.127-10.103,15.541c0,0-3.013-0.077-11.729-1.126
		c0,0-7.822-1.529-18.006,1.126c0,0-6.681,0.323-10.265-0.966C11.491,50.486,2.203,48.393,2.529,37.522z"/>
	<path fill="none" stroke="#422E44" stroke-width="2" d="M1.833,37.583c0,0-1.667-10.25,13.333-17.917c0,0,4.5-2.916,13.25-3.583
		c0,0,11.084-1.333,17.917,1.667c0,0,15.666,5.917,15.916,18.167c0,0,2.084,13.583-10.333,16.083c0,0-3.083-0.082-12-1.166
		c0,0-8-1.584-18.417,1.166c0,0-6.833,0.333-10.5-1C11,51,1.5,48.832,1.833,37.583z"/>
	<polygon fill="#000100" points="35.188,29.688 29.813,29.688 32.5,25.563 33.047,26.422 	"/>
	<polygon fill="#000100" points="45.938,40.854 40.563,40.854 43.25,36.729 43.797,37.588 	"/>
	<polygon fill="#000100" points="24.438,40.854 19.063,40.854 21.75,36.729 22.297,37.589 	"/>
</g>
<g id="White">
	<path fill="none" stroke="#00FF00" stroke-width="2" d="M2.529,37.522c0,0-1.628-9.906,13.035-17.316c0,0,4.399-2.818,12.954-3.462
		c0,0,10.837-1.289,17.516,1.61c0,0,15.315,5.718,15.561,17.557c0,0,2.037,13.127-10.103,15.541c0,0-3.013-0.077-11.729-1.126
		c0,0-7.822-1.529-18.006,1.126c0,0-6.681,0.323-10.265-0.966C11.491,50.486,2.203,48.393,2.529,37.522z"/>
	<path fill="none" stroke="#422E44" stroke-width="2" d="M1.833,37.583c0,0-1.667-10.25,13.333-17.917c0,0,4.5-2.916,13.25-3.583
		c0,0,11.084-1.333,17.917,1.667c0,0,15.666,5.917,15.916,18.167c0,0,2.084,13.583-10.333,16.083c0,0-3.083-0.082-12-1.166
		c0,0-8-1.584-18.417,1.166c0,0-6.833,0.333-10.5-1C11,51,1.5,48.832,1.833,37.583z"/>
	<polygon fill="#000100" points="35.188,29.688 29.813,29.688 32.5,25.563 33.047,26.422 	"/>
	<polygon fill="#000100" points="45.938,40.854 40.563,40.854 43.25,36.729 43.797,37.588 	"/>
	<polygon fill="#000100" points="24.438,40.854 19.063,40.854 21.75,36.729 22.297,37.589 	"/>
</g>
</svg>
