<?xml version="1.0" encoding="utf-8"?>
<!-- Generator: Adobe Illustrator 14.0.0, SVG Export Plug-In . SVG Version: 6.00 Build 43363)  -->
<!DOCTYPE svg PUBLIC "-//W3C//DTD SVG 1.1//EN" "http://www.w3.org/Graphics/SVG/1.1/DTD/svg11.dtd">
<svg version="1.1" id="图层_1" xmlns="http://www.w3.org/2000/svg" xmlns:xlink="http://www.w3.org/1999/xlink" x="0px" y="0px"
	 width="64px" height="64px" viewBox="0 0 64 64" enable-background="new 0 0 64 64" xml:space="preserve">
<g id="Blue">
	<ellipse fill="none" stroke="#0000FF" stroke-width="2" cx="32.584" cy="34" rx="30.25" ry="16.167"/>
	<line fill="none" stroke="#0000FF" stroke-width="2" x1="4.167" y1="34" x2="62.834" y2="34"/>
	<line fill="none" stroke="#0000FF" stroke-width="2" x1="15.125" y1="24.063" x2="18.125" y2="29.625"/>
	<line fill="none" stroke="#0000FF" stroke-width="2" x1="18.125" y1="29.625" x2="20.188" y2="24.063"/>
	<line fill="none" stroke="#0000FF" stroke-width="2" x1="32.584" y1="24.063" x2="35.313" y2="29.625"/>
	<line fill="none" stroke="#0000FF" stroke-width="2" x1="35.313" y1="29.625" x2="37.938" y2="24.063"/>
	<line fill="none" stroke="#0000FF" stroke-width="2" x1="24.625" y1="38" x2="27.75" y2="43.625"/>
	<line fill="none" stroke="#0000FF" stroke-width="2" x1="27.75" y1="43.625" x2="30.125" y2="37.438"/>
	<line fill="none" stroke="#0000FF" stroke-width="2" x1="41.5" y1="38" x2="44.5" y2="42.438"/>
	<line fill="none" stroke="#0000FF" stroke-width="2" x1="44.5" y1="42.438" x2="46.938" y2="37.438"/>
</g>
<g id="Red">
	<ellipse fill="none" stroke="#FF0000" stroke-width="2" cx="32.584" cy="34" rx="30.25" ry="16.167"/>
	<line fill="none" stroke="#FF0000" stroke-width="2" x1="4.167" y1="34" x2="62.834" y2="34"/>
	<line fill="none" stroke="#FF0000" stroke-width="2" x1="15.125" y1="24.063" x2="18.125" y2="29.625"/>
	<line fill="none" stroke="#FF0000" stroke-width="2" x1="18.125" y1="29.625" x2="20.188" y2="24.063"/>
	<line fill="none" stroke="#FF0000" stroke-width="2" x1="32.584" y1="24.063" x2="35.313" y2="29.625"/>
	<line fill="none" stroke="#FF0000" stroke-width="2" x1="35.313" y1="29.625" x2="37.938" y2="24.063"/>
	<line fill="none" stroke="#FF0000" stroke-width="2" x1="24.625" y1="38" x2="27.75" y2="43.625"/>
	<line fill="none" stroke="#FF0000" stroke-width="2" x1="27.75" y1="43.625" x2="30.125" y2="37.438"/>
	<line fill="none" stroke="#FF0000" stroke-width="2" x1="41.5" y1="38" x2="44.5" y2="42.438"/>
	<line fill="none" stroke="#FF0000" stroke-width="2" x1="44.5" y1="42.438" x2="46.938" y2="37.438"/>
</g>
<g id="White">
	<ellipse fill="none" stroke="#00FF00" stroke-width="2" cx="32.584" cy="34" rx="30.25" ry="16.167"/>
	<line fill="none" stroke="#00FF00" stroke-width="2" x1="4.167" y1="34" x2="62.834" y2="34"/>
	<line fill="none" stroke="#00FF00" stroke-width="2" x1="15.125" y1="24.063" x2="18.125" y2="29.625"/>
	<line fill="none" stroke="#00FF00" stroke-width="2" x1="18.125" y1="29.625" x2="20.188" y2="24.063"/>
	<line fill="none" stroke="#00FF00" stroke-width="2" x1="32.584" y1="24.063" x2="35.313" y2="29.625"/>
	<line fill="none" stroke="#00FF00" stroke-width="2" x1="35.313" y1="29.625" x2="37.938" y2="24.063"/>
	<line fill="none" stroke="#00FF00" stroke-width="2" x1="24.625" y1="38" x2="27.75" y2="43.625"/>
	<line fill="none" stroke="#00FF00" stroke-width="2" x1="27.75" y1="43.625" x2="30.125" y2="37.438"/>
	<line fill="none" stroke="#00FF00" stroke-width="2" x1="41.5" y1="38" x2="44.5" y2="42.438"/>
	<line fill="none" stroke="#00FF00" stroke-width="2" x1="44.5" y1="42.438" x2="46.938" y2="37.438"/>
</g>
</svg>
